M48
;Layer_Color=9474304
;FILE_FORMAT=2:4
INCH,TZ
;TYPE=PLATED
T2F00S00C0.0078
%
T02
X34321Y39616
X34596Y39616
X34911Y39616
Y40561
Y40876
X34596Y40876
X34321Y40876
Y40561
X34596Y40561
Y41821
X34321Y41821
X34911
X35512Y41536
X35807Y42126
X35984Y42412
X37549Y43130
X38720Y42894
X39803Y43455
X41083Y44429
X42037Y43563
Y43248
X41880Y41368
X41270Y41211
X41368Y40541
X41380Y39792
X41535Y39528
X40600Y39892
X40108Y40236
Y40551
X39370Y40236
X39606Y39518
X39921
X39518Y38489
X40718Y38730
X42392Y40030
X42707
X42628Y41250
X43101Y41329
X44134Y41319
X44371Y41024
X44163Y39793
X44774Y39597
X45098
X45344Y38593
X45443Y37746
X45089
Y37392
Y37038
X45443
Y37392
X44252Y37234
Y37549
X46654
Y37234
X46841Y39223
X46841Y39538
X46772Y43789
X45187Y43081
X43209Y45915
X42274Y46132
X42215Y45443
X41486Y46074
X42795Y46723
X38494Y46762
X37116
X36535Y45138
X36211Y44734
X35787Y45610
X34911Y44971
X34596Y44970
X34321Y44971
Y44026
X34596Y44026
X34911Y44026
X37638Y44685
X37785Y41791
X37510Y40847
X37175Y40689
X37057Y40128
X37087Y39528
X48494Y40010
X48307Y41132
X48829Y42589
X48474Y43612
X48425Y44331
X47766Y43937
X47274Y43957
Y43415
X47766Y43219
X47982Y45778
X51329
X50758Y44282
X51289Y43652
Y43074
X51535Y43081
X51407Y41949
X50984Y42264
X51496Y41162
X51693Y41257
X52402Y40876
X52628
X52373Y40107
X52195Y40246
X52224Y39055
X50975Y40305
X51240Y37412
X51407Y36998
X51407Y36604
Y36211
X50226Y36604
X48573Y37156
X48730Y37412
X47392Y36998
Y36604
X47982Y46959
X42766Y47136
M30
