G04*
G04 #@! TF.GenerationSoftware,Altium Limited,Altium Designer,19.1.6 (110)*
G04*
G04 Layer_Color=32768*
%FSLAX44Y44*%
%MOMM*%
G71*
G01*
G75*
%ADD11C,0.3000*%
%ADD12C,0.2000*%
%ADD13C,0.1500*%
%ADD14C,0.2500*%
%ADD15C,0.1000*%
%ADD35C,0.2000*%
%ADD133C,0.3500*%
%ADD137C,0.6000*%
%ADD146C,0.5000*%
%ADD216C,0.0500*%
%ADD217C,0.2540*%
%ADD218C,0.0700*%
D11*
X162250Y308500D02*
Y316831D01*
X166415Y320996D01*
X170581Y316831D01*
Y308500D01*
Y314748D01*
X162250D01*
X174746Y308500D02*
X180994D01*
X183077Y310583D01*
X180994Y312665D01*
X176829D01*
X174746Y314748D01*
X176829Y316831D01*
X183077D01*
X187242Y308500D02*
X193490D01*
X195573Y310583D01*
X193490Y312665D01*
X189325D01*
X187242Y314748D01*
X189325Y316831D01*
X195573D01*
X205986Y308500D02*
X201821D01*
X199738Y310583D01*
Y314748D01*
X201821Y316831D01*
X205986D01*
X208069Y314748D01*
Y312665D01*
X199738D01*
X212234Y308500D02*
Y316831D01*
X214317D01*
X216399Y314748D01*
Y308500D01*
Y314748D01*
X218482Y316831D01*
X220564Y314748D01*
Y308500D01*
X224730Y320996D02*
Y308500D01*
X230978D01*
X233060Y310583D01*
Y312665D01*
Y314748D01*
X230978Y316831D01*
X224730D01*
X237226Y308500D02*
X241391D01*
X239308D01*
Y320996D01*
X237226D01*
X247639Y316831D02*
Y310583D01*
X249722Y308500D01*
X255970D01*
Y306417D01*
X253887Y304335D01*
X251804D01*
X255970Y308500D02*
Y316831D01*
X274714Y318913D02*
Y316831D01*
X272631D01*
X276796D01*
X274714D01*
Y310583D01*
X276796Y308500D01*
X285127D02*
X289292D01*
X291375Y310583D01*
Y314748D01*
X289292Y316831D01*
X285127D01*
X283044Y314748D01*
Y310583D01*
X285127Y308500D01*
X295540Y304335D02*
Y316831D01*
X301788D01*
X303871Y314748D01*
Y310583D01*
X301788Y308500D01*
X295540D01*
D12*
X176809Y152750D02*
G03*
X176809Y152750I-559J0D01*
G01*
X40000Y45250D02*
G03*
X40000Y45250I-1000J0D01*
G01*
X60000Y78625D02*
G03*
X60000Y78625I-250J0D01*
G01*
X128000Y43000D02*
G03*
X128000Y43000I-250J0D01*
G01*
X134250Y97000D02*
G03*
X134250Y97000I-250J0D01*
G01*
X185250Y197000D02*
G03*
X185250Y197000I-250J0D01*
G01*
X224750Y65750D02*
G03*
X224750Y65750I-250J0D01*
G01*
X267750Y19000D02*
G03*
X267750Y19000I-250J0D01*
G01*
X437104Y82000D02*
G03*
X437104Y82000I-353J0D01*
G01*
X416750Y168000D02*
G03*
X416750Y168000I-250J0D01*
G01*
D13*
X-8000Y277000D02*
G03*
X-0Y285000I0J8000D01*
G01*
Y12000D02*
G03*
X-8000Y20000I-8000J0D01*
G01*
X0Y179000D02*
G03*
X0Y195000I0J8000D01*
G01*
Y179000D02*
G03*
X0Y195000I0J8000D01*
G01*
Y12000D02*
G03*
X-8000Y20000I-8000J0D01*
G01*
Y277000D02*
G03*
X0Y285000I0J8000D01*
G01*
X14250Y88000D02*
Y126000D01*
Y88000D02*
X49250D01*
Y126000D01*
X14250D02*
X49250D01*
X379092Y148500D02*
X391592D01*
X379092Y136000D02*
Y148500D01*
X366592D02*
X379092D01*
Y161000D01*
X291592Y236000D02*
X466592D01*
Y61000D02*
Y236000D01*
X291592Y61000D02*
X466592D01*
X291592D02*
Y236000D01*
X194250Y147750D02*
Y177750D01*
X172250Y147750D02*
Y177750D01*
X194250D01*
X172250Y147750D02*
X194250D01*
X183250Y157750D02*
Y167750D01*
X178250Y162750D02*
X188250D01*
X51500Y195500D02*
Y295500D01*
X151500D01*
Y195500D02*
Y295500D01*
X51500Y195500D02*
X151500D01*
X96500Y245500D02*
X106500D01*
X101500Y240500D02*
Y250500D01*
X52000Y5250D02*
X54892Y10311D01*
X49108D02*
X52000Y5250D01*
Y14250D01*
Y30250D02*
X57000D01*
X52000Y25250D02*
Y30250D01*
X47000D02*
X52000D01*
Y35250D01*
X-2000Y2250D02*
Y56250D01*
X106000D01*
Y2250D02*
Y56250D01*
X-2000Y2250D02*
X106000D01*
X-40000Y277000D02*
X-8000D01*
X-0Y285000D02*
Y297000D01*
X-0D02*
X468000D01*
X468000Y-0D01*
X0D02*
X468000D01*
X-0Y12000D02*
X0Y-0D01*
X-40000Y20000D02*
X-8000D01*
X-40000Y20000D02*
Y179000D01*
X0D01*
X-40000Y195000D02*
X0D01*
X-40000D02*
Y277000D01*
X45740Y101945D02*
X78760D01*
Y61305D02*
Y101945D01*
X45740Y61305D02*
X78760D01*
X45740D02*
Y101945D01*
X251500Y243750D02*
Y295750D01*
X291500Y243750D02*
Y295750D01*
X251500Y243750D02*
X291500D01*
X251500Y295750D02*
X291500D01*
X271500Y264750D02*
Y269750D01*
X266500D02*
X271500D01*
Y274750D01*
Y269750D02*
X276500D01*
X167000Y72000D02*
Y104000D01*
X138000Y72000D02*
X167000D01*
X129000D02*
X138000D01*
X129000D02*
Y94000D01*
Y104000D01*
X167000D01*
X148000Y85000D02*
Y91000D01*
X145000Y88000D02*
X151000D01*
X33750Y239000D02*
Y250000D01*
Y239000D02*
X40250D01*
Y250000D01*
X33750D02*
X40250D01*
X61250Y173250D02*
Y183250D01*
X82250Y173250D02*
Y183250D01*
X61250D02*
X82250D01*
X61250Y173250D02*
X82250D01*
X33500Y187250D02*
Y192250D01*
Y187250D02*
X38500D01*
X33500Y182250D02*
Y187250D01*
X28500D02*
X33500D01*
X15000Y159250D02*
Y215250D01*
X52000D01*
Y159250D02*
Y215250D01*
X15000Y159250D02*
X52000D01*
X201500Y296000D02*
X247500D01*
X237500Y249000D02*
X247500Y259000D01*
Y296000D01*
X201500Y259000D02*
X211500Y249000D01*
X201500Y259000D02*
Y296000D01*
X219500Y273000D02*
X229500D01*
X224500Y268000D02*
Y278000D01*
X211500Y249000D02*
X237500D01*
X41000Y253250D02*
X52000D01*
X41000Y232250D02*
X52000D01*
Y253250D01*
X41000Y232250D02*
Y253250D01*
X293935Y63750D02*
Y233500D01*
Y63750D02*
X463435D01*
Y233500D01*
X293935D02*
X463435D01*
X378685Y148500D02*
Y161000D01*
X366185Y148500D02*
X378685D01*
Y136000D02*
Y148500D01*
X391185D01*
X162750Y249000D02*
X188750D01*
X175750Y268000D02*
Y278000D01*
X170750Y273000D02*
X180750D01*
X152750Y259000D02*
Y296000D01*
Y259000D02*
X162750Y249000D01*
X198750Y259000D02*
Y296000D01*
X188750Y249000D02*
X198750Y259000D01*
X152750Y296000D02*
X198750D01*
X14250Y249250D02*
X40250D01*
X27250Y268250D02*
Y278250D01*
X22250Y273250D02*
X32250D01*
X4250Y259250D02*
Y296250D01*
Y259250D02*
X14250Y249250D01*
X50250Y259250D02*
Y296250D01*
X40250Y249250D02*
X50250Y259250D01*
X4250Y296250D02*
X50250D01*
X303500Y47500D02*
X329500D01*
X316500Y18500D02*
Y28500D01*
X311500Y23500D02*
X321500D01*
X339500Y500D02*
Y37500D01*
X329500Y47500D02*
X339500Y37500D01*
X293500Y500D02*
Y37500D01*
X303500Y47500D01*
X293500Y500D02*
X339500D01*
X372500Y249250D02*
X398500D01*
X385500Y268250D02*
Y278250D01*
X380500Y273250D02*
X390500D01*
X362500Y259250D02*
Y296250D01*
Y259250D02*
X372500Y249250D01*
X408500Y259250D02*
Y296250D01*
X398500Y249250D02*
X408500Y259250D01*
X362500Y296250D02*
X408500D01*
X372500Y47500D02*
X398500D01*
X385500Y18500D02*
Y28500D01*
X380500Y23500D02*
X390500D01*
X408500Y500D02*
Y37500D01*
X398500Y47500D02*
X408500Y37500D01*
X362500Y500D02*
Y37500D01*
X372500Y47500D01*
X362500Y500D02*
X408500D01*
X303500Y249250D02*
X329500D01*
X316500Y268250D02*
Y278250D01*
X311500Y273250D02*
X321500D01*
X293500Y259250D02*
Y296250D01*
Y259250D02*
X303500Y249250D01*
X339500Y259250D02*
Y296250D01*
X329500Y249250D02*
X339500Y259250D01*
X293500Y296250D02*
X339500D01*
X206750Y260500D02*
X213250D01*
X213250Y249500D01*
X206750Y249500D02*
X213250Y249500D01*
X206750Y260500D02*
X206750Y249500D01*
X361500Y209000D02*
X393500D01*
X361500Y226000D02*
X393500D01*
Y209000D02*
Y226000D01*
X361500Y209000D02*
Y226000D01*
Y173500D02*
X393500D01*
X361500Y190500D02*
X393500D01*
Y173500D02*
Y190500D01*
X361500Y173500D02*
Y190500D01*
X54250Y112250D02*
Y122250D01*
X75250Y112250D02*
Y122250D01*
X54250D02*
X75250D01*
X54250Y112250D02*
X75250D01*
X383000Y47250D02*
Y58250D01*
X362000Y47250D02*
Y58250D01*
Y47250D02*
X383000D01*
X362000Y58250D02*
X383000D01*
X327250Y45250D02*
Y56250D01*
X348250Y45250D02*
Y56250D01*
X327250D02*
X348250D01*
X327250Y45250D02*
X348250D01*
X129000Y139250D02*
X159000D01*
X129000Y125250D02*
X159000D01*
X129000D02*
Y139250D01*
X159000Y125250D02*
Y139250D01*
X102750Y75250D02*
Y105250D01*
X88750Y75250D02*
Y105250D01*
X102750D01*
X88750Y75250D02*
X102750D01*
X90250Y90000D02*
Y120000D01*
X76250Y90000D02*
Y120000D01*
X90250D01*
X76250Y90000D02*
X90250D01*
X74944Y142657D02*
X96157Y121444D01*
X84843Y152556D02*
X106056Y131343D01*
X96157Y121444D02*
X106056Y131343D01*
X74944Y142657D02*
X84843Y152556D01*
X61250Y163250D02*
X82250D01*
X61250Y173250D02*
X82250D01*
Y163250D02*
Y173250D01*
X61250Y163250D02*
Y173250D01*
X108500Y98500D02*
X129500D01*
X108500Y88500D02*
X129500D01*
X108500D02*
Y98500D01*
X129500Y88500D02*
Y98500D01*
X130000Y120500D02*
Y141500D01*
X120000Y120500D02*
Y141500D01*
X130000D01*
X120000Y120500D02*
X130000D01*
X124500Y116250D02*
X145500D01*
X124500Y106250D02*
X145500D01*
X124500D02*
Y116250D01*
X145500Y106250D02*
Y116250D01*
X215250Y30500D02*
Y51500D01*
X225250Y30500D02*
Y51500D01*
X215250Y30500D02*
X225250D01*
X215250Y51500D02*
X225250D01*
X46000Y159500D02*
X67000D01*
X46000Y149500D02*
X67000D01*
X46000D02*
Y159500D01*
X67000Y149500D02*
Y159500D01*
X194000Y208000D02*
Y214000D01*
X191000Y211000D02*
X197000D01*
X178000Y192000D02*
Y230000D01*
Y192000D02*
X188000D01*
X210000D01*
Y201000D01*
Y230000D01*
X178000D02*
X210000D01*
X11750Y235000D02*
Y246000D01*
X32750Y235000D02*
Y246000D01*
X11750D02*
X32750D01*
X11750Y235000D02*
X32750D01*
X338750Y234500D02*
X359750D01*
X338750Y244500D02*
X359750D01*
Y234500D02*
Y244500D01*
X338750Y234500D02*
Y244500D01*
X388500Y47250D02*
X409500D01*
X388500Y57250D02*
X409500D01*
Y47250D02*
Y57250D01*
X388500Y47250D02*
Y57250D01*
X31500Y218750D02*
Y239750D01*
X41500Y218750D02*
Y239750D01*
X31500Y218750D02*
X41500D01*
X31500Y239750D02*
X41500D01*
X56000Y111000D02*
X77000D01*
X56000Y101000D02*
X77000D01*
X56000D02*
Y111000D01*
X77000Y101000D02*
Y111000D01*
X384500Y88250D02*
Y93250D01*
X389500D01*
X384500D02*
Y98250D01*
X379500Y93250D02*
X384500D01*
X410500Y73250D02*
Y113250D01*
X358500Y73250D02*
Y113250D01*
Y73250D02*
X410500D01*
X358500Y113250D02*
X410500D01*
X428250Y195000D02*
Y200000D01*
X433250D01*
X428250D02*
Y205000D01*
X423250Y200000D02*
X428250D01*
X454250Y180000D02*
Y220000D01*
X402250Y180000D02*
Y220000D01*
Y180000D02*
X454250D01*
X402250Y220000D02*
X454250D01*
X207500Y74750D02*
X213500D01*
X210500Y71750D02*
Y77750D01*
X191500Y58750D02*
X229500D01*
Y68750D01*
Y90750D01*
X220500D02*
X229500D01*
X191500D02*
X220500D01*
X191500Y58750D02*
Y90750D01*
X389000Y49000D02*
Y60000D01*
X382500D02*
X389000D01*
X382500Y49000D02*
Y60000D01*
Y49000D02*
X389000D01*
X308750Y54000D02*
X319750D01*
X308750Y47500D02*
Y54000D01*
Y47500D02*
X319750D01*
Y54000D01*
X377750Y249750D02*
X388750D01*
X377750Y243250D02*
Y249750D01*
Y243250D02*
X388750D01*
Y249750D01*
X308750Y248500D02*
X319750D01*
X308750Y242000D02*
Y248500D01*
Y242000D02*
X319750D01*
Y248500D01*
X-40000Y195000D02*
Y277000D01*
Y195000D02*
X0D01*
X-40000Y179000D02*
X0Y179000D01*
X-40000Y20000D02*
Y179000D01*
Y20000D02*
X-8000Y20000D01*
X0Y0D02*
Y12000D01*
Y0D02*
X468000Y-0D01*
Y297000D01*
X-0D02*
X468000D01*
X0Y285000D02*
Y297000D01*
X-40000Y277000D02*
X-8000D01*
X146500Y114495D02*
Y125495D01*
X167500Y114495D02*
Y125495D01*
X146500D02*
X167500D01*
X146500Y114495D02*
X167500D01*
X156505Y209500D02*
X167505D01*
X156505Y230500D02*
X167505D01*
X156505Y209500D02*
Y230500D01*
X167505Y209500D02*
Y230500D01*
X146500Y61354D02*
X167500D01*
X146500Y71354D02*
X167500D01*
Y61354D02*
Y71354D01*
X146500Y61354D02*
Y71354D01*
X146500Y104495D02*
X167500D01*
X146500Y114495D02*
X167500D01*
Y104495D02*
Y114495D01*
X146500Y104495D02*
Y114495D01*
X220646Y209500D02*
Y230500D01*
X210646Y209500D02*
Y230500D01*
X220646D01*
X210646Y209500D02*
X220646D01*
X177505Y209500D02*
Y230500D01*
X167505Y209500D02*
Y230500D01*
X177505D01*
X167505Y209500D02*
X177505D01*
X440000Y76250D02*
Y101250D01*
X415000D02*
X440000D01*
X415000Y76250D02*
Y101250D01*
Y76250D02*
X440000D01*
X427500Y85000D02*
Y88750D01*
X431250D01*
X427500D02*
Y92500D01*
X423750Y88750D02*
X427500D01*
X411500Y164000D02*
X414500D01*
X411500Y161000D02*
Y164000D01*
X408500D02*
X411500D01*
Y167000D01*
X401500Y171000D02*
X421500D01*
Y157000D02*
Y171000D01*
X401500Y157000D02*
X421500D01*
X401500D02*
Y171000D01*
X393500Y199750D02*
Y209750D01*
X372500Y199750D02*
Y209750D01*
Y199750D02*
X393500D01*
X372500Y209750D02*
X393500D01*
X351250Y200250D02*
X362250D01*
X351250Y179250D02*
X362250Y179250D01*
Y200250D01*
X351250Y179250D02*
Y200250D01*
Y199250D02*
X362250D01*
X351250Y220250D02*
X362250Y220250D01*
X351250Y199250D02*
Y220250D01*
X362250Y199250D02*
Y220250D01*
X400379Y156000D02*
X452379D01*
X400379Y116000D02*
X452379D01*
X400379D02*
Y156000D01*
X452379Y116000D02*
Y156000D01*
X421379Y136000D02*
X426379D01*
Y141000D01*
Y136000D02*
X431379D01*
X426379Y131000D02*
Y136000D01*
X359380Y146500D02*
X369380D01*
X359380Y125500D02*
X369380D01*
Y146500D01*
X359380Y125500D02*
Y146500D01*
X390379Y146500D02*
X401379D01*
X390379Y125500D02*
X401379Y125500D01*
Y146500D01*
X390379Y125500D02*
X390379Y146500D01*
X390379Y136000D02*
Y146000D01*
X369379Y136000D02*
Y146000D01*
Y136000D02*
X390379Y136000D01*
X369379Y146000D02*
X390379D01*
Y126000D02*
Y136000D01*
X369379Y126000D02*
Y136000D01*
Y126000D02*
X390379D01*
X369379Y136000D02*
X390379D01*
X101750Y14750D02*
X101750Y750D01*
X131750Y750D02*
Y14750D01*
X101750Y14750D02*
X131750Y14750D01*
X101750Y750D02*
X131750Y750D01*
X169750Y47250D02*
Y61250D01*
X139750Y47250D02*
Y61250D01*
Y47250D02*
X169750D01*
X139750Y61250D02*
X169750D01*
X101750Y47250D02*
Y61250D01*
X131750Y47250D02*
Y61250D01*
X101750D02*
X131750D01*
X101750Y47250D02*
X131750D01*
X139750Y14750D02*
X169750Y14750D01*
X139750Y750D02*
X169750Y750D01*
X139750Y750D02*
X139750Y14750D01*
X169750Y750D02*
X169750Y14750D01*
X317000Y74250D02*
X327000D01*
X317000Y95250D02*
X327000D01*
X317000Y74250D02*
Y95250D01*
X327000Y74250D02*
Y95250D01*
X348000Y84750D02*
Y94750D01*
X327000Y84750D02*
Y94750D01*
Y84750D02*
X348000D01*
X327000Y94750D02*
X348000D01*
X348000Y74750D02*
Y84750D01*
X327000Y74750D02*
Y84750D01*
Y74750D02*
X348000D01*
X327000Y84750D02*
X348000D01*
X348000Y74250D02*
X359000Y74250D01*
X348000Y95250D02*
X359000D01*
X348000D02*
X348000Y74250D01*
X359000Y74250D02*
Y95250D01*
X359979Y171250D02*
X369979D01*
X359979Y150250D02*
X369979D01*
Y171250D01*
X359979Y150250D02*
Y171250D01*
X390979Y150750D02*
X390979Y160750D01*
X369979Y150750D02*
Y160750D01*
Y150750D02*
X390979D01*
X369979Y160750D02*
X390979Y160750D01*
X390979D02*
Y170750D01*
X369979D02*
X369979Y160750D01*
X390979D01*
X369979Y170750D02*
X390979D01*
X390979Y171250D02*
X400979Y171250D01*
X390979Y150250D02*
X400979D01*
Y171250D01*
X390979Y150250D02*
Y171250D01*
X225500Y47250D02*
X255500Y47250D01*
X225500Y61250D02*
X255500Y61250D01*
X255500Y47250D02*
X255500Y61250D01*
X225500Y47250D02*
X225500Y61250D01*
X44500Y54750D02*
Y75750D01*
X33500Y54750D02*
Y75750D01*
X44500Y75750D01*
X33500Y54750D02*
X44500Y54750D01*
X263500Y14750D02*
X293500D01*
X263500Y750D02*
X293500D01*
X263500D02*
Y14750D01*
X293500Y750D02*
Y14750D01*
X263500Y61250D02*
X293500Y61250D01*
X263500Y47250D02*
X293500D01*
X263500Y61250D02*
X263500Y47250D01*
X293500Y61250D02*
X293500Y47250D01*
X225500Y750D02*
X255500D01*
X225500Y14750D02*
X255500Y14750D01*
X255500Y750D01*
X225500Y14750D02*
X225500Y750D01*
X33500Y54750D02*
Y75750D01*
X23500Y54750D02*
Y75750D01*
X33500D01*
X23500Y54750D02*
X33500D01*
X197500Y113750D02*
X218500D01*
X197500Y124750D02*
X218500D01*
Y113750D02*
Y124750D01*
X197500Y113750D02*
Y124750D01*
X243929Y91901D02*
X258778Y106750D01*
X236151Y99679D02*
X251000Y114528D01*
X258778Y106750D01*
X236151Y99679D02*
X243929Y91901D01*
X202000Y27255D02*
Y48255D01*
X191000Y27255D02*
Y48255D01*
X202000D01*
X191000Y27255D02*
X202000D01*
X186000Y100500D02*
X216000D01*
X186000Y114500D02*
X216000D01*
Y100500D02*
Y114500D01*
X186000Y100500D02*
Y114500D01*
X372250Y189750D02*
X393250D01*
X372250Y199750D02*
X393250D01*
Y189750D02*
Y199750D01*
X372250Y189750D02*
Y199750D01*
X403500Y210500D02*
X403500Y189500D01*
X393500D02*
Y210500D01*
X403500Y210500D01*
X393500Y189500D02*
X403500D01*
X362250Y189250D02*
Y210250D01*
X372250Y210250D02*
X372250Y189250D01*
X362250D02*
X372250D01*
X362250Y210250D02*
X372250Y210250D01*
X100540Y155389D02*
X115389Y140540D01*
X107611Y162460D02*
X122460Y147611D01*
X115389Y140540D02*
X122460Y147611D01*
X100540Y155389D02*
X107611Y162460D01*
X190964Y101360D02*
X211964D01*
X190964Y91360D02*
X211964D01*
X190964D02*
Y101360D01*
X211964Y91360D02*
Y101360D01*
X191000Y58255D02*
X212000D01*
X191000Y48255D02*
X212000D01*
X191000D02*
Y58255D01*
X212000Y48255D02*
Y58255D01*
X401166Y230332D02*
X400249Y231248D01*
X398416D01*
X397500Y230332D01*
Y229415D01*
X398416Y228499D01*
X400249D01*
X401166Y227583D01*
Y226666D01*
X400249Y225750D01*
X398416D01*
X397500Y226666D01*
X402998Y231248D02*
Y225750D01*
Y228499D01*
X403915Y229415D01*
X405747D01*
X406664Y228499D01*
Y225750D01*
X408496D02*
X410329D01*
X409413D01*
Y229415D01*
X408496D01*
X415827Y225750D02*
X413995D01*
X413078Y226666D01*
Y228499D01*
X413995Y229415D01*
X415827D01*
X416744Y228499D01*
Y227583D01*
X413078D01*
X418577Y225750D02*
X420409D01*
X419493D01*
Y231248D01*
X418577D01*
X426824D02*
Y225750D01*
X424075D01*
X423158Y226666D01*
Y228499D01*
X424075Y229415D01*
X426824D01*
X437820Y231248D02*
X434155D01*
Y228499D01*
X435988D01*
X434155D01*
Y225750D01*
X439653Y229415D02*
Y225750D01*
Y227583D01*
X440569Y228499D01*
X441486Y229415D01*
X442402D01*
X446068D02*
X447900D01*
X448817Y228499D01*
Y225750D01*
X446068D01*
X445151Y226666D01*
X446068Y227583D01*
X448817D01*
X450649Y225750D02*
Y229415D01*
X451566D01*
X452482Y228499D01*
Y225750D01*
Y228499D01*
X453399Y229415D01*
X454315Y228499D01*
Y225750D01*
X458897D02*
X457064D01*
X456148Y226666D01*
Y228499D01*
X457064Y229415D01*
X458897D01*
X459813Y228499D01*
Y227583D01*
X456148D01*
X330750Y225250D02*
Y230748D01*
X332583Y228916D01*
X334416Y230748D01*
Y225250D01*
X339914Y230748D02*
X336248D01*
Y225250D01*
X339914D01*
X336248Y227999D02*
X338081D01*
X345412Y229832D02*
X344496Y230748D01*
X342663D01*
X341746Y229832D01*
Y226166D01*
X342663Y225250D01*
X344496D01*
X345412Y226166D01*
X347245Y230748D02*
Y225250D01*
Y227999D01*
X350910D01*
Y230748D01*
Y225250D01*
X356408D02*
X352743D01*
X356408Y228916D01*
Y229832D01*
X355492Y230748D01*
X353659D01*
X352743Y229832D01*
X22750Y287998D02*
X26416Y282500D01*
Y287998D02*
X22750Y282500D01*
X31914Y287998D02*
X28248D01*
Y285249D01*
X30081Y286166D01*
X30997D01*
X31914Y285249D01*
Y283416D01*
X30997Y282500D01*
X29165D01*
X28248Y283416D01*
X24750Y257500D02*
X26583D01*
X25666D01*
Y261166D01*
X24750D01*
X29332Y257500D02*
Y261166D01*
X32081D01*
X32997Y260249D01*
Y257500D01*
D14*
X67500Y210500D02*
G03*
X67500Y210500I-1000J0D01*
G01*
X46000Y165500D02*
G03*
X46000Y165500I-1000J0D01*
G01*
D15*
X37250Y244500D02*
G03*
X37250Y244500I-250J0D01*
G01*
X210250Y255000D02*
G03*
X210250Y255000I-250J0D01*
G01*
X386000Y54500D02*
G03*
X386000Y54500I-250J0D01*
G01*
X314500Y50750D02*
G03*
X314500Y50750I-250J0D01*
G01*
X383500Y246500D02*
G03*
X383500Y246500I-250J0D01*
G01*
X314500Y245250D02*
G03*
X314500Y245250I-250J0D01*
G01*
X37250Y244500D02*
X56000D01*
X-1750Y171000D02*
Y177500D01*
X10250D01*
Y171000D02*
Y177500D01*
X-1750Y171000D02*
X10250D01*
X-1500Y199250D02*
Y210750D01*
Y199250D02*
X5000D01*
Y210750D01*
X-1500D02*
X5000D01*
X10250Y157750D02*
Y164250D01*
X-1750Y157750D02*
X10250D01*
X-1750D02*
Y164250D01*
X10250D01*
X-1776Y150326D02*
Y156826D01*
X10224D01*
Y150326D02*
Y156826D01*
X-1776Y150326D02*
X10224D01*
X17250Y223500D02*
X23750D01*
X17250D02*
Y235500D01*
X23750D01*
Y223500D02*
Y235500D01*
X11750Y214750D02*
Y226250D01*
Y214750D02*
X18250D01*
Y226250D01*
X11750D02*
X18250D01*
X17682Y215650D02*
X29182D01*
Y222150D01*
X17682D02*
X29182D01*
X17682Y215650D02*
Y222150D01*
X41000Y90000D02*
X47500D01*
Y78000D02*
Y90000D01*
X41000Y78000D02*
X47500D01*
X41000D02*
Y90000D01*
X34500Y78000D02*
X41000D01*
X34500D02*
Y90000D01*
X41000D01*
Y78000D02*
Y90000D01*
X44250Y84000D02*
X49250Y81000D01*
X37675Y83762D02*
X40425Y92512D01*
X62500Y81625D02*
Y82875D01*
Y81625D02*
X63750D01*
X62500Y80375D02*
Y81625D01*
X61250D02*
X62500D01*
X57250Y76375D02*
Y86875D01*
X67750D01*
Y76375D02*
Y86875D01*
X57250Y76375D02*
X67750D01*
X135750Y31000D02*
X139500Y31000D01*
X135750Y27250D02*
X135750Y31000D01*
X132000D02*
X135750D01*
X135750Y34750D02*
X135750Y31000D01*
X123500Y47000D02*
X148000D01*
X148000Y15000D01*
X123500D02*
X148000D01*
X123500Y47000D02*
X123500Y15000D01*
X197000Y20750D02*
X203500D01*
Y8750D02*
Y20750D01*
X197000Y8750D02*
X203500D01*
X197000D02*
Y20750D01*
X241100Y153831D02*
X241100Y165331D01*
X234600D02*
X241100D01*
X234600Y153831D02*
X234600Y165331D01*
X234600Y153831D02*
X241100Y153831D01*
X41500Y226300D02*
X48000D01*
Y214300D02*
Y226300D01*
X41500Y214300D02*
X48000D01*
X41500D02*
Y226300D01*
X385750Y54500D02*
Y65000D01*
X44750Y220588D02*
X58250Y214838D01*
X10250Y239250D02*
Y245750D01*
X-1750Y239250D02*
X10250D01*
X-1750D02*
Y245750D01*
X10250D01*
X92750Y127000D02*
X93250Y118000D01*
X262500Y199750D02*
X264224Y192400D01*
X10250Y245750D02*
Y252250D01*
X-1750Y245750D02*
X10250D01*
X-1750D02*
Y252250D01*
X10250D01*
X156240Y163546D02*
X168240D01*
X156240Y157046D02*
Y163546D01*
Y157046D02*
X168240D01*
Y163546D01*
X353500Y297250D02*
X360000D01*
Y285250D02*
Y297250D01*
X353500Y285250D02*
X360000D01*
X353500D02*
Y297250D01*
X169000Y140528D02*
Y147028D01*
X181000D01*
Y140528D02*
Y147028D01*
X169000Y140528D02*
X181000D01*
X195500Y141000D02*
Y147500D01*
X183500Y141000D02*
X195500D01*
X183500D02*
Y147500D01*
X195500D01*
X178250Y63000D02*
X184750D01*
X178250D02*
Y75000D01*
X184750D01*
Y63000D02*
Y75000D01*
X342000Y297250D02*
X348500D01*
Y285250D02*
Y297250D01*
X342000Y285250D02*
X348500D01*
X342000D02*
Y297250D01*
X187750Y83000D02*
X195750Y81250D01*
X117000Y183750D02*
X128500Y179500D01*
X48250Y171500D02*
X78250Y156500D01*
X74750Y126250D02*
X79000Y124500D01*
X72000Y138750D02*
X73250Y135500D01*
X45750Y146500D02*
X70000Y146250D01*
X338000Y142000D02*
X342750Y141250D01*
X331750Y134250D02*
X334000Y127000D01*
X319500Y135000D02*
X325000Y131500D01*
X324500Y145500D02*
X329250Y146000D01*
X188000Y116500D02*
X218750Y106750D01*
X161750Y98750D02*
X173000Y102750D01*
X164250Y88250D02*
X174000Y93904D01*
X31250Y84000D02*
X34000Y92750D01*
X24250Y84000D02*
X26000Y92000D01*
X69295Y141805D02*
X77427Y149937D01*
X72831Y154533D02*
X77427Y149937D01*
X64699Y146401D02*
X72831Y154533D01*
X64699Y146401D02*
X69295Y141805D01*
X340500Y28250D02*
X347000D01*
Y16750D02*
Y28250D01*
X340500Y16750D02*
X347000D01*
X340500D02*
Y28250D01*
X9500Y86250D02*
X16000D01*
X9500D02*
Y98250D01*
X16000D01*
Y86250D02*
Y98250D01*
X90000Y66250D02*
Y72750D01*
X102000D01*
Y66250D02*
Y72750D01*
X90000Y66250D02*
X102000D01*
X28000Y78000D02*
X34500D01*
X28000D02*
Y90000D01*
X34500D01*
Y78000D02*
Y90000D01*
X10250Y31247D02*
Y37747D01*
X-1750Y31247D02*
X10250D01*
X-1750D02*
Y37747D01*
X10250D01*
X184750Y77846D02*
X191250D01*
Y65846D02*
Y77846D01*
X184750Y65846D02*
X191250D01*
X184750D02*
Y77846D01*
X361750Y47750D02*
Y59250D01*
X355250D02*
X361750D01*
X355250Y47750D02*
Y59250D01*
Y47750D02*
X361750D01*
X355000D02*
Y59250D01*
X348500D02*
X355000D01*
X348500Y47750D02*
Y59250D01*
Y47750D02*
X355000D01*
X21000Y78250D02*
Y89750D01*
Y78250D02*
X27500D01*
Y89750D01*
X21000D02*
X27500D01*
X170500Y87904D02*
X177000D01*
X170500D02*
Y99904D01*
X177000D01*
Y87904D02*
Y99904D01*
X170500Y73554D02*
X177000D01*
X170500D02*
X170500Y85554D01*
X177000Y85554D01*
X177000Y73554D02*
X177000Y85554D01*
X192346Y232000D02*
Y238500D01*
X180346Y232000D02*
X192346D01*
X180346D02*
Y238500D01*
X192346D01*
X207446Y232250D02*
Y238750D01*
X195446Y232250D02*
X207446D01*
X195446D02*
Y238750D01*
X207446D01*
X184750Y88946D02*
X191250D01*
Y76946D02*
Y88946D01*
X184750Y76946D02*
X191250D01*
X184750D02*
Y88946D01*
X184250Y20750D02*
X190750D01*
Y8750D02*
Y20750D01*
X184250Y8750D02*
X190750D01*
X184250D02*
Y20750D01*
X221250Y180500D02*
Y187000D01*
X209250Y180500D02*
X221250D01*
X209250D02*
Y187000D01*
X221250D01*
X240000Y196317D02*
Y202817D01*
X228000Y196317D02*
X240000D01*
X228000D02*
Y202817D01*
X240000D01*
X80886Y163268D02*
X89018Y155136D01*
X93614Y159732D01*
X85482Y167864D02*
X93614Y159732D01*
X80886Y163268D02*
X85482Y167864D01*
X88886Y155232D02*
X97018Y163364D01*
X88886Y155232D02*
X93482Y150636D01*
X101614Y158768D01*
X97018Y163364D02*
X101614Y158768D01*
X101732Y158636D02*
X109864Y166768D01*
X105268Y171364D02*
X109864Y166768D01*
X97136Y163232D02*
X105268Y171364D01*
X97136Y163232D02*
X101732Y158636D01*
X83250Y177000D02*
X94750D01*
Y183500D01*
X83250D02*
X94750D01*
X83250Y177000D02*
Y183500D01*
X111717Y168500D02*
X123217D01*
Y175000D01*
X111717D02*
X123217D01*
X111717Y168500D02*
Y175000D01*
Y162000D02*
X123217D01*
Y168500D01*
X111717D02*
X123217D01*
X111717Y162000D02*
Y168500D01*
X118700Y191750D02*
X130200D01*
X118700Y185250D02*
Y191750D01*
Y185250D02*
X130200D01*
Y191750D01*
X120200Y125800D02*
Y137300D01*
X113700D02*
X120200D01*
X113700Y125800D02*
Y137300D01*
Y125800D02*
X120200D01*
X109250Y115500D02*
X120750D01*
X120750Y122000D02*
X120750Y115500D01*
X109250Y122000D02*
X120750D01*
X109250Y115500D02*
X109250Y122000D01*
X101750Y104750D02*
X113250D01*
X101750Y98250D02*
Y104750D01*
Y98250D02*
X113250D01*
Y104750D01*
X115250Y77000D02*
Y88500D01*
Y77000D02*
X121750D01*
Y88500D01*
X115250D02*
X121750D01*
X132200Y157000D02*
X143700D01*
X132200Y150500D02*
Y157000D01*
Y150500D02*
X143700D01*
Y157000D01*
X146500Y138250D02*
Y149750D01*
Y138250D02*
X153000D01*
Y149750D01*
X146500D02*
X153000D01*
X136232Y137386D02*
X144364Y145518D01*
X139768Y150114D02*
X144364Y145518D01*
X131636Y141982D02*
X139768Y150114D01*
X131636Y141982D02*
X136232Y137386D01*
X113250Y115500D02*
X124750D01*
X113250Y109000D02*
Y115500D01*
Y109000D02*
X124750D01*
Y115500D01*
X90000Y112250D02*
Y123750D01*
Y112250D02*
X96500D01*
Y123750D01*
X90000D02*
X96500D01*
X103232Y151614D02*
X111364Y143482D01*
X98636Y147018D02*
X103232Y151614D01*
X98636Y147018D02*
X106768Y138886D01*
X111364Y143482D01*
X129750Y157050D02*
Y168550D01*
X123250Y168550D02*
X129750Y168550D01*
X123250Y157050D02*
X123250Y168550D01*
X123250Y157050D02*
X129750D01*
X75750Y118750D02*
X75750Y130250D01*
X75750Y118750D02*
X82250D01*
Y130250D01*
X75750Y130250D02*
X82250Y130250D01*
X99500Y105750D02*
Y117250D01*
Y105750D02*
X106000D01*
Y117250D01*
X99500D02*
X106000D01*
X66000Y131000D02*
Y142500D01*
X59500D02*
X66000D01*
X59500Y131000D02*
Y142500D01*
Y131000D02*
X66000D01*
X75000Y150750D02*
Y162250D01*
Y150750D02*
X81500D01*
Y162250D01*
X75000D02*
X81500D01*
X121250Y35550D02*
X121250Y24050D01*
X114750Y35550D02*
X121250D01*
X114750Y24050D02*
X114750Y35550D01*
X114750Y24050D02*
X121250D01*
X274000Y37950D02*
X274000Y26450D01*
X280500D01*
X280500Y37950D01*
X274000D02*
X280500D01*
X98886Y137018D02*
X107018Y128886D01*
X111614Y133482D01*
X103482Y141614D02*
X111614Y133482D01*
X98886Y137018D02*
X103482Y141614D01*
X500Y232750D02*
X12000D01*
X500Y226250D02*
Y232750D01*
Y226250D02*
X12000D01*
Y232750D01*
X335000Y181750D02*
X335250Y174000D01*
X355750Y169000D02*
X356000Y174250D01*
X347250Y173000D02*
X351250Y157250D01*
X316074Y155250D02*
X321474Y160650D01*
X311250Y158500D02*
Y183000D01*
X299750Y194500D02*
X304950Y191611D01*
X288805Y181805D02*
X296250Y183250D01*
X288805Y175280D02*
X295736Y168236D01*
X299750Y158000D02*
X305500Y176750D01*
X265250Y182000D02*
X266360Y174230D01*
X277250Y178250D02*
X278500Y172500D01*
X272000Y170500D02*
X277000Y184750D01*
X246750Y192250D02*
X254724Y195950D01*
X187750Y122000D02*
X191250Y127250D01*
X185000Y130750D02*
X192500Y134000D01*
X329750Y202000D02*
X331224Y195150D01*
X170750Y133250D02*
X182250D01*
X170750Y126750D02*
Y133250D01*
Y126750D02*
X182250D01*
Y133250D01*
X168250Y139350D02*
Y150850D01*
X161750D02*
X168250D01*
X161750Y139350D02*
Y150850D01*
Y139350D02*
X168250D01*
X182000Y119750D02*
X193500D01*
Y126250D01*
X182000D02*
X193500D01*
X182000Y119750D02*
Y126250D01*
X226000Y141500D02*
X238000D01*
Y148000D01*
X226000D02*
X238000D01*
X226000Y141500D02*
Y148000D01*
X104136Y80268D02*
X112268Y72136D01*
X116864Y76732D01*
X108732Y84864D02*
X116864Y76732D01*
X104136Y80268D02*
X108732Y84864D01*
X91214Y54464D02*
Y65964D01*
Y54464D02*
X97714D01*
Y65964D01*
X91214D02*
X97714D01*
X84750Y54464D02*
Y65964D01*
Y54464D02*
X91250D01*
Y65964D01*
X84750D02*
X91250D01*
X249455Y169345D02*
X255955D01*
Y157345D02*
Y169345D01*
X249455Y157345D02*
X255955D01*
X249455D02*
Y169345D01*
X48000Y117500D02*
X54500D01*
X48000D02*
Y129500D01*
X54500D01*
Y117500D02*
Y129500D01*
X80050Y82100D02*
X86550D01*
X86550Y70100D02*
X86550Y82100D01*
X80050Y70100D02*
X86550Y70100D01*
X80050Y70100D02*
Y82100D01*
X181500Y133750D02*
Y140250D01*
X169500Y133750D02*
X181500D01*
X169500D02*
Y140250D01*
X181500D01*
X181750Y137250D02*
X188250D01*
Y125250D02*
Y137250D01*
X181750Y125250D02*
X188250D01*
X181750D02*
Y137250D01*
X170000Y111750D02*
Y118250D01*
X182000D01*
Y111750D02*
Y118250D01*
X170000Y111750D02*
X182000D01*
X182500Y119750D02*
Y126250D01*
X170500Y119750D02*
X182500D01*
X170500D02*
Y126250D01*
X182500D01*
X181750Y113250D02*
Y119750D01*
X193750D01*
Y113250D02*
Y119750D01*
X181750Y113250D02*
X193750D01*
X187750Y243250D02*
Y249750D01*
X199750D01*
Y243250D02*
Y249750D01*
X187750Y243250D02*
X199750D01*
X166750Y99500D02*
Y106000D01*
X178750D01*
Y99500D02*
Y106000D01*
X166750Y99500D02*
X178750D01*
X159700Y125750D02*
X166200D01*
X159700D02*
Y137750D01*
X166200D01*
Y125750D02*
Y137750D01*
X42000Y225750D02*
X53500D01*
Y232250D01*
X42000D02*
X53500D01*
X42000Y225750D02*
Y232250D01*
X62250Y183836D02*
Y195336D01*
Y183836D02*
X68750Y183836D01*
Y195336D01*
X62250Y195336D02*
X68750Y195336D01*
X303250Y172000D02*
X309750D01*
Y160000D02*
Y172000D01*
X303250Y160000D02*
X309750D01*
X303250D02*
Y172000D01*
X106000Y168000D02*
X112500D01*
X106000D02*
Y180000D01*
X112500D01*
Y168000D02*
Y180000D01*
X238000Y148000D02*
Y154500D01*
X226000Y148000D02*
X238000D01*
X226000D02*
Y154500D01*
X238000D01*
X252500Y185500D02*
X259000D01*
Y173500D02*
Y185500D01*
X252500Y173500D02*
X259000D01*
X252500D02*
Y185500D01*
X255750Y31000D02*
X259500D01*
Y34750D01*
Y31000D02*
X263250D01*
X259500Y27250D02*
Y31000D01*
X247250Y15000D02*
X271750D01*
X247250D02*
Y47000D01*
X271750D01*
Y15000D02*
Y47000D01*
X418000Y109000D02*
X430000Y109000D01*
Y115500D01*
X418000Y115500D02*
X430000Y115500D01*
X418000Y115500D02*
X418000Y109000D01*
X-1750Y126139D02*
X10250D01*
Y132640D01*
X-1750D02*
X10250D01*
X-1750Y126139D02*
Y132640D01*
X10000Y118250D02*
Y124750D01*
X-1500Y118250D02*
X10000D01*
X-1500D02*
Y124750D01*
X10000D01*
X10250Y39026D02*
Y45526D01*
X-1750Y39026D02*
X10250D01*
X-1750D02*
Y45526D01*
X10250D01*
Y47468D02*
Y53968D01*
X-1750Y47468D02*
X10250D01*
X-1750D02*
Y53968D01*
X10250D01*
X10250Y55026D02*
Y61526D01*
X-1750Y55026D02*
X10250D01*
X-1750D02*
Y61526D01*
X10250D01*
Y63468D02*
Y69968D01*
X-1750Y63468D02*
X10250D01*
X-1750D02*
Y69968D01*
X10250D01*
X10250Y71026D02*
Y77526D01*
X-1750Y71026D02*
X10250D01*
X-1750D02*
Y77526D01*
X10250D01*
Y79468D02*
Y85968D01*
X-1750Y79468D02*
X10250D01*
X-1750D02*
Y85968D01*
X10250D01*
X10243Y87247D02*
Y93747D01*
X-1757Y87247D02*
X10243D01*
X-1757D02*
Y93747D01*
X10243D01*
X215950Y91205D02*
X227450Y91205D01*
Y97705D01*
X215950Y97705D02*
X227450Y97705D01*
X215950Y91205D02*
Y97705D01*
X131050Y71295D02*
X142550Y71295D01*
X131050Y64795D02*
Y71295D01*
Y64795D02*
X142550Y64795D01*
Y71295D01*
X210955Y194050D02*
X210955Y205550D01*
X210955Y194050D02*
X217455D01*
X217455Y205550D02*
X217455Y194050D01*
X210955Y205550D02*
X217455D01*
X419750Y159000D02*
Y165500D01*
X431750D01*
Y159000D02*
Y165500D01*
X419750Y159000D02*
X431750D01*
X442750Y75500D02*
Y82000D01*
X454750D01*
Y75500D02*
Y82000D01*
X442750Y75500D02*
X454750D01*
X444000Y101350D02*
X450500D01*
X444000Y113350D02*
X444000Y101350D01*
X444000Y113350D02*
X450500Y113350D01*
X450500Y101350D01*
X442250Y90250D02*
Y101750D01*
Y90250D02*
X448750D01*
Y101750D01*
X442250D02*
X448750D01*
X429250Y102000D02*
X440750Y102000D01*
X440750Y108500D01*
X429250Y108500D02*
X440750Y108500D01*
X429250Y108500D02*
X429250Y102000D01*
X418250Y108500D02*
X429750Y108500D01*
X418250Y102000D02*
Y108500D01*
Y102000D02*
X429750D01*
X429750Y108500D02*
X429750Y102000D01*
X151300Y34250D02*
X163300D01*
X151300Y27750D02*
Y34250D01*
Y27750D02*
X163300D01*
Y34250D01*
X161879Y26321D02*
X161879Y14321D01*
X155379Y26321D02*
X161879D01*
X155379Y14321D02*
X155379Y26321D01*
X155379Y14321D02*
X161879Y14321D01*
X151300Y41000D02*
X163300Y41000D01*
X151300Y41000D02*
X151300Y34500D01*
X163300Y34500D01*
Y41000D01*
X284750Y210800D02*
X291250D01*
X284750D02*
Y222300D01*
X291250D01*
Y210800D02*
Y222300D01*
X277315Y103500D02*
Y110000D01*
X288815D01*
Y103500D02*
Y110000D01*
X277315Y103500D02*
X288815D01*
X283500Y109000D02*
Y121000D01*
X277000D02*
X283500D01*
X277000Y109000D02*
Y121000D01*
Y109000D02*
X283500D01*
X233250Y14200D02*
X239750D01*
X233250D02*
X233250Y26200D01*
X239750Y26200D01*
Y14200D02*
Y26200D01*
X231950Y34500D02*
Y41000D01*
X243950D01*
X243950Y34500D02*
X243950Y41000D01*
X231950Y34500D02*
X243950Y34500D01*
X231950Y27750D02*
Y34250D01*
X243950Y34250D01*
Y27750D02*
Y34250D01*
X231950Y27750D02*
X243950Y27750D01*
X-1750Y252250D02*
Y258750D01*
X10250D01*
Y252250D02*
Y258750D01*
X-1750Y252250D02*
X10250D01*
X-1750Y232737D02*
Y239237D01*
X10250D01*
Y232737D02*
Y239237D01*
X-1750Y232737D02*
X10250D01*
X66000Y135500D02*
X66000Y142000D01*
X78000Y142000D01*
Y135500D02*
Y142000D01*
X66000Y135500D02*
X78000D01*
X166000Y184500D02*
Y191000D01*
X154000Y184500D02*
X166000Y184500D01*
X154000Y184500D02*
X154000Y191000D01*
X166000D01*
X121959Y177806D02*
X126555Y173209D01*
X121959Y177806D02*
X130444Y186291D01*
X135041Y181695D01*
X126555Y173209D02*
X135041Y181695D01*
X41750Y113000D02*
X48250D01*
X41750D02*
Y125000D01*
X48250D01*
Y113000D02*
Y125000D01*
X166000Y191000D02*
Y197500D01*
X154000Y191000D02*
X166000D01*
X154000D02*
Y197500D01*
X166000D01*
X141750Y187500D02*
Y194000D01*
X153750D01*
Y187500D02*
Y194000D01*
X141750Y187500D02*
X153750D01*
X144250Y179000D02*
X144250Y185500D01*
X156250D01*
Y179000D02*
Y185500D01*
X144250Y179000D02*
X156250Y179000D01*
X130479Y176374D02*
X135076Y180971D01*
X143561Y172485D01*
X138965Y167889D02*
X143561Y172485D01*
X130479Y176374D02*
X138965Y167889D01*
X129750Y171050D02*
X136250D01*
Y159050D02*
Y171050D01*
X129750Y159050D02*
X136250D01*
X129750D02*
Y171050D01*
X137500Y169250D02*
X144000D01*
Y157250D02*
Y169250D01*
X137500Y157250D02*
X144000D01*
X137500D02*
Y169250D01*
X165000Y166463D02*
Y172963D01*
X153000Y166463D02*
X165000D01*
X153000D02*
Y172963D01*
X165000D01*
X-1500Y149968D02*
X10000D01*
X-1500Y143468D02*
Y149968D01*
Y143468D02*
X10000D01*
Y149968D01*
X-1500Y141526D02*
X10000D01*
X-1500Y135026D02*
Y141526D01*
Y135026D02*
X10000D01*
Y141526D01*
X9123Y85968D02*
X20624D01*
X9123Y79468D02*
Y85968D01*
Y79468D02*
X20624D01*
Y85968D01*
X9123Y77526D02*
X20624D01*
X9123Y71026D02*
Y77526D01*
Y71026D02*
X20624D01*
Y77526D01*
X-1500Y111468D02*
X10000D01*
Y117968D01*
X-1500D02*
X10000D01*
X-1500Y111468D02*
Y117968D01*
Y103026D02*
X10000D01*
Y109526D01*
X-1500D02*
X10000D01*
X-1500Y103026D02*
Y109526D01*
X10800Y61500D02*
X22300D01*
Y68000D01*
X10800D02*
X22300D01*
X10800Y61500D02*
Y68000D01*
X10800Y54750D02*
X22300D01*
Y61250D01*
X10800D02*
X22300D01*
X10800Y54750D02*
Y61250D01*
X-1500Y217218D02*
X10000D01*
Y223718D01*
X-1500D02*
X10000D01*
X-1500Y217218D02*
Y223718D01*
Y210526D02*
X10000D01*
Y217026D01*
X-1500D02*
X10000D01*
X-1500Y210526D02*
Y217026D01*
X149000Y172500D02*
X160500D01*
Y179000D01*
X149000D02*
X160500D01*
X149000Y172500D02*
Y179000D01*
X390500Y114750D02*
X397000D01*
X390500D02*
Y126750D01*
X397000D01*
Y114750D02*
Y126750D01*
X273000Y78500D02*
Y85000D01*
X261000Y78500D02*
X273000D01*
X261000D02*
Y85000D01*
X273000D01*
X308250Y188000D02*
X314750D01*
X308250D02*
Y200000D01*
X314750D01*
Y188000D02*
Y200000D01*
X255944Y98541D02*
X260541Y93945D01*
X252055Y85459D02*
X260541Y93945D01*
X247459Y90056D02*
X252055Y85459D01*
X247459Y90056D02*
X255944Y98541D01*
X307750Y189000D02*
X314250D01*
Y177000D02*
Y189000D01*
X307750Y177000D02*
X314250D01*
X307750D02*
Y189000D01*
X269250Y198750D02*
X275750D01*
X269250D02*
Y210750D01*
X275750D01*
Y198750D02*
Y210750D01*
X301139Y200535D02*
X305735Y195939D01*
X301139Y200535D02*
X309625Y209021D01*
X314221Y204424D01*
X305735Y195939D02*
X314221Y204424D01*
X269250Y222500D02*
X275750D01*
Y210500D02*
Y222500D01*
X269250Y210500D02*
X275750D01*
X269250D02*
Y222500D01*
X272765Y95700D02*
X279265D01*
Y83700D02*
Y95700D01*
X272765Y83700D02*
X279265D01*
X272765D02*
Y95700D01*
X334950Y148000D02*
X341450D01*
Y136000D02*
Y148000D01*
X334950Y136000D02*
X341450D01*
X334950D02*
Y148000D01*
X339709Y191945D02*
X344305Y196541D01*
X352791Y188055D01*
X348195Y183459D02*
X352791Y188055D01*
X339709Y191945D02*
X348195Y183459D01*
X275845Y210550D02*
X282345D01*
X275845D02*
Y222550D01*
X282345D01*
Y210550D02*
Y222550D01*
X324433Y193206D02*
X329030Y188609D01*
X324433Y193206D02*
X332919Y201691D01*
X337515Y197094D01*
X329030Y188609D02*
X337515Y197094D01*
X311000Y212750D02*
X317500D01*
X311000D02*
Y224750D01*
X317500D01*
Y212750D02*
Y224750D01*
X282250Y172750D02*
X288750D01*
Y160750D02*
Y172750D01*
X282250Y160750D02*
X288750D01*
X282250D02*
Y172750D01*
X283000Y175000D02*
Y181500D01*
X271000Y175000D02*
X283000D01*
X271000D02*
Y181500D01*
X283000D01*
X269500Y109000D02*
X276000D01*
X269500D02*
Y121000D01*
X276000D01*
Y109000D02*
Y121000D01*
X328000Y112000D02*
Y118500D01*
X316000Y112000D02*
X328000D01*
X316000D02*
Y118500D01*
X328000D01*
X322500Y125500D02*
Y132000D01*
X310500Y125500D02*
X322500D01*
X310500D02*
Y132000D01*
X322500D01*
X321343Y151700D02*
X327843D01*
Y139700D02*
Y151700D01*
X321343Y139700D02*
X327843D01*
X321343D02*
Y151700D01*
X349750Y171000D02*
Y177500D01*
X361750D01*
Y171000D02*
Y177500D01*
X349750Y171000D02*
X361750D01*
X314474Y175900D02*
X320974D01*
Y163900D02*
Y175900D01*
X314474Y163900D02*
X320974D01*
X314474D02*
Y175900D01*
X260724Y192700D02*
Y199200D01*
X248724Y192700D02*
X260724D01*
X248724D02*
Y199200D01*
X260724D01*
X327474Y157400D02*
Y163900D01*
X315474Y157400D02*
X327474D01*
X315474D02*
Y163900D01*
X327474D01*
X302250Y171000D02*
Y182500D01*
Y171000D02*
X308750D01*
Y182500D01*
X302250D02*
X308750D01*
X257607Y80261D02*
X265739Y88393D01*
X261143Y92989D02*
X265739Y88393D01*
X253011Y84857D02*
X261143Y92989D01*
X253011Y84857D02*
X257607Y80261D01*
X320750Y177250D02*
Y188750D01*
X314250D02*
X320750D01*
X314250Y177250D02*
Y188750D01*
Y177250D02*
X320750D01*
X255636Y97768D02*
X263768Y89636D01*
X268364Y94232D01*
X260232Y102364D02*
X268364Y94232D01*
X255636Y97768D02*
X260232Y102364D01*
X335250Y128750D02*
X346750D01*
Y135250D01*
X335250D02*
X346750D01*
X335250Y128750D02*
Y135250D01*
X273065Y95500D02*
X284565D01*
Y102000D01*
X273065D02*
X284565D01*
X273065Y95500D02*
Y102000D01*
X293750Y189000D02*
Y200500D01*
X287250D02*
X293750D01*
X287250Y189000D02*
Y200500D01*
Y189000D02*
X293750D01*
X301700Y185861D02*
Y197361D01*
Y185861D02*
X308200D01*
Y197361D01*
X301700D02*
X308200D01*
X277500Y187250D02*
Y198750D01*
X271000D02*
X277500D01*
X271000Y187250D02*
Y198750D01*
Y187250D02*
X277500D01*
X336636Y185768D02*
X344768Y177636D01*
X349364Y182232D01*
X341232Y190364D02*
X349364Y182232D01*
X336636Y185768D02*
X341232Y190364D01*
X243500Y109620D02*
Y121120D01*
X237000D02*
X243500D01*
X237000Y109620D02*
Y121120D01*
Y109620D02*
X243500D01*
X237000D02*
Y121120D01*
X230500D02*
X237000D01*
X230500Y109620D02*
Y121120D01*
Y109620D02*
X237000D01*
X211500Y130450D02*
Y141950D01*
Y130450D02*
X218000D01*
Y141950D01*
X211500D02*
X218000D01*
X218051Y130450D02*
Y141950D01*
Y130450D02*
X224551D01*
Y141950D01*
X218051D02*
X224551D01*
X208905Y148661D02*
X220405Y148661D01*
X208905Y148661D02*
X208905Y142161D01*
X220405Y142161D01*
Y148661D01*
X208905Y155831D02*
X220405D01*
X208905Y149331D02*
Y155831D01*
Y149331D02*
X220405Y149331D01*
X220405Y155831D01*
X225500Y122356D02*
Y133856D01*
Y122356D02*
X232000D01*
Y133856D01*
X225500D02*
X232000D01*
X232500Y122356D02*
Y133856D01*
Y122356D02*
X239000D01*
Y133856D01*
X232500D02*
X239000D01*
X335000Y128250D02*
Y139750D01*
X328500D02*
X335000D01*
X328500Y128250D02*
Y139750D01*
Y128250D02*
X335000D01*
X316224Y125650D02*
X327724D01*
X316224Y119150D02*
Y125650D01*
Y119150D02*
X327724D01*
Y125650D01*
X276145Y203000D02*
X287645D01*
Y209500D01*
X276145D02*
X287645D01*
X276145Y203000D02*
Y209500D01*
Y196500D02*
X287645D01*
Y203000D01*
X276145D02*
X287645D01*
X276145Y196500D02*
Y203000D01*
X320974Y167400D02*
Y178900D01*
Y167400D02*
X327474D01*
Y178900D01*
X320974D02*
X327474D01*
X344000Y167250D02*
Y178750D01*
Y167250D02*
X350500D01*
Y178750D01*
X344000D02*
X350500D01*
X321750Y125750D02*
Y137250D01*
Y125750D02*
X328250D01*
Y137250D01*
X321750D02*
X328250D01*
X332250Y111750D02*
X343750D01*
Y118250D01*
X332250D02*
X343750D01*
X332250Y111750D02*
Y118250D01*
X262860Y108668D02*
X270992Y100536D01*
X275588Y105132D01*
X267456Y113264D02*
X275588Y105132D01*
X262860Y108668D02*
X267456Y113264D01*
X271250Y181500D02*
X282750D01*
Y188000D01*
X271250D02*
X282750D01*
X271250Y181500D02*
Y188000D01*
X282805Y172030D02*
X294305D01*
Y178530D01*
X282805D02*
X294305D01*
X282805Y172030D02*
Y178530D01*
X282805Y178555D02*
X294305D01*
Y185055D01*
X282805D02*
X294305D01*
X282805Y178555D02*
Y185055D01*
X310250Y213000D02*
Y224500D01*
X303750D02*
X310250D01*
X303750Y213000D02*
Y224500D01*
Y213000D02*
X310250D01*
X326250Y186500D02*
Y198000D01*
X319750D02*
X326250D01*
X319750Y186500D02*
Y198000D01*
Y186500D02*
X326250D01*
X338456Y153036D02*
X346588Y161168D01*
X341992Y165764D02*
X346588Y161168D01*
X333860Y157632D02*
X341992Y165764D01*
X333860Y157632D02*
X338456Y153036D01*
X331500Y176000D02*
Y187500D01*
Y176000D02*
X338000D01*
Y187500D01*
X331500D02*
X338000D01*
X254524Y132150D02*
X266024Y132150D01*
Y138650D01*
X254524Y138650D02*
X266024Y138650D01*
X254524Y132150D02*
Y138650D01*
Y139850D02*
X266024D01*
Y146350D01*
X254524D02*
X266024D01*
X254524Y139850D02*
Y146350D01*
Y116900D02*
X266024Y116900D01*
Y123400D01*
X254524Y123400D02*
X266024Y123400D01*
X254524Y116900D02*
Y123400D01*
Y124600D02*
X266024D01*
Y131100D01*
X254524D02*
X266024D01*
X254524Y124600D02*
Y131100D01*
X238894Y167745D02*
Y179245D01*
X232393D02*
X238894D01*
X232393Y167745D02*
Y179245D01*
Y167745D02*
X238894D01*
X231555D02*
Y179245D01*
X225054D02*
X231555D01*
X225054Y167745D02*
Y179245D01*
Y167745D02*
X231555D01*
X333474Y156900D02*
Y168400D01*
X326974D02*
X333474D01*
X326974Y156900D02*
Y168400D01*
Y156900D02*
X333474D01*
X260724Y187400D02*
Y198900D01*
Y187400D02*
X267224D01*
Y198900D01*
X260724D02*
X267224D01*
X261995Y176455D02*
Y187955D01*
Y176455D02*
X268495D01*
Y187955D01*
X261995D02*
X268495D01*
X249250Y156750D02*
Y168250D01*
X242750D02*
X249250D01*
X242750Y156750D02*
Y168250D01*
Y156750D02*
X249250D01*
X-16334Y175999D02*
X-19000D01*
Y173999D01*
X-17667D01*
X-19000D01*
Y172000D01*
X-15001D02*
Y175999D01*
X-13002D01*
X-12335Y175332D01*
Y173999D01*
X-13002Y173333D01*
X-15001D01*
X-13668D02*
X-12335Y172000D01*
X-9003D02*
Y175999D01*
X-11003Y173999D01*
X-8337D01*
X-7004Y175332D02*
X-6338Y175999D01*
X-5005D01*
X-4338Y175332D01*
Y174666D01*
X-5005Y173999D01*
X-4338Y173333D01*
Y172666D01*
X-5005Y172000D01*
X-6338D01*
X-7004Y172666D01*
Y173333D01*
X-6338Y173999D01*
X-7004Y174666D01*
Y175332D01*
X-6338Y173999D02*
X-5005D01*
X-14834Y206332D02*
X-15501Y206999D01*
X-16833D01*
X-17500Y206332D01*
Y203666D01*
X-16833Y203000D01*
X-15501D01*
X-14834Y203666D01*
X-13501Y203000D02*
X-12168D01*
X-12835D01*
Y206999D01*
X-13501Y206332D01*
X-7503Y206999D02*
X-8836Y206332D01*
X-10169Y204999D01*
Y203666D01*
X-9503Y203000D01*
X-8170D01*
X-7503Y203666D01*
Y204333D01*
X-8170Y204999D01*
X-10169D01*
X-3505Y206999D02*
X-4837Y206332D01*
X-6170Y204999D01*
Y203666D01*
X-5504Y203000D01*
X-4171D01*
X-3505Y203666D01*
Y204333D01*
X-4171Y204999D01*
X-6170D01*
X-17750Y159750D02*
Y163749D01*
X-15751D01*
X-15084Y163082D01*
Y161749D01*
X-15751Y161083D01*
X-17750D01*
X-16417D02*
X-15084Y159750D01*
X-13751D02*
X-12418D01*
X-13085D01*
Y163749D01*
X-13751Y163082D01*
X-7753Y163749D02*
X-10419D01*
Y161749D01*
X-9086Y162416D01*
X-8420D01*
X-7753Y161749D01*
Y160416D01*
X-8420Y159750D01*
X-9753D01*
X-10419Y160416D01*
X-3755Y163749D02*
X-6420D01*
Y161749D01*
X-5088Y162416D01*
X-4421D01*
X-3755Y161749D01*
Y160416D01*
X-4421Y159750D01*
X-5754D01*
X-6420Y160416D01*
X-17750Y152000D02*
Y155999D01*
X-15751D01*
X-15084Y155332D01*
Y153999D01*
X-15751Y153333D01*
X-17750D01*
X-16417D02*
X-15084Y152000D01*
X-13751D02*
X-12418D01*
X-13085D01*
Y155999D01*
X-13751Y155332D01*
X-7753Y155999D02*
X-10419D01*
Y153999D01*
X-9086Y154666D01*
X-8420D01*
X-7753Y153999D01*
Y152666D01*
X-8420Y152000D01*
X-9753D01*
X-10419Y152666D01*
X-4421Y152000D02*
Y155999D01*
X-6420Y153999D01*
X-3755D01*
X19500Y117999D02*
X20833D01*
X20166D01*
Y114000D01*
X19500D01*
X20833D01*
X25498Y117332D02*
X24832Y117999D01*
X23499D01*
X22832Y117332D01*
Y114666D01*
X23499Y114000D01*
X24832D01*
X25498Y114666D01*
X26831Y117332D02*
X27497Y117999D01*
X28830D01*
X29497Y117332D01*
Y116666D01*
X28830Y115999D01*
X28164D01*
X28830D01*
X29497Y115333D01*
Y114666D01*
X28830Y114000D01*
X27497D01*
X26831Y114666D01*
X30830Y117332D02*
X31496Y117999D01*
X32829D01*
X33496Y117332D01*
Y116666D01*
X32829Y115999D01*
X32162D01*
X32829D01*
X33496Y115333D01*
Y114666D01*
X32829Y114000D01*
X31496D01*
X30830Y114666D01*
X55000Y73500D02*
X51001D01*
Y75499D01*
X51668Y76166D01*
X53001D01*
X53667Y75499D01*
Y73500D01*
Y74833D02*
X55000Y76166D01*
Y77499D02*
Y78832D01*
Y78165D01*
X51001D01*
X51668Y77499D01*
X55000Y83497D02*
Y80831D01*
X52334Y83497D01*
X51668D01*
X51001Y82830D01*
Y81497D01*
X51668Y80831D01*
X51001Y87495D02*
X51668Y86163D01*
X53001Y84830D01*
X54334D01*
X55000Y85496D01*
Y86829D01*
X54334Y87495D01*
X53667D01*
X53001Y86829D01*
Y84830D01*
X44250Y94250D02*
X40251D01*
Y96249D01*
X40918Y96916D01*
X42251D01*
X42917Y96249D01*
Y94250D01*
Y95583D02*
X44250Y96916D01*
Y98249D02*
Y99582D01*
Y98915D01*
X40251D01*
X40918Y98249D01*
X44250Y104247D02*
Y101581D01*
X41584Y104247D01*
X40918D01*
X40251Y103580D01*
Y102247D01*
X40918Y101581D01*
X40251Y108245D02*
Y105580D01*
X42251D01*
X41584Y106912D01*
Y107579D01*
X42251Y108245D01*
X43584D01*
X44250Y107579D01*
Y106246D01*
X43584Y105580D01*
X176500Y183999D02*
X177833D01*
X177166D01*
Y180000D01*
X176500D01*
X177833D01*
X182498Y183332D02*
X181832Y183999D01*
X180499D01*
X179832Y183332D01*
Y180666D01*
X180499Y180000D01*
X181832D01*
X182498Y180666D01*
X183831Y180000D02*
X185164D01*
X184497D01*
Y183999D01*
X183831Y183332D01*
X187163Y183999D02*
X189829D01*
Y183332D01*
X187163Y180666D01*
Y180000D01*
X95000Y257249D02*
X96333D01*
X95666D01*
Y253250D01*
X95000D01*
X96333D01*
X100998Y256582D02*
X100332Y257249D01*
X98999D01*
X98332Y256582D01*
Y253916D01*
X98999Y253250D01*
X100332D01*
X100998Y253916D01*
X102331Y253250D02*
X103664D01*
X102997D01*
Y257249D01*
X102331Y256582D01*
X105663Y253250D02*
X106996D01*
X106330D01*
Y257249D01*
X105663Y256582D01*
X38000Y16250D02*
Y20249D01*
X39999D01*
X40666Y19582D01*
Y18249D01*
X39999Y17583D01*
X38000D01*
X44665Y19582D02*
X43998Y20249D01*
X42665D01*
X41999Y19582D01*
Y16916D01*
X42665Y16250D01*
X43998D01*
X44665Y16916D01*
X45997Y20249D02*
Y16250D01*
X47997D01*
X48663Y16916D01*
Y17583D01*
X47997Y18249D01*
X45997D01*
X47997D01*
X48663Y18916D01*
Y19582D01*
X47997Y20249D01*
X45997D01*
X55994Y16250D02*
X54661D01*
X53995Y16916D01*
Y18249D01*
X54661Y18916D01*
X55994D01*
X56661Y18249D01*
Y17583D01*
X53995D01*
X60659Y20249D02*
Y16250D01*
X58660D01*
X57993Y16916D01*
Y18249D01*
X58660Y18916D01*
X60659D01*
X63325Y14917D02*
X63992D01*
X64658Y15583D01*
Y18916D01*
X62659D01*
X61992Y18249D01*
Y16916D01*
X62659Y16250D01*
X64658D01*
X67990D02*
X66657D01*
X65991Y16916D01*
Y18249D01*
X66657Y18916D01*
X67990D01*
X68657Y18249D01*
Y17583D01*
X65991D01*
X55750Y40499D02*
X58416Y36500D01*
Y40499D02*
X55750Y36500D01*
X59749D02*
X61082D01*
X60415D01*
Y40499D01*
X59749Y39832D01*
X63081Y36500D02*
X64414D01*
X63747D01*
Y40499D01*
X63081Y39832D01*
X56000Y95499D02*
X57333D01*
X56666D01*
Y91500D01*
X56000D01*
X57333D01*
X61998Y94832D02*
X61332Y95499D01*
X59999D01*
X59332Y94832D01*
Y92166D01*
X59999Y91500D01*
X61332D01*
X61998Y92166D01*
X63331Y94832D02*
X63997Y95499D01*
X65330D01*
X65997Y94832D01*
Y94166D01*
X65330Y93499D01*
X64664D01*
X65330D01*
X65997Y92833D01*
Y92166D01*
X65330Y91500D01*
X63997D01*
X63331Y92166D01*
X67330Y94832D02*
X67996Y95499D01*
X69329D01*
X69995Y94832D01*
Y92166D01*
X69329Y91500D01*
X67996D01*
X67330Y92166D01*
Y94832D01*
X56250Y74499D02*
X57583D01*
X56916D01*
Y70500D01*
X56250D01*
X57583D01*
X62248Y73832D02*
X61582Y74499D01*
X60249D01*
X59582Y73832D01*
Y71167D01*
X60249Y70500D01*
X61582D01*
X62248Y71167D01*
X66247Y70500D02*
X63581D01*
X66247Y73166D01*
Y73832D01*
X65580Y74499D01*
X64247D01*
X63581Y73832D01*
X67580D02*
X68246Y74499D01*
X69579D01*
X70245Y73832D01*
Y73166D01*
X69579Y72499D01*
X70245Y71833D01*
Y71167D01*
X69579Y70500D01*
X68246D01*
X67580Y71167D01*
Y71833D01*
X68246Y72499D01*
X67580Y73166D01*
Y73832D01*
X68246Y72499D02*
X69579D01*
X127000Y23249D02*
X128333D01*
X127666D01*
Y19250D01*
X127000D01*
X128333D01*
X132998Y22582D02*
X132332Y23249D01*
X130999D01*
X130332Y22582D01*
Y19916D01*
X130999Y19250D01*
X132332D01*
X132998Y19916D01*
X134331Y22582D02*
X134997Y23249D01*
X136330D01*
X136997Y22582D01*
Y21916D01*
X136330Y21249D01*
X135664D01*
X136330D01*
X136997Y20583D01*
Y19916D01*
X136330Y19250D01*
X134997D01*
X134331Y19916D01*
X138330Y19250D02*
X139663D01*
X138996D01*
Y23249D01*
X138330Y22582D01*
X267500Y280749D02*
X270166D01*
X268833D01*
Y276750D01*
X271499Y280082D02*
X272165Y280749D01*
X273498D01*
X274165Y280082D01*
Y279416D01*
X273498Y278749D01*
X272832D01*
X273498D01*
X274165Y278083D01*
Y277416D01*
X273498Y276750D01*
X272165D01*
X271499Y277416D01*
X140750Y81749D02*
X142083D01*
X141417D01*
Y77750D01*
X140750D01*
X142083D01*
X146748Y81082D02*
X146082Y81749D01*
X144749D01*
X144082Y81082D01*
Y78417D01*
X144749Y77750D01*
X146082D01*
X146748Y78417D01*
X148081Y81082D02*
X148747Y81749D01*
X150080D01*
X150747Y81082D01*
Y80416D01*
X150080Y79749D01*
X149414D01*
X150080D01*
X150747Y79083D01*
Y78417D01*
X150080Y77750D01*
X148747D01*
X148081Y78417D01*
X154746Y77750D02*
X152080D01*
X154746Y80416D01*
Y81082D01*
X154079Y81749D01*
X152746D01*
X152080Y81082D01*
X60416Y246749D02*
X57750D01*
Y242750D01*
X60416D01*
X57750Y244749D02*
X59083D01*
X64415Y246082D02*
X63748Y246749D01*
X62415D01*
X61749Y246082D01*
Y245416D01*
X62415Y244749D01*
X63748D01*
X64415Y244083D01*
Y243417D01*
X63748Y242750D01*
X62415D01*
X61749Y243417D01*
X65747Y246749D02*
Y242750D01*
X67747D01*
X68413Y243417D01*
Y246082D01*
X67747Y246749D01*
X65747D01*
X72412D02*
X69746D01*
Y244749D01*
X71079Y245416D01*
X71745D01*
X72412Y244749D01*
Y243417D01*
X71745Y242750D01*
X70413D01*
X69746Y243417D01*
X68166Y178582D02*
X67499Y179249D01*
X66166D01*
X65500Y178582D01*
Y175916D01*
X66166Y175250D01*
X67499D01*
X68166Y175916D01*
X69499Y175250D02*
X70832D01*
X70165D01*
Y179249D01*
X69499Y178582D01*
X74830Y175250D02*
Y179249D01*
X72831Y177249D01*
X75497D01*
X76830Y178582D02*
X77496Y179249D01*
X78829D01*
X79495Y178582D01*
Y177916D01*
X78829Y177249D01*
X79495Y176583D01*
Y175916D01*
X78829Y175250D01*
X77496D01*
X76830Y175916D01*
Y176583D01*
X77496Y177249D01*
X76830Y177916D01*
Y178582D01*
X77496Y177249D02*
X78829D01*
X205251Y10000D02*
X209250D01*
Y12666D01*
X205251Y16665D02*
Y13999D01*
X209250D01*
Y16665D01*
X207251Y13999D02*
Y15332D01*
X205251Y17997D02*
X209250D01*
Y19997D01*
X208584Y20663D01*
X205918D01*
X205251Y19997D01*
Y17997D01*
X209250Y24662D02*
Y21996D01*
X206584Y24662D01*
X205918D01*
X205251Y23995D01*
Y22662D01*
X205918Y21996D01*
X29250Y198249D02*
X31916Y194250D01*
Y198249D02*
X29250Y194250D01*
X35248Y198249D02*
X33915D01*
X33249Y197582D01*
Y194916D01*
X33915Y194250D01*
X35248D01*
X35914Y194916D01*
Y197582D01*
X35248Y198249D01*
X37247Y194250D02*
X38580D01*
X37914D01*
Y198249D01*
X37247Y197582D01*
X221500Y261750D02*
X222833D01*
X222166D01*
Y264416D01*
X221500D01*
X224832Y261750D02*
Y264416D01*
X226831D01*
X227498Y263749D01*
Y261750D01*
X221250Y283749D02*
X223916Y279750D01*
Y283749D02*
X221250Y279750D01*
X225249Y283749D02*
X227915D01*
Y283082D01*
X225249Y280417D01*
Y279750D01*
X91500Y25999D02*
X94166D01*
X92833D01*
Y22000D01*
X95499D02*
Y25999D01*
X97498D01*
X98165Y25332D01*
Y23999D01*
X97498Y23333D01*
X95499D01*
X102163Y22000D02*
X99497D01*
X102163Y24666D01*
Y25332D01*
X101497Y25999D01*
X100164D01*
X99497Y25332D01*
X44501Y234750D02*
X48500D01*
Y237416D01*
Y238749D02*
Y240082D01*
Y239415D01*
X44501D01*
X45168Y238749D01*
X421500Y243750D02*
Y247749D01*
X422833Y246416D01*
X424166Y247749D01*
Y243750D01*
X428164Y247749D02*
X425499D01*
Y243750D01*
X428164D01*
X425499Y245749D02*
X426832D01*
X432163Y247082D02*
X431497Y247749D01*
X430164D01*
X429497Y247082D01*
Y244417D01*
X430164Y243750D01*
X431497D01*
X432163Y244417D01*
X433496Y247749D02*
Y243750D01*
Y245749D01*
X436162D01*
Y247749D01*
Y243750D01*
X437495D02*
X438828D01*
X438161D01*
Y247749D01*
X437495Y247082D01*
X408916Y241582D02*
X408249Y242249D01*
X406916D01*
X406250Y241582D01*
Y240916D01*
X406916Y240249D01*
X408249D01*
X408916Y239583D01*
Y238916D01*
X408249Y238250D01*
X406916D01*
X406250Y238916D01*
X410249Y242249D02*
Y238250D01*
Y240249D01*
X410915Y240916D01*
X412248D01*
X412915Y240249D01*
Y238250D01*
X414247D02*
X415580D01*
X414914D01*
Y240916D01*
X414247D01*
X419579Y238250D02*
X418246D01*
X417580Y238916D01*
Y240249D01*
X418246Y240916D01*
X419579D01*
X420245Y240249D01*
Y239583D01*
X417580D01*
X421578Y238250D02*
X422911D01*
X422245D01*
Y242249D01*
X421578D01*
X427576D02*
Y238250D01*
X425577D01*
X424911Y238916D01*
Y240249D01*
X425577Y240916D01*
X427576D01*
X435574Y241582D02*
X434907Y242249D01*
X433574D01*
X432908Y241582D01*
Y238916D01*
X433574Y238250D01*
X434907D01*
X435574Y238916D01*
X437573Y238250D02*
X438906D01*
X439572Y238916D01*
Y240249D01*
X438906Y240916D01*
X437573D01*
X436907Y240249D01*
Y238916D01*
X437573Y238250D01*
X440905Y240916D02*
X442238Y238250D01*
X443571Y240916D01*
X446903Y238250D02*
X445570D01*
X444904Y238916D01*
Y240249D01*
X445570Y240916D01*
X446903D01*
X447570Y240249D01*
Y239583D01*
X444904D01*
X448903Y240916D02*
Y238250D01*
Y239583D01*
X449569Y240249D01*
X450236Y240916D01*
X450902D01*
X60250Y214250D02*
Y218249D01*
X62249D01*
X62916Y217582D01*
Y216249D01*
X62249Y215583D01*
X60250D01*
X61583D02*
X62916Y214250D01*
X66915Y218249D02*
X64249D01*
Y216249D01*
X65582Y216916D01*
X66248D01*
X66915Y216249D01*
Y214916D01*
X66248Y214250D01*
X64915D01*
X64249Y214916D01*
X68247Y217582D02*
X68914Y218249D01*
X70247D01*
X70913Y217582D01*
Y216916D01*
X70247Y216249D01*
X69580D01*
X70247D01*
X70913Y215583D01*
Y214916D01*
X70247Y214250D01*
X68914D01*
X68247Y214916D01*
X-17250Y240250D02*
Y244249D01*
X-15251D01*
X-14584Y243582D01*
Y242249D01*
X-15251Y241583D01*
X-17250D01*
X-15917D02*
X-14584Y240250D01*
X-13251Y244249D02*
X-10586D01*
Y243582D01*
X-13251Y240916D01*
Y240250D01*
X-9253Y243582D02*
X-8586Y244249D01*
X-7253D01*
X-6587Y243582D01*
Y242916D01*
X-7253Y242249D01*
X-6587Y241583D01*
Y240916D01*
X-7253Y240250D01*
X-8586D01*
X-9253Y240916D01*
Y241583D01*
X-8586Y242249D01*
X-9253Y242916D01*
Y243582D01*
X-8586Y242249D02*
X-7253D01*
X172500Y283749D02*
X175166Y279750D01*
Y283749D02*
X172500Y279750D01*
X179165Y283749D02*
X177832Y283082D01*
X176499Y281749D01*
Y280417D01*
X177165Y279750D01*
X178498D01*
X179165Y280417D01*
Y281083D01*
X178498Y281749D01*
X176499D01*
X172750Y261750D02*
X174083D01*
X173417D01*
Y264416D01*
X172750D01*
X176082Y261750D02*
Y264416D01*
X178082D01*
X178748Y263749D01*
Y261750D01*
X313250Y16499D02*
X315916Y12500D01*
Y16499D02*
X313250Y12500D01*
X319248D02*
Y16499D01*
X317249Y14499D01*
X319914D01*
X311500Y37750D02*
X312833D01*
X312167D01*
Y40416D01*
X311500D01*
X314832Y37750D02*
Y40416D01*
X316832D01*
X317498Y39749D01*
Y37750D01*
X382000Y283999D02*
X384666Y280000D01*
Y283999D02*
X382000Y280000D01*
X385999Y283332D02*
X386665Y283999D01*
X387998D01*
X388665Y283332D01*
Y282666D01*
X387998Y281999D01*
X387332D01*
X387998D01*
X388665Y281333D01*
Y280666D01*
X387998Y280000D01*
X386665D01*
X385999Y280666D01*
X382500Y262000D02*
X383833D01*
X383167D01*
Y264666D01*
X382500D01*
X385832Y262000D02*
Y264666D01*
X387832D01*
X388498Y263999D01*
Y262000D01*
X382250Y16499D02*
X384916Y12500D01*
Y16499D02*
X382250Y12500D01*
X388914D02*
X386249D01*
X388914Y15166D01*
Y15832D01*
X388248Y16499D01*
X386915D01*
X386249Y15832D01*
X380500Y37750D02*
X381833D01*
X381166D01*
Y40416D01*
X380500D01*
X383832Y37750D02*
Y40416D01*
X385832D01*
X386498Y39749D01*
Y37750D01*
X313250Y284249D02*
X315916Y280250D01*
Y284249D02*
X313250Y280250D01*
X317249D02*
X318582D01*
X317915D01*
Y284249D01*
X317249Y283582D01*
X313500Y262000D02*
X314833D01*
X314166D01*
Y264666D01*
X313500D01*
X316832Y262000D02*
Y264666D01*
X318832D01*
X319498Y263999D01*
Y262000D01*
X-17250Y247250D02*
Y251249D01*
X-15251D01*
X-14584Y250582D01*
Y249249D01*
X-15251Y248583D01*
X-17250D01*
X-15917D02*
X-14584Y247250D01*
X-13251Y251249D02*
X-10586D01*
Y250582D01*
X-13251Y247916D01*
Y247250D01*
X-6587Y251249D02*
X-7920Y250582D01*
X-9253Y249249D01*
Y247916D01*
X-8586Y247250D01*
X-7253D01*
X-6587Y247916D01*
Y248583D01*
X-7253Y249249D01*
X-9253D01*
X207751Y265416D02*
Y262750D01*
X211750D01*
Y265416D01*
X209751Y262750D02*
Y264083D01*
X208418Y269415D02*
X207751Y268748D01*
Y267415D01*
X208418Y266749D01*
X209084D01*
X209751Y267415D01*
Y268748D01*
X210417Y269415D01*
X211084D01*
X211750Y268748D01*
Y267415D01*
X211084Y266749D01*
X207751Y270747D02*
X211750D01*
Y272747D01*
X211084Y273413D01*
X208418D01*
X207751Y272747D01*
Y270747D01*
Y277412D02*
X208418Y276079D01*
X209751Y274746D01*
X211084D01*
X211750Y275413D01*
Y276745D01*
X211084Y277412D01*
X210417D01*
X209751Y276745D01*
Y274746D01*
X358750Y273250D02*
X354751D01*
Y275249D01*
X355418Y275916D01*
X356751D01*
X357417Y275249D01*
Y273250D01*
Y274583D02*
X358750Y275916D01*
Y279248D02*
X354751D01*
X356751Y277249D01*
Y279914D01*
X358084Y281247D02*
X358750Y281914D01*
Y283247D01*
X358084Y283913D01*
X355418D01*
X354751Y283247D01*
Y281914D01*
X355418Y281247D01*
X356084D01*
X356751Y281914D01*
Y283913D01*
X201500Y141500D02*
X197501D01*
Y143499D01*
X198168Y144166D01*
X199501D01*
X200167Y143499D01*
Y141500D01*
Y142833D02*
X201500Y144166D01*
X197501Y148165D02*
X198168Y146832D01*
X199501Y145499D01*
X200834D01*
X201500Y146165D01*
Y147498D01*
X200834Y148165D01*
X200167D01*
X199501Y147498D01*
Y145499D01*
X198168Y149497D02*
X197501Y150164D01*
Y151497D01*
X198168Y152163D01*
X198834D01*
X199501Y151497D01*
X200167Y152163D01*
X200834D01*
X201500Y151497D01*
Y150164D01*
X200834Y149497D01*
X200167D01*
X199501Y150164D01*
X198834Y149497D01*
X198168D01*
X199501Y150164D02*
Y151497D01*
X183500Y47250D02*
X179501D01*
Y49249D01*
X180168Y49916D01*
X181501D01*
X182167Y49249D01*
Y47250D01*
Y48583D02*
X183500Y49916D01*
Y51249D02*
Y52582D01*
Y51915D01*
X179501D01*
X180168Y51249D01*
Y54581D02*
X179501Y55247D01*
Y56580D01*
X180168Y57247D01*
X182833D01*
X183500Y56580D01*
Y55247D01*
X182833Y54581D01*
X180168D01*
Y58580D02*
X179501Y59246D01*
Y60579D01*
X180168Y61245D01*
X180834D01*
X181501Y60579D01*
X182167Y61245D01*
X182833D01*
X183500Y60579D01*
Y59246D01*
X182833Y58580D01*
X182167D01*
X181501Y59246D01*
X180834Y58580D01*
X180168D01*
X181501Y59246D02*
Y60579D01*
X370500Y219750D02*
Y223749D01*
X371833Y222416D01*
X373166Y223749D01*
Y219750D01*
X374499D02*
Y223749D01*
X377164Y219750D01*
Y223749D01*
X378497Y219750D02*
X379830D01*
X379164D01*
Y223749D01*
X378497Y223082D01*
X383829Y219750D02*
Y223749D01*
X381830Y221749D01*
X384495D01*
X371000Y175500D02*
Y179499D01*
X372333Y178166D01*
X373666Y179499D01*
Y175500D01*
X374999D02*
Y179499D01*
X377664Y175500D01*
Y179499D01*
X378997Y175500D02*
X380330D01*
X379664D01*
Y179499D01*
X378997Y178832D01*
X382330D02*
X382996Y179499D01*
X384329D01*
X384995Y178832D01*
Y178166D01*
X384329Y177499D01*
X383662D01*
X384329D01*
X384995Y176833D01*
Y176166D01*
X384329Y175500D01*
X382996D01*
X382330Y176166D01*
X347250Y272500D02*
X343251D01*
Y274499D01*
X343918Y275166D01*
X345251D01*
X345917Y274499D01*
Y272500D01*
Y273833D02*
X347250Y275166D01*
X343251Y279165D02*
Y276499D01*
X345251D01*
X344584Y277832D01*
Y278498D01*
X345251Y279165D01*
X346584D01*
X347250Y278498D01*
Y277165D01*
X346584Y276499D01*
X343918Y280497D02*
X343251Y281164D01*
Y282497D01*
X343918Y283163D01*
X346584D01*
X347250Y282497D01*
Y281164D01*
X346584Y280497D01*
X343918D01*
X91750Y35999D02*
X94416D01*
X93083D01*
Y32000D01*
X95749D02*
Y35999D01*
X97748D01*
X98414Y35332D01*
Y33999D01*
X97748Y33333D01*
X95749D01*
X99747Y32000D02*
X101080D01*
X100414D01*
Y35999D01*
X99747Y35332D01*
X59666Y118082D02*
X59000Y118749D01*
X57667D01*
X57000Y118082D01*
Y115416D01*
X57667Y114750D01*
X59000D01*
X59666Y115416D01*
X60999Y114750D02*
X62332D01*
X61665D01*
Y118749D01*
X60999Y118082D01*
X64331Y114750D02*
X65664D01*
X64998D01*
Y118749D01*
X64331Y118082D01*
X67663D02*
X68330Y118749D01*
X69663D01*
X70329Y118082D01*
Y117416D01*
X69663Y116749D01*
X68996D01*
X69663D01*
X70329Y116083D01*
Y115416D01*
X69663Y114750D01*
X68330D01*
X67663Y115416D01*
X33166Y147832D02*
X32499Y148499D01*
X31166D01*
X30500Y147832D01*
Y145166D01*
X31166Y144500D01*
X32499D01*
X33166Y145166D01*
X34499Y144500D02*
X35832D01*
X35165D01*
Y148499D01*
X34499Y147832D01*
X37831Y144500D02*
X39164D01*
X38497D01*
Y148499D01*
X37831Y147832D01*
X43829Y144500D02*
X41163D01*
X43829Y147166D01*
Y147832D01*
X43163Y148499D01*
X41830D01*
X41163Y147832D01*
X349418Y21916D02*
X348751Y21249D01*
Y19916D01*
X349418Y19250D01*
X352084D01*
X352750Y19916D01*
Y21249D01*
X352084Y21916D01*
X352750Y23249D02*
Y24582D01*
Y23915D01*
X348751D01*
X349418Y23249D01*
X366000Y52500D02*
Y56499D01*
X367333Y55166D01*
X368666Y56499D01*
Y52500D01*
X369999D02*
Y56499D01*
X372664Y52500D01*
Y56499D01*
X376663D02*
X373997D01*
Y54499D01*
X375330Y55166D01*
X375997D01*
X376663Y54499D01*
Y53166D01*
X375997Y52500D01*
X374664D01*
X373997Y53166D01*
X377996Y55832D02*
X378662Y56499D01*
X379995D01*
X380662Y55832D01*
Y55166D01*
X379995Y54499D01*
X379329D01*
X379995D01*
X380662Y53833D01*
Y53166D01*
X379995Y52500D01*
X378662D01*
X377996Y53166D01*
X331250Y50500D02*
Y54499D01*
X332583Y53166D01*
X333916Y54499D01*
Y50500D01*
X335249D02*
Y54499D01*
X337915Y50500D01*
Y54499D01*
X341913D02*
X339247D01*
Y52499D01*
X340580Y53166D01*
X341247D01*
X341913Y52499D01*
Y51166D01*
X341247Y50500D01*
X339914D01*
X339247Y51166D01*
X345246Y50500D02*
Y54499D01*
X343246Y52499D01*
X345912D01*
X-15000Y88250D02*
X-18999D01*
Y90249D01*
X-18332Y90916D01*
X-16999D01*
X-16333Y90249D01*
Y88250D01*
Y89583D02*
X-15000Y90916D01*
X-18999Y92249D02*
Y94915D01*
X-18332D01*
X-15666Y92249D01*
X-15000D01*
Y96247D02*
Y97580D01*
Y96914D01*
X-18999D01*
X-18332Y96247D01*
X38750Y94750D02*
X34751D01*
Y96749D01*
X35418Y97416D01*
X36751D01*
X37417Y96749D01*
Y94750D01*
Y96083D02*
X38750Y97416D01*
Y98749D02*
Y100082D01*
Y99415D01*
X34751D01*
X35418Y98749D01*
X38750Y104747D02*
Y102081D01*
X36084Y104747D01*
X35418D01*
X34751Y104080D01*
Y102747D01*
X35418Y102081D01*
X38750Y108079D02*
X34751D01*
X36751Y106080D01*
Y108745D01*
X-35500Y32000D02*
Y35999D01*
X-33501D01*
X-32834Y35332D01*
Y33999D01*
X-33501Y33333D01*
X-35500D01*
X-34167D02*
X-32834Y32000D01*
X-31501D02*
X-30168D01*
X-30835D01*
Y35999D01*
X-31501Y35332D01*
X-28169D02*
X-27503Y35999D01*
X-26170D01*
X-25503Y35332D01*
Y32666D01*
X-26170Y32000D01*
X-27503D01*
X-28169Y32666D01*
Y35332D01*
X-24170D02*
X-23504Y35999D01*
X-22171D01*
X-21504Y35332D01*
Y34666D01*
X-22171Y33999D01*
X-22837D01*
X-22171D01*
X-21504Y33333D01*
Y32666D01*
X-22171Y32000D01*
X-23504D01*
X-24170Y32666D01*
X197500Y60750D02*
X193501D01*
Y62749D01*
X194168Y63416D01*
X195501D01*
X196167Y62749D01*
Y60750D01*
Y62083D02*
X197500Y63416D01*
Y64749D02*
Y66082D01*
Y65415D01*
X193501D01*
X194168Y64749D01*
X197500Y68081D02*
Y69414D01*
Y68747D01*
X193501D01*
X194168Y68081D01*
Y71413D02*
X193501Y72080D01*
Y73413D01*
X194168Y74079D01*
X194834D01*
X195501Y73413D01*
Y72746D01*
Y73413D01*
X196167Y74079D01*
X196834D01*
X197500Y73413D01*
Y72080D01*
X196834Y71413D01*
X356918Y38416D02*
X356251Y37749D01*
Y36416D01*
X356918Y35750D01*
X359584D01*
X360250Y36416D01*
Y37749D01*
X359584Y38416D01*
X360250Y39749D02*
Y41082D01*
Y40415D01*
X356251D01*
X356918Y39749D01*
X359584Y43081D02*
X360250Y43747D01*
Y45080D01*
X359584Y45747D01*
X356918D01*
X356251Y45080D01*
Y43747D01*
X356918Y43081D01*
X357584D01*
X358251Y43747D01*
Y45747D01*
X350418Y37666D02*
X349751Y36999D01*
Y35666D01*
X350418Y35000D01*
X353083D01*
X353750Y35666D01*
Y36999D01*
X353083Y37666D01*
X353750Y41665D02*
Y38999D01*
X351084Y41665D01*
X350418D01*
X349751Y40998D01*
Y39665D01*
X350418Y38999D01*
Y42997D02*
X349751Y43664D01*
Y44997D01*
X350418Y45663D01*
X353083D01*
X353750Y44997D01*
Y43664D01*
X353083Y42997D01*
X350418D01*
X25918Y94666D02*
X25251Y93999D01*
Y92666D01*
X25918Y92000D01*
X28584D01*
X29250Y92666D01*
Y93999D01*
X28584Y94666D01*
X29250Y98665D02*
Y95999D01*
X26584Y98665D01*
X25918D01*
X25251Y97998D01*
Y96665D01*
X25918Y95999D01*
X29250Y102663D02*
Y99997D01*
X26584Y102663D01*
X25918D01*
X25251Y101997D01*
Y100664D01*
X25918Y99997D01*
Y103996D02*
X25251Y104663D01*
Y105995D01*
X25918Y106662D01*
X26584D01*
X27251Y105995D01*
X27917Y106662D01*
X28584D01*
X29250Y105995D01*
Y104663D01*
X28584Y103996D01*
X27917D01*
X27251Y104663D01*
X26584Y103996D01*
X25918D01*
X27251Y104663D02*
Y105995D01*
X162250Y79250D02*
X158251D01*
Y81249D01*
X158918Y81916D01*
X160251D01*
X160917Y81249D01*
Y79250D01*
Y80583D02*
X162250Y81916D01*
Y83249D02*
Y84582D01*
Y83915D01*
X158251D01*
X158918Y83249D01*
X162250Y89247D02*
Y86581D01*
X159584Y89247D01*
X158918D01*
X158251Y88580D01*
Y87247D01*
X158918Y86581D01*
Y90580D02*
X158251Y91246D01*
Y92579D01*
X158918Y93245D01*
X159584D01*
X160251Y92579D01*
Y91912D01*
Y92579D01*
X160917Y93245D01*
X161583D01*
X162250Y92579D01*
Y91246D01*
X161583Y90580D01*
X175750Y57250D02*
X171751D01*
Y59249D01*
X172418Y59916D01*
X173751D01*
X174417Y59249D01*
Y57250D01*
Y58583D02*
X175750Y59916D01*
Y61249D02*
Y62582D01*
Y61915D01*
X171751D01*
X172418Y61249D01*
X175750Y67247D02*
Y64581D01*
X173084Y67247D01*
X172418D01*
X171751Y66580D01*
Y65247D01*
X172418Y64581D01*
X175750Y71245D02*
Y68580D01*
X173084Y71245D01*
X172418D01*
X171751Y70579D01*
Y69246D01*
X172418Y68580D01*
X164000Y233500D02*
Y237499D01*
X165999D01*
X166666Y236832D01*
Y235499D01*
X165999Y234833D01*
X164000D01*
X165333D02*
X166666Y233500D01*
X167999D02*
X169332D01*
X168665D01*
Y237499D01*
X167999Y236832D01*
X171331Y233500D02*
X172664D01*
X171997D01*
Y237499D01*
X171331Y236832D01*
X174663Y237499D02*
X177329D01*
Y236832D01*
X174663Y234166D01*
Y233500D01*
X209750Y233500D02*
Y237499D01*
X211749D01*
X212416Y236832D01*
Y235499D01*
X211749Y234833D01*
X209750D01*
X211083D02*
X212416Y233500D01*
X213749D02*
X215082D01*
X214415D01*
Y237499D01*
X213749Y236832D01*
X217081Y233500D02*
X218414D01*
X217747D01*
Y237499D01*
X217081Y236832D01*
X223079Y237499D02*
X221746Y236832D01*
X220413Y235499D01*
Y234166D01*
X221080Y233500D01*
X222412D01*
X223079Y234166D01*
Y234833D01*
X222412Y235499D01*
X220413D01*
X202500Y75500D02*
X198501D01*
Y77499D01*
X199168Y78166D01*
X200501D01*
X201167Y77499D01*
Y75500D01*
Y76833D02*
X202500Y78166D01*
Y79499D02*
Y80832D01*
Y80165D01*
X198501D01*
X199168Y79499D01*
X202500Y82831D02*
Y84164D01*
Y83497D01*
X198501D01*
X199168Y82831D01*
X202500Y88829D02*
Y86163D01*
X199834Y88829D01*
X199168D01*
X198501Y88163D01*
Y86830D01*
X199168Y86163D01*
X175251Y5250D02*
X179250D01*
Y7916D01*
X175251Y11914D02*
Y9249D01*
X179250D01*
Y11914D01*
X177251Y9249D02*
Y10582D01*
X175251Y13247D02*
X179250D01*
Y15247D01*
X178584Y15913D01*
X175918D01*
X175251Y15247D01*
Y13247D01*
X179250Y17246D02*
Y18579D01*
Y17912D01*
X175251D01*
X175918Y17246D01*
X210250Y174250D02*
Y178249D01*
X212249D01*
X212916Y177582D01*
Y176249D01*
X212249Y175583D01*
X210250D01*
X211583D02*
X212916Y174250D01*
X214249D02*
X215582D01*
X214915D01*
Y178249D01*
X214249Y177582D01*
X217581Y174250D02*
X218914D01*
X218247D01*
Y178249D01*
X217581Y177582D01*
X229000Y205000D02*
Y208999D01*
X230999D01*
X231666Y208332D01*
Y206999D01*
X230999Y206333D01*
X229000D01*
X230333D02*
X231666Y205000D01*
X232999D02*
X234332D01*
X233665D01*
Y208999D01*
X232999Y208332D01*
X238997Y205000D02*
X236331D01*
X238997Y207666D01*
Y208332D01*
X238330Y208999D01*
X236997D01*
X236331Y208332D01*
X245250Y67249D02*
X247916D01*
X246583D01*
Y63250D01*
X249249D02*
Y67249D01*
X251248D01*
X251915Y66582D01*
Y65249D01*
X251248Y64583D01*
X249249D01*
X253247Y66582D02*
X253914Y67249D01*
X255247D01*
X255913Y66582D01*
Y65916D01*
X255247Y65249D01*
X254580D01*
X255247D01*
X255913Y64583D01*
Y63916D01*
X255247Y63250D01*
X253914D01*
X253247Y63916D01*
X135416Y130582D02*
X134749Y131249D01*
X133416D01*
X132750Y130582D01*
Y127916D01*
X133416Y127250D01*
X134749D01*
X135416Y127916D01*
X136749Y127250D02*
X138082D01*
X137415D01*
Y131249D01*
X136749Y130582D01*
X140081D02*
X140747Y131249D01*
X142080D01*
X142747Y130582D01*
Y129916D01*
X142080Y129249D01*
X141414D01*
X142080D01*
X142747Y128583D01*
Y127916D01*
X142080Y127250D01*
X140747D01*
X140081Y127916D01*
X144080D02*
X144746Y127250D01*
X146079D01*
X146746Y127916D01*
Y130582D01*
X146079Y131249D01*
X144746D01*
X144080Y130582D01*
Y129916D01*
X144746Y129249D01*
X146746D01*
X97668Y86416D02*
X97001Y85749D01*
Y84416D01*
X97668Y83750D01*
X100334D01*
X101000Y84416D01*
Y85749D01*
X100334Y86416D01*
X101000Y87749D02*
Y89082D01*
Y88415D01*
X97001D01*
X97668Y87749D01*
Y91081D02*
X97001Y91747D01*
Y93080D01*
X97668Y93747D01*
X98334D01*
X99001Y93080D01*
Y92414D01*
Y93080D01*
X99667Y93747D01*
X100334D01*
X101000Y93080D01*
Y91747D01*
X100334Y91081D01*
X97668Y95080D02*
X97001Y95746D01*
Y97079D01*
X97668Y97745D01*
X98334D01*
X99001Y97079D01*
X99667Y97745D01*
X100334D01*
X101000Y97079D01*
Y95746D01*
X100334Y95080D01*
X99667D01*
X99001Y95746D01*
X98334Y95080D01*
X97668D01*
X99001Y95746D02*
Y97079D01*
X86491Y146721D02*
Y147664D01*
X85549Y148606D01*
X84606D01*
X82721Y146721D01*
Y145779D01*
X83664Y144836D01*
X84606D01*
X85077Y143422D02*
X86020Y142480D01*
X85549Y142951D01*
X88376Y145779D01*
X87434D01*
X89319Y139181D02*
X87434Y141066D01*
X91204D01*
X91675Y141538D01*
Y142480D01*
X90732Y143422D01*
X89790D01*
X92618Y140595D02*
X93560D01*
X94502Y139653D01*
Y138710D01*
X94031Y138239D01*
X93089D01*
X92618Y138710D01*
X93089Y138239D01*
X93089Y137296D01*
X92618Y136825D01*
X91675D01*
X90732Y137767D01*
Y138710D01*
X68166Y169082D02*
X67499Y169749D01*
X66166D01*
X65500Y169082D01*
Y166416D01*
X66166Y165750D01*
X67499D01*
X68166Y166416D01*
X69499Y165750D02*
X70832D01*
X70165D01*
Y169749D01*
X69499Y169082D01*
X74830Y165750D02*
Y169749D01*
X72831Y167749D01*
X75497D01*
X76830Y169749D02*
X79495D01*
Y169082D01*
X76830Y166416D01*
Y165750D01*
X115916Y94582D02*
X115249Y95249D01*
X113916D01*
X113250Y94582D01*
Y91917D01*
X113916Y91250D01*
X115249D01*
X115916Y91917D01*
X117249Y91250D02*
X118582D01*
X117915D01*
Y95249D01*
X117249Y94582D01*
X120581D02*
X121247Y95249D01*
X122580D01*
X123247Y94582D01*
Y93916D01*
X122580Y93249D01*
X121914D01*
X122580D01*
X123247Y92583D01*
Y91917D01*
X122580Y91250D01*
X121247D01*
X120581Y91917D01*
X127245Y91250D02*
X124580D01*
X127245Y93916D01*
Y94582D01*
X126579Y95249D01*
X125246D01*
X124580Y94582D01*
X123668Y127416D02*
X123001Y126749D01*
Y125416D01*
X123668Y124750D01*
X126334D01*
X127000Y125416D01*
Y126749D01*
X126334Y127416D01*
X127000Y128749D02*
Y130082D01*
Y129415D01*
X123001D01*
X123668Y128749D01*
X127000Y134747D02*
Y132081D01*
X124334Y134747D01*
X123668D01*
X123001Y134080D01*
Y132747D01*
X123668Y132081D01*
X123001Y136080D02*
Y138745D01*
X123668D01*
X126334Y136080D01*
X127000D01*
X132166Y112082D02*
X131499Y112749D01*
X130166D01*
X129500Y112082D01*
Y109416D01*
X130166Y108750D01*
X131499D01*
X132166Y109416D01*
X133499Y108750D02*
X134832D01*
X134165D01*
Y112749D01*
X133499Y112082D01*
X139497Y108750D02*
X136831D01*
X139497Y111416D01*
Y112082D01*
X138830Y112749D01*
X137497D01*
X136831Y112082D01*
X143495Y112749D02*
X142163Y112082D01*
X140830Y110749D01*
Y109416D01*
X141496Y108750D01*
X142829D01*
X143495Y109416D01*
Y110083D01*
X142829Y110749D01*
X140830D01*
X218668Y37166D02*
X218001Y36499D01*
Y35166D01*
X218668Y34500D01*
X221334D01*
X222000Y35166D01*
Y36499D01*
X221334Y37166D01*
X222000Y38499D02*
Y39832D01*
Y39165D01*
X218001D01*
X218668Y38499D01*
X222000Y41831D02*
Y43164D01*
Y42497D01*
X218001D01*
X218668Y41831D01*
Y45163D02*
X218001Y45830D01*
Y47163D01*
X218668Y47829D01*
X219334D01*
X220001Y47163D01*
X220667Y47829D01*
X221334D01*
X222000Y47163D01*
Y45830D01*
X221334Y45163D01*
X220667D01*
X220001Y45830D01*
X219334Y45163D01*
X218668D01*
X220001Y45830D02*
Y47163D01*
X32416Y155582D02*
X31749Y156249D01*
X30416D01*
X29750Y155582D01*
Y152916D01*
X30416Y152250D01*
X31749D01*
X32416Y152916D01*
X33749Y152250D02*
X35082D01*
X34415D01*
Y156249D01*
X33749Y155582D01*
X37081Y152250D02*
X38414D01*
X37747D01*
Y156249D01*
X37081Y155582D01*
X40413D02*
X41080Y156249D01*
X42413D01*
X43079Y155582D01*
Y152916D01*
X42413Y152250D01*
X41080D01*
X40413Y152916D01*
Y155582D01*
X82666Y188582D02*
X81999Y189249D01*
X80666D01*
X80000Y188582D01*
Y185916D01*
X80666Y185250D01*
X81999D01*
X82666Y185916D01*
X83999Y185250D02*
X85332D01*
X84665D01*
Y189249D01*
X83999Y188582D01*
X89330Y185250D02*
Y189249D01*
X87331Y187249D01*
X89997D01*
X91330Y185916D02*
X91996Y185250D01*
X93329D01*
X93995Y185916D01*
Y188582D01*
X93329Y189249D01*
X91996D01*
X91330Y188582D01*
Y187916D01*
X91996Y187249D01*
X93995D01*
X105666Y192832D02*
X104999Y193499D01*
X103666D01*
X103000Y192832D01*
Y190166D01*
X103666Y189500D01*
X104999D01*
X105666Y190166D01*
X106999Y189500D02*
X108332D01*
X107665D01*
Y193499D01*
X106999Y192832D01*
X112330Y189500D02*
Y193499D01*
X110331Y191499D01*
X112997D01*
X114330Y192832D02*
X114996Y193499D01*
X116329D01*
X116995Y192832D01*
Y192166D01*
X116329Y191499D01*
X115662D01*
X116329D01*
X116995Y190833D01*
Y190166D01*
X116329Y189500D01*
X114996D01*
X114330Y190166D01*
X123918Y75666D02*
X123251Y74999D01*
Y73667D01*
X123918Y73000D01*
X126584D01*
X127250Y73667D01*
Y74999D01*
X126584Y75666D01*
X127250Y76999D02*
Y78332D01*
Y77665D01*
X123251D01*
X123918Y76999D01*
Y80331D02*
X123251Y80997D01*
Y82330D01*
X123918Y82997D01*
X124584D01*
X125251Y82330D01*
Y81664D01*
Y82330D01*
X125917Y82997D01*
X126584D01*
X127250Y82330D01*
Y80997D01*
X126584Y80331D01*
X127250Y86329D02*
X123251D01*
X125251Y84330D01*
Y86995D01*
X63916Y127332D02*
X63249Y127999D01*
X61916D01*
X61250Y127332D01*
Y124667D01*
X61916Y124000D01*
X63249D01*
X63916Y124667D01*
X65249Y124000D02*
X66582D01*
X65915D01*
Y127999D01*
X65249Y127332D01*
X68581Y124000D02*
X69914D01*
X69247D01*
Y127999D01*
X68581Y127332D01*
X74579Y127999D02*
X71913D01*
Y125999D01*
X73246Y126666D01*
X73913D01*
X74579Y125999D01*
Y124667D01*
X73913Y124000D01*
X72580D01*
X71913Y124667D01*
X54418Y133416D02*
X53751Y132749D01*
Y131417D01*
X54418Y130750D01*
X57084D01*
X57750Y131417D01*
Y132749D01*
X57084Y133416D01*
X57750Y134749D02*
Y136082D01*
Y135415D01*
X53751D01*
X54418Y134749D01*
X57750Y138081D02*
Y139414D01*
Y138747D01*
X53751D01*
X54418Y138081D01*
X57750Y141413D02*
Y142746D01*
Y142080D01*
X53751D01*
X54418Y141413D01*
X37416Y176332D02*
X36749Y176999D01*
X35416D01*
X34750Y176332D01*
Y173666D01*
X35416Y173000D01*
X36749D01*
X37416Y173666D01*
X38749Y173000D02*
X40082D01*
X39415D01*
Y176999D01*
X38749Y176332D01*
X42081D02*
X42747Y176999D01*
X44080D01*
X44747Y176332D01*
Y173666D01*
X44080Y173000D01*
X42747D01*
X42081Y173666D01*
Y176332D01*
X46080Y173666D02*
X46746Y173000D01*
X48079D01*
X48745Y173666D01*
Y176332D01*
X48079Y176999D01*
X46746D01*
X46080Y176332D01*
Y175666D01*
X46746Y174999D01*
X48745D01*
X125668Y29416D02*
X125001Y28749D01*
Y27417D01*
X125668Y26750D01*
X128334D01*
X129000Y27417D01*
Y28749D01*
X128334Y29416D01*
X129000Y33414D02*
Y30749D01*
X126334Y33414D01*
X125668D01*
X125001Y32748D01*
Y31415D01*
X125668Y30749D01*
X129000Y34747D02*
Y36080D01*
Y35414D01*
X125001D01*
X125668Y34747D01*
Y38080D02*
X125001Y38746D01*
Y40079D01*
X125668Y40746D01*
X126334D01*
X127001Y40079D01*
X127667Y40746D01*
X128334D01*
X129000Y40079D01*
Y38746D01*
X128334Y38080D01*
X127667D01*
X127001Y38746D01*
X126334Y38080D01*
X125668D01*
X127001Y38746D02*
Y40079D01*
X282668Y26666D02*
X282001Y25999D01*
Y24666D01*
X282668Y24000D01*
X285334D01*
X286000Y24666D01*
Y25999D01*
X285334Y26666D01*
X286000Y30665D02*
Y27999D01*
X283334Y30665D01*
X282668D01*
X282001Y29998D01*
Y28665D01*
X282668Y27999D01*
Y31997D02*
X282001Y32664D01*
Y33997D01*
X282668Y34663D01*
X283334D01*
X284001Y33997D01*
Y33330D01*
Y33997D01*
X284667Y34663D01*
X285334D01*
X286000Y33997D01*
Y32664D01*
X285334Y31997D01*
X282668Y35996D02*
X282001Y36662D01*
Y37996D01*
X282668Y38662D01*
X283334D01*
X284001Y37996D01*
Y37329D01*
Y37996D01*
X284667Y38662D01*
X285334D01*
X286000Y37996D01*
Y36662D01*
X285334Y35996D01*
X-13084Y230832D02*
X-13751Y231499D01*
X-15084D01*
X-15750Y230832D01*
Y228166D01*
X-15084Y227500D01*
X-13751D01*
X-13084Y228166D01*
X-11751Y227500D02*
X-10418D01*
X-11085D01*
Y231499D01*
X-11751Y230832D01*
X-5753Y231499D02*
X-8419D01*
Y229499D01*
X-7086Y230166D01*
X-6420D01*
X-5753Y229499D01*
Y228166D01*
X-6420Y227500D01*
X-7753D01*
X-8419Y228166D01*
X-4420D02*
X-3754Y227500D01*
X-2421D01*
X-1755Y228166D01*
Y230832D01*
X-2421Y231499D01*
X-3754D01*
X-4420Y230832D01*
Y230166D01*
X-3754Y229499D01*
X-1755D01*
X193666Y131332D02*
X192999Y131999D01*
X191666D01*
X191000Y131332D01*
Y128666D01*
X191666Y128000D01*
X192999D01*
X193666Y128666D01*
X194999Y128000D02*
X196332D01*
X195665D01*
Y131999D01*
X194999Y131332D01*
X198331D02*
X198997Y131999D01*
X200330D01*
X200997Y131332D01*
Y130666D01*
X200330Y129999D01*
X200997Y129333D01*
Y128666D01*
X200330Y128000D01*
X198997D01*
X198331Y128666D01*
Y129333D01*
X198997Y129999D01*
X198331Y130666D01*
Y131332D01*
X198997Y129999D02*
X200330D01*
X204329Y128000D02*
Y131999D01*
X202330Y129999D01*
X204995D01*
X187750Y220499D02*
X189083D01*
X188416D01*
Y216500D01*
X187750D01*
X189083D01*
X193748Y219832D02*
X193082Y220499D01*
X191749D01*
X191082Y219832D01*
Y217166D01*
X191749Y216500D01*
X193082D01*
X193748Y217166D01*
X197747Y216500D02*
X195081D01*
X197747Y219166D01*
Y219832D01*
X197080Y220499D01*
X195747D01*
X195081Y219832D01*
X199080Y217166D02*
X199746Y216500D01*
X201079D01*
X201745Y217166D01*
Y219832D01*
X201079Y220499D01*
X199746D01*
X199080Y219832D01*
Y219166D01*
X199746Y218499D01*
X201745D01*
X119491Y72721D02*
Y73664D01*
X118549Y74606D01*
X117606D01*
X115721Y72721D01*
Y71779D01*
X116664Y70836D01*
X117606D01*
X118077Y69422D02*
X119020Y68480D01*
X118549Y68951D01*
X121376Y71779D01*
X120434D01*
X120905Y67537D02*
Y66595D01*
X121847Y65652D01*
X122790D01*
X124675Y67537D01*
Y68480D01*
X123733Y69422D01*
X122790D01*
X122319Y68951D01*
Y68009D01*
X123733Y66595D01*
X125618D02*
X126560D01*
X127502Y65652D01*
Y64710D01*
X125618Y62825D01*
X124675D01*
X123733Y63767D01*
Y64710D01*
X125618Y66595D01*
X93132Y40880D02*
X92465Y40213D01*
Y38881D01*
X93132Y38214D01*
X95798D01*
X96464Y38881D01*
Y40213D01*
X95798Y40880D01*
X96464Y42213D02*
Y43546D01*
Y42879D01*
X92465D01*
X93132Y42213D01*
Y45545D02*
X92465Y46212D01*
Y47544D01*
X93132Y48211D01*
X93798D01*
X94465Y47544D01*
X95131Y48211D01*
X95798D01*
X96464Y47544D01*
Y46212D01*
X95798Y45545D01*
X95131D01*
X94465Y46212D01*
X93798Y45545D01*
X93132D01*
X94465Y46212D02*
Y47544D01*
X95798Y49544D02*
X96464Y50210D01*
Y51543D01*
X95798Y52210D01*
X93132D01*
X92465Y51543D01*
Y50210D01*
X93132Y49544D01*
X93798D01*
X94465Y50210D01*
Y52210D01*
X86418Y40916D02*
X85751Y40249D01*
Y38916D01*
X86418Y38250D01*
X89084D01*
X89750Y38916D01*
Y40249D01*
X89084Y40916D01*
X89750Y42249D02*
Y43582D01*
Y42915D01*
X85751D01*
X86418Y42249D01*
Y45581D02*
X85751Y46247D01*
Y47580D01*
X86418Y48247D01*
X87084D01*
X87751Y47580D01*
X88417Y48247D01*
X89084D01*
X89750Y47580D01*
Y46247D01*
X89084Y45581D01*
X88417D01*
X87751Y46247D01*
X87084Y45581D01*
X86418D01*
X87751Y46247D02*
Y47580D01*
X86418Y49580D02*
X85751Y50246D01*
Y51579D01*
X86418Y52245D01*
X87084D01*
X87751Y51579D01*
X88417Y52245D01*
X89084D01*
X89750Y51579D01*
Y50246D01*
X89084Y49580D01*
X88417D01*
X87751Y50246D01*
X87084Y49580D01*
X86418D01*
X87751Y50246D02*
Y51579D01*
X16666Y241499D02*
X14000D01*
Y239499D01*
X15333D01*
X14000D01*
Y237500D01*
X17999D02*
Y241499D01*
X19998D01*
X20665Y240832D01*
Y239499D01*
X19998Y238833D01*
X17999D01*
X19332D02*
X20665Y237500D01*
X21997Y240832D02*
X22664Y241499D01*
X23997D01*
X24663Y240832D01*
Y240166D01*
X23997Y239499D01*
X23330D01*
X23997D01*
X24663Y238833D01*
Y238167D01*
X23997Y237500D01*
X22664D01*
X21997Y238167D01*
X25996Y240832D02*
X26662Y241499D01*
X27995D01*
X28662Y240832D01*
Y240166D01*
X27995Y239499D01*
X28662Y238833D01*
Y238167D01*
X27995Y237500D01*
X26662D01*
X25996Y238167D01*
Y238833D01*
X26662Y239499D01*
X25996Y240166D01*
Y240832D01*
X26662Y239499D02*
X27995D01*
X52000Y131500D02*
X48001D01*
Y133499D01*
X48668Y134166D01*
X50001D01*
X50667Y133499D01*
Y131500D01*
Y132833D02*
X52000Y134166D01*
X48668Y135499D02*
X48001Y136165D01*
Y137498D01*
X48668Y138165D01*
X49334D01*
X50001Y137498D01*
Y136832D01*
Y137498D01*
X50667Y138165D01*
X51334D01*
X52000Y137498D01*
Y136165D01*
X51334Y135499D01*
X52000Y141497D02*
X48001D01*
X50001Y139497D01*
Y142163D01*
X194250Y133500D02*
Y137499D01*
X196249D01*
X196916Y136832D01*
Y135499D01*
X196249Y134833D01*
X194250D01*
X195583D02*
X196916Y133500D01*
X200914Y137499D02*
X199582Y136832D01*
X198249Y135499D01*
Y134166D01*
X198915Y133500D01*
X200248D01*
X200914Y134166D01*
Y134833D01*
X200248Y135499D01*
X198249D01*
X204913Y137499D02*
X203580Y136832D01*
X202247Y135499D01*
Y134166D01*
X202914Y133500D01*
X204247D01*
X204913Y134166D01*
Y134833D01*
X204247Y135499D01*
X202247D01*
X223000Y100250D02*
X219001D01*
Y102249D01*
X219668Y102916D01*
X221001D01*
X221667Y102249D01*
Y100250D01*
Y101583D02*
X223000Y102916D01*
X219001Y104249D02*
Y106915D01*
X219668D01*
X222334Y104249D01*
X223000D01*
X219668Y108247D02*
X219001Y108914D01*
Y110247D01*
X219668Y110913D01*
X222334D01*
X223000Y110247D01*
Y108914D01*
X222334Y108247D01*
X219668D01*
X202000Y243250D02*
Y247249D01*
X203999D01*
X204666Y246582D01*
Y245249D01*
X203999Y244583D01*
X202000D01*
X203333D02*
X204666Y243250D01*
X205999D02*
X207332D01*
X206665D01*
Y247249D01*
X205999Y246582D01*
X209331Y243250D02*
X210664D01*
X209997D01*
Y247249D01*
X209331Y246582D01*
X215329Y247249D02*
X212663D01*
Y245249D01*
X213996Y245916D01*
X214663D01*
X215329Y245249D01*
Y243916D01*
X214663Y243250D01*
X213330D01*
X212663Y243916D01*
X145750Y96750D02*
Y100749D01*
X147749D01*
X148416Y100082D01*
Y98749D01*
X147749Y98083D01*
X145750D01*
X147083D02*
X148416Y96750D01*
X149749D02*
X151082D01*
X150415D01*
Y100749D01*
X149749Y100082D01*
X153081Y96750D02*
X154414D01*
X153747D01*
Y100749D01*
X153081Y100082D01*
X156413D02*
X157080Y100749D01*
X158413D01*
X159079Y100082D01*
Y99416D01*
X158413Y98749D01*
X159079Y98083D01*
Y97416D01*
X158413Y96750D01*
X157080D01*
X156413Y97416D01*
Y98083D01*
X157080Y98749D01*
X156413Y99416D01*
Y100082D01*
X157080Y98749D02*
X158413D01*
X347666Y250332D02*
X346999Y250999D01*
X345666D01*
X345000Y250332D01*
Y247666D01*
X345666Y247000D01*
X346999D01*
X347666Y247666D01*
X351665Y247000D02*
X348999D01*
X351665Y249666D01*
Y250332D01*
X350998Y250999D01*
X349665D01*
X348999Y250332D01*
X352997Y247000D02*
X354330D01*
X353664D01*
Y250999D01*
X352997Y250332D01*
X398416Y53582D02*
X397749Y54249D01*
X396417D01*
X395750Y53582D01*
Y50916D01*
X396417Y50250D01*
X397749D01*
X398416Y50916D01*
X402415Y50250D02*
X399749D01*
X402415Y52916D01*
Y53582D01*
X401748Y54249D01*
X400415D01*
X399749Y53582D01*
X406413Y50250D02*
X403747D01*
X406413Y52916D01*
Y53582D01*
X405747Y54249D01*
X404414D01*
X403747Y53582D01*
X35168Y223666D02*
X34501Y222999D01*
Y221666D01*
X35168Y221000D01*
X37834D01*
X38500Y221666D01*
Y222999D01*
X37834Y223666D01*
X38500Y224999D02*
Y226332D01*
Y225665D01*
X34501D01*
X35168Y224999D01*
X34501Y228331D02*
Y230997D01*
X35168D01*
X37834Y228331D01*
X38500D01*
Y232330D02*
Y233662D01*
Y232996D01*
X34501D01*
X35168Y232330D01*
X61166Y107582D02*
X60499Y108249D01*
X59166D01*
X58500Y107582D01*
Y104916D01*
X59166Y104250D01*
X60499D01*
X61166Y104916D01*
X65164Y104250D02*
X62499D01*
X65164Y106916D01*
Y107582D01*
X64498Y108249D01*
X63165D01*
X62499Y107582D01*
X66497D02*
X67164Y108249D01*
X68497D01*
X69163Y107582D01*
Y104916D01*
X68497Y104250D01*
X67164D01*
X66497Y104916D01*
Y107582D01*
X73162Y108249D02*
X71829Y107582D01*
X70496Y106249D01*
Y104916D01*
X71163Y104250D01*
X72495D01*
X73162Y104916D01*
Y105583D01*
X72495Y106249D01*
X70496D01*
X57916Y230582D02*
X57249Y231249D01*
X55916D01*
X55250Y230582D01*
Y227916D01*
X55916Y227250D01*
X57249D01*
X57916Y227916D01*
X59249Y227250D02*
X60581D01*
X59915D01*
Y231249D01*
X59249Y230582D01*
X65247Y231249D02*
X62581D01*
Y229249D01*
X63914Y229916D01*
X64580D01*
X65247Y229249D01*
Y227916D01*
X64580Y227250D01*
X63247D01*
X62581Y227916D01*
X66580Y230582D02*
X67246Y231249D01*
X68579D01*
X69245Y230582D01*
Y229916D01*
X68579Y229249D01*
X69245Y228583D01*
Y227916D01*
X68579Y227250D01*
X67246D01*
X66580Y227916D01*
Y228583D01*
X67246Y229249D01*
X66580Y229916D01*
Y230582D01*
X67246Y229249D02*
X68579D01*
X60666Y200582D02*
X59999Y201249D01*
X58667D01*
X58000Y200582D01*
Y197916D01*
X58667Y197250D01*
X59999D01*
X60666Y197916D01*
X61999Y197250D02*
X63332D01*
X62665D01*
Y201249D01*
X61999Y200582D01*
X65331Y201249D02*
X67997D01*
Y200582D01*
X65331Y197916D01*
Y197250D01*
X69330Y200582D02*
X69996Y201249D01*
X71329D01*
X71996Y200582D01*
Y197916D01*
X71329Y197250D01*
X69996D01*
X69330Y197916D01*
Y200582D01*
X379000Y83499D02*
X381666D01*
X380333D01*
Y79500D01*
X382999D02*
X384332D01*
X383665D01*
Y83499D01*
X382999Y82832D01*
X386331D02*
X386997Y83499D01*
X388330D01*
X388997Y82832D01*
Y80166D01*
X388330Y79500D01*
X386997D01*
X386331Y80166D01*
Y82832D01*
X424750Y192499D02*
X427416D01*
X426083D01*
Y188500D01*
X430748D02*
Y192499D01*
X428749Y190499D01*
X431414D01*
X206000Y82999D02*
X207333D01*
X206666D01*
Y79000D01*
X206000D01*
X207333D01*
X211998Y82332D02*
X211332Y82999D01*
X209999D01*
X209332Y82332D01*
Y79666D01*
X209999Y79000D01*
X211332D01*
X211998Y79666D01*
X215997Y79000D02*
X213331D01*
X215997Y81666D01*
Y82332D01*
X215330Y82999D01*
X213997D01*
X213331Y82332D01*
X219995Y82999D02*
X218662Y82332D01*
X217330Y80999D01*
Y79666D01*
X217996Y79000D01*
X219329D01*
X219995Y79666D01*
Y80333D01*
X219329Y80999D01*
X217330D01*
X253250Y24749D02*
X254583D01*
X253916D01*
Y20750D01*
X253250D01*
X254583D01*
X259248Y24082D02*
X258582Y24749D01*
X257249D01*
X256582Y24082D01*
Y21416D01*
X257249Y20750D01*
X258582D01*
X259248Y21416D01*
X263247Y20750D02*
X260581D01*
X263247Y23416D01*
Y24082D01*
X262580Y24749D01*
X261247D01*
X260581Y24082D01*
X267245Y20750D02*
X264580D01*
X267245Y23416D01*
Y24082D01*
X266579Y24749D01*
X265246D01*
X264580Y24082D01*
X381166Y69999D02*
X378500D01*
Y66000D01*
X381166D01*
X378500Y67999D02*
X379833D01*
X385164Y69332D02*
X384498Y69999D01*
X383165D01*
X382499Y69332D01*
Y68666D01*
X383165Y67999D01*
X384498D01*
X385164Y67333D01*
Y66666D01*
X384498Y66000D01*
X383165D01*
X382499Y66666D01*
X386497Y69999D02*
Y66000D01*
X388497D01*
X389163Y66666D01*
Y69332D01*
X388497Y69999D01*
X386497D01*
X393162Y66000D02*
X390496D01*
X393162Y68666D01*
Y69332D01*
X392495Y69999D01*
X391162D01*
X390496Y69332D01*
X308666Y59499D02*
X306000D01*
Y55500D01*
X308666D01*
X306000Y57499D02*
X307333D01*
X312665Y58832D02*
X311998Y59499D01*
X310665D01*
X309999Y58832D01*
Y58166D01*
X310665Y57499D01*
X311998D01*
X312665Y56833D01*
Y56166D01*
X311998Y55500D01*
X310665D01*
X309999Y56166D01*
X313997Y59499D02*
Y55500D01*
X315997D01*
X316663Y56166D01*
Y58832D01*
X315997Y59499D01*
X313997D01*
X319995Y55500D02*
Y59499D01*
X317996Y57499D01*
X320662D01*
X421166Y122249D02*
X418500D01*
Y120249D01*
X419833D01*
X418500D01*
Y118250D01*
X422499D02*
Y122249D01*
X424498D01*
X425164Y121582D01*
Y120249D01*
X424498Y119583D01*
X422499D01*
X423832D02*
X425164Y118250D01*
X428497D02*
Y122249D01*
X426497Y120249D01*
X429163D01*
X378666Y241499D02*
X376000D01*
Y237500D01*
X378666D01*
X376000Y239499D02*
X377333D01*
X382664Y240832D02*
X381998Y241499D01*
X380665D01*
X379999Y240832D01*
Y240166D01*
X380665Y239499D01*
X381998D01*
X382664Y238833D01*
Y238167D01*
X381998Y237500D01*
X380665D01*
X379999Y238167D01*
X383997Y241499D02*
Y237500D01*
X385997D01*
X386663Y238167D01*
Y240832D01*
X385997Y241499D01*
X383997D01*
X387996Y240832D02*
X388662Y241499D01*
X389995D01*
X390662Y240832D01*
Y240166D01*
X389995Y239499D01*
X389329D01*
X389995D01*
X390662Y238833D01*
Y238167D01*
X389995Y237500D01*
X388662D01*
X387996Y238167D01*
X325166Y246749D02*
X322500D01*
Y242750D01*
X325166D01*
X322500Y244749D02*
X323833D01*
X329165Y246082D02*
X328498Y246749D01*
X327165D01*
X326499Y246082D01*
Y245416D01*
X327165Y244749D01*
X328498D01*
X329165Y244083D01*
Y243417D01*
X328498Y242750D01*
X327165D01*
X326499Y243417D01*
X330497Y246749D02*
Y242750D01*
X332497D01*
X333163Y243417D01*
Y246082D01*
X332497Y246749D01*
X330497D01*
X334496Y242750D02*
X335829D01*
X335163D01*
Y246749D01*
X334496Y246082D01*
X-16334Y131249D02*
X-19000D01*
Y129249D01*
X-17667D01*
X-19000D01*
Y127250D01*
X-15001D02*
Y131249D01*
X-13002D01*
X-12335Y130582D01*
Y129249D01*
X-13002Y128583D01*
X-15001D01*
X-13668D02*
X-12335Y127250D01*
X-9003D02*
Y131249D01*
X-11003Y129249D01*
X-8337D01*
X-7004Y127250D02*
X-5671D01*
X-6338D01*
Y131249D01*
X-7004Y130582D01*
X-15334Y123082D02*
X-16001Y123749D01*
X-17334D01*
X-18000Y123082D01*
Y120416D01*
X-17334Y119750D01*
X-16001D01*
X-15334Y120416D01*
X-14001Y119750D02*
X-12668D01*
X-13335D01*
Y123749D01*
X-14001Y123082D01*
X-10669Y120416D02*
X-10003Y119750D01*
X-8670D01*
X-8003Y120416D01*
Y123082D01*
X-8670Y123749D01*
X-10003D01*
X-10669Y123082D01*
Y122416D01*
X-10003Y121749D01*
X-8003D01*
X-6670Y119750D02*
X-5337D01*
X-6004D01*
Y123749D01*
X-6670Y123082D01*
X-35750Y39276D02*
Y43275D01*
X-33751D01*
X-33084Y42608D01*
Y41276D01*
X-33751Y40609D01*
X-35750D01*
X-34417D02*
X-33084Y39276D01*
X-31751D02*
X-30418D01*
X-31085D01*
Y43275D01*
X-31751Y42608D01*
X-28419D02*
X-27752Y43275D01*
X-26420D01*
X-25753Y42608D01*
Y39943D01*
X-26420Y39276D01*
X-27752D01*
X-28419Y39943D01*
Y42608D01*
X-21754Y39276D02*
X-24420D01*
X-21754Y41942D01*
Y42608D01*
X-22421Y43275D01*
X-23754D01*
X-24420Y42608D01*
X-35750Y47718D02*
Y51717D01*
X-33751D01*
X-33084Y51050D01*
Y49717D01*
X-33751Y49051D01*
X-35750D01*
X-34417D02*
X-33084Y47718D01*
X-31751D02*
X-30418D01*
X-31085D01*
Y51717D01*
X-31751Y51050D01*
X-28419D02*
X-27752Y51717D01*
X-26420D01*
X-25753Y51050D01*
Y48384D01*
X-26420Y47718D01*
X-27752D01*
X-28419Y48384D01*
Y51050D01*
X-24420Y47718D02*
X-23087D01*
X-23754D01*
Y51717D01*
X-24420Y51050D01*
X-35750Y55276D02*
Y59275D01*
X-33750D01*
X-33084Y58608D01*
Y57276D01*
X-33750Y56609D01*
X-35750D01*
X-34417D02*
X-33084Y55276D01*
X-31751D02*
X-30418D01*
X-31085D01*
Y59275D01*
X-31751Y58608D01*
X-28419D02*
X-27752Y59275D01*
X-26419D01*
X-25753Y58608D01*
Y55943D01*
X-26419Y55276D01*
X-27752D01*
X-28419Y55943D01*
Y58608D01*
X-24420D02*
X-23754Y59275D01*
X-22421D01*
X-21754Y58608D01*
Y55943D01*
X-22421Y55276D01*
X-23754D01*
X-24420Y55943D01*
Y58608D01*
X-35750Y63718D02*
Y67717D01*
X-33750D01*
X-33084Y67050D01*
Y65717D01*
X-33750Y65051D01*
X-35750D01*
X-34417D02*
X-33084Y63718D01*
X-31751Y64384D02*
X-31085Y63718D01*
X-29752D01*
X-29085Y64384D01*
Y67050D01*
X-29752Y67717D01*
X-31085D01*
X-31751Y67050D01*
Y66384D01*
X-31085Y65717D01*
X-29085D01*
X-27752Y67050D02*
X-27086Y67717D01*
X-25753D01*
X-25087Y67050D01*
Y66384D01*
X-25753Y65717D01*
X-25087Y65051D01*
Y64384D01*
X-25753Y63718D01*
X-27086D01*
X-27752Y64384D01*
Y65051D01*
X-27086Y65717D01*
X-27752Y66384D01*
Y67050D01*
X-27086Y65717D02*
X-25753D01*
X-35750Y71276D02*
Y75275D01*
X-33750D01*
X-33084Y74608D01*
Y73276D01*
X-33750Y72609D01*
X-35750D01*
X-34417D02*
X-33084Y71276D01*
X-31751Y71943D02*
X-31085Y71276D01*
X-29752D01*
X-29085Y71943D01*
Y74608D01*
X-29752Y75275D01*
X-31085D01*
X-31751Y74608D01*
Y73942D01*
X-31085Y73276D01*
X-29085D01*
X-27752Y75275D02*
X-25087D01*
Y74608D01*
X-27752Y71943D01*
Y71276D01*
X-35750Y79718D02*
Y83717D01*
X-33750D01*
X-33084Y83050D01*
Y81717D01*
X-33750Y81051D01*
X-35750D01*
X-34417D02*
X-33084Y79718D01*
X-31751Y80385D02*
X-31085Y79718D01*
X-29752D01*
X-29085Y80385D01*
Y83050D01*
X-29752Y83717D01*
X-31085D01*
X-31751Y83050D01*
Y82384D01*
X-31085Y81717D01*
X-29085D01*
X-25087Y83717D02*
X-26419Y83050D01*
X-27752Y81717D01*
Y80385D01*
X-27086Y79718D01*
X-25753D01*
X-25087Y80385D01*
Y81051D01*
X-25753Y81717D01*
X-27752D01*
X-35757Y87497D02*
Y91496D01*
X-33758D01*
X-33091Y90829D01*
Y89496D01*
X-33758Y88830D01*
X-35757D01*
X-34424D02*
X-33091Y87497D01*
X-31758Y88164D02*
X-31092Y87497D01*
X-29759D01*
X-29093Y88164D01*
Y90829D01*
X-29759Y91496D01*
X-31092D01*
X-31758Y90829D01*
Y90163D01*
X-31092Y89496D01*
X-29093D01*
X-25094Y91496D02*
X-27760D01*
Y89496D01*
X-26427Y90163D01*
X-25760D01*
X-25094Y89496D01*
Y88164D01*
X-25760Y87497D01*
X-27093D01*
X-27760Y88164D01*
X214666Y88082D02*
X213999Y88749D01*
X212666D01*
X212000Y88082D01*
Y85416D01*
X212666Y84750D01*
X213999D01*
X214666Y85416D01*
X218664Y84750D02*
X215999D01*
X218664Y87416D01*
Y88082D01*
X217998Y88749D01*
X216665D01*
X215999Y88082D01*
X219997D02*
X220664Y88749D01*
X221997D01*
X222663Y88082D01*
Y85416D01*
X221997Y84750D01*
X220664D01*
X219997Y85416D01*
Y88082D01*
X223996D02*
X224662Y88749D01*
X225996D01*
X226662Y88082D01*
Y87416D01*
X225996Y86749D01*
X226662Y86083D01*
Y85416D01*
X225996Y84750D01*
X224662D01*
X223996Y85416D01*
Y86083D01*
X224662Y86749D01*
X223996Y87416D01*
Y88082D01*
X224662Y86749D02*
X225996D01*
X134463Y50961D02*
X133797Y50294D01*
Y48961D01*
X134463Y48295D01*
X137129D01*
X137795Y48961D01*
Y50294D01*
X137129Y50961D01*
X137795Y54960D02*
Y52294D01*
X135129Y54960D01*
X134463D01*
X133797Y54293D01*
Y52960D01*
X134463Y52294D01*
X137795Y58958D02*
Y56292D01*
X135129Y58958D01*
X134463D01*
X133797Y58292D01*
Y56959D01*
X134463Y56292D01*
Y60291D02*
X133797Y60957D01*
Y62290D01*
X134463Y62957D01*
X135129D01*
X135796Y62290D01*
Y61624D01*
Y62290D01*
X136462Y62957D01*
X137129D01*
X137795Y62290D01*
Y60957D01*
X137129Y60291D01*
X220168Y196166D02*
X219501Y195499D01*
Y194166D01*
X220168Y193500D01*
X222834D01*
X223500Y194166D01*
Y195499D01*
X222834Y196166D01*
X223500Y200165D02*
Y197499D01*
X220834Y200165D01*
X220168D01*
X219501Y199498D01*
Y198165D01*
X220168Y197499D01*
X223500Y201497D02*
Y202830D01*
Y202164D01*
X219501D01*
X220168Y201497D01*
X223500Y206829D02*
X219501D01*
X221501Y204830D01*
Y207495D01*
X151416Y120249D02*
X148750D01*
Y118249D01*
X150083D01*
X148750D01*
Y116250D01*
X152749D02*
Y120249D01*
X154748D01*
X155414Y119582D01*
Y118249D01*
X154748Y117583D01*
X152749D01*
X154082D02*
X155414Y116250D01*
X159413Y120249D02*
X156747D01*
Y118249D01*
X158080Y118916D01*
X158747D01*
X159413Y118249D01*
Y116917D01*
X158747Y116250D01*
X157414D01*
X156747Y116917D01*
X160746Y119582D02*
X161413Y120249D01*
X162745D01*
X163412Y119582D01*
Y116917D01*
X162745Y116250D01*
X161413D01*
X160746Y116917D01*
Y119582D01*
X158251Y215916D02*
Y213250D01*
X160251D01*
Y214583D01*
Y213250D01*
X162250D01*
Y217249D02*
X158251D01*
Y219248D01*
X158918Y219914D01*
X160251D01*
X160917Y219248D01*
Y217249D01*
Y218582D02*
X162250Y219914D01*
Y223247D02*
X158251D01*
X160251Y221247D01*
Y223913D01*
X161583Y225246D02*
X162250Y225912D01*
Y227245D01*
X161583Y227912D01*
X158918D01*
X158251Y227245D01*
Y225912D01*
X158918Y225246D01*
X159584D01*
X160251Y225912D01*
Y227912D01*
X434000Y160500D02*
Y164499D01*
X435999D01*
X436666Y163832D01*
Y162499D01*
X435999Y161833D01*
X434000D01*
X435333D02*
X436666Y160500D01*
X437999D02*
X439332D01*
X438665D01*
Y164499D01*
X437999Y163832D01*
X441331Y164499D02*
X443997D01*
Y163832D01*
X441331Y161166D01*
Y160500D01*
X443500Y70250D02*
Y74249D01*
X445499D01*
X446166Y73582D01*
Y72249D01*
X445499Y71583D01*
X443500D01*
X444833D02*
X446166Y70250D01*
X450164D02*
X447499D01*
X450164Y72916D01*
Y73582D01*
X449498Y74249D01*
X448165D01*
X447499Y73582D01*
X451497D02*
X452164Y74249D01*
X453497D01*
X454163Y73582D01*
Y70916D01*
X453497Y70250D01*
X452164D01*
X451497Y70916D01*
Y73582D01*
X152416Y68332D02*
X151749Y68999D01*
X150416D01*
X149750Y68332D01*
Y65666D01*
X150416Y65000D01*
X151749D01*
X152416Y65666D01*
X156414Y65000D02*
X153749D01*
X156414Y67666D01*
Y68332D01*
X155748Y68999D01*
X154415D01*
X153749Y68332D01*
X160413Y65000D02*
X157747D01*
X160413Y67666D01*
Y68332D01*
X159747Y68999D01*
X158414D01*
X157747Y68332D01*
X161746Y65000D02*
X163079D01*
X162412D01*
Y68999D01*
X161746Y68332D01*
X151666Y111082D02*
X150999Y111749D01*
X149667D01*
X149000Y111082D01*
Y108416D01*
X149667Y107750D01*
X150999D01*
X151666Y108416D01*
X155665Y107750D02*
X152999D01*
X155665Y110416D01*
Y111082D01*
X154998Y111749D01*
X153665D01*
X152999Y111082D01*
X159663Y107750D02*
X156997D01*
X159663Y110416D01*
Y111082D01*
X158997Y111749D01*
X157664D01*
X156997Y111082D01*
X160996D02*
X161663Y111749D01*
X162995D01*
X163662Y111082D01*
Y108416D01*
X162995Y107750D01*
X161663D01*
X160996Y108416D01*
Y111082D01*
X223418Y215916D02*
X222751Y215249D01*
Y213916D01*
X223418Y213250D01*
X226084D01*
X226750Y213916D01*
Y215249D01*
X226084Y215916D01*
X226750Y219914D02*
Y217249D01*
X224084Y219914D01*
X223418D01*
X222751Y219248D01*
Y217915D01*
X223418Y217249D01*
X226750Y221247D02*
Y222580D01*
Y221914D01*
X222751D01*
X223418Y221247D01*
Y224580D02*
X222751Y225246D01*
Y226579D01*
X223418Y227245D01*
X226084D01*
X226750Y226579D01*
Y225246D01*
X226084Y224580D01*
X223418D01*
X170168Y214916D02*
X169501Y214249D01*
Y212916D01*
X170168Y212250D01*
X172834D01*
X173500Y212916D01*
Y214249D01*
X172834Y214916D01*
X173500Y218915D02*
Y216249D01*
X170834Y218915D01*
X170168D01*
X169501Y218248D01*
Y216915D01*
X170168Y216249D01*
Y220247D02*
X169501Y220914D01*
Y222247D01*
X170168Y222913D01*
X172834D01*
X173500Y222247D01*
Y220914D01*
X172834Y220247D01*
X170168D01*
X172834Y224246D02*
X173500Y224912D01*
Y226245D01*
X172834Y226912D01*
X170168D01*
X169501Y226245D01*
Y224912D01*
X170168Y224246D01*
X170834D01*
X171501Y224912D01*
Y226912D01*
X422750Y82999D02*
X424083D01*
X423416D01*
Y79000D01*
X422750D01*
X424083D01*
X428748Y82332D02*
X428082Y82999D01*
X426749D01*
X426082Y82332D01*
Y79666D01*
X426749Y79000D01*
X428082D01*
X428748Y79666D01*
X430081Y82332D02*
X430747Y82999D01*
X432080D01*
X432747Y82332D01*
Y81666D01*
X432080Y80999D01*
X431414D01*
X432080D01*
X432747Y80333D01*
Y79666D01*
X432080Y79000D01*
X430747D01*
X430081Y79666D01*
X452751Y104416D02*
Y101750D01*
X454751D01*
Y103083D01*
Y101750D01*
X456750D01*
Y105749D02*
X452751D01*
Y107748D01*
X453418Y108414D01*
X454751D01*
X455417Y107748D01*
Y105749D01*
Y107081D02*
X456750Y108414D01*
X453418Y109747D02*
X452751Y110414D01*
Y111747D01*
X453418Y112413D01*
X454084D01*
X454751Y111747D01*
Y111080D01*
Y111747D01*
X455417Y112413D01*
X456083D01*
X456750Y111747D01*
Y110414D01*
X456083Y109747D01*
X451168Y91666D02*
X450501Y90999D01*
Y89666D01*
X451168Y89000D01*
X453834D01*
X454500Y89666D01*
Y90999D01*
X453834Y91666D01*
X451168Y92999D02*
X450501Y93665D01*
Y94998D01*
X451168Y95665D01*
X451834D01*
X452501Y94998D01*
Y94332D01*
Y94998D01*
X453167Y95665D01*
X453834D01*
X454500Y94998D01*
Y93665D01*
X453834Y92999D01*
X451168Y96997D02*
X450501Y97664D01*
Y98997D01*
X451168Y99663D01*
X451834D01*
X452501Y98997D01*
Y98330D01*
Y98997D01*
X453167Y99663D01*
X453834D01*
X454500Y98997D01*
Y97664D01*
X453834Y96997D01*
X434416Y113582D02*
X433749Y114249D01*
X432416D01*
X431750Y113582D01*
Y110916D01*
X432416Y110250D01*
X433749D01*
X434416Y110916D01*
X435749Y113582D02*
X436415Y114249D01*
X437748D01*
X438414Y113582D01*
Y112916D01*
X437748Y112249D01*
X437082D01*
X437748D01*
X438414Y111583D01*
Y110916D01*
X437748Y110250D01*
X436415D01*
X435749Y110916D01*
X439747Y113582D02*
X440414Y114249D01*
X441747D01*
X442413Y113582D01*
Y110916D01*
X441747Y110250D01*
X440414D01*
X439747Y110916D01*
Y113582D01*
X421916Y98332D02*
X421249Y98999D01*
X419916D01*
X419250Y98332D01*
Y95666D01*
X419916Y95000D01*
X421249D01*
X421916Y95666D01*
X425914Y95000D02*
X423249D01*
X425914Y97666D01*
Y98332D01*
X425248Y98999D01*
X423915D01*
X423249Y98332D01*
X427247Y95666D02*
X427914Y95000D01*
X429247D01*
X429913Y95666D01*
Y98332D01*
X429247Y98999D01*
X427914D01*
X427247Y98332D01*
Y97666D01*
X427914Y96999D01*
X429913D01*
X409000Y177249D02*
X411666D01*
X410333D01*
Y173250D01*
X412999Y177249D02*
X415664D01*
Y176582D01*
X412999Y173916D01*
Y173250D01*
X376750Y203000D02*
Y206999D01*
X378083Y205666D01*
X379416Y206999D01*
Y203000D01*
X380749D02*
Y206999D01*
X383414Y203000D01*
Y206999D01*
X387413Y203000D02*
X384747D01*
X387413Y205666D01*
Y206332D01*
X386747Y206999D01*
X385414D01*
X384747Y206332D01*
X388746Y203000D02*
X390079D01*
X389412D01*
Y206999D01*
X388746Y206332D01*
X359500Y183000D02*
X355501D01*
X356834Y184333D01*
X355501Y185666D01*
X359500D01*
Y186999D02*
X355501D01*
X359500Y189664D01*
X355501D01*
X359500Y190997D02*
Y192330D01*
Y191664D01*
X355501D01*
X356168Y190997D01*
X355501Y194330D02*
Y196995D01*
X356168D01*
X358834Y194330D01*
X359500D01*
X357500Y203500D02*
X353501D01*
X354834Y204833D01*
X353501Y206166D01*
X357500D01*
Y207499D02*
X353501D01*
X357500Y210165D01*
X353501D01*
X357500Y211497D02*
Y212830D01*
Y212164D01*
X353501D01*
X354168Y211497D01*
Y214830D02*
X353501Y215496D01*
Y216829D01*
X354168Y217495D01*
X354834D01*
X355501Y216829D01*
X356167Y217495D01*
X356834D01*
X357500Y216829D01*
Y215496D01*
X356834Y214830D01*
X356167D01*
X355501Y215496D01*
X354834Y214830D01*
X354168D01*
X355501Y215496D02*
Y216829D01*
X422500Y147749D02*
X425166D01*
X423833D01*
Y143750D01*
X426499Y144416D02*
X427165Y143750D01*
X428498D01*
X429165Y144416D01*
Y147082D01*
X428498Y147749D01*
X427165D01*
X426499Y147082D01*
Y146416D01*
X427165Y145749D01*
X429165D01*
X365250Y129500D02*
X361251D01*
X362584Y130833D01*
X361251Y132166D01*
X365250D01*
Y133499D02*
X361251D01*
X365250Y136165D01*
X361251D01*
Y140163D02*
Y137497D01*
X363251D01*
X362584Y138830D01*
Y139497D01*
X363251Y140163D01*
X364584D01*
X365250Y139497D01*
Y138164D01*
X364584Y137497D01*
X361918Y141496D02*
X361251Y142163D01*
Y143495D01*
X361918Y144162D01*
X364584D01*
X365250Y143495D01*
Y142163D01*
X364584Y141496D01*
X361918D01*
X396500Y129500D02*
X392501D01*
X393834Y130833D01*
X392501Y132166D01*
X396500D01*
Y133499D02*
X392501D01*
X396500Y136165D01*
X392501D01*
X396500Y139497D02*
X392501D01*
X394501Y137497D01*
Y140163D01*
X393168Y141496D02*
X392501Y142163D01*
Y143495D01*
X393168Y144162D01*
X393834D01*
X394501Y143495D01*
X395167Y144162D01*
X395834D01*
X396500Y143495D01*
Y142163D01*
X395834Y141496D01*
X395167D01*
X394501Y142163D01*
X393834Y141496D01*
X393168D01*
X394501Y142163D02*
Y143495D01*
X372000Y120250D02*
Y124249D01*
X373333Y122916D01*
X374666Y124249D01*
Y120250D01*
X375999D02*
Y124249D01*
X378665Y120250D01*
Y124249D01*
X382663D02*
X379997D01*
Y122249D01*
X381330Y122916D01*
X381997D01*
X382663Y122249D01*
Y120916D01*
X381997Y120250D01*
X380664D01*
X379997Y120916D01*
X386662Y120250D02*
X383996D01*
X386662Y122916D01*
Y123582D01*
X385995Y124249D01*
X384663D01*
X383996Y123582D01*
X372000Y114750D02*
Y118749D01*
X373333Y117416D01*
X374666Y118749D01*
Y114750D01*
X375999D02*
Y118749D01*
X378665Y114750D01*
Y118749D01*
X381997Y114750D02*
Y118749D01*
X379997Y116749D01*
X382663D01*
X386662Y118749D02*
X385329Y118082D01*
X383996Y116749D01*
Y115416D01*
X384663Y114750D01*
X385995D01*
X386662Y115416D01*
Y116083D01*
X385995Y116749D01*
X383996D01*
X114916Y12082D02*
X114249Y12749D01*
X112916D01*
X112250Y12082D01*
Y9416D01*
X112916Y8750D01*
X114249D01*
X114916Y9416D01*
X118914Y8750D02*
X116249D01*
X118914Y11416D01*
Y12082D01*
X118248Y12749D01*
X116915D01*
X116249Y12082D01*
X120247Y8750D02*
X121580D01*
X120914D01*
Y12749D01*
X120247Y12082D01*
X123580Y8750D02*
X124913D01*
X124246D01*
Y12749D01*
X123580Y12082D01*
X150166Y58582D02*
X149499Y59249D01*
X148167D01*
X147500Y58582D01*
Y55916D01*
X148167Y55250D01*
X149499D01*
X150166Y55916D01*
X154164Y55250D02*
X151499D01*
X154164Y57916D01*
Y58582D01*
X153498Y59249D01*
X152165D01*
X151499Y58582D01*
X155497Y55250D02*
X156830D01*
X156164D01*
Y59249D01*
X155497Y58582D01*
X161495Y59249D02*
X158830D01*
Y57249D01*
X160163Y57916D01*
X160829D01*
X161495Y57249D01*
Y55916D01*
X160829Y55250D01*
X159496D01*
X158830Y55916D01*
X114666Y58582D02*
X113999Y59249D01*
X112666D01*
X112000Y58582D01*
Y55916D01*
X112666Y55250D01*
X113999D01*
X114666Y55916D01*
X118665Y55250D02*
X115999D01*
X118665Y57916D01*
Y58582D01*
X117998Y59249D01*
X116665D01*
X115999Y58582D01*
X119997Y55250D02*
X121330D01*
X120664D01*
Y59249D01*
X119997Y58582D01*
X123330D02*
X123996Y59249D01*
X125329D01*
X125996Y58582D01*
Y57916D01*
X125329Y57249D01*
X124663D01*
X125329D01*
X125996Y56583D01*
Y55916D01*
X125329Y55250D01*
X123996D01*
X123330Y55916D01*
X165800Y29000D02*
Y32999D01*
X167799D01*
X168466Y32332D01*
Y30999D01*
X167799Y30333D01*
X165800D01*
X167133D02*
X168466Y29000D01*
X169799D02*
X171132D01*
X170465D01*
Y32999D01*
X169799Y32332D01*
X175797Y29000D02*
X173131D01*
X175797Y31666D01*
Y32332D01*
X175130Y32999D01*
X173797D01*
X173131Y32332D01*
X177130D02*
X177796Y32999D01*
X179129D01*
X179795Y32332D01*
Y29666D01*
X179129Y29000D01*
X177796D01*
X177130Y29666D01*
Y32332D01*
X163750Y21250D02*
Y25249D01*
X165749D01*
X166416Y24582D01*
Y23249D01*
X165749Y22583D01*
X163750D01*
X165083D02*
X166416Y21250D01*
X167749D02*
X169082D01*
X168415D01*
Y25249D01*
X167749Y24582D01*
X173747Y21250D02*
X171081D01*
X173747Y23916D01*
Y24582D01*
X173080Y25249D01*
X171747D01*
X171081Y24582D01*
X175080Y21250D02*
X176413D01*
X175746D01*
Y25249D01*
X175080Y24582D01*
X165800Y35750D02*
Y39749D01*
X167799D01*
X168466Y39082D01*
Y37749D01*
X167799Y37083D01*
X165800D01*
X167133D02*
X168466Y35750D01*
X169799D02*
X171132D01*
X170465D01*
Y39749D01*
X169799Y39082D01*
X173131Y35750D02*
X174464D01*
X173797D01*
Y39749D01*
X173131Y39082D01*
X176463Y36416D02*
X177130Y35750D01*
X178463D01*
X179129Y36416D01*
Y39082D01*
X178463Y39749D01*
X177130D01*
X176463Y39082D01*
Y38416D01*
X177130Y37749D01*
X179129D01*
X149916Y12082D02*
X149249Y12749D01*
X147916D01*
X147250Y12082D01*
Y9416D01*
X147916Y8750D01*
X149249D01*
X149916Y9416D01*
X153914Y8750D02*
X151249D01*
X153914Y11416D01*
Y12082D01*
X153248Y12749D01*
X151915D01*
X151249Y12082D01*
X155247Y8750D02*
X156580D01*
X155914D01*
Y12749D01*
X155247Y12082D01*
X158580Y12749D02*
X161245D01*
Y12082D01*
X158580Y9416D01*
Y8750D01*
X285418Y227666D02*
X284751Y226999D01*
Y225667D01*
X285418Y225000D01*
X288083D01*
X288750Y225667D01*
Y226999D01*
X288083Y227666D01*
X285418Y228999D02*
X284751Y229665D01*
Y230998D01*
X285418Y231665D01*
X286084D01*
X286751Y230998D01*
Y230332D01*
Y230998D01*
X287417Y231665D01*
X288083D01*
X288750Y230998D01*
Y229665D01*
X288083Y228999D01*
X285418Y232997D02*
X284751Y233664D01*
Y234997D01*
X285418Y235663D01*
X286084D01*
X286751Y234997D01*
X287417Y235663D01*
X288083D01*
X288750Y234997D01*
Y233664D01*
X288083Y232997D01*
X287417D01*
X286751Y233664D01*
X286084Y232997D01*
X285418D01*
X286751Y233664D02*
Y234997D01*
X285918Y114916D02*
X285251Y114249D01*
Y112916D01*
X285918Y112250D01*
X288584D01*
X289250Y112916D01*
Y114249D01*
X288584Y114916D01*
X289250Y118248D02*
X285251D01*
X287251Y116249D01*
Y118914D01*
X289250Y120247D02*
Y121580D01*
Y120914D01*
X285251D01*
X285918Y120247D01*
X277501Y125666D02*
Y123000D01*
X279501D01*
Y124333D01*
Y123000D01*
X281500D01*
Y126999D02*
X277501D01*
Y128998D01*
X278168Y129664D01*
X279501D01*
X280167Y128998D01*
Y126999D01*
Y128332D02*
X281500Y129664D01*
X277501Y133663D02*
Y130997D01*
X279501D01*
X278834Y132330D01*
Y132997D01*
X279501Y133663D01*
X280834D01*
X281500Y132997D01*
Y131664D01*
X280834Y130997D01*
X313250Y76250D02*
X309251D01*
X310584Y77583D01*
X309251Y78916D01*
X313250D01*
Y80249D02*
X309251D01*
X313250Y82914D01*
X309251D01*
X313250Y86247D02*
X309251D01*
X311251Y84247D01*
Y86913D01*
X312584Y88246D02*
X313250Y88912D01*
Y90246D01*
X312584Y90912D01*
X309918D01*
X309251Y90246D01*
Y88912D01*
X309918Y88246D01*
X310584D01*
X311251Y88912D01*
Y90912D01*
X330750Y97000D02*
Y100999D01*
X332083Y99666D01*
X333416Y100999D01*
Y97000D01*
X334749D02*
Y100999D01*
X337415Y97000D01*
Y100999D01*
X340747Y97000D02*
Y100999D01*
X338747Y98999D01*
X341413D01*
X345412Y100999D02*
X342746D01*
Y98999D01*
X344079Y99666D01*
X344745D01*
X345412Y98999D01*
Y97667D01*
X344745Y97000D01*
X343413D01*
X342746Y97667D01*
X330500Y67750D02*
Y71749D01*
X331833Y70416D01*
X333166Y71749D01*
Y67750D01*
X334499D02*
Y71749D01*
X337164Y67750D01*
Y71749D01*
X341163D02*
X338497D01*
Y69749D01*
X339830Y70416D01*
X340497D01*
X341163Y69749D01*
Y68416D01*
X340497Y67750D01*
X339164D01*
X338497Y68416D01*
X342496Y67750D02*
X343829D01*
X343162D01*
Y71749D01*
X342496Y71082D01*
X365000Y77750D02*
X361001D01*
X362334Y79083D01*
X361001Y80416D01*
X365000D01*
Y81749D02*
X361001D01*
X365000Y84415D01*
X361001D01*
X365000Y87747D02*
X361001D01*
X363001Y85747D01*
Y88413D01*
X361001Y89746D02*
Y92412D01*
X361668D01*
X364334Y89746D01*
X365000D01*
X366500Y153750D02*
X362501D01*
X363834Y155083D01*
X362501Y156416D01*
X366500D01*
Y157749D02*
X362501D01*
X366500Y160415D01*
X362501D01*
X366500Y163747D02*
X362501D01*
X364501Y161747D01*
Y164413D01*
X366500Y165746D02*
Y167079D01*
Y166413D01*
X362501D01*
X363168Y165746D01*
X397500Y154500D02*
X393501D01*
X394834Y155833D01*
X393501Y157166D01*
X397500D01*
Y158499D02*
X393501D01*
X397500Y161164D01*
X393501D01*
X394168Y162497D02*
X393501Y163164D01*
Y164497D01*
X394168Y165163D01*
X394834D01*
X395501Y164497D01*
Y163830D01*
Y164497D01*
X396167Y165163D01*
X396833D01*
X397500Y164497D01*
Y163164D01*
X396833Y162497D01*
Y166496D02*
X397500Y167162D01*
Y168495D01*
X396833Y169162D01*
X394168D01*
X393501Y168495D01*
Y167162D01*
X394168Y166496D01*
X394834D01*
X395501Y167162D01*
Y169162D01*
X238666Y53082D02*
X237999Y53749D01*
X236667D01*
X236000Y53082D01*
Y50416D01*
X236667Y49750D01*
X237999D01*
X238666Y50416D01*
X242665Y49750D02*
X239999D01*
X242665Y52416D01*
Y53082D01*
X241998Y53749D01*
X240665D01*
X239999Y53082D01*
X243997D02*
X244664Y53749D01*
X245997D01*
X246663Y53082D01*
Y52416D01*
X245997Y51749D01*
X245330D01*
X245997D01*
X246663Y51083D01*
Y50416D01*
X245997Y49750D01*
X244664D01*
X243997Y50416D01*
X250662Y49750D02*
X247996D01*
X250662Y52416D01*
Y53082D01*
X249995Y53749D01*
X248662D01*
X247996Y53082D01*
X42251Y41166D02*
Y38500D01*
X44251D01*
Y39833D01*
Y38500D01*
X46250D01*
Y42499D02*
X42251D01*
Y44498D01*
X42918Y45164D01*
X44251D01*
X44917Y44498D01*
Y42499D01*
Y43832D02*
X46250Y45164D01*
Y48497D02*
X42251D01*
X44251Y46497D01*
Y49163D01*
X42918Y50496D02*
X42251Y51163D01*
Y52495D01*
X42918Y53162D01*
X45584D01*
X46250Y52495D01*
Y51163D01*
X45584Y50496D01*
X42918D01*
X216750Y16750D02*
Y20749D01*
X218749D01*
X219416Y20082D01*
Y18749D01*
X218749Y18083D01*
X216750D01*
X218083D02*
X219416Y16750D01*
X220749D02*
X222082D01*
X221415D01*
Y20749D01*
X220749Y20082D01*
X224081Y16750D02*
X225414D01*
X224747D01*
Y20749D01*
X224081Y20082D01*
X227413D02*
X228080Y20749D01*
X229413D01*
X230079Y20082D01*
Y17416D01*
X229413Y16750D01*
X228080D01*
X227413Y17416D01*
Y20082D01*
X229500Y42000D02*
Y45999D01*
X231499D01*
X232166Y45332D01*
Y43999D01*
X231499Y43333D01*
X229500D01*
X230833D02*
X232166Y42000D01*
X233499D02*
X234832D01*
X234165D01*
Y45999D01*
X233499Y45332D01*
X236831D02*
X237497Y45999D01*
X238830D01*
X239497Y45332D01*
Y42666D01*
X238830Y42000D01*
X237497D01*
X236831Y42666D01*
Y45332D01*
X240830Y42666D02*
X241496Y42000D01*
X242829D01*
X243495Y42666D01*
Y45332D01*
X242829Y45999D01*
X241496D01*
X240830Y45332D01*
Y44666D01*
X241496Y43999D01*
X243495D01*
X217250Y24000D02*
Y27999D01*
X219249D01*
X219916Y27332D01*
Y25999D01*
X219249Y25333D01*
X217250D01*
X218583D02*
X219916Y24000D01*
X221249D02*
X222582D01*
X221915D01*
Y27999D01*
X221249Y27332D01*
X224581Y24000D02*
X225914D01*
X225247D01*
Y27999D01*
X224581Y27332D01*
X227913Y24000D02*
X229246D01*
X228580D01*
Y27999D01*
X227913Y27332D01*
X272416Y11832D02*
X271749Y12499D01*
X270417D01*
X269750Y11832D01*
Y9166D01*
X270417Y8500D01*
X271749D01*
X272416Y9166D01*
X273749Y8500D02*
X275082D01*
X274415D01*
Y12499D01*
X273749Y11832D01*
X277081Y12499D02*
X279747D01*
Y11832D01*
X277081Y9166D01*
Y8500D01*
X281080Y12499D02*
X283745D01*
Y11832D01*
X281080Y9166D01*
Y8500D01*
X271666Y53082D02*
X270999Y53749D01*
X269666D01*
X269000Y53082D01*
Y50416D01*
X269666Y49750D01*
X270999D01*
X271666Y50416D01*
X275665Y49750D02*
X272999D01*
X275665Y52416D01*
Y53082D01*
X274998Y53749D01*
X273665D01*
X272999Y53082D01*
X279663Y49750D02*
X276997D01*
X279663Y52416D01*
Y53082D01*
X278997Y53749D01*
X277664D01*
X276997Y53082D01*
X283662Y53749D02*
X282329Y53082D01*
X280996Y51749D01*
Y50416D01*
X281663Y49750D01*
X282995D01*
X283662Y50416D01*
Y51083D01*
X282995Y51749D01*
X280996D01*
X238916Y5832D02*
X238249Y6499D01*
X236916D01*
X236250Y5832D01*
Y3166D01*
X236916Y2500D01*
X238249D01*
X238916Y3166D01*
X242915Y2500D02*
X240249D01*
X242915Y5166D01*
Y5832D01*
X242248Y6499D01*
X240915D01*
X240249Y5832D01*
X246913Y2500D02*
X244247D01*
X246913Y5166D01*
Y5832D01*
X246247Y6499D01*
X244914D01*
X244247Y5832D01*
X248246Y3166D02*
X248913Y2500D01*
X250245D01*
X250912Y3166D01*
Y5832D01*
X250245Y6499D01*
X248913D01*
X248246Y5832D01*
Y5166D01*
X248913Y4499D01*
X250912D01*
X26418Y40666D02*
X25751Y39999D01*
Y38666D01*
X26418Y38000D01*
X29084D01*
X29750Y38666D01*
Y39999D01*
X29084Y40666D01*
X29750Y41999D02*
Y43332D01*
Y42665D01*
X25751D01*
X26418Y41999D01*
Y45331D02*
X25751Y45997D01*
Y47330D01*
X26418Y47997D01*
X27084D01*
X27751Y47330D01*
X28417Y47997D01*
X29084D01*
X29750Y47330D01*
Y45997D01*
X29084Y45331D01*
X28417D01*
X27751Y45997D01*
X27084Y45331D01*
X26418D01*
X27751Y45997D02*
Y47330D01*
X25751Y51996D02*
X26418Y50662D01*
X27751Y49330D01*
X29084D01*
X29750Y49996D01*
Y51329D01*
X29084Y51996D01*
X28417D01*
X27751Y51329D01*
Y49330D01*
X-17000Y253750D02*
Y257749D01*
X-15001D01*
X-14334Y257082D01*
Y255749D01*
X-15001Y255083D01*
X-17000D01*
X-15667D02*
X-14334Y253750D01*
X-13001Y257749D02*
X-10336D01*
Y257082D01*
X-13001Y254416D01*
Y253750D01*
X-6337D02*
X-9003D01*
X-6337Y256416D01*
Y257082D01*
X-7003Y257749D01*
X-8336D01*
X-9003Y257082D01*
X-17500Y234000D02*
Y237999D01*
X-15501D01*
X-14834Y237332D01*
Y235999D01*
X-15501Y235333D01*
X-17500D01*
X-16167D02*
X-14834Y234000D01*
X-13501Y237332D02*
X-12835Y237999D01*
X-11502D01*
X-10835Y237332D01*
Y236666D01*
X-11502Y235999D01*
X-10835Y235333D01*
Y234666D01*
X-11502Y234000D01*
X-12835D01*
X-13501Y234666D01*
Y235333D01*
X-12835Y235999D01*
X-13501Y236666D01*
Y237332D01*
X-12835Y235999D02*
X-11502D01*
X-9503Y237332D02*
X-8836Y237999D01*
X-7503D01*
X-6837Y237332D01*
Y234666D01*
X-7503Y234000D01*
X-8836D01*
X-9503Y234666D01*
Y237332D01*
X68000Y130250D02*
Y134249D01*
X69999D01*
X70666Y133582D01*
Y132249D01*
X69999Y131583D01*
X68000D01*
X69333D02*
X70666Y130250D01*
X73998D02*
Y134249D01*
X71999Y132249D01*
X74665D01*
X75997Y133582D02*
X76664Y134249D01*
X77997D01*
X78663Y133582D01*
Y130917D01*
X77997Y130250D01*
X76664D01*
X75997Y130917D01*
Y133582D01*
X105250Y182750D02*
Y186749D01*
X107249D01*
X107916Y186082D01*
Y184749D01*
X107249Y184083D01*
X105250D01*
X106583D02*
X107916Y182750D01*
X109249Y186082D02*
X109915Y186749D01*
X111248D01*
X111915Y186082D01*
Y185416D01*
X111248Y184749D01*
X110582D01*
X111248D01*
X111915Y184083D01*
Y183416D01*
X111248Y182750D01*
X109915D01*
X109249Y183416D01*
X113247Y186082D02*
X113914Y186749D01*
X115247D01*
X115913Y186082D01*
Y185416D01*
X115247Y184749D01*
X115913Y184083D01*
Y183416D01*
X115247Y182750D01*
X113914D01*
X113247Y183416D01*
Y184083D01*
X113914Y184749D01*
X113247Y185416D01*
Y186082D01*
X113914Y184749D02*
X115247D01*
X44750Y128000D02*
X40751D01*
Y129999D01*
X41418Y130666D01*
X42751D01*
X43417Y129999D01*
Y128000D01*
Y129333D02*
X44750Y130666D01*
X41418Y131999D02*
X40751Y132665D01*
Y133998D01*
X41418Y134664D01*
X42084D01*
X42751Y133998D01*
Y133332D01*
Y133998D01*
X43417Y134664D01*
X44084D01*
X44750Y133998D01*
Y132665D01*
X44084Y131999D01*
Y135997D02*
X44750Y136664D01*
Y137997D01*
X44084Y138663D01*
X41418D01*
X40751Y137997D01*
Y136664D01*
X41418Y135997D01*
X42084D01*
X42751Y136664D01*
Y138663D01*
X-14584Y147832D02*
X-15251Y148499D01*
X-16584D01*
X-17250Y147832D01*
Y145166D01*
X-16584Y144500D01*
X-15251D01*
X-14584Y145166D01*
X-13251Y144500D02*
X-11918D01*
X-12585D01*
Y148499D01*
X-13251Y147832D01*
X-9919D02*
X-9253Y148499D01*
X-7920D01*
X-7253Y147832D01*
Y145166D01*
X-7920Y144500D01*
X-9253D01*
X-9919Y145166D01*
Y147832D01*
X-3921Y144500D02*
Y148499D01*
X-5920Y146499D01*
X-3255D01*
X-14584Y139832D02*
X-15251Y140499D01*
X-16583D01*
X-17250Y139832D01*
Y137167D01*
X-16583Y136500D01*
X-15251D01*
X-14584Y137167D01*
X-13251Y136500D02*
X-11918D01*
X-12585D01*
Y140499D01*
X-13251Y139832D01*
X-9919D02*
X-9253Y140499D01*
X-7920D01*
X-7253Y139832D01*
Y137167D01*
X-7920Y136500D01*
X-9253D01*
X-9919Y137167D01*
Y139832D01*
X-3255Y136500D02*
X-5920D01*
X-3255Y139166D01*
Y139832D01*
X-3921Y140499D01*
X-5254D01*
X-5920Y139832D01*
X-16834Y83832D02*
X-17501Y84499D01*
X-18834D01*
X-19500Y83832D01*
Y81166D01*
X-18834Y80500D01*
X-17501D01*
X-16834Y81166D01*
X-15501Y80500D02*
X-14168D01*
X-14835D01*
Y84499D01*
X-15501Y83832D01*
X-12169D02*
X-11503Y84499D01*
X-10170D01*
X-9503Y83832D01*
Y81166D01*
X-10170Y80500D01*
X-11503D01*
X-12169Y81166D01*
Y83832D01*
X-8170D02*
X-7504Y84499D01*
X-6171D01*
X-5505Y83832D01*
Y81166D01*
X-6171Y80500D01*
X-7504D01*
X-8170Y81166D01*
Y83832D01*
X-16334Y75582D02*
X-17001Y76249D01*
X-18333D01*
X-19000Y75582D01*
Y72916D01*
X-18333Y72250D01*
X-17001D01*
X-16334Y72916D01*
X-15001D02*
X-14335Y72250D01*
X-13002D01*
X-12335Y72916D01*
Y75582D01*
X-13002Y76249D01*
X-14335D01*
X-15001Y75582D01*
Y74916D01*
X-14335Y74249D01*
X-12335D01*
X-11003Y75582D02*
X-10336Y76249D01*
X-9003D01*
X-8337Y75582D01*
Y74916D01*
X-9003Y74249D01*
X-8337Y73583D01*
Y72916D01*
X-9003Y72250D01*
X-10336D01*
X-11003Y72916D01*
Y73583D01*
X-10336Y74249D01*
X-11003Y74916D01*
Y75582D01*
X-10336Y74249D02*
X-9003D01*
X-15334Y115800D02*
X-16000Y116467D01*
X-17333D01*
X-18000Y115800D01*
Y113134D01*
X-17333Y112468D01*
X-16000D01*
X-15334Y113134D01*
X-14001Y112468D02*
X-12668D01*
X-13335D01*
Y116467D01*
X-14001Y115800D01*
X-10669D02*
X-10002Y116467D01*
X-8669D01*
X-8003Y115800D01*
Y113134D01*
X-8669Y112468D01*
X-10002D01*
X-10669Y113134D01*
Y115800D01*
X-6670D02*
X-6004Y116467D01*
X-4671D01*
X-4004Y115800D01*
Y115134D01*
X-4671Y114467D01*
X-5337D01*
X-4671D01*
X-4004Y113801D01*
Y113134D01*
X-4671Y112468D01*
X-6004D01*
X-6670Y113134D01*
X-15334Y107359D02*
X-16000Y108025D01*
X-17333D01*
X-18000Y107359D01*
Y104693D01*
X-17333Y104026D01*
X-16000D01*
X-15334Y104693D01*
X-14001Y104026D02*
X-12668D01*
X-13335D01*
Y108025D01*
X-14001Y107359D01*
X-10669D02*
X-10002Y108025D01*
X-8669D01*
X-8003Y107359D01*
Y104693D01*
X-8669Y104026D01*
X-10002D01*
X-10669Y104693D01*
Y107359D01*
X-6670Y104026D02*
X-5337D01*
X-6004D01*
Y108025D01*
X-6670Y107359D01*
X-17334Y65082D02*
X-18001Y65749D01*
X-19334D01*
X-20000Y65082D01*
Y62416D01*
X-19334Y61750D01*
X-18001D01*
X-17334Y62416D01*
X-16001D02*
X-15335Y61750D01*
X-14002D01*
X-13335Y62416D01*
Y65082D01*
X-14002Y65749D01*
X-15335D01*
X-16001Y65082D01*
Y64416D01*
X-15335Y63749D01*
X-13335D01*
X-12003Y62416D02*
X-11336Y61750D01*
X-10003D01*
X-9337Y62416D01*
Y65082D01*
X-10003Y65749D01*
X-11336D01*
X-12003Y65082D01*
Y64416D01*
X-11336Y63749D01*
X-9337D01*
X-17084Y58332D02*
X-17751Y58999D01*
X-19084D01*
X-19750Y58332D01*
Y55666D01*
X-19084Y55000D01*
X-17751D01*
X-17084Y55666D01*
X-15751D02*
X-15085Y55000D01*
X-13752D01*
X-13086Y55666D01*
Y58332D01*
X-13752Y58999D01*
X-15085D01*
X-15751Y58332D01*
Y57666D01*
X-15085Y56999D01*
X-13086D01*
X-11753Y58999D02*
X-9087D01*
Y58332D01*
X-11753Y55666D01*
Y55000D01*
X-15084Y221582D02*
X-15751Y222249D01*
X-17084D01*
X-17750Y221582D01*
Y218916D01*
X-17084Y218250D01*
X-15751D01*
X-15084Y218916D01*
X-13751D02*
X-13085Y218250D01*
X-11752D01*
X-11085Y218916D01*
Y221582D01*
X-11752Y222249D01*
X-13085D01*
X-13751Y221582D01*
Y220916D01*
X-13085Y220249D01*
X-11085D01*
X-7087Y222249D02*
X-8420Y221582D01*
X-9753Y220249D01*
Y218916D01*
X-9086Y218250D01*
X-7753D01*
X-7087Y218916D01*
Y219583D01*
X-7753Y220249D01*
X-9753D01*
X-14584Y215359D02*
X-15250Y216025D01*
X-16583D01*
X-17250Y215359D01*
Y212693D01*
X-16583Y212026D01*
X-15250D01*
X-14584Y212693D01*
X-13251D02*
X-12585Y212026D01*
X-11252D01*
X-10585Y212693D01*
Y215359D01*
X-11252Y216025D01*
X-12585D01*
X-13251Y215359D01*
Y214692D01*
X-12585Y214026D01*
X-10585D01*
X-6587Y216025D02*
X-9252D01*
Y214026D01*
X-7919Y214692D01*
X-7253D01*
X-6587Y214026D01*
Y212693D01*
X-7253Y212026D01*
X-8586D01*
X-9252Y212693D01*
X396000Y100000D02*
X392001D01*
Y101999D01*
X392668Y102666D01*
X394001D01*
X394667Y101999D01*
Y100000D01*
Y101333D02*
X396000Y102666D01*
Y106664D02*
Y103999D01*
X393334Y106664D01*
X392668D01*
X392001Y105998D01*
Y104665D01*
X392668Y103999D01*
X392001Y110663D02*
X392668Y109330D01*
X394001Y107997D01*
X395334D01*
X396000Y108664D01*
Y109997D01*
X395334Y110663D01*
X394667D01*
X394001Y109997D01*
Y107997D01*
X203500Y119000D02*
Y122999D01*
X205499D01*
X206166Y122332D01*
Y120999D01*
X205499Y120333D01*
X203500D01*
X204833D02*
X206166Y119000D01*
X207499Y122332D02*
X208165Y122999D01*
X209498D01*
X210165Y122332D01*
Y121666D01*
X209498Y120999D01*
X208832D01*
X209498D01*
X210165Y120333D01*
Y119666D01*
X209498Y119000D01*
X208165D01*
X207499Y119666D01*
X211497Y119000D02*
X212830D01*
X212164D01*
Y122999D01*
X211497Y122332D01*
X244500Y98000D02*
X241672Y100828D01*
X243086Y102241D01*
X244029D01*
X244971Y101299D01*
X244971Y100356D01*
X243557Y98942D01*
X244500Y99885D02*
X246385Y99885D01*
X249212Y102712D02*
X247327Y100828D01*
Y104598D01*
X246856Y105069D01*
X245914D01*
X244971Y104126D01*
Y103184D01*
X247327Y106482D02*
X249212Y108368D01*
X249684Y107896D01*
Y104126D01*
X250155Y103655D01*
X204501Y32416D02*
Y29750D01*
X206501D01*
Y31083D01*
Y29750D01*
X208500D01*
Y33749D02*
X204501D01*
Y35748D01*
X205168Y36414D01*
X206501D01*
X207167Y35748D01*
Y33749D01*
Y35082D02*
X208500Y36414D01*
Y39747D02*
X204501D01*
X206501Y37747D01*
Y40413D01*
X204501Y44412D02*
Y41746D01*
X206501D01*
X205834Y43079D01*
Y43745D01*
X206501Y44412D01*
X207833D01*
X208500Y43745D01*
Y42413D01*
X207833Y41746D01*
X233057Y75885D02*
X231173Y74000D01*
X232586Y72586D01*
X233529Y73528D01*
X232586Y72586D01*
X234000Y71172D01*
X236828Y74000D02*
X234000Y76827D01*
X235414Y78241D01*
X236356D01*
X237299Y77298D01*
X237299Y76356D01*
X235885Y74942D01*
X236828Y75885D02*
X238713Y75885D01*
X237299Y79183D02*
Y80126D01*
X238241Y81068D01*
X239184D01*
X239655Y80597D01*
Y79655D01*
X239184Y79183D01*
X239655Y79655D01*
X240597Y79655D01*
X241069Y79183D01*
Y78241D01*
X240126Y77298D01*
X239184D01*
X241540Y84367D02*
X239655Y82482D01*
X241069Y81068D01*
X241540Y82482D01*
X242011Y82953D01*
X242954D01*
X243896Y82011D01*
Y81068D01*
X242954Y80126D01*
X242011D01*
X307251Y145166D02*
Y142500D01*
X309251D01*
Y143833D01*
Y142500D01*
X311250D01*
Y146499D02*
X307251D01*
Y148498D01*
X307918Y149164D01*
X309251D01*
X309917Y148498D01*
Y146499D01*
Y147832D02*
X311250Y149164D01*
X307918Y150497D02*
X307251Y151164D01*
Y152497D01*
X307918Y153163D01*
X308584D01*
X309251Y152497D01*
Y151830D01*
Y152497D01*
X309917Y153163D01*
X310584D01*
X311250Y152497D01*
Y151164D01*
X310584Y150497D01*
X311250Y156495D02*
X307251D01*
X309251Y154496D01*
Y157162D01*
X258001Y227166D02*
Y224500D01*
X260001D01*
Y225833D01*
Y224500D01*
X262000D01*
Y228499D02*
X258001D01*
Y230498D01*
X258668Y231164D01*
X260001D01*
X260667Y230498D01*
Y228499D01*
Y229832D02*
X262000Y231164D01*
X258668Y232497D02*
X258001Y233164D01*
Y234497D01*
X258668Y235163D01*
X259334D01*
X260001Y234497D01*
Y233830D01*
Y234497D01*
X260667Y235163D01*
X261334D01*
X262000Y234497D01*
Y233164D01*
X261334Y232497D01*
X258668Y236496D02*
X258001Y237162D01*
Y238495D01*
X258668Y239162D01*
X259334D01*
X260001Y238495D01*
Y237829D01*
Y238495D01*
X260667Y239162D01*
X261334D01*
X262000Y238495D01*
Y237162D01*
X261334Y236496D01*
X296308Y204713D02*
X294422Y202827D01*
X295836Y201414D01*
X296779Y202356D01*
X295836Y201414D01*
X297250Y200000D01*
X300077Y202827D02*
X297250Y205655D01*
X298664Y207069D01*
X299606D01*
X300549Y206126D01*
X300549Y205184D01*
X299135Y203770D01*
X300077Y204713D02*
X301963Y204713D01*
X300549Y208011D02*
Y208954D01*
X301491Y209896D01*
X302434D01*
X302905Y209425D01*
Y208482D01*
X302434Y208011D01*
X302905Y208482D01*
X303848Y208482D01*
X304319Y208011D01*
Y207069D01*
X303376Y206126D01*
X302434D01*
X307617Y210368D02*
X305732Y208482D01*
Y212253D01*
X305261Y212724D01*
X304319D01*
X303376Y211781D01*
Y210839D01*
X258001Y243916D02*
Y241250D01*
X260001D01*
Y242583D01*
Y241250D01*
X262000D01*
Y245249D02*
X258001D01*
Y247248D01*
X258668Y247915D01*
X260001D01*
X260667Y247248D01*
Y245249D01*
Y246582D02*
X262000Y247915D01*
X258668Y249247D02*
X258001Y249914D01*
Y251247D01*
X258668Y251913D01*
X259334D01*
X260001Y251247D01*
Y250580D01*
Y251247D01*
X260667Y251913D01*
X261334D01*
X262000Y251247D01*
Y249914D01*
X261334Y249247D01*
X262000Y253246D02*
Y254579D01*
Y253913D01*
X258001D01*
X258668Y253246D01*
X275001Y68916D02*
Y66250D01*
X277001D01*
Y67583D01*
Y66250D01*
X279000D01*
Y70249D02*
X275001D01*
Y72248D01*
X275668Y72915D01*
X277001D01*
X277667Y72248D01*
Y70249D01*
Y71582D02*
X279000Y72915D01*
X275668Y74247D02*
X275001Y74914D01*
Y76247D01*
X275668Y76913D01*
X276334D01*
X277001Y76247D01*
Y75580D01*
Y76247D01*
X277667Y76913D01*
X278334D01*
X279000Y76247D01*
Y74914D01*
X278334Y74247D01*
X275668Y78246D02*
X275001Y78913D01*
Y80246D01*
X275668Y80912D01*
X278334D01*
X279000Y80246D01*
Y78913D01*
X278334Y78246D01*
X275668D01*
X345666Y143499D02*
X343000D01*
Y141499D01*
X344333D01*
X343000D01*
Y139500D01*
X346999D02*
Y143499D01*
X348998D01*
X349664Y142832D01*
Y141499D01*
X348998Y140833D01*
X346999D01*
X348332D02*
X349664Y139500D01*
X353663D02*
X350997D01*
X353663Y142166D01*
Y142832D01*
X352997Y143499D01*
X351664D01*
X350997Y142832D01*
X354996D02*
X355662Y143499D01*
X356996D01*
X357662Y142832D01*
Y142166D01*
X356996Y141499D01*
X357662Y140833D01*
Y140166D01*
X356996Y139500D01*
X355662D01*
X354996Y140166D01*
Y140833D01*
X355662Y141499D01*
X354996Y142166D01*
Y142832D01*
X355662Y141499D02*
X356996D01*
X340462Y211693D02*
X338577Y213577D01*
X337164Y212164D01*
X338106Y211221D01*
X337164Y212164D01*
X335750Y210750D01*
X338577Y207922D02*
X341405Y210750D01*
X342819Y209336D01*
Y208394D01*
X341876Y207451D01*
X340934Y207451D01*
X339520Y208865D01*
X340462Y207922D02*
X340462Y206038D01*
X343290Y203210D02*
X341405Y205095D01*
X345175D01*
X345646Y205566D01*
Y206509D01*
X344704Y207451D01*
X343761D01*
X348945Y203210D02*
X347531Y203681D01*
X345646D01*
X344704Y202739D01*
Y201796D01*
X345646Y200854D01*
X346589D01*
X347060Y201325D01*
X347060Y202267D01*
X345646Y203681D01*
X264751Y243666D02*
Y241000D01*
X266751D01*
Y242333D01*
Y241000D01*
X268750D01*
Y244999D02*
X264751D01*
Y246998D01*
X265418Y247665D01*
X266751D01*
X267417Y246998D01*
Y244999D01*
Y246332D02*
X268750Y247665D01*
Y251663D02*
Y248997D01*
X266084Y251663D01*
X265418D01*
X264751Y250997D01*
Y249664D01*
X265418Y248997D01*
X264751Y255662D02*
Y252996D01*
X266751D01*
X266084Y254329D01*
Y254995D01*
X266751Y255662D01*
X268083D01*
X268750Y254995D01*
Y253662D01*
X268083Y252996D01*
X328001Y206416D02*
Y203750D01*
X330001D01*
Y205083D01*
Y203750D01*
X332000D01*
Y207749D02*
X328001D01*
Y209748D01*
X328668Y210415D01*
X330001D01*
X330667Y209748D01*
Y207749D01*
Y209082D02*
X332000Y210415D01*
Y214413D02*
Y211747D01*
X329334Y214413D01*
X328668D01*
X328001Y213747D01*
Y212414D01*
X328668Y211747D01*
X332000Y215746D02*
Y217079D01*
Y216413D01*
X328001D01*
X328668Y215746D01*
X319251Y217166D02*
Y214500D01*
X321251D01*
Y215833D01*
Y214500D01*
X323250D01*
Y218499D02*
X319251D01*
Y220498D01*
X319918Y221164D01*
X321251D01*
X321917Y220498D01*
Y218499D01*
Y219832D02*
X323250Y221164D01*
Y225163D02*
Y222497D01*
X320584Y225163D01*
X319918D01*
X319251Y224497D01*
Y223164D01*
X319918Y222497D01*
Y226496D02*
X319251Y227162D01*
Y228496D01*
X319918Y229162D01*
X322584D01*
X323250Y228496D01*
Y227162D01*
X322584Y226496D01*
X319918D01*
X283751Y146916D02*
Y144250D01*
X285751D01*
Y145583D01*
Y144250D01*
X287750D01*
Y148249D02*
X283751D01*
Y150248D01*
X284418Y150914D01*
X285751D01*
X286417Y150248D01*
Y148249D01*
Y149581D02*
X287750Y150914D01*
Y152247D02*
Y153580D01*
Y152914D01*
X283751D01*
X284418Y152247D01*
X287084Y155580D02*
X287750Y156246D01*
Y157579D01*
X287084Y158245D01*
X284418D01*
X283751Y157579D01*
Y156246D01*
X284418Y155580D01*
X285084D01*
X285751Y156246D01*
Y158245D01*
X275001Y159166D02*
Y156500D01*
X277001D01*
Y157833D01*
Y156500D01*
X279000D01*
Y160499D02*
X275001D01*
Y162498D01*
X275668Y163165D01*
X277001D01*
X277667Y162498D01*
Y160499D01*
Y161832D02*
X279000Y163165D01*
Y164497D02*
Y165830D01*
Y165164D01*
X275001D01*
X275668Y164497D01*
Y167830D02*
X275001Y168496D01*
Y169829D01*
X275668Y170495D01*
X276334D01*
X277001Y169829D01*
X277667Y170495D01*
X278334D01*
X279000Y169829D01*
Y168496D01*
X278334Y167830D01*
X277667D01*
X277001Y168496D01*
X276334Y167830D01*
X275668D01*
X277001Y168496D02*
Y169829D01*
X271001Y125916D02*
Y123250D01*
X273001D01*
Y124583D01*
Y123250D01*
X275000D01*
Y127249D02*
X271001D01*
Y129248D01*
X271668Y129915D01*
X273001D01*
X273667Y129248D01*
Y127249D01*
Y128582D02*
X275000Y129915D01*
Y131247D02*
Y132580D01*
Y131914D01*
X271001D01*
X271668Y131247D01*
X271001Y134580D02*
Y137245D01*
X271668D01*
X274334Y134580D01*
X275000D01*
X317166Y109499D02*
X314500D01*
Y107499D01*
X315833D01*
X314500D01*
Y105500D01*
X318499D02*
Y109499D01*
X320498D01*
X321165Y108832D01*
Y107499D01*
X320498Y106833D01*
X318499D01*
X319832D02*
X321165Y105500D01*
X322497D02*
X323830D01*
X323164D01*
Y109499D01*
X322497Y108832D01*
X328495Y105500D02*
X325830D01*
X328495Y108166D01*
Y108832D01*
X327829Y109499D01*
X326496D01*
X325830Y108832D01*
X298166Y130999D02*
X295500D01*
Y128999D01*
X296833D01*
X295500D01*
Y127000D01*
X299499D02*
Y130999D01*
X301498D01*
X302164Y130332D01*
Y128999D01*
X301498Y128333D01*
X299499D01*
X300832D02*
X302164Y127000D01*
X303497D02*
X304830D01*
X304164D01*
Y130999D01*
X303497Y130332D01*
X306830Y127000D02*
X308162D01*
X307496D01*
Y130999D01*
X306830Y130332D01*
X329251Y143916D02*
Y141250D01*
X331251D01*
Y142583D01*
Y141250D01*
X333250D01*
Y145249D02*
X329251D01*
Y147248D01*
X329918Y147914D01*
X331251D01*
X331917Y147248D01*
Y145249D01*
Y146582D02*
X333250Y147914D01*
Y149247D02*
Y150580D01*
Y149914D01*
X329251D01*
X329918Y149247D01*
Y152580D02*
X329251Y153246D01*
Y154579D01*
X329918Y155246D01*
X332584D01*
X333250Y154579D01*
Y153246D01*
X332584Y152580D01*
X329918D01*
X353751Y160916D02*
Y158250D01*
X355751D01*
Y159583D01*
Y158250D01*
X357750D01*
Y162249D02*
X353751D01*
Y164248D01*
X354418Y164914D01*
X355751D01*
X356417Y164248D01*
Y162249D01*
Y163582D02*
X357750Y164914D01*
X357084Y166247D02*
X357750Y166914D01*
Y168247D01*
X357084Y168913D01*
X354418D01*
X353751Y168247D01*
Y166914D01*
X354418Y166247D01*
X355084D01*
X355751Y166914D01*
Y168913D01*
X245166Y190999D02*
X242500D01*
Y188999D01*
X243833D01*
X242500D01*
Y187000D01*
X246499D02*
Y190999D01*
X248498D01*
X249165Y190332D01*
Y188999D01*
X248498Y188333D01*
X246499D01*
X247832D02*
X249165Y187000D01*
X250497Y190999D02*
X253163D01*
Y190332D01*
X250497Y187666D01*
Y187000D01*
X313251Y145666D02*
Y143000D01*
X315251D01*
Y144333D01*
Y143000D01*
X317250D01*
Y146999D02*
X313251D01*
Y148998D01*
X313918Y149664D01*
X315251D01*
X315917Y148998D01*
Y146999D01*
Y148332D02*
X317250Y149664D01*
X313251Y153663D02*
X313918Y152330D01*
X315251Y150997D01*
X316583D01*
X317250Y151664D01*
Y152997D01*
X316583Y153663D01*
X315917D01*
X315251Y152997D01*
Y150997D01*
X191416Y106082D02*
X190749Y106749D01*
X189416D01*
X188750Y106082D01*
Y103417D01*
X189416Y102750D01*
X190749D01*
X191416Y103417D01*
X195415Y102750D02*
X192749D01*
X195415Y105416D01*
Y106082D01*
X194748Y106749D01*
X193415D01*
X192749Y106082D01*
X199413Y102750D02*
X196747D01*
X199413Y105416D01*
Y106082D01*
X198747Y106749D01*
X197414D01*
X196747Y106082D01*
X203412Y106749D02*
X200746D01*
Y104749D01*
X202079Y105416D01*
X202745D01*
X203412Y104749D01*
Y103417D01*
X202745Y102750D01*
X201413D01*
X200746Y103417D01*
X376250Y193250D02*
Y197249D01*
X377583Y195916D01*
X378916Y197249D01*
Y193250D01*
X380249D02*
Y197249D01*
X382915Y193250D01*
Y197249D01*
X386913Y193250D02*
X384247D01*
X386913Y195916D01*
Y196582D01*
X386247Y197249D01*
X384914D01*
X384247Y196582D01*
X388246Y197249D02*
X390912D01*
Y196582D01*
X388246Y193916D01*
Y193250D01*
X399750Y193500D02*
X395751D01*
X397084Y194833D01*
X395751Y196166D01*
X399750D01*
Y197499D02*
X395751D01*
X399750Y200165D01*
X395751D01*
X399750Y204163D02*
Y201497D01*
X397084Y204163D01*
X396418D01*
X395751Y203497D01*
Y202164D01*
X396418Y201497D01*
X399750Y207495D02*
X395751D01*
X397751Y205496D01*
Y208162D01*
X368250Y193000D02*
X364251D01*
X365584Y194333D01*
X364251Y195666D01*
X368250D01*
Y196999D02*
X364251D01*
X368250Y199664D01*
X364251D01*
X368250Y203663D02*
Y200997D01*
X365584Y203663D01*
X364918D01*
X364251Y202997D01*
Y201664D01*
X364918Y200997D01*
Y204996D02*
X364251Y205662D01*
Y206995D01*
X364918Y207662D01*
X365584D01*
X366251Y206995D01*
Y206329D01*
Y206995D01*
X366917Y207662D01*
X367584D01*
X368250Y206995D01*
Y205662D01*
X367584Y204996D01*
X197916Y97332D02*
X197249Y97999D01*
X195916D01*
X195250Y97332D01*
Y94666D01*
X195916Y94000D01*
X197249D01*
X197916Y94666D01*
X201915Y94000D02*
X199249D01*
X201915Y96666D01*
Y97332D01*
X201248Y97999D01*
X199915D01*
X199249Y97332D01*
X203247D02*
X203914Y97999D01*
X205247D01*
X205913Y97332D01*
Y94666D01*
X205247Y94000D01*
X203914D01*
X203247Y94666D01*
Y97332D01*
X209245Y94000D02*
Y97999D01*
X207246Y95999D01*
X209912D01*
X197916Y54582D02*
X197249Y55249D01*
X195916D01*
X195250Y54582D01*
Y51916D01*
X195916Y51250D01*
X197249D01*
X197916Y51916D01*
X201915Y51250D02*
X199249D01*
X201915Y53916D01*
Y54582D01*
X201248Y55249D01*
X199915D01*
X199249Y54582D01*
X203247D02*
X203914Y55249D01*
X205247D01*
X205913Y54582D01*
Y51916D01*
X205247Y51250D01*
X203914D01*
X203247Y51916D01*
Y54582D01*
X207246D02*
X207913Y55249D01*
X209245D01*
X209912Y54582D01*
Y53916D01*
X209245Y53249D01*
X208579D01*
X209245D01*
X209912Y52583D01*
Y51916D01*
X209245Y51250D01*
X207913D01*
X207246Y51916D01*
X298168Y148416D02*
X297501Y147749D01*
Y146416D01*
X298168Y145750D01*
X300834D01*
X301500Y146416D01*
Y147749D01*
X300834Y148416D01*
Y149749D02*
X301500Y150415D01*
Y151748D01*
X300834Y152415D01*
X298168D01*
X297501Y151748D01*
Y150415D01*
X298168Y149749D01*
X298834D01*
X299501Y150415D01*
Y152415D01*
X301500Y155747D02*
X297501D01*
X299501Y153747D01*
Y156413D01*
X245279Y72741D02*
X244336D01*
X243394Y71799D01*
Y70856D01*
X245279Y68971D01*
X246221D01*
X247164Y69914D01*
Y70856D01*
X248106Y71799D02*
X249049D01*
X249991Y72741D01*
Y73684D01*
X248106Y75569D01*
X247164D01*
X246221Y74626D01*
Y73684D01*
X246693Y73212D01*
X247635D01*
X249049Y74626D01*
Y76511D02*
Y77454D01*
X249991Y78396D01*
X250934D01*
X251405Y77925D01*
Y76982D01*
X250934Y76511D01*
X251405Y76982D01*
X252348Y76982D01*
X252819Y76511D01*
Y75569D01*
X251876Y74626D01*
X250934D01*
X247741Y86721D02*
Y87664D01*
X246799Y88606D01*
X245856D01*
X243971Y86721D01*
Y85779D01*
X244914Y84836D01*
X245856D01*
X246799Y83894D02*
Y82951D01*
X247741Y82009D01*
X248684D01*
X250569Y83894D01*
Y84836D01*
X249626Y85779D01*
X248684D01*
X248213Y85308D01*
Y84365D01*
X249626Y82951D01*
X249155Y80595D02*
X250098Y79653D01*
X249626Y80124D01*
X252454Y82951D01*
X251511D01*
X349168Y127916D02*
X348501Y127249D01*
Y125916D01*
X349168Y125250D01*
X351834D01*
X352500Y125916D01*
Y127249D01*
X351834Y127916D01*
X349168Y129249D02*
X348501Y129915D01*
Y131248D01*
X349168Y131914D01*
X349834D01*
X350501Y131248D01*
X351167Y131914D01*
X351834D01*
X352500Y131248D01*
Y129915D01*
X351834Y129249D01*
X351167D01*
X350501Y129915D01*
X349834Y129249D01*
X349168D01*
X350501Y129915D02*
Y131248D01*
X351834Y133247D02*
X352500Y133914D01*
Y135247D01*
X351834Y135913D01*
X349168D01*
X348501Y135247D01*
Y133914D01*
X349168Y133247D01*
X349834D01*
X350501Y133914D01*
Y135913D01*
X277168Y226916D02*
X276501Y226249D01*
Y224916D01*
X277168Y224250D01*
X279834D01*
X280500Y224916D01*
Y226249D01*
X279834Y226916D01*
X277168Y228249D02*
X276501Y228915D01*
Y230248D01*
X277168Y230914D01*
X277834D01*
X278501Y230248D01*
X279167Y230914D01*
X279834D01*
X280500Y230248D01*
Y228915D01*
X279834Y228249D01*
X279167D01*
X278501Y228915D01*
X277834Y228249D01*
X277168D01*
X278501Y228915D02*
Y230248D01*
X276501Y234913D02*
X277168Y233580D01*
X278501Y232247D01*
X279834D01*
X280500Y232914D01*
Y234247D01*
X279834Y234913D01*
X279167D01*
X278501Y234247D01*
Y232247D01*
X296418Y190166D02*
X295751Y189499D01*
Y188167D01*
X296418Y187500D01*
X299084D01*
X299750Y188167D01*
Y189499D01*
X299084Y190166D01*
X296418Y191499D02*
X295751Y192165D01*
Y193498D01*
X296418Y194165D01*
X297084D01*
X297751Y193498D01*
X298417Y194165D01*
X299084D01*
X299750Y193498D01*
Y192165D01*
X299084Y191499D01*
X298417D01*
X297751Y192165D01*
X297084Y191499D01*
X296418D01*
X297751Y192165D02*
Y193498D01*
X295751Y198163D02*
Y195497D01*
X297751D01*
X297084Y196830D01*
Y197497D01*
X297751Y198163D01*
X299084D01*
X299750Y197497D01*
Y196164D01*
X299084Y195497D01*
X264168Y217416D02*
X263501Y216749D01*
Y215416D01*
X264168Y214750D01*
X266834D01*
X267500Y215416D01*
Y216749D01*
X266834Y217416D01*
X264168Y218749D02*
X263501Y219415D01*
Y220748D01*
X264168Y221415D01*
X264834D01*
X265501Y220748D01*
X266167Y221415D01*
X266834D01*
X267500Y220748D01*
Y219415D01*
X266834Y218749D01*
X266167D01*
X265501Y219415D01*
X264834Y218749D01*
X264168D01*
X265501Y219415D02*
Y220748D01*
X267500Y224747D02*
X263501D01*
X265501Y222747D01*
Y225413D01*
X338741Y204471D02*
Y205414D01*
X337799Y206356D01*
X336856D01*
X334971Y204471D01*
Y203529D01*
X335914Y202586D01*
X336856D01*
X339684Y203529D02*
X340626D01*
X341569Y202586D01*
Y201644D01*
X341097Y201173D01*
X340155D01*
X340155Y200230D01*
X339684Y199759D01*
X338741D01*
X337799Y200701D01*
Y201644D01*
X338270Y202115D01*
X339212Y202115D01*
Y203057D01*
X339684Y203529D01*
X339212Y202115D02*
X340155Y201173D01*
X342511Y200701D02*
X343454D01*
X344396Y199759D01*
Y198816D01*
X343925Y198345D01*
X342982D01*
X342511Y198816D01*
X342982Y198345D01*
X342982Y197402D01*
X342511Y196931D01*
X341569D01*
X340626Y197874D01*
Y198816D01*
X333166Y125332D02*
X332499Y125999D01*
X331166D01*
X330500Y125332D01*
Y122667D01*
X331166Y122000D01*
X332499D01*
X333166Y122667D01*
X337164Y125999D02*
X335832Y125332D01*
X334499Y123999D01*
Y122667D01*
X335165Y122000D01*
X336498D01*
X337164Y122667D01*
Y123333D01*
X336498Y123999D01*
X334499D01*
X338497Y122667D02*
X339164Y122000D01*
X340497D01*
X341163Y122667D01*
Y125332D01*
X340497Y125999D01*
X339164D01*
X338497Y125332D01*
Y124666D01*
X339164Y123999D01*
X341163D01*
X306166Y122582D02*
X305499Y123249D01*
X304166D01*
X303500Y122582D01*
Y119916D01*
X304166Y119250D01*
X305499D01*
X306166Y119916D01*
X310165Y123249D02*
X308832Y122582D01*
X307499Y121249D01*
Y119916D01*
X308165Y119250D01*
X309498D01*
X310165Y119916D01*
Y120583D01*
X309498Y121249D01*
X307499D01*
X311497Y122582D02*
X312164Y123249D01*
X313497D01*
X314163Y122582D01*
Y121916D01*
X313497Y121249D01*
X314163Y120583D01*
Y119916D01*
X313497Y119250D01*
X312164D01*
X311497Y119916D01*
Y120583D01*
X312164Y121249D01*
X311497Y121916D01*
Y122582D01*
X312164Y121249D02*
X313497D01*
X266916Y237082D02*
X266249Y237749D01*
X264916D01*
X264250Y237082D01*
Y234416D01*
X264916Y233750D01*
X266249D01*
X266916Y234416D01*
X270914Y237749D02*
X269582Y237082D01*
X268249Y235749D01*
Y234416D01*
X268915Y233750D01*
X270248D01*
X270914Y234416D01*
Y235083D01*
X270248Y235749D01*
X268249D01*
X272247Y237749D02*
X274913D01*
Y237082D01*
X272247Y234416D01*
Y233750D01*
X266666Y231082D02*
X265999Y231749D01*
X264667D01*
X264000Y231082D01*
Y228416D01*
X264667Y227750D01*
X265999D01*
X266666Y228416D01*
X270665Y231749D02*
X269332Y231082D01*
X267999Y229749D01*
Y228416D01*
X268665Y227750D01*
X269998D01*
X270665Y228416D01*
Y229083D01*
X269998Y229749D01*
X267999D01*
X274663Y231749D02*
X273330Y231082D01*
X271997Y229749D01*
Y228416D01*
X272664Y227750D01*
X273997D01*
X274663Y228416D01*
Y229083D01*
X273997Y229749D01*
X271997D01*
X351168Y147916D02*
X350501Y147249D01*
Y145916D01*
X351168Y145250D01*
X353834D01*
X354500Y145916D01*
Y147249D01*
X353834Y147916D01*
X350501Y151915D02*
X351168Y150582D01*
X352501Y149249D01*
X353834D01*
X354500Y149915D01*
Y151248D01*
X353834Y151915D01*
X353167D01*
X352501Y151248D01*
Y149249D01*
X354500Y155913D02*
Y153247D01*
X351834Y155913D01*
X351168D01*
X350501Y155247D01*
Y153914D01*
X351168Y153247D01*
X312916Y138082D02*
X312249Y138749D01*
X310916D01*
X310250Y138082D01*
Y135416D01*
X310916Y134750D01*
X312249D01*
X312916Y135416D01*
X316915Y138749D02*
X315582Y138082D01*
X314249Y136749D01*
Y135416D01*
X314915Y134750D01*
X316248D01*
X316915Y135416D01*
Y136083D01*
X316248Y136749D01*
X314249D01*
X318247Y134750D02*
X319580D01*
X318914D01*
Y138749D01*
X318247Y138082D01*
X335666Y108832D02*
X334999Y109499D01*
X333666D01*
X333000Y108832D01*
Y106166D01*
X333666Y105500D01*
X334999D01*
X335666Y106166D01*
X339664Y109499D02*
X338332Y108832D01*
X336999Y107499D01*
Y106166D01*
X337665Y105500D01*
X338998D01*
X339664Y106166D01*
Y106833D01*
X338998Y107499D01*
X336999D01*
X340997Y108832D02*
X341664Y109499D01*
X342997D01*
X343663Y108832D01*
Y106166D01*
X342997Y105500D01*
X341664D01*
X340997Y106166D01*
Y108832D01*
X269418Y161166D02*
X268751Y160499D01*
Y159166D01*
X269418Y158500D01*
X272084D01*
X272750Y159166D01*
Y160499D01*
X272084Y161166D01*
X268751Y165165D02*
Y162499D01*
X270751D01*
X270084Y163832D01*
Y164498D01*
X270751Y165165D01*
X272084D01*
X272750Y164498D01*
Y163165D01*
X272084Y162499D01*
X272750Y168497D02*
X268751D01*
X270751Y166497D01*
Y169163D01*
X296418Y164916D02*
X295751Y164249D01*
Y162916D01*
X296418Y162250D01*
X299084D01*
X299750Y162916D01*
Y164249D01*
X299084Y164916D01*
X295751Y168915D02*
Y166249D01*
X297751D01*
X297084Y167582D01*
Y168248D01*
X297751Y168915D01*
X299084D01*
X299750Y168248D01*
Y166915D01*
X299084Y166249D01*
X296418Y170247D02*
X295751Y170914D01*
Y172247D01*
X296418Y172913D01*
X297084D01*
X297751Y172247D01*
Y171580D01*
Y172247D01*
X298417Y172913D01*
X299084D01*
X299750Y172247D01*
Y170914D01*
X299084Y170247D01*
X296668Y177416D02*
X296001Y176749D01*
Y175416D01*
X296668Y174750D01*
X299333D01*
X300000Y175416D01*
Y176749D01*
X299333Y177416D01*
X296001Y181415D02*
Y178749D01*
X298001D01*
X297334Y180082D01*
Y180748D01*
X298001Y181415D01*
X299333D01*
X300000Y180748D01*
Y179415D01*
X299333Y178749D01*
X300000Y185413D02*
Y182747D01*
X297334Y185413D01*
X296668D01*
X296001Y184747D01*
Y183414D01*
X296668Y182747D01*
X298668Y218666D02*
X298001Y217999D01*
Y216666D01*
X298668Y216000D01*
X301334D01*
X302000Y216666D01*
Y217999D01*
X301334Y218666D01*
X298001Y222665D02*
Y219999D01*
X300001D01*
X299334Y221332D01*
Y221998D01*
X300001Y222665D01*
X301334D01*
X302000Y221998D01*
Y220665D01*
X301334Y219999D01*
X302000Y223997D02*
Y225330D01*
Y224664D01*
X298001D01*
X298668Y223997D01*
X321418Y202416D02*
X320751Y201749D01*
Y200416D01*
X321418Y199750D01*
X324084D01*
X324750Y200416D01*
Y201749D01*
X324084Y202416D01*
X320751Y206415D02*
Y203749D01*
X322751D01*
X322084Y205082D01*
Y205748D01*
X322751Y206415D01*
X324084D01*
X324750Y205748D01*
Y204415D01*
X324084Y203749D01*
X321418Y207747D02*
X320751Y208414D01*
Y209747D01*
X321418Y210413D01*
X324084D01*
X324750Y209747D01*
Y208414D01*
X324084Y207747D01*
X321418D01*
X341610Y153241D02*
X340667D01*
X339725Y152299D01*
Y151356D01*
X341610Y149471D01*
X342552D01*
X343495Y150414D01*
Y151356D01*
X346322Y153241D02*
X343495Y156069D01*
X343495Y153241D01*
X345380Y155126D01*
X347265Y155126D02*
X348207D01*
X349150Y156069D01*
Y157011D01*
X347265Y158896D01*
X346322D01*
X345380Y157954D01*
Y157011D01*
X345851Y156540D01*
X346793D01*
X348207Y157954D01*
X335779Y171991D02*
X334836D01*
X333894Y171049D01*
Y170106D01*
X335779Y168221D01*
X336721D01*
X337664Y169164D01*
Y170106D01*
X340491Y171991D02*
X337664Y174819D01*
X337664Y171991D01*
X339549Y173876D01*
Y175761D02*
Y176704D01*
X340491Y177646D01*
X341434D01*
X341905Y177175D01*
Y176232D01*
X342848Y176232D01*
X343319Y175761D01*
Y174819D01*
X342376Y173876D01*
X341434D01*
X340962Y174347D01*
X340962Y175290D01*
X340020D01*
X339549Y175761D01*
X340962Y175290D02*
X341905Y176232D01*
X234168Y184166D02*
X233501Y183499D01*
Y182166D01*
X234168Y181500D01*
X236834D01*
X237500Y182166D01*
Y183499D01*
X236834Y184166D01*
X237500Y187498D02*
X233501D01*
X235501Y185499D01*
Y188165D01*
X234168Y189497D02*
X233501Y190164D01*
Y191497D01*
X234168Y192163D01*
X234834D01*
X235501Y191497D01*
Y190830D01*
Y191497D01*
X236167Y192163D01*
X236834D01*
X237500Y191497D01*
Y190164D01*
X236834Y189497D01*
X227918Y184166D02*
X227251Y183499D01*
Y182166D01*
X227918Y181500D01*
X230584D01*
X231250Y182166D01*
Y183499D01*
X230584Y184166D01*
X231250Y187498D02*
X227251D01*
X229251Y185499D01*
Y188165D01*
X231250Y192163D02*
Y189497D01*
X228584Y192163D01*
X227918D01*
X227251Y191497D01*
Y190164D01*
X227918Y189497D01*
X259666Y203332D02*
X258999Y203999D01*
X257666D01*
X257000Y203332D01*
Y200667D01*
X257666Y200000D01*
X258999D01*
X259666Y200667D01*
X260999Y203332D02*
X261665Y203999D01*
X262998D01*
X263664Y203332D01*
Y202666D01*
X262998Y201999D01*
X262332D01*
X262998D01*
X263664Y201333D01*
Y200667D01*
X262998Y200000D01*
X261665D01*
X260999Y200667D01*
X264997D02*
X265664Y200000D01*
X266997D01*
X267663Y200667D01*
Y203332D01*
X266997Y203999D01*
X265664D01*
X264997Y203332D01*
Y202666D01*
X265664Y201999D01*
X267663D01*
X263918Y166666D02*
X263251Y165999D01*
Y164666D01*
X263918Y164000D01*
X266584D01*
X267250Y164666D01*
Y165999D01*
X266584Y166666D01*
X263918Y167999D02*
X263251Y168665D01*
Y169998D01*
X263918Y170665D01*
X264584D01*
X265251Y169998D01*
Y169332D01*
Y169998D01*
X265917Y170665D01*
X266584D01*
X267250Y169998D01*
Y168665D01*
X266584Y167999D01*
X263251Y171997D02*
Y174663D01*
X263918D01*
X266584Y171997D01*
X267250D01*
D35*
X71750Y178250D02*
D03*
X46500Y242750D02*
D03*
X64750Y117250D02*
D03*
X372500Y52750D02*
D03*
X337750Y50750D02*
D03*
X71750Y168250D02*
D03*
X119000Y93500D02*
D03*
X125000Y131000D02*
D03*
X135000Y111250D02*
D03*
X220250Y41000D02*
D03*
X56500Y154500D02*
D03*
X22250Y240500D02*
D03*
X349250Y239500D02*
D03*
X399000Y52250D02*
D03*
X36500Y229250D02*
D03*
X66500Y106000D02*
D03*
X157000Y119995D02*
D03*
X162005Y220000D02*
D03*
X157000Y66354D02*
D03*
X157000Y109495D02*
D03*
X215646Y220000D02*
D03*
X172505Y220000D02*
D03*
X383000Y204750D02*
D03*
X356750Y189750D02*
D03*
Y209750D02*
D03*
X364380Y136000D02*
D03*
X395879Y136000D02*
D03*
X379879Y141000D02*
D03*
Y131000D02*
D03*
X322000Y84750D02*
D03*
X337500Y89750D02*
D03*
X337500Y79750D02*
D03*
X353500Y84750D02*
D03*
X364979Y160750D02*
D03*
X380479Y155750D02*
D03*
X380479Y165750D02*
D03*
X395979Y160750D02*
D03*
X39000Y65250D02*
D03*
X28500D02*
D03*
X208000Y119250D02*
D03*
X247465Y103215D02*
D03*
X196500Y37755D02*
D03*
X382750Y194750D02*
D03*
X398500Y200000D02*
D03*
X367250Y199750D02*
D03*
X111500Y151500D02*
D03*
X201464Y96360D02*
D03*
X201500Y53255D02*
D03*
D133*
X23291Y95000D02*
G03*
X23291Y95000I-790J0D01*
G01*
X54271Y68375D02*
G03*
X54271Y68375I-1521J0D01*
G01*
X259000Y286250D02*
G03*
X259000Y286250I-1000J0D01*
G01*
X402000Y106750D02*
G03*
X402000Y106750I-1000J0D01*
G01*
X445750Y213500D02*
G03*
X445750Y213500I-1000J0D01*
G01*
X443879Y149500D02*
G03*
X443879Y149500I-1000J0D01*
G01*
D137*
X110351Y23750D02*
G03*
X110351Y23750I-1601J0D01*
G01*
Y38500D02*
G03*
X110351Y38500I-1601J0D01*
G01*
X241101Y67500D02*
G03*
X241101Y67500I-1601J0D01*
G01*
D146*
X31750Y107000D02*
D03*
X62250Y81625D02*
D03*
D216*
X4500Y174250D02*
G03*
X4500Y174250I-250J0D01*
G01*
X2000Y205000D02*
G03*
X2000Y205000I-250J0D01*
G01*
X4500Y161000D02*
G03*
X4500Y161000I-250J0D01*
G01*
X4474Y153576D02*
G03*
X4474Y153576I-250J0D01*
G01*
X20750Y229500D02*
G03*
X20750Y229500I-250J0D01*
G01*
X15250Y220500D02*
G03*
X15250Y220500I-250J0D01*
G01*
X23682Y218900D02*
G03*
X23682Y218900I-250J0D01*
G01*
X44500Y84000D02*
G03*
X44500Y84000I-250J0D01*
G01*
X38000Y84000D02*
G03*
X38000Y84000I-250J0D01*
G01*
X200500Y14750D02*
G03*
X200500Y14750I-250J0D01*
G01*
X238100Y159581D02*
G03*
X238100Y159581I-250J0D01*
G01*
X45000Y220300D02*
G03*
X45000Y220300I-250J0D01*
G01*
X4500Y242500D02*
G03*
X4500Y242500I-250J0D01*
G01*
Y249000D02*
G03*
X4500Y249000I-250J0D01*
G01*
X162490Y160296D02*
G03*
X162490Y160296I-250J0D01*
G01*
X357000Y291250D02*
G03*
X357000Y291250I-250J0D01*
G01*
X175250Y143778D02*
G03*
X175250Y143778I-250J0D01*
G01*
X189750Y144250D02*
G03*
X189750Y144250I-250J0D01*
G01*
X181750Y69000D02*
G03*
X181750Y69000I-250J0D01*
G01*
X345500Y291250D02*
G03*
X345500Y291250I-250J0D01*
G01*
X71313Y148169D02*
G03*
X71313Y148169I-250J0D01*
G01*
X344000Y22500D02*
G03*
X344000Y22500I-250J0D01*
G01*
X13000Y92250D02*
G03*
X13000Y92250I-250J0D01*
G01*
X96250Y69500D02*
G03*
X96250Y69500I-250J0D01*
G01*
X31500Y84000D02*
G03*
X31500Y84000I-250J0D01*
G01*
X4500Y34497D02*
G03*
X4500Y34497I-250J0D01*
G01*
X188250Y71846D02*
G03*
X188250Y71846I-250J0D01*
G01*
X358750Y53500D02*
G03*
X358750Y53500I-250J0D01*
G01*
X352000D02*
G03*
X352000Y53500I-250J0D01*
G01*
X24500Y84000D02*
G03*
X24500Y84000I-250J0D01*
G01*
X174000Y93904D02*
G03*
X174000Y93904I-250J0D01*
G01*
Y79554D02*
G03*
X174000Y79554I-250J0D01*
G01*
X186596Y235250D02*
G03*
X186596Y235250I-250J0D01*
G01*
X201696Y235500D02*
G03*
X201696Y235500I-250J0D01*
G01*
X188250Y82946D02*
G03*
X188250Y82946I-250J0D01*
G01*
X187750Y14750D02*
G03*
X187750Y14750I-250J0D01*
G01*
X215500Y183750D02*
G03*
X215500Y183750I-250J0D01*
G01*
X234250Y199567D02*
G03*
X234250Y199567I-250J0D01*
G01*
X87500Y161500D02*
G03*
X87500Y161500I-250J0D01*
G01*
X95500Y157000D02*
G03*
X95500Y157000I-250J0D01*
G01*
X103750Y165000D02*
G03*
X103750Y165000I-250J0D01*
G01*
X89250Y180250D02*
G03*
X89250Y180250I-250J0D01*
G01*
X117717Y171750D02*
G03*
X117717Y171750I-250J0D01*
G01*
Y165250D02*
G03*
X117717Y165250I-250J0D01*
G01*
X124700Y188500D02*
G03*
X124700Y188500I-250J0D01*
G01*
X117200Y131550D02*
G03*
X117200Y131550I-250J0D01*
G01*
X115250Y118750D02*
G03*
X115250Y118750I-250J0D01*
G01*
X107750Y101500D02*
G03*
X107750Y101500I-250J0D01*
G01*
X118750Y82750D02*
G03*
X118750Y82750I-250J0D01*
G01*
X138200Y153750D02*
G03*
X138200Y153750I-250J0D01*
G01*
X150000Y144000D02*
G03*
X150000Y144000I-250J0D01*
G01*
X138250Y143750D02*
G03*
X138250Y143750I-250J0D01*
G01*
X119250Y112250D02*
G03*
X119250Y112250I-250J0D01*
G01*
X93500Y118000D02*
G03*
X93500Y118000I-250J0D01*
G01*
X105250Y145250D02*
G03*
X105250Y145250I-250J0D01*
G01*
X126750Y162800D02*
G03*
X126750Y162800I-250J0D01*
G01*
X79250Y124500D02*
G03*
X79250Y124500I-250J0D01*
G01*
X103000Y111500D02*
G03*
X103000Y111500I-250J0D01*
G01*
X63000Y136750D02*
G03*
X63000Y136750I-250J0D01*
G01*
X78500Y156500D02*
G03*
X78500Y156500I-250J0D01*
G01*
X118250Y29800D02*
G03*
X118250Y29800I-250J0D01*
G01*
X277500Y32200D02*
G03*
X277500Y32200I-250J0D01*
G01*
X105500Y135250D02*
G03*
X105500Y135250I-250J0D01*
G01*
X6500Y229500D02*
G03*
X6500Y229500I-250J0D01*
G01*
X176750Y130000D02*
G03*
X176750Y130000I-250J0D01*
G01*
X165250Y145100D02*
G03*
X165250Y145100I-250J0D01*
G01*
X188000Y123000D02*
G03*
X188000Y123000I-250J0D01*
G01*
X232250Y144750D02*
G03*
X232250Y144750I-250J0D01*
G01*
X110750Y78500D02*
G03*
X110750Y78500I-250J0D01*
G01*
X94714Y60214D02*
G03*
X94714Y60214I-250J0D01*
G01*
X88250D02*
G03*
X88250Y60214I-250J0D01*
G01*
X252955Y163345D02*
G03*
X252955Y163345I-250J0D01*
G01*
X51500Y123500D02*
G03*
X51500Y123500I-250J0D01*
G01*
X83550Y76100D02*
G03*
X83550Y76100I-250J0D01*
G01*
X175750Y137000D02*
G03*
X175750Y137000I-250J0D01*
G01*
X185250Y131250D02*
G03*
X185250Y131250I-250J0D01*
G01*
X176250Y115000D02*
G03*
X176250Y115000I-250J0D01*
G01*
X176750Y123000D02*
G03*
X176750Y123000I-250J0D01*
G01*
X188000Y116500D02*
G03*
X188000Y116500I-250J0D01*
G01*
X194000Y246500D02*
G03*
X194000Y246500I-250J0D01*
G01*
X173000Y102750D02*
G03*
X173000Y102750I-250J0D01*
G01*
X163200Y131750D02*
G03*
X163200Y131750I-250J0D01*
G01*
X48000Y229000D02*
G03*
X48000Y229000I-250J0D01*
G01*
X65750Y189586D02*
G03*
X65750Y189586I-250J0D01*
G01*
X306750Y166000D02*
G03*
X306750Y166000I-250J0D01*
G01*
X109500Y174000D02*
G03*
X109500Y174000I-250J0D01*
G01*
X232250Y151250D02*
G03*
X232250Y151250I-250J0D01*
G01*
X256000Y179500D02*
G03*
X256000Y179500I-250J0D01*
G01*
X424250Y112250D02*
G03*
X424250Y112250I-250J0D01*
G01*
X4500Y129389D02*
G03*
X4500Y129389I-250J0D01*
G01*
X4500Y121500D02*
G03*
X4500Y121500I-250J0D01*
G01*
X4500Y42276D02*
G03*
X4500Y42276I-250J0D01*
G01*
Y50718D02*
G03*
X4500Y50718I-250J0D01*
G01*
X4500Y58276D02*
G03*
X4500Y58276I-250J0D01*
G01*
Y66718D02*
G03*
X4500Y66718I-250J0D01*
G01*
X4500Y74276D02*
G03*
X4500Y74276I-250J0D01*
G01*
Y82718D02*
G03*
X4500Y82718I-250J0D01*
G01*
X4493Y90497D02*
G03*
X4493Y90497I-250J0D01*
G01*
X221950Y94455D02*
G03*
X221950Y94455I-250J0D01*
G01*
X137050Y68045D02*
G03*
X137050Y68045I-250J0D01*
G01*
X214455Y199800D02*
G03*
X214455Y199800I-250J0D01*
G01*
X426000Y162250D02*
G03*
X426000Y162250I-250J0D01*
G01*
X449000Y78750D02*
G03*
X449000Y78750I-250J0D01*
G01*
X447500Y107350D02*
G03*
X447500Y107350I-250J0D01*
G01*
X445750Y96000D02*
G03*
X445750Y96000I-250J0D01*
G01*
X435250Y105250D02*
G03*
X435250Y105250I-250J0D01*
G01*
X424250D02*
G03*
X424250Y105250I-250J0D01*
G01*
X157550Y31000D02*
G03*
X157550Y31000I-250J0D01*
G01*
X158879Y20321D02*
G03*
X158879Y20321I-250J0D01*
G01*
X157550Y37750D02*
G03*
X157550Y37750I-250J0D01*
G01*
X288250Y216550D02*
G03*
X288250Y216550I-250J0D01*
G01*
X283315Y106750D02*
G03*
X283315Y106750I-250J0D01*
G01*
X280500Y115000D02*
G03*
X280500Y115000I-250J0D01*
G01*
X236750Y20200D02*
G03*
X236750Y20200I-250J0D01*
G01*
X238200Y37750D02*
G03*
X238200Y37750I-250J0D01*
G01*
Y31000D02*
G03*
X238200Y31000I-250J0D01*
G01*
X4500Y255500D02*
G03*
X4500Y255500I-250J0D01*
G01*
X4500Y235987D02*
G03*
X4500Y235987I-250J0D01*
G01*
X72250Y138750D02*
G03*
X72250Y138750I-250J0D01*
G01*
X160250Y187750D02*
G03*
X160250Y187750I-250J0D01*
G01*
X128750Y179750D02*
G03*
X128750Y179750I-250J0D01*
G01*
X45250Y119000D02*
G03*
X45250Y119000I-250J0D01*
G01*
X160250Y194250D02*
G03*
X160250Y194250I-250J0D01*
G01*
X148000Y190750D02*
G03*
X148000Y190750I-250J0D01*
G01*
X150500Y182250D02*
G03*
X150500Y182250I-250J0D01*
G01*
X137270Y174430D02*
G03*
X137270Y174430I-250J0D01*
G01*
X133250Y165050D02*
G03*
X133250Y165050I-250J0D01*
G01*
X141000Y163250D02*
G03*
X141000Y163250I-250J0D01*
G01*
X159250Y169713D02*
G03*
X159250Y169713I-250J0D01*
G01*
X4500Y146718D02*
G03*
X4500Y146718I-250J0D01*
G01*
Y138276D02*
G03*
X4500Y138276I-250J0D01*
G01*
X15123Y82718D02*
G03*
X15123Y82718I-250J0D01*
G01*
Y74276D02*
G03*
X15123Y74276I-250J0D01*
G01*
X4500Y114718D02*
G03*
X4500Y114718I-250J0D01*
G01*
Y106276D02*
G03*
X4500Y106276I-250J0D01*
G01*
X16800Y64750D02*
G03*
X16800Y64750I-250J0D01*
G01*
X16800Y58000D02*
G03*
X16800Y58000I-250J0D01*
G01*
X4500Y220468D02*
G03*
X4500Y220468I-250J0D01*
G01*
Y213776D02*
G03*
X4500Y213776I-250J0D01*
G01*
X155000Y175750D02*
G03*
X155000Y175750I-250J0D01*
G01*
X394000Y120750D02*
G03*
X394000Y120750I-250J0D01*
G01*
X267250Y81750D02*
G03*
X267250Y81750I-250J0D01*
G01*
X311750Y194000D02*
G03*
X311750Y194000I-250J0D01*
G01*
X254250Y92000D02*
G03*
X254250Y92000I-250J0D01*
G01*
X311250Y183000D02*
G03*
X311250Y183000I-250J0D01*
G01*
X272750Y204750D02*
G03*
X272750Y204750I-250J0D01*
G01*
X307930Y202480D02*
G03*
X307930Y202480I-250J0D01*
G01*
X272750Y216500D02*
G03*
X272750Y216500I-250J0D01*
G01*
X276265Y89700D02*
G03*
X276265Y89700I-250J0D01*
G01*
X338450Y142000D02*
G03*
X338450Y142000I-250J0D01*
G01*
X346500Y190000D02*
G03*
X346500Y190000I-250J0D01*
G01*
X279345Y216550D02*
G03*
X279345Y216550I-250J0D01*
G01*
X331224Y195150D02*
G03*
X331224Y195150I-250J0D01*
G01*
X314500Y218750D02*
G03*
X314500Y218750I-250J0D01*
G01*
X285750Y166750D02*
G03*
X285750Y166750I-250J0D01*
G01*
X277250Y178250D02*
G03*
X277250Y178250I-250J0D01*
G01*
X273000Y115000D02*
G03*
X273000Y115000I-250J0D01*
G01*
X322250Y115250D02*
G03*
X322250Y115250I-250J0D01*
G01*
X316750Y128750D02*
G03*
X316750Y128750I-250J0D01*
G01*
X324843Y145700D02*
G03*
X324843Y145700I-250J0D01*
G01*
X356000Y174250D02*
G03*
X356000Y174250I-250J0D01*
G01*
X317974Y169900D02*
G03*
X317974Y169900I-250J0D01*
G01*
X254974Y195950D02*
G03*
X254974Y195950I-250J0D01*
G01*
X321724Y160650D02*
G03*
X321724Y160650I-250J0D01*
G01*
X305750Y176750D02*
G03*
X305750Y176750I-250J0D01*
G01*
X259625Y86625D02*
G03*
X259625Y86625I-250J0D01*
G01*
X317750Y183000D02*
G03*
X317750Y183000I-250J0D01*
G01*
X262250Y96000D02*
G03*
X262250Y96000I-250J0D01*
G01*
X341250Y132000D02*
G03*
X341250Y132000I-250J0D01*
G01*
X279065Y98750D02*
G03*
X279065Y98750I-250J0D01*
G01*
X290750Y194750D02*
G03*
X290750Y194750I-250J0D01*
G01*
X305200Y191611D02*
G03*
X305200Y191611I-250J0D01*
G01*
X274500Y193000D02*
G03*
X274500Y193000I-250J0D01*
G01*
X343250Y184000D02*
G03*
X343250Y184000I-250J0D01*
G01*
X240500Y115370D02*
G03*
X240500Y115370I-250J0D01*
G01*
X234000D02*
G03*
X234000Y115370I-250J0D01*
G01*
X215000Y136200D02*
G03*
X215000Y136200I-250J0D01*
G01*
X221551D02*
G03*
X221551Y136200I-250J0D01*
G01*
X214905Y145411D02*
G03*
X214905Y145411I-250J0D01*
G01*
Y152581D02*
G03*
X214905Y152581I-250J0D01*
G01*
X229000Y128106D02*
G03*
X229000Y128106I-250J0D01*
G01*
X236000D02*
G03*
X236000Y128106I-250J0D01*
G01*
X332000Y134000D02*
G03*
X332000Y134000I-250J0D01*
G01*
X322224Y122400D02*
G03*
X322224Y122400I-250J0D01*
G01*
X282145Y206250D02*
G03*
X282145Y206250I-250J0D01*
G01*
Y199750D02*
G03*
X282145Y199750I-250J0D01*
G01*
X324474Y173150D02*
G03*
X324474Y173150I-250J0D01*
G01*
X347500Y173000D02*
G03*
X347500Y173000I-250J0D01*
G01*
X325250Y131500D02*
G03*
X325250Y131500I-250J0D01*
G01*
X338250Y115000D02*
G03*
X338250Y115000I-250J0D01*
G01*
X269474Y106900D02*
G03*
X269474Y106900I-250J0D01*
G01*
X277250Y184750D02*
G03*
X277250Y184750I-250J0D01*
G01*
X288805Y175280D02*
G03*
X288805Y175280I-250J0D01*
G01*
Y181805D02*
G03*
X288805Y181805I-250J0D01*
G01*
X307250Y218750D02*
G03*
X307250Y218750I-250J0D01*
G01*
X323250Y192250D02*
G03*
X323250Y192250I-250J0D01*
G01*
X340474Y159400D02*
G03*
X340474Y159400I-250J0D01*
G01*
X335000Y181750D02*
G03*
X335000Y181750I-250J0D01*
G01*
X260524Y135400D02*
G03*
X260524Y135400I-250J0D01*
G01*
X260524Y143100D02*
G03*
X260524Y143100I-250J0D01*
G01*
X260524Y120150D02*
G03*
X260524Y120150I-250J0D01*
G01*
X260524Y127850D02*
G03*
X260524Y127850I-250J0D01*
G01*
X235893Y173495D02*
G03*
X235893Y173495I-250J0D01*
G01*
X228554D02*
G03*
X228554Y173495I-250J0D01*
G01*
X330474Y162650D02*
G03*
X330474Y162650I-250J0D01*
G01*
X264224Y193150D02*
G03*
X264224Y193150I-250J0D01*
G01*
X265495Y182205D02*
G03*
X265495Y182205I-250J0D01*
G01*
X246250Y162500D02*
G03*
X246250Y162500I-250J0D01*
G01*
X197000Y13000D02*
X199000Y16500D01*
X195000Y16500D02*
X197000Y13000D01*
X195000D02*
X199000D01*
X195000Y16500D02*
X199000Y16500D01*
X184250Y13000D02*
X186250Y16500D01*
X182250D02*
X184250Y13000D01*
X182250Y13000D02*
X186250Y13000D01*
X182250Y16500D02*
X186250D01*
D217*
X377500Y217500D02*
D03*
Y182000D02*
D03*
X144000Y132250D02*
D03*
X95750Y90250D02*
D03*
X83250Y105000D02*
D03*
X90500Y137000D02*
D03*
X116750Y7750D02*
D03*
X154750Y54250D02*
D03*
X116750D02*
D03*
X154750Y7750D02*
D03*
X240500Y54250D02*
D03*
X278500Y7750D02*
D03*
Y54250D02*
D03*
X240500Y7750D02*
D03*
X201000Y107500D02*
D03*
D218*
X22500Y225250D02*
X20001D01*
Y226500D01*
X20417Y226916D01*
X21250D01*
X21667Y226500D01*
Y225250D01*
Y226083D02*
X22500Y226916D01*
Y227749D02*
Y228582D01*
Y228166D01*
X20001D01*
X20417Y227749D01*
X20001Y231498D02*
Y229832D01*
X21250D01*
X20834Y230665D01*
Y231081D01*
X21250Y231498D01*
X22083D01*
X22500Y231081D01*
Y230248D01*
X22083Y229832D01*
X22500Y233997D02*
Y232331D01*
X20834Y233997D01*
X20417D01*
X20001Y233581D01*
Y232747D01*
X20417Y232331D01*
X13417Y217916D02*
X13001Y217500D01*
Y216667D01*
X13417Y216250D01*
X15084D01*
X15500Y216667D01*
Y217500D01*
X15084Y217916D01*
X15500Y218749D02*
Y219582D01*
Y219166D01*
X13001D01*
X13417Y218749D01*
X13001Y222498D02*
Y220832D01*
X14250D01*
X13834Y221665D01*
Y222081D01*
X14250Y222498D01*
X15084D01*
X15500Y222081D01*
Y221248D01*
X15084Y220832D01*
X13001Y224997D02*
X13417Y224164D01*
X14250Y223331D01*
X15084D01*
X15500Y223748D01*
Y224581D01*
X15084Y224997D01*
X14667D01*
X14250Y224581D01*
Y223331D01*
X21416Y219583D02*
X21000Y219999D01*
X20166D01*
X19750Y219583D01*
Y217917D01*
X20166Y217500D01*
X21000D01*
X21416Y217917D01*
X22249Y217500D02*
X23082D01*
X22666D01*
Y219999D01*
X22249Y219583D01*
X25998Y219999D02*
X24332D01*
Y218750D01*
X25165Y219166D01*
X25581D01*
X25998Y218750D01*
Y217917D01*
X25581Y217500D01*
X24748D01*
X24332Y217917D01*
X28497Y219999D02*
X26831D01*
Y218750D01*
X27664Y219166D01*
X28081D01*
X28497Y218750D01*
Y217917D01*
X28081Y217500D01*
X27248D01*
X26831Y217917D01*
X236751Y158249D02*
X236251Y157750D01*
Y156750D01*
X236751Y156250D01*
X238750D01*
X239250Y156750D01*
Y157750D01*
X238750Y158249D01*
X236751Y159249D02*
X236251Y159749D01*
Y160749D01*
X236751Y161248D01*
X237251D01*
X237750Y160749D01*
Y160249D01*
Y160749D01*
X238250Y161248D01*
X238750D01*
X239250Y160749D01*
Y159749D01*
X238750Y159249D01*
X236251Y164247D02*
X236751Y163248D01*
X237750Y162248D01*
X238750D01*
X239250Y162748D01*
Y163748D01*
X238750Y164247D01*
X238250D01*
X237750Y163748D01*
Y162248D01*
X158990Y158796D02*
Y161795D01*
X160489D01*
X160989Y161295D01*
Y160296D01*
X160489Y159796D01*
X158990D01*
X159990D02*
X160989Y158796D01*
X163988Y161795D02*
X161989D01*
Y160296D01*
X162988Y160795D01*
X163488D01*
X163988Y160296D01*
Y159296D01*
X163488Y158796D01*
X162489D01*
X161989Y159296D01*
X164988Y158796D02*
X165987D01*
X165488D01*
Y161795D01*
X164988Y161295D01*
X169500Y142528D02*
Y145527D01*
X171000D01*
X171499Y145028D01*
Y144028D01*
X171000Y143528D01*
X169500D01*
X170500D02*
X171499Y142528D01*
X174498Y145527D02*
X173499Y145028D01*
X172499Y144028D01*
Y143028D01*
X172999Y142528D01*
X173999D01*
X174498Y143028D01*
Y143528D01*
X173999Y144028D01*
X172499D01*
X175498Y143028D02*
X175998Y142528D01*
X176998D01*
X177497Y143028D01*
Y145028D01*
X176998Y145527D01*
X175998D01*
X175498Y145028D01*
Y144528D01*
X175998Y144028D01*
X177497D01*
X92250Y68250D02*
Y71249D01*
X93750D01*
X94249Y70749D01*
Y69749D01*
X93750Y69250D01*
X92250D01*
X93250D02*
X94249Y68250D01*
X95249Y70749D02*
X95749Y71249D01*
X96749D01*
X97248Y70749D01*
Y70249D01*
X96749Y69749D01*
X97248Y69250D01*
Y68750D01*
X96749Y68250D01*
X95749D01*
X95249Y68750D01*
Y69250D01*
X95749Y69749D01*
X95249Y70249D01*
Y70749D01*
X95749Y69749D02*
X96749D01*
X98248Y68250D02*
X99248D01*
X98748D01*
Y71249D01*
X98248Y70749D01*
X82251Y108999D02*
X81751Y108499D01*
Y107500D01*
X82251Y107000D01*
X84250D01*
X84750Y107500D01*
Y108499D01*
X84250Y108999D01*
X84750Y109999D02*
Y110999D01*
Y110499D01*
X81751D01*
X82251Y109999D01*
X84750Y114498D02*
Y112498D01*
X82751Y114498D01*
X82251D01*
X81751Y113998D01*
Y112998D01*
X82251Y112498D01*
X84750Y116997D02*
X81751D01*
X83251Y115497D01*
Y117497D01*
X87681Y171353D02*
Y172060D01*
X86974Y172767D01*
X86267D01*
X84853Y171353D01*
Y170646D01*
X85560Y169940D01*
X86267D01*
X86621Y168879D02*
X87327Y168172D01*
X86974Y168526D01*
X89095Y170646D01*
X88388D01*
X91922Y167819D02*
X90508Y169233D01*
X89448Y168172D01*
X90508Y167819D01*
X90862Y167466D01*
Y166759D01*
X90155Y166052D01*
X89448D01*
X88741Y166759D01*
Y167466D01*
X91922Y163578D02*
X90508Y164991D01*
X93336D01*
X93689Y165345D01*
Y166052D01*
X92983Y166759D01*
X92276D01*
X92147Y155181D02*
X91440D01*
X90733Y154474D01*
Y153767D01*
X92147Y152353D01*
X92853D01*
X93560Y153060D01*
Y153767D01*
X94621Y154121D02*
X95328Y154827D01*
X94974Y154474D01*
X92853Y156595D01*
Y155888D01*
X95681Y159422D02*
X94267Y158008D01*
X95328Y156948D01*
X95681Y158008D01*
X96034Y158362D01*
X96741D01*
X97448Y157655D01*
Y156948D01*
X96741Y156241D01*
X96034D01*
X98508Y158008D02*
X99215Y158715D01*
X98862Y158362D01*
X96741Y160483D01*
Y159776D01*
X96147Y167431D02*
X95440D01*
X94733Y166724D01*
Y166017D01*
X96147Y164603D01*
X96854D01*
X97560Y165310D01*
Y166017D01*
X98621Y166371D02*
X99327Y167078D01*
X98974Y166724D01*
X96854Y168845D01*
Y168138D01*
X99681Y171672D02*
X98267Y170258D01*
X99327Y169198D01*
X99681Y170258D01*
X100034Y170612D01*
X100741D01*
X101448Y169905D01*
Y169198D01*
X100741Y168491D01*
X100034D01*
X100741Y172026D02*
Y172733D01*
X101448Y173439D01*
X102155D01*
X103569Y172026D01*
Y171319D01*
X102862Y170612D01*
X102155D01*
X100741Y172026D01*
X114249Y172749D02*
X113750Y173249D01*
X112750D01*
X112250Y172749D01*
Y170750D01*
X112750Y170250D01*
X113750D01*
X114249Y170750D01*
X115249Y170250D02*
X116249D01*
X115749D01*
Y173249D01*
X115249Y172749D01*
X119248Y170250D02*
Y173249D01*
X117748Y171749D01*
X119748D01*
X122747Y173249D02*
X120747D01*
Y171749D01*
X121747Y172249D01*
X122247D01*
X122747Y171749D01*
Y170750D01*
X122247Y170250D01*
X121247D01*
X120747Y170750D01*
X114749Y165999D02*
X114249Y166499D01*
X113250D01*
X112750Y165999D01*
Y164000D01*
X113250Y163500D01*
X114249D01*
X114749Y164000D01*
X115749Y163500D02*
X116749D01*
X116249D01*
Y166499D01*
X115749Y165999D01*
X119748Y163500D02*
Y166499D01*
X118248Y165000D01*
X120248D01*
X122747Y163500D02*
Y166499D01*
X121247Y165000D01*
X123247D01*
X115751Y128249D02*
X115251Y127750D01*
Y126750D01*
X115751Y126250D01*
X117750D01*
X118250Y126750D01*
Y127750D01*
X117750Y128249D01*
X118250Y129249D02*
Y130249D01*
Y129749D01*
X115251D01*
X115751Y129249D01*
Y131748D02*
X115251Y132248D01*
Y133248D01*
X115751Y133748D01*
X116251D01*
X116750Y133248D01*
Y132748D01*
Y133248D01*
X117250Y133748D01*
X117750D01*
X118250Y133248D01*
Y132248D01*
X117750Y131748D01*
X115251Y134747D02*
Y136747D01*
X115751D01*
X117750Y134747D01*
X118250D01*
X111499Y118999D02*
X110999Y119499D01*
X110000D01*
X109500Y118999D01*
Y117000D01*
X110000Y116500D01*
X110999D01*
X111499Y117000D01*
X112499Y116500D02*
X113499D01*
X112999D01*
Y119499D01*
X112499Y118999D01*
X114998D02*
X115498Y119499D01*
X116498D01*
X116998Y118999D01*
Y118499D01*
X116498Y117999D01*
X115998D01*
X116498D01*
X116998Y117500D01*
Y117000D01*
X116498Y116500D01*
X115498D01*
X114998Y117000D01*
X119997Y119499D02*
X118997Y118999D01*
X117997Y117999D01*
Y117000D01*
X118497Y116500D01*
X119497D01*
X119997Y117000D01*
Y117500D01*
X119497Y117999D01*
X117997D01*
X117249Y103499D02*
X116749Y103999D01*
X115750D01*
X115250Y103499D01*
Y101500D01*
X115750Y101000D01*
X116749D01*
X117249Y101500D01*
X118249Y101000D02*
X119249D01*
X118749D01*
Y103999D01*
X118249Y103499D01*
X120748D02*
X121248Y103999D01*
X122248D01*
X122748Y103499D01*
Y102999D01*
X122248Y102500D01*
X121748D01*
X122248D01*
X122748Y102000D01*
Y101500D01*
X122248Y101000D01*
X121248D01*
X120748Y101500D01*
X125747Y103999D02*
X123747D01*
Y102500D01*
X124747Y102999D01*
X125247D01*
X125747Y102500D01*
Y101500D01*
X125247Y101000D01*
X124247D01*
X123747Y101500D01*
X134499Y154749D02*
X134000Y155249D01*
X133000D01*
X132500Y154749D01*
Y152750D01*
X133000Y152250D01*
X134000D01*
X134499Y152750D01*
X135499Y152250D02*
X136499D01*
X135999D01*
Y155249D01*
X135499Y154749D01*
X137998D02*
X138498Y155249D01*
X139498D01*
X139998Y154749D01*
Y154249D01*
X139498Y153750D01*
X138998D01*
X139498D01*
X139998Y153250D01*
Y152750D01*
X139498Y152250D01*
X138498D01*
X137998Y152750D01*
X140997Y152250D02*
X141997D01*
X141497D01*
Y155249D01*
X140997Y154749D01*
X149001Y153249D02*
X148501Y152750D01*
Y151750D01*
X149001Y151250D01*
X151000D01*
X151500Y151750D01*
Y152750D01*
X151000Y153249D01*
X151500Y154249D02*
Y155249D01*
Y154749D01*
X148501D01*
X149001Y154249D01*
Y156748D02*
X148501Y157248D01*
Y158248D01*
X149001Y158748D01*
X149501D01*
X150000Y158248D01*
Y157748D01*
Y158248D01*
X150500Y158748D01*
X151000D01*
X151500Y158248D01*
Y157248D01*
X151000Y156748D01*
X149001Y159747D02*
X148501Y160247D01*
Y161247D01*
X149001Y161747D01*
X151000D01*
X151500Y161247D01*
Y160247D01*
X151000Y159747D01*
X149001D01*
X134647Y142431D02*
X133940D01*
X133233Y141724D01*
Y141017D01*
X134647Y139603D01*
X135353D01*
X136060Y140310D01*
Y141017D01*
X137121Y141371D02*
X137828Y142078D01*
X137474Y141724D01*
X135353Y143845D01*
Y143138D01*
X140302Y144552D02*
X138888Y143138D01*
Y145965D01*
X138534Y146319D01*
X137828D01*
X137121Y145612D01*
Y144905D01*
X140655Y145612D02*
X141362D01*
X142069Y146319D01*
Y147026D01*
X140655Y148439D01*
X139948D01*
X139241Y147732D01*
Y147026D01*
X139595Y146672D01*
X140302D01*
X141362Y147732D01*
X115499Y112999D02*
X115000Y113499D01*
X114000D01*
X113500Y112999D01*
Y111000D01*
X114000Y110500D01*
X115000D01*
X115499Y111000D01*
X116499Y110500D02*
X117499D01*
X116999D01*
Y113499D01*
X116499Y112999D01*
X120998Y110500D02*
X118998D01*
X120998Y112499D01*
Y112999D01*
X120498Y113499D01*
X119498D01*
X118998Y112999D01*
X121997D02*
X122497Y113499D01*
X123497D01*
X123997Y112999D01*
Y112499D01*
X123497Y112000D01*
X123997Y111500D01*
Y111000D01*
X123497Y110500D01*
X122497D01*
X121997Y111000D01*
Y111500D01*
X122497Y112000D01*
X121997Y112499D01*
Y112999D01*
X122497Y112000D02*
X123497D01*
X91431Y132103D02*
Y132810D01*
X90724Y133517D01*
X90017D01*
X88603Y132103D01*
Y131397D01*
X89310Y130690D01*
X90017D01*
X90371Y129629D02*
X91077Y128923D01*
X90724Y129276D01*
X92845Y131397D01*
X92138D01*
X93552Y126448D02*
X92138Y127862D01*
X94965D01*
X95319Y128216D01*
Y128923D01*
X94612Y129629D01*
X93905D01*
X95672Y124328D02*
X94258Y125742D01*
X97086D01*
X97439Y126095D01*
Y126802D01*
X96733Y127509D01*
X96026D01*
X103630Y148353D02*
Y149060D01*
X102923Y149767D01*
X102217D01*
X100803Y148353D01*
Y147647D01*
X101510Y146940D01*
X102217D01*
X102570Y145879D02*
X103277Y145173D01*
X102923Y145526D01*
X105044Y147647D01*
X104337D01*
X105751Y142698D02*
X104337Y144112D01*
X107165D01*
X107518Y144466D01*
Y145173D01*
X106811Y145879D01*
X106104D01*
X106458Y141992D02*
X107165Y141285D01*
X106811Y141638D01*
X108932Y143759D01*
X108225D01*
X125501Y159249D02*
X125001Y158750D01*
Y157750D01*
X125501Y157250D01*
X127500D01*
X128000Y157750D01*
Y158750D01*
X127500Y159249D01*
X128000Y160249D02*
Y161249D01*
Y160749D01*
X125001D01*
X125501Y160249D01*
X128000Y164748D02*
Y162748D01*
X126001Y164748D01*
X125501D01*
X125001Y164248D01*
Y163248D01*
X125501Y162748D01*
Y165747D02*
X125001Y166247D01*
Y167247D01*
X125501Y167747D01*
X127500D01*
X128000Y167247D01*
Y166247D01*
X127500Y165747D01*
X125501D01*
X101501Y108499D02*
X101001Y107999D01*
Y107000D01*
X101501Y106500D01*
X103500D01*
X104000Y107000D01*
Y107999D01*
X103500Y108499D01*
X104000Y109499D02*
Y110499D01*
Y109999D01*
X101001D01*
X101501Y109499D01*
X104000Y111998D02*
Y112998D01*
Y112498D01*
X101001D01*
X101501Y111998D01*
X104000Y115997D02*
X101001D01*
X102500Y114497D01*
Y116497D01*
X104181Y138853D02*
Y139560D01*
X103474Y140267D01*
X102767D01*
X101353Y138853D01*
Y138147D01*
X102060Y137440D01*
X102767D01*
X103121Y136379D02*
X103827Y135673D01*
X103474Y136026D01*
X105595Y138147D01*
X104888D01*
Y134612D02*
X105595Y133905D01*
X105241Y134259D01*
X107362Y136379D01*
X106655D01*
X107008Y133198D02*
Y132492D01*
X107715Y131785D01*
X108422D01*
X109836Y133198D01*
Y133905D01*
X109129Y134612D01*
X108422D01*
X108069Y134259D01*
Y133552D01*
X109129Y132492D01*
X172999Y130999D02*
X172500Y131499D01*
X171500D01*
X171000Y130999D01*
Y129000D01*
X171500Y128500D01*
X172500D01*
X172999Y129000D01*
X173999Y128500D02*
X174999D01*
X174499D01*
Y131499D01*
X173999Y130999D01*
X176498D02*
X176998Y131499D01*
X177998D01*
X178498Y130999D01*
Y130499D01*
X177998Y130000D01*
X178498Y129500D01*
Y129000D01*
X177998Y128500D01*
X176998D01*
X176498Y129000D01*
Y129500D01*
X176998Y130000D01*
X176498Y130499D01*
Y130999D01*
X176998Y130000D02*
X177998D01*
X179497Y128500D02*
X180497D01*
X179997D01*
Y131499D01*
X179497Y130999D01*
X158001Y144749D02*
X157501Y144249D01*
Y143250D01*
X158001Y142750D01*
X160000D01*
X160500Y143250D01*
Y144249D01*
X160000Y144749D01*
X160500Y145749D02*
Y146749D01*
Y146249D01*
X157501D01*
X158001Y145749D01*
Y148248D02*
X157501Y148748D01*
Y149748D01*
X158001Y150248D01*
X158501D01*
X159001Y149748D01*
X159500Y150248D01*
X160000D01*
X160500Y149748D01*
Y148748D01*
X160000Y148248D01*
X159500D01*
X159001Y148748D01*
X158501Y148248D01*
X158001D01*
X159001Y148748D02*
Y149748D01*
X157501Y153247D02*
Y151247D01*
X159001D01*
X158501Y152247D01*
Y152747D01*
X159001Y153247D01*
X160000D01*
X160500Y152747D01*
Y151747D01*
X160000Y151247D01*
X230000Y143106D02*
Y146105D01*
X231500D01*
X231999Y145605D01*
Y144606D01*
X231500Y144106D01*
X230000D01*
X231000D02*
X231999Y143106D01*
X234998Y146105D02*
X232999D01*
Y144606D01*
X233999Y145106D01*
X234499D01*
X234998Y144606D01*
Y143606D01*
X234499Y143106D01*
X233499D01*
X232999Y143606D01*
X254250Y159750D02*
X251251D01*
Y161250D01*
X251751Y161749D01*
X252750D01*
X253250Y161250D01*
Y159750D01*
Y160750D02*
X254250Y161749D01*
Y162749D02*
Y163749D01*
Y163249D01*
X251251D01*
X251751Y162749D01*
X254250Y166748D02*
X251251D01*
X252750Y165248D01*
Y167248D01*
X84750Y72250D02*
X81751D01*
Y73749D01*
X82251Y74249D01*
X83251D01*
X83750Y73749D01*
Y72250D01*
Y73250D02*
X84750Y74249D01*
X82251Y75249D02*
X81751Y75749D01*
Y76748D01*
X82251Y77248D01*
X82751D01*
X83251Y76748D01*
X83750Y77248D01*
X84250D01*
X84750Y76748D01*
Y75749D01*
X84250Y75249D01*
X83750D01*
X83251Y75749D01*
X82751Y75249D01*
X82251D01*
X83251Y75749D02*
Y76748D01*
X84750Y79748D02*
X81751D01*
X83251Y78248D01*
Y80247D01*
X171250Y135500D02*
Y138499D01*
X172750D01*
X173249Y137999D01*
Y137000D01*
X172750Y136500D01*
X171250D01*
X172250D02*
X173249Y135500D01*
X174249Y138499D02*
X176248D01*
Y137999D01*
X174249Y136000D01*
Y135500D01*
X177248Y137999D02*
X177748Y138499D01*
X178748D01*
X179247Y137999D01*
Y137499D01*
X178748Y137000D01*
X178248D01*
X178748D01*
X179247Y136500D01*
Y136000D01*
X178748Y135500D01*
X177748D01*
X177248Y136000D01*
X171750Y113500D02*
Y116499D01*
X173249D01*
X173749Y115999D01*
Y115000D01*
X173249Y114500D01*
X171750D01*
X172750D02*
X173749Y113500D01*
X176748Y116499D02*
X175749Y115999D01*
X174749Y115000D01*
Y114000D01*
X175249Y113500D01*
X176248D01*
X176748Y114000D01*
Y114500D01*
X176248Y115000D01*
X174749D01*
X177748Y116499D02*
X179747D01*
Y115999D01*
X177748Y114000D01*
Y113500D01*
X172250Y121500D02*
Y124499D01*
X173750D01*
X174249Y123999D01*
Y123000D01*
X173750Y122500D01*
X172250D01*
X173250D02*
X174249Y121500D01*
X175249Y124499D02*
X177248D01*
Y123999D01*
X175249Y122000D01*
Y121500D01*
X179748D02*
Y124499D01*
X178248Y123000D01*
X180247D01*
X161501Y128249D02*
Y126250D01*
X163001D01*
Y127250D01*
Y126250D01*
X164500D01*
Y129249D02*
X161501D01*
Y130749D01*
X162001Y131248D01*
X163001D01*
X163500Y130749D01*
Y129249D01*
Y130249D02*
X164500Y131248D01*
X162001Y132248D02*
X161501Y132748D01*
Y133748D01*
X162001Y134247D01*
X162501D01*
X163001Y133748D01*
Y133248D01*
Y133748D01*
X163500Y134247D01*
X164000D01*
X164500Y133748D01*
Y132748D01*
X164000Y132248D01*
Y135247D02*
X164500Y135747D01*
Y136747D01*
X164000Y137246D01*
X162001D01*
X161501Y136747D01*
Y135747D01*
X162001Y135247D01*
X162501D01*
X163001Y135747D01*
Y137246D01*
X307885Y162250D02*
X304886D01*
Y163750D01*
X305386Y164249D01*
X306386D01*
X306886Y163750D01*
Y162250D01*
Y163250D02*
X307885Y164249D01*
Y165249D02*
Y166249D01*
Y165749D01*
X304886D01*
X305386Y165249D01*
X304886Y169748D02*
X305386Y168748D01*
X306386Y167748D01*
X307385D01*
X307885Y168248D01*
Y169248D01*
X307385Y169748D01*
X306886D01*
X306386Y169248D01*
Y167748D01*
X110250Y171500D02*
X107251D01*
Y172999D01*
X107751Y173499D01*
X108750D01*
X109250Y172999D01*
Y171500D01*
Y172500D02*
X110250Y173499D01*
Y174499D02*
Y175499D01*
Y174999D01*
X107251D01*
X107751Y174499D01*
X107251Y178998D02*
Y176998D01*
X108750D01*
X108251Y177998D01*
Y178498D01*
X108750Y178998D01*
X109750D01*
X110250Y178498D01*
Y177498D01*
X109750Y176998D01*
X230200Y149250D02*
Y152249D01*
X231700D01*
X232199Y151749D01*
Y150750D01*
X231700Y150250D01*
X230200D01*
X231200D02*
X232199Y149250D01*
X233199Y152249D02*
X235198D01*
Y151749D01*
X233199Y149750D01*
Y149250D01*
X257000Y176500D02*
X254001D01*
Y177999D01*
X254501Y178499D01*
X255501D01*
X256000Y177999D01*
Y176500D01*
Y177500D02*
X257000Y178499D01*
X254001Y181498D02*
X254501Y180499D01*
X255501Y179499D01*
X256500D01*
X257000Y179999D01*
Y180998D01*
X256500Y181498D01*
X256000D01*
X255501Y180998D01*
Y179499D01*
X379729Y156750D02*
Y159749D01*
X380729Y158749D01*
X381729Y159749D01*
Y156750D01*
X382728D02*
Y159749D01*
X384728Y156750D01*
Y159749D01*
X385727Y159249D02*
X386227Y159749D01*
X387227D01*
X387727Y159249D01*
Y158749D01*
X387227Y158250D01*
X386727D01*
X387227D01*
X387727Y157750D01*
Y157250D01*
X387227Y156750D01*
X386227D01*
X385727Y157250D01*
X388726Y159749D02*
X390726D01*
Y159249D01*
X388726Y157250D01*
Y156750D01*
X378000Y166500D02*
Y169499D01*
X379000Y168499D01*
X379999Y169499D01*
Y166500D01*
X380999D02*
Y169499D01*
X382998Y166500D01*
Y169499D01*
X385498Y166500D02*
Y169499D01*
X383998Y167999D01*
X385997D01*
X386997Y168999D02*
X387497Y169499D01*
X388497D01*
X388997Y168999D01*
Y168499D01*
X388497Y167999D01*
X387997D01*
X388497D01*
X388997Y167500D01*
Y167000D01*
X388497Y166500D01*
X387497D01*
X386997Y167000D01*
X157000Y186250D02*
Y189249D01*
X158499D01*
X158999Y188749D01*
Y187750D01*
X158499Y187250D01*
X157000D01*
X158000D02*
X158999Y186250D01*
X159999Y188749D02*
X160499Y189249D01*
X161499D01*
X161998Y188749D01*
Y188249D01*
X161499Y187750D01*
X160999D01*
X161499D01*
X161998Y187250D01*
Y186750D01*
X161499Y186250D01*
X160499D01*
X159999Y186750D01*
X162998Y189249D02*
X164997D01*
Y188749D01*
X162998Y186750D01*
Y186250D01*
X156750Y192500D02*
Y195499D01*
X158250D01*
X158749Y194999D01*
Y194000D01*
X158250Y193500D01*
X156750D01*
X157750D02*
X158749Y192500D01*
X161248D02*
Y195499D01*
X159749Y194000D01*
X161748D01*
X162748Y192500D02*
X163748D01*
X163248D01*
Y195499D01*
X162748Y194999D01*
X144750Y189250D02*
Y192249D01*
X146250D01*
X146749Y191749D01*
Y190749D01*
X146250Y190250D01*
X144750D01*
X145750D02*
X146749Y189250D01*
X147749Y191749D02*
X148249Y192249D01*
X149249D01*
X149748Y191749D01*
Y191249D01*
X149249Y190749D01*
X148749D01*
X149249D01*
X149748Y190250D01*
Y189750D01*
X149249Y189250D01*
X148249D01*
X147749Y189750D01*
X152747Y192249D02*
X151748Y191749D01*
X150748Y190749D01*
Y189750D01*
X151248Y189250D01*
X152248D01*
X152747Y189750D01*
Y190250D01*
X152248Y190749D01*
X150748D01*
X146500Y180500D02*
Y183499D01*
X147999D01*
X148499Y182999D01*
Y182000D01*
X147999Y181500D01*
X146500D01*
X147500D02*
X148499Y180500D01*
X149499Y182999D02*
X149999Y183499D01*
X150999D01*
X151498Y182999D01*
Y182499D01*
X150999Y182000D01*
X150499D01*
X150999D01*
X151498Y181500D01*
Y181000D01*
X150999Y180500D01*
X149999D01*
X149499Y181000D01*
X154497Y183499D02*
X152498D01*
Y182000D01*
X153498Y182499D01*
X153998D01*
X154497Y182000D01*
Y181000D01*
X153998Y180500D01*
X152998D01*
X152498Y181000D01*
X133250Y176500D02*
X135371Y178621D01*
X136431Y177560D01*
Y176853D01*
X135724Y176147D01*
X135017D01*
X133957Y177207D01*
X134664Y176500D02*
X134664Y175086D01*
X136431Y173319D02*
X138552Y175440D01*
X136431D01*
X137845Y174026D01*
X139258D02*
X139965D01*
X140672Y173319D01*
Y172612D01*
X140319Y172259D01*
X139612D01*
X139258Y172612D01*
X139612Y172259D01*
Y171552D01*
X139258Y171198D01*
X138552D01*
X137845Y171905D01*
Y172612D01*
X134250Y160750D02*
X131251D01*
Y162250D01*
X131751Y162749D01*
X132751D01*
X133250Y162250D01*
Y160750D01*
Y161750D02*
X134250Y162749D01*
Y165249D02*
X131251D01*
X132751Y163749D01*
Y165748D01*
X131251Y168747D02*
Y166748D01*
X132751D01*
X132251Y167748D01*
Y168248D01*
X132751Y168747D01*
X133750D01*
X134250Y168248D01*
Y167248D01*
X133750Y166748D01*
X142250Y159500D02*
X139251D01*
Y161000D01*
X139751Y161499D01*
X140751D01*
X141250Y161000D01*
Y159500D01*
Y160500D02*
X142250Y161499D01*
Y163999D02*
X139251D01*
X140751Y162499D01*
Y164498D01*
X142250Y166998D02*
X139251D01*
X140751Y165498D01*
Y167497D01*
X156000Y167750D02*
Y170749D01*
X157500D01*
X157999Y170249D01*
Y169249D01*
X157500Y168750D01*
X156000D01*
X157000D02*
X157999Y167750D01*
X160499D02*
Y170749D01*
X158999Y169249D01*
X160998D01*
X163997Y167750D02*
X161998D01*
X163997Y169749D01*
Y170249D01*
X163498Y170749D01*
X162498D01*
X161998Y170249D01*
X152249Y177249D02*
X151749Y177749D01*
X150750D01*
X150250Y177249D01*
Y175250D01*
X150750Y174750D01*
X151749D01*
X152249Y175250D01*
X153249Y174750D02*
X154249D01*
X153749D01*
Y177749D01*
X153249Y177249D01*
X155748D02*
X156248Y177749D01*
X157248D01*
X157748Y177249D01*
Y175250D01*
X157248Y174750D01*
X156248D01*
X155748Y175250D01*
Y177249D01*
X160747Y177749D02*
X158747D01*
Y176250D01*
X159747Y176749D01*
X160247D01*
X160747Y176250D01*
Y175250D01*
X160247Y174750D01*
X159247D01*
X158747Y175250D01*
X262750Y80250D02*
Y83249D01*
X264249D01*
X264749Y82749D01*
Y81749D01*
X264249Y81250D01*
X262750D01*
X263750D02*
X264749Y80250D01*
X265749Y82749D02*
X266249Y83249D01*
X267248D01*
X267748Y82749D01*
Y82249D01*
X267248Y81749D01*
X266749D01*
X267248D01*
X267748Y81250D01*
Y80750D01*
X267248Y80250D01*
X266249D01*
X265749Y80750D01*
X268748Y82749D02*
X269248Y83249D01*
X270248D01*
X270747Y82749D01*
Y82249D01*
X270248Y81749D01*
X269748D01*
X270248D01*
X270747Y81250D01*
Y80750D01*
X270248Y80250D01*
X269248D01*
X268748Y80750D01*
X313250Y190500D02*
X310251D01*
Y191999D01*
X310751Y192499D01*
X311751D01*
X312250Y191999D01*
Y190500D01*
Y191500D02*
X313250Y192499D01*
X310751Y193499D02*
X310251Y193999D01*
Y194998D01*
X310751Y195498D01*
X311251D01*
X311751Y194998D01*
Y194499D01*
Y194998D01*
X312250Y195498D01*
X312750D01*
X313250Y194998D01*
Y193999D01*
X312750Y193499D01*
X313250Y198497D02*
Y196498D01*
X311251Y198497D01*
X310751D01*
X310251Y197998D01*
Y196998D01*
X310751Y196498D01*
X315975Y167649D02*
Y165650D01*
X317474D01*
Y166650D01*
Y165650D01*
X318974D01*
Y168649D02*
X315975D01*
Y170149D01*
X316475Y170648D01*
X317474D01*
X317974Y170149D01*
Y168649D01*
Y169649D02*
X318974Y170648D01*
X316475Y171648D02*
X315975Y172148D01*
Y173148D01*
X316475Y173647D01*
X316975D01*
X317474Y173148D01*
X317974Y173647D01*
X318474D01*
X318974Y173148D01*
Y172148D01*
X318474Y171648D01*
X317974D01*
X317474Y172148D01*
X316975Y171648D01*
X316475D01*
X317474Y172148D02*
Y173148D01*
X114681Y151853D02*
Y152560D01*
X113974Y153267D01*
X113267D01*
X111853Y151853D01*
Y151147D01*
X112560Y150440D01*
X113267D01*
X113621Y149379D02*
X114327Y148673D01*
X113974Y149026D01*
X116095Y151147D01*
X115388D01*
Y147612D02*
X116095Y146905D01*
X115741Y147259D01*
X117862Y149379D01*
X117155D01*
X119276Y147966D02*
X120689Y146552D01*
X120336Y146198D01*
X117508Y146198D01*
X117155Y145845D01*
X316001Y180749D02*
X315501Y180250D01*
Y179250D01*
X316001Y178750D01*
X318000D01*
X318500Y179250D01*
Y180250D01*
X318000Y180749D01*
Y181749D02*
X318500Y182249D01*
Y183249D01*
X318000Y183748D01*
X316001D01*
X315501Y183249D01*
Y182249D01*
X316001Y181749D01*
X316501D01*
X317001Y182249D01*
Y183748D01*
X318500Y186747D02*
Y184748D01*
X316501Y186747D01*
X316001D01*
X315501Y186248D01*
Y185248D01*
X316001Y184748D01*
X276749Y99749D02*
X276250Y100249D01*
X275250D01*
X274750Y99749D01*
Y97750D01*
X275250Y97250D01*
X276250D01*
X276749Y97750D01*
X277749Y99749D02*
X278249Y100249D01*
X279249D01*
X279748Y99749D01*
Y99249D01*
X279249Y98750D01*
X279748Y98250D01*
Y97750D01*
X279249Y97250D01*
X278249D01*
X277749Y97750D01*
Y98250D01*
X278249Y98750D01*
X277749Y99249D01*
Y99749D01*
X278249Y98750D02*
X279249D01*
X280748Y100249D02*
X282747D01*
Y99749D01*
X280748Y97750D01*
Y97250D01*
X239251Y113249D02*
X238751Y112750D01*
Y111750D01*
X239251Y111250D01*
X241250D01*
X241750Y111750D01*
Y112750D01*
X241250Y113249D01*
X239251Y114249D02*
X238751Y114749D01*
Y115749D01*
X239251Y116248D01*
X239751D01*
X240250Y115749D01*
X240750Y116248D01*
X241250D01*
X241750Y115749D01*
Y114749D01*
X241250Y114249D01*
X240750D01*
X240250Y114749D01*
X239751Y114249D01*
X239251D01*
X240250Y114749D02*
Y115749D01*
X241750Y119247D02*
Y117248D01*
X239751Y119247D01*
X239251D01*
X238751Y118748D01*
Y117748D01*
X239251Y117248D01*
X232751Y113620D02*
X232251Y113120D01*
Y112120D01*
X232751Y111620D01*
X234750D01*
X235250Y112120D01*
Y113120D01*
X234750Y113620D01*
X232751Y114619D02*
X232251Y115119D01*
Y116119D01*
X232751Y116619D01*
X233251D01*
X233750Y116119D01*
X234250Y116619D01*
X234750D01*
X235250Y116119D01*
Y115119D01*
X234750Y114619D01*
X234250D01*
X233750Y115119D01*
X233251Y114619D01*
X232751D01*
X233750Y115119D02*
Y116119D01*
X235250Y117618D02*
Y118618D01*
Y118118D01*
X232251D01*
X232751Y117618D01*
X213751Y134499D02*
X213251Y134000D01*
Y133000D01*
X213751Y132500D01*
X215750D01*
X216250Y133000D01*
Y134000D01*
X215750Y134499D01*
X213751Y135499D02*
X213251Y135999D01*
Y136999D01*
X213751Y137498D01*
X214251D01*
X214750Y136999D01*
X215250Y137498D01*
X215750D01*
X216250Y136999D01*
Y135999D01*
X215750Y135499D01*
X215250D01*
X214750Y135999D01*
X214251Y135499D01*
X213751D01*
X214750Y135999D02*
Y136999D01*
X213751Y138498D02*
X213251Y138998D01*
Y139998D01*
X213751Y140497D01*
X215750D01*
X216250Y139998D01*
Y138998D01*
X215750Y138498D01*
X213751D01*
X220609Y134249D02*
X220109Y133750D01*
Y132750D01*
X220609Y132250D01*
X222608D01*
X223108Y132750D01*
Y133750D01*
X222608Y134249D01*
X220109Y135249D02*
Y137248D01*
X220609D01*
X222608Y135249D01*
X223108D01*
X222608Y138248D02*
X223108Y138748D01*
Y139748D01*
X222608Y140247D01*
X220609D01*
X220109Y139748D01*
Y138748D01*
X220609Y138248D01*
X221109D01*
X221609Y138748D01*
Y140247D01*
X212999Y146499D02*
X212500Y146999D01*
X211500D01*
X211000Y146499D01*
Y144500D01*
X211500Y144000D01*
X212500D01*
X212999Y144500D01*
X213999Y146999D02*
X215998D01*
Y146499D01*
X213999Y144500D01*
Y144000D01*
X216998Y146499D02*
X217498Y146999D01*
X218498D01*
X218997Y146499D01*
Y145999D01*
X218498Y145499D01*
X218997Y145000D01*
Y144500D01*
X218498Y144000D01*
X217498D01*
X216998Y144500D01*
Y145000D01*
X217498Y145499D01*
X216998Y145999D01*
Y146499D01*
X217498Y145499D02*
X218498D01*
X212655Y153330D02*
X212155Y153830D01*
X211155D01*
X210655Y153330D01*
Y151330D01*
X211155Y150831D01*
X212155D01*
X212655Y151330D01*
X213654Y153830D02*
X215654D01*
Y153330D01*
X213654Y151330D01*
Y150831D01*
X216653Y153830D02*
X218653D01*
Y153330D01*
X216653Y151330D01*
Y150831D01*
X227751Y125999D02*
X227251Y125499D01*
Y124500D01*
X227751Y124000D01*
X229750D01*
X230250Y124500D01*
Y125499D01*
X229750Y125999D01*
X227251Y126999D02*
Y128998D01*
X227751D01*
X229750Y126999D01*
X230250D01*
Y131498D02*
X227251D01*
X228750Y129998D01*
Y131997D01*
X234751Y125999D02*
X234251Y125499D01*
Y124500D01*
X234751Y124000D01*
X236750D01*
X237250Y124500D01*
Y125499D01*
X236750Y125999D01*
X234251Y126999D02*
Y128998D01*
X234751D01*
X236750Y126999D01*
X237250D01*
X234751Y129998D02*
X234251Y130498D01*
Y131498D01*
X234751Y131997D01*
X235251D01*
X235751Y131498D01*
Y130998D01*
Y131498D01*
X236250Y131997D01*
X236750D01*
X237250Y131498D01*
Y130498D01*
X236750Y129998D01*
X323475Y171149D02*
X322975Y170650D01*
Y169650D01*
X323475Y169150D01*
X325474D01*
X325974Y169650D01*
Y170650D01*
X325474Y171149D01*
X322975Y174148D02*
X323475Y173149D01*
X324474Y172149D01*
X325474D01*
X325974Y172649D01*
Y173648D01*
X325474Y174148D01*
X324974D01*
X324474Y173648D01*
Y172149D01*
X323475Y175148D02*
X322975Y175648D01*
Y176648D01*
X323475Y177147D01*
X323975D01*
X324474Y176648D01*
Y176148D01*
Y176648D01*
X324974Y177147D01*
X325474D01*
X325974Y176648D01*
Y175648D01*
X325474Y175148D01*
X268431Y108103D02*
Y108810D01*
X267724Y109517D01*
X267017D01*
X265603Y108103D01*
Y107397D01*
X266310Y106690D01*
X267017D01*
X270905Y106336D02*
X269491Y107750D01*
X268431Y106690D01*
X269491Y106336D01*
X269845Y105983D01*
Y105276D01*
X269138Y104569D01*
X268431D01*
X267724Y105276D01*
Y105983D01*
X273026Y104216D02*
X271612Y105629D01*
X270552Y104569D01*
X271612Y104216D01*
X271965Y103862D01*
Y103155D01*
X271259Y102448D01*
X270552D01*
X269845Y103155D01*
Y103862D01*
X258999Y136549D02*
X258500Y137049D01*
X257500D01*
X257000Y136549D01*
Y134550D01*
X257500Y134050D01*
X258500D01*
X258999Y134550D01*
X261499Y134050D02*
Y137049D01*
X259999Y135549D01*
X261998D01*
X262998Y137049D02*
X264997D01*
Y136549D01*
X262998Y134550D01*
Y134050D01*
X258999Y144249D02*
X258500Y144749D01*
X257500D01*
X257000Y144249D01*
Y142250D01*
X257500Y141750D01*
X258500D01*
X258999Y142250D01*
X261499Y141750D02*
Y144749D01*
X259999Y143250D01*
X261998D01*
X264997Y144749D02*
X263998Y144249D01*
X262998Y143250D01*
Y142250D01*
X263498Y141750D01*
X264498D01*
X264997Y142250D01*
Y142750D01*
X264498Y143250D01*
X262998D01*
X258999Y121299D02*
X258500Y121799D01*
X257500D01*
X257000Y121299D01*
Y119300D01*
X257500Y118800D01*
X258500D01*
X258999Y119300D01*
X261499Y118800D02*
Y121799D01*
X259999Y120300D01*
X261998D01*
X264997Y121799D02*
X262998D01*
Y120300D01*
X263998Y120799D01*
X264498D01*
X264997Y120300D01*
Y119300D01*
X264498Y118800D01*
X263498D01*
X262998Y119300D01*
X258999Y128999D02*
X258500Y129499D01*
X257500D01*
X257000Y128999D01*
Y127000D01*
X257500Y126500D01*
X258500D01*
X258999Y127000D01*
X261499Y126500D02*
Y129499D01*
X259999Y127999D01*
X261998D01*
X264498Y126500D02*
Y129499D01*
X262998Y127999D01*
X264997D01*
X329475Y160399D02*
X328975Y159900D01*
Y158900D01*
X329475Y158400D01*
X331474D01*
X331974Y158900D01*
Y159900D01*
X331474Y160399D01*
X331974Y162899D02*
X328975D01*
X330475Y161399D01*
Y163398D01*
X329475Y164398D02*
X328975Y164898D01*
Y165898D01*
X329475Y166397D01*
X331474D01*
X331974Y165898D01*
Y164898D01*
X331474Y164398D01*
X329475D01*
X245001Y160499D02*
X244501Y160000D01*
Y159000D01*
X245001Y158500D01*
X247000D01*
X247500Y159000D01*
Y160000D01*
X247000Y160499D01*
X245001Y161499D02*
X244501Y161999D01*
Y162999D01*
X245001Y163498D01*
X245501D01*
X246000Y162999D01*
Y162499D01*
Y162999D01*
X246500Y163498D01*
X247000D01*
X247500Y162999D01*
Y161999D01*
X247000Y161499D01*
X244501Y166497D02*
Y164498D01*
X246000D01*
X245501Y165498D01*
Y165998D01*
X246000Y166497D01*
X247000D01*
X247500Y165998D01*
Y164998D01*
X247000Y164498D01*
M02*
