G04*
G04 #@! TF.GenerationSoftware,Altium Limited,Altium Designer,19.1.6 (110)*
G04*
G04 Layer_Color=65535*
%FSLAX44Y44*%
%MOMM*%
G71*
G01*
G75*
%ADD10C,0.2540*%
%ADD11C,0.3000*%
%ADD12C,0.2000*%
%ADD13C,0.1500*%
%ADD14C,0.2500*%
%ADD15C,0.1000*%
%ADD16C,0.1270*%
G36*
X60250Y76375D02*
X57250Y76375D01*
X57250Y79375D01*
X60250Y76375D01*
D02*
G37*
G36*
X134000Y104000D02*
Y102000D01*
X132000D01*
Y104000D01*
X134000D01*
D02*
G37*
G36*
X51500Y195500D02*
X64500Y195500D01*
X51500Y208500D01*
X51500Y195500D01*
D02*
G37*
G36*
X224500Y58750D02*
Y60750D01*
X226500D01*
Y58750D01*
X224500D01*
D02*
G37*
G36*
X178000Y197000D02*
X180000D01*
Y195000D01*
X178000D01*
Y197000D01*
D02*
G37*
G36*
X439875Y79000D02*
Y76250D01*
X434500D01*
X439875Y79000D01*
D02*
G37*
G36*
X274695Y157376D02*
X279250Y159738D01*
Y157507D01*
X277853Y156767D01*
X277844Y156757D01*
X277806Y156739D01*
X277750Y156710D01*
X277675Y156673D01*
X277582Y156626D01*
X277479Y156579D01*
X277366Y156523D01*
X277244Y156457D01*
X276982Y156326D01*
X276719Y156204D01*
X276597Y156148D01*
X276476Y156092D01*
X276363Y156045D01*
X276269Y156007D01*
X276288Y155998D01*
X276307Y155979D01*
X276344Y155951D01*
X276391Y155914D01*
X276448Y155876D01*
X276513Y155820D01*
X276597Y155754D01*
X276691Y155670D01*
X276804Y155576D01*
X276935Y155473D01*
X277076Y155351D01*
X277225Y155220D01*
X277404Y155070D01*
X277600Y154902D01*
X277806Y154714D01*
X279250Y153402D01*
Y150843D01*
X274414Y155080D01*
X269643Y152699D01*
Y154752D01*
X271405Y155698D01*
X271414D01*
X271443Y155717D01*
X271461Y155726D01*
X271499Y155745D01*
X271546Y155764D01*
X271602Y155801D01*
X271677Y155829D01*
X271761Y155876D01*
X271874Y155933D01*
X271996Y155989D01*
X272136Y156064D01*
X272305Y156148D01*
X272492Y156242D01*
X272708Y156345D01*
X272717Y156354D01*
X272755Y156373D01*
X272811Y156401D01*
X272876Y156429D01*
X272867Y156439D01*
X272830Y156467D01*
X272783Y156504D01*
X272717Y156560D01*
X272633Y156626D01*
X272539Y156710D01*
X272436Y156795D01*
X272324Y156898D01*
X272080Y157104D01*
X271817Y157329D01*
X271555Y157554D01*
X271321Y157760D01*
X269643Y159260D01*
Y161772D01*
X274695Y157376D01*
D02*
G37*
G36*
X272370Y151499D02*
X272474Y151490D01*
X272595Y151471D01*
X272727Y151443D01*
X272876Y151415D01*
X273036Y151377D01*
X273195Y151330D01*
X273364Y151265D01*
X273533Y151199D01*
X273701Y151115D01*
X273870Y151012D01*
X274039Y150899D01*
X274189Y150768D01*
X274198Y150759D01*
X274226Y150731D01*
X274264Y150693D01*
X274320Y150628D01*
X274376Y150553D01*
X274451Y150459D01*
X274526Y150346D01*
X274611Y150215D01*
X274695Y150065D01*
X274779Y149906D01*
X274863Y149718D01*
X274939Y149522D01*
X275014Y149306D01*
X275079Y149072D01*
X275126Y148819D01*
X275173Y148547D01*
X275192Y148566D01*
X275238Y148612D01*
X275313Y148687D01*
X275407Y148781D01*
X275538Y148894D01*
X275698Y149006D01*
X275876Y149137D01*
X276073Y149259D01*
X276082Y149269D01*
X276129Y149287D01*
X276185Y149325D01*
X276279Y149372D01*
X276391Y149437D01*
X276532Y149512D01*
X276701Y149597D01*
X276888Y149690D01*
X277104Y149803D01*
X277338Y149915D01*
X277600Y150037D01*
X277891Y150168D01*
X278191Y150300D01*
X278528Y150440D01*
X278875Y150590D01*
X279250Y150740D01*
Y148612D01*
X279240D01*
X279212Y148603D01*
X279166Y148584D01*
X279100Y148556D01*
X279006Y148528D01*
X278903Y148491D01*
X278781Y148444D01*
X278631Y148387D01*
X278463Y148322D01*
X278275Y148256D01*
X278069Y148172D01*
X277844Y148078D01*
X277591Y147975D01*
X277319Y147863D01*
X277029Y147741D01*
X276719Y147610D01*
X276710D01*
X276682Y147591D01*
X276635Y147572D01*
X276569Y147535D01*
X276494Y147497D01*
X276410Y147460D01*
X276213Y147347D01*
X275998Y147216D01*
X275791Y147066D01*
X275698Y146991D01*
X275604Y146907D01*
X275529Y146822D01*
X275463Y146738D01*
X275454Y146729D01*
X275435Y146682D01*
X275398Y146616D01*
X275360Y146513D01*
X275332Y146372D01*
X275295Y146213D01*
X275276Y146007D01*
X275267Y145885D01*
Y144957D01*
X279250Y144123D01*
Y142155D01*
X269643Y144160D01*
Y148603D01*
X269652Y148697D01*
Y148800D01*
X269662Y148922D01*
X269671Y149053D01*
X269699Y149325D01*
X269746Y149606D01*
X269802Y149887D01*
X269840Y150009D01*
X269877Y150131D01*
Y150140D01*
X269887Y150159D01*
X269905Y150187D01*
X269924Y150234D01*
X269943Y150290D01*
X269980Y150346D01*
X270065Y150487D01*
X270177Y150646D01*
X270318Y150815D01*
X270496Y150974D01*
X270702Y151124D01*
X270711D01*
X270730Y151143D01*
X270758Y151162D01*
X270805Y151181D01*
X270871Y151218D01*
X270936Y151246D01*
X271021Y151284D01*
X271105Y151321D01*
X271208Y151349D01*
X271321Y151387D01*
X271574Y151452D01*
X271855Y151490D01*
X272164Y151509D01*
X272174D01*
X272220D01*
X272286D01*
X272370Y151499D01*
D02*
G37*
G36*
X271246Y142548D02*
Y139746D01*
X279250Y138078D01*
Y136109D01*
X271246Y137778D01*
Y134975D01*
X269643Y135313D01*
Y142886D01*
X271246Y142548D01*
D02*
G37*
G36*
X274695Y130533D02*
X279250Y132895D01*
Y130664D01*
X277853Y129923D01*
X277844Y129914D01*
X277806Y129895D01*
X277750Y129867D01*
X277675Y129830D01*
X277582Y129783D01*
X277479Y129736D01*
X277366Y129680D01*
X277244Y129614D01*
X276982Y129483D01*
X276719Y129361D01*
X276597Y129305D01*
X276476Y129249D01*
X276363Y129202D01*
X276269Y129164D01*
X276288Y129155D01*
X276307Y129136D01*
X276344Y129108D01*
X276391Y129071D01*
X276448Y129033D01*
X276513Y128977D01*
X276597Y128911D01*
X276691Y128827D01*
X276804Y128733D01*
X276935Y128630D01*
X277076Y128508D01*
X277225Y128377D01*
X277404Y128227D01*
X277600Y128058D01*
X277806Y127871D01*
X279250Y126559D01*
Y124000D01*
X274414Y128236D01*
X269643Y125856D01*
Y127908D01*
X271405Y128855D01*
X271414D01*
X271443Y128874D01*
X271461Y128883D01*
X271499Y128902D01*
X271546Y128921D01*
X271602Y128958D01*
X271677Y128986D01*
X271761Y129033D01*
X271874Y129089D01*
X271996Y129146D01*
X272136Y129221D01*
X272305Y129305D01*
X272492Y129399D01*
X272708Y129502D01*
X272717Y129511D01*
X272755Y129530D01*
X272811Y129558D01*
X272876Y129586D01*
X272867Y129595D01*
X272830Y129624D01*
X272783Y129661D01*
X272717Y129717D01*
X272633Y129783D01*
X272539Y129867D01*
X272436Y129952D01*
X272324Y130055D01*
X272080Y130261D01*
X271817Y130486D01*
X271555Y130711D01*
X271321Y130917D01*
X269643Y132417D01*
Y134929D01*
X274695Y130533D01*
D02*
G37*
G36*
X283730Y149156D02*
X283796D01*
X283871Y149146D01*
X283964Y149128D01*
X284058Y149109D01*
X284264Y149062D01*
X284489Y148978D01*
X284723Y148875D01*
X284845Y148800D01*
X284958Y148725D01*
X284967Y148715D01*
X284986Y148706D01*
X285014Y148678D01*
X285051Y148640D01*
X285108Y148603D01*
X285164Y148547D01*
X285295Y148406D01*
X285436Y148237D01*
X285586Y148031D01*
X285717Y147788D01*
X285839Y147516D01*
Y147525D01*
X285858Y147544D01*
X285867Y147572D01*
X285895Y147619D01*
X285970Y147722D01*
X286064Y147853D01*
X286185Y148003D01*
X286326Y148153D01*
X286486Y148294D01*
X286673Y148415D01*
X286682D01*
X286692Y148425D01*
X286720Y148444D01*
X286757Y148462D01*
X286860Y148509D01*
X287001Y148565D01*
X287160Y148612D01*
X287338Y148659D01*
X287535Y148697D01*
X287741Y148706D01*
X287751D01*
X287788D01*
X287845Y148697D01*
X287920D01*
X288013Y148687D01*
X288126Y148668D01*
X288248Y148640D01*
X288379Y148612D01*
X288529Y148575D01*
X288679Y148518D01*
X288847Y148462D01*
X289007Y148387D01*
X289175Y148303D01*
X289354Y148200D01*
X289522Y148078D01*
X289691Y147947D01*
X289700Y147937D01*
X289747Y147900D01*
X289803Y147844D01*
X289878Y147759D01*
X289972Y147656D01*
X290075Y147534D01*
X290188Y147394D01*
X290300Y147225D01*
X290413Y147047D01*
X290525Y146850D01*
X290628Y146625D01*
X290722Y146391D01*
X290797Y146138D01*
X290853Y145876D01*
X290900Y145594D01*
X290909Y145294D01*
Y145238D01*
X290900Y145173D01*
Y145088D01*
X290891Y144985D01*
X290872Y144863D01*
X290853Y144732D01*
X290825Y144591D01*
X290788Y144432D01*
X290741Y144273D01*
X290684Y144104D01*
X290619Y143935D01*
X290534Y143767D01*
X290441Y143598D01*
X290338Y143439D01*
X290216Y143289D01*
X290206Y143279D01*
X290178Y143251D01*
X290141Y143214D01*
X290084Y143167D01*
X290010Y143101D01*
X289925Y143036D01*
X289822Y142951D01*
X289700Y142876D01*
X289569Y142792D01*
X289419Y142708D01*
X289260Y142633D01*
X289082Y142558D01*
X288894Y142483D01*
X288688Y142426D01*
X288472Y142370D01*
X288238Y142333D01*
X288013Y144132D01*
X288023D01*
X288051Y144142D01*
X288088D01*
X288135Y144151D01*
X288201Y144170D01*
X288276Y144179D01*
X288435Y144216D01*
X288613Y144273D01*
X288791Y144338D01*
X288951Y144423D01*
X289016Y144470D01*
X289082Y144526D01*
X289091Y144545D01*
X289128Y144582D01*
X289175Y144648D01*
X289222Y144741D01*
X289279Y144854D01*
X289325Y144985D01*
X289363Y145135D01*
X289372Y145313D01*
Y145379D01*
X289363Y145416D01*
Y145472D01*
X289354Y145538D01*
X289316Y145688D01*
X289269Y145857D01*
X289194Y146025D01*
X289082Y146203D01*
X289016Y146288D01*
X288941Y146372D01*
X288932Y146382D01*
X288922Y146391D01*
X288894Y146410D01*
X288866Y146438D01*
X288772Y146513D01*
X288641Y146588D01*
X288482Y146663D01*
X288294Y146738D01*
X288079Y146785D01*
X287957Y146803D01*
X287835D01*
X287826D01*
X287807D01*
X287779D01*
X287741Y146794D01*
X287629Y146785D01*
X287498Y146756D01*
X287348Y146719D01*
X287188Y146653D01*
X287038Y146569D01*
X286898Y146457D01*
X286879Y146438D01*
X286842Y146391D01*
X286785Y146316D01*
X286720Y146213D01*
X286663Y146082D01*
X286607Y145932D01*
X286570Y145744D01*
X286551Y145538D01*
Y145444D01*
X286560Y145351D01*
X286579Y145238D01*
X285014Y145566D01*
Y145622D01*
X285023Y145688D01*
Y145829D01*
X285014Y145876D01*
Y145941D01*
X285005Y146016D01*
X284977Y146175D01*
X284930Y146363D01*
X284864Y146550D01*
X284770Y146738D01*
X284648Y146897D01*
X284639Y146906D01*
X284630Y146916D01*
X284573Y146963D01*
X284489Y147028D01*
X284377Y147103D01*
X284227Y147169D01*
X284049Y147234D01*
X283842Y147281D01*
X283730Y147300D01*
X283608D01*
X283599D01*
X283589D01*
X283533D01*
X283449Y147291D01*
X283336Y147263D01*
X283224Y147234D01*
X283102Y147188D01*
X282980Y147122D01*
X282868Y147028D01*
X282858Y147019D01*
X282821Y146981D01*
X282783Y146925D01*
X282727Y146841D01*
X282680Y146747D01*
X282633Y146625D01*
X282605Y146485D01*
X282596Y146335D01*
Y146269D01*
X282615Y146185D01*
X282633Y146091D01*
X282671Y145979D01*
X282718Y145857D01*
X282793Y145725D01*
X282896Y145604D01*
X282905Y145594D01*
X282952Y145547D01*
X283027Y145491D01*
X283139Y145426D01*
X283280Y145341D01*
X283449Y145257D01*
X283552Y145210D01*
X283664Y145173D01*
X283786Y145135D01*
X283917Y145098D01*
X283580Y143382D01*
X283571D01*
X283533Y143401D01*
X283477Y143420D01*
X283402Y143439D01*
X283318Y143476D01*
X283214Y143514D01*
X283102Y143560D01*
X282980Y143617D01*
X282718Y143748D01*
X282446Y143898D01*
X282183Y144085D01*
X282062Y144188D01*
X281949Y144291D01*
X281940Y144301D01*
X281912Y144329D01*
X281874Y144385D01*
X281818Y144451D01*
X281752Y144535D01*
X281677Y144638D01*
X281602Y144760D01*
X281518Y144891D01*
X281443Y145041D01*
X281368Y145210D01*
X281293Y145388D01*
X281227Y145585D01*
X281171Y145782D01*
X281134Y145997D01*
X281106Y146232D01*
X281096Y146466D01*
Y146597D01*
X281106Y146681D01*
X281115Y146794D01*
X281134Y146916D01*
X281162Y147056D01*
X281190Y147216D01*
X281227Y147375D01*
X281274Y147534D01*
X281340Y147703D01*
X281406Y147872D01*
X281490Y148031D01*
X281593Y148190D01*
X281705Y148341D01*
X281837Y148472D01*
X281846Y148481D01*
X281874Y148500D01*
X281912Y148537D01*
X281968Y148584D01*
X282043Y148631D01*
X282127Y148687D01*
X282221Y148753D01*
X282333Y148819D01*
X282455Y148884D01*
X282596Y148950D01*
X282736Y149006D01*
X282896Y149053D01*
X283064Y149100D01*
X283233Y149137D01*
X283421Y149156D01*
X283608Y149165D01*
X283617D01*
X283636D01*
X283683D01*
X283730Y149156D01*
D02*
G37*
G36*
X290750Y140364D02*
Y138499D01*
X288932Y138883D01*
Y140749D01*
X290750Y140364D01*
D02*
G37*
G36*
Y135284D02*
Y133391D01*
X284105Y134778D01*
Y134769D01*
X284124Y134750D01*
X284142Y134722D01*
X284170Y134675D01*
X284198Y134619D01*
X284236Y134553D01*
X284283Y134478D01*
X284330Y134385D01*
X284442Y134188D01*
X284555Y133954D01*
X284676Y133701D01*
X284798Y133419D01*
Y133410D01*
X284808Y133382D01*
X284827Y133344D01*
X284845Y133288D01*
X284873Y133223D01*
X284902Y133147D01*
X284939Y133054D01*
X284977Y132960D01*
X285042Y132745D01*
X285117Y132520D01*
X285183Y132285D01*
X285239Y132051D01*
X283561Y132407D01*
Y132416D01*
X283552Y132435D01*
X283533Y132473D01*
X283514Y132510D01*
X283486Y132576D01*
X283458Y132641D01*
X283421Y132716D01*
X283374Y132810D01*
X283271Y133007D01*
X283149Y133241D01*
X283008Y133504D01*
X282858Y133785D01*
X282680Y134085D01*
X282493Y134394D01*
X282286Y134703D01*
X282071Y135013D01*
X281837Y135322D01*
X281602Y135622D01*
X281349Y135903D01*
X281087Y136166D01*
Y137299D01*
X290750Y135284D01*
D02*
G37*
G36*
Y127008D02*
Y125387D01*
X283786Y124000D01*
Y125846D01*
X286832Y126334D01*
X286842D01*
X286889Y126343D01*
X286945Y126352D01*
X287029Y126362D01*
X287132Y126381D01*
X287245Y126399D01*
X287367Y126418D01*
X287498Y126437D01*
X287770Y126484D01*
X288041Y126521D01*
X288163Y126540D01*
X288276Y126549D01*
X288379Y126568D01*
X288463Y126577D01*
X288454D01*
X288435Y126596D01*
X288388Y126615D01*
X288323Y126662D01*
X288276Y126690D01*
X288210Y126718D01*
X288144Y126755D01*
X288069Y126802D01*
X287976Y126849D01*
X287873Y126905D01*
X287760Y126971D01*
X287629Y127037D01*
X287619Y127046D01*
X287601Y127055D01*
X287563Y127074D01*
X287507Y127102D01*
X287451Y127130D01*
X287385Y127168D01*
X287235Y127252D01*
X287085Y127337D01*
X286935Y127411D01*
X286870Y127449D01*
X286814Y127477D01*
X286767Y127505D01*
X286729Y127524D01*
X283786Y129258D01*
Y131292D01*
X290750Y127008D01*
D02*
G37*
G36*
X248629Y154695D02*
X248789Y154686D01*
X248976Y154677D01*
X249182Y154648D01*
X249398Y154620D01*
X249604Y154573D01*
Y149859D01*
X249623D01*
X249669D01*
X249726Y149850D01*
X249782D01*
X249791D01*
X249810D01*
X249848D01*
X249894Y149859D01*
X249960D01*
X250026Y149868D01*
X250185Y149896D01*
X250363Y149943D01*
X250541Y150018D01*
X250729Y150112D01*
X250897Y150243D01*
Y150253D01*
X250916Y150262D01*
X250963Y150318D01*
X251028Y150403D01*
X251103Y150515D01*
X251188Y150656D01*
X251253Y150824D01*
X251300Y151002D01*
X251310Y151105D01*
X251319Y151209D01*
Y151246D01*
X251310Y151302D01*
X251300Y151368D01*
X251291Y151443D01*
X251272Y151537D01*
X251235Y151640D01*
X251197Y151752D01*
X251150Y151865D01*
X251085Y151987D01*
X251000Y152108D01*
X250916Y152230D01*
X250804Y152352D01*
X250672Y152465D01*
X250522Y152577D01*
X250354Y152680D01*
X250635Y154367D01*
X250644Y154358D01*
X250682Y154348D01*
X250729Y154320D01*
X250804Y154274D01*
X250888Y154227D01*
X250982Y154170D01*
X251085Y154095D01*
X251207Y154020D01*
X251328Y153927D01*
X251450Y153824D01*
X251703Y153599D01*
X251947Y153336D01*
X252050Y153196D01*
X252153Y153046D01*
X252163Y153036D01*
X252172Y153008D01*
X252200Y152961D01*
X252228Y152905D01*
X252266Y152821D01*
X252313Y152727D01*
X252359Y152624D01*
X252406Y152502D01*
X252453Y152371D01*
X252500Y152230D01*
X252537Y152080D01*
X252584Y151921D01*
X252641Y151574D01*
X252650Y151387D01*
X252659Y151199D01*
Y151134D01*
X252650Y151068D01*
X252641Y150965D01*
X252631Y150843D01*
X252612Y150712D01*
X252584Y150553D01*
X252547Y150384D01*
X252500Y150206D01*
X252444Y150028D01*
X252369Y149831D01*
X252284Y149643D01*
X252191Y149447D01*
X252069Y149269D01*
X251938Y149081D01*
X251778Y148912D01*
X251769Y148903D01*
X251741Y148875D01*
X251685Y148828D01*
X251619Y148781D01*
X251525Y148706D01*
X251422Y148640D01*
X251291Y148556D01*
X251150Y148481D01*
X250991Y148397D01*
X250813Y148313D01*
X250616Y148247D01*
X250410Y148181D01*
X250185Y148125D01*
X249951Y148078D01*
X249688Y148050D01*
X249426Y148041D01*
X249407D01*
X249360D01*
X249285Y148050D01*
X249182D01*
X249060Y148069D01*
X248920Y148078D01*
X248751Y148106D01*
X248573Y148144D01*
X248385Y148181D01*
X248179Y148237D01*
X247973Y148294D01*
X247757Y148369D01*
X247533Y148462D01*
X247317Y148566D01*
X247101Y148687D01*
X246886Y148828D01*
X246867Y148837D01*
X246820Y148875D01*
X246745Y148940D01*
X246651Y149025D01*
X246539Y149137D01*
X246408Y149278D01*
X246267Y149437D01*
X246127Y149615D01*
X245986Y149822D01*
X245855Y150056D01*
X245724Y150309D01*
X245611Y150581D01*
X245517Y150881D01*
X245442Y151199D01*
X245396Y151546D01*
X245377Y151912D01*
Y151968D01*
X245386Y152033D01*
Y152127D01*
X245405Y152230D01*
X245414Y152361D01*
X245442Y152493D01*
X245480Y152652D01*
X245517Y152811D01*
X245574Y152971D01*
X245639Y153139D01*
X245714Y153308D01*
X245808Y153477D01*
X245911Y153645D01*
X246033Y153795D01*
X246173Y153945D01*
X246183Y153955D01*
X246211Y153983D01*
X246258Y154020D01*
X246314Y154067D01*
X246398Y154123D01*
X246502Y154189D01*
X246614Y154255D01*
X246745Y154330D01*
X246895Y154395D01*
X247055Y154461D01*
X247242Y154527D01*
X247439Y154583D01*
X247654Y154639D01*
X247879Y154677D01*
X248123Y154695D01*
X248385Y154705D01*
X248395D01*
X248414D01*
X248451D01*
X248498D01*
X248554D01*
X248629Y154695D01*
D02*
G37*
G36*
X247129Y147019D02*
X247176D01*
X247233Y147010D01*
X247308Y147000D01*
X247383Y146991D01*
X247476Y146972D01*
X247579Y146963D01*
X247692Y146944D01*
X247814Y146916D01*
X247945Y146897D01*
X248095Y146869D01*
X248254Y146832D01*
X252500Y145922D01*
Y144048D01*
X248254Y144948D01*
X248245D01*
X248217Y144957D01*
X248179Y144966D01*
X248132Y144976D01*
X248067Y144985D01*
X247992Y145004D01*
X247842Y145032D01*
X247682Y145060D01*
X247542Y145088D01*
X247476Y145098D01*
X247420Y145107D01*
X247383Y145116D01*
X247354D01*
X247345D01*
X247308D01*
X247251Y145107D01*
X247186Y145098D01*
X247111Y145070D01*
X247036Y145042D01*
X246961Y144995D01*
X246895Y144938D01*
X246886Y144929D01*
X246867Y144910D01*
X246839Y144863D01*
X246801Y144807D01*
X246773Y144732D01*
X246745Y144648D01*
X246726Y144535D01*
X246717Y144413D01*
Y144348D01*
X246726Y144292D01*
X246736Y144235D01*
X246755Y144160D01*
X246811Y143992D01*
X246848Y143898D01*
X246895Y143795D01*
X246961Y143692D01*
X247036Y143589D01*
X247120Y143476D01*
X247223Y143373D01*
X247336Y143261D01*
X247467Y143158D01*
X247476D01*
X247495Y143139D01*
X247523Y143120D01*
X247570Y143092D01*
X247626Y143055D01*
X247701Y143017D01*
X247795Y142970D01*
X247898Y142914D01*
X248020Y142867D01*
X248160Y142811D01*
X248311Y142745D01*
X248479Y142689D01*
X248676Y142633D01*
X248882Y142577D01*
X249107Y142520D01*
X249351Y142464D01*
X252500Y141808D01*
Y139933D01*
X248292Y140805D01*
X248282D01*
X248264Y140814D01*
X248226Y140824D01*
X248179Y140833D01*
X248114Y140843D01*
X248048Y140852D01*
X247907Y140880D01*
X247748Y140908D01*
X247589Y140936D01*
X247458Y140946D01*
X247401Y140955D01*
X247354D01*
X247345D01*
X247308D01*
X247251Y140946D01*
X247195Y140936D01*
X247120Y140908D01*
X247045Y140880D01*
X246970Y140833D01*
X246895Y140768D01*
X246886Y140758D01*
X246867Y140730D01*
X246839Y140693D01*
X246801Y140636D01*
X246773Y140561D01*
X246745Y140468D01*
X246726Y140365D01*
X246717Y140252D01*
Y140196D01*
X246726Y140140D01*
X246736Y140055D01*
X246764Y139962D01*
X246792Y139849D01*
X246839Y139737D01*
X246905Y139615D01*
X246914Y139596D01*
X246942Y139558D01*
X246980Y139502D01*
X247036Y139418D01*
X247111Y139334D01*
X247195Y139240D01*
X247298Y139137D01*
X247411Y139043D01*
X247429Y139034D01*
X247467Y139005D01*
X247542Y138959D01*
X247636Y138902D01*
X247748Y138837D01*
X247889Y138762D01*
X248057Y138687D01*
X248235Y138621D01*
X248245D01*
X248282Y138603D01*
X248357Y138584D01*
X248404Y138574D01*
X248460Y138556D01*
X248526Y138537D01*
X248601Y138518D01*
X248685Y138499D01*
X248789Y138471D01*
X248892Y138453D01*
X249023Y138424D01*
X249154Y138387D01*
X249304Y138359D01*
X252500Y137693D01*
Y135819D01*
X245536Y137272D01*
Y139034D01*
X246389Y138865D01*
X246380Y138874D01*
X246342Y138912D01*
X246295Y138968D01*
X246230Y139043D01*
X246155Y139137D01*
X246070Y139259D01*
X245977Y139380D01*
X245883Y139530D01*
X245789Y139690D01*
X245695Y139858D01*
X245611Y140036D01*
X245536Y140224D01*
X245471Y140421D01*
X245424Y140627D01*
X245386Y140833D01*
X245377Y141049D01*
Y141124D01*
X245386Y141180D01*
Y141246D01*
X245396Y141320D01*
X245414Y141499D01*
X245461Y141686D01*
X245517Y141892D01*
X245592Y142089D01*
X245705Y142258D01*
Y142267D01*
X245724Y142277D01*
X245761Y142323D01*
X245836Y142398D01*
X245939Y142492D01*
X246070Y142586D01*
X246230Y142670D01*
X246408Y142755D01*
X246614Y142811D01*
X246605D01*
X246586Y142830D01*
X246567Y142848D01*
X246530Y142876D01*
X246427Y142961D01*
X246305Y143083D01*
X246164Y143223D01*
X246024Y143401D01*
X245874Y143617D01*
X245733Y143851D01*
Y143861D01*
X245714Y143879D01*
X245695Y143917D01*
X245677Y143973D01*
X245649Y144029D01*
X245620Y144104D01*
X245592Y144189D01*
X245555Y144282D01*
X245489Y144488D01*
X245433Y144732D01*
X245396Y144985D01*
X245377Y145257D01*
Y145341D01*
X245386Y145398D01*
Y145463D01*
X245396Y145548D01*
X245433Y145735D01*
X245489Y145941D01*
X245564Y146157D01*
X245677Y146372D01*
X245752Y146466D01*
X245827Y146560D01*
X245836Y146569D01*
X245846Y146579D01*
X245874Y146607D01*
X245911Y146635D01*
X245958Y146672D01*
X246005Y146710D01*
X246145Y146794D01*
X246314Y146878D01*
X246520Y146953D01*
X246755Y147010D01*
X246886Y147019D01*
X247017Y147029D01*
X247036D01*
X247083D01*
X247129Y147019D01*
D02*
G37*
G36*
X244590Y135660D02*
Y133785D01*
X242893Y134132D01*
Y136016D01*
X244590Y135660D01*
D02*
G37*
G36*
X252500Y134010D02*
Y132135D01*
X245536Y133588D01*
Y135463D01*
X252500Y134010D01*
D02*
G37*
G36*
Y130870D02*
Y124000D01*
X242893Y126006D01*
Y127974D01*
X250897Y126306D01*
Y131208D01*
X252500Y130870D01*
D02*
G37*
G36*
X260799Y175252D02*
X260902Y175243D01*
X261024Y175224D01*
X261155Y175196D01*
X261305Y175168D01*
X261465Y175130D01*
X261624Y175084D01*
X261793Y175018D01*
X261961Y174952D01*
X262130Y174868D01*
X262299Y174765D01*
X262468Y174652D01*
X262618Y174521D01*
X262627Y174512D01*
X262655Y174484D01*
X262693Y174446D01*
X262749Y174381D01*
X262805Y174306D01*
X262880Y174212D01*
X262955Y174099D01*
X263039Y173968D01*
X263124Y173818D01*
X263208Y173659D01*
X263292Y173471D01*
X263367Y173275D01*
X263442Y173059D01*
X263508Y172825D01*
X263555Y172572D01*
X263602Y172300D01*
X263620Y172319D01*
X263667Y172365D01*
X263742Y172440D01*
X263836Y172534D01*
X263967Y172647D01*
X264127Y172759D01*
X264305Y172890D01*
X264501Y173012D01*
X264511Y173022D01*
X264558Y173040D01*
X264614Y173078D01*
X264708Y173125D01*
X264820Y173190D01*
X264961Y173265D01*
X265129Y173350D01*
X265317Y173443D01*
X265532Y173556D01*
X265767Y173668D01*
X266029Y173790D01*
X266320Y173921D01*
X266620Y174053D01*
X266957Y174193D01*
X267304Y174343D01*
X267679Y174493D01*
Y172365D01*
X267669D01*
X267641Y172356D01*
X267594Y172337D01*
X267529Y172309D01*
X267435Y172281D01*
X267332Y172244D01*
X267210Y172197D01*
X267060Y172141D01*
X266891Y172075D01*
X266704Y172009D01*
X266498Y171925D01*
X266273Y171831D01*
X266020Y171728D01*
X265748Y171616D01*
X265457Y171494D01*
X265148Y171363D01*
X265139D01*
X265111Y171344D01*
X265064Y171325D01*
X264998Y171288D01*
X264923Y171250D01*
X264839Y171213D01*
X264642Y171100D01*
X264426Y170969D01*
X264220Y170819D01*
X264127Y170744D01*
X264033Y170660D01*
X263958Y170575D01*
X263892Y170491D01*
X263883Y170482D01*
X263864Y170435D01*
X263827Y170369D01*
X263789Y170266D01*
X263761Y170125D01*
X263724Y169966D01*
X263705Y169760D01*
X263695Y169638D01*
Y168710D01*
X267679Y167876D01*
Y165908D01*
X258072Y167913D01*
Y172356D01*
X258081Y172450D01*
Y172553D01*
X258091Y172675D01*
X258100Y172806D01*
X258128Y173078D01*
X258175Y173359D01*
X258231Y173640D01*
X258269Y173762D01*
X258306Y173884D01*
Y173893D01*
X258316Y173912D01*
X258334Y173940D01*
X258353Y173987D01*
X258372Y174043D01*
X258409Y174099D01*
X258494Y174240D01*
X258606Y174399D01*
X258747Y174568D01*
X258925Y174727D01*
X259131Y174877D01*
X259140D01*
X259159Y174896D01*
X259187Y174915D01*
X259234Y174934D01*
X259300Y174971D01*
X259365Y174999D01*
X259450Y175037D01*
X259534Y175074D01*
X259637Y175102D01*
X259750Y175140D01*
X260003Y175205D01*
X260284Y175243D01*
X260593Y175262D01*
X260602D01*
X260649D01*
X260715D01*
X260799Y175252D01*
D02*
G37*
G36*
X262327Y165345D02*
X262458Y165336D01*
X262618Y165327D01*
X262796Y165308D01*
X262992Y165280D01*
X263199Y165252D01*
X263414Y165205D01*
X263649Y165158D01*
X263883Y165102D01*
X264117Y165036D01*
X264352Y164952D01*
X264586Y164858D01*
X264820Y164755D01*
X264830Y164746D01*
X264876Y164727D01*
X264933Y164699D01*
X265017Y164652D01*
X265120Y164586D01*
X265233Y164521D01*
X265364Y164436D01*
X265504Y164352D01*
X265654Y164249D01*
X265814Y164136D01*
X265973Y164005D01*
X266132Y163874D01*
X266442Y163583D01*
X266582Y163433D01*
X266723Y163265D01*
X266732Y163255D01*
X266751Y163237D01*
X266779Y163199D01*
X266817Y163143D01*
X266863Y163077D01*
X266910Y162993D01*
X266966Y162899D01*
X267032Y162787D01*
X267098Y162665D01*
X267163Y162534D01*
X267229Y162384D01*
X267304Y162224D01*
X267369Y162056D01*
X267426Y161877D01*
X267482Y161681D01*
X267538Y161484D01*
Y161474D01*
X267548Y161456D01*
Y161418D01*
X267557Y161371D01*
X267566Y161306D01*
X267585Y161221D01*
X267594Y161128D01*
X267604Y161015D01*
X267623Y160893D01*
X267632Y160753D01*
X267641Y160603D01*
X267660Y160425D01*
X267669Y160247D01*
Y160040D01*
X267679Y159825D01*
Y156207D01*
X258072Y158213D01*
Y161381D01*
X258081Y161615D01*
X258091Y161840D01*
Y161943D01*
X258100Y162037D01*
Y162121D01*
X258109Y162187D01*
Y162215D01*
X258119Y162243D01*
Y162290D01*
X258128Y162337D01*
X258137Y162402D01*
X258156Y162543D01*
X258194Y162712D01*
X258231Y162890D01*
X258287Y163077D01*
X258353Y163255D01*
Y163265D01*
X258362Y163274D01*
X258381Y163330D01*
X258428Y163424D01*
X258484Y163536D01*
X258559Y163668D01*
X258644Y163818D01*
X258747Y163958D01*
X258869Y164108D01*
X258887Y164127D01*
X258925Y164174D01*
X259000Y164249D01*
X259093Y164333D01*
X259206Y164436D01*
X259347Y164549D01*
X259496Y164661D01*
X259665Y164764D01*
X259675D01*
X259684Y164774D01*
X259712Y164792D01*
X259750Y164811D01*
X259843Y164858D01*
X259974Y164924D01*
X260124Y164989D01*
X260312Y165064D01*
X260509Y165130D01*
X260734Y165195D01*
X260743D01*
X260762Y165205D01*
X260790Y165214D01*
X260837Y165224D01*
X260893Y165233D01*
X260968Y165242D01*
X261043Y165261D01*
X261127Y165280D01*
X261324Y165308D01*
X261549Y165327D01*
X261802Y165345D01*
X262065Y165355D01*
X262083D01*
X262130D01*
X262215D01*
X262327Y165345D01*
D02*
G37*
G36*
X260893Y153855D02*
X260884D01*
X260865D01*
X260827Y153845D01*
X260781Y153836D01*
X260724Y153827D01*
X260659Y153808D01*
X260509Y153761D01*
X260340Y153695D01*
X260162Y153611D01*
X259993Y153498D01*
X259843Y153349D01*
X259825Y153330D01*
X259806Y153302D01*
X259787Y153273D01*
X259759Y153227D01*
X259722Y153170D01*
X259693Y153105D01*
X259656Y153030D01*
X259618Y152945D01*
X259590Y152861D01*
X259553Y152758D01*
X259525Y152646D01*
X259506Y152514D01*
X259487Y152383D01*
X259468Y152242D01*
Y151961D01*
X259478Y151886D01*
X259487Y151811D01*
X259506Y151633D01*
X259543Y151446D01*
X259590Y151249D01*
X259665Y151071D01*
X259712Y150996D01*
X259759Y150921D01*
X259768Y150902D01*
X259815Y150865D01*
X259871Y150808D01*
X259956Y150752D01*
X260068Y150687D01*
X260190Y150630D01*
X260331Y150593D01*
X260490Y150574D01*
X260509D01*
X260556Y150583D01*
X260631Y150593D01*
X260734Y150612D01*
X260837Y150649D01*
X260949Y150705D01*
X261071Y150790D01*
X261174Y150893D01*
X261184Y150912D01*
X261202Y150930D01*
X261221Y150958D01*
X261249Y150996D01*
X261287Y151052D01*
X261324Y151118D01*
X261371Y151193D01*
X261418Y151277D01*
X261474Y151380D01*
X261540Y151493D01*
X261605Y151624D01*
X261680Y151774D01*
X261755Y151933D01*
X261840Y152111D01*
X261924Y152308D01*
Y152317D01*
X261933Y152327D01*
X261952Y152383D01*
X261990Y152467D01*
X262046Y152570D01*
X262102Y152711D01*
X262177Y152861D01*
X262252Y153020D01*
X262336Y153198D01*
X262524Y153555D01*
X262618Y153733D01*
X262711Y153901D01*
X262814Y154061D01*
X262908Y154201D01*
X263002Y154323D01*
X263086Y154426D01*
X263096Y154436D01*
X263114Y154454D01*
X263152Y154492D01*
X263208Y154529D01*
X263274Y154586D01*
X263349Y154642D01*
X263442Y154698D01*
X263545Y154764D01*
X263658Y154829D01*
X263789Y154886D01*
X263920Y154942D01*
X264070Y154998D01*
X264239Y155035D01*
X264408Y155073D01*
X264586Y155092D01*
X264773Y155101D01*
X264792D01*
X264830D01*
X264895Y155092D01*
X264989Y155082D01*
X265092Y155073D01*
X265223Y155045D01*
X265364Y155017D01*
X265514Y154979D01*
X265682Y154923D01*
X265861Y154857D01*
X266039Y154773D01*
X266217Y154670D01*
X266404Y154558D01*
X266582Y154426D01*
X266770Y154267D01*
X266938Y154089D01*
X266948Y154080D01*
X266976Y154042D01*
X267023Y153986D01*
X267079Y153901D01*
X267145Y153798D01*
X267220Y153677D01*
X267304Y153536D01*
X267388Y153367D01*
X267473Y153180D01*
X267557Y152964D01*
X267632Y152739D01*
X267698Y152486D01*
X267754Y152214D01*
X267801Y151933D01*
X267829Y151624D01*
X267838Y151296D01*
Y151174D01*
X267829Y151090D01*
Y150977D01*
X267819Y150855D01*
X267801Y150715D01*
X267782Y150565D01*
X267763Y150396D01*
X267735Y150227D01*
X267660Y149871D01*
X267557Y149506D01*
X267501Y149328D01*
X267426Y149150D01*
X267416Y149140D01*
X267407Y149112D01*
X267379Y149065D01*
X267351Y149000D01*
X267304Y148925D01*
X267257Y148840D01*
X267126Y148653D01*
X266966Y148437D01*
X266770Y148222D01*
X266535Y148025D01*
X266404Y147941D01*
X266273Y147865D01*
X266264D01*
X266235Y147847D01*
X266198Y147828D01*
X266142Y147809D01*
X266076Y147781D01*
X265992Y147753D01*
X265889Y147716D01*
X265786Y147687D01*
X265664Y147650D01*
X265532Y147622D01*
X265392Y147594D01*
X265242Y147566D01*
X264914Y147537D01*
X264567Y147528D01*
X264464Y149412D01*
X264473D01*
X264501D01*
X264548Y149421D01*
X264605D01*
X264680Y149431D01*
X264764Y149440D01*
X264951Y149468D01*
X265158Y149506D01*
X265354Y149553D01*
X265542Y149628D01*
X265617Y149665D01*
X265682Y149712D01*
X265692Y149721D01*
X265701Y149731D01*
X265729Y149759D01*
X265757Y149796D01*
X265795Y149853D01*
X265842Y149909D01*
X265889Y149984D01*
X265935Y150077D01*
X265982Y150181D01*
X266029Y150293D01*
X266067Y150424D01*
X266114Y150574D01*
X266142Y150733D01*
X266170Y150912D01*
X266179Y151108D01*
X266189Y151315D01*
Y151408D01*
X266179Y151474D01*
Y151549D01*
X266170Y151643D01*
X266160Y151746D01*
X266142Y151849D01*
X266104Y152083D01*
X266039Y152308D01*
X265954Y152524D01*
X265898Y152627D01*
X265842Y152711D01*
Y152720D01*
X265823Y152730D01*
X265776Y152777D01*
X265711Y152852D01*
X265607Y152936D01*
X265486Y153011D01*
X265345Y153086D01*
X265186Y153133D01*
X265101Y153152D01*
X265008D01*
X264998D01*
X264989D01*
X264933Y153142D01*
X264858Y153133D01*
X264755Y153105D01*
X264642Y153067D01*
X264520Y153002D01*
X264398Y152917D01*
X264286Y152795D01*
X264277Y152786D01*
X264267Y152767D01*
X264248Y152739D01*
X264220Y152702D01*
X264192Y152655D01*
X264155Y152599D01*
X264117Y152533D01*
X264070Y152449D01*
X264023Y152346D01*
X263958Y152233D01*
X263902Y152111D01*
X263827Y151961D01*
X263752Y151802D01*
X263667Y151615D01*
X263583Y151418D01*
X263574Y151408D01*
X263564Y151371D01*
X263536Y151315D01*
X263499Y151240D01*
X263461Y151146D01*
X263414Y151033D01*
X263358Y150921D01*
X263302Y150799D01*
X263171Y150527D01*
X263039Y150255D01*
X262899Y150002D01*
X262843Y149890D01*
X262777Y149787D01*
Y149777D01*
X262758Y149768D01*
X262739Y149740D01*
X262721Y149703D01*
X262646Y149609D01*
X262552Y149496D01*
X262430Y149365D01*
X262280Y149234D01*
X262121Y149103D01*
X261933Y148981D01*
X261924D01*
X261905Y148972D01*
X261877Y148953D01*
X261840Y148934D01*
X261793Y148915D01*
X261737Y148887D01*
X261587Y148840D01*
X261409Y148784D01*
X261202Y148737D01*
X260977Y148700D01*
X260724Y148690D01*
X260706D01*
X260668D01*
X260602Y148700D01*
X260518D01*
X260415Y148718D01*
X260293Y148737D01*
X260162Y148765D01*
X260012Y148803D01*
X259862Y148850D01*
X259693Y148906D01*
X259525Y148972D01*
X259356Y149056D01*
X259187Y149159D01*
X259028Y149271D01*
X258859Y149412D01*
X258709Y149562D01*
X258700Y149571D01*
X258672Y149599D01*
X258634Y149656D01*
X258587Y149721D01*
X258522Y149815D01*
X258456Y149928D01*
X258381Y150059D01*
X258306Y150209D01*
X258231Y150377D01*
X258156Y150574D01*
X258091Y150780D01*
X258025Y151005D01*
X257978Y151249D01*
X257941Y151521D01*
X257913Y151802D01*
X257903Y152102D01*
Y152177D01*
X257913Y152261D01*
Y152383D01*
X257931Y152524D01*
X257941Y152692D01*
X257969Y152871D01*
X258006Y153067D01*
X258044Y153273D01*
X258100Y153489D01*
X258166Y153705D01*
X258241Y153930D01*
X258334Y154136D01*
X258437Y154351D01*
X258559Y154548D01*
X258700Y154726D01*
X258709Y154736D01*
X258737Y154764D01*
X258784Y154811D01*
X258840Y154876D01*
X258925Y154942D01*
X259018Y155026D01*
X259131Y155111D01*
X259262Y155204D01*
X259403Y155298D01*
X259562Y155382D01*
X259740Y155467D01*
X259928Y155551D01*
X260124Y155617D01*
X260340Y155673D01*
X260565Y155720D01*
X260809Y155748D01*
X260893Y153855D01*
D02*
G37*
%LPC*%
G36*
X272192Y149540D02*
X272183D01*
X272174D01*
X272146D01*
X272108Y149531D01*
X272014Y149522D01*
X271892Y149484D01*
X271771Y149437D01*
X271639Y149362D01*
X271518Y149250D01*
X271461Y149184D01*
X271405Y149109D01*
X271396Y149100D01*
X271377Y149053D01*
X271358Y148978D01*
X271339Y148931D01*
X271321Y148865D01*
X271311Y148800D01*
X271293Y148716D01*
X271283Y148622D01*
X271274Y148519D01*
X271264Y148406D01*
X271255Y148275D01*
X271246Y148134D01*
Y145791D01*
X273823Y145257D01*
Y146560D01*
X273814Y146691D01*
Y146841D01*
X273804Y147000D01*
X273795Y147169D01*
X273776Y147525D01*
X273758Y147694D01*
X273748Y147872D01*
X273720Y148031D01*
X273701Y148181D01*
X273664Y148303D01*
X273636Y148416D01*
Y148425D01*
X273626Y148444D01*
X273617Y148462D01*
X273598Y148500D01*
X273551Y148594D01*
X273495Y148716D01*
X273411Y148847D01*
X273308Y148987D01*
X273186Y149119D01*
X273045Y149240D01*
X273036D01*
X273027Y149250D01*
X272970Y149287D01*
X272895Y149334D01*
X272783Y149390D01*
X272652Y149447D01*
X272511Y149494D01*
X272352Y149531D01*
X272192Y149540D01*
D02*
G37*
G36*
X248460Y152989D02*
X248451D01*
X248442D01*
X248395D01*
X248329D01*
X248273D01*
X248264D01*
X248235D01*
X248198D01*
X248142Y152980D01*
X248076D01*
X248011Y152971D01*
X247832Y152943D01*
X247645Y152905D01*
X247458Y152839D01*
X247270Y152755D01*
X247111Y152643D01*
X247092Y152624D01*
X247045Y152577D01*
X246989Y152502D01*
X246914Y152399D01*
X246839Y152268D01*
X246783Y152108D01*
X246736Y151921D01*
X246717Y151715D01*
Y151658D01*
X246726Y151621D01*
Y151565D01*
X246736Y151509D01*
X246773Y151368D01*
X246830Y151199D01*
X246905Y151031D01*
X247017Y150843D01*
X247092Y150759D01*
X247167Y150665D01*
X247176Y150656D01*
X247186Y150646D01*
X247214Y150618D01*
X247251Y150590D01*
X247298Y150553D01*
X247354Y150515D01*
X247420Y150468D01*
X247495Y150412D01*
X247579Y150365D01*
X247673Y150309D01*
X247786Y150262D01*
X247898Y150215D01*
X248020Y150159D01*
X248160Y150121D01*
X248301Y150084D01*
X248460Y150046D01*
Y152989D01*
D02*
G37*
G36*
X260621Y173293D02*
X260612D01*
X260602D01*
X260574D01*
X260537Y173284D01*
X260443Y173275D01*
X260321Y173237D01*
X260200Y173190D01*
X260068Y173115D01*
X259946Y173003D01*
X259890Y172937D01*
X259834Y172862D01*
X259825Y172853D01*
X259806Y172806D01*
X259787Y172731D01*
X259768Y172684D01*
X259750Y172619D01*
X259740Y172553D01*
X259722Y172469D01*
X259712Y172375D01*
X259703Y172272D01*
X259693Y172159D01*
X259684Y172028D01*
X259675Y171887D01*
Y169544D01*
X262252Y169010D01*
Y170313D01*
X262243Y170444D01*
Y170594D01*
X262233Y170753D01*
X262224Y170922D01*
X262205Y171278D01*
X262186Y171447D01*
X262177Y171625D01*
X262149Y171784D01*
X262130Y171934D01*
X262093Y172056D01*
X262065Y172169D01*
Y172178D01*
X262055Y172197D01*
X262046Y172215D01*
X262027Y172253D01*
X261980Y172347D01*
X261924Y172469D01*
X261840Y172600D01*
X261737Y172740D01*
X261615Y172872D01*
X261474Y172993D01*
X261465D01*
X261455Y173003D01*
X261399Y173040D01*
X261324Y173087D01*
X261212Y173143D01*
X261080Y173200D01*
X260940Y173246D01*
X260781Y173284D01*
X260621Y173293D01*
D02*
G37*
G36*
X262224Y163368D02*
X261999D01*
X261990D01*
X261952D01*
X261905D01*
X261830Y163358D01*
X261746D01*
X261652Y163349D01*
X261540Y163340D01*
X261427Y163330D01*
X261174Y163283D01*
X260921Y163227D01*
X260678Y163143D01*
X260565Y163087D01*
X260462Y163030D01*
X260452D01*
X260443Y163012D01*
X260415Y162993D01*
X260378Y162974D01*
X260293Y162899D01*
X260181Y162805D01*
X260068Y162684D01*
X259956Y162552D01*
X259853Y162393D01*
X259778Y162215D01*
X259768Y162196D01*
X259759Y162149D01*
X259750Y162112D01*
X259740Y162056D01*
X259731Y161999D01*
X259712Y161934D01*
X259703Y161859D01*
X259693Y161765D01*
X259684Y161662D01*
X259675Y161559D01*
X259665Y161437D01*
Y161296D01*
X259656Y161156D01*
Y159853D01*
X266132Y158494D01*
Y159778D01*
X266123Y159872D01*
Y159994D01*
X266114Y160116D01*
X266104Y160368D01*
X266076Y160631D01*
X266048Y160875D01*
X266020Y160987D01*
X266001Y161081D01*
Y161090D01*
X265992Y161100D01*
X265982Y161128D01*
X265973Y161165D01*
X265935Y161259D01*
X265889Y161381D01*
X265823Y161512D01*
X265739Y161662D01*
X265626Y161821D01*
X265504Y161981D01*
X265495Y161990D01*
X265476Y162009D01*
X265448Y162037D01*
X265411Y162074D01*
X265354Y162131D01*
X265289Y162187D01*
X265214Y162252D01*
X265129Y162318D01*
X265026Y162393D01*
X264923Y162477D01*
X264811Y162562D01*
X264680Y162637D01*
X264398Y162805D01*
X264089Y162965D01*
X264080Y162974D01*
X264052Y162983D01*
X263995Y163002D01*
X263930Y163030D01*
X263845Y163058D01*
X263742Y163096D01*
X263630Y163134D01*
X263489Y163171D01*
X263349Y163208D01*
X263189Y163237D01*
X263011Y163274D01*
X262833Y163302D01*
X262636Y163330D01*
X262430Y163349D01*
X262224Y163368D01*
D02*
G37*
%LPD*%
D10*
X28527Y92250D02*
G03*
X28527Y92250I-277J0D01*
G01*
X46720Y68675D02*
G03*
X46720Y68675I-1270J0D01*
G01*
D11*
X168604Y152750D02*
G03*
X168604Y152750I-354J0D01*
G01*
X351000Y262750D02*
Y279625D01*
X347583Y269375D02*
X354417D01*
X351000Y279625D02*
X354417Y269375D01*
X347583D02*
X351000Y279625D01*
X348875Y20625D02*
X352292Y30875D01*
X355708Y20625D01*
X348875D02*
X355708D01*
X352292Y16000D02*
Y30875D01*
X342750Y2250D02*
Y12246D01*
X347748D01*
X349414Y10580D01*
Y7248D01*
X347748Y5582D01*
X342750D01*
X346082D02*
X349414Y2250D01*
X352747Y12246D02*
X359411Y2250D01*
Y12246D02*
X352747Y2250D01*
X357750Y32750D02*
Y39414D01*
X361082Y42746D01*
X364414Y39414D01*
Y32750D01*
Y37748D01*
X357750D01*
X339250Y42746D02*
Y32750D01*
X344248D01*
X345914Y34416D01*
Y36082D01*
X344248Y37748D01*
X339250D01*
X344248D01*
X345914Y39414D01*
Y41080D01*
X344248Y42746D01*
X339250D01*
X365500Y251746D02*
Y241750D01*
X370498D01*
X372164Y243416D01*
Y245082D01*
X370498Y246748D01*
X365500D01*
X370498D01*
X372164Y248414D01*
Y250080D01*
X370498Y251746D01*
X365500D01*
X329250Y242000D02*
Y248664D01*
X332582Y251996D01*
X335914Y248664D01*
Y242000D01*
Y246998D01*
X329250D01*
X342750Y258996D02*
X349414D01*
X346082D01*
Y249000D01*
X352747Y258996D02*
X359411Y249000D01*
Y258996D02*
X352747Y249000D01*
D12*
X40000Y54250D02*
G03*
X40000Y54250I-1000J0D01*
G01*
X92000Y30000D02*
Y53300D01*
X71000D02*
X92000D01*
X12000D02*
X33000D01*
X12000Y30000D02*
Y53300D01*
X251500Y263750D02*
Y276750D01*
X291500Y263750D02*
Y276750D01*
X235500Y295000D02*
X247500D01*
Y284000D02*
Y295000D01*
X201500Y284000D02*
Y295000D01*
X213500D01*
X152750Y295000D02*
X164750D01*
X152750Y284000D02*
Y295000D01*
X198750Y284000D02*
Y295000D01*
X186750D02*
X198750D01*
X4250Y295250D02*
X16250D01*
X4250Y284250D02*
Y295250D01*
X50250Y284250D02*
Y295250D01*
X38250D02*
X50250D01*
X327500Y1500D02*
X339500D01*
Y12500D01*
X293500Y1500D02*
Y12500D01*
Y1500D02*
X305500D01*
X362500Y295250D02*
X374500D01*
X362500Y284250D02*
Y295250D01*
X408500Y284250D02*
Y295250D01*
X396500D02*
X408500D01*
X396500Y1500D02*
X408500D01*
Y12500D01*
X362500Y1500D02*
Y12500D01*
Y1500D02*
X374500D01*
X293500Y295250D02*
X305500D01*
X293500Y284250D02*
Y295250D01*
X339500Y284250D02*
Y295250D01*
X327500D02*
X339500D01*
X378500Y73250D02*
X391500D01*
X378500Y113250D02*
X391500D01*
X422250Y180000D02*
X435250D01*
X422250Y220000D02*
X435250D01*
X420379Y156000D02*
X433379D01*
X420379Y116000D02*
X433379D01*
X41000Y292748D02*
X43333D01*
X42166D01*
Y285750D01*
X41000D01*
X43333D01*
X331250Y11248D02*
X333583D01*
X332416D01*
Y4250D01*
X331250D01*
X333583D01*
X218832Y246665D02*
X217499Y247997D01*
X214833D01*
X213500Y246665D01*
Y241333D01*
X214833Y240000D01*
X217499D01*
X218832Y241333D01*
X221497Y247997D02*
Y240000D01*
X226829D01*
X229495Y247997D02*
Y240000D01*
Y242666D01*
X234827Y247997D01*
X230828Y243999D01*
X234827Y240000D01*
X367000Y11248D02*
X369333D01*
X368166D01*
Y4250D01*
X367000D01*
X369333D01*
X-2376Y81500D02*
X-7708D01*
Y82833D01*
X-6375Y84166D01*
X-2376D01*
X-6375D01*
X-7708Y85499D01*
X-6375Y86832D01*
X-2376D01*
Y89497D02*
X-10374D01*
Y93496D01*
X-9041Y94829D01*
X-6375D01*
X-5042Y93496D01*
Y89497D01*
X-9041Y102826D02*
X-10374Y101494D01*
Y98828D01*
X-9041Y97495D01*
X-3709D01*
X-2376Y98828D01*
Y101494D01*
X-3709Y102826D01*
X-10374Y105492D02*
Y108158D01*
Y106825D01*
X-2376D01*
Y105492D01*
Y108158D01*
Y116156D02*
Y113490D01*
X-3709Y112157D01*
X-6375D01*
X-7708Y113490D01*
Y116156D01*
X-6375Y117488D01*
X-5042D01*
Y112157D01*
X334499Y292748D02*
X332166D01*
X331000Y291581D01*
Y286916D01*
X332166Y285750D01*
X334499D01*
X335665Y286916D01*
Y291581D01*
X334499Y292748D01*
X-2000Y238194D02*
X-7332D01*
X-9997Y240860D01*
X-7332Y243526D01*
X-2000D01*
X-5999D01*
Y238194D01*
X-2000Y246192D02*
X-9997D01*
X-2000Y251523D01*
X-9997D01*
Y254189D02*
Y259521D01*
Y256855D01*
X-2000D01*
X190250Y292498D02*
X192583D01*
X191416D01*
Y285500D01*
X190250D01*
X192583D01*
X-8665Y205446D02*
X-9997Y204113D01*
Y201447D01*
X-8665Y200114D01*
X-3333D01*
X-2000Y201447D01*
Y204113D01*
X-3333Y205446D01*
X-5999D01*
Y202780D01*
X-2000Y208112D02*
X-9997D01*
X-2000Y213443D01*
X-9997D01*
X-8665Y221441D02*
X-9997Y220108D01*
Y217442D01*
X-8665Y216109D01*
X-7332D01*
X-5999Y217442D01*
Y220108D01*
X-4666Y221441D01*
X-3333D01*
X-2000Y220108D01*
Y217442D01*
X-3333Y216109D01*
X-8665Y229438D02*
X-9997Y228105D01*
Y225439D01*
X-8665Y224107D01*
X-7332D01*
X-5999Y225439D01*
Y228105D01*
X-4666Y229438D01*
X-3333D01*
X-2000Y228105D01*
Y225439D01*
X-3333Y224107D01*
X204500Y292498D02*
X206833D01*
X205666D01*
Y285500D01*
X204500D01*
X206833D01*
X213830Y292498D02*
X211498D01*
X210331Y291331D01*
Y286666D01*
X211498Y285500D01*
X213830D01*
X214997Y286666D01*
Y291331D01*
X213830Y292498D01*
X164750Y240000D02*
Y247997D01*
X168749D01*
X170082Y246665D01*
Y243999D01*
X168749Y242666D01*
X164750D01*
X172747Y240000D02*
Y247997D01*
X176746D01*
X178079Y246665D01*
Y243999D01*
X176746Y242666D01*
X172747D01*
X186076Y246665D02*
X184743Y247997D01*
X182078D01*
X180745Y246665D01*
Y245332D01*
X182078Y243999D01*
X184743D01*
X186076Y242666D01*
Y241333D01*
X184743Y240000D01*
X182078D01*
X180745Y241333D01*
X369499Y292748D02*
X367166D01*
X366000Y291581D01*
Y286916D01*
X367166Y285750D01*
X369499D01*
X370665Y286916D01*
Y291581D01*
X369499Y292748D01*
X207752Y2000D02*
X214750D01*
Y6665D01*
X207752Y13663D02*
Y8998D01*
X214750D01*
Y13663D01*
X211251Y8998D02*
Y11330D01*
X207752Y15996D02*
X214750D01*
Y19494D01*
X213584Y20661D01*
X208918D01*
X207752Y19494D01*
Y15996D01*
X214750Y27658D02*
Y22993D01*
X210085Y27658D01*
X208918D01*
X207752Y26492D01*
Y24160D01*
X208918Y22993D01*
X173502Y2000D02*
X180500D01*
Y6665D01*
X173502Y13663D02*
Y8998D01*
X180500D01*
Y13663D01*
X177001Y8998D02*
Y11330D01*
X173502Y15996D02*
X180500D01*
Y19494D01*
X179334Y20661D01*
X174669D01*
X173502Y19494D01*
Y15996D01*
X180500Y22993D02*
Y25326D01*
Y24160D01*
X173502D01*
X174669Y22993D01*
D13*
X120750Y46250D02*
G03*
X120750Y46250I-250J0D01*
G01*
X275000Y15750D02*
G03*
X275000Y15750I-250J0D01*
G01*
X172250Y147750D02*
X194250D01*
X172250D02*
Y177750D01*
X194250D01*
Y147750D02*
Y177750D01*
X51500Y195500D02*
X72750D01*
X51500D02*
Y216750D01*
Y274250D02*
Y295500D01*
X72750D01*
X130250D02*
X151500D01*
Y274250D02*
Y295500D01*
Y195500D02*
Y216750D01*
X130250Y195500D02*
X151500D01*
X57250Y86875D02*
X67750D01*
X57250Y76375D02*
Y86875D01*
X67750Y76375D02*
Y86875D01*
X57250Y76375D02*
X67750D01*
X123500Y47000D02*
X148000D01*
X123500D02*
X123500Y15000D01*
X148000D01*
X148000Y47000D02*
X148000Y15000D01*
X15000Y159250D02*
Y215250D01*
X52000D01*
Y159250D02*
Y215250D01*
X15000Y159250D02*
X52000D01*
X51500Y241500D02*
Y274250D01*
X72750Y195500D02*
X88250D01*
X114750D02*
X130250D01*
X72750Y295500D02*
X130250D01*
X151500Y216750D02*
Y274250D01*
X148250Y44000D02*
X161500D01*
X247250Y15000D02*
X271750D01*
Y47000D01*
X247250D02*
X271750D01*
X247250Y15000D02*
Y47000D01*
X439875Y98500D02*
Y101250D01*
X434500D02*
X439875D01*
X415125D02*
X420500D01*
X415125Y98500D02*
Y101250D01*
Y76250D02*
Y79000D01*
Y76250D02*
X420500D01*
X434500D02*
X439875D01*
Y79000D01*
X434500Y76250D02*
X439875Y79000D01*
X402250Y158750D02*
X403500D01*
X402250D02*
Y169250D01*
X403500D01*
X419500Y158750D02*
X420750D01*
X419500Y169250D02*
X420750D01*
Y158750D02*
Y161500D01*
Y166500D02*
Y169250D01*
X249250Y61200D02*
Y66698D01*
X251999D01*
X252915Y65782D01*
Y63949D01*
X251999Y63032D01*
X249250D01*
X254748Y61200D02*
Y66698D01*
X257497D01*
X258414Y65782D01*
Y63949D01*
X257497Y63032D01*
X254748D01*
X256581D02*
X258414Y61200D01*
X262995Y66698D02*
X261163D01*
X260246Y65782D01*
Y62116D01*
X261163Y61200D01*
X262995D01*
X263912Y62116D01*
Y65782D01*
X262995Y66698D01*
X269410Y65782D02*
X268494Y66698D01*
X266661D01*
X265745Y65782D01*
Y62116D01*
X266661Y61200D01*
X268494D01*
X269410Y62116D01*
Y63949D01*
X267577D01*
X-6834Y36998D02*
X-10500D01*
Y34249D01*
X-8667Y35165D01*
X-7751D01*
X-6834Y34249D01*
Y32416D01*
X-7751Y31500D01*
X-9584D01*
X-10500Y32416D01*
X-5002Y36082D02*
X-4085Y36998D01*
X-2253D01*
X-1336Y36082D01*
Y32416D01*
X-2253Y31500D01*
X-4085D01*
X-5002Y32416D01*
Y36082D01*
X-10500Y264000D02*
X-8667D01*
X-9584D01*
Y269498D01*
X-10500Y268582D01*
X273750Y66698D02*
Y61200D01*
X276499D01*
X277415Y62116D01*
Y63032D01*
X276499Y63949D01*
X273750D01*
X276499D01*
X277415Y64865D01*
Y65782D01*
X276499Y66698D01*
X273750D01*
X252915Y75248D02*
X249250D01*
Y72499D01*
X251083D01*
X249250D01*
Y69750D01*
X254748D02*
Y75248D01*
X257497D01*
X258414Y74332D01*
Y72499D01*
X257497Y71583D01*
X254748D01*
X263912Y74332D02*
X262995Y75248D01*
X261163D01*
X260246Y74332D01*
Y70666D01*
X261163Y69750D01*
X262995D01*
X263912Y70666D01*
Y72499D01*
X262079D01*
X265745Y69750D02*
Y73415D01*
X267577Y75248D01*
X269410Y73415D01*
Y69750D01*
Y72499D01*
X265745D01*
X-10500Y167750D02*
X-8667D01*
X-9584D01*
Y173248D01*
X-10500Y172332D01*
X-5918Y173248D02*
X-2253D01*
Y172332D01*
X-5918Y168666D01*
Y167750D01*
X94752Y27750D02*
Y31416D01*
Y29583D01*
X100250D01*
Y33248D02*
X94752D01*
Y35997D01*
X95668Y36914D01*
X97501D01*
X98417Y35997D01*
Y33248D01*
X100250Y42412D02*
Y38746D01*
X96585Y42412D01*
X95668D01*
X94752Y41495D01*
Y39663D01*
X95668Y38746D01*
X103500Y68498D02*
X107165D01*
X105333D01*
Y63000D01*
X108998D02*
Y68498D01*
X111747D01*
X112664Y67582D01*
Y65749D01*
X111747Y64833D01*
X108998D01*
X114496Y63000D02*
X116329D01*
X115413D01*
Y68498D01*
X114496Y67582D01*
X235000Y291748D02*
X238666Y286250D01*
Y291748D02*
X235000Y286250D01*
X240498Y291748D02*
X244164D01*
Y290832D01*
X240498Y287166D01*
Y286250D01*
X155750Y291998D02*
X159416Y286500D01*
Y291998D02*
X155750Y286500D01*
X164914Y291998D02*
X163081Y291082D01*
X161248Y289249D01*
Y287416D01*
X162165Y286500D01*
X163997D01*
X164914Y287416D01*
Y288333D01*
X163997Y289249D01*
X161248D01*
X26250Y155248D02*
X29915Y149750D01*
Y155248D02*
X26250Y149750D01*
X34497Y155248D02*
X32664D01*
X31748Y154332D01*
Y150666D01*
X32664Y149750D01*
X34497D01*
X35414Y150666D01*
Y154332D01*
X34497Y155248D01*
X37246Y149750D02*
X39079D01*
X38163D01*
Y155248D01*
X37246Y154332D01*
X21500Y131748D02*
X23333D01*
X22416D01*
Y126250D01*
X21500D01*
X23333D01*
X29747Y130832D02*
X28831Y131748D01*
X26998D01*
X26082Y130832D01*
Y127166D01*
X26998Y126250D01*
X28831D01*
X29747Y127166D01*
X31580Y130832D02*
X32497Y131748D01*
X34329D01*
X35245Y130832D01*
Y129916D01*
X34329Y128999D01*
X33413D01*
X34329D01*
X35245Y128083D01*
Y127166D01*
X34329Y126250D01*
X32497D01*
X31580Y127166D01*
X37078Y130832D02*
X37995Y131748D01*
X39827D01*
X40744Y130832D01*
Y129916D01*
X39827Y128999D01*
X38911D01*
X39827D01*
X40744Y128083D01*
Y127166D01*
X39827Y126250D01*
X37995D01*
X37078Y127166D01*
X296500Y9998D02*
X300166Y4500D01*
Y9998D02*
X296500Y4500D01*
X304747D02*
Y9998D01*
X301998Y7249D01*
X305664D01*
X122752Y64250D02*
Y66083D01*
Y65166D01*
X128250D01*
Y64250D01*
Y66083D01*
X123668Y72497D02*
X122752Y71581D01*
Y69748D01*
X123668Y68832D01*
X127334D01*
X128250Y69748D01*
Y71581D01*
X127334Y72497D01*
X123668Y74330D02*
X122752Y75247D01*
Y77079D01*
X123668Y77996D01*
X124585D01*
X125501Y77079D01*
Y76163D01*
Y77079D01*
X126417Y77996D01*
X127334D01*
X128250Y77079D01*
Y75247D01*
X127334Y74330D01*
X128250Y83494D02*
Y79828D01*
X124585Y83494D01*
X123668D01*
X122752Y82577D01*
Y80745D01*
X123668Y79828D01*
X183750Y191248D02*
X185583D01*
X184666D01*
Y185750D01*
X183750D01*
X185583D01*
X191997Y190332D02*
X191081Y191248D01*
X189248D01*
X188332Y190332D01*
Y186666D01*
X189248Y185750D01*
X191081D01*
X191997Y186666D01*
X197495Y185750D02*
X193830D01*
X197495Y189415D01*
Y190332D01*
X196579Y191248D01*
X194746D01*
X193830Y190332D01*
X199328Y186666D02*
X200245Y185750D01*
X202077D01*
X202994Y186666D01*
Y190332D01*
X202077Y191248D01*
X200245D01*
X199328Y190332D01*
Y189415D01*
X200245Y188499D01*
X202994D01*
X422750Y173248D02*
X426415D01*
X424583D01*
Y167750D01*
X428248Y173248D02*
X431914D01*
Y172332D01*
X428248Y168666D01*
Y167750D01*
X410002Y103500D02*
Y105333D01*
Y104416D01*
X415500D01*
Y103500D01*
Y105333D01*
X410918Y111747D02*
X410002Y110831D01*
Y108998D01*
X410918Y108082D01*
X414584D01*
X415500Y108998D01*
Y110831D01*
X414584Y111747D01*
X410918Y113580D02*
X410002Y114496D01*
Y116329D01*
X410918Y117246D01*
X411834D01*
X412751Y116329D01*
Y115413D01*
Y116329D01*
X413667Y117246D01*
X414584D01*
X415500Y116329D01*
Y114496D01*
X414584Y113580D01*
X237666Y211401D02*
X234000D01*
Y208652D01*
X235833D01*
X234000D01*
Y205903D01*
X239498Y211401D02*
Y205903D01*
X243164D01*
X244996D02*
X246829D01*
X245913D01*
Y211401D01*
X244996Y210485D01*
X267250Y245248D02*
X270916D01*
X269083D01*
Y239750D01*
X272748Y244332D02*
X273665Y245248D01*
X275497D01*
X276414Y244332D01*
Y243416D01*
X275497Y242499D01*
X274581D01*
X275497D01*
X276414Y241583D01*
Y240666D01*
X275497Y239750D01*
X273665D01*
X272748Y240666D01*
X438500Y162248D02*
X442165D01*
X440333D01*
Y156750D01*
X443998Y157666D02*
X444915Y156750D01*
X446747D01*
X447664Y157666D01*
Y161332D01*
X446747Y162248D01*
X444915D01*
X443998Y161332D01*
Y160415D01*
X444915Y159499D01*
X447664D01*
X7500Y292498D02*
X11165Y287000D01*
Y292498D02*
X7500Y287000D01*
X16664Y292498D02*
X12998D01*
Y289749D01*
X14831Y290665D01*
X15747D01*
X16664Y289749D01*
Y287916D01*
X15747Y287000D01*
X13915D01*
X12998Y287916D01*
X395500Y291998D02*
X399165Y286500D01*
Y291998D02*
X395500Y286500D01*
X400998Y291082D02*
X401915Y291998D01*
X403747D01*
X404664Y291082D01*
Y290166D01*
X403747Y289249D01*
X402831D01*
X403747D01*
X404664Y288333D01*
Y287416D01*
X403747Y286500D01*
X401915D01*
X400998Y287416D01*
X297500Y291998D02*
X301166Y286500D01*
Y291998D02*
X297500Y286500D01*
X302998D02*
X304831D01*
X303915D01*
Y291998D01*
X302998Y291082D01*
X396000Y9998D02*
X399665Y4500D01*
Y9998D02*
X396000Y4500D01*
X405164D02*
X401498D01*
X405164Y8166D01*
Y9082D01*
X404247Y9998D01*
X402415D01*
X401498Y9082D01*
X163750Y46248D02*
X165583D01*
X164666D01*
Y40750D01*
X163750D01*
X165583D01*
X171997Y45332D02*
X171081Y46248D01*
X169248D01*
X168332Y45332D01*
Y41666D01*
X169248Y40750D01*
X171081D01*
X171997Y41666D01*
X173830Y45332D02*
X174746Y46248D01*
X176579D01*
X177495Y45332D01*
Y44415D01*
X176579Y43499D01*
X175663D01*
X176579D01*
X177495Y42583D01*
Y41666D01*
X176579Y40750D01*
X174746D01*
X173830Y41666D01*
X179328Y40750D02*
X181161D01*
X180245D01*
Y46248D01*
X179328Y45332D01*
X69362Y56938D02*
X70658Y58234D01*
X70010Y57586D01*
X73898Y53698D01*
X73250Y53050D01*
X74546Y54346D01*
X75842Y62122D02*
X74546Y62122D01*
X73250Y60826D01*
X73250Y59530D01*
X75842Y56938D01*
X77138D01*
X78434Y58234D01*
Y59530D01*
X82970Y62769D02*
X80378Y60178D01*
Y65361D01*
X79730Y66009D01*
X78434Y66009D01*
X77138Y64713D01*
X77138Y63418D01*
X81026Y67305D02*
Y68601D01*
X82322Y69897D01*
X83617D01*
X84265Y69249D01*
Y67953D01*
X85562Y67953D01*
X86209Y67305D01*
Y66009D01*
X84914Y64713D01*
X83617D01*
X82970Y65361D01*
X82970Y66657D01*
X81674D01*
X81026Y67305D01*
X82970Y66657D02*
X84265Y67953D01*
X283002Y22000D02*
Y23833D01*
Y22916D01*
X288500D01*
Y22000D01*
Y23833D01*
X283918Y30247D02*
X283002Y29331D01*
Y27498D01*
X283918Y26582D01*
X287584D01*
X288500Y27498D01*
Y29331D01*
X287584Y30247D01*
X288500Y35745D02*
Y32080D01*
X284834Y35745D01*
X283918D01*
X283002Y34829D01*
Y32996D01*
X283918Y32080D01*
X288500Y41244D02*
Y37578D01*
X284834Y41244D01*
X283918D01*
X283002Y40327D01*
Y38495D01*
X283918Y37578D01*
X231500Y82748D02*
X235166D01*
X233333D01*
Y77250D01*
X236998D02*
Y82748D01*
X239747D01*
X240664Y81832D01*
Y79999D01*
X239747Y79083D01*
X236998D01*
X242496Y81832D02*
X243413Y82748D01*
X245245D01*
X246162Y81832D01*
Y80915D01*
X245245Y79999D01*
X244329D01*
X245245D01*
X246162Y79083D01*
Y78166D01*
X245245Y77250D01*
X243413D01*
X242496Y78166D01*
X46750Y61498D02*
X48583D01*
X47666D01*
Y56000D01*
X46750D01*
X48583D01*
X54997Y60582D02*
X54081Y61498D01*
X52248D01*
X51332Y60582D01*
Y56916D01*
X52248Y56000D01*
X54081D01*
X54997Y56916D01*
X56830Y60582D02*
X57746Y61498D01*
X59579D01*
X60496Y60582D01*
Y59665D01*
X59579Y58749D01*
X58663D01*
X59579D01*
X60496Y57833D01*
Y56916D01*
X59579Y56000D01*
X57746D01*
X56830Y56916D01*
X62328Y60582D02*
X63245Y61498D01*
X65077D01*
X65994Y60582D01*
Y56916D01*
X65077Y56000D01*
X63245D01*
X62328Y56916D01*
Y60582D01*
X360500Y119998D02*
X364165D01*
X362333D01*
Y114500D01*
X365998D02*
X367831D01*
X366915D01*
Y119998D01*
X365998Y119082D01*
X370580D02*
X371496Y119998D01*
X373329D01*
X374245Y119082D01*
Y115416D01*
X373329Y114500D01*
X371496D01*
X370580Y115416D01*
Y119082D01*
X440000Y179248D02*
X443666D01*
X441833D01*
Y173750D01*
X448247D02*
Y179248D01*
X445498Y176499D01*
X449164D01*
X-10500Y27748D02*
X-6834Y22250D01*
Y27748D02*
X-10500Y22250D01*
X-5002D02*
X-3169D01*
X-4085D01*
Y27748D01*
X-5002Y26832D01*
X-420Y22250D02*
X1413D01*
X496D01*
Y27748D01*
X-420Y26832D01*
X92250Y197998D02*
X94083D01*
X93166D01*
Y192500D01*
X92250D01*
X94083D01*
X100497Y197082D02*
X99581Y197998D01*
X97748D01*
X96832Y197082D01*
Y193416D01*
X97748Y192500D01*
X99581D01*
X100497Y193416D01*
X102330Y192500D02*
X104163D01*
X103246D01*
Y197998D01*
X102330Y197082D01*
X106912Y192500D02*
X108745D01*
X107828D01*
Y197998D01*
X106912Y197082D01*
X197502Y153500D02*
Y155333D01*
Y154416D01*
X203000D01*
Y153500D01*
Y155333D01*
X198418Y161747D02*
X197502Y160831D01*
Y158998D01*
X198418Y158082D01*
X202084D01*
X203000Y158998D01*
Y160831D01*
X202084Y161747D01*
X203000Y163580D02*
Y165413D01*
Y164496D01*
X197502D01*
X198418Y163580D01*
X197502Y168162D02*
Y171827D01*
X198418D01*
X202084Y168162D01*
X203000D01*
X215000Y105498D02*
X216833D01*
X215916D01*
Y100000D01*
X215000D01*
X216833D01*
X223247Y104582D02*
X222331Y105498D01*
X220498D01*
X219582Y104582D01*
Y100916D01*
X220498Y100000D01*
X222331D01*
X223247Y100916D01*
X228745Y100000D02*
X225080D01*
X228745Y103666D01*
Y104582D01*
X227829Y105498D01*
X225996D01*
X225080Y104582D01*
X234244Y105498D02*
X232411Y104582D01*
X230578Y102749D01*
Y100916D01*
X231495Y100000D01*
X233327D01*
X234244Y100916D01*
Y101833D01*
X233327Y102749D01*
X230578D01*
D14*
X57000Y165000D02*
G03*
X57000Y165000I-1000J0D01*
G01*
X239667Y250250D02*
X245333D01*
X242500Y258750D02*
X245333Y250250D01*
X239667D02*
X242500Y258750D01*
Y256750D02*
X242500Y235750D01*
X239667Y244250D02*
X242500Y235750D01*
X245333Y244250D01*
X239667D02*
X245333D01*
X-1000Y278958D02*
X-1000Y263708D01*
X1833Y272208D01*
X-3833D02*
X-1000Y263708D01*
X-3833Y272208D02*
X1833D01*
X154917Y244250D02*
X160583D01*
X154917D02*
X157750Y235750D01*
X160583Y244250D01*
X157750Y235750D02*
X157750Y251000D01*
D15*
X115250Y23750D02*
G03*
X115250Y23750I-6500J0D01*
G01*
Y38500D02*
G03*
X115250Y38500I-6500J0D01*
G01*
X246000Y67500D02*
G03*
X246000Y67500I-6500J0D01*
G01*
X2250Y177500D02*
X6250D01*
X2250Y171000D02*
X6250D01*
X250Y205000D02*
X3250Y205000D01*
X-1500Y203000D02*
Y207000D01*
X5000Y203000D02*
Y207000D01*
X2250Y157750D02*
X6250D01*
X2250Y164250D02*
X6250D01*
X2224Y156826D02*
X6224Y156826D01*
X2224Y150326D02*
X6224Y150326D01*
X17250Y227500D02*
Y231500D01*
X23750Y227500D02*
Y231500D01*
X13500Y220500D02*
X16500D01*
X11750Y218500D02*
Y222500D01*
X18250Y218500D02*
Y222500D01*
X23432Y217400D02*
Y220400D01*
X21432Y215650D02*
X25432D01*
X21432Y222150D02*
X25432D01*
X47500Y82000D02*
Y86000D01*
X41000Y82000D02*
Y86000D01*
X34500Y82000D02*
Y86000D01*
X41000Y82000D02*
Y86000D01*
X134000Y102000D02*
Y104000D01*
X132000Y102000D02*
X134000D01*
X132000D02*
Y104000D01*
Y72000D02*
X164000D01*
X132000Y104000D02*
X164000D01*
X33750Y242500D02*
Y246500D01*
X40250Y242500D02*
Y246500D01*
X203500Y12750D02*
X203500Y16750D01*
X197000D02*
X197000Y12750D01*
X236350Y159581D02*
X239350D01*
X241100Y161581D02*
X241100Y157581D01*
X234600D02*
X234600Y161581D01*
X48000Y218300D02*
Y222300D01*
X41500Y218300D02*
Y222300D01*
X2250Y239250D02*
X6250D01*
X2250Y245750D02*
X6250D01*
X2250D02*
X6250D01*
X2250Y252250D02*
X6250D01*
X160240Y163546D02*
X164240D01*
X160240Y157046D02*
X164240D01*
X213250Y257000D02*
X213250Y253000D01*
X206750Y257000D02*
X206750Y253000D01*
X360000Y289250D02*
Y293250D01*
X353500Y289250D02*
Y293250D01*
X173000Y147028D02*
X177000D01*
X173000Y140528D02*
X177000D01*
X187500Y141000D02*
X191500D01*
X187500Y147500D02*
X191500D01*
X178250Y67000D02*
Y71000D01*
X184750Y67000D02*
Y71000D01*
X348500Y289250D02*
Y293250D01*
X342000Y289250D02*
Y293250D01*
X100750Y46500D02*
X104000Y43250D01*
X100750Y58000D02*
X103500Y60750D01*
X100750Y46500D02*
Y58000D01*
X70002Y149230D02*
X72124Y147108D01*
X71947Y144457D02*
X74775Y147285D01*
X67351Y149053D02*
X70179Y151881D01*
X347000Y20500D02*
Y24500D01*
X340500Y20500D02*
Y24500D01*
X342250Y22500D02*
X345250D01*
X9500Y90250D02*
Y94250D01*
X16000Y90250D02*
Y94250D01*
X94000Y72750D02*
X98000D01*
X94000Y66250D02*
X98000D01*
X28000Y82000D02*
Y86000D01*
X34500Y82000D02*
Y86000D01*
X2250Y31247D02*
X6250Y31247D01*
X2250Y37747D02*
X6250Y37747D01*
X191250Y73846D02*
X191250Y69846D01*
X184750D02*
X184750Y73846D01*
X357000Y53500D02*
X360000D01*
X361750Y51500D02*
Y55500D01*
X355250Y51500D02*
Y55500D01*
X350250Y53500D02*
X353250D01*
X355000Y51500D02*
Y55500D01*
X348500Y51500D02*
Y55500D01*
X22750Y84000D02*
X25750D01*
X21000Y82000D02*
Y86000D01*
X27500Y82000D02*
Y86000D01*
X170500Y91904D02*
X170500Y95904D01*
X177000D02*
X177000Y91904D01*
X170500Y77554D02*
X170500Y81554D01*
X177000Y77554D02*
Y81554D01*
X184346Y232000D02*
X188346Y232000D01*
X184346Y238500D02*
X188346Y238500D01*
X199446Y232250D02*
X203446Y232250D01*
X199446Y238750D02*
X203446Y238750D01*
X191250Y80946D02*
X191250Y84946D01*
X184750D02*
X184750Y80946D01*
X190750Y16750D02*
X190750Y12750D01*
X184250D02*
X184250Y16750D01*
X213250Y180500D02*
X217250D01*
X213250Y187000D02*
X217250D01*
X232000Y196317D02*
X236000D01*
X232000Y202817D02*
X236000D01*
X86189Y160439D02*
X88311Y162561D01*
X83538Y160616D02*
X86366Y157788D01*
X88134Y165212D02*
X90962Y162384D01*
X94189Y158061D02*
X96311Y155939D01*
X91538Y157884D02*
X94366Y160712D01*
X96134Y153288D02*
X98962Y156116D01*
X102439Y166061D02*
X104561Y163939D01*
X104384Y161288D02*
X107212Y164116D01*
X99788Y165884D02*
X102616Y168712D01*
X89000Y178750D02*
Y181750D01*
X87000Y177000D02*
X91000D01*
X87000Y183500D02*
X91000D01*
X117467Y170250D02*
Y173250D01*
X115467Y168500D02*
X119467D01*
X115467Y175000D02*
X119467D01*
X117467Y163750D02*
Y166750D01*
X115467Y162000D02*
X119467D01*
X115467Y168500D02*
X119467D01*
X124450Y187000D02*
X124450Y190000D01*
X122450Y191750D02*
X126450D01*
X122450Y185250D02*
X126450D01*
X115450Y131550D02*
X118450D01*
X120200Y129550D02*
Y133550D01*
X113700Y129550D02*
Y133550D01*
X115000Y117250D02*
Y120250D01*
X113000Y115500D02*
X117000D01*
X113000Y122000D02*
X117000D01*
X107500Y100000D02*
Y103000D01*
X105500Y104750D02*
X109500D01*
X105500Y98250D02*
X109500D01*
X117000Y82750D02*
X120000D01*
X115250Y80750D02*
Y84750D01*
X121750Y80750D02*
Y84750D01*
X137950Y152250D02*
X137950Y155250D01*
X135950Y157000D02*
X139950D01*
X135950Y150500D02*
X139950D01*
X148250Y144000D02*
X151250D01*
X146500Y142000D02*
Y146000D01*
X153000Y142000D02*
Y146000D01*
X136939Y144811D02*
X139061Y142689D01*
X138884Y140038D02*
X141712Y142866D01*
X134288Y144634D02*
X137116Y147462D01*
X119000Y110750D02*
Y113750D01*
X117000Y115500D02*
X121000D01*
X117000Y109000D02*
X121000D01*
X91750Y118000D02*
X94750D01*
X90000Y116000D02*
Y120000D01*
X96500Y116000D02*
Y120000D01*
X103939Y144189D02*
X106061Y146311D01*
X105884Y148962D02*
X108712Y146134D01*
X101288Y144366D02*
X104116Y141538D01*
X125000Y162800D02*
X128000D01*
X129750Y160800D02*
Y164800D01*
X123250Y160800D02*
Y164800D01*
X77500Y124500D02*
X80500D01*
X75750Y126500D02*
X75750Y122500D01*
X82250D02*
X82250Y126500D01*
X101250Y111500D02*
X104250D01*
X99500Y109500D02*
Y113500D01*
X106000Y109500D02*
Y113500D01*
X61250Y136750D02*
X64250Y136750D01*
X66000Y134750D02*
Y138750D01*
X59500Y134750D02*
Y138750D01*
X76750Y156500D02*
X79750D01*
X75000Y154500D02*
Y158500D01*
X81500Y154500D02*
Y158500D01*
X116500Y29800D02*
X119500Y29800D01*
X121250Y27800D02*
X121250Y31800D01*
X114750Y27800D02*
Y31800D01*
X275750Y32200D02*
X278750Y32200D01*
X274000Y30200D02*
X274000Y34200D01*
X280500Y30200D02*
Y34200D01*
X104189Y134189D02*
X106311Y136311D01*
X101538Y134366D02*
X104366Y131538D01*
X106134Y138962D02*
X108962Y136134D01*
X6250Y228000D02*
Y231000D01*
X4250Y232750D02*
X8250D01*
X4250Y226250D02*
X8250D01*
X176500Y128500D02*
Y131500D01*
X174500Y133250D02*
X178500D01*
X174500Y126750D02*
X178500D01*
X163500Y145100D02*
X166500Y145100D01*
X168250Y143100D02*
Y147100D01*
X161750Y143100D02*
Y147100D01*
X187750Y121500D02*
Y124500D01*
X185750Y119750D02*
X189750D01*
X185750Y126250D02*
X189750D01*
X178000Y195000D02*
Y227000D01*
X210000Y195000D02*
Y227000D01*
X178000Y195000D02*
X180000D01*
Y197000D01*
X178000D02*
X180000D01*
X230000Y141500D02*
X234000D01*
X230000Y148000D02*
X234000D01*
X109439Y77439D02*
X111561Y79561D01*
X106788Y77616D02*
X109616Y74788D01*
X111384Y82212D02*
X114212Y79384D01*
X92964Y60214D02*
X95964D01*
X91214Y58214D02*
Y62214D01*
X97714Y58214D02*
Y62214D01*
X86500Y60214D02*
X89500D01*
X84750Y58214D02*
Y62214D01*
X91250Y58214D02*
Y62214D01*
X255955Y161345D02*
Y165345D01*
X249455Y161345D02*
Y165345D01*
X48000Y121500D02*
Y125500D01*
X54500Y121500D02*
Y125500D01*
X86550Y74100D02*
X86550Y78100D01*
X80050Y74100D02*
Y78100D01*
X173500Y133750D02*
X177500D01*
X173500Y140250D02*
X177500D01*
X188250Y129250D02*
Y133250D01*
X181750Y129250D02*
Y133250D01*
X174000Y118250D02*
X178000D01*
X174000Y111750D02*
X178000D01*
X174500Y119750D02*
X178500D01*
X174500Y126250D02*
X178500D01*
X185750Y119750D02*
X189750D01*
X185750Y113250D02*
X189750D01*
X191750Y249750D02*
X195750D01*
X191750Y243250D02*
X195750D01*
X170750Y106000D02*
X174750D01*
X170750Y99500D02*
X174750D01*
X159700Y129750D02*
Y133750D01*
X166200Y129750D02*
Y133750D01*
X47750Y227500D02*
Y230500D01*
X45750Y225750D02*
X49750D01*
X45750Y232250D02*
X49750D01*
X64000Y189586D02*
X67000D01*
X62250Y187586D02*
Y191586D01*
X68750Y187586D02*
Y191586D01*
X309750Y164000D02*
Y168000D01*
X303250Y164000D02*
Y168000D01*
X106000Y172000D02*
Y176000D01*
X112500Y172000D02*
Y176000D01*
X230000Y148000D02*
X234000D01*
X230000Y154500D02*
X234000D01*
X259000Y177500D02*
Y181500D01*
X252500Y177500D02*
Y181500D01*
X194500Y58750D02*
X226500D01*
X194500Y90750D02*
X226500D01*
Y58750D02*
Y60750D01*
X224500D02*
X226500D01*
X224500Y58750D02*
Y60750D01*
X389000Y52500D02*
Y56500D01*
X382500Y52500D02*
Y56500D01*
X312250Y54000D02*
X316250D01*
X312250Y47500D02*
X316250D01*
X422000Y109000D02*
X426000Y109000D01*
X422000Y115500D02*
X426000Y115500D01*
X381250Y249750D02*
X385250D01*
X381250Y243250D02*
X385250D01*
X312250Y248500D02*
X316250D01*
X312250Y242000D02*
X316250D01*
X2250Y126139D02*
X6250D01*
X2250Y132640D02*
X6250D01*
X2250Y118250D02*
X6250D01*
X2250Y124750D02*
X6250D01*
X4250Y120000D02*
X4250Y123000D01*
X2250Y39026D02*
X6250D01*
X2250Y45526D02*
X6250D01*
X2250Y47468D02*
X6250D01*
X2250Y53968D02*
X6250D01*
X2250Y55026D02*
X6250D01*
X2250Y61526D02*
X6250D01*
X2250Y63468D02*
X6250D01*
X2250Y69968D02*
X6250D01*
X2250Y71026D02*
X6250D01*
X2250Y77526D02*
X6250D01*
X2250Y79468D02*
X6250D01*
X2250Y85968D02*
X6250D01*
X2243Y87247D02*
X6243D01*
X2243Y93747D02*
X6243D01*
X221700Y92955D02*
X221700Y95955D01*
X219700Y91205D02*
X223700Y91205D01*
X219700Y97705D02*
X223700D01*
X136800Y66545D02*
X136800Y69545D01*
X134800Y71295D02*
X138800Y71295D01*
X134800Y64795D02*
X138800D01*
X212705Y199800D02*
X215705Y199800D01*
X210955Y201800D02*
X210955Y197800D01*
X217455D02*
Y201800D01*
X423750Y165500D02*
X427750D01*
X423750Y159000D02*
X427750D01*
X446750Y82000D02*
X450750D01*
X446750Y75500D02*
X450750D01*
X444000Y105350D02*
Y109350D01*
X450500Y109350D02*
X450500Y105350D01*
X444000Y96000D02*
X447000D01*
X442250Y94000D02*
Y98000D01*
X448750Y94000D02*
Y98000D01*
X435000Y103750D02*
X435000Y106750D01*
X433000Y102000D02*
X437000Y102000D01*
X433000Y108500D02*
X437000Y108500D01*
X424000Y103750D02*
X424000Y106750D01*
X422000Y108500D02*
X426000Y108500D01*
X422000Y102000D02*
X426000Y102000D01*
X155300Y34250D02*
X159300Y34250D01*
X155300Y27750D02*
X159300D01*
X161879Y22321D02*
X161879Y18321D01*
X155379D02*
X155379Y22321D01*
X155300Y41000D02*
X159300D01*
X155300Y34500D02*
X159300Y34500D01*
X284750Y214550D02*
Y218550D01*
X291250Y214550D02*
Y218550D01*
X286500Y216550D02*
X289500Y216550D01*
X281065Y110000D02*
X285065D01*
X281065Y103500D02*
X285065D01*
X283065Y105250D02*
Y108250D01*
X283500Y113000D02*
Y117000D01*
X277000Y113000D02*
Y117000D01*
X233250Y18200D02*
X233250Y22200D01*
X239750Y18200D02*
Y22200D01*
X235950Y41000D02*
X239950D01*
X235950Y34500D02*
X239950Y34500D01*
X235950Y34250D02*
X239950D01*
X235950Y27750D02*
X239950D01*
X2250Y258750D02*
X6250D01*
X2250Y252250D02*
X6250D01*
X2250Y239237D02*
X6250D01*
X2250Y232737D02*
X6250D01*
X70000Y142000D02*
X74000D01*
X70000Y135500D02*
X74000D01*
X158000Y184500D02*
X162000D01*
X158000Y191000D02*
X162000Y191000D01*
X124788Y180634D02*
X127616Y183462D01*
X129384Y176038D02*
X132212Y178866D01*
X41750Y117000D02*
Y121000D01*
X48250Y117000D02*
Y121000D01*
X158000Y191000D02*
X162000D01*
X158000Y197500D02*
X162000D01*
X145750Y194000D02*
X149750D01*
X145750Y187500D02*
X149750D01*
X148250Y185500D02*
X152250Y185500D01*
X148250Y179000D02*
X152250Y179000D01*
X137904Y178142D02*
X140732Y175314D01*
X133308Y173546D02*
X136136Y170718D01*
X136250Y163050D02*
Y167050D01*
X129750Y163050D02*
Y167050D01*
X144000Y161250D02*
Y165250D01*
X137500Y161250D02*
Y165250D01*
X157000Y166463D02*
X161000D01*
X157000Y172963D02*
X161000D01*
X4250Y145218D02*
Y148218D01*
X2250Y149968D02*
X6250D01*
X2250Y143468D02*
X6250D01*
X4250Y136776D02*
Y139776D01*
X2250Y141526D02*
X6250D01*
X2250Y135026D02*
X6250D01*
X14873Y81218D02*
Y84218D01*
X12874Y85968D02*
X16874D01*
X12874Y79468D02*
X16874D01*
X14873Y72776D02*
Y75776D01*
X12874Y77526D02*
X16874D01*
X12874Y71026D02*
X16874D01*
X4250Y113218D02*
Y116218D01*
X2250Y111468D02*
X6250D01*
X2250Y117968D02*
X6250D01*
X4250Y104776D02*
Y107776D01*
X2250Y103026D02*
X6250D01*
X2250Y109526D02*
X6250D01*
X16550Y63250D02*
Y66250D01*
X14550Y61500D02*
X18550D01*
X14550Y68000D02*
X18550D01*
X16550Y56500D02*
Y59500D01*
X14550Y54750D02*
X18550D01*
X14550Y61250D02*
X18550D01*
X4250Y218968D02*
Y221968D01*
X2250Y217218D02*
X6250D01*
X2250Y223718D02*
X6250D01*
X4250Y212276D02*
Y215276D01*
X2250Y210526D02*
X6250D01*
X2250Y217026D02*
X6250D01*
X154750Y174250D02*
Y177250D01*
X152750Y172500D02*
X156750D01*
X152750Y179000D02*
X156750D01*
X390500Y118750D02*
Y122750D01*
X397000Y118750D02*
Y122750D01*
X265000Y78500D02*
X269000D01*
X265000Y85000D02*
X269000D01*
X308250Y192000D02*
Y196000D01*
X314750Y192000D02*
Y196000D01*
X254884Y88288D02*
X257712Y91116D01*
X250288Y92884D02*
X253116Y95712D01*
X314250Y181000D02*
Y185000D01*
X307750Y181000D02*
Y185000D01*
X269250Y202750D02*
Y206750D01*
X275750Y202750D02*
Y206750D01*
X303968Y203364D02*
X306796Y206192D01*
X308564Y198768D02*
X311392Y201596D01*
X275750Y214500D02*
Y218500D01*
X269250Y214500D02*
Y218500D01*
X279265Y87700D02*
Y91700D01*
X272765Y87700D02*
Y91700D01*
X341450Y140000D02*
Y144000D01*
X334950Y140000D02*
Y144000D01*
X347134Y193712D02*
X349962Y190884D01*
X342538Y189116D02*
X345366Y186288D01*
X275845Y214550D02*
Y218550D01*
X282345Y214550D02*
Y218550D01*
X327262Y196034D02*
X330090Y198862D01*
X331858Y191438D02*
X334686Y194266D01*
X311000Y216750D02*
Y220750D01*
X317500Y216750D02*
Y220750D01*
X288750Y164750D02*
Y168750D01*
X282250Y164750D02*
Y168750D01*
X275000Y175000D02*
X279000D01*
X275000Y181500D02*
X279000D01*
X269500Y113000D02*
Y117000D01*
X276000Y113000D02*
Y117000D01*
X320000Y112000D02*
X324000D01*
X320000Y118500D02*
X324000D01*
X314500Y125500D02*
X318500D01*
X314500Y132000D02*
X318500D01*
X327843Y143700D02*
Y147700D01*
X321343Y143700D02*
Y147700D01*
X353750Y177500D02*
X357750D01*
X353750Y171000D02*
X357750D01*
X320974Y167900D02*
Y171900D01*
X314474Y167900D02*
Y171900D01*
X252724Y192700D02*
X256724D01*
X252724Y199200D02*
X256724D01*
X319474Y157400D02*
X323474D01*
X319474Y163900D02*
X323474D01*
X304000Y176750D02*
X307000D01*
X302250Y174750D02*
Y178750D01*
X308750Y174750D02*
Y178750D01*
X258314Y87686D02*
X260436Y85564D01*
X260259Y82913D02*
X263087Y85741D01*
X255663Y87509D02*
X258491Y90337D01*
X316000Y183000D02*
X319000D01*
X320750Y181000D02*
Y185000D01*
X314250Y181000D02*
Y185000D01*
X260939Y94939D02*
X263061Y97061D01*
X258288Y95116D02*
X261116Y92288D01*
X262884Y99712D02*
X265712Y96884D01*
X341000Y130500D02*
Y133500D01*
X339000Y128750D02*
X343000D01*
X339000Y135250D02*
X343000D01*
X278815Y97250D02*
X278815Y100250D01*
X276815Y95500D02*
X280815D01*
X276815Y102000D02*
X280815D01*
X289000Y194750D02*
X292000D01*
X293750Y192750D02*
Y196750D01*
X287250Y192750D02*
Y196750D01*
X303450Y191611D02*
X306450D01*
X301700Y189611D02*
Y193611D01*
X308200Y189611D02*
Y193611D01*
X272750Y193000D02*
X275750D01*
X277500Y191000D02*
Y195000D01*
X271000Y191000D02*
Y195000D01*
X341939Y182939D02*
X344061Y185061D01*
X339288Y183116D02*
X342116Y180288D01*
X343884Y187712D02*
X346712Y184884D01*
X238750Y115370D02*
X241750D01*
X243500Y113370D02*
Y117370D01*
X237000Y113370D02*
Y117370D01*
X232250Y115370D02*
X235250D01*
X237000Y113370D02*
Y117370D01*
X230500Y113370D02*
Y117370D01*
X213250Y136200D02*
X216250D01*
X211500Y134200D02*
Y138200D01*
X218000Y134200D02*
Y138200D01*
X219801Y136200D02*
X222801D01*
X218051Y134200D02*
Y138200D01*
X224551Y134200D02*
Y138200D01*
X214655Y143911D02*
Y146911D01*
X212655Y148661D02*
X216655Y148661D01*
X212655Y142161D02*
X216655D01*
X214655Y151081D02*
Y154081D01*
X212655Y155831D02*
X216655D01*
X212655Y149331D02*
X216655D01*
X227250Y128106D02*
X230250D01*
X225500Y126106D02*
Y130106D01*
X232000Y126106D02*
Y130106D01*
X234250Y128106D02*
X237250D01*
X232500Y126106D02*
Y130106D01*
X239000Y126106D02*
Y130106D01*
X330250Y134000D02*
X333250D01*
X335000Y132000D02*
Y136000D01*
X328500Y132000D02*
Y136000D01*
X321974Y120900D02*
Y123900D01*
X319974Y125650D02*
X323974D01*
X319974Y119150D02*
X323974D01*
X281895Y204750D02*
Y207750D01*
X279895Y203000D02*
X283895D01*
X279895Y209500D02*
X283895D01*
X281895Y198250D02*
Y201250D01*
X279895Y196500D02*
X283895D01*
X279895Y203000D02*
X283895D01*
X322724Y173150D02*
X325724D01*
X320974Y171150D02*
Y175150D01*
X327474Y171150D02*
Y175150D01*
X345750Y173000D02*
X348750D01*
X344000Y171000D02*
Y175000D01*
X350500Y171000D02*
Y175000D01*
X323500Y131500D02*
X326500D01*
X321750Y129500D02*
Y133500D01*
X328250Y129500D02*
Y133500D01*
X338000Y113500D02*
Y116500D01*
X336000Y111750D02*
X340000D01*
X336000Y118250D02*
X340000D01*
X268163Y105839D02*
X270285Y107961D01*
X265512Y106016D02*
X268340Y103188D01*
X270108Y110612D02*
X272936Y107784D01*
X277000Y183250D02*
Y186250D01*
X275000Y181500D02*
X279000D01*
X275000Y188000D02*
X279000D01*
X288555Y173780D02*
X288555Y176780D01*
X286555Y172030D02*
X290555D01*
X286555Y178530D02*
X290555D01*
X288555Y180305D02*
Y183305D01*
X286555Y178555D02*
X290555D01*
X286555Y185055D02*
X290555D01*
X305500Y218750D02*
X308500D01*
X310250Y216750D02*
Y220750D01*
X303750Y216750D02*
Y220750D01*
X321500Y192250D02*
X324500D01*
X326250Y190250D02*
Y194250D01*
X319750Y190250D02*
Y194250D01*
X339163Y160461D02*
X341285Y158339D01*
X341108Y155688D02*
X343936Y158516D01*
X336512Y160284D02*
X339340Y163112D01*
X333250Y181750D02*
X336250D01*
X331500Y179750D02*
Y183750D01*
X338000Y179750D02*
Y183750D01*
X260274Y136900D02*
X260274Y133900D01*
X258274Y132150D02*
X262274Y132150D01*
X258274Y138650D02*
X262274D01*
X260274Y141600D02*
X260274Y144600D01*
X258274Y139850D02*
X262274D01*
X258274Y146350D02*
X262274D01*
X260274Y121650D02*
X260274Y118650D01*
X258274Y116900D02*
X262274Y116900D01*
X258274Y123400D02*
X262274D01*
X260274Y126350D02*
X260274Y129350D01*
X258274Y124600D02*
X262274D01*
X258274Y131100D02*
X262274D01*
X234144Y173495D02*
X237143D01*
X238894Y171495D02*
Y175495D01*
X232393Y171495D02*
Y175495D01*
X226805Y173495D02*
X229805D01*
X231555Y171495D02*
Y175495D01*
X225055Y171495D02*
Y175495D01*
X328724Y162650D02*
X331724D01*
X333474Y160650D02*
Y164650D01*
X326974Y160650D02*
Y164650D01*
X262474Y193150D02*
X265474D01*
X260724Y191150D02*
Y195150D01*
X267224Y191150D02*
Y195150D01*
X263745Y182205D02*
X266745Y182205D01*
X261995Y180205D02*
Y184205D01*
X268495Y180205D02*
Y184205D01*
X244500Y162500D02*
X247500Y162500D01*
X249250Y160500D02*
Y164500D01*
X242750Y160500D02*
Y164500D01*
D16*
X17250Y103190D02*
X46250D01*
Y110810D01*
X17250D02*
X46250D01*
X17250Y103190D02*
Y110810D01*
X48720Y86705D02*
X48720Y76545D01*
X75720Y76545D02*
Y86705D01*
X74250Y183250D02*
X82250D01*
X61250D02*
X69250D01*
X61250Y173250D02*
Y183250D01*
Y173250D02*
X69250D01*
X74250D02*
X82250D01*
Y183250D01*
X52000Y232250D02*
Y240250D01*
Y245250D02*
Y253250D01*
X41000D02*
X52000D01*
X41000Y245250D02*
Y253250D01*
Y232250D02*
Y240250D01*
Y232250D02*
X52000D01*
X373690Y211150D02*
X381310D01*
X373690Y223850D02*
X381310D01*
X373690Y175650D02*
X381310D01*
X373690Y188350D02*
X381310D01*
X67250Y122250D02*
X75250D01*
X54250D02*
X62250D01*
X54250Y112250D02*
Y122250D01*
Y112250D02*
X62250D01*
X67250D02*
X75250D01*
Y122250D01*
X362000Y47250D02*
X370000D01*
X375000D02*
X383000D01*
Y58250D01*
X375000D02*
X383000D01*
X362000D02*
X370000D01*
X362000Y47250D02*
Y58250D01*
X340250Y56250D02*
X348250D01*
X327250D02*
X335250D01*
X327250Y45250D02*
Y56250D01*
Y45250D02*
X335250D01*
X340250D02*
X348250D01*
Y56250D01*
X145778Y127488D02*
Y137012D01*
X142222Y127488D02*
Y137012D01*
X90988Y88472D02*
X100512D01*
X90988Y92028D02*
X100512D01*
X78488Y103222D02*
X88012D01*
X78488Y106778D02*
X88012D01*
X85876Y134890D02*
X92610Y141624D01*
X88390Y132375D02*
X95124Y139110D01*
X82250Y163250D02*
Y173250D01*
X74250Y163250D02*
X82250D01*
X61250D02*
X69250D01*
X61250D02*
Y173250D01*
X69250D01*
X74250D02*
X82250D01*
X108500Y88500D02*
Y98500D01*
X116500D01*
X121500D02*
X129500D01*
Y88500D02*
Y98500D01*
X121500Y88500D02*
X129500D01*
X108500D02*
X116500D01*
X120000Y141500D02*
X130000D01*
Y133500D02*
Y141500D01*
Y120500D02*
Y128500D01*
X120000Y120500D02*
X130000D01*
X120000D02*
Y128500D01*
Y133500D02*
Y141500D01*
X124500Y106250D02*
Y116250D01*
X132500D01*
X137500D02*
X145500D01*
Y106250D02*
Y116250D01*
X137500Y106250D02*
X145500D01*
X124500D02*
X132500D01*
X215250Y30500D02*
X225250D01*
X215250D02*
Y38500D01*
Y43500D02*
Y51500D01*
X225250D01*
Y43500D02*
Y51500D01*
Y30500D02*
Y38500D01*
X46000Y149500D02*
Y159500D01*
X54000D01*
X59000D02*
X67000D01*
Y149500D02*
Y159500D01*
X59000Y149500D02*
X67000D01*
X46000D02*
X54000D01*
X24750Y246000D02*
X32750D01*
X11750D02*
X19750D01*
X11750Y235000D02*
Y246000D01*
Y235000D02*
X19750D01*
X24750D02*
X32750D01*
Y246000D01*
X359750Y234500D02*
Y244500D01*
X351750Y234500D02*
X359750D01*
X338750D02*
X346750D01*
X338750D02*
Y244500D01*
X346750D01*
X351750D02*
X359750D01*
X409500Y47250D02*
Y57250D01*
X401500Y47250D02*
X409500D01*
X388500D02*
X396500D01*
X388500D02*
Y57250D01*
X396500D01*
X401500D02*
X409500D01*
X31500Y218750D02*
X41500D01*
X31500D02*
Y226750D01*
Y231750D02*
Y239750D01*
X41500D01*
Y231750D02*
Y239750D01*
Y218750D02*
Y226750D01*
X56000Y101000D02*
Y111000D01*
X64000D01*
X69000D02*
X77000D01*
Y101000D02*
Y111000D01*
X69000Y101000D02*
X77000D01*
X56000D02*
X64000D01*
X159500Y125495D02*
X167500D01*
X146500D02*
X154500D01*
X146500Y114495D02*
Y125495D01*
Y114495D02*
X154500D01*
X159500D02*
X167500D01*
Y125495D01*
X156505Y222500D02*
Y230500D01*
Y209500D02*
Y217500D01*
Y209500D02*
X167505D01*
Y217500D01*
Y222500D02*
Y230500D01*
X156505D02*
X167505D01*
X167500Y61354D02*
Y71354D01*
X159500Y61354D02*
X167500D01*
X146500D02*
X154500D01*
X146500D02*
Y71354D01*
X154500D01*
X159500D02*
X167500D01*
X167500Y104495D02*
Y114495D01*
X159500Y104495D02*
X167500D01*
X146500D02*
X154500D01*
X146500D02*
Y114495D01*
X154500D01*
X159500D02*
X167500D01*
X210646Y230500D02*
X220646D01*
Y222500D02*
Y230500D01*
Y209500D02*
Y217500D01*
X210646Y209500D02*
X220646D01*
X210646D02*
Y217500D01*
Y222500D02*
Y230500D01*
X167505Y230500D02*
X177505D01*
Y222500D02*
Y230500D01*
Y209500D02*
Y217500D01*
X167505Y209500D02*
X177505D01*
X167505D02*
Y217500D01*
Y222500D02*
Y230500D01*
X372500Y199750D02*
X380500D01*
X385500D02*
X393500D01*
Y209750D01*
X385500D02*
X393500D01*
X372500D02*
X380500D01*
X372500Y199750D02*
Y209750D01*
X362250Y179250D02*
Y187250D01*
Y192250D02*
Y200250D01*
X351250D02*
X362250D01*
X351250Y192250D02*
Y200250D01*
Y179250D02*
Y187250D01*
Y179250D02*
X362250Y179250D01*
X351250Y212250D02*
Y220250D01*
Y199250D02*
Y207250D01*
Y199250D02*
X362250D01*
Y207250D01*
Y212250D02*
Y220250D01*
X351250Y220250D02*
X362250Y220250D01*
X369380Y125500D02*
Y133500D01*
Y138500D02*
Y146500D01*
X359380D02*
X369380D01*
X359380Y138500D02*
Y146500D01*
Y125500D02*
Y133500D01*
Y125500D02*
X369380D01*
X401379Y125500D02*
Y133500D01*
Y138500D02*
Y146500D01*
X390379D02*
X401379D01*
X390379Y138500D02*
X390379Y146500D01*
X390379Y125500D02*
X390379Y133500D01*
X390379Y125500D02*
X401379Y125500D01*
X369379Y136000D02*
X377379D01*
X382379D02*
X390379Y136000D01*
Y146000D01*
X382379D02*
X390379D01*
X369379D02*
X377379D01*
X369379Y136000D02*
Y146000D01*
Y126000D02*
X377379D01*
X382379D02*
X390379D01*
Y136000D01*
X382379D02*
X390379D01*
X369379D02*
X377379D01*
X369379Y126000D02*
Y136000D01*
X118528Y2988D02*
X118528Y12512D01*
X114972Y2988D02*
X114972Y12512D01*
X152972Y49488D02*
X152972Y59012D01*
X156528Y49488D02*
X156528Y59012D01*
X118528Y59012D02*
X118528Y49488D01*
X114972Y49488D02*
Y59012D01*
X156528Y2988D02*
Y12512D01*
X152972Y2988D02*
Y12512D01*
X317000Y87250D02*
Y95250D01*
Y74250D02*
Y82250D01*
Y74250D02*
X327000D01*
Y82250D01*
Y87250D02*
Y95250D01*
X317000D02*
X327000D01*
Y84750D02*
X335000D01*
X340000D02*
X348000D01*
Y94750D01*
X340000D02*
X348000D01*
X327000D02*
X335000D01*
X327000Y84750D02*
Y94750D01*
X327000Y74750D02*
X335000D01*
X340000D02*
X348000D01*
Y84750D01*
X340000D02*
X348000D01*
X327000D02*
X335000D01*
X327000Y74750D02*
Y84750D01*
X348000Y87250D02*
Y95250D01*
Y82250D02*
X348000Y74250D01*
X359000Y74250D01*
X359000Y82250D02*
X359000Y74250D01*
Y87250D02*
Y95250D01*
X348000D02*
X359000D01*
X369979Y150250D02*
Y158250D01*
Y163250D02*
Y171250D01*
X359979D02*
X369979D01*
X359979Y163250D02*
Y171250D01*
Y150250D02*
Y158250D01*
Y150250D02*
X369979D01*
X369979Y150750D02*
X377979D01*
X382979D02*
X390979D01*
X390979Y160750D01*
X382979Y160750D02*
X390979Y160750D01*
X369979Y160750D02*
X377979Y160750D01*
X369979Y150750D02*
Y160750D01*
X369979Y160750D02*
X377979D01*
X382979D02*
X390979D01*
Y170750D01*
X382979D02*
X390979D01*
X369979D02*
X377979D01*
X369979D02*
X369979Y160750D01*
X400979Y150250D02*
Y158250D01*
Y163250D02*
Y171250D01*
X390979Y171250D02*
X400979Y171250D01*
X390979Y163250D02*
Y171250D01*
Y150250D02*
Y158250D01*
Y150250D02*
X400979D01*
X238722Y49488D02*
X238722Y59012D01*
X242278Y49488D02*
X242278Y59012D01*
X33500Y75750D02*
X44500Y75750D01*
Y67750D02*
Y75750D01*
Y54750D02*
Y62750D01*
X33500Y54750D02*
X44500Y54750D01*
X33500Y54750D02*
Y62750D01*
Y67750D02*
Y75750D01*
X280278Y2988D02*
Y12512D01*
X276722Y2988D02*
Y12512D01*
X280278Y49488D02*
Y59012D01*
X276722Y49488D02*
Y59012D01*
X238722Y12512D02*
X238722Y2988D01*
X242278Y12512D02*
X242278Y2988D01*
X23500Y75750D02*
X33500D01*
Y67750D02*
Y75750D01*
Y54750D02*
Y62750D01*
X23500Y54750D02*
X33500D01*
X23500D02*
Y62750D01*
Y67750D02*
Y75750D01*
X218500Y113750D02*
Y124750D01*
X210500Y113750D02*
X218500D01*
X197500D02*
X205500D01*
X197500D02*
Y124750D01*
X205500D01*
X210500D02*
X218500D01*
X251000Y114528D02*
X258778Y106750D01*
X253121Y101093D02*
X258778Y106750D01*
X243929Y91901D02*
X249586Y97558D01*
X236151Y99679D02*
X243929Y91901D01*
X236151Y99679D02*
X241808Y105336D01*
X245343Y108871D02*
X251000Y114528D01*
X191000Y48255D02*
X202000D01*
Y40255D02*
Y48255D01*
Y27255D02*
Y35255D01*
X191000Y27255D02*
X202000D01*
X191000D02*
Y35255D01*
Y40255D02*
Y48255D01*
X199222Y102738D02*
Y112262D01*
X202778Y102738D02*
Y112262D01*
X393250Y189750D02*
Y199750D01*
X385250Y189750D02*
X393250D01*
X372250D02*
X380250D01*
X372250D02*
Y199750D01*
X380250D01*
X385250D02*
X393250D01*
X393500Y210500D02*
X403500Y210500D01*
X403500Y202500D01*
X403500Y197500D02*
X403500Y189500D01*
X393500D02*
X403500D01*
X393500D02*
Y197500D01*
Y202500D02*
Y210500D01*
X362250Y189250D02*
X372250D01*
X362250D02*
Y197250D01*
Y202250D02*
Y210250D01*
X372250Y210250D01*
X372250Y202250D01*
Y189250D02*
Y197250D01*
X115389Y140540D02*
X122460Y147611D01*
X109732Y146197D02*
X115389Y140540D01*
X100540Y155389D02*
X106197Y149732D01*
X100540Y155389D02*
X107611Y162460D01*
X113268Y156803D01*
X116803Y153268D02*
X122460Y147611D01*
X190964Y91360D02*
Y101360D01*
X198964D01*
X203964D02*
X211964D01*
Y91360D02*
Y101360D01*
X203964Y91360D02*
X211964D01*
X190964D02*
X198964D01*
X191000Y48255D02*
Y58255D01*
X199000D01*
X204000D02*
X212000D01*
Y48255D02*
Y58255D01*
X204000Y48255D02*
X212000D01*
X191000D02*
X199000D01*
M02*
