G04*
G04 #@! TF.GenerationSoftware,Altium Limited,Altium Designer,19.1.6 (110)*
G04*
G04 Layer_Physical_Order=4*
G04 Layer_Color=6736896*
%FSLAX44Y44*%
%MOMM*%
G71*
G01*
G75*
%ADD11C,0.3000*%
%ADD12C,0.2000*%
%ADD15C,0.1000*%
%ADD129R,5.5000X5.5000*%
%ADD133C,0.3500*%
%ADD136C,0.4500*%
%ADD137C,0.6000*%
%ADD138C,0.2200*%
%ADD139C,0.5000*%
%ADD141C,0.1100*%
%ADD144C,0.3500*%
%ADD145C,0.4000*%
%ADD146C,0.5000*%
%ADD147C,1.0000*%
G36*
X465961Y158692D02*
X464895Y157980D01*
X463790Y156326D01*
X463402Y154375D01*
X463790Y152424D01*
X464895Y150770D01*
X465961Y150058D01*
Y146942D01*
X464895Y146230D01*
X463790Y144576D01*
X463402Y142625D01*
X463790Y140674D01*
X464895Y139020D01*
X465961Y138308D01*
Y107567D01*
X464691Y107182D01*
X463626Y108776D01*
X462868Y109534D01*
Y117500D01*
X462402Y119841D01*
X461076Y121826D01*
X457868Y125034D01*
Y159000D01*
X457402Y161341D01*
X456076Y163326D01*
X453618Y165784D01*
Y168000D01*
X453152Y170341D01*
X451826Y172326D01*
X447368Y176784D01*
Y209750D01*
X446902Y212091D01*
X445576Y214076D01*
X434326Y225326D01*
X432341Y226652D01*
X430000Y227118D01*
X422500D01*
X420159Y226652D01*
X418174Y225326D01*
X414216Y221367D01*
X411324D01*
X410117Y222574D01*
Y225750D01*
X409652Y228091D01*
X408326Y230076D01*
X405919Y232482D01*
X406252Y233946D01*
X406733Y234267D01*
X407340Y235177D01*
X407529Y236127D01*
X407582Y236248D01*
X407585Y236415D01*
X407594Y236537D01*
X407610Y236643D01*
X407630Y236735D01*
X407653Y236814D01*
X407678Y236879D01*
X407681Y236885D01*
X408898Y238102D01*
X409374Y239250D01*
Y257250D01*
X408898Y258398D01*
X375898Y291398D01*
X374750Y291874D01*
X338422D01*
X337273Y291398D01*
X333304Y287428D01*
X331926Y287846D01*
X331890Y288023D01*
X331283Y288932D01*
X330373Y289540D01*
X329300Y289754D01*
X328227Y289540D01*
X327317Y288932D01*
X326710Y288023D01*
X326496Y286950D01*
X326710Y285877D01*
X327317Y284967D01*
X328227Y284359D01*
X328404Y284324D01*
X328785Y283068D01*
X327979Y282124D01*
X308423D01*
X299148Y291398D01*
X298000Y291874D01*
X264172D01*
X263023Y291398D01*
X262773Y291148D01*
X262773Y291148D01*
X255999Y284374D01*
X252522D01*
X252516Y284376D01*
X252451Y284404D01*
X252379Y284443D01*
X252300Y284494D01*
X252214Y284559D01*
X252121Y284638D01*
X252002Y284754D01*
X251879Y284802D01*
X251073Y285340D01*
X250000Y285554D01*
X248927Y285340D01*
X248017Y284733D01*
X247410Y283823D01*
X247221Y282873D01*
X247168Y282752D01*
X247165Y282585D01*
X247156Y282463D01*
X247140Y282357D01*
X247120Y282264D01*
X247097Y282187D01*
X247072Y282121D01*
X247069Y282115D01*
X246828Y281874D01*
X197750D01*
X196602Y281398D01*
X169136Y253932D01*
X167966Y254558D01*
X168054Y255000D01*
X167840Y256073D01*
X167233Y256983D01*
X166323Y257590D01*
X165250Y257804D01*
X164177Y257590D01*
X163371Y257052D01*
X163249Y257004D01*
X163129Y256888D01*
X163036Y256809D01*
X162950Y256744D01*
X162871Y256693D01*
X162799Y256654D01*
X162735Y256626D01*
X162728Y256624D01*
X157423D01*
X154648Y259398D01*
X153500Y259874D01*
X129923D01*
X110898Y278898D01*
X109750Y279374D01*
X29596D01*
X29242Y279563D01*
X29090Y280323D01*
X28483Y281233D01*
X27573Y281840D01*
X26500Y282054D01*
X25427Y281840D01*
X24517Y281233D01*
X23910Y280323D01*
X23696Y279250D01*
X23910Y278177D01*
X24517Y277267D01*
X24820Y277066D01*
X25082Y275532D01*
X24174Y274624D01*
X10500D01*
X9352Y274148D01*
X5341Y270137D01*
X4339Y270203D01*
X3821Y271422D01*
X4090Y271825D01*
X4304Y272898D01*
X4090Y273971D01*
X3483Y274881D01*
X2573Y275488D01*
X1500Y275702D01*
X427Y275488D01*
X-483Y274881D01*
X-1090Y273971D01*
X-1304Y272898D01*
X-1090Y271825D01*
X-635Y271144D01*
X-897Y270311D01*
X-1198Y269874D01*
X-3118D01*
X-4017Y271144D01*
X-3946Y271500D01*
X-4160Y272573D01*
X-4767Y273483D01*
X-5539Y273998D01*
X-5576Y274549D01*
X-5405Y275320D01*
X-5280Y275345D01*
X-5094Y275421D01*
X-4897Y275461D01*
X-3449Y276061D01*
X-3282Y276172D01*
X-3096Y276249D01*
X-1792Y277120D01*
X-1650Y277262D01*
X-1483Y277374D01*
X-374Y278483D01*
X-262Y278650D01*
X-121Y278792D01*
X751Y280096D01*
X828Y280282D01*
X939Y280448D01*
X1539Y281897D01*
X1578Y282094D01*
X1655Y282280D01*
X1961Y283818D01*
Y283969D01*
X1998Y284116D01*
X2037Y284900D01*
X2029Y284950D01*
X2039Y285000D01*
X2039Y294961D01*
X96944D01*
X97329Y293691D01*
X97017Y293483D01*
X96410Y292573D01*
X96196Y291500D01*
X96367Y290644D01*
X95937Y289823D01*
X95586Y289374D01*
X53923D01*
X50461Y292836D01*
X49313Y293311D01*
X15187D01*
X14039Y292836D01*
X13135Y291931D01*
X13129Y291928D01*
X13063Y291903D01*
X12985Y291880D01*
X12893Y291860D01*
X12787Y291845D01*
X12665Y291835D01*
X12498Y291832D01*
X12377Y291779D01*
X11427Y291590D01*
X10517Y290983D01*
X9910Y290073D01*
X8767Y289501D01*
X8500Y289554D01*
X7427Y289340D01*
X6518Y288733D01*
X5910Y287823D01*
X5696Y286750D01*
X5910Y285677D01*
X6518Y284767D01*
X7427Y284160D01*
X8500Y283946D01*
X9573Y284160D01*
X10483Y284767D01*
X11091Y285677D01*
X12233Y286249D01*
X12500Y286196D01*
X13573Y286410D01*
X14483Y287017D01*
X15090Y287927D01*
X15279Y288877D01*
X15332Y288998D01*
X15335Y289165D01*
X15344Y289287D01*
X15360Y289393D01*
X15380Y289485D01*
X15403Y289564D01*
X15428Y289629D01*
X15431Y289635D01*
X15860Y290064D01*
X48640D01*
X52102Y286602D01*
X53250Y286126D01*
X103750D01*
X104898Y286602D01*
X106865Y288569D01*
X106871Y288572D01*
X106937Y288597D01*
X107015Y288620D01*
X107107Y288640D01*
X107213Y288656D01*
X107335Y288665D01*
X107502Y288668D01*
X107623Y288721D01*
X108573Y288910D01*
X109483Y289517D01*
X110090Y290427D01*
X110304Y291500D01*
X110090Y292573D01*
X109483Y293483D01*
X109171Y293691D01*
X109556Y294961D01*
X183974D01*
X185020Y293395D01*
X186674Y292290D01*
X188625Y291902D01*
X190576Y292290D01*
X192230Y293395D01*
X193276Y294961D01*
X195724D01*
X196770Y293395D01*
X198424Y292290D01*
X200375Y291902D01*
X202326Y292290D01*
X203980Y293395D01*
X205026Y294961D01*
X301495D01*
X302155Y293691D01*
X301910Y293323D01*
X301696Y292250D01*
X301910Y291177D01*
X302517Y290267D01*
X303427Y289660D01*
X304500Y289446D01*
X305573Y289660D01*
X306483Y290267D01*
X307090Y291177D01*
X307304Y292250D01*
X307090Y293323D01*
X306845Y293691D01*
X307505Y294961D01*
X465961D01*
Y158692D01*
D02*
G37*
G36*
X107483Y289750D02*
X107284Y289747D01*
X107095Y289732D01*
X106916Y289706D01*
X106746Y289670D01*
X106586Y289622D01*
X106435Y289564D01*
X106293Y289494D01*
X106161Y289413D01*
X106038Y289321D01*
X105925Y289218D01*
X105218Y289925D01*
X105321Y290038D01*
X105413Y290161D01*
X105494Y290293D01*
X105563Y290435D01*
X105622Y290586D01*
X105670Y290746D01*
X105707Y290916D01*
X105732Y291095D01*
X105747Y291284D01*
X105750Y291483D01*
X107483Y289750D01*
D02*
G37*
G36*
X14782Y290575D02*
X14679Y290462D01*
X14587Y290339D01*
X14506Y290207D01*
X14437Y290065D01*
X14378Y289914D01*
X14330Y289754D01*
X14294Y289584D01*
X14268Y289405D01*
X14253Y289216D01*
X14250Y289018D01*
X12517Y290750D01*
X12716Y290753D01*
X12905Y290768D01*
X13084Y290794D01*
X13254Y290830D01*
X13414Y290878D01*
X13565Y290937D01*
X13707Y291006D01*
X13839Y291087D01*
X13962Y291179D01*
X14075Y291282D01*
X14782Y290575D01*
D02*
G37*
G36*
X251392Y283837D02*
X251536Y283714D01*
X251681Y283605D01*
X251827Y283511D01*
X251974Y283431D01*
X252123Y283366D01*
X252272Y283315D01*
X252423Y283279D01*
X252574Y283257D01*
X252727Y283250D01*
Y282250D01*
X252574Y282243D01*
X252423Y282221D01*
X252272Y282185D01*
X252123Y282134D01*
X251974Y282069D01*
X251827Y281989D01*
X251681Y281895D01*
X251536Y281786D01*
X251392Y281663D01*
X251250Y281525D01*
Y283975D01*
X251392Y283837D01*
D02*
G37*
G36*
X249982Y281000D02*
X249784Y280997D01*
X249595Y280982D01*
X249416Y280956D01*
X249246Y280920D01*
X249086Y280872D01*
X248935Y280814D01*
X248793Y280744D01*
X248661Y280663D01*
X248538Y280571D01*
X248425Y280468D01*
X247718Y281175D01*
X247821Y281288D01*
X247913Y281411D01*
X247994Y281543D01*
X248064Y281685D01*
X248122Y281836D01*
X248170Y281996D01*
X248207Y282166D01*
X248232Y282345D01*
X248247Y282534D01*
X248250Y282733D01*
X249982Y281000D01*
D02*
G37*
G36*
X252862Y279405D02*
X252762Y279295D01*
X252670Y279175D01*
X252586Y279044D01*
X252511Y278903D01*
X252445Y278752D01*
X252388Y278590D01*
X252339Y278418D01*
X252298Y278236D01*
X252266Y278043D01*
X252243Y277841D01*
X250694Y279739D01*
X250886Y279724D01*
X251069Y279722D01*
X251243Y279734D01*
X251410Y279758D01*
X251567Y279797D01*
X251717Y279848D01*
X251858Y279913D01*
X251990Y279991D01*
X252114Y280082D01*
X252230Y280187D01*
X252862Y279405D01*
D02*
G37*
G36*
X249120Y276924D02*
X248997Y277071D01*
X248871Y277203D01*
X248741Y277319D01*
X248607Y277419D01*
X248470Y277505D01*
X248329Y277574D01*
X248184Y277628D01*
X248035Y277667D01*
X247882Y277690D01*
X247726Y277698D01*
X247845Y278698D01*
X247994Y278705D01*
X248144Y278724D01*
X248295Y278757D01*
X248448Y278804D01*
X248602Y278863D01*
X248758Y278936D01*
X248916Y279022D01*
X249075Y279121D01*
X249235Y279233D01*
X249397Y279359D01*
X249120Y276924D01*
D02*
G37*
G36*
X100583Y273472D02*
X100482Y273361D01*
X100390Y273239D01*
X100307Y273108D01*
X100234Y272967D01*
X100171Y272815D01*
X100117Y272654D01*
X100073Y272483D01*
X100038Y272301D01*
X100013Y272110D01*
X99998Y271909D01*
X98376Y273745D01*
X98571Y273737D01*
X98756Y273742D01*
X98933Y273758D01*
X99101Y273788D01*
X99260Y273829D01*
X99410Y273884D01*
X99551Y273950D01*
X99684Y274030D01*
X99807Y274121D01*
X99922Y274225D01*
X100583Y273472D01*
D02*
G37*
G36*
X-8000Y270275D02*
X-8142Y270413D01*
X-8286Y270536D01*
X-8431Y270645D01*
X-8577Y270739D01*
X-8724Y270819D01*
X-8873Y270884D01*
X-9022Y270935D01*
X-9173Y270971D01*
X-9324Y270993D01*
X-9477Y271000D01*
Y272000D01*
X-9324Y272007D01*
X-9173Y272029D01*
X-9022Y272065D01*
X-8873Y272116D01*
X-8724Y272181D01*
X-8577Y272261D01*
X-8431Y272355D01*
X-8286Y272464D01*
X-8142Y272587D01*
X-8000Y272725D01*
Y270275D01*
D02*
G37*
G36*
X97891Y274856D02*
X97786Y274712D01*
X97177Y274590D01*
X96267Y273983D01*
X95660Y273073D01*
X95446Y272000D01*
X95660Y270927D01*
X96267Y270017D01*
X96856Y269624D01*
X96980Y269107D01*
X96789Y268641D01*
X96127Y267874D01*
X22019D01*
X21494Y268398D01*
X20346Y268874D01*
X10329D01*
X9843Y270047D01*
X11172Y271376D01*
X24846D01*
X25994Y271852D01*
X30269Y276126D01*
X97243D01*
X97891Y274856D01*
D02*
G37*
G36*
X308153Y259424D02*
X310138Y258098D01*
X312479Y257633D01*
X330500D01*
X332841Y258098D01*
X334826Y259424D01*
X343434Y268032D01*
X352760D01*
X353656Y266763D01*
X353584Y266400D01*
X353797Y265327D01*
X354405Y264417D01*
X355314Y263810D01*
X356387Y263596D01*
X357461Y263810D01*
X358370Y264417D01*
X358978Y265327D01*
X359143Y266159D01*
X359852Y266541D01*
X360434Y266665D01*
X387382Y239716D01*
Y236250D01*
X387848Y233909D01*
X389174Y231924D01*
X397882Y223216D01*
Y220040D01*
X398348Y217699D01*
X399674Y215714D01*
X404464Y210924D01*
X406449Y209598D01*
X408790Y209132D01*
X416750D01*
X419091Y209598D01*
X421076Y210924D01*
X425034Y214883D01*
X427466D01*
X435132Y207216D01*
Y195161D01*
X434056Y194866D01*
X433862Y194858D01*
X430573Y198148D01*
X429425Y198624D01*
X425075D01*
X423927Y198148D01*
X410852Y185073D01*
X410376Y183925D01*
Y180372D01*
X408001Y177997D01*
X407995Y177997D01*
X406705Y178497D01*
X406590Y179073D01*
X405983Y179983D01*
X405073Y180590D01*
X404000Y180804D01*
X402927Y180590D01*
X402017Y179983D01*
X401410Y179073D01*
X401196Y178000D01*
X401410Y176927D01*
X402017Y176017D01*
X402927Y175410D01*
X403304Y174040D01*
X403246Y173750D01*
X403460Y172677D01*
X404068Y171767D01*
X404977Y171160D01*
X406050Y170946D01*
X407123Y171160D01*
X408033Y171767D01*
X408641Y172677D01*
X408830Y173627D01*
X408882Y173748D01*
X408885Y173915D01*
X408895Y174037D01*
X408910Y174143D01*
X408930Y174235D01*
X408953Y174314D01*
X408979Y174379D01*
X408981Y174385D01*
X413148Y178552D01*
X413624Y179700D01*
Y183252D01*
X418703Y188332D01*
X419876Y187845D01*
Y182904D01*
X420352Y181756D01*
X420876Y181231D01*
Y179522D01*
X420874Y179515D01*
X420846Y179451D01*
X420807Y179379D01*
X420756Y179300D01*
X420691Y179214D01*
X420612Y179121D01*
X420496Y179002D01*
X420448Y178879D01*
X419910Y178073D01*
X419789Y177468D01*
X419696Y177000D01*
X418495Y176530D01*
X418250Y176578D01*
X416689Y176268D01*
X415366Y175384D01*
X414482Y174061D01*
X414172Y172500D01*
Y162439D01*
X408311Y156578D01*
X405000D01*
X405000Y156578D01*
X403439Y156268D01*
X402116Y155384D01*
X402116Y155384D01*
X390866Y144134D01*
X389982Y142811D01*
X389672Y141250D01*
X389672Y141250D01*
Y138689D01*
X377116Y126134D01*
X374616Y123634D01*
X373732Y122311D01*
X373422Y120750D01*
X373422Y120750D01*
Y117689D01*
X328061Y72328D01*
X289750D01*
X288189Y72018D01*
X286866Y71134D01*
X285982Y69811D01*
X285672Y68250D01*
X285982Y66689D01*
X286866Y65366D01*
X288189Y64482D01*
X289750Y64172D01*
X329750D01*
X329750Y64172D01*
X331311Y64482D01*
X332634Y65366D01*
X380384Y113116D01*
X380384Y113116D01*
X381268Y114439D01*
X381578Y116000D01*
X381578Y116000D01*
Y119061D01*
X396634Y134116D01*
X397518Y135439D01*
X397828Y137000D01*
X397828Y137000D01*
Y139561D01*
X406689Y148422D01*
X410000D01*
X410000Y148422D01*
X411561Y148732D01*
X412884Y149616D01*
X421134Y157866D01*
X421134Y157866D01*
X422018Y159189D01*
X422328Y160750D01*
X422328Y160750D01*
Y172500D01*
X422238Y172953D01*
X422495Y174172D01*
X423161Y174328D01*
X423573Y174410D01*
X424483Y175017D01*
X425090Y175927D01*
X425304Y177000D01*
X425090Y178073D01*
X424552Y178879D01*
X424504Y179002D01*
X424388Y179121D01*
X424309Y179214D01*
X424244Y179300D01*
X424193Y179379D01*
X424154Y179451D01*
X424126Y179515D01*
X424124Y179522D01*
Y181904D01*
X423648Y183052D01*
X423124Y183576D01*
Y189203D01*
X423907Y189883D01*
X425267Y189767D01*
X426177Y189160D01*
X427126Y188971D01*
Y171672D01*
X424852Y169398D01*
X424376Y168250D01*
Y155173D01*
X407852Y138648D01*
X407376Y137500D01*
Y133576D01*
X405174Y131374D01*
X401596D01*
X400448Y130898D01*
X389238Y119688D01*
X388763Y118540D01*
Y115559D01*
X386385Y113181D01*
X386379Y113178D01*
X386313Y113153D01*
X386235Y113130D01*
X386143Y113110D01*
X386036Y113094D01*
X385915Y113085D01*
X385748Y113082D01*
X385627Y113029D01*
X384677Y112840D01*
X383767Y112233D01*
X383160Y111323D01*
X382946Y110250D01*
X383160Y109177D01*
X383767Y108267D01*
X384677Y107660D01*
X385750Y107446D01*
X386823Y107660D01*
X387733Y108267D01*
X388340Y109177D01*
X388529Y110127D01*
X388582Y110248D01*
X388585Y110415D01*
X388594Y110537D01*
X388610Y110643D01*
X388629Y110736D01*
X388653Y110814D01*
X388678Y110879D01*
X388681Y110885D01*
X391534Y113738D01*
X392010Y114886D01*
Y117867D01*
X402269Y128126D01*
X405846D01*
X406994Y128602D01*
X410148Y131756D01*
X410624Y132904D01*
Y136827D01*
X421492Y147696D01*
X422666Y147210D01*
Y132212D01*
X416328Y125874D01*
X402839D01*
X401691Y125398D01*
X394352Y118059D01*
X393876Y116911D01*
Y114000D01*
X394352Y112852D01*
X396002Y111202D01*
X397150Y110726D01*
X399043D01*
X399428Y109457D01*
X399198Y109302D01*
X350448Y60552D01*
X349895Y59725D01*
X349701Y58750D01*
Y48385D01*
X349660Y48323D01*
X349446Y47250D01*
X349660Y46177D01*
X350267Y45267D01*
X351177Y44660D01*
X352250Y44446D01*
X353323Y44660D01*
X354233Y45267D01*
X354767D01*
X355677Y44660D01*
X356750Y44446D01*
X357823Y44660D01*
X358733Y45267D01*
X359340Y46177D01*
X359554Y47250D01*
X359340Y48323D01*
X359299Y48385D01*
Y55694D01*
X361931Y58326D01*
X363201Y57800D01*
Y47056D01*
X359194Y43049D01*
X350750D01*
X349775Y42855D01*
X348948Y42302D01*
X341194Y34549D01*
X331250D01*
X330275Y34355D01*
X329448Y33802D01*
X307944Y12299D01*
X307135D01*
X307073Y12340D01*
X306000Y12554D01*
X304927Y12340D01*
X304865Y12299D01*
X302635D01*
X302573Y12341D01*
X301500Y12554D01*
X300427Y12341D01*
X299517Y11733D01*
X298910Y10823D01*
X298696Y9750D01*
X298910Y8677D01*
X299517Y7768D01*
X299703Y7644D01*
X299317Y6374D01*
X289673D01*
X280374Y15673D01*
Y42750D01*
X279898Y43898D01*
X276874Y46922D01*
Y52750D01*
X276398Y53898D01*
X269302Y60994D01*
X269532Y62560D01*
X270826Y63424D01*
X272152Y65409D01*
X272617Y67750D01*
X272152Y70091D01*
X270826Y72076D01*
X268841Y73402D01*
X266500Y73868D01*
X261632D01*
X261146Y75041D01*
X267556Y81451D01*
X278000D01*
X278976Y81645D01*
X279802Y82198D01*
X293056Y95451D01*
X306750D01*
X307726Y95645D01*
X308552Y96198D01*
X326302Y113948D01*
X326855Y114775D01*
X327049Y115750D01*
Y116816D01*
X328174Y117529D01*
X328319Y117540D01*
X328656Y117473D01*
X329484Y117009D01*
X329948Y116181D01*
X330035Y115747D01*
X330643Y114838D01*
X331552Y114230D01*
X332625Y114016D01*
X333698Y114230D01*
X334608Y114838D01*
X335215Y115747D01*
X335429Y116820D01*
X335215Y117893D01*
X334608Y118803D01*
X333698Y119411D01*
X333264Y119497D01*
X332436Y119961D01*
X331972Y120789D01*
X331885Y121223D01*
X331278Y122133D01*
X330368Y122740D01*
X329905Y122833D01*
Y124128D01*
X330368Y124220D01*
X331278Y124827D01*
X331885Y125737D01*
X331968Y126154D01*
X331978Y126200D01*
X333273D01*
X333282Y126154D01*
X333365Y125737D01*
X333973Y124827D01*
X334882Y124220D01*
X335955Y124006D01*
X336481Y123480D01*
X336695Y122407D01*
X337303Y121497D01*
X338212Y120890D01*
X339285Y120676D01*
X339811Y120150D01*
X340025Y119077D01*
X340633Y118167D01*
X341542Y117560D01*
X342615Y117346D01*
X343688Y117560D01*
X344598Y118167D01*
X345206Y119077D01*
X345419Y120150D01*
X345206Y121223D01*
X344598Y122133D01*
X343688Y122740D01*
X342615Y122954D01*
X342089Y123480D01*
X341876Y124553D01*
X341268Y125463D01*
X340358Y126071D01*
X339285Y126284D01*
X338759Y126810D01*
X338546Y127883D01*
X337938Y128793D01*
X337028Y129401D01*
X335955Y129614D01*
X334882Y129401D01*
X333973Y128793D01*
X333365Y127883D01*
X333282Y127467D01*
X333273Y127420D01*
X331978D01*
X331968Y127467D01*
X331885Y127883D01*
X331278Y128793D01*
X330368Y129401D01*
X329295Y129614D01*
X328319Y129420D01*
X328174Y129431D01*
X327049Y130144D01*
Y143456D01*
X328174Y144170D01*
X328319Y144181D01*
X329295Y143986D01*
X330368Y144200D01*
X331278Y144808D01*
X331885Y145717D01*
X332099Y146790D01*
X331885Y147863D01*
X331278Y148773D01*
X330368Y149381D01*
X329295Y149594D01*
X328319Y149400D01*
X328174Y149411D01*
X327049Y150124D01*
Y157282D01*
X328319Y157407D01*
X328395Y157024D01*
X328948Y156198D01*
X331198Y153948D01*
X332024Y153395D01*
X333000Y153201D01*
X337679D01*
X338655Y153395D01*
X339481Y153948D01*
X343525Y157992D01*
X343721Y157932D01*
X344808Y157478D01*
X345477Y156477D01*
X346634Y155703D01*
X347896Y155452D01*
X347973Y155418D01*
X348547Y155404D01*
X349070Y155363D01*
X349568Y155296D01*
X350041Y155204D01*
X350491Y155087D01*
X350917Y154945D01*
X351321Y154779D01*
X351704Y154589D01*
X352068Y154374D01*
X352445Y154112D01*
X352645Y154069D01*
X353723Y153348D01*
X354717Y153151D01*
X355158Y146495D01*
X355168Y144664D01*
X355182Y144631D01*
Y123804D01*
X340367Y108989D01*
X333781D01*
X332415Y108717D01*
X331257Y107943D01*
X328182Y104868D01*
X327408Y103710D01*
X327137Y102345D01*
Y100433D01*
X323345Y96641D01*
X322909Y96712D01*
X322049Y97142D01*
X321895Y97913D01*
X321288Y98823D01*
X320378Y99430D01*
X319305Y99644D01*
X318232Y99430D01*
X317322Y98823D01*
X316715Y97913D01*
X316501Y96840D01*
X315975Y96314D01*
X314902Y96100D01*
X313992Y95493D01*
X313385Y94583D01*
X313171Y93510D01*
X313385Y92437D01*
X313992Y91527D01*
X314902Y90920D01*
X315673Y90766D01*
X316104Y89906D01*
X316174Y89470D01*
X314772Y88069D01*
X289000D01*
X287634Y87797D01*
X286477Y87023D01*
X277272Y77818D01*
X276000D01*
X274634Y77547D01*
X273477Y76773D01*
X272703Y75616D01*
X272431Y74250D01*
X272703Y72884D01*
X273477Y71727D01*
X274634Y70953D01*
X276000Y70681D01*
X278750D01*
X280116Y70953D01*
X281273Y71727D01*
X290478Y80931D01*
X316250D01*
X317616Y81203D01*
X318773Y81977D01*
X333228Y96432D01*
X333563Y96933D01*
X334882Y97580D01*
X335955Y97366D01*
X336481Y96840D01*
X336695Y95767D01*
X337303Y94857D01*
X338212Y94250D01*
X339285Y94036D01*
X340358Y94250D01*
X341268Y94857D01*
X341876Y95767D01*
X342089Y96840D01*
X341876Y97913D01*
X341268Y98823D01*
X340358Y99430D01*
X339364Y99628D01*
X338787Y100741D01*
X339550Y101852D01*
X341845D01*
X343210Y102123D01*
X344368Y102897D01*
X361273Y119802D01*
X362047Y120960D01*
X362319Y122325D01*
Y144631D01*
X362332Y144664D01*
X362343Y146512D01*
X362497Y151011D01*
X362677Y152882D01*
X369981D01*
Y148500D01*
X370253Y147134D01*
X371027Y145977D01*
X372184Y145203D01*
X373550Y144931D01*
X374916Y145203D01*
X376073Y145977D01*
X376847Y147134D01*
X377119Y148500D01*
Y154536D01*
X377326Y154674D01*
X388576Y165924D01*
X389902Y167909D01*
X390368Y170250D01*
Y172216D01*
X395576Y177424D01*
X396902Y179409D01*
X397368Y181750D01*
Y195250D01*
X396902Y197591D01*
X395576Y199576D01*
X393117Y202034D01*
Y214750D01*
X392652Y217091D01*
X391326Y219076D01*
X384576Y225826D01*
X382591Y227152D01*
X380250Y227617D01*
X376534D01*
X371076Y233076D01*
X355076Y249076D01*
X353091Y250402D01*
X350750Y250868D01*
X325284D01*
X322076Y254076D01*
X320091Y255402D01*
X317750Y255868D01*
X282029D01*
X281656Y255876D01*
X280024Y256006D01*
X278608Y256218D01*
X277416Y256507D01*
X276450Y256863D01*
X275714Y257268D01*
X275193Y257703D01*
X274883Y258122D01*
X274595Y262410D01*
X274584Y264030D01*
X275053Y264442D01*
X275834Y264722D01*
X275927Y264660D01*
X277000Y264446D01*
X278073Y264660D01*
X278983Y265267D01*
X279590Y266177D01*
X279804Y267250D01*
X279590Y268323D01*
X279194Y268916D01*
X279591Y269983D01*
X279757Y270186D01*
X284244D01*
X284409Y269983D01*
X284806Y268916D01*
X284410Y268323D01*
X284196Y267250D01*
X284410Y266177D01*
X285017Y265267D01*
X285927Y264660D01*
X287000Y264446D01*
X288073Y264660D01*
X288983Y265267D01*
X289590Y266177D01*
X289804Y267250D01*
X289590Y268323D01*
X289194Y268916D01*
X289591Y269983D01*
X289757Y270186D01*
X290250D01*
X291518Y270439D01*
X292593Y271157D01*
X293311Y272232D01*
X293351Y272431D01*
X294729Y272849D01*
X308153Y259424D01*
D02*
G37*
G36*
X106000Y263525D02*
X105858Y263663D01*
X105714Y263786D01*
X105569Y263895D01*
X105423Y263989D01*
X105276Y264069D01*
X105127Y264134D01*
X104978Y264185D01*
X104827Y264221D01*
X104676Y264243D01*
X104523Y264250D01*
Y265250D01*
X104676Y265257D01*
X104827Y265279D01*
X104978Y265315D01*
X105127Y265366D01*
X105276Y265431D01*
X105423Y265511D01*
X105569Y265605D01*
X105714Y265714D01*
X105858Y265837D01*
X106000Y265975D01*
Y263525D01*
D02*
G37*
G36*
X20198Y265102D02*
X21346Y264626D01*
X21784D01*
X22310Y263356D01*
X16588Y257634D01*
X15590Y258427D01*
X15804Y259500D01*
X15590Y260573D01*
X14983Y261483D01*
X14073Y262090D01*
X13000Y262304D01*
X11927Y262090D01*
X11017Y261483D01*
X10410Y260573D01*
X10196Y259500D01*
X10410Y258427D01*
X11017Y257517D01*
X11577Y257144D01*
X11192Y255874D01*
X4522D01*
X4516Y255876D01*
X4451Y255904D01*
X4379Y255943D01*
X4300Y255994D01*
X4214Y256059D01*
X4121Y256138D01*
X4002Y256254D01*
X3879Y256302D01*
X3329Y256669D01*
X3220Y257198D01*
Y257551D01*
X3329Y258081D01*
X3983Y258517D01*
X4590Y259427D01*
X4804Y260500D01*
X4590Y261573D01*
X3983Y262482D01*
X3073Y263090D01*
X2000Y263304D01*
X927Y263090D01*
X17Y262482D01*
X-590Y261573D01*
X-804Y260500D01*
X-590Y259427D01*
X17Y258517D01*
X671Y258081D01*
X780Y257551D01*
Y257198D01*
X671Y256669D01*
X17Y256233D01*
X-590Y255323D01*
X-804Y254250D01*
X-590Y253177D01*
X17Y252267D01*
X927Y251660D01*
X2000Y251446D01*
X3073Y251660D01*
X3879Y252198D01*
X4002Y252246D01*
X4121Y252362D01*
X4214Y252441D01*
X4300Y252506D01*
X4379Y252557D01*
X4451Y252596D01*
X4515Y252624D01*
X4522Y252626D01*
X15500D01*
X16648Y253102D01*
X25173Y261626D01*
X36171D01*
X36657Y260453D01*
X23577Y247374D01*
X14272D01*
X14266Y247376D01*
X14201Y247404D01*
X14129Y247443D01*
X14050Y247494D01*
X13964Y247559D01*
X13871Y247638D01*
X13752Y247754D01*
X13629Y247802D01*
X12823Y248340D01*
X11750Y248554D01*
X10677Y248340D01*
X9767Y247733D01*
X9160Y246823D01*
X8946Y245750D01*
X9160Y244677D01*
X9767Y243767D01*
X10677Y243160D01*
X11750Y242946D01*
X12823Y243160D01*
X13629Y243698D01*
X13751Y243746D01*
X13871Y243862D01*
X13964Y243941D01*
X14050Y244006D01*
X14129Y244057D01*
X14201Y244096D01*
X14265Y244124D01*
X14272Y244126D01*
X24250D01*
X25398Y244602D01*
X40423Y259626D01*
X61921D01*
X62407Y258453D01*
X61352Y257398D01*
X60876Y256250D01*
Y218247D01*
X59606Y217568D01*
X59573Y217590D01*
X58500Y217804D01*
X57427Y217590D01*
X56517Y216983D01*
X55910Y216073D01*
X55696Y215000D01*
X55910Y213927D01*
X56517Y213017D01*
X57427Y212410D01*
X58500Y212196D01*
X58874Y212271D01*
X60125Y211426D01*
X60176Y211333D01*
X60265Y210640D01*
X31687Y182062D01*
X30481Y182296D01*
X30265Y182436D01*
X29733Y183233D01*
X28823Y183841D01*
X27750Y184054D01*
X26677Y183841D01*
X25767Y183233D01*
X25160Y182323D01*
X24946Y181250D01*
X25160Y180177D01*
X24306Y179169D01*
X24256Y179148D01*
X23992Y178884D01*
X22819Y179370D01*
Y220290D01*
X24089Y220969D01*
X24177Y220910D01*
X25250Y220696D01*
X26323Y220910D01*
X27233Y221517D01*
X27840Y222427D01*
X28054Y223500D01*
X27840Y224573D01*
X27233Y225483D01*
X26323Y226091D01*
X25250Y226304D01*
X24177Y226091D01*
X24078Y226025D01*
X23925Y226022D01*
X22694Y226627D01*
X22547Y227366D01*
X21773Y228523D01*
X23Y250273D01*
X-1134Y251047D01*
X-2500Y251319D01*
X-9452D01*
X-11431Y253298D01*
Y256016D01*
X-8769Y258679D01*
X-6000D01*
X-4634Y258950D01*
X-3477Y259724D01*
X-2703Y260882D01*
X-2431Y262247D01*
X-2652Y263356D01*
X-1969Y264626D01*
X6578D01*
X7727Y265102D01*
X8251Y265626D01*
X19674D01*
X20198Y265102D01*
D02*
G37*
G36*
X102233Y255250D02*
X102034Y255247D01*
X101845Y255232D01*
X101666Y255207D01*
X101496Y255170D01*
X101336Y255122D01*
X101185Y255063D01*
X101043Y254994D01*
X100911Y254913D01*
X100788Y254821D01*
X100675Y254718D01*
X99968Y255425D01*
X100071Y255538D01*
X100163Y255661D01*
X100244Y255793D01*
X100314Y255935D01*
X100372Y256086D01*
X100420Y256246D01*
X100456Y256416D01*
X100482Y256595D01*
X100497Y256784D01*
X100500Y256982D01*
X102233Y255250D01*
D02*
G37*
G36*
X164000Y253775D02*
X163858Y253913D01*
X163714Y254036D01*
X163569Y254145D01*
X163423Y254239D01*
X163276Y254319D01*
X163127Y254384D01*
X162978Y254435D01*
X162827Y254471D01*
X162676Y254493D01*
X162523Y254500D01*
Y255500D01*
X162676Y255507D01*
X162827Y255529D01*
X162978Y255565D01*
X163127Y255616D01*
X163276Y255681D01*
X163423Y255761D01*
X163569Y255855D01*
X163714Y255964D01*
X163858Y256087D01*
X164000Y256225D01*
Y253775D01*
D02*
G37*
G36*
X3392Y255337D02*
X3536Y255214D01*
X3681Y255105D01*
X3827Y255011D01*
X3974Y254931D01*
X4123Y254866D01*
X4272Y254815D01*
X4423Y254779D01*
X4574Y254757D01*
X4727Y254750D01*
Y253750D01*
X4574Y253743D01*
X4423Y253721D01*
X4272Y253685D01*
X4123Y253634D01*
X3974Y253569D01*
X3827Y253489D01*
X3681Y253395D01*
X3536Y253286D01*
X3392Y253163D01*
X3250Y253025D01*
Y255475D01*
X3392Y255337D01*
D02*
G37*
G36*
X75003Y253534D02*
X75018Y253345D01*
X75044Y253166D01*
X75080Y252996D01*
X75128Y252836D01*
X75187Y252685D01*
X75256Y252543D01*
X75337Y252411D01*
X75429Y252288D01*
X75532Y252175D01*
X74825Y251468D01*
X74712Y251571D01*
X74589Y251663D01*
X74457Y251744D01*
X74315Y251813D01*
X74164Y251872D01*
X74004Y251920D01*
X73834Y251957D01*
X73655Y251982D01*
X73466Y251997D01*
X73267Y252000D01*
X75000Y253732D01*
X75003Y253534D01*
D02*
G37*
G36*
X99482Y248000D02*
X99284Y247997D01*
X99095Y247982D01*
X98916Y247957D01*
X98746Y247920D01*
X98586Y247872D01*
X98435Y247813D01*
X98293Y247744D01*
X98161Y247663D01*
X98038Y247571D01*
X97925Y247468D01*
X97218Y248175D01*
X97321Y248288D01*
X97413Y248411D01*
X97494Y248543D01*
X97563Y248685D01*
X97622Y248836D01*
X97670Y248996D01*
X97706Y249166D01*
X97732Y249345D01*
X97747Y249534D01*
X97750Y249733D01*
X99482Y248000D01*
D02*
G37*
G36*
X13142Y246837D02*
X13286Y246714D01*
X13431Y246605D01*
X13577Y246511D01*
X13724Y246431D01*
X13873Y246366D01*
X14022Y246315D01*
X14173Y246279D01*
X14324Y246257D01*
X14477Y246250D01*
Y245250D01*
X14324Y245243D01*
X14173Y245221D01*
X14022Y245185D01*
X13873Y245134D01*
X13724Y245069D01*
X13577Y244989D01*
X13431Y244895D01*
X13286Y244786D01*
X13142Y244663D01*
X13000Y244525D01*
Y246975D01*
X13142Y246837D01*
D02*
G37*
G36*
X404126Y255749D02*
Y244673D01*
X401885Y242431D01*
X401879Y242428D01*
X401813Y242403D01*
X401735Y242379D01*
X401643Y242360D01*
X401536Y242344D01*
X401415Y242335D01*
X401248Y242332D01*
X401127Y242279D01*
X400887Y242232D01*
X400778Y242233D01*
X399554Y242970D01*
X399443Y243127D01*
X399152Y244591D01*
X397826Y246576D01*
X396265Y248137D01*
X396306Y248394D01*
X397500Y249446D01*
X398573Y249660D01*
X399483Y250268D01*
X400090Y251177D01*
X400304Y252250D01*
X400090Y253323D01*
X399483Y254233D01*
X398573Y254841D01*
X397500Y255054D01*
X396427Y254841D01*
X395517Y254233D01*
X394910Y253323D01*
X394696Y252250D01*
X393644Y251057D01*
X393386Y251015D01*
X365926Y278476D01*
X363941Y279802D01*
X361600Y280268D01*
X360894D01*
X360162Y281538D01*
X360304Y282250D01*
X360090Y283323D01*
X359483Y284233D01*
X358573Y284840D01*
X357500Y285054D01*
X356427Y284840D01*
X355517Y284233D01*
X355354Y283988D01*
X353841Y283967D01*
X353733Y284129D01*
X352823Y284737D01*
X351750Y284950D01*
X350677Y284737D01*
X349767Y284129D01*
X349160Y283220D01*
X348946Y282146D01*
X349067Y281538D01*
X348287Y280268D01*
X340900D01*
X338559Y279802D01*
X336574Y278476D01*
X327966Y269867D01*
X315013D01*
X309178Y275703D01*
X309664Y276876D01*
X329500D01*
X329500Y276876D01*
X330648Y277352D01*
X339922Y286626D01*
X373249D01*
X404126Y255749D01*
D02*
G37*
G36*
X230788Y243179D02*
X230911Y243087D01*
X231043Y243006D01*
X231185Y242937D01*
X231336Y242878D01*
X231496Y242830D01*
X231666Y242794D01*
X231845Y242768D01*
X232034Y242754D01*
X232232Y242750D01*
X230500Y241018D01*
X230497Y241216D01*
X230482Y241405D01*
X230457Y241584D01*
X230420Y241754D01*
X230372Y241915D01*
X230313Y242065D01*
X230244Y242207D01*
X230163Y242339D01*
X230071Y242462D01*
X229968Y242575D01*
X230675Y243282D01*
X230788Y243179D01*
D02*
G37*
G36*
X226250Y239775D02*
X226108Y239913D01*
X225964Y240036D01*
X225819Y240145D01*
X225673Y240239D01*
X225526Y240319D01*
X225377Y240384D01*
X225228Y240435D01*
X225077Y240471D01*
X224926Y240493D01*
X224773Y240500D01*
Y241500D01*
X224926Y241507D01*
X225077Y241529D01*
X225228Y241565D01*
X225377Y241616D01*
X225526Y241681D01*
X225673Y241761D01*
X225819Y241855D01*
X225964Y241964D01*
X226108Y242087D01*
X226250Y242225D01*
Y239775D01*
D02*
G37*
G36*
X403532Y241075D02*
X403429Y240962D01*
X403337Y240839D01*
X403256Y240707D01*
X403186Y240565D01*
X403128Y240414D01*
X403080Y240254D01*
X403044Y240084D01*
X403018Y239905D01*
X403003Y239716D01*
X403000Y239517D01*
X401268Y241250D01*
X401466Y241253D01*
X401655Y241268D01*
X401834Y241294D01*
X402004Y241330D01*
X402164Y241378D01*
X402315Y241437D01*
X402457Y241506D01*
X402589Y241587D01*
X402712Y241679D01*
X402825Y241782D01*
X403532Y241075D01*
D02*
G37*
G36*
X220515Y275305D02*
X219424Y274576D01*
X216907Y272059D01*
X202441D01*
X200100Y271593D01*
X198115Y270267D01*
X156424Y228576D01*
X156181Y228212D01*
X152735Y224765D01*
X152418Y224000D01*
X152418Y210250D01*
X152418Y210250D01*
X152735Y209484D01*
X152735Y209484D01*
X155234Y206985D01*
X155235Y206985D01*
X156000Y206668D01*
X163000Y206668D01*
X163765Y206985D01*
X166515Y209735D01*
X166832Y210500D01*
X166832Y217323D01*
X166868Y217500D01*
Y221716D01*
X204975Y259823D01*
X213494D01*
X213890Y258648D01*
X213872Y258553D01*
X213017Y257983D01*
X212410Y257073D01*
X212196Y256000D01*
X212410Y254927D01*
X213017Y254017D01*
X213927Y253410D01*
X215000Y253196D01*
X216073Y253410D01*
X216983Y254017D01*
X217590Y254927D01*
X217804Y256000D01*
X217590Y257073D01*
X216983Y257983D01*
X216128Y258553D01*
X216110Y258648D01*
X216506Y259823D01*
X219441D01*
X221782Y260289D01*
X223767Y261615D01*
X226284Y264132D01*
X258833D01*
X261174Y264598D01*
X263158Y265924D01*
X266763Y269529D01*
X267936Y269043D01*
Y264282D01*
X267918Y264240D01*
X267803Y259238D01*
X267602Y256781D01*
X267469Y255832D01*
X267316Y255063D01*
X267154Y254498D01*
X267009Y254160D01*
X266971Y254107D01*
X266924Y254076D01*
X252216Y239368D01*
X235878D01*
X234982Y240638D01*
X235054Y241000D01*
X234840Y242073D01*
X234233Y242983D01*
X233323Y243591D01*
X232373Y243780D01*
X232252Y243832D01*
X232085Y243835D01*
X231963Y243845D01*
X231857Y243860D01*
X231765Y243880D01*
X231686Y243903D01*
X231621Y243928D01*
X231615Y243931D01*
X230148Y245398D01*
X229000Y245874D01*
X224172D01*
X220898Y249148D01*
X219750Y249624D01*
X205000D01*
X203852Y249148D01*
X198852Y244148D01*
X198376Y243000D01*
Y215173D01*
X186077Y202874D01*
X151751D01*
X147977Y206648D01*
X146828Y207124D01*
X131501D01*
X128968Y209656D01*
X129594Y210827D01*
X130250Y210696D01*
X131323Y210910D01*
X132233Y211517D01*
X132840Y212427D01*
X133054Y213500D01*
X132840Y214573D01*
X132233Y215483D01*
X131323Y216090D01*
X130250Y216304D01*
X129177Y216090D01*
X128267Y215483D01*
X127660Y214573D01*
X127570Y214121D01*
X126302Y213442D01*
X126238Y213439D01*
X126124Y213507D01*
Y218550D01*
X125648Y219698D01*
X123807Y221539D01*
X124432Y222710D01*
X124500Y222696D01*
X125573Y222910D01*
X126483Y223517D01*
X127091Y224427D01*
X127304Y225500D01*
X127091Y226573D01*
X126483Y227483D01*
X125573Y228090D01*
X124500Y228304D01*
X123427Y228090D01*
X122517Y227483D01*
X121910Y226573D01*
X121696Y225500D01*
X121895Y224502D01*
X121645Y224028D01*
X121086Y223374D01*
X113654D01*
X112506Y222898D01*
X108144Y218536D01*
X106874Y218948D01*
Y222078D01*
X118841Y234045D01*
X119347Y234000D01*
X120304Y233711D01*
X120767Y233017D01*
X121677Y232410D01*
X122750Y232196D01*
X123823Y232410D01*
X124733Y233017D01*
X125340Y233927D01*
X125554Y235000D01*
X125340Y236073D01*
X124733Y236983D01*
X124039Y237446D01*
X123750Y238403D01*
X123705Y238909D01*
X131923Y247126D01*
X142618D01*
X143517Y245856D01*
X143446Y245500D01*
X143660Y244427D01*
X144267Y243517D01*
X145177Y242910D01*
X146250Y242696D01*
X147323Y242910D01*
X148233Y243517D01*
X148840Y244427D01*
X149054Y245500D01*
X148983Y245856D01*
X149882Y247126D01*
X169078D01*
X170226Y247602D01*
X181726Y259102D01*
X181726Y259102D01*
X199199Y276574D01*
X220130D01*
X220515Y275305D01*
D02*
G37*
G36*
X273513Y262370D02*
X273817Y257843D01*
X273900Y257630D01*
X274400Y256955D01*
X275100Y256370D01*
X276000Y255875D01*
X277100Y255470D01*
X278400Y255155D01*
X279900Y254930D01*
X281600Y254795D01*
X283500Y254750D01*
X283321Y244750D01*
X281350Y244679D01*
X279438Y244467D01*
X277585Y244114D01*
X275790Y243619D01*
X274053Y242982D01*
X272376Y242204D01*
X270756Y241285D01*
X269196Y240224D01*
X267694Y239022D01*
X266250Y237679D01*
X271250Y249750D01*
X272087Y253283D01*
X267712D01*
X267957Y253625D01*
X268176Y254133D01*
X268369Y254809D01*
X268536Y255651D01*
X268678Y256661D01*
X268884Y259181D01*
X269000Y264215D01*
X273500D01*
X273513Y262370D01*
D02*
G37*
G36*
X407032Y237825D02*
X406929Y237712D01*
X406837Y237589D01*
X406756Y237457D01*
X406687Y237315D01*
X406628Y237164D01*
X406580Y237004D01*
X406544Y236834D01*
X406518Y236655D01*
X406503Y236466D01*
X406500Y236268D01*
X404767Y238000D01*
X404966Y238003D01*
X405155Y238018D01*
X405334Y238043D01*
X405504Y238080D01*
X405664Y238128D01*
X405815Y238186D01*
X405957Y238256D01*
X406089Y238337D01*
X406212Y238429D01*
X406325Y238532D01*
X407032Y237825D01*
D02*
G37*
G36*
X224250Y237250D02*
Y228250D01*
X210750D01*
X205500Y233500D01*
Y242500D01*
X206750Y243750D01*
X217750D01*
X224250Y237250D01*
D02*
G37*
G36*
X114376Y267577D02*
Y249347D01*
X86547Y221518D01*
X85374Y222004D01*
Y234921D01*
X92079Y241626D01*
X100425D01*
X101573Y242102D01*
X108648Y249177D01*
X109124Y250326D01*
Y259175D01*
X108648Y260323D01*
X108142Y260829D01*
X108244Y261577D01*
X108493Y262273D01*
X109233Y262767D01*
X109840Y263677D01*
X110054Y264750D01*
X109840Y265823D01*
X109233Y266733D01*
X108323Y267340D01*
X107250Y267554D01*
X106177Y267340D01*
X105371Y266802D01*
X105248Y266754D01*
X104328Y266732D01*
X104259Y266740D01*
X103796Y266848D01*
X103233Y267644D01*
X103304Y268000D01*
X103090Y269073D01*
X102483Y269983D01*
X101573Y270590D01*
X101564Y270592D01*
X101077Y271825D01*
X101090Y271998D01*
X101107Y272129D01*
X101130Y272246D01*
X101156Y272348D01*
X101185Y272435D01*
X101216Y272509D01*
X101223Y272523D01*
X102326Y273626D01*
X108328D01*
X114376Y267577D01*
D02*
G37*
G36*
X370285Y232285D02*
X370465Y217964D01*
X369388Y218971D01*
X368349Y219797D01*
X367350Y220442D01*
X366390Y220907D01*
X365469Y221192D01*
X364587Y221297D01*
X363743Y221221D01*
X362939Y220965D01*
X362294Y220597D01*
X362214Y220529D01*
X358768Y217232D01*
X355232Y220768D01*
X356459Y222011D01*
X357922Y223676D01*
X358679Y224538D01*
X358901Y225002D01*
X359078Y225886D01*
X359043Y226841D01*
X358795Y227866D01*
X358335Y228962D01*
X357664Y230129D01*
X356780Y231366D01*
X355684Y232675D01*
X354376Y234053D01*
X370285Y232285D01*
D02*
G37*
G36*
X120337Y214983D02*
X120214Y214839D01*
X120105Y214694D01*
X120011Y214548D01*
X119931Y214401D01*
X119866Y214252D01*
X119815Y214103D01*
X119779Y213952D01*
X119757Y213801D01*
X119750Y213648D01*
X118750D01*
X118743Y213801D01*
X118721Y213952D01*
X118685Y214103D01*
X118634Y214252D01*
X118569Y214401D01*
X118489Y214548D01*
X118395Y214694D01*
X118286Y214839D01*
X118163Y214983D01*
X118025Y215125D01*
X120475D01*
X120337Y214983D01*
D02*
G37*
G36*
X73337Y237367D02*
Y220883D01*
X65297Y212843D01*
X64124Y213329D01*
Y244784D01*
X65394Y245310D01*
X73337Y237367D01*
D02*
G37*
G36*
X165750Y220500D02*
X165750Y210500D01*
X163000Y207750D01*
X156000Y207750D01*
X153500Y210250D01*
X153500Y224000D01*
X157500Y228000D01*
X158250D01*
X165750Y220500D01*
D02*
G37*
G36*
X128102Y257102D02*
X129250Y256626D01*
X147336D01*
X147687Y256177D01*
X148117Y255356D01*
X147946Y254500D01*
X148117Y253644D01*
X147687Y252823D01*
X147336Y252374D01*
X130250D01*
X129102Y251898D01*
X97352Y220148D01*
X96876Y219000D01*
Y201423D01*
X91135Y195681D01*
X91129Y195678D01*
X91063Y195653D01*
X90985Y195630D01*
X90893Y195610D01*
X90787Y195595D01*
X90665Y195585D01*
X90498Y195582D01*
X90377Y195529D01*
X89427Y195340D01*
X88644Y194817D01*
X88061Y194962D01*
X87374Y195307D01*
Y200067D01*
X88644Y200453D01*
X88767Y200267D01*
X89677Y199660D01*
X90750Y199446D01*
X91823Y199660D01*
X92733Y200267D01*
X93340Y201177D01*
X93554Y202250D01*
X93340Y203323D01*
X92814Y204110D01*
X92749Y204333D01*
X92952Y205613D01*
X93376Y205897D01*
X93984Y206806D01*
X94197Y207879D01*
X93984Y208952D01*
X93376Y209862D01*
X92466Y210470D01*
X91393Y210683D01*
X90320Y210470D01*
X89411Y209862D01*
X88803Y208952D01*
X88644Y208151D01*
X87374Y208276D01*
Y217752D01*
X117148Y247526D01*
X117624Y248675D01*
Y265921D01*
X118797Y266407D01*
X128102Y257102D01*
D02*
G37*
G36*
X116949Y199572D02*
X116846Y199459D01*
X116754Y199336D01*
X116674Y199204D01*
X116604Y199063D01*
X116545Y198912D01*
X116497Y198751D01*
X116461Y198582D01*
X116435Y198402D01*
X116421Y198213D01*
X116417Y198015D01*
X114685Y199747D01*
X114883Y199751D01*
X115072Y199765D01*
X115251Y199791D01*
X115421Y199828D01*
X115582Y199875D01*
X115733Y199934D01*
X115874Y200004D01*
X116006Y200085D01*
X116129Y200176D01*
X116242Y200279D01*
X116949Y199572D01*
D02*
G37*
G36*
X334366Y201542D02*
X334366Y201542D01*
X337922Y197987D01*
Y189301D01*
X337922Y189300D01*
X338232Y187740D01*
X338486Y187360D01*
X338212Y186011D01*
X337303Y185403D01*
X336695Y184494D01*
X336603Y184030D01*
X335308D01*
X335215Y184493D01*
X334608Y185403D01*
X333698Y186011D01*
X332625Y186224D01*
X331552Y186011D01*
X330750Y185475D01*
X330626Y185427D01*
X330518Y185323D01*
X330438Y185255D01*
X330362Y185201D01*
X330292Y185157D01*
X330225Y185123D01*
X330163Y185097D01*
X330102Y185078D01*
X330042Y185065D01*
X329980Y185057D01*
X329868Y185052D01*
X329758Y185001D01*
X328504D01*
X328302Y185302D01*
X327476Y185855D01*
X326591Y186031D01*
X326437Y186090D01*
X325439Y186751D01*
X325225Y187824D01*
X324618Y188733D01*
X323708Y189341D01*
X322635Y189555D01*
X321562Y189341D01*
X320652Y188733D01*
X320045Y187824D01*
X319831Y186751D01*
X320045Y185678D01*
X320652Y184768D01*
X321562Y184160D01*
X321766Y184120D01*
X321811Y184080D01*
X322307Y182717D01*
X322145Y182475D01*
X321951Y181500D01*
Y179450D01*
X320681Y179065D01*
X320134Y179884D01*
X312328Y187689D01*
Y198293D01*
X313598Y198678D01*
X313992Y198088D01*
X314902Y197480D01*
X315975Y197267D01*
X317048Y197480D01*
X317958Y198088D01*
X318565Y198998D01*
X318779Y200071D01*
X319305Y200597D01*
X320378Y200810D01*
X321288Y201418D01*
X321895Y202328D01*
X322109Y203401D01*
X321895Y204474D01*
X321288Y205383D01*
X320378Y205991D01*
X319305Y206205D01*
X318232Y205991D01*
X317322Y205383D01*
X316715Y204474D01*
X316501Y203401D01*
X315975Y202875D01*
X314902Y202661D01*
X313992Y202053D01*
X313598Y201464D01*
X312328Y201848D01*
Y214311D01*
X315489Y217472D01*
X318437D01*
X334366Y201542D01*
D02*
G37*
G36*
X111639Y197036D02*
X111661Y196885D01*
X111697Y196734D01*
X111748Y196585D01*
X111813Y196436D01*
X111893Y196289D01*
X111987Y196143D01*
X112096Y195998D01*
X112219Y195854D01*
X112357Y195712D01*
X109907D01*
X110044Y195854D01*
X110168Y195998D01*
X110276Y196143D01*
X110371Y196289D01*
X110450Y196436D01*
X110516Y196585D01*
X110567Y196734D01*
X110603Y196885D01*
X110625Y197036D01*
X110632Y197189D01*
X111632D01*
X111639Y197036D01*
D02*
G37*
G36*
X120485Y196037D02*
X120382Y195924D01*
X120290Y195801D01*
X120209Y195669D01*
X120139Y195527D01*
X120081Y195376D01*
X120033Y195216D01*
X119996Y195046D01*
X119971Y194867D01*
X119956Y194678D01*
X119953Y194479D01*
X118220Y196212D01*
X118419Y196215D01*
X118608Y196230D01*
X118787Y196255D01*
X118957Y196292D01*
X119117Y196340D01*
X119268Y196399D01*
X119410Y196468D01*
X119542Y196549D01*
X119664Y196641D01*
X119778Y196744D01*
X120485Y196037D01*
D02*
G37*
G36*
X86257Y194574D02*
X86279Y194423D01*
X86315Y194272D01*
X86366Y194123D01*
X86431Y193974D01*
X86511Y193827D01*
X86605Y193681D01*
X86714Y193536D01*
X86837Y193393D01*
X86975Y193250D01*
X84525Y193250D01*
X84663Y193392D01*
X84786Y193536D01*
X84895Y193681D01*
X84989Y193827D01*
X85069Y193974D01*
X85134Y194123D01*
X85185Y194272D01*
X85221Y194423D01*
X85243Y194574D01*
X85250Y194727D01*
X86250Y194727D01*
X86257Y194574D01*
D02*
G37*
G36*
X92782Y194325D02*
X92679Y194212D01*
X92587Y194089D01*
X92506Y193957D01*
X92437Y193815D01*
X92378Y193664D01*
X92330Y193504D01*
X92294Y193334D01*
X92268Y193155D01*
X92253Y192966D01*
X92250Y192768D01*
X90518Y194500D01*
X90716Y194503D01*
X90905Y194518D01*
X91084Y194543D01*
X91254Y194580D01*
X91414Y194628D01*
X91565Y194687D01*
X91707Y194756D01*
X91839Y194837D01*
X91962Y194929D01*
X92075Y195032D01*
X92782Y194325D01*
D02*
G37*
G36*
X-9468Y274961D02*
X-8928Y273691D01*
X-9473Y273124D01*
X-12828D01*
X-13977Y272648D01*
X-24898Y261726D01*
X-25374Y260578D01*
Y258922D01*
X-25374Y258922D01*
Y248750D01*
X-24898Y247602D01*
X-15398Y238102D01*
X-14250Y237626D01*
X-6047D01*
X9626Y221952D01*
Y192808D01*
X8356Y192467D01*
X8113Y192890D01*
X7937Y193090D01*
X7789Y193312D01*
X6312Y194789D01*
X6090Y194937D01*
X5890Y195113D01*
X4081Y196157D01*
X3828Y196243D01*
X3589Y196361D01*
X1572Y196901D01*
X1372Y196914D01*
X1178Y196966D01*
X133Y197035D01*
X66Y197026D01*
X0Y197039D01*
X-35750D01*
Y274961D01*
X-9468Y274961D01*
D02*
G37*
G36*
X275475Y198491D02*
X275005Y197985D01*
X274584Y197460D01*
X274213Y196914D01*
X273891Y196347D01*
X273619Y195760D01*
X273396Y195152D01*
X273223Y194524D01*
X273099Y193875D01*
X273025Y193206D01*
X273000Y192516D01*
X269500Y191491D01*
X269465Y192156D01*
X269361Y192751D01*
X269187Y193276D01*
X268944Y193731D01*
X268631Y194116D01*
X268249Y194431D01*
X267797Y194676D01*
X267276Y194851D01*
X266685Y194956D01*
X266025Y194991D01*
X267025Y198491D01*
X267715Y198515D01*
X268384Y198590D01*
X269033Y198713D01*
X269661Y198887D01*
X270269Y199109D01*
X270856Y199382D01*
X271423Y199703D01*
X271969Y200075D01*
X272495Y200495D01*
X273000Y200966D01*
X275475Y198491D01*
D02*
G37*
G36*
X235080Y192144D02*
X234958Y192004D01*
X234851Y191861D01*
X234758Y191717D01*
X234679Y191571D01*
X234615Y191423D01*
X234564Y191274D01*
X234529Y191122D01*
X234507Y190970D01*
X234500Y190815D01*
X233500D01*
X233493Y190970D01*
X233471Y191122D01*
X233436Y191274D01*
X233385Y191423D01*
X233321Y191571D01*
X233242Y191717D01*
X233149Y191861D01*
X233042Y192004D01*
X232920Y192144D01*
X232784Y192284D01*
X235216D01*
X235080Y192144D01*
D02*
G37*
G36*
X96778Y191679D02*
X96785Y191482D01*
X96806Y191291D01*
X96841Y191106D01*
X96891Y190926D01*
X96954Y190753D01*
X97032Y190585D01*
X97124Y190423D01*
X97230Y190267D01*
X97350Y190117D01*
X97485Y189972D01*
X96778Y189265D01*
X96633Y189400D01*
X96483Y189520D01*
X96327Y189626D01*
X96165Y189718D01*
X95997Y189795D01*
X95824Y189859D01*
X95644Y189909D01*
X95459Y189944D01*
X95268Y189965D01*
X95071Y189972D01*
X94778Y190972D01*
X94968Y190982D01*
X95138Y191012D01*
X95288Y191062D01*
X95418Y191132D01*
X95528Y191222D01*
X95618Y191332D01*
X95688Y191462D01*
X95738Y191612D01*
X95768Y191782D01*
X95778Y191972D01*
X96778Y191679D01*
D02*
G37*
G36*
X92200Y188966D02*
X92098Y188853D01*
X92006Y188730D01*
X91925Y188598D01*
X91855Y188456D01*
X91796Y188305D01*
X91749Y188145D01*
X91712Y187975D01*
X91686Y187796D01*
X91672Y187607D01*
X91668Y187408D01*
X89936Y189141D01*
X90134Y189144D01*
X90323Y189159D01*
X90503Y189184D01*
X90673Y189221D01*
X90833Y189269D01*
X90984Y189327D01*
X91125Y189397D01*
X91257Y189478D01*
X91380Y189570D01*
X91493Y189673D01*
X92200Y188966D01*
D02*
G37*
G36*
X52142Y189337D02*
X52286Y189214D01*
X52431Y189105D01*
X52577Y189011D01*
X52724Y188931D01*
X52873Y188866D01*
X53022Y188815D01*
X53173Y188779D01*
X53324Y188757D01*
X53477Y188750D01*
Y187750D01*
X53324Y187743D01*
X53173Y187721D01*
X53022Y187685D01*
X52873Y187634D01*
X52724Y187569D01*
X52577Y187489D01*
X52431Y187395D01*
X52286Y187286D01*
X52142Y187163D01*
X52000Y187025D01*
Y189475D01*
X52142Y189337D01*
D02*
G37*
G36*
X318424Y240424D02*
X320409Y239098D01*
X322750Y238633D01*
X348216D01*
X354519Y232329D01*
X354875Y231954D01*
X355923Y230703D01*
X356752Y229543D01*
X357364Y228481D01*
X357763Y227528D01*
X357965Y226692D01*
X357991Y225973D01*
X357866Y225347D01*
X357767Y225140D01*
X355666Y222749D01*
X355488Y222569D01*
X347250D01*
X345884Y222297D01*
X344727Y221523D01*
X343953Y220366D01*
X343681Y219000D01*
X343953Y217634D01*
X344727Y216477D01*
X345884Y215703D01*
X346692Y215543D01*
X347017Y214233D01*
X346410Y213323D01*
X346196Y212250D01*
X346410Y211177D01*
X347017Y210267D01*
X347927Y209660D01*
X349000Y209446D01*
X350073Y209660D01*
X350983Y210267D01*
X351590Y211177D01*
X351804Y212250D01*
X351590Y213323D01*
X351030Y214161D01*
X351113Y214550D01*
X351474Y215431D01*
X357000D01*
X358366Y215703D01*
X359439Y216420D01*
X359516Y216450D01*
X362924Y219711D01*
X363376Y219968D01*
X363958Y220154D01*
X364571Y220209D01*
X365243Y220129D01*
X365992Y219898D01*
X366819Y219497D01*
X367717Y218916D01*
X368680Y218150D01*
X368955Y217894D01*
X369674Y217174D01*
X371659Y215848D01*
X374000Y215382D01*
X377716D01*
X380882Y212216D01*
Y199500D01*
X381348Y197159D01*
X382674Y195174D01*
X385132Y192716D01*
Y184284D01*
X382764Y181915D01*
X377948Y186132D01*
X376646Y187420D01*
X376613Y187434D01*
X371382Y192665D01*
X370224Y193438D01*
X368858Y193710D01*
X350351D01*
X348986Y193438D01*
X347828Y192665D01*
X347348Y191947D01*
X346078Y192332D01*
Y199676D01*
X345768Y201237D01*
X344884Y202560D01*
X344884Y202560D01*
X340134Y207310D01*
X340134Y207310D01*
X323010Y224434D01*
X321687Y225318D01*
X320126Y225628D01*
X320126Y225628D01*
X313800D01*
X312239Y225318D01*
X310916Y224434D01*
X310916Y224434D01*
X305366Y218884D01*
X304482Y217561D01*
X304172Y216000D01*
X304172Y216000D01*
Y186000D01*
X304482Y184439D01*
X305366Y183116D01*
X305441Y183066D01*
X305491Y182991D01*
X313172Y175311D01*
Y122439D01*
X311311Y120578D01*
X296250D01*
X296250Y120578D01*
X294689Y120268D01*
X293366Y119384D01*
X293366Y119384D01*
X289866Y115884D01*
X288982Y114561D01*
X288672Y113000D01*
X288672Y113000D01*
Y108939D01*
X283373Y103641D01*
X282031Y104094D01*
X281935Y104573D01*
X281327Y105483D01*
X280418Y106090D01*
X279345Y106304D01*
X278819Y106830D01*
X278605Y107903D01*
X277997Y108813D01*
X277088Y109420D01*
X276015Y109634D01*
X274942Y109420D01*
X274032Y108813D01*
X273424Y107903D01*
X273211Y106830D01*
X273424Y105757D01*
X274032Y104847D01*
X274942Y104240D01*
X276015Y104026D01*
X276541Y103500D01*
X276754Y102427D01*
X277362Y101517D01*
X278272Y100910D01*
X278751Y100814D01*
X279204Y99472D01*
X274311Y94578D01*
X263250D01*
X261689Y94268D01*
X260366Y93384D01*
X260366Y93384D01*
X256811Y89828D01*
X242116D01*
X241054Y91000D01*
X240840Y92073D01*
X240233Y92983D01*
X239323Y93590D01*
X238409Y93772D01*
X238554Y94500D01*
X238340Y95573D01*
X237733Y96483D01*
X236823Y97090D01*
X235750Y97304D01*
X234677Y97090D01*
X233767Y96483D01*
X233160Y95573D01*
X232946Y94500D01*
X232957Y94443D01*
X231814Y93679D01*
X231573Y93840D01*
X230500Y94054D01*
X229427Y93840D01*
X228517Y93233D01*
X227910Y92323D01*
X227696Y91250D01*
X227910Y90177D01*
X228517Y89267D01*
X229427Y88660D01*
X230500Y88446D01*
X231573Y88660D01*
X232483Y89267D01*
X233090Y90177D01*
X233304Y91250D01*
X233292Y91307D01*
X234388Y92039D01*
X234564Y91985D01*
X234677Y91910D01*
X235048Y91836D01*
X235580Y91672D01*
X235446Y91000D01*
X235660Y89927D01*
X236267Y89017D01*
X235928Y87766D01*
X235589Y87328D01*
X233618D01*
X233618Y87328D01*
X232057Y87018D01*
X230734Y86134D01*
X230734Y86134D01*
X226866Y82266D01*
X225982Y80943D01*
X225672Y79382D01*
X225672Y79382D01*
Y68783D01*
X216913Y60024D01*
X216298Y60343D01*
X215865Y60773D01*
X215991Y61405D01*
Y77150D01*
X215828Y77969D01*
X215364Y78664D01*
X213014Y81014D01*
X212319Y81478D01*
X211500Y81641D01*
X208692D01*
X203741Y86592D01*
Y88972D01*
X205011Y89225D01*
X205102Y89006D01*
X207506Y86602D01*
X208654Y86126D01*
X216000D01*
X217148Y86602D01*
X226672Y96126D01*
X230578D01*
X231726Y96602D01*
X233751Y98626D01*
X256000D01*
X257148Y99102D01*
X258690Y100644D01*
X259525Y100315D01*
X259911Y100069D01*
X260104Y99097D01*
X260712Y98187D01*
X261622Y97580D01*
X262695Y97366D01*
X263768Y97580D01*
X264677Y98187D01*
X265285Y99097D01*
X265371Y99526D01*
X265389Y99560D01*
X266663D01*
X266677Y99536D01*
X266764Y99097D01*
X267372Y98187D01*
X268282Y97580D01*
X269355Y97366D01*
X270428Y97580D01*
X271337Y98187D01*
X271945Y99097D01*
X272159Y100170D01*
X271945Y101243D01*
X271337Y102153D01*
X270428Y102760D01*
X269970Y102852D01*
X269165Y103299D01*
X268678Y104134D01*
X268590Y104573D01*
X267983Y105483D01*
X267073Y106090D01*
X266622Y106180D01*
Y107475D01*
X267098Y107570D01*
X268007Y108177D01*
X268615Y109087D01*
X268829Y110160D01*
X268615Y111233D01*
X268007Y112143D01*
X267098Y112751D01*
X266025Y112964D01*
X264952Y112751D01*
X264644Y112545D01*
X263374Y113223D01*
Y126750D01*
X262898Y127898D01*
X256398Y134398D01*
X256035Y134549D01*
X255328Y135675D01*
X255368Y136095D01*
X255508Y136800D01*
X255295Y137873D01*
X254722Y138731D01*
X255189Y139043D01*
X257122Y140976D01*
X257465Y141489D01*
X257585Y142093D01*
Y146820D01*
X257465Y147425D01*
X257122Y147938D01*
X255850Y149211D01*
X255808Y149324D01*
X255733Y149406D01*
X255694Y149457D01*
X255661Y149508D01*
X255632Y149565D01*
X255605Y149628D01*
X255583Y149698D01*
X255564Y149779D01*
X255549Y149872D01*
X255540Y149975D01*
X255537Y150126D01*
X255483Y150247D01*
X255295Y151193D01*
X254687Y152103D01*
X253778Y152711D01*
X253314Y152803D01*
Y154098D01*
X253778Y154190D01*
X254687Y154798D01*
X255295Y155708D01*
X255508Y156781D01*
X255295Y157853D01*
X254687Y158763D01*
X253778Y159371D01*
X252705Y159584D01*
X251632Y159371D01*
X250722Y158763D01*
X250114Y157853D01*
X250022Y157390D01*
X248727D01*
X248635Y157853D01*
X248027Y158763D01*
X247118Y159371D01*
X246045Y159584D01*
X244972Y159371D01*
X244062Y158763D01*
X243454Y157853D01*
X243241Y156781D01*
X243454Y155708D01*
X244062Y154798D01*
X244972Y154190D01*
X245435Y154098D01*
Y152803D01*
X244972Y152711D01*
X244166Y152173D01*
X244043Y152124D01*
X243923Y152009D01*
X243831Y151929D01*
X243744Y151864D01*
X243665Y151813D01*
X243594Y151775D01*
X243529Y151746D01*
X243523Y151744D01*
X219489D01*
X219104Y153014D01*
X219483Y153267D01*
X220090Y154177D01*
X220304Y155250D01*
X220090Y156323D01*
X219483Y157233D01*
X218573Y157840D01*
X217500Y158054D01*
X216427Y157840D01*
X215517Y157233D01*
X214910Y156323D01*
X214803Y155789D01*
X213488Y155308D01*
X211398Y157398D01*
X210250Y157874D01*
X193172D01*
X186148Y164898D01*
X185000Y165374D01*
X180173D01*
X174040Y171506D01*
X174338Y173004D01*
X174733Y173267D01*
X175341Y174177D01*
X175554Y175250D01*
X175341Y176323D01*
X175318Y176356D01*
X175997Y177626D01*
X190828D01*
X197319Y171135D01*
X197322Y171129D01*
X197347Y171063D01*
X197370Y170985D01*
X197390Y170893D01*
X197405Y170786D01*
X197415Y170665D01*
X197418Y170498D01*
X197470Y170377D01*
X197659Y169427D01*
X198267Y168517D01*
X199177Y167910D01*
X200250Y167696D01*
X201323Y167910D01*
X202233Y168517D01*
X202840Y169427D01*
X203054Y170500D01*
X202840Y171573D01*
X202484Y172106D01*
X202974Y173297D01*
X203046Y173376D01*
X204953D01*
X205026Y173297D01*
X205516Y172106D01*
X205160Y171573D01*
X204946Y170500D01*
X205160Y169427D01*
X205767Y168517D01*
X206677Y167910D01*
X207750Y167696D01*
X208823Y167910D01*
X209733Y168517D01*
X210340Y169427D01*
X210554Y170500D01*
X210340Y171573D01*
X209733Y172482D01*
X208823Y173090D01*
X208000Y173254D01*
X207614Y173979D01*
X207499Y174549D01*
X209826Y176876D01*
X211893D01*
X211905Y176787D01*
X211915Y176665D01*
X211918Y176498D01*
X211971Y176377D01*
X212160Y175427D01*
X212767Y174517D01*
X213677Y173910D01*
X214750Y173696D01*
X215823Y173910D01*
X216733Y174517D01*
X217340Y175427D01*
X217447Y175961D01*
X218762Y176442D01*
X220852Y174352D01*
X222000Y173876D01*
X229567D01*
X229943Y172774D01*
X229974Y172606D01*
X229384Y171723D01*
X229170Y170650D01*
X229384Y169577D01*
X229991Y168667D01*
X230901Y168060D01*
X231974Y167846D01*
X233047Y168060D01*
X233957Y168667D01*
X234564Y169577D01*
X234692Y170216D01*
X235860Y170709D01*
X235987Y170716D01*
X237751Y168953D01*
X238899Y168477D01*
X243114D01*
X243602Y167207D01*
X240944Y164549D01*
X197635D01*
X197573Y164590D01*
X196500Y164804D01*
X195427Y164590D01*
X194517Y163983D01*
X193910Y163073D01*
X193696Y162000D01*
X193910Y160927D01*
X194517Y160017D01*
X195427Y159410D01*
X196500Y159196D01*
X197573Y159410D01*
X197635Y159451D01*
X242000D01*
X242976Y159645D01*
X243802Y160198D01*
X246806Y163201D01*
X254364D01*
X255340Y163395D01*
X256167Y163948D01*
X258757Y166538D01*
X259310Y167365D01*
X259504Y168340D01*
Y172511D01*
X259310Y173486D01*
X258757Y174313D01*
X255310Y177760D01*
X255295Y177834D01*
X254687Y178743D01*
X253778Y179351D01*
X253344Y179437D01*
X252516Y179902D01*
X252052Y180729D01*
X251965Y181164D01*
X251357Y182073D01*
X250448Y182681D01*
X250031Y182764D01*
X249984Y182773D01*
Y184068D01*
X250031Y184077D01*
X250448Y184160D01*
X251357Y184768D01*
X251965Y185678D01*
X252048Y186094D01*
X252057Y186141D01*
X253352D01*
X253361Y186094D01*
X253444Y185678D01*
X254052Y184768D01*
X254962Y184160D01*
X256035Y183947D01*
X257108Y184160D01*
X258017Y184768D01*
X258625Y185678D01*
X258711Y186112D01*
X259365Y187277D01*
X260438Y187490D01*
X261347Y188098D01*
X261955Y189008D01*
X262169Y190081D01*
X261955Y191154D01*
X261347Y192063D01*
X260438Y192671D01*
X259365Y192885D01*
X258292Y192671D01*
X257382Y192063D01*
X256774Y191154D01*
X256688Y190720D01*
X256035Y189555D01*
X254962Y189341D01*
X254052Y188733D01*
X253444Y187824D01*
X253361Y187407D01*
X253352Y187360D01*
X252057D01*
X252048Y187407D01*
X251965Y187824D01*
X251357Y188733D01*
X250448Y189341D01*
X249375Y189555D01*
X248302Y189341D01*
X247392Y188733D01*
X246784Y187824D01*
X246571Y186751D01*
X246784Y185678D01*
X247392Y184768D01*
X248302Y184160D01*
X248718Y184077D01*
X248765Y184068D01*
Y182773D01*
X248718Y182764D01*
X248302Y182681D01*
X247496Y182143D01*
X247373Y182094D01*
X247253Y181979D01*
X247161Y181900D01*
X247074Y181835D01*
X246995Y181784D01*
X246924Y181745D01*
X246859Y181716D01*
X246853Y181714D01*
X245332D01*
X235767Y191279D01*
X235801Y191323D01*
X235877Y191412D01*
X235990Y191527D01*
X236034Y191636D01*
X236590Y192469D01*
X236804Y193542D01*
X236590Y194615D01*
X235983Y195525D01*
X235073Y196133D01*
X234000Y196346D01*
X232927Y196133D01*
X232017Y195525D01*
X231410Y194615D01*
X231196Y193542D01*
X231410Y192469D01*
X231966Y191636D01*
X232010Y191527D01*
X232123Y191412D01*
X232199Y191323D01*
X232261Y191241D01*
X232310Y191165D01*
X232347Y191097D01*
X232374Y191034D01*
X232376Y191028D01*
Y190750D01*
X232852Y189602D01*
X243511Y178943D01*
X244659Y178467D01*
X246853D01*
X246859Y178465D01*
X246924Y178437D01*
X246995Y178398D01*
X247074Y178347D01*
X247161Y178282D01*
X247253Y178202D01*
X247373Y178087D01*
X247496Y178039D01*
X248302Y177500D01*
X248736Y177414D01*
X248765Y177397D01*
Y176124D01*
X248736Y176107D01*
X248302Y176021D01*
X247496Y175483D01*
X247373Y175434D01*
X247253Y175319D01*
X247161Y175239D01*
X247074Y175175D01*
X246995Y175124D01*
X246924Y175085D01*
X246859Y175056D01*
X246853Y175054D01*
X239742D01*
X235898Y178898D01*
X234750Y179374D01*
X225422D01*
X219648Y185148D01*
X218500Y185624D01*
X196751D01*
X188727Y193648D01*
X187578Y194124D01*
X171922D01*
X169593Y196453D01*
X170079Y197626D01*
X187578D01*
X188727Y198102D01*
X203148Y212523D01*
X203624Y213672D01*
Y232186D01*
X204143Y232443D01*
X204894Y232576D01*
X209985Y227485D01*
X210750Y227168D01*
X218573D01*
X218750Y227132D01*
X224289D01*
X225068Y225862D01*
X224946Y225250D01*
X225160Y224177D01*
X225767Y223267D01*
X226677Y222660D01*
X227750Y222446D01*
X228823Y222660D01*
X229733Y223267D01*
X230340Y224177D01*
X230554Y225250D01*
X230432Y225862D01*
X231211Y227132D01*
X247946D01*
Y219750D01*
X248160Y218677D01*
X248767Y217767D01*
X254817Y211717D01*
X255727Y211110D01*
X256800Y210896D01*
X266050D01*
X267123Y211110D01*
X268033Y211717D01*
X268640Y212627D01*
X268854Y213700D01*
X268640Y214773D01*
X268167Y215481D01*
X268395Y216247D01*
X268720Y216751D01*
X274644D01*
X283448Y207948D01*
X284190Y207451D01*
X284288Y207335D01*
X284575Y206040D01*
X282839Y204304D01*
X276009D01*
X274936Y204090D01*
X274027Y203483D01*
X272325Y201781D01*
X272262Y201758D01*
X271787Y201315D01*
X271326Y200946D01*
X270851Y200623D01*
X270361Y200345D01*
X269854Y200110D01*
X269330Y199918D01*
X268787Y199769D01*
X268223Y199661D01*
X267636Y199596D01*
X266986Y199572D01*
X266925Y199545D01*
X266025D01*
X264952Y199331D01*
X264042Y198723D01*
X263434Y197814D01*
X263221Y196741D01*
X263434Y195668D01*
X264042Y194758D01*
X264952Y194150D01*
X265650Y194011D01*
X265727Y193950D01*
X265853Y193965D01*
X265968Y193910D01*
X266561Y193878D01*
X267007Y193799D01*
X267364Y193680D01*
X267641Y193529D01*
X267859Y193349D01*
X268038Y193129D01*
X268189Y192847D01*
X268309Y192486D01*
X268388Y192034D01*
X268419Y191434D01*
X268446Y191378D01*
Y189807D01*
X267372Y188733D01*
X266764Y187824D01*
X266551Y186751D01*
X266764Y185678D01*
X267372Y184768D01*
X268282Y184160D01*
X269355Y183947D01*
X270428Y184160D01*
X271337Y184768D01*
X273233Y186663D01*
X273840Y187573D01*
X274054Y188646D01*
Y192416D01*
X274082Y192477D01*
X274105Y193127D01*
X274170Y193714D01*
X274278Y194278D01*
X274428Y194821D01*
X274620Y195345D01*
X274854Y195851D01*
X275133Y196341D01*
X275320Y196617D01*
X276012Y196554D01*
X276637Y196260D01*
X276754Y195668D01*
X277362Y194758D01*
X278272Y194150D01*
X278735Y194058D01*
Y192763D01*
X278272Y192671D01*
X277362Y192063D01*
X276754Y191154D01*
X276541Y190081D01*
X276754Y189008D01*
X277362Y188098D01*
X278272Y187490D01*
X278706Y187404D01*
X279871Y186751D01*
X280084Y185678D01*
X280692Y184768D01*
X281602Y184160D01*
X282675Y183947D01*
X283748Y184160D01*
X284657Y184768D01*
X285265Y185678D01*
X285357Y186141D01*
X286652D01*
X286744Y185678D01*
X287352Y184768D01*
X288262Y184160D01*
X289335Y183947D01*
X290408Y184160D01*
X291318Y184768D01*
X291876Y185604D01*
X291983Y185703D01*
X293309Y186126D01*
X293655Y185895D01*
X294631Y185701D01*
X297750D01*
X298725Y185895D01*
X299552Y186448D01*
X302052Y188948D01*
X302605Y189774D01*
X302799Y190750D01*
Y203000D01*
X302605Y203975D01*
X302052Y204802D01*
X295302Y211552D01*
X294475Y212105D01*
X293500Y212299D01*
X286306D01*
X277502Y221102D01*
X276675Y221655D01*
X275700Y221849D01*
X263563D01*
X262885Y223119D01*
X263090Y223427D01*
X263304Y224500D01*
X263090Y225573D01*
X262483Y226483D01*
X261573Y227090D01*
X260500Y227304D01*
X259427Y227090D01*
X258517Y226483D01*
X257910Y225573D01*
X257696Y224500D01*
X257910Y223427D01*
X258048Y223219D01*
X257885Y221952D01*
X257634Y221728D01*
X256967Y221283D01*
X256360Y220373D01*
X256281Y219980D01*
X254903Y219562D01*
X253554Y220911D01*
Y227132D01*
X254750D01*
X257091Y227598D01*
X259076Y228924D01*
X267719Y237568D01*
X268401Y238202D01*
X269839Y239353D01*
X271329Y240365D01*
X272871Y241241D01*
X274468Y241982D01*
X276120Y242587D01*
X277831Y243059D01*
X279599Y243396D01*
X281429Y243599D01*
X282361Y243633D01*
X315216D01*
X318424Y240424D01*
D02*
G37*
G36*
X160351Y184963D02*
X160473Y184871D01*
X160604Y184789D01*
X160746Y184717D01*
X160897Y184655D01*
X161058Y184604D01*
X161229Y184563D01*
X161410Y184531D01*
X161600Y184510D01*
X161800Y184499D01*
X160002Y182836D01*
X160006Y183032D01*
X159998Y183218D01*
X159978Y183396D01*
X159946Y183565D01*
X159902Y183724D01*
X159846Y183875D01*
X159778Y184016D01*
X159698Y184149D01*
X159607Y184272D01*
X159503Y184386D01*
X160239Y185065D01*
X160351Y184963D01*
D02*
G37*
G36*
X169289Y184679D02*
X169411Y184587D01*
X169543Y184506D01*
X169685Y184437D01*
X169836Y184378D01*
X169996Y184330D01*
X170166Y184294D01*
X170345Y184268D01*
X170534Y184254D01*
X170733Y184250D01*
X169000Y182518D01*
X168997Y182716D01*
X168982Y182905D01*
X168957Y183084D01*
X168920Y183254D01*
X168872Y183414D01*
X168814Y183565D01*
X168744Y183707D01*
X168663Y183839D01*
X168571Y183962D01*
X168468Y184075D01*
X169175Y184782D01*
X169289Y184679D01*
D02*
G37*
G36*
X331375Y182195D02*
X331242Y182324D01*
X331105Y182438D01*
X330966Y182540D01*
X330824Y182627D01*
X330679Y182702D01*
X330532Y182762D01*
X330381Y182810D01*
X330228Y182843D01*
X330072Y182864D01*
X329914Y182870D01*
Y183970D01*
X330072Y183977D01*
X330228Y183997D01*
X330381Y184031D01*
X330532Y184078D01*
X330679Y184139D01*
X330824Y184213D01*
X330966Y184301D01*
X331105Y184402D01*
X331242Y184517D01*
X331375Y184645D01*
Y182195D01*
D02*
G37*
G36*
X207603Y180896D02*
X207504Y180792D01*
X207416Y180690D01*
X207342Y180591D01*
X207281Y180495D01*
X207232Y180403D01*
X207196Y180313D01*
X207173Y180227D01*
X207163Y180143D01*
X207166Y180063D01*
X207181Y179985D01*
X205985Y181181D01*
X206063Y181166D01*
X206143Y181163D01*
X206227Y181173D01*
X206313Y181196D01*
X206403Y181232D01*
X206495Y181281D01*
X206591Y181342D01*
X206690Y181416D01*
X206792Y181504D01*
X206896Y181604D01*
X207603Y180896D01*
D02*
G37*
G36*
X75337Y216632D02*
Y214633D01*
X69102Y208398D01*
X68626Y207250D01*
Y195000D01*
X69102Y193852D01*
X72876Y190077D01*
Y179716D01*
X71606Y179190D01*
X61398Y189398D01*
X60250Y189874D01*
X53272D01*
X53266Y189876D01*
X53201Y189904D01*
X53129Y189943D01*
X53050Y189994D01*
X52964Y190059D01*
X52871Y190138D01*
X52752Y190254D01*
X52629Y190302D01*
X51823Y190840D01*
X50750Y191054D01*
X49677Y190840D01*
X48884Y191838D01*
X74164Y217118D01*
X75337Y216632D01*
D02*
G37*
G36*
X95740Y179095D02*
X95597Y179233D01*
X95453Y179356D01*
X95309Y179465D01*
X95162Y179559D01*
X95015Y179639D01*
X94867Y179704D01*
X94718Y179755D01*
X94567Y179791D01*
X94415Y179813D01*
X94263Y179820D01*
Y180820D01*
X94415Y180827D01*
X94567Y180849D01*
X94718Y180885D01*
X94867Y180936D01*
X95015Y181001D01*
X95162Y181081D01*
X95309Y181175D01*
X95453Y181284D01*
X95597Y181407D01*
X95740Y181545D01*
Y179095D01*
D02*
G37*
G36*
X248125Y178866D02*
X247982Y179004D01*
X247838Y179127D01*
X247694Y179235D01*
X247547Y179330D01*
X247400Y179409D01*
X247252Y179475D01*
X247103Y179525D01*
X246952Y179562D01*
X246800Y179583D01*
X246648Y179591D01*
Y180591D01*
X246800Y180598D01*
X246952Y180620D01*
X247103Y180656D01*
X247252Y180707D01*
X247400Y180772D01*
X247547Y180852D01*
X247694Y180946D01*
X247838Y181055D01*
X247982Y181178D01*
X248125Y181316D01*
Y178866D01*
D02*
G37*
G36*
X423007Y179574D02*
X423029Y179423D01*
X423065Y179272D01*
X423116Y179123D01*
X423181Y178974D01*
X423261Y178827D01*
X423355Y178681D01*
X423464Y178536D01*
X423587Y178392D01*
X423725Y178250D01*
X421275D01*
X421413Y178392D01*
X421536Y178536D01*
X421645Y178681D01*
X421739Y178827D01*
X421819Y178974D01*
X421884Y179123D01*
X421935Y179272D01*
X421971Y179423D01*
X421993Y179574D01*
X422000Y179727D01*
X423000D01*
X423007Y179574D01*
D02*
G37*
G36*
X95493Y188828D02*
X95583Y188795D01*
X95670Y188754D01*
X95739Y188715D01*
X101602Y182852D01*
X102120Y182638D01*
X102661Y181272D01*
X102651Y181147D01*
X102577Y181036D01*
X102364Y179963D01*
X102577Y178890D01*
X103185Y177981D01*
X104094Y177373D01*
X105167Y177159D01*
X106240Y177373D01*
X107150Y177981D01*
X107758Y178890D01*
X107971Y179963D01*
X108749Y180911D01*
X110693D01*
X111372Y179641D01*
X111159Y179323D01*
X110946Y178250D01*
X111159Y177177D01*
X111767Y176267D01*
X112677Y175660D01*
X113750Y175446D01*
X114823Y175660D01*
X115629Y176198D01*
X115751Y176246D01*
X115871Y176362D01*
X115964Y176441D01*
X116050Y176506D01*
X116129Y176557D01*
X116201Y176596D01*
X116265Y176624D01*
X116272Y176626D01*
X117299D01*
X117849Y176523D01*
X118692Y175642D01*
X118756Y175319D01*
X119364Y174410D01*
X120273Y173802D01*
X121346Y173588D01*
X122158Y172455D01*
X122291Y171784D01*
X122899Y170874D01*
X123809Y170266D01*
X124882Y170053D01*
X125955Y170266D01*
X126864Y170874D01*
X127472Y171784D01*
X127686Y172857D01*
X127472Y173930D01*
X126864Y174839D01*
X125955Y175447D01*
X124882Y175660D01*
X124070Y176794D01*
X124008Y177106D01*
X124584Y178107D01*
X124855Y178376D01*
X134500D01*
X135648Y178852D01*
X135698Y178902D01*
X137232Y178639D01*
X137433Y178337D01*
X138343Y177729D01*
X139014Y177596D01*
X140148Y176784D01*
X140361Y175711D01*
X140969Y174802D01*
X141879Y174194D01*
X142502Y174070D01*
X143107Y173778D01*
X143811Y172857D01*
X143897Y172426D01*
X144504Y171516D01*
X145414Y170908D01*
X146487Y170695D01*
X147010Y169993D01*
X147251Y169552D01*
X147403Y168786D01*
X147324Y168484D01*
X146656Y167516D01*
X118034D01*
X117366Y168484D01*
X117287Y168786D01*
X117471Y169713D01*
X117258Y170786D01*
X116650Y171696D01*
X115740Y172304D01*
X114667Y172517D01*
X113594Y172304D01*
X112685Y171696D01*
X112077Y170786D01*
X111863Y169713D01*
X112048Y168786D01*
X111969Y168484D01*
X111301Y167516D01*
X99142D01*
X98990Y167453D01*
X98597Y167634D01*
X97742Y168311D01*
X97590Y169073D01*
X97373Y169398D01*
X97880Y170794D01*
X97919Y170802D01*
X98829Y171410D01*
X99437Y172319D01*
X99650Y173392D01*
X99437Y174465D01*
X98829Y175375D01*
X97919Y175983D01*
X96846Y176196D01*
X95773Y175983D01*
X95001Y175467D01*
X93291Y177177D01*
X93727Y178469D01*
X94174Y178577D01*
X94604Y178630D01*
X94610Y178627D01*
X94689Y178576D01*
X94776Y178511D01*
X94868Y178432D01*
X94988Y178316D01*
X95111Y178268D01*
X95917Y177729D01*
X96990Y177516D01*
X98063Y177729D01*
X98972Y178337D01*
X99580Y179247D01*
X99794Y180320D01*
X99580Y181393D01*
X98972Y182302D01*
X98063Y182910D01*
X96990Y183124D01*
X95917Y182910D01*
X95111Y182372D01*
X94988Y182323D01*
X94868Y182208D01*
X94776Y182129D01*
X94689Y182064D01*
X94610Y182013D01*
X94538Y181974D01*
X94474Y181946D01*
X94468Y181943D01*
X91353D01*
X89908Y183389D01*
X89908Y183408D01*
X90408Y184684D01*
X90991Y184800D01*
X91901Y185408D01*
X92509Y186318D01*
X92698Y187268D01*
X92751Y187389D01*
X92754Y187556D01*
X92763Y187677D01*
X92778Y187784D01*
X92798Y187876D01*
X92821Y187954D01*
X92847Y188020D01*
X92850Y188026D01*
X93673Y188849D01*
X95416D01*
X95493Y188828D01*
D02*
G37*
G36*
X115142Y179337D02*
X115286Y179214D01*
X115431Y179105D01*
X115577Y179011D01*
X115724Y178931D01*
X115873Y178866D01*
X116022Y178815D01*
X116173Y178779D01*
X116324Y178757D01*
X116477Y178750D01*
Y177750D01*
X116324Y177743D01*
X116173Y177721D01*
X116022Y177685D01*
X115873Y177634D01*
X115724Y177569D01*
X115577Y177489D01*
X115431Y177395D01*
X115286Y177286D01*
X115142Y177163D01*
X115000Y177025D01*
Y179475D01*
X115142Y179337D01*
D02*
G37*
G36*
X213288Y178679D02*
X213411Y178587D01*
X213543Y178506D01*
X213685Y178437D01*
X213836Y178378D01*
X213996Y178330D01*
X214166Y178294D01*
X214345Y178268D01*
X214534Y178253D01*
X214732Y178250D01*
X213000Y176518D01*
X212997Y176716D01*
X212982Y176905D01*
X212956Y177084D01*
X212920Y177254D01*
X212872Y177414D01*
X212813Y177565D01*
X212744Y177707D01*
X212663Y177839D01*
X212571Y177962D01*
X212468Y178075D01*
X213175Y178782D01*
X213288Y178679D01*
D02*
G37*
G36*
X377211Y185340D02*
X382883Y180371D01*
X383448Y180026D01*
X383905Y179819D01*
X384253Y179750D01*
X379250Y174747D01*
X379181Y175095D01*
X378974Y175551D01*
X378629Y176117D01*
X378145Y176791D01*
X376765Y178464D01*
X373660Y181789D01*
X372349Y183115D01*
X375885Y186651D01*
X377211Y185340D01*
D02*
G37*
G36*
X408332Y175325D02*
X408229Y175212D01*
X408137Y175089D01*
X408056Y174957D01*
X407987Y174815D01*
X407928Y174664D01*
X407880Y174504D01*
X407844Y174334D01*
X407818Y174155D01*
X407804Y173966D01*
X407800Y173768D01*
X406068Y175500D01*
X406266Y175503D01*
X406455Y175518D01*
X406634Y175543D01*
X406804Y175580D01*
X406965Y175628D01*
X407116Y175687D01*
X407257Y175756D01*
X407389Y175837D01*
X407512Y175929D01*
X407625Y176032D01*
X408332Y175325D01*
D02*
G37*
G36*
X88457Y175428D02*
X88580Y175336D01*
X88712Y175255D01*
X88853Y175185D01*
X89004Y175127D01*
X89165Y175079D01*
X89334Y175042D01*
X89514Y175017D01*
X89703Y175002D01*
X89901Y174999D01*
X88169Y173266D01*
X88165Y173465D01*
X88151Y173653D01*
X88125Y173833D01*
X88088Y174003D01*
X88041Y174163D01*
X87982Y174314D01*
X87912Y174456D01*
X87831Y174588D01*
X87740Y174710D01*
X87637Y174823D01*
X88344Y175531D01*
X88457Y175428D01*
D02*
G37*
G36*
X371566Y182387D02*
X371580Y182354D01*
X372880Y181040D01*
X375951Y177750D01*
X377287Y176130D01*
X377725Y175519D01*
X378015Y175044D01*
X378137Y174775D01*
X378133Y174750D01*
Y172784D01*
X370466Y165118D01*
X356064D01*
X353723Y164652D01*
X352645Y163931D01*
X352445Y163888D01*
X352068Y163626D01*
X351704Y163411D01*
X351321Y163221D01*
X350917Y163055D01*
X350491Y162913D01*
X350041Y162796D01*
X349583Y162706D01*
X348532Y162596D01*
X347973Y162582D01*
X347896Y162548D01*
X347354Y162440D01*
X346084Y163340D01*
Y172375D01*
X345890Y173351D01*
X345337Y174177D01*
X345254Y174261D01*
X345206Y174503D01*
X344598Y175413D01*
X343688Y176021D01*
X342615Y176234D01*
X342089Y176760D01*
X341876Y177833D01*
X341268Y178743D01*
X340358Y179351D01*
X339895Y179443D01*
Y180738D01*
X340358Y180830D01*
X341268Y181438D01*
X341681Y182056D01*
X342777Y182356D01*
X343173Y182360D01*
X351166Y174366D01*
X351166Y174366D01*
X352490Y173482D01*
X354050Y173172D01*
X358550D01*
X360111Y173482D01*
X361434Y174366D01*
X362318Y175689D01*
X362628Y177250D01*
X362318Y178811D01*
X361434Y180134D01*
X360111Y181018D01*
X358550Y181329D01*
X355740D01*
X351669Y185400D01*
X352155Y186573D01*
X367380D01*
X371566Y182387D01*
D02*
G37*
G36*
X46532Y174575D02*
X46429Y174462D01*
X46337Y174339D01*
X46256Y174207D01*
X46186Y174065D01*
X46128Y173914D01*
X46080Y173754D01*
X46044Y173584D01*
X46018Y173405D01*
X46003Y173216D01*
X46000Y173018D01*
X44268Y174750D01*
X44466Y174753D01*
X44655Y174768D01*
X44834Y174793D01*
X45004Y174830D01*
X45164Y174878D01*
X45315Y174937D01*
X45457Y175006D01*
X45589Y175087D01*
X45712Y175179D01*
X45825Y175282D01*
X46532Y174575D01*
D02*
G37*
G36*
X95155Y172941D02*
X95139Y172982D01*
X95111Y173019D01*
X95073Y173051D01*
X95025Y173079D01*
X94966Y173103D01*
X94897Y173122D01*
X94817Y173137D01*
X94727Y173148D01*
X94626Y173155D01*
X94515Y173157D01*
Y174157D01*
X94657Y174159D01*
X95008Y174184D01*
X95100Y174200D01*
X95179Y174219D01*
X95245Y174241D01*
X95299Y174267D01*
X95340Y174296D01*
X95368Y174328D01*
X95155Y172941D01*
D02*
G37*
G36*
X28507Y174666D02*
X28528Y174590D01*
X28563Y174507D01*
X28613Y174416D01*
X28677Y174317D01*
X28756Y174209D01*
X28957Y173970D01*
X29215Y173699D01*
X27801Y172285D01*
X27661Y172421D01*
X27291Y172744D01*
X27183Y172823D01*
X27084Y172887D01*
X26993Y172937D01*
X26910Y172973D01*
X26834Y172994D01*
X26767Y173000D01*
X28500Y174732D01*
X28507Y174666D01*
D02*
G37*
G36*
X248125Y172206D02*
X247982Y172343D01*
X247838Y172467D01*
X247694Y172575D01*
X247547Y172670D01*
X247400Y172749D01*
X247252Y172815D01*
X247103Y172865D01*
X246952Y172902D01*
X246800Y172923D01*
X246648Y172931D01*
Y173931D01*
X246800Y173938D01*
X246952Y173960D01*
X247103Y173996D01*
X247252Y174047D01*
X247400Y174112D01*
X247547Y174192D01*
X247694Y174286D01*
X247838Y174395D01*
X247982Y174518D01*
X248125Y174656D01*
Y172206D01*
D02*
G37*
G36*
X198788Y172679D02*
X198911Y172587D01*
X199043Y172506D01*
X199185Y172437D01*
X199336Y172378D01*
X199496Y172330D01*
X199666Y172293D01*
X199845Y172268D01*
X200034Y172253D01*
X200233Y172250D01*
X198500Y170518D01*
X198497Y170716D01*
X198482Y170905D01*
X198456Y171084D01*
X198420Y171254D01*
X198372Y171414D01*
X198313Y171565D01*
X198244Y171707D01*
X198163Y171839D01*
X198071Y171962D01*
X197968Y172075D01*
X198675Y172782D01*
X198788Y172679D01*
D02*
G37*
G36*
X251455Y168876D02*
X251312Y169013D01*
X251168Y169137D01*
X251024Y169245D01*
X250877Y169340D01*
X250730Y169419D01*
X250582Y169485D01*
X250433Y169535D01*
X250282Y169572D01*
X250130Y169593D01*
X249978Y169601D01*
Y170601D01*
X250130Y170608D01*
X250282Y170630D01*
X250433Y170666D01*
X250582Y170717D01*
X250730Y170782D01*
X250877Y170862D01*
X251024Y170956D01*
X251168Y171065D01*
X251312Y171188D01*
X251455Y171326D01*
Y168876D01*
D02*
G37*
G36*
X168754Y170534D02*
X168768Y170345D01*
X168794Y170166D01*
X168830Y169996D01*
X168878Y169835D01*
X168937Y169685D01*
X169006Y169543D01*
X169087Y169411D01*
X169179Y169288D01*
X169282Y169175D01*
X168575Y168468D01*
X168462Y168571D01*
X168339Y168663D01*
X168207Y168744D01*
X168065Y168813D01*
X167915Y168872D01*
X167754Y168920D01*
X167584Y168956D01*
X167405Y168982D01*
X167216Y168996D01*
X167018Y169000D01*
X168750Y170732D01*
X168754Y170534D01*
D02*
G37*
G36*
X90778Y168090D02*
X90799Y167856D01*
X90817Y167756D01*
X90841Y167667D01*
X90870Y167590D01*
X90904Y167524D01*
X90943Y167470D01*
X90988Y167427D01*
X91038Y167396D01*
X89512D01*
X89562Y167427D01*
X89607Y167470D01*
X89646Y167524D01*
X89681Y167590D01*
X89710Y167667D01*
X89733Y167756D01*
X89752Y167856D01*
X89765Y167967D01*
X89773Y168090D01*
X89775Y168225D01*
X90775D01*
X90778Y168090D01*
D02*
G37*
G36*
X95906Y166490D02*
X95821Y166406D01*
X95745Y166312D01*
X95680Y166209D01*
X95625Y166097D01*
X95580Y165975D01*
X95545Y165843D01*
X95520Y165702D01*
X95505Y165552D01*
X95500Y165392D01*
X94500D01*
X94495Y165552D01*
X94480Y165702D01*
X94455Y165843D01*
X94420Y165975D01*
X94375Y166097D01*
X94320Y166209D01*
X94255Y166312D01*
X94179Y166406D01*
X94094Y166490D01*
X93999Y166564D01*
X96001D01*
X95906Y166490D01*
D02*
G37*
G36*
X48160Y189323D02*
X47946Y188250D01*
X48160Y187177D01*
X48767Y186267D01*
X49677Y185660D01*
X50750Y185446D01*
X51823Y185660D01*
X52629Y186198D01*
X52751Y186246D01*
X52871Y186362D01*
X52964Y186441D01*
X53050Y186506D01*
X53129Y186557D01*
X53201Y186596D01*
X53265Y186624D01*
X53272Y186626D01*
X59577D01*
X67310Y178894D01*
X66784Y177624D01*
X47250D01*
X46102Y177148D01*
X44885Y175931D01*
X44879Y175928D01*
X44813Y175903D01*
X44735Y175879D01*
X44643Y175860D01*
X44536Y175844D01*
X44415Y175835D01*
X44248Y175832D01*
X44127Y175779D01*
X43177Y175590D01*
X42267Y174983D01*
X41660Y174073D01*
X41446Y173000D01*
X41660Y171927D01*
X42267Y171017D01*
X43177Y170410D01*
X44250Y170196D01*
X45323Y170410D01*
X46233Y171017D01*
X46840Y171927D01*
X47029Y172877D01*
X47082Y172998D01*
X47085Y173165D01*
X47094Y173287D01*
X47110Y173393D01*
X47130Y173486D01*
X47153Y173563D01*
X47178Y173629D01*
X47181Y173635D01*
X47923Y174376D01*
X53671D01*
X54157Y173203D01*
X44328Y163374D01*
X40272D01*
X40265Y163376D01*
X40201Y163404D01*
X40129Y163443D01*
X40050Y163494D01*
X39964Y163559D01*
X39871Y163638D01*
X39752Y163754D01*
X39629Y163802D01*
X38823Y164340D01*
X37750Y164554D01*
X37144Y164433D01*
X35874Y165215D01*
Y178827D01*
X47162Y190116D01*
X48160Y189323D01*
D02*
G37*
G36*
X39142Y162837D02*
X39286Y162714D01*
X39431Y162605D01*
X39577Y162511D01*
X39724Y162431D01*
X39873Y162366D01*
X40022Y162315D01*
X40173Y162279D01*
X40324Y162257D01*
X40477Y162250D01*
Y161250D01*
X40324Y161243D01*
X40173Y161221D01*
X40022Y161185D01*
X39873Y161134D01*
X39724Y161069D01*
X39577Y160989D01*
X39431Y160895D01*
X39286Y160786D01*
X39142Y160663D01*
X39000Y160525D01*
Y162975D01*
X39142Y162837D01*
D02*
G37*
G36*
X132289Y163966D02*
X132833Y162999D01*
X132684Y162250D01*
X132898Y161177D01*
X133506Y160267D01*
X134415Y159660D01*
X135087Y159526D01*
X135794Y159020D01*
X136300Y158313D01*
X136433Y157641D01*
X137041Y156732D01*
X137951Y156124D01*
X139024Y155911D01*
X139856Y156076D01*
X140716Y155619D01*
X141126Y155285D01*
Y152750D01*
X141504Y151838D01*
X140428Y151119D01*
X138648Y152898D01*
X137500Y153374D01*
X134534D01*
X133386Y152898D01*
X126862Y146374D01*
X121186D01*
X119305Y148255D01*
X119656Y149699D01*
X120185Y150053D01*
X120793Y150962D01*
X120927Y151634D01*
X121103Y151880D01*
X122373D01*
X122550Y151634D01*
X122683Y150963D01*
X123291Y150053D01*
X124201Y149445D01*
X125274Y149232D01*
X126347Y149445D01*
X127256Y150053D01*
X127864Y150963D01*
X127998Y151634D01*
X128809Y152767D01*
X129882Y152981D01*
X130792Y153588D01*
X131400Y154498D01*
X131613Y155571D01*
X131400Y156644D01*
X130792Y157554D01*
X129882Y158161D01*
X128809Y158375D01*
X127736Y158161D01*
X126827Y157554D01*
X126219Y156644D01*
X126086Y155973D01*
X125909Y155726D01*
X124639D01*
X124462Y155973D01*
X124329Y156644D01*
X123721Y157554D01*
X122811Y158161D01*
X121738Y158375D01*
X120665Y158161D01*
X119756Y157554D01*
X119148Y156644D01*
X119014Y155973D01*
X118203Y154839D01*
X117130Y154626D01*
X116220Y154018D01*
X115867Y153489D01*
X114422Y153138D01*
X111912Y155648D01*
X110764Y156124D01*
X106923D01*
X102898Y160148D01*
X101750Y160624D01*
X97966D01*
X97357Y161732D01*
X97343Y161797D01*
X99815Y164269D01*
X103964D01*
X104863Y162999D01*
X104792Y162642D01*
X105006Y161569D01*
X105614Y160660D01*
X106523Y160052D01*
X107596Y159838D01*
X108669Y160052D01*
X108731Y160093D01*
X113532D01*
X113594Y160052D01*
X114667Y159838D01*
X115740Y160052D01*
X116650Y160660D01*
X117258Y161569D01*
X117471Y162642D01*
X117400Y162999D01*
X118299Y164269D01*
X132002D01*
X132289Y163966D01*
D02*
G37*
G36*
X155312Y159641D02*
X155326Y159452D01*
X155352Y159273D01*
X155388Y159103D01*
X155436Y158942D01*
X155495Y158791D01*
X155564Y158650D01*
X155645Y158518D01*
X155737Y158395D01*
X155840Y158282D01*
X155133Y157575D01*
X155020Y157678D01*
X154897Y157769D01*
X154765Y157850D01*
X154623Y157920D01*
X154473Y157979D01*
X154312Y158027D01*
X154142Y158063D01*
X153963Y158089D01*
X153774Y158103D01*
X153576Y158107D01*
X155308Y159839D01*
X155312Y159641D01*
D02*
G37*
G36*
X353063Y155001D02*
X352653Y155286D01*
X352221Y155541D01*
X351768Y155766D01*
X351294Y155960D01*
X350799Y156125D01*
X350282Y156260D01*
X349743Y156365D01*
X349184Y156440D01*
X348602Y156485D01*
X348000Y156500D01*
Y161500D01*
X348602Y161515D01*
X349743Y161635D01*
X350282Y161740D01*
X350799Y161875D01*
X351294Y162040D01*
X351768Y162234D01*
X352221Y162459D01*
X352653Y162714D01*
X353063Y162999D01*
Y155001D01*
D02*
G37*
G36*
X-1933Y154886D02*
X-2558Y153716D01*
X-3000Y153804D01*
X-4073Y153590D01*
X-4983Y152983D01*
X-5590Y152073D01*
X-5804Y151000D01*
X-5996Y149832D01*
X-6733Y149658D01*
X-7073Y149591D01*
X-7983Y148983D01*
X-8590Y148073D01*
X-8804Y147000D01*
X-8590Y145927D01*
X-7983Y145017D01*
X-7073Y144410D01*
X-6747Y144345D01*
X-6329Y142967D01*
X-7172Y142124D01*
X-9500D01*
X-10648Y141648D01*
X-17453Y134843D01*
X-18626Y135329D01*
Y149078D01*
X-10827Y156876D01*
X-3923D01*
X-1933Y154886D01*
D02*
G37*
G36*
X166239Y154214D02*
X166361Y154123D01*
X166493Y154042D01*
X166635Y153972D01*
X166786Y153913D01*
X166946Y153866D01*
X167116Y153829D01*
X167296Y153804D01*
X167484Y153789D01*
X167683Y153785D01*
X165950Y152053D01*
X165947Y152251D01*
X165932Y152440D01*
X165907Y152620D01*
X165870Y152789D01*
X165823Y152950D01*
X165764Y153101D01*
X165694Y153243D01*
X165613Y153375D01*
X165521Y153497D01*
X165418Y153610D01*
X166126Y154317D01*
X166239Y154214D01*
D02*
G37*
G36*
X62495Y154708D02*
X63643Y154233D01*
X76221D01*
X77626Y152828D01*
Y150665D01*
X76425D01*
X76323Y150622D01*
X76214Y150644D01*
X75383Y150479D01*
X74552Y150644D01*
X74443Y150622D01*
X74341Y150665D01*
X65872D01*
X65106Y150348D01*
X65106Y150348D01*
X62817Y148059D01*
X62796Y148007D01*
X62746Y147980D01*
X62746Y147979D01*
X62640Y147631D01*
X62500Y147294D01*
X62522Y147241D01*
X62506Y147187D01*
X62540Y146841D01*
X62540Y146841D01*
X62570Y146784D01*
X62665Y146606D01*
X62717Y146346D01*
X63205Y145615D01*
X63334Y144965D01*
X63205Y144314D01*
X62836Y143762D01*
X62285Y143394D01*
X61634Y143264D01*
X60984Y143394D01*
X60253Y143882D01*
X59992Y143934D01*
X59758Y144059D01*
X59411Y144093D01*
X59357Y144077D01*
X59305Y144098D01*
X58337Y144514D01*
X58148Y144681D01*
X58942Y145864D01*
X59172Y145910D01*
X60081Y146517D01*
X60689Y147427D01*
X60903Y148500D01*
X60689Y149573D01*
X60081Y150483D01*
X59172Y151090D01*
X58099Y151304D01*
X57026Y151090D01*
X56116Y150483D01*
X55508Y149573D01*
X55375Y148902D01*
X54563Y147768D01*
X53490Y147555D01*
X52581Y146947D01*
X51973Y146038D01*
X51759Y144965D01*
X51973Y143891D01*
X52581Y142982D01*
X53490Y142374D01*
X54563Y142161D01*
X55262Y142300D01*
X55893Y141135D01*
X51985Y137226D01*
X51668Y136461D01*
X51668Y127750D01*
X51668Y127750D01*
X51985Y126984D01*
X96735Y82235D01*
X97500Y81918D01*
X108198D01*
X108345Y81177D01*
X108953Y80267D01*
X109863Y79660D01*
X110936Y79446D01*
X112009Y79660D01*
X112918Y80267D01*
X113526Y81177D01*
X113720Y82152D01*
X113934Y82195D01*
X114249D01*
X114328Y82273D01*
X114437Y82295D01*
X114849Y82571D01*
X115500Y82700D01*
X116151Y82571D01*
X116855Y82100D01*
X117165Y82038D01*
X117457Y81918D01*
X124862D01*
X124964Y81960D01*
X125073Y81938D01*
X125336Y82114D01*
X125627Y82235D01*
X125670Y82337D01*
X125762Y82399D01*
X125798Y82452D01*
X126349Y82821D01*
X127000Y82950D01*
X127651Y82821D01*
X128202Y82452D01*
X128238Y82399D01*
X128330Y82337D01*
X128373Y82235D01*
X128664Y82114D01*
X128927Y81938D01*
X129036Y81960D01*
X129138Y81918D01*
X139036D01*
X139522Y80744D01*
X138268Y79491D01*
X119100D01*
X118281Y79328D01*
X117586Y78864D01*
X117113Y78391D01*
X114000D01*
X113181Y78228D01*
X112486Y77764D01*
X111030Y76308D01*
X109766Y76432D01*
X109733Y76483D01*
X108823Y77090D01*
X107750Y77304D01*
X106677Y77090D01*
X105767Y76483D01*
X105160Y75573D01*
X104946Y74500D01*
X105120Y73627D01*
X104586Y73052D01*
X104101Y72735D01*
X103125Y72929D01*
X102052Y72715D01*
X101142Y72108D01*
X100535Y71198D01*
X100369Y70364D01*
X99663Y69983D01*
X99079Y69858D01*
X91969Y76969D01*
X91307Y77411D01*
X90527Y77566D01*
X82318D01*
X70289Y89595D01*
Y93053D01*
X70289Y93053D01*
X70134Y93834D01*
X69692Y94495D01*
X69692Y94495D01*
X58062Y106126D01*
X58127Y107636D01*
X58202Y107747D01*
X58233Y107767D01*
X58840Y108677D01*
X59054Y109750D01*
X58840Y110823D01*
X58233Y111733D01*
X57323Y112340D01*
X56250Y112554D01*
X55615Y112427D01*
X54341Y112323D01*
X53733Y113233D01*
X52823Y113840D01*
X51750Y114054D01*
X51309Y113966D01*
X50039Y114825D01*
Y134750D01*
X49884Y135530D01*
X49442Y136192D01*
X49442Y136192D01*
X45287Y140347D01*
X45249Y140446D01*
X45013Y140693D01*
X44858Y140878D01*
X44819Y140931D01*
X44793Y140970D01*
X44788Y140980D01*
X44773Y141015D01*
X44764Y141023D01*
X44763Y141026D01*
X44755Y141032D01*
X44746Y141041D01*
X44590Y141823D01*
X44148Y142485D01*
X44148Y142499D01*
X44149Y142508D01*
X44148Y142511D01*
X44148Y142524D01*
X44134Y142559D01*
X44131Y142569D01*
X44121Y142615D01*
X44113Y142670D01*
X44084Y143084D01*
X44082Y143249D01*
X44039Y143350D01*
Y149250D01*
X43884Y150030D01*
X43442Y150692D01*
X38931Y155203D01*
X39417Y156376D01*
X47670D01*
X48349Y155106D01*
X48160Y154823D01*
X47946Y153750D01*
X48160Y152677D01*
X48767Y151767D01*
X49677Y151160D01*
X50750Y150946D01*
X51823Y151160D01*
X52733Y151767D01*
X53340Y152677D01*
X53554Y153750D01*
X53340Y154823D01*
X53151Y155106D01*
X53830Y156376D01*
X60827D01*
X62495Y154708D01*
D02*
G37*
G36*
X156640Y152133D02*
X156686Y152075D01*
X156743Y152023D01*
X156812Y151979D01*
X156891Y151942D01*
X156981Y151911D01*
X157083Y151887D01*
X157195Y151870D01*
X157318Y151860D01*
X157453Y151856D01*
Y150857D01*
X157302Y150853D01*
X157035Y150829D01*
X156919Y150807D01*
X156814Y150780D01*
X156722Y150746D01*
X156641Y150706D01*
X156572Y150660D01*
X156515Y150608D01*
X156469Y150550D01*
X156605Y152197D01*
X156640Y152133D01*
D02*
G37*
G36*
X143538Y152679D02*
X143661Y152587D01*
X143793Y152506D01*
X143935Y152437D01*
X144086Y152378D01*
X144246Y152330D01*
X144416Y152294D01*
X144595Y152268D01*
X144784Y152253D01*
X144983Y152250D01*
X143250Y150518D01*
X143247Y150716D01*
X143232Y150905D01*
X143207Y151084D01*
X143170Y151254D01*
X143122Y151414D01*
X143063Y151565D01*
X142994Y151707D01*
X142913Y151839D01*
X142821Y151962D01*
X142718Y152075D01*
X143425Y152782D01*
X143538Y152679D01*
D02*
G37*
G36*
X150860Y151358D02*
X150737Y151214D01*
X150628Y151069D01*
X150534Y150923D01*
X150454Y150776D01*
X150388Y150627D01*
X150338Y150478D01*
X150302Y150327D01*
X150280Y150176D01*
X150273Y150023D01*
X149272D01*
X149265Y150176D01*
X149243Y150327D01*
X149207Y150478D01*
X149157Y150627D01*
X149091Y150776D01*
X149011Y150923D01*
X148917Y151069D01*
X148808Y151214D01*
X148685Y151358D01*
X148547Y151500D01*
X150997D01*
X150860Y151358D01*
D02*
G37*
G36*
X244795Y148896D02*
X244652Y149033D01*
X244508Y149157D01*
X244363Y149265D01*
X244217Y149360D01*
X244070Y149439D01*
X243922Y149504D01*
X243773Y149555D01*
X243622Y149592D01*
X243470Y149613D01*
X243318Y149621D01*
Y150620D01*
X243470Y150628D01*
X243622Y150649D01*
X243773Y150686D01*
X243922Y150737D01*
X244070Y150802D01*
X244217Y150882D01*
X244363Y150976D01*
X244508Y151084D01*
X244652Y151208D01*
X244795Y151346D01*
Y148896D01*
D02*
G37*
G36*
X183066Y149803D02*
X183086Y149647D01*
X183120Y149494D01*
X183167Y149343D01*
X183228Y149196D01*
X183302Y149051D01*
X183390Y148909D01*
X183491Y148770D01*
X183606Y148633D01*
X183734Y148500D01*
X181284D01*
X181412Y148633D01*
X181527Y148770D01*
X181628Y148909D01*
X181716Y149051D01*
X181790Y149196D01*
X181851Y149343D01*
X181898Y149494D01*
X181932Y149647D01*
X181952Y149803D01*
X181959Y149961D01*
X183059D01*
X183066Y149803D01*
D02*
G37*
G36*
X254458Y149918D02*
X254474Y149740D01*
X254501Y149570D01*
X254539Y149408D01*
X254589Y149253D01*
X254650Y149105D01*
X254723Y148966D01*
X254807Y148834D01*
X254903Y148709D01*
X255011Y148592D01*
X254233Y147814D01*
X254116Y147922D01*
X253992Y148018D01*
X253859Y148102D01*
X253720Y148175D01*
X253572Y148236D01*
X253418Y148286D01*
X253255Y148324D01*
X253085Y148351D01*
X252907Y148367D01*
X252722Y148371D01*
X254455Y150103D01*
X254458Y149918D01*
D02*
G37*
G36*
X164246Y171000D02*
X164196Y170750D01*
X164410Y169677D01*
X165018Y168767D01*
X165927Y168159D01*
X166877Y167970D01*
X166999Y167918D01*
X167165Y167915D01*
X167287Y167905D01*
X167393Y167890D01*
X167486Y167870D01*
X167564Y167847D01*
X167629Y167822D01*
X167635Y167819D01*
X175876Y159577D01*
Y149172D01*
X173577Y146874D01*
X169888D01*
X168639Y148124D01*
X168692Y148650D01*
X168977Y149581D01*
X169683Y150053D01*
X170291Y150962D01*
X170504Y152036D01*
X170291Y153109D01*
X169683Y154018D01*
X168773Y154626D01*
X167823Y154815D01*
X167702Y154868D01*
X167536Y154871D01*
X167414Y154880D01*
X167307Y154895D01*
X167215Y154915D01*
X167137Y154938D01*
X167071Y154964D01*
X167065Y154967D01*
X165374Y156658D01*
Y163500D01*
X164898Y164648D01*
X160398Y169148D01*
X159250Y169624D01*
X154922D01*
X153816Y170185D01*
X154392Y171097D01*
X157626D01*
X157698Y171126D01*
X161904D01*
X163052Y171602D01*
X163076Y171625D01*
X164246Y171000D01*
D02*
G37*
G36*
X17507Y148074D02*
X17529Y147923D01*
X17565Y147772D01*
X17616Y147623D01*
X17681Y147474D01*
X17761Y147327D01*
X17855Y147181D01*
X17964Y147036D01*
X18087Y146892D01*
X18225Y146750D01*
X15775D01*
X15913Y146892D01*
X16036Y147036D01*
X16145Y147181D01*
X16239Y147327D01*
X16319Y147474D01*
X16384Y147623D01*
X16435Y147772D01*
X16471Y147923D01*
X16493Y148074D01*
X16500Y148227D01*
X17500D01*
X17507Y148074D01*
D02*
G37*
G36*
X39961Y148405D02*
Y143359D01*
X39918Y143262D01*
X39910Y142921D01*
X39889Y142680D01*
X39879Y142615D01*
X39869Y142569D01*
X39866Y142559D01*
X39852Y142524D01*
X39852Y142511D01*
X39851Y142508D01*
X39852Y142499D01*
X39852Y142485D01*
X39410Y141823D01*
X39196Y140750D01*
X39410Y139677D01*
X40017Y138767D01*
X40927Y138160D01*
X41709Y138004D01*
X41718Y137995D01*
X41724Y137987D01*
X41727Y137986D01*
X41736Y137977D01*
X41770Y137962D01*
X41780Y137957D01*
X41819Y137931D01*
X41864Y137898D01*
X42177Y137626D01*
X42294Y137511D01*
X42396Y137470D01*
X45961Y133905D01*
Y109697D01*
X46116Y108916D01*
X46558Y108255D01*
X47921Y106892D01*
X47965Y106787D01*
X49320Y105437D01*
X49767Y104767D01*
X50677Y104160D01*
X51750Y103946D01*
X52123Y104020D01*
X52335Y103808D01*
X52335Y103808D01*
X52996Y103366D01*
X53777Y103211D01*
X55209D01*
X66211Y92209D01*
Y88750D01*
X66366Y87970D01*
X66808Y87308D01*
X80031Y74085D01*
X80031Y74085D01*
X80693Y73643D01*
X81473Y73487D01*
X81474Y73487D01*
X89682D01*
X96932Y66238D01*
X96641Y64732D01*
X96267Y64482D01*
X95660Y63573D01*
X95446Y62500D01*
X95660Y61427D01*
X96267Y60517D01*
X97177Y59910D01*
X98250Y59696D01*
X99323Y59910D01*
X99852Y60263D01*
X100098Y60293D01*
X101128Y60111D01*
X101404Y59985D01*
X101558Y59755D01*
X103755Y57558D01*
X103755Y57558D01*
X104416Y57116D01*
X105197Y56961D01*
X108303D01*
X109084Y57116D01*
X109745Y57558D01*
X111942Y59755D01*
X111942Y59755D01*
X112384Y60416D01*
X112539Y61197D01*
Y62459D01*
X115291Y65211D01*
X119094D01*
X119580Y64037D01*
X118674Y63132D01*
X117348Y61147D01*
X116882Y58806D01*
Y54534D01*
X110466Y48117D01*
X98211D01*
X97432Y49388D01*
X97554Y50000D01*
X97340Y51073D01*
X96733Y51983D01*
X95823Y52590D01*
X94750Y52804D01*
X94388Y52732D01*
X93118Y53628D01*
Y58804D01*
X92652Y61145D01*
X91326Y63130D01*
X91161Y63295D01*
X91425Y64826D01*
X91733Y65032D01*
X92340Y65941D01*
X92554Y67014D01*
X92340Y68087D01*
X91733Y68997D01*
X90823Y69605D01*
X89750Y69818D01*
X88677Y69605D01*
X87767Y68997D01*
X87562Y68689D01*
X86031Y68425D01*
X85630Y68826D01*
X83645Y70152D01*
X81304Y70617D01*
X73500D01*
X71159Y70152D01*
X69174Y68826D01*
X65630Y65282D01*
X58682D01*
X57005Y66402D01*
X54664Y66867D01*
X43040D01*
X40699Y66402D01*
X38714Y65076D01*
X32424Y58786D01*
X31098Y56801D01*
X30633Y54460D01*
Y48180D01*
X23570Y41118D01*
X19500D01*
X19323Y41082D01*
X17500D01*
X16735Y40765D01*
X16735Y40765D01*
X15538Y39569D01*
X15174Y39326D01*
X14931Y38962D01*
X13485Y37515D01*
X13168Y36750D01*
Y32750D01*
X13485Y31985D01*
X16235Y29235D01*
X16588Y27744D01*
X16340Y27374D01*
X9798D01*
X9118Y28156D01*
X9233Y29517D01*
X9840Y30427D01*
X10054Y31500D01*
X9840Y32573D01*
X9233Y33483D01*
X8323Y34090D01*
X7250Y34304D01*
X6394Y34134D01*
X5573Y34563D01*
X5124Y34914D01*
Y98174D01*
X15326Y108376D01*
X21000D01*
X22148Y108852D01*
X36677Y123381D01*
X37040Y123308D01*
X37910Y122323D01*
X37696Y121250D01*
X37910Y120177D01*
X38517Y119267D01*
X39427Y118660D01*
X40500Y118446D01*
X41573Y118660D01*
X42483Y119267D01*
X43091Y120177D01*
X43304Y121250D01*
X43131Y122121D01*
X43131Y122121D01*
X43091Y122323D01*
X43476Y123759D01*
X43483Y123767D01*
X43550Y123869D01*
X44090Y124677D01*
X44304Y125750D01*
X44090Y126823D01*
X43483Y127733D01*
X42573Y128341D01*
X41500Y128554D01*
X40427Y128341D01*
X39621Y127802D01*
X39499Y127754D01*
X39379Y127638D01*
X39286Y127559D01*
X39200Y127494D01*
X39121Y127443D01*
X39049Y127404D01*
X38985Y127376D01*
X38978Y127374D01*
X36750D01*
X35602Y126898D01*
X26744Y118040D01*
X25246Y118338D01*
X24983Y118733D01*
X24073Y119340D01*
X23000Y119554D01*
X21927Y119340D01*
X21017Y118733D01*
X20410Y117823D01*
X20196Y116750D01*
X20410Y115677D01*
X21017Y114767D01*
X21412Y114504D01*
X21710Y113006D01*
X20327Y111624D01*
X14654D01*
X13506Y111148D01*
X2352Y99994D01*
X2089Y99358D01*
X819Y99611D01*
Y103024D01*
X6773Y108978D01*
X7547Y110136D01*
X7819Y111502D01*
Y144115D01*
X14203Y150499D01*
X15376Y150014D01*
Y148022D01*
X15374Y148015D01*
X15346Y147951D01*
X15307Y147879D01*
X15256Y147800D01*
X15191Y147714D01*
X15112Y147621D01*
X14996Y147502D01*
X14948Y147379D01*
X14410Y146573D01*
X14196Y145500D01*
X14410Y144427D01*
X15017Y143517D01*
X15927Y142910D01*
X17000Y142696D01*
X18073Y142910D01*
X18983Y143517D01*
X19590Y144427D01*
X19804Y145500D01*
X19590Y146573D01*
X19052Y147379D01*
X19004Y147501D01*
X18888Y147621D01*
X18809Y147714D01*
X18744Y147800D01*
X18693Y147879D01*
X18654Y147951D01*
X18626Y148015D01*
X18624Y148022D01*
Y151327D01*
X21759Y154463D01*
X22846Y153754D01*
X22696Y153000D01*
X22910Y151927D01*
X23517Y151017D01*
Y150358D01*
X22910Y149448D01*
X22696Y148375D01*
X22910Y147302D01*
X23517Y146393D01*
X24427Y145785D01*
X25500Y145571D01*
X26573Y145785D01*
X27483Y146393D01*
X28090Y147302D01*
X28304Y148375D01*
X28090Y149448D01*
X27483Y150358D01*
Y151017D01*
X28090Y151927D01*
X28304Y153000D01*
X28090Y154073D01*
X27827Y154466D01*
X28283Y155829D01*
X28309Y155857D01*
X28573Y155910D01*
X29483Y156517D01*
X29711Y156859D01*
X31229Y157137D01*
X39961Y148405D01*
D02*
G37*
G36*
X362091Y155172D02*
X361914Y154702D01*
X361758Y154059D01*
X361624Y153240D01*
X361416Y151081D01*
X361260Y146534D01*
X361250Y144670D01*
X356250D01*
X356240Y146534D01*
X355742Y154059D01*
X355586Y154702D01*
X355409Y155172D01*
X355212Y155467D01*
X362288D01*
X362091Y155172D01*
D02*
G37*
G36*
X97738Y148582D02*
X97721Y148500D01*
X97935Y147427D01*
X98543Y146517D01*
X99452Y145910D01*
X100525Y145696D01*
X101598Y145910D01*
X102508Y146517D01*
X105614Y143412D01*
X105006Y142502D01*
X104792Y141429D01*
X105006Y140356D01*
X105614Y139446D01*
X106523Y138839D01*
X107596Y138625D01*
X108669Y138839D01*
X109579Y139446D01*
X111943Y137082D01*
Y134759D01*
X111863Y134358D01*
X111132Y133626D01*
X110059Y133413D01*
X109149Y132805D01*
X108541Y131895D01*
X108328Y130822D01*
X108541Y129749D01*
X109149Y128840D01*
X110059Y128232D01*
X111132Y128019D01*
X111863Y127287D01*
X111943Y126885D01*
X111943Y120307D01*
X122498Y109752D01*
X122470Y109609D01*
X122683Y108536D01*
X123291Y107626D01*
X124201Y107019D01*
X125274Y106805D01*
X125416Y106834D01*
X126750Y105500D01*
X131929D01*
X132233Y105297D01*
X133053Y105134D01*
X137127D01*
X137776Y104134D01*
X137650Y103500D01*
X137864Y102427D01*
X138471Y101517D01*
X139381Y100910D01*
X140454Y100696D01*
X141527Y100910D01*
X142437Y101517D01*
X143045Y102427D01*
X143258Y103500D01*
X143059Y104500D01*
X143066Y104606D01*
X143628Y105500D01*
X163795D01*
X164809Y104486D01*
X164480Y103401D01*
X164177Y103340D01*
X163267Y102733D01*
X162660Y101823D01*
X162446Y100750D01*
X162660Y99677D01*
X163267Y98767D01*
X164177Y98160D01*
X165250Y97946D01*
X166323Y98160D01*
X167233Y98767D01*
X167840Y99677D01*
X168054Y100750D01*
X167933Y101359D01*
X168533Y102267D01*
X168676Y102359D01*
X169613D01*
X178336Y93636D01*
X179031Y93172D01*
X179850Y93009D01*
X188150D01*
X188969Y93172D01*
X189664Y93636D01*
X189882Y93471D01*
X190383Y92941D01*
X190196Y92000D01*
X190410Y90927D01*
X191017Y90017D01*
X191927Y89410D01*
X192012Y89393D01*
X192742Y88228D01*
X192696Y88000D01*
X192910Y86927D01*
X193517Y86017D01*
X194427Y85410D01*
X195500Y85196D01*
X196573Y85410D01*
X197483Y86017D01*
X197701Y86344D01*
X198680Y86472D01*
X199459Y85768D01*
Y85705D01*
X199622Y84886D01*
X200086Y84191D01*
X206291Y77986D01*
X206986Y77522D01*
X207381Y77443D01*
X207427Y77391D01*
X207779Y76487D01*
X207776Y76371D01*
X207410Y75823D01*
X207196Y74750D01*
X207410Y73677D01*
X208017Y72767D01*
X208927Y72160D01*
X210000Y71946D01*
X210500Y72046D01*
X211500Y71334D01*
Y62083D01*
X205917Y56500D01*
X188750Y56500D01*
X177998Y67252D01*
X178232Y68433D01*
X178733Y68767D01*
X179340Y69677D01*
X179554Y70750D01*
X179340Y71823D01*
X178733Y72733D01*
X177823Y73341D01*
X176750Y73554D01*
X175677Y73341D01*
X174767Y72733D01*
X174433Y72232D01*
X173252Y71998D01*
X162250Y83000D01*
X148723Y83000D01*
X148609Y83114D01*
X147914Y83578D01*
X147095Y83741D01*
X143405D01*
X142586Y83578D01*
X141891Y83114D01*
X141777Y83000D01*
X129138D01*
X128983Y83232D01*
X128073Y83840D01*
X127000Y84054D01*
X125927Y83840D01*
X125017Y83232D01*
X124862Y83000D01*
X117457D01*
X116573Y83590D01*
X115500Y83804D01*
X114427Y83590D01*
X113835Y83195D01*
X113526Y83323D01*
X112918Y84233D01*
X112009Y84840D01*
X110936Y85054D01*
X109863Y84840D01*
X108953Y84233D01*
X108345Y83323D01*
X108281Y83000D01*
X97500D01*
X52750Y127750D01*
X52750Y136461D01*
X59305Y143016D01*
X59652Y142982D01*
X60561Y142374D01*
X61634Y142161D01*
X62707Y142374D01*
X63617Y142982D01*
X64225Y143891D01*
X64438Y144965D01*
X64225Y146038D01*
X63617Y146947D01*
X63583Y147294D01*
X65872Y149582D01*
X74341D01*
X75383Y149375D01*
X76425Y149582D01*
X77626D01*
Y148500D01*
X78102Y147352D01*
X80406Y145048D01*
X80370Y144856D01*
X79227Y144078D01*
X79169Y144089D01*
X78096Y143876D01*
X77186Y143268D01*
X76578Y142358D01*
X76365Y141285D01*
X76578Y140212D01*
X77186Y139303D01*
X78096Y138695D01*
X79169Y138482D01*
X80242Y138695D01*
X81151Y139303D01*
X81759Y140212D01*
X81972Y141285D01*
X81961Y141344D01*
X82739Y142487D01*
X82931Y142523D01*
X88569Y136885D01*
X88572Y136879D01*
X88597Y136813D01*
X88621Y136735D01*
X88640Y136643D01*
X88656Y136537D01*
X88665Y136415D01*
X88668Y136248D01*
X88721Y136127D01*
X88910Y135177D01*
X89517Y134267D01*
X90427Y133660D01*
X91500Y133446D01*
X92573Y133660D01*
X93483Y134267D01*
X94090Y135177D01*
X94304Y136250D01*
X94090Y137323D01*
X93483Y138233D01*
X92573Y138840D01*
X91623Y139030D01*
X91502Y139082D01*
X91335Y139085D01*
X91214Y139094D01*
X91107Y139110D01*
X91014Y139129D01*
X90936Y139153D01*
X90871Y139178D01*
X90865Y139181D01*
X81464Y148582D01*
X81878Y149582D01*
X96917Y149582D01*
X97738Y148582D01*
D02*
G37*
G36*
X43002Y143041D02*
X43036Y142551D01*
X43056Y142419D01*
X43081Y142303D01*
X43110Y142204D01*
X43144Y142120D01*
X43182Y142052D01*
X43225Y142000D01*
X40775D01*
X40818Y142052D01*
X40856Y142120D01*
X40890Y142204D01*
X40919Y142303D01*
X40944Y142419D01*
X40964Y142551D01*
X40991Y142862D01*
X41000Y143236D01*
X43000D01*
X43002Y143041D01*
D02*
G37*
G36*
X43756Y140666D02*
X43777Y140590D01*
X43813Y140507D01*
X43863Y140416D01*
X43927Y140317D01*
X44006Y140209D01*
X44207Y139970D01*
X44465Y139699D01*
X43051Y138285D01*
X42911Y138421D01*
X42541Y138744D01*
X42433Y138823D01*
X42334Y138887D01*
X42243Y138937D01*
X42160Y138973D01*
X42084Y138994D01*
X42017Y139000D01*
X43750Y140732D01*
X43756Y140666D01*
D02*
G37*
G36*
X90038Y138429D02*
X90161Y138337D01*
X90293Y138256D01*
X90435Y138187D01*
X90586Y138128D01*
X90746Y138080D01*
X90916Y138043D01*
X91095Y138018D01*
X91284Y138003D01*
X91482Y138000D01*
X89750Y136267D01*
X89747Y136466D01*
X89732Y136655D01*
X89706Y136834D01*
X89670Y137004D01*
X89622Y137164D01*
X89564Y137315D01*
X89494Y137457D01*
X89413Y137589D01*
X89321Y137712D01*
X89218Y137825D01*
X89925Y138532D01*
X90038Y138429D01*
D02*
G37*
G36*
X681Y143726D02*
Y134350D01*
X-589Y133965D01*
X-767Y134233D01*
X-1677Y134840D01*
X-2750Y135054D01*
X-3823Y134840D01*
X-4733Y134233D01*
X-5340Y133323D01*
X-5554Y132250D01*
X-5340Y131177D01*
X-4733Y130267D01*
X-3823Y129660D01*
X-2750Y129446D01*
X-1677Y129660D01*
X-767Y130267D01*
X-589Y130535D01*
X681Y130150D01*
Y112980D01*
X-5273Y107025D01*
X-6047Y105867D01*
X-6319Y104502D01*
Y98954D01*
X-7589Y98276D01*
X-7677Y98335D01*
X-8750Y98548D01*
X-9823Y98335D01*
X-10733Y97727D01*
X-11340Y96817D01*
X-11554Y95744D01*
X-11340Y94671D01*
X-10733Y93762D01*
X-9823Y93154D01*
X-8873Y92965D01*
X-8752Y92912D01*
X-8585Y92909D01*
X-8463Y92900D01*
X-8357Y92885D01*
X-8264Y92865D01*
X-8187Y92842D01*
X-8121Y92816D01*
X-8115Y92813D01*
X-5799Y90497D01*
X-8115Y88181D01*
X-8121Y88178D01*
X-8187Y88153D01*
X-8265Y88130D01*
X-8357Y88110D01*
X-8464Y88094D01*
X-8585Y88085D01*
X-8752Y88082D01*
X-8873Y88029D01*
X-9823Y87840D01*
X-10733Y87233D01*
X-11340Y86323D01*
X-11554Y85250D01*
X-11340Y84177D01*
X-10733Y83267D01*
X-9823Y82660D01*
X-8750Y82446D01*
X-7677Y82660D01*
X-6767Y83267D01*
X-6160Y84177D01*
X-5971Y85127D01*
X-5918Y85248D01*
X-5915Y85415D01*
X-5906Y85537D01*
X-5890Y85643D01*
X-5871Y85736D01*
X-5847Y85814D01*
X-5822Y85879D01*
X-5819Y85885D01*
X-4894Y86810D01*
X-3624Y86284D01*
Y83751D01*
X-6251Y81124D01*
X-10250D01*
X-11398Y80648D01*
X-15453Y76593D01*
X-16626Y77079D01*
Y131077D01*
X-8827Y138876D01*
X-6500D01*
X-5352Y139352D01*
X-492Y144212D01*
X681Y143726D01*
D02*
G37*
G36*
X197750Y129775D02*
X197608Y129913D01*
X197464Y130036D01*
X197319Y130145D01*
X197173Y130239D01*
X197026Y130319D01*
X196877Y130384D01*
X196728Y130435D01*
X196577Y130471D01*
X196426Y130493D01*
X196273Y130500D01*
Y131500D01*
X196426Y131507D01*
X196577Y131529D01*
X196728Y131565D01*
X196877Y131616D01*
X197026Y131681D01*
X197173Y131761D01*
X197319Y131855D01*
X197464Y131964D01*
X197608Y132087D01*
X197750Y132225D01*
Y129775D01*
D02*
G37*
G36*
X168250Y126275D02*
X168108Y126413D01*
X167964Y126536D01*
X167819Y126645D01*
X167673Y126739D01*
X167526Y126819D01*
X167377Y126884D01*
X167228Y126935D01*
X167077Y126971D01*
X166926Y126993D01*
X166773Y127000D01*
Y128000D01*
X166926Y128007D01*
X167077Y128029D01*
X167228Y128065D01*
X167377Y128116D01*
X167526Y128181D01*
X167673Y128261D01*
X167819Y128355D01*
X167964Y128464D01*
X168108Y128587D01*
X168250Y128725D01*
Y126275D01*
D02*
G37*
G36*
X233102Y135352D02*
X234250Y134876D01*
X246077D01*
X247810Y133144D01*
X247284Y131874D01*
X244750D01*
X243602Y131398D01*
X240077Y127874D01*
X216000D01*
X214852Y127398D01*
X213078Y125624D01*
X206382D01*
X205483Y126894D01*
X205554Y127250D01*
X205340Y128323D01*
X204733Y129233D01*
X203823Y129840D01*
X202810Y130042D01*
X202750Y130054D01*
X201804Y131000D01*
X201792Y131060D01*
X201590Y132073D01*
X200983Y132983D01*
X200073Y133590D01*
X199000Y133804D01*
X197927Y133590D01*
X197121Y133052D01*
X196999Y133004D01*
X196879Y132888D01*
X196786Y132809D01*
X196700Y132744D01*
X196621Y132693D01*
X196549Y132654D01*
X196485Y132626D01*
X196478Y132624D01*
X185830D01*
X185151Y133894D01*
X185340Y134177D01*
X185554Y135250D01*
X185340Y136323D01*
X184733Y137233D01*
X183823Y137840D01*
X182750Y138054D01*
X181677Y137840D01*
X180767Y137233D01*
X180160Y136323D01*
X180095Y135997D01*
X178717Y135579D01*
X173843Y140453D01*
X174329Y141626D01*
X226828D01*
X233102Y135352D01*
D02*
G37*
G36*
X250767Y127898D02*
X250911Y127774D01*
X251056Y127666D01*
X251202Y127571D01*
X251349Y127492D01*
X251497Y127426D01*
X251647Y127375D01*
X251797Y127339D01*
X251949Y127317D01*
X252102Y127310D01*
Y126310D01*
X251949Y126303D01*
X251797Y126281D01*
X251647Y126245D01*
X251497Y126194D01*
X251349Y126129D01*
X251202Y126049D01*
X251056Y125955D01*
X250911Y125846D01*
X250767Y125723D01*
X250624Y125585D01*
Y128035D01*
X250767Y127898D01*
D02*
G37*
G36*
X40250Y124525D02*
X40108Y124663D01*
X39964Y124786D01*
X39819Y124895D01*
X39673Y124989D01*
X39526Y125069D01*
X39377Y125134D01*
X39228Y125185D01*
X39077Y125221D01*
X38926Y125243D01*
X38773Y125250D01*
Y126250D01*
X38926Y126257D01*
X39077Y126279D01*
X39228Y126315D01*
X39377Y126366D01*
X39526Y126431D01*
X39673Y126511D01*
X39819Y126605D01*
X39964Y126714D01*
X40108Y126837D01*
X40250Y126975D01*
Y124525D01*
D02*
G37*
G36*
X140808Y124838D02*
X140952Y124715D01*
X141097Y124607D01*
X141243Y124512D01*
X141390Y124432D01*
X141539Y124367D01*
X141688Y124317D01*
X141839Y124280D01*
X141990Y124258D01*
X142143Y124251D01*
Y123251D01*
X141990Y123244D01*
X141839Y123222D01*
X141688Y123186D01*
X141539Y123135D01*
X141390Y123070D01*
X141243Y122990D01*
X141097Y122896D01*
X140952Y122787D01*
X140808Y122664D01*
X140666Y122526D01*
Y124976D01*
X140808Y124838D01*
D02*
G37*
G36*
X96612Y155618D02*
X97811Y155122D01*
X97935Y154498D01*
X98543Y153588D01*
X99452Y152981D01*
X100525Y152767D01*
X101598Y152981D01*
X102508Y153588D01*
X102733Y153925D01*
X104253Y154201D01*
X105102Y153352D01*
X106250Y152876D01*
X110091D01*
X118830Y144138D01*
X119366Y143602D01*
X119148Y142502D01*
X118934Y141429D01*
X119148Y140356D01*
X119756Y139446D01*
X120665Y138839D01*
X121738Y138625D01*
X122811Y138839D01*
X123721Y139446D01*
X124329Y140356D01*
X124542Y141429D01*
X125274Y141871D01*
X126006Y141429D01*
X126219Y140356D01*
X126827Y139446D01*
X127736Y138839D01*
X128809Y138625D01*
X129882Y138839D01*
X130792Y139446D01*
X131400Y140356D01*
X131613Y141429D01*
X131400Y142502D01*
X130792Y143412D01*
X130490Y143613D01*
X130227Y145147D01*
X135207Y150126D01*
X136827D01*
X153352Y133602D01*
X154500Y133126D01*
X158077D01*
X164852Y126352D01*
X166000Y125876D01*
X166978D01*
X166985Y125874D01*
X167049Y125846D01*
X167121Y125807D01*
X167200Y125756D01*
X167286Y125691D01*
X167379Y125612D01*
X167498Y125496D01*
X167621Y125448D01*
X168427Y124910D01*
X169500Y124696D01*
X170573Y124910D01*
X171483Y125517D01*
X172090Y126427D01*
X172304Y127500D01*
X172090Y128573D01*
X171483Y129483D01*
X170573Y130090D01*
X169500Y130304D01*
X168427Y130090D01*
X167621Y129552D01*
X167498Y129504D01*
X167379Y129388D01*
X167286Y129309D01*
X167200Y129244D01*
X167121Y129193D01*
X167049Y129154D01*
X166985Y129126D01*
X166978Y129124D01*
X166672D01*
X159898Y135898D01*
X158750Y136374D01*
X155173D01*
X145058Y146488D01*
X145539Y147803D01*
X146073Y147910D01*
X146983Y148517D01*
X148405Y148360D01*
X148624Y147830D01*
X152352Y144102D01*
X153500Y143626D01*
X153727D01*
X154395Y142658D01*
X154474Y142356D01*
X154290Y141429D01*
X154503Y140356D01*
X155111Y139446D01*
X156021Y138839D01*
X157094Y138625D01*
X158167Y138839D01*
X159076Y139446D01*
X159640Y140290D01*
X159713Y140363D01*
X161044Y140682D01*
X163624Y138102D01*
X164773Y137626D01*
X168482D01*
X178256Y127852D01*
X179405Y127376D01*
X181920D01*
X182599Y126106D01*
X182410Y125823D01*
X182196Y124750D01*
X182410Y123677D01*
X182432Y123644D01*
X181753Y122374D01*
X163172D01*
X160647Y124899D01*
X159499Y125375D01*
X141938D01*
X141931Y125377D01*
X141867Y125405D01*
X141795Y125444D01*
X141716Y125495D01*
X141630Y125560D01*
X141537Y125639D01*
X141418Y125755D01*
X141295Y125803D01*
X140489Y126342D01*
X139416Y126555D01*
X138343Y126342D01*
X137433Y125734D01*
X136826Y124824D01*
X136612Y123751D01*
X136656Y123533D01*
X135485Y122907D01*
X134591Y123802D01*
X134588Y123808D01*
X134562Y123873D01*
X134539Y123951D01*
X134519Y124044D01*
X134504Y124150D01*
X134494Y124272D01*
X134492Y124438D01*
X134439Y124559D01*
X134250Y125510D01*
X133642Y126419D01*
X132732Y127027D01*
X131659Y127241D01*
X130587Y127027D01*
X129677Y126419D01*
X129069Y125510D01*
X128856Y124437D01*
X127775Y123360D01*
X127727Y123350D01*
X126044Y123398D01*
X126015Y123387D01*
X125986Y123398D01*
X125894Y123357D01*
X122994D01*
X122174Y123194D01*
X121480Y122730D01*
X119224Y120474D01*
X118760Y119780D01*
X118597Y118960D01*
Y116980D01*
X117327Y116454D01*
X113026Y120755D01*
X113026Y123665D01*
X114296Y124557D01*
X114667Y124483D01*
X115740Y124696D01*
X116650Y125304D01*
X117258Y126214D01*
X117471Y127287D01*
X117258Y128360D01*
X116650Y129269D01*
X115740Y129877D01*
X114667Y130091D01*
X113856Y131224D01*
X113722Y131895D01*
X113114Y132805D01*
X112678Y133097D01*
X112629Y133593D01*
X112750Y133884D01*
X112925Y134147D01*
X113005Y134548D01*
X112983Y134657D01*
X113026Y134759D01*
Y137082D01*
X112709Y137847D01*
X110344Y140212D01*
X110214Y140266D01*
X110187Y140356D01*
X110400Y141429D01*
X110187Y142502D01*
X109579Y143412D01*
X108669Y144019D01*
X107596Y144233D01*
X106523Y144019D01*
X106433Y144047D01*
X106379Y144177D01*
X103273Y147283D01*
X102982Y147404D01*
X102719Y147579D01*
X102610Y147557D01*
X102508Y147600D01*
X102216Y147479D01*
X101906Y147417D01*
X101176Y146929D01*
X100525Y146800D01*
X99874Y146929D01*
X99323Y147298D01*
X98954Y147849D01*
X98783Y148711D01*
X98711Y148819D01*
X98709Y148826D01*
X98638Y149184D01*
X98591Y149215D01*
X98574Y149269D01*
X97754Y150269D01*
X97704Y150296D01*
X97682Y150348D01*
X97345Y150487D01*
X97023Y150660D01*
X96969Y150643D01*
X96917Y150665D01*
X95164D01*
X94527Y151090D01*
X93454Y151304D01*
X93207Y151255D01*
X92836Y152476D01*
X93744Y152852D01*
X96515Y155623D01*
X96612Y155618D01*
D02*
G37*
G36*
X244795Y122255D02*
X244652Y122393D01*
X244508Y122516D01*
X244363Y122625D01*
X244217Y122719D01*
X244070Y122799D01*
X243922Y122864D01*
X243773Y122915D01*
X243622Y122951D01*
X243470Y122973D01*
X243318Y122980D01*
Y123980D01*
X243470Y123988D01*
X243622Y124009D01*
X243773Y124045D01*
X243922Y124096D01*
X244070Y124162D01*
X244217Y124241D01*
X244363Y124335D01*
X244508Y124444D01*
X244652Y124567D01*
X244795Y124705D01*
Y122255D01*
D02*
G37*
G36*
X133413Y124221D02*
X133427Y124032D01*
X133453Y123853D01*
X133490Y123683D01*
X133537Y123522D01*
X133596Y123371D01*
X133666Y123230D01*
X133747Y123098D01*
X133838Y122975D01*
X133941Y122862D01*
X133234Y122155D01*
X133121Y122258D01*
X132998Y122350D01*
X132866Y122430D01*
X132725Y122500D01*
X132574Y122559D01*
X132413Y122607D01*
X132243Y122643D01*
X132064Y122669D01*
X131875Y122683D01*
X131677Y122687D01*
X133409Y124419D01*
X133413Y124221D01*
D02*
G37*
G36*
X127871Y122263D02*
X127219Y119902D01*
X127186Y119942D01*
X127135Y119979D01*
X127066Y120011D01*
X126978Y120039D01*
X126873Y120062D01*
X126748Y120082D01*
X126445Y120107D01*
X126069Y120116D01*
X126013Y122316D01*
X127871Y122263D01*
D02*
G37*
G36*
X251128Y119934D02*
X251143Y119746D01*
X251168Y119566D01*
X251205Y119396D01*
X251252Y119236D01*
X251311Y119085D01*
X251381Y118943D01*
X251462Y118811D01*
X251554Y118689D01*
X251656Y118575D01*
X250949Y117868D01*
X250836Y117971D01*
X250714Y118063D01*
X250582Y118144D01*
X250440Y118214D01*
X250289Y118272D01*
X250129Y118320D01*
X249959Y118357D01*
X249779Y118382D01*
X249590Y118397D01*
X249392Y118400D01*
X251124Y120133D01*
X251128Y119934D01*
D02*
G37*
G36*
X126191Y118086D02*
X126235Y118040D01*
X126291Y117999D01*
X126358Y117964D01*
X126436Y117934D01*
X126526Y117909D01*
X126627Y117890D01*
X126740Y117877D01*
X126864Y117868D01*
X127000Y117866D01*
Y116866D01*
X126864Y116863D01*
X126627Y116841D01*
X126526Y116822D01*
X126436Y116798D01*
X126358Y116768D01*
X126291Y116733D01*
X126235Y116692D01*
X126191Y116645D01*
X126159Y116594D01*
Y118138D01*
X126191Y118086D01*
D02*
G37*
G36*
X401067Y117175D02*
X400964Y117062D01*
X400872Y116939D01*
X400791Y116807D01*
X400722Y116665D01*
X400663Y116515D01*
X400615Y116354D01*
X400579Y116184D01*
X400553Y116005D01*
X400538Y115816D01*
X400535Y115618D01*
X398803Y117350D01*
X399001Y117353D01*
X399190Y117368D01*
X399369Y117394D01*
X399539Y117430D01*
X399700Y117478D01*
X399850Y117537D01*
X399992Y117606D01*
X400124Y117687D01*
X400247Y117779D01*
X400360Y117882D01*
X401067Y117175D01*
D02*
G37*
G36*
X133737Y117767D02*
X133881Y117644D01*
X134026Y117535D01*
X134172Y117441D01*
X134319Y117361D01*
X134468Y117296D01*
X134617Y117246D01*
X134768Y117209D01*
X134919Y117188D01*
X135072Y117180D01*
Y116180D01*
X134919Y116173D01*
X134768Y116151D01*
X134617Y116115D01*
X134468Y116064D01*
X134319Y115999D01*
X134172Y115919D01*
X134026Y115825D01*
X133881Y115716D01*
X133737Y115593D01*
X133595Y115455D01*
Y117905D01*
X133737Y117767D01*
D02*
G37*
G36*
X406732Y116575D02*
X406629Y116462D01*
X406537Y116339D01*
X406456Y116207D01*
X406386Y116065D01*
X406328Y115914D01*
X406280Y115754D01*
X406244Y115584D01*
X406218Y115405D01*
X406203Y115216D01*
X406200Y115017D01*
X404468Y116750D01*
X404666Y116753D01*
X404855Y116768D01*
X405034Y116793D01*
X405204Y116830D01*
X405364Y116878D01*
X405515Y116937D01*
X405657Y117006D01*
X405789Y117087D01*
X405912Y117179D01*
X406025Y117282D01*
X406732Y116575D01*
D02*
G37*
G36*
X246027Y115070D02*
X245829Y115067D01*
X245640Y115052D01*
X245461Y115027D01*
X245291Y114990D01*
X245130Y114942D01*
X244979Y114884D01*
X244838Y114814D01*
X244706Y114733D01*
X244583Y114641D01*
X244470Y114538D01*
X243763Y115246D01*
X243866Y115359D01*
X243958Y115481D01*
X244038Y115613D01*
X244108Y115755D01*
X244167Y115906D01*
X244214Y116066D01*
X244251Y116236D01*
X244277Y116416D01*
X244291Y116604D01*
X244295Y116803D01*
X246027Y115070D01*
D02*
G37*
G36*
X404432Y113250D02*
X404234Y113247D01*
X404045Y113232D01*
X403866Y113207D01*
X403696Y113170D01*
X403536Y113122D01*
X403385Y113063D01*
X403243Y112994D01*
X403111Y112913D01*
X402988Y112821D01*
X402875Y112718D01*
X402168Y113425D01*
X402271Y113538D01*
X402363Y113661D01*
X402444Y113793D01*
X402513Y113935D01*
X402572Y114086D01*
X402620Y114246D01*
X402657Y114416D01*
X402682Y114595D01*
X402697Y114784D01*
X402700Y114983D01*
X404432Y113250D01*
D02*
G37*
G36*
X441127Y148827D02*
Y113522D01*
X441124Y113515D01*
X441096Y113451D01*
X441057Y113379D01*
X441006Y113300D01*
X440941Y113214D01*
X440862Y113121D01*
X440747Y113003D01*
X440629Y112888D01*
X440536Y112809D01*
X440450Y112744D01*
X440371Y112693D01*
X440299Y112654D01*
X440235Y112626D01*
X440228Y112623D01*
X433173D01*
X422398Y123398D01*
X421250Y123874D01*
X420579D01*
X420093Y125047D01*
X425437Y130391D01*
X425913Y131539D01*
Y149288D01*
X429148Y152523D01*
X429624Y153672D01*
Y158671D01*
X430797Y159157D01*
X441127Y148827D01*
D02*
G37*
G36*
X443257Y113574D02*
X443279Y113422D01*
X443315Y113272D01*
X443366Y113123D01*
X443431Y112974D01*
X443511Y112827D01*
X443605Y112681D01*
X443714Y112536D01*
X443837Y112392D01*
X443975Y112250D01*
X441525D01*
X441663Y112392D01*
X441786Y112536D01*
X441895Y112681D01*
X441989Y112827D01*
X442069Y112974D01*
X442134Y113123D01*
X442185Y113272D01*
X442221Y113422D01*
X442243Y113574D01*
X442250Y113727D01*
X443250D01*
X443257Y113574D01*
D02*
G37*
G36*
X388032Y111825D02*
X387929Y111712D01*
X387837Y111589D01*
X387756Y111457D01*
X387687Y111315D01*
X387628Y111164D01*
X387580Y111004D01*
X387543Y110834D01*
X387518Y110655D01*
X387503Y110466D01*
X387500Y110267D01*
X385768Y112000D01*
X385966Y112003D01*
X386155Y112018D01*
X386334Y112044D01*
X386504Y112080D01*
X386664Y112128D01*
X386815Y112186D01*
X386957Y112256D01*
X387089Y112337D01*
X387212Y112429D01*
X387325Y112532D01*
X388032Y111825D01*
D02*
G37*
G36*
X441500Y109775D02*
X441358Y109913D01*
X441214Y110036D01*
X441069Y110145D01*
X440923Y110239D01*
X440776Y110319D01*
X440628Y110384D01*
X440478Y110435D01*
X440327Y110471D01*
X440176Y110493D01*
X440023Y110500D01*
Y111500D01*
X440176Y111507D01*
X440327Y111529D01*
X440478Y111565D01*
X440628Y111616D01*
X440776Y111681D01*
X440923Y111761D01*
X441069Y111855D01*
X441214Y111964D01*
X441358Y112087D01*
X441500Y112225D01*
Y109775D01*
D02*
G37*
G36*
X50253Y108862D02*
X50510Y108642D01*
X50626Y108558D01*
X50735Y108489D01*
X50836Y108438D01*
X50930Y108403D01*
X51016Y108385D01*
X51095Y108384D01*
X51166Y108399D01*
X50089Y106199D01*
X48728Y107554D01*
X50114Y108997D01*
X50253Y108862D01*
D02*
G37*
G36*
X441288Y107429D02*
X441411Y107337D01*
X441543Y107256D01*
X441685Y107186D01*
X441836Y107128D01*
X441996Y107080D01*
X442166Y107043D01*
X442346Y107018D01*
X442534Y107003D01*
X442733Y107000D01*
X441000Y105267D01*
X440997Y105465D01*
X440982Y105654D01*
X440957Y105834D01*
X440920Y106004D01*
X440872Y106164D01*
X440814Y106315D01*
X440744Y106457D01*
X440663Y106589D01*
X440571Y106711D01*
X440468Y106825D01*
X441175Y107532D01*
X441288Y107429D01*
D02*
G37*
G36*
X264750Y102275D02*
X264608Y102413D01*
X264464Y102536D01*
X264319Y102645D01*
X264173Y102739D01*
X264026Y102819D01*
X263877Y102884D01*
X263728Y102935D01*
X263577Y102971D01*
X263426Y102993D01*
X263273Y103000D01*
Y104000D01*
X263426Y104007D01*
X263577Y104029D01*
X263728Y104065D01*
X263877Y104116D01*
X264026Y104181D01*
X264173Y104261D01*
X264319Y104355D01*
X264464Y104464D01*
X264608Y104587D01*
X264750Y104725D01*
Y102275D01*
D02*
G37*
G36*
X183142Y100087D02*
X183286Y99964D01*
X183431Y99855D01*
X183577Y99761D01*
X183724Y99681D01*
X183873Y99616D01*
X184022Y99565D01*
X184173Y99529D01*
X184324Y99507D01*
X184477Y99500D01*
Y98500D01*
X184324Y98493D01*
X184173Y98471D01*
X184022Y98435D01*
X183873Y98384D01*
X183724Y98319D01*
X183577Y98239D01*
X183431Y98145D01*
X183286Y98036D01*
X183142Y97913D01*
X183000Y97775D01*
Y100225D01*
X183142Y100087D01*
D02*
G37*
G36*
X430602Y107602D02*
X431750Y107126D01*
X438577D01*
X439819Y105885D01*
X439822Y105879D01*
X439847Y105813D01*
X439871Y105735D01*
X439891Y105643D01*
X439906Y105536D01*
X439915Y105414D01*
X439918Y105248D01*
X439971Y105127D01*
X440160Y104177D01*
X440768Y103267D01*
X441677Y102659D01*
X442065Y102582D01*
X442788Y102246D01*
X442986Y101202D01*
X442946Y101000D01*
X443085Y100304D01*
X442202Y99299D01*
X429500D01*
X428525Y99105D01*
X427698Y98552D01*
X423944Y94799D01*
X410223D01*
X409970Y95052D01*
X409143Y95605D01*
X408167Y95799D01*
X401333D01*
X400357Y95605D01*
X399530Y95052D01*
X399277Y94799D01*
X393700D01*
X393174Y96069D01*
X402056Y104951D01*
X410250D01*
X411226Y105145D01*
X412052Y105698D01*
X418000Y111645D01*
X418073Y111660D01*
X418983Y112267D01*
X419590Y113177D01*
X419804Y114250D01*
X419590Y115323D01*
X418983Y116233D01*
X418073Y116840D01*
X417000Y117054D01*
X415927Y116840D01*
X415017Y116233D01*
X414410Y115323D01*
X414395Y115250D01*
X409194Y110049D01*
X403454D01*
X403136Y110774D01*
X403065Y111319D01*
X403815Y112069D01*
X403821Y112072D01*
X403887Y112097D01*
X403965Y112121D01*
X404057Y112140D01*
X404164Y112156D01*
X404285Y112165D01*
X404452Y112168D01*
X404573Y112220D01*
X405523Y112410D01*
X406433Y113017D01*
X407040Y113927D01*
X407229Y114877D01*
X407282Y114998D01*
X407285Y115165D01*
X407294Y115287D01*
X407310Y115393D01*
X407329Y115485D01*
X407353Y115563D01*
X407378Y115629D01*
X407381Y115635D01*
X410373Y118626D01*
X419577D01*
X430602Y107602D01*
D02*
G37*
G36*
X-6997Y95528D02*
X-6982Y95340D01*
X-6956Y95160D01*
X-6920Y94990D01*
X-6872Y94830D01*
X-6813Y94679D01*
X-6744Y94537D01*
X-6663Y94405D01*
X-6571Y94283D01*
X-6468Y94170D01*
X-7175Y93462D01*
X-7288Y93565D01*
X-7411Y93657D01*
X-7543Y93738D01*
X-7685Y93808D01*
X-7836Y93867D01*
X-7996Y93914D01*
X-8166Y93951D01*
X-8345Y93976D01*
X-8534Y93991D01*
X-8733Y93994D01*
X-7000Y95727D01*
X-6997Y95528D01*
D02*
G37*
G36*
X212247Y92636D02*
X212143Y92522D01*
X212052Y92399D01*
X211972Y92266D01*
X211904Y92125D01*
X211848Y91974D01*
X211804Y91815D01*
X211772Y91646D01*
X211752Y91468D01*
X211744Y91281D01*
X211748Y91086D01*
X209950Y92749D01*
X210150Y92760D01*
X210340Y92781D01*
X210521Y92813D01*
X210692Y92854D01*
X210853Y92906D01*
X211004Y92967D01*
X211146Y93039D01*
X211278Y93121D01*
X211399Y93212D01*
X211511Y93315D01*
X212247Y92636D01*
D02*
G37*
G36*
X216782Y92575D02*
X216679Y92462D01*
X216587Y92339D01*
X216506Y92207D01*
X216437Y92065D01*
X216378Y91914D01*
X216330Y91754D01*
X216294Y91584D01*
X216268Y91405D01*
X216254Y91216D01*
X216250Y91018D01*
X214518Y92750D01*
X214716Y92753D01*
X214905Y92768D01*
X215084Y92794D01*
X215254Y92830D01*
X215415Y92878D01*
X215565Y92937D01*
X215707Y93006D01*
X215839Y93087D01*
X215962Y93179D01*
X216075Y93282D01*
X216782Y92575D01*
D02*
G37*
G36*
X-6468Y86825D02*
X-6571Y86712D01*
X-6663Y86589D01*
X-6744Y86457D01*
X-6813Y86315D01*
X-6872Y86164D01*
X-6920Y86004D01*
X-6956Y85834D01*
X-6982Y85655D01*
X-6997Y85466D01*
X-7000Y85267D01*
X-8733Y87000D01*
X-8534Y87003D01*
X-8345Y87018D01*
X-8166Y87044D01*
X-7996Y87080D01*
X-7836Y87128D01*
X-7685Y87186D01*
X-7543Y87256D01*
X-7411Y87337D01*
X-7288Y87429D01*
X-7175Y87532D01*
X-6468Y86825D01*
D02*
G37*
G36*
X405708Y86448D02*
X406535Y85895D01*
X407510Y85701D01*
X426944D01*
X429448Y83198D01*
X430275Y82645D01*
X431250Y82451D01*
X442368D01*
X443232Y81181D01*
X443146Y80750D01*
X443360Y79677D01*
X443967Y78767D01*
X444877Y78160D01*
X445950Y77946D01*
X447023Y78160D01*
X447933Y78767D01*
X447986Y78848D01*
X449514D01*
X449567Y78767D01*
X450477Y78160D01*
X451550Y77946D01*
X451912Y78018D01*
X453182Y77122D01*
Y75084D01*
X449716Y71617D01*
X440798D01*
X440451Y72323D01*
X440313Y72888D01*
X440840Y73677D01*
X441054Y74750D01*
X440840Y75823D01*
X440233Y76733D01*
X439323Y77340D01*
X438250Y77554D01*
X437177Y77340D01*
X436268Y76733D01*
X435733D01*
X434823Y77340D01*
X433750Y77554D01*
X432677Y77340D01*
X431768Y76733D01*
X431160Y75823D01*
X430946Y74750D01*
X431160Y73677D01*
X431440Y73258D01*
X430453Y72448D01*
X421326Y81576D01*
X419341Y82902D01*
X417000Y83368D01*
X398040D01*
X395699Y82902D01*
X393714Y81576D01*
X377424Y65286D01*
X376098Y63301D01*
X375632Y60960D01*
Y51250D01*
X376098Y48909D01*
X377424Y46924D01*
X382882Y41466D01*
Y27534D01*
X381716Y26367D01*
X365750D01*
X363409Y25902D01*
X361424Y24576D01*
X354216Y17368D01*
X337750D01*
X337573Y17332D01*
X335500D01*
X334735Y17015D01*
X331985Y14265D01*
X331668Y13500D01*
Y11668D01*
X331590Y11527D01*
X331140Y11082D01*
X330733Y10817D01*
X330398Y10725D01*
X330000Y10804D01*
X328936Y10592D01*
X328840Y11073D01*
X328233Y11983D01*
X327323Y12590D01*
X326250Y12804D01*
X325177Y12590D01*
X324267Y11983D01*
X323660Y11073D01*
X323446Y10000D01*
X323660Y8927D01*
X324267Y8017D01*
X324827Y7644D01*
X324441Y6374D01*
X310733D01*
X310347Y7644D01*
X310802Y7948D01*
X332306Y29451D01*
X338668D01*
X339532Y28181D01*
X339446Y27750D01*
X339660Y26677D01*
X340267Y25767D01*
X341177Y25160D01*
X342250Y24946D01*
X343323Y25160D01*
X344233Y25767D01*
X344840Y26677D01*
X345054Y27750D01*
X344840Y28823D01*
X344233Y29733D01*
X344762Y30907D01*
X351806Y37951D01*
X360250D01*
X361225Y38145D01*
X362052Y38698D01*
X367552Y44198D01*
X368105Y45024D01*
X368299Y46000D01*
Y58194D01*
X395806Y85701D01*
X401990D01*
X402965Y85895D01*
X403792Y86448D01*
X404045Y86701D01*
X405455D01*
X405708Y86448D01*
D02*
G37*
G36*
X1876Y80034D02*
Y33157D01*
X703Y32671D01*
X-4523Y37898D01*
X-5672Y38374D01*
X-8249D01*
X-11876Y42001D01*
Y48585D01*
X-11420Y48940D01*
X-10606Y49364D01*
X-9747Y49193D01*
X-8674Y49407D01*
X-7765Y50015D01*
X-7157Y50924D01*
X-6943Y51997D01*
X-7157Y53070D01*
X-7215Y53158D01*
X-6300Y54073D01*
X-5680Y53660D01*
X-4607Y53446D01*
X-3534Y53660D01*
X-2625Y54267D01*
X-2017Y55177D01*
X-1804Y56250D01*
X-2017Y57323D01*
X-2625Y58232D01*
X-3534Y58840D01*
X-4607Y59054D01*
X-5680Y58840D01*
X-6590Y58232D01*
X-7198Y57323D01*
X-7411Y56250D01*
X-7198Y55177D01*
X-7139Y55089D01*
X-8055Y54174D01*
X-8674Y54587D01*
X-9747Y54801D01*
X-10606Y54630D01*
X-11420Y55054D01*
X-11876Y55409D01*
Y65919D01*
X-10606Y66598D01*
X-10320Y66407D01*
X-9247Y66193D01*
X-8174Y66407D01*
X-7265Y67014D01*
X-6657Y67924D01*
X-6443Y68997D01*
X-6657Y70070D01*
X-7265Y70980D01*
X-8174Y71588D01*
X-9247Y71801D01*
X-10056Y71640D01*
X-11012Y72166D01*
X-11327Y72429D01*
X-11417Y73209D01*
X-8749Y75876D01*
X-4750D01*
X-3602Y76352D01*
X606Y80560D01*
X1876Y80034D01*
D02*
G37*
G36*
X424424Y61174D02*
X426409Y59848D01*
X428750Y59383D01*
X452250D01*
X454591Y59848D01*
X456576Y61174D01*
X463626Y68224D01*
X464691Y69818D01*
X465961Y69433D01*
Y2039D01*
X371306D01*
X370921Y3309D01*
X371233Y3517D01*
X371840Y4427D01*
X372011Y5284D01*
X372750Y5850D01*
X373231Y6091D01*
X373750Y5876D01*
X387750D01*
X388898Y6352D01*
X400648Y18102D01*
X401124Y19250D01*
Y31077D01*
X404115Y34069D01*
X404121Y34072D01*
X404187Y34097D01*
X404264Y34121D01*
X404357Y34140D01*
X404464Y34156D01*
X404585Y34165D01*
X404752Y34168D01*
X404873Y34221D01*
X405823Y34410D01*
X406733Y35017D01*
X407340Y35927D01*
X407554Y37000D01*
X407340Y38073D01*
X406733Y38983D01*
X405823Y39590D01*
X404750Y39804D01*
X403677Y39590D01*
X402767Y38983D01*
X402160Y38073D01*
X401970Y37123D01*
X401918Y37002D01*
X401915Y36835D01*
X401906Y36713D01*
X401890Y36607D01*
X401870Y36514D01*
X401847Y36437D01*
X401822Y36371D01*
X401819Y36365D01*
X398352Y32898D01*
X397876Y31750D01*
Y19922D01*
X387077Y9124D01*
X374422D01*
X373148Y10398D01*
X372000Y10874D01*
X367000D01*
X366695Y10747D01*
X365975Y11824D01*
X368284Y14132D01*
X384250D01*
X386591Y14598D01*
X388576Y15924D01*
X393326Y20674D01*
X394652Y22659D01*
X395118Y25000D01*
Y44000D01*
X394652Y46341D01*
X393326Y48326D01*
X387868Y53784D01*
Y58426D01*
X400574Y71132D01*
X408413D01*
X408538Y69862D01*
X408427Y69840D01*
X407517Y69233D01*
X406909Y68323D01*
X406696Y67250D01*
X406909Y66177D01*
X407517Y65267D01*
X408427Y64660D01*
X409500Y64446D01*
X410573Y64660D01*
X411483Y65267D01*
X412090Y66177D01*
X412304Y67250D01*
X412090Y68323D01*
X411483Y69233D01*
X410573Y69840D01*
X410462Y69862D01*
X410587Y71132D01*
X414466D01*
X424424Y61174D01*
D02*
G37*
G36*
X163839Y66329D02*
X164209Y66006D01*
X164317Y65927D01*
X164416Y65863D01*
X164507Y65813D01*
X164590Y65778D01*
X164665Y65757D01*
X164732Y65750D01*
X163000Y64018D01*
X162994Y64085D01*
X162972Y64160D01*
X162937Y64243D01*
X162887Y64334D01*
X162823Y64433D01*
X162744Y64541D01*
X162543Y64780D01*
X162285Y65051D01*
X163699Y66465D01*
X163839Y66329D01*
D02*
G37*
G36*
X147431Y78236D02*
X148125Y77772D01*
X148945Y77609D01*
X158058D01*
X177671Y57995D01*
X177046Y56825D01*
X177025Y56829D01*
X175952Y56616D01*
X175042Y56008D01*
X174435Y55098D01*
X174221Y54025D01*
X174435Y52952D01*
X175042Y52042D01*
X175952Y51435D01*
X175660Y50323D01*
X175446Y49250D01*
X175516Y48899D01*
X175325Y48608D01*
X174420Y47921D01*
X173750Y48054D01*
X172677Y47840D01*
X171767Y47233D01*
X171160Y46323D01*
X170988Y45460D01*
X170339Y45096D01*
X169713Y44938D01*
X166868Y47784D01*
Y55000D01*
X166402Y57341D01*
X165076Y59326D01*
X164438Y59963D01*
X164596Y60589D01*
X164960Y61238D01*
X165823Y61410D01*
X166733Y62017D01*
X167340Y62927D01*
X167554Y64000D01*
X167340Y65073D01*
X166733Y65983D01*
X165823Y66590D01*
X165041Y66746D01*
X165032Y66755D01*
X165026Y66763D01*
X165023Y66764D01*
X165014Y66773D01*
X164980Y66788D01*
X164970Y66793D01*
X164931Y66819D01*
X164886Y66852D01*
X164573Y67125D01*
X164456Y67239D01*
X164354Y67280D01*
X156942Y74692D01*
X156280Y75134D01*
X155500Y75289D01*
X141919D01*
X141392Y76559D01*
X144292Y79459D01*
X146208D01*
X147431Y78236D01*
D02*
G37*
G36*
X51163Y51252D02*
X51074Y51250D01*
X50982Y51235D01*
X50886Y51207D01*
X50786Y51166D01*
X50682Y51112D01*
X50574Y51045D01*
X50462Y50964D01*
X50347Y50872D01*
X50104Y50647D01*
X49397Y51354D01*
X49485Y51448D01*
X49561Y51542D01*
X49623Y51633D01*
X49671Y51723D01*
X49706Y51811D01*
X49728Y51898D01*
X49736Y51983D01*
X49731Y52066D01*
X49712Y52148D01*
X49679Y52228D01*
X51163Y51252D01*
D02*
G37*
G36*
X47788Y52148D02*
X47770Y52066D01*
X47764Y51983D01*
X47772Y51898D01*
X47794Y51811D01*
X47829Y51723D01*
X47877Y51633D01*
X47939Y51542D01*
X48015Y51448D01*
X48104Y51354D01*
X47396Y50647D01*
X47273Y50766D01*
X47038Y50964D01*
X46926Y51045D01*
X46818Y51112D01*
X46714Y51166D01*
X46614Y51207D01*
X46518Y51235D01*
X46426Y51250D01*
X46337Y51252D01*
X47821Y52228D01*
X47788Y52148D01*
D02*
G37*
G36*
X81000Y56250D02*
Y35750D01*
X70750D01*
Y52500D01*
X76750Y58500D01*
X78750D01*
X81000Y56250D01*
D02*
G37*
G36*
X404733Y35250D02*
X404534Y35247D01*
X404345Y35232D01*
X404166Y35206D01*
X403996Y35170D01*
X403836Y35122D01*
X403685Y35064D01*
X403543Y34994D01*
X403411Y34913D01*
X403288Y34821D01*
X403175Y34718D01*
X402468Y35425D01*
X402571Y35538D01*
X402663Y35661D01*
X402744Y35793D01*
X402813Y35935D01*
X402872Y36086D01*
X402920Y36246D01*
X402957Y36416D01*
X402982Y36595D01*
X402997Y36784D01*
X403000Y36983D01*
X404733Y35250D01*
D02*
G37*
G36*
X244413Y60459D02*
X232852Y48898D01*
X232376Y47750D01*
Y45753D01*
X219497Y32874D01*
X210022D01*
X210016Y32876D01*
X209951Y32904D01*
X209879Y32943D01*
X209800Y32994D01*
X209714Y33059D01*
X209621Y33138D01*
X209502Y33254D01*
X209379Y33302D01*
X208573Y33840D01*
X207500Y34054D01*
X206427Y33840D01*
X205517Y33233D01*
X204483Y32733D01*
X203573Y33340D01*
X202500Y33554D01*
X201427Y33340D01*
X200517Y32733D01*
X199910Y31823D01*
X199696Y30750D01*
X199910Y29677D01*
X200517Y28767D01*
X201427Y28160D01*
X201530Y28139D01*
X201845Y26782D01*
X201690Y26527D01*
X200955Y25868D01*
X187993D01*
X187314Y27137D01*
X187340Y27177D01*
X187554Y28250D01*
X187340Y29323D01*
X187166Y29583D01*
X187312Y30813D01*
X187578Y31080D01*
X188233Y31517D01*
X188840Y32427D01*
X189054Y33500D01*
X188932Y34112D01*
X189231Y34780D01*
X189536Y35209D01*
X189789Y35440D01*
X191841Y35848D01*
X193826Y37174D01*
X196034Y39383D01*
X211040D01*
X213381Y39848D01*
X215366Y41174D01*
X235824Y61633D01*
X243927D01*
X244413Y60459D01*
D02*
G37*
G36*
X208892Y32337D02*
X209036Y32214D01*
X209181Y32105D01*
X209327Y32011D01*
X209474Y31931D01*
X209623Y31866D01*
X209772Y31815D01*
X209923Y31779D01*
X210074Y31757D01*
X210227Y31750D01*
Y30750D01*
X210074Y30743D01*
X209923Y30721D01*
X209772Y30685D01*
X209623Y30634D01*
X209474Y30569D01*
X209327Y30489D01*
X209181Y30395D01*
X209036Y30286D01*
X208892Y30163D01*
X208750Y30025D01*
Y32475D01*
X208892Y32337D01*
D02*
G37*
G36*
X22500Y38000D02*
Y30000D01*
X17000D01*
X14250Y32750D01*
Y36750D01*
X17500Y40000D01*
X20500D01*
X22500Y38000D01*
D02*
G37*
G36*
X130558Y49194D02*
X130440Y47932D01*
X129767Y47483D01*
X129160Y46573D01*
X128946Y45500D01*
X129160Y44427D01*
X129767Y43517D01*
X130234Y43206D01*
X130242Y43185D01*
Y41815D01*
X130234Y41795D01*
X129767Y41483D01*
X129160Y40573D01*
X128946Y39500D01*
X129160Y38427D01*
X129309Y38204D01*
X129667Y37250D01*
X129309Y36296D01*
X129160Y36073D01*
X128946Y35000D01*
X129160Y33927D01*
X129767Y33017D01*
X130677Y32410D01*
X131750Y32196D01*
X131895Y32225D01*
X132975Y31145D01*
X132946Y31000D01*
X132975Y30855D01*
X131895Y29775D01*
X131750Y29804D01*
X130677Y29590D01*
X129767Y28983D01*
X129160Y28073D01*
X128946Y27000D01*
X129160Y25927D01*
X129309Y25704D01*
X129667Y24750D01*
X129309Y23796D01*
X129160Y23573D01*
X128946Y22500D01*
X129160Y21427D01*
X129767Y20517D01*
X130234Y20206D01*
X130242Y20185D01*
Y18815D01*
X130234Y18794D01*
X129767Y18483D01*
X129546Y18152D01*
X128024Y17878D01*
X115826Y30076D01*
X113841Y31402D01*
X111500Y31868D01*
X95961D01*
X95182Y33138D01*
X95304Y33750D01*
X95132Y34612D01*
X95526Y35386D01*
X95910Y35882D01*
X113000D01*
X115341Y36348D01*
X117326Y37674D01*
X127326Y47674D01*
X128543Y49496D01*
X129865Y49741D01*
X130558Y49194D01*
D02*
G37*
G36*
X24250Y25775D02*
X24108Y25913D01*
X23964Y26036D01*
X23819Y26145D01*
X23673Y26239D01*
X23526Y26319D01*
X23377Y26384D01*
X23228Y26435D01*
X23077Y26471D01*
X22926Y26493D01*
X22773Y26500D01*
Y27500D01*
X22926Y27507D01*
X23077Y27529D01*
X23228Y27565D01*
X23377Y27616D01*
X23526Y27681D01*
X23673Y27761D01*
X23819Y27855D01*
X23964Y27964D01*
X24108Y28087D01*
X24250Y28225D01*
Y25775D01*
D02*
G37*
G36*
X44268Y51017D02*
X45177Y50410D01*
X46056Y50235D01*
X46119Y50192D01*
X46126Y50186D01*
Y37923D01*
X29077Y20874D01*
X12501D01*
X10421Y22953D01*
X10907Y24126D01*
X18000D01*
X19148Y24602D01*
X19923Y25377D01*
X22978D01*
X22984Y25374D01*
X23049Y25346D01*
X23121Y25307D01*
X23200Y25256D01*
X23286Y25191D01*
X23379Y25112D01*
X23498Y24996D01*
X23621Y24948D01*
X24427Y24410D01*
X25500Y24196D01*
X26573Y24410D01*
X27483Y25017D01*
X28090Y25927D01*
X28304Y27000D01*
X28108Y27986D01*
X28104Y28121D01*
X28445Y29348D01*
X30430Y30674D01*
X41076Y41320D01*
X42402Y43305D01*
X42867Y45646D01*
Y50827D01*
X44138Y51212D01*
X44268Y51017D01*
D02*
G37*
G36*
X172424Y15424D02*
X174409Y14098D01*
X176750Y13633D01*
X176961D01*
X177794Y12362D01*
X177696Y11868D01*
X177910Y10795D01*
X178517Y9885D01*
X178891Y9635D01*
X179128Y8406D01*
X178178Y7520D01*
X178073Y7590D01*
X177000Y7804D01*
X175927Y7590D01*
X175017Y6983D01*
X174410Y6073D01*
X174196Y5000D01*
X174410Y3927D01*
X174823Y3309D01*
X174463Y2302D01*
X174260Y2039D01*
X159325D01*
X158466Y3309D01*
X158554Y3750D01*
X158340Y4823D01*
X157733Y5733D01*
X157402Y5954D01*
X157128Y7476D01*
X166784Y17133D01*
X170716D01*
X172424Y15424D01*
D02*
G37*
G36*
X346000Y6250D02*
X333500D01*
X332750Y7000D01*
Y13500D01*
X335500Y16250D01*
X346000D01*
Y6250D01*
D02*
G37*
G36*
X210252Y5791D02*
X210286Y5301D01*
X210306Y5169D01*
X210331Y5053D01*
X210360Y4954D01*
X210394Y4870D01*
X210432Y4802D01*
X210475Y4750D01*
X208025D01*
X208068Y4802D01*
X208106Y4870D01*
X208140Y4954D01*
X208169Y5053D01*
X208194Y5169D01*
X208214Y5301D01*
X208241Y5612D01*
X208250Y5986D01*
X210250D01*
X210252Y5791D01*
D02*
G37*
G36*
X74788Y6179D02*
X74911Y6087D01*
X75043Y6006D01*
X75185Y5936D01*
X75336Y5878D01*
X75496Y5830D01*
X75666Y5793D01*
X75845Y5768D01*
X76034Y5753D01*
X76233Y5750D01*
X74500Y4017D01*
X74497Y4216D01*
X74482Y4405D01*
X74457Y4584D01*
X74420Y4754D01*
X74372Y4914D01*
X74314Y5065D01*
X74244Y5207D01*
X74163Y5339D01*
X74071Y5462D01*
X73968Y5575D01*
X74675Y6282D01*
X74788Y6179D01*
D02*
G37*
G36*
X69788D02*
X69911Y6087D01*
X70043Y6006D01*
X70185Y5936D01*
X70336Y5878D01*
X70496Y5830D01*
X70666Y5793D01*
X70845Y5768D01*
X71034Y5753D01*
X71233Y5750D01*
X69500Y4017D01*
X69497Y4216D01*
X69482Y4405D01*
X69457Y4584D01*
X69420Y4754D01*
X69372Y4914D01*
X69314Y5065D01*
X69244Y5207D01*
X69163Y5339D01*
X69071Y5462D01*
X68968Y5575D01*
X69675Y6282D01*
X69788Y6179D01*
D02*
G37*
G36*
X64289D02*
X64411Y6087D01*
X64543Y6006D01*
X64685Y5936D01*
X64836Y5878D01*
X64996Y5830D01*
X65166Y5793D01*
X65345Y5768D01*
X65534Y5753D01*
X65733Y5750D01*
X64000Y4017D01*
X63997Y4216D01*
X63982Y4405D01*
X63957Y4584D01*
X63920Y4754D01*
X63872Y4914D01*
X63814Y5065D01*
X63744Y5207D01*
X63663Y5339D01*
X63571Y5462D01*
X63468Y5575D01*
X64175Y6282D01*
X64289Y6179D01*
D02*
G37*
G36*
X56250Y53046D02*
X68164D01*
X68551Y53123D01*
X68827Y52969D01*
X69668Y52051D01*
Y50177D01*
X69632Y50000D01*
Y35290D01*
X70098Y32949D01*
X71424Y30964D01*
X77610Y24778D01*
X77156Y23436D01*
X76677Y23340D01*
X75767Y22733D01*
X75160Y21823D01*
X74946Y20750D01*
X75160Y19677D01*
X75282Y19494D01*
X74517Y18983D01*
X73910Y18073D01*
X73696Y17000D01*
X73910Y15927D01*
X74517Y15017D01*
X75052Y14660D01*
X74660Y14073D01*
X74446Y13000D01*
X74660Y11927D01*
X75267Y11017D01*
X76177Y10409D01*
X77250Y10196D01*
X78323Y10409D01*
X79233Y11017D01*
X79840Y11927D01*
X80054Y13000D01*
X79840Y14073D01*
X79233Y14983D01*
X78698Y15340D01*
X79090Y15927D01*
X79304Y17000D01*
X79090Y18073D01*
X78968Y18256D01*
X79733Y18767D01*
X80340Y19677D01*
X80452Y20239D01*
X81608Y20863D01*
X81776Y20882D01*
X82949Y20098D01*
X85290Y19633D01*
X106826D01*
X107212Y18362D01*
X107017Y18233D01*
X106410Y17323D01*
X106196Y16250D01*
X106410Y15177D01*
X107017Y14267D01*
X107927Y13659D01*
X109000Y13446D01*
X110073Y13659D01*
X110983Y14267D01*
X111590Y15177D01*
X111596Y15206D01*
X112974Y15624D01*
X125289Y3309D01*
X125117Y2163D01*
X125080Y2039D01*
X95732D01*
X95044Y3061D01*
X94992Y3309D01*
X95179Y4250D01*
X94965Y5323D01*
X94358Y6233D01*
X93448Y6841D01*
X92375Y7054D01*
X91302Y6841D01*
X90392Y6233D01*
X90358D01*
X89448Y6841D01*
X88375Y7054D01*
X87302Y6841D01*
X86392Y6233D01*
X86358D01*
X85448Y6841D01*
X84375Y7054D01*
X83302Y6841D01*
X82392Y6233D01*
X81785Y5323D01*
X81571Y4250D01*
X81758Y3309D01*
X81706Y3061D01*
X81018Y2039D01*
X79658D01*
X78917Y3309D01*
X79054Y4000D01*
X78840Y5073D01*
X78233Y5983D01*
X77323Y6590D01*
X76373Y6779D01*
X76252Y6832D01*
X76085Y6835D01*
X75964Y6844D01*
X75857Y6860D01*
X75765Y6880D01*
X75687Y6903D01*
X75621Y6928D01*
X75615Y6931D01*
X70648Y11898D01*
X69500Y12374D01*
X35093D01*
X33945Y11898D01*
X31413Y9366D01*
X30586Y9432D01*
X29554Y10250D01*
X29340Y11323D01*
X28733Y12233D01*
X27823Y12840D01*
X26861Y13032D01*
X27054Y14000D01*
X26983Y14356D01*
X27882Y15626D01*
X30578D01*
X31727Y16102D01*
X50898Y35274D01*
X51374Y36422D01*
Y50186D01*
X51381Y50192D01*
X51444Y50235D01*
X52323Y50410D01*
X53233Y51017D01*
X53840Y51927D01*
X54054Y53000D01*
X54457Y53403D01*
X56250Y53046D01*
D02*
G37*
G36*
X244289Y3309D02*
X243763Y2039D01*
X218242Y2039D01*
X217266Y3309D01*
X217304Y3500D01*
X217090Y4573D01*
X216483Y5483D01*
X215573Y6090D01*
X214500Y6304D01*
X213427Y6090D01*
X212626Y5555D01*
X211670Y5755D01*
X211332Y5995D01*
X211332Y5999D01*
X211289Y6100D01*
Y8500D01*
X211134Y9280D01*
X210692Y9942D01*
X208425Y12209D01*
X208721Y12923D01*
X209040Y13390D01*
X211341Y13848D01*
X213326Y15174D01*
X216784Y18632D01*
X228966D01*
X244289Y3309D01*
D02*
G37*
G36*
X273626Y52077D02*
Y46250D01*
X274102Y45102D01*
X277126Y42077D01*
Y15000D01*
X277602Y13852D01*
X287852Y3602D01*
X288559Y3309D01*
X288306Y2039D01*
X266113D01*
X265583Y3309D01*
X266652Y4909D01*
X267118Y7250D01*
X266652Y9591D01*
X265326Y11576D01*
X263955Y12492D01*
X264223Y13840D01*
X264573Y13910D01*
X265483Y14517D01*
X266090Y15427D01*
X266304Y16500D01*
X266090Y17573D01*
X265483Y18483D01*
X265016Y18794D01*
X265008Y18815D01*
Y20185D01*
X265016Y20206D01*
X265483Y20517D01*
X266090Y21427D01*
X266304Y22500D01*
X266090Y23573D01*
X265483Y24483D01*
Y25017D01*
X266090Y25927D01*
X266304Y27000D01*
X266090Y28073D01*
X265483Y28983D01*
X264573Y29590D01*
X263500Y29804D01*
X262968Y30928D01*
Y31072D01*
X263500Y32196D01*
X264573Y32410D01*
X265483Y33017D01*
X266090Y33927D01*
X266304Y35000D01*
X266090Y36073D01*
X265483Y36983D01*
Y37517D01*
X266090Y38427D01*
X266304Y39500D01*
X266090Y40573D01*
X265483Y41483D01*
X265016Y41794D01*
X265008Y41815D01*
Y43185D01*
X265016Y43206D01*
X265483Y43517D01*
X266090Y44427D01*
X266304Y45500D01*
X266090Y46573D01*
X265483Y47483D01*
X265095Y47741D01*
X264997Y49183D01*
X265008Y49211D01*
X266076Y49924D01*
X267402Y51909D01*
X267868Y54250D01*
X267423Y56485D01*
X267480Y56558D01*
X268854Y56850D01*
X273626Y52077D01*
D02*
G37*
%LPC*%
G36*
X142500Y293054D02*
X141427Y292840D01*
X140517Y292233D01*
X139910Y291323D01*
X139696Y290250D01*
X139910Y289177D01*
X140517Y288267D01*
X141427Y287660D01*
X142500Y287446D01*
X143573Y287660D01*
X144483Y288267D01*
X144611Y288460D01*
X146139D01*
X146267Y288267D01*
X147177Y287659D01*
X148250Y287446D01*
X149323Y287659D01*
X150232Y288267D01*
X150840Y289177D01*
X151054Y290250D01*
X150840Y291323D01*
X150232Y292232D01*
X149323Y292840D01*
X148250Y293054D01*
X147177Y292840D01*
X146267Y292232D01*
X146139Y292040D01*
X144611D01*
X144483Y292233D01*
X143573Y292840D01*
X142500Y293054D01*
D02*
G37*
G36*
X245500Y292304D02*
X244427Y292090D01*
X243517Y291483D01*
X242910Y290573D01*
X242696Y289500D01*
X242910Y288427D01*
X243517Y287517D01*
X244427Y286910D01*
X245500Y286696D01*
X246573Y286910D01*
X247483Y287517D01*
X248090Y288427D01*
X248304Y289500D01*
X248090Y290573D01*
X247483Y291483D01*
X246573Y292090D01*
X245500Y292304D01*
D02*
G37*
G36*
X238750Y289554D02*
X237677Y289340D01*
X236767Y288733D01*
X236159Y287823D01*
X235946Y286750D01*
X236159Y285677D01*
X236767Y284767D01*
X237677Y284160D01*
X238750Y283946D01*
X239823Y284160D01*
X240733Y284767D01*
X241340Y285677D01*
X241554Y286750D01*
X241340Y287823D01*
X240733Y288733D01*
X239823Y289340D01*
X238750Y289554D01*
D02*
G37*
G36*
X146000Y284054D02*
X144927Y283840D01*
X144017Y283233D01*
X143410Y282323D01*
X143196Y281250D01*
X143410Y280177D01*
X144017Y279267D01*
X144927Y278660D01*
X146000Y278446D01*
X147073Y278660D01*
X147983Y279267D01*
X148590Y280177D01*
X148804Y281250D01*
X148590Y282323D01*
X147983Y283233D01*
X147073Y283840D01*
X146000Y284054D01*
D02*
G37*
G36*
X172500Y279304D02*
X171427Y279090D01*
X170517Y278483D01*
X169910Y277573D01*
X169696Y276500D01*
X169910Y275427D01*
X170517Y274517D01*
X171427Y273910D01*
X172500Y273696D01*
X173573Y273910D01*
X174483Y274517D01*
X175090Y275427D01*
X175304Y276500D01*
X175090Y277573D01*
X174483Y278483D01*
X173573Y279090D01*
X172500Y279304D01*
D02*
G37*
G36*
X173500Y267054D02*
X172427Y266840D01*
X171517Y266232D01*
X170910Y265323D01*
X170696Y264250D01*
X170910Y263177D01*
X171517Y262267D01*
X172427Y261659D01*
X173500Y261446D01*
X174573Y261659D01*
X175483Y262267D01*
X176090Y263177D01*
X176304Y264250D01*
X176090Y265323D01*
X175483Y266232D01*
X174573Y266840D01*
X173500Y267054D01*
D02*
G37*
G36*
X413750Y234804D02*
X412677Y234590D01*
X411768Y233983D01*
X411160Y233073D01*
X410946Y232000D01*
X411160Y230927D01*
X411768Y230017D01*
X412677Y229410D01*
X413750Y229196D01*
X414823Y229410D01*
X415733Y230017D01*
X416341Y230927D01*
X416554Y232000D01*
X416341Y233073D01*
X415733Y233983D01*
X414823Y234590D01*
X413750Y234804D01*
D02*
G37*
G36*
X444000Y224804D02*
X442927Y224590D01*
X442017Y223983D01*
X441410Y223073D01*
X441196Y222000D01*
X441410Y220927D01*
X442017Y220017D01*
X442927Y219410D01*
X444000Y219196D01*
X445073Y219410D01*
X445983Y220017D01*
X446590Y220927D01*
X446804Y222000D01*
X446590Y223073D01*
X445983Y223983D01*
X445073Y224590D01*
X444000Y224804D01*
D02*
G37*
G36*
X381750Y242304D02*
X380677Y242090D01*
X379767Y241483D01*
X379160Y240573D01*
X378946Y239500D01*
X379160Y238427D01*
X379767Y237517D01*
X380677Y236910D01*
X381750Y236696D01*
X382823Y236910D01*
X383733Y237517D01*
X384340Y238427D01*
X384554Y239500D01*
X384340Y240573D01*
X383733Y241483D01*
X382823Y242090D01*
X381750Y242304D01*
D02*
G37*
G36*
X428250Y211054D02*
X427177Y210840D01*
X426267Y210233D01*
X425660Y209323D01*
X425446Y208250D01*
X425660Y207177D01*
X426267Y206267D01*
X427177Y205660D01*
X428250Y205446D01*
X429323Y205660D01*
X430233Y206267D01*
X430840Y207177D01*
X431054Y208250D01*
X430840Y209323D01*
X430233Y210233D01*
X429323Y210840D01*
X428250Y211054D01*
D02*
G37*
G36*
X345945Y139604D02*
X344872Y139391D01*
X343963Y138783D01*
X343355Y137873D01*
X343141Y136800D01*
X343355Y135727D01*
X343963Y134818D01*
X344872Y134210D01*
X345945Y133996D01*
X347018Y134210D01*
X347928Y134818D01*
X348536Y135727D01*
X348749Y136800D01*
X348536Y137873D01*
X347928Y138783D01*
X347018Y139391D01*
X345945Y139604D01*
D02*
G37*
G36*
X414750Y137054D02*
X413677Y136840D01*
X412767Y136233D01*
X412160Y135323D01*
X411946Y134250D01*
X412160Y133177D01*
X412767Y132267D01*
X413677Y131660D01*
X414750Y131446D01*
X415823Y131660D01*
X416733Y132267D01*
X417340Y133177D01*
X417554Y134250D01*
X417340Y135323D01*
X416733Y136233D01*
X415823Y136840D01*
X414750Y137054D01*
D02*
G37*
G36*
X353000Y72054D02*
X351927Y71840D01*
X351017Y71233D01*
X350233D01*
X349323Y71840D01*
X348250Y72054D01*
X347177Y71840D01*
X346267Y71233D01*
X345660Y70323D01*
X345446Y69250D01*
X345660Y68177D01*
X346267Y67267D01*
X347177Y66660D01*
X348250Y66446D01*
X349323Y66660D01*
X350233Y67267D01*
X351017D01*
X351927Y66660D01*
X353000Y66446D01*
X354073Y66660D01*
X354983Y67267D01*
X355590Y68177D01*
X355804Y69250D01*
X355590Y70323D01*
X354983Y71233D01*
X354073Y71840D01*
X353000Y72054D01*
D02*
G37*
G36*
X310500Y61054D02*
X309427Y60840D01*
X308517Y60233D01*
X307910Y59323D01*
X307696Y58250D01*
X307910Y57177D01*
X308517Y56267D01*
X309427Y55660D01*
X310500Y55446D01*
X311573Y55660D01*
X312483Y56267D01*
X313090Y57177D01*
X313304Y58250D01*
X313090Y59323D01*
X312483Y60233D01*
X311573Y60840D01*
X310500Y61054D01*
D02*
G37*
G36*
X302500D02*
X301427Y60840D01*
X300517Y60233D01*
X299910Y59323D01*
X299696Y58250D01*
X299910Y57177D01*
X300517Y56267D01*
X301427Y55660D01*
X302500Y55446D01*
X303573Y55660D01*
X304483Y56267D01*
X305090Y57177D01*
X305304Y58250D01*
X305090Y59323D01*
X304483Y60233D01*
X303573Y60840D01*
X302500Y61054D01*
D02*
G37*
G36*
X329750Y53554D02*
X328677Y53341D01*
X327767Y52733D01*
X327160Y51823D01*
X326946Y50750D01*
X327160Y49677D01*
X327767Y48767D01*
X328677Y48160D01*
X329750Y47946D01*
X330823Y48160D01*
X331733Y48767D01*
X332340Y49677D01*
X332554Y50750D01*
X332340Y51823D01*
X331733Y52733D01*
X330823Y53341D01*
X329750Y53554D01*
D02*
G37*
G36*
X49329Y227112D02*
X48256Y226899D01*
X47347Y226291D01*
X46739Y225381D01*
X46526Y224308D01*
X46739Y223235D01*
X47347Y222326D01*
X48256Y221718D01*
X49329Y221505D01*
X50402Y221718D01*
X51312Y222326D01*
X51920Y223235D01*
X52133Y224308D01*
X51920Y225381D01*
X51312Y226291D01*
X50402Y226899D01*
X49329Y227112D01*
D02*
G37*
G36*
X236500Y259304D02*
X235427Y259090D01*
X234517Y258482D01*
X233909Y257573D01*
X233696Y256500D01*
X233909Y255427D01*
X234517Y254517D01*
X235427Y253909D01*
X236500Y253696D01*
X237573Y253909D01*
X238275Y254379D01*
X239162Y254203D01*
X239650Y253978D01*
X239660Y253927D01*
X240267Y253017D01*
X241177Y252410D01*
X242250Y252196D01*
X243323Y252410D01*
X244233Y253017D01*
X244841Y253927D01*
X245054Y255000D01*
X244841Y256073D01*
X244233Y256983D01*
X243323Y257590D01*
X242250Y257804D01*
X241177Y257590D01*
X240475Y257121D01*
X239587Y257297D01*
X239100Y257522D01*
X239090Y257573D01*
X238483Y258482D01*
X237573Y259090D01*
X236500Y259304D01*
D02*
G37*
G36*
X247250Y250804D02*
X246177Y250590D01*
X245267Y249983D01*
X244660Y249073D01*
X244446Y248000D01*
X244660Y246927D01*
X245267Y246017D01*
X246177Y245410D01*
X247250Y245196D01*
X248323Y245410D01*
X249233Y246017D01*
X249840Y246927D01*
X250054Y248000D01*
X249840Y249073D01*
X249233Y249983D01*
X248323Y250590D01*
X247250Y250804D01*
D02*
G37*
G36*
X151750Y240054D02*
X150677Y239840D01*
X149767Y239233D01*
X149160Y238323D01*
X148946Y237250D01*
X149160Y236177D01*
X149767Y235267D01*
X150677Y234660D01*
X151750Y234446D01*
X152823Y234660D01*
X153733Y235267D01*
X154340Y236177D01*
X154554Y237250D01*
X154340Y238323D01*
X153733Y239233D01*
X152823Y239840D01*
X151750Y240054D01*
D02*
G37*
G36*
X131250Y237804D02*
X130177Y237590D01*
X129268Y236983D01*
X128660Y236073D01*
X128446Y235000D01*
X128660Y233927D01*
X129268Y233017D01*
X130177Y232410D01*
X131250Y232196D01*
X132323Y232410D01*
X133233Y233017D01*
X133841Y233927D01*
X134054Y235000D01*
X133841Y236073D01*
X133233Y236983D01*
X132323Y237590D01*
X131250Y237804D01*
D02*
G37*
G36*
X178000Y217554D02*
X176927Y217340D01*
X176017Y216732D01*
X175410Y215823D01*
X175196Y214750D01*
X175410Y213677D01*
X176017Y212767D01*
X176927Y212159D01*
X178000Y211946D01*
X179073Y212159D01*
X179983Y212767D01*
X180590Y213677D01*
X180804Y214750D01*
X180590Y215823D01*
X179983Y216732D01*
X179073Y217340D01*
X178000Y217554D01*
D02*
G37*
G36*
X0Y210852D02*
X-1073Y210638D01*
X-1983Y210030D01*
X-2590Y209121D01*
X-2804Y208048D01*
X-2590Y206975D01*
X-1983Y206065D01*
X-1073Y205457D01*
X0Y205244D01*
X1073Y205457D01*
X1983Y206065D01*
X2590Y206975D01*
X2804Y208048D01*
X2590Y209121D01*
X1983Y210030D01*
X1073Y210638D01*
X0Y210852D01*
D02*
G37*
G36*
X230312Y216054D02*
X229240Y215840D01*
X228330Y215233D01*
X227722Y214323D01*
X227509Y213250D01*
X227722Y212177D01*
X228330Y211267D01*
X229240Y210660D01*
X230312Y210446D01*
X231385Y210660D01*
X232295Y211267D01*
X232903Y212177D01*
X233116Y213250D01*
X232903Y214323D01*
X232295Y215233D01*
X231385Y215840D01*
X230312Y216054D01*
D02*
G37*
G36*
X237250Y211804D02*
X236177Y211590D01*
X235267Y210983D01*
X234660Y210073D01*
X234446Y209000D01*
X234660Y207927D01*
X235267Y207017D01*
X236177Y206410D01*
X237250Y206196D01*
X238323Y206410D01*
X239233Y207017D01*
X239840Y207927D01*
X240054Y209000D01*
X239840Y210073D01*
X239233Y210983D01*
X238323Y211590D01*
X237250Y211804D01*
D02*
G37*
G36*
X246000Y211054D02*
X244927Y210840D01*
X244017Y210233D01*
X243410Y209323D01*
X243196Y208250D01*
X243410Y207177D01*
X244017Y206267D01*
X244927Y205660D01*
X246000Y205446D01*
X247073Y205660D01*
X247983Y206267D01*
X248590Y207177D01*
X248804Y208250D01*
X248590Y209323D01*
X247983Y210233D01*
X247073Y210840D01*
X246000Y211054D01*
D02*
G37*
G36*
X218750Y207941D02*
X217677Y207727D01*
X216768Y207119D01*
X216160Y206210D01*
X215946Y205137D01*
X216160Y204064D01*
X216768Y203154D01*
X217677Y202546D01*
X218750Y202333D01*
X219823Y202546D01*
X220733Y203154D01*
X221341Y204064D01*
X221554Y205137D01*
X221341Y206210D01*
X220733Y207119D01*
X219823Y207727D01*
X218750Y207941D01*
D02*
G37*
G36*
X216500Y171804D02*
X215427Y171590D01*
X214517Y170983D01*
X213910Y170073D01*
X213696Y169000D01*
X213910Y167927D01*
X214517Y167017D01*
X215427Y166410D01*
X216500Y166196D01*
X217573Y166410D01*
X218483Y167017D01*
X219090Y167927D01*
X219304Y169000D01*
X219090Y170073D01*
X218483Y170983D01*
X217573Y171590D01*
X216500Y171804D01*
D02*
G37*
G36*
X86000Y89804D02*
X84927Y89590D01*
X84017Y88983D01*
X83410Y88073D01*
X83303Y87538D01*
X83000Y86304D01*
X81927Y86090D01*
X81017Y85483D01*
X80410Y84573D01*
X80196Y83500D01*
X80410Y82427D01*
X81017Y81517D01*
X81927Y80910D01*
X83000Y80696D01*
X84073Y80910D01*
X84983Y81517D01*
X85590Y82427D01*
X85697Y82962D01*
X86000Y84196D01*
X87073Y84410D01*
X87983Y85017D01*
X88590Y85927D01*
X88804Y87000D01*
X88590Y88073D01*
X87983Y88983D01*
X87073Y89590D01*
X86000Y89804D01*
D02*
G37*
G36*
X33370Y139049D02*
X32297Y138835D01*
X31387Y138227D01*
X30780Y137318D01*
X30591Y136368D01*
X30538Y136246D01*
X30535Y136080D01*
X30526Y135958D01*
X30510Y135851D01*
X30491Y135759D01*
X30467Y135681D01*
X30442Y135616D01*
X30439Y135610D01*
X27953Y133124D01*
X23250D01*
X22102Y132648D01*
X13885Y124431D01*
X13879Y124428D01*
X13813Y124403D01*
X13736Y124380D01*
X13643Y124360D01*
X13536Y124345D01*
X13415Y124335D01*
X13248Y124332D01*
X13127Y124279D01*
X12177Y124090D01*
X11267Y123483D01*
X10660Y122573D01*
X10446Y121500D01*
X10660Y120427D01*
X11267Y119517D01*
X12177Y118910D01*
X13250Y118696D01*
X14323Y118910D01*
X15233Y119517D01*
X15840Y120427D01*
X16029Y121377D01*
X16082Y121498D01*
X16085Y121665D01*
X16094Y121787D01*
X16110Y121893D01*
X16129Y121986D01*
X16153Y122064D01*
X16178Y122129D01*
X16181Y122135D01*
X23923Y129876D01*
X28625D01*
X29773Y130352D01*
X32735Y133314D01*
X32741Y133316D01*
X32807Y133342D01*
X32885Y133365D01*
X32977Y133385D01*
X33084Y133400D01*
X33205Y133410D01*
X33372Y133413D01*
X33493Y133465D01*
X34443Y133654D01*
X35353Y134262D01*
X35960Y135172D01*
X36174Y136245D01*
X35960Y137318D01*
X35353Y138227D01*
X34443Y138835D01*
X33370Y139049D01*
D02*
G37*
G36*
X38163Y109391D02*
X37090Y109178D01*
X36180Y108570D01*
X35572Y107660D01*
X35359Y106587D01*
X35572Y105514D01*
X36180Y104605D01*
X37090Y103997D01*
X38163Y103784D01*
X39236Y103997D01*
X39587Y104232D01*
X40767Y104517D01*
X41677Y103910D01*
X42750Y103696D01*
X43823Y103910D01*
X44733Y104517D01*
X45340Y105427D01*
X45554Y106500D01*
X45340Y107573D01*
X44733Y108483D01*
X43823Y109090D01*
X42750Y109304D01*
X41677Y109090D01*
X41434Y108928D01*
X40381Y108636D01*
X39560Y108961D01*
X39236Y109178D01*
X38163Y109391D01*
D02*
G37*
G36*
X53000Y102054D02*
X51927Y101840D01*
X51704Y101691D01*
X50750Y101333D01*
X49796Y101691D01*
X49573Y101840D01*
X48500Y102054D01*
X47427Y101840D01*
X46517Y101233D01*
X45910Y100323D01*
X45696Y99250D01*
X45910Y98177D01*
X46517Y97267D01*
X46127Y96149D01*
X45910Y95823D01*
X45696Y94750D01*
X45910Y93677D01*
X46517Y92767D01*
X47427Y92160D01*
X48500Y91946D01*
X49573Y92160D01*
X50483Y92767D01*
X51090Y93677D01*
X51304Y94750D01*
X51121Y95671D01*
X51551Y96199D01*
X52079Y96629D01*
X53000Y96446D01*
X54073Y96659D01*
X54983Y97267D01*
X55590Y98177D01*
X55804Y99250D01*
X55590Y100323D01*
X54983Y101233D01*
X54073Y101840D01*
X53000Y102054D01*
D02*
G37*
G36*
X18250Y90054D02*
X17177Y89840D01*
X16267Y89233D01*
X15660Y88323D01*
X15446Y87250D01*
X15660Y86177D01*
X16267Y85267D01*
X17177Y84660D01*
X18250Y84446D01*
X19323Y84660D01*
X20233Y85267D01*
X20840Y86177D01*
X21054Y87250D01*
X20840Y88323D01*
X20233Y89233D01*
X19323Y89840D01*
X18250Y90054D01*
D02*
G37*
G36*
X11250D02*
X10177Y89840D01*
X9267Y89233D01*
X8660Y88323D01*
X8446Y87250D01*
X8660Y86177D01*
X9267Y85267D01*
X10177Y84660D01*
X11250Y84446D01*
X12323Y84660D01*
X13233Y85267D01*
X13840Y86177D01*
X14054Y87250D01*
X13840Y88323D01*
X13233Y89233D01*
X12323Y89840D01*
X11250Y90054D01*
D02*
G37*
G36*
X22500Y79554D02*
X21427Y79341D01*
X20517Y78733D01*
X19910Y77823D01*
X19696Y76750D01*
X19910Y75677D01*
X20517Y74767D01*
X21427Y74160D01*
X22500Y73946D01*
X23573Y74160D01*
X24483Y74767D01*
X25090Y75677D01*
X25304Y76750D01*
X25090Y77823D01*
X24483Y78733D01*
X23573Y79341D01*
X22500Y79554D01*
D02*
G37*
G36*
X24000Y57804D02*
X22927Y57590D01*
X22017Y56983D01*
X21333D01*
X20423Y57590D01*
X19350Y57804D01*
X18277Y57590D01*
X17367Y56983D01*
X16760Y56073D01*
X16546Y55000D01*
X16760Y53927D01*
X17367Y53017D01*
X18277Y52410D01*
X19350Y52196D01*
X20423Y52410D01*
X21333Y53017D01*
X22017D01*
X22927Y52410D01*
X24000Y52196D01*
X25073Y52410D01*
X25983Y53017D01*
X26590Y53927D01*
X26804Y55000D01*
X26590Y56073D01*
X25983Y56983D01*
X25073Y57590D01*
X24000Y57804D01*
D02*
G37*
%LPD*%
G36*
X33352Y134495D02*
X33154Y134491D01*
X32965Y134477D01*
X32786Y134451D01*
X32616Y134415D01*
X32456Y134367D01*
X32305Y134308D01*
X32163Y134238D01*
X32031Y134158D01*
X31908Y134066D01*
X31795Y133963D01*
X31088Y134670D01*
X31191Y134783D01*
X31283Y134906D01*
X31364Y135038D01*
X31433Y135179D01*
X31492Y135330D01*
X31540Y135491D01*
X31576Y135661D01*
X31602Y135840D01*
X31617Y136029D01*
X31620Y136227D01*
X33352Y134495D01*
D02*
G37*
G36*
X15532Y123075D02*
X15429Y122962D01*
X15337Y122839D01*
X15256Y122707D01*
X15187Y122565D01*
X15128Y122414D01*
X15080Y122254D01*
X15043Y122084D01*
X15018Y121905D01*
X15003Y121716D01*
X15000Y121517D01*
X13268Y123250D01*
X13466Y123253D01*
X13655Y123268D01*
X13834Y123294D01*
X14004Y123330D01*
X14164Y123378D01*
X14315Y123437D01*
X14457Y123506D01*
X14589Y123587D01*
X14712Y123679D01*
X14825Y123782D01*
X15532Y123075D01*
D02*
G37*
%LPC*%
G36*
X100525Y144233D02*
X99452Y144019D01*
X98542Y143412D01*
X97935Y142502D01*
X97721Y141429D01*
X97935Y140356D01*
X98542Y139446D01*
X99452Y138839D01*
X100525Y138625D01*
X101598Y138839D01*
X102508Y139446D01*
X103116Y140356D01*
X103329Y141429D01*
X103116Y142502D01*
X102508Y143412D01*
X101598Y144019D01*
X100525Y144233D01*
D02*
G37*
G36*
X72241Y137162D02*
X71168Y136948D01*
X70258Y136341D01*
X69650Y135431D01*
X69464Y134495D01*
X69266Y134150D01*
X68736Y133620D01*
X68705Y133626D01*
X67632Y133413D01*
X66723Y132805D01*
X66115Y131895D01*
X65901Y130822D01*
X66115Y129749D01*
X66723Y128840D01*
X67632Y128232D01*
X68705Y128019D01*
X69778Y128232D01*
X70688Y128840D01*
X71296Y129749D01*
X71482Y130685D01*
X71680Y131030D01*
X72210Y131560D01*
X72241Y131554D01*
X73314Y131767D01*
X74223Y132375D01*
X74831Y133285D01*
X75045Y134358D01*
X74831Y135431D01*
X74223Y136341D01*
X73314Y136948D01*
X72241Y137162D01*
D02*
G37*
G36*
X57750Y137054D02*
X56677Y136840D01*
X55767Y136233D01*
X55160Y135323D01*
X54946Y134250D01*
X55160Y133177D01*
X55767Y132267D01*
X56677Y131660D01*
X57750Y131446D01*
X58823Y131660D01*
X59733Y132267D01*
X60340Y133177D01*
X60554Y134250D01*
X60340Y135323D01*
X59733Y136233D01*
X58823Y136840D01*
X57750Y137054D01*
D02*
G37*
G36*
X79312Y137162D02*
X78239Y136948D01*
X77329Y136341D01*
X76722Y135431D01*
X76508Y134358D01*
X76722Y133285D01*
X77329Y132375D01*
X78239Y131768D01*
X79312Y131554D01*
X79343Y131560D01*
X79873Y131030D01*
X80071Y130685D01*
X80257Y129749D01*
X80865Y128840D01*
X81775Y128232D01*
X82847Y128019D01*
X82958Y127287D01*
X82847Y126555D01*
X81775Y126342D01*
X80865Y125734D01*
X80257Y124824D01*
X80044Y123751D01*
X80257Y122678D01*
X80865Y121769D01*
X81775Y121161D01*
X82847Y120947D01*
X83920Y121161D01*
X84830Y121769D01*
X85438Y122678D01*
X85624Y123614D01*
X85822Y123959D01*
X86352Y124489D01*
X86383Y124483D01*
X87456Y124696D01*
X88366Y125304D01*
X88973Y126214D01*
X89187Y127287D01*
X88973Y128360D01*
X88366Y129269D01*
X87456Y129877D01*
X86383Y130091D01*
X86352Y130085D01*
X85822Y130615D01*
X85624Y130959D01*
X85438Y131895D01*
X84830Y132805D01*
X83920Y133413D01*
X82847Y133626D01*
X82817Y133620D01*
X82286Y134150D01*
X82089Y134495D01*
X81902Y135431D01*
X81295Y136341D01*
X80385Y136948D01*
X79312Y137162D01*
D02*
G37*
G36*
X103750Y128554D02*
X102677Y128340D01*
X101767Y127733D01*
X101160Y126823D01*
X100946Y125750D01*
X101160Y124677D01*
X101767Y123767D01*
X102677Y123160D01*
X103750Y122946D01*
X104823Y123160D01*
X105733Y123767D01*
X106340Y124677D01*
X106554Y125750D01*
X106340Y126823D01*
X105733Y127733D01*
X104823Y128340D01*
X103750Y128554D01*
D02*
G37*
G36*
X92954Y116199D02*
X91881Y115985D01*
X90971Y115377D01*
X90364Y114468D01*
X90150Y113395D01*
X90364Y112322D01*
X90971Y111412D01*
X91881Y110804D01*
X92954Y110591D01*
X94027Y110804D01*
X94937Y111412D01*
X95545Y112322D01*
X95758Y113395D01*
X95545Y114468D01*
X94937Y115377D01*
X94027Y115985D01*
X92954Y116199D01*
D02*
G37*
G36*
X104746Y120170D02*
X103673Y119956D01*
X102764Y119348D01*
X102156Y118439D01*
X101942Y117366D01*
X102156Y116293D01*
X102764Y115383D01*
X103673Y114775D01*
X104746Y114562D01*
X104777Y114568D01*
X105307Y114038D01*
X105505Y113693D01*
X105691Y112757D01*
X106299Y111848D01*
X107209Y111240D01*
X108282Y111026D01*
X109355Y111240D01*
X110264Y111848D01*
X110309Y111914D01*
X111251Y111524D01*
X111196Y111250D01*
X111410Y110177D01*
X112017Y109267D01*
X112927Y108660D01*
X114000Y108446D01*
X115073Y108660D01*
X115983Y109267D01*
X116590Y110177D01*
X116804Y111250D01*
X116590Y112323D01*
X115983Y113233D01*
X115073Y113841D01*
X114000Y114054D01*
X112927Y113841D01*
X112017Y113233D01*
X111973Y113166D01*
X111031Y113557D01*
X111086Y113830D01*
X110872Y114903D01*
X110264Y115813D01*
X109355Y116421D01*
X108282Y116634D01*
X108251Y116628D01*
X107721Y117158D01*
X107523Y117503D01*
X107337Y118439D01*
X106729Y119348D01*
X105819Y119956D01*
X104746Y120170D01*
D02*
G37*
G36*
X100525Y108877D02*
X99452Y108664D01*
X98543Y108056D01*
X97935Y107147D01*
X97721Y106074D01*
X97935Y105001D01*
X98543Y104091D01*
X99452Y103483D01*
X100525Y103270D01*
X101598Y103483D01*
X102508Y104091D01*
X103116Y105001D01*
X103329Y106074D01*
X103116Y107147D01*
X102508Y108056D01*
X101598Y108664D01*
X100525Y108877D01*
D02*
G37*
G36*
X107596Y108877D02*
X106523Y108664D01*
X105614Y108056D01*
X105006Y107147D01*
X104792Y106074D01*
X105006Y105001D01*
X105614Y104091D01*
X106523Y103483D01*
X107596Y103270D01*
X108669Y103483D01*
X109579Y104091D01*
X110187Y105001D01*
X110400Y106074D01*
X110187Y107147D01*
X109579Y108056D01*
X108669Y108664D01*
X107596Y108877D01*
D02*
G37*
G36*
X118203Y105342D02*
X117130Y105128D01*
X116220Y104521D01*
X115612Y103611D01*
X115399Y102538D01*
X115612Y101465D01*
X116220Y100555D01*
X117130Y99948D01*
X118203Y99734D01*
X119276Y99948D01*
X120185Y100555D01*
X120793Y101465D01*
X121007Y102538D01*
X120793Y103611D01*
X120185Y104521D01*
X119276Y105128D01*
X118203Y105342D01*
D02*
G37*
G36*
X118203Y98271D02*
X117130Y98057D01*
X116220Y97450D01*
X115612Y96540D01*
X115399Y95467D01*
X115612Y94394D01*
X116220Y93484D01*
X117130Y92877D01*
X118203Y92663D01*
X119276Y92877D01*
X120185Y93484D01*
X120793Y94394D01*
X121007Y95467D01*
X120793Y96540D01*
X120185Y97450D01*
X119276Y98057D01*
X118203Y98271D01*
D02*
G37*
G36*
X142000Y97804D02*
X140927Y97590D01*
X140017Y96983D01*
X139410Y96073D01*
X139196Y95000D01*
X139410Y93927D01*
X140017Y93017D01*
X140927Y92410D01*
X142000Y92196D01*
X143073Y92410D01*
X143983Y93017D01*
X144590Y93927D01*
X144804Y95000D01*
X144590Y96073D01*
X143983Y96983D01*
X143073Y97590D01*
X142000Y97804D01*
D02*
G37*
G36*
X154000Y92554D02*
X152927Y92340D01*
X152017Y91733D01*
X151410Y90823D01*
X151196Y89750D01*
X151410Y88677D01*
X152017Y87767D01*
X152927Y87160D01*
X154000Y86946D01*
X155073Y87160D01*
X155983Y87767D01*
X156590Y88677D01*
X156804Y89750D01*
X156590Y90823D01*
X155983Y91733D01*
X155073Y92340D01*
X154000Y92554D01*
D02*
G37*
G36*
X118203Y91200D02*
X117130Y90986D01*
X116220Y90379D01*
X115612Y89469D01*
X115399Y88396D01*
X115612Y87323D01*
X116220Y86413D01*
X117130Y85806D01*
X118203Y85592D01*
X119276Y85806D01*
X120185Y86413D01*
X120793Y87323D01*
X121007Y88396D01*
X120793Y89469D01*
X120185Y90379D01*
X119276Y90986D01*
X118203Y91200D01*
D02*
G37*
G36*
X173250Y89554D02*
X172177Y89340D01*
X171267Y88733D01*
X170660Y87823D01*
X170446Y86750D01*
X170660Y85677D01*
X171267Y84767D01*
X172177Y84159D01*
X173250Y83946D01*
X174323Y84159D01*
X175233Y84767D01*
X175840Y85677D01*
X176054Y86750D01*
X175840Y87823D01*
X175233Y88733D01*
X174323Y89340D01*
X173250Y89554D01*
D02*
G37*
G36*
X204000Y68054D02*
X202927Y67840D01*
X202017Y67233D01*
X201410Y66323D01*
X201196Y65250D01*
X201410Y64177D01*
X202017Y63267D01*
X202927Y62660D01*
X204000Y62446D01*
X205073Y62660D01*
X205983Y63267D01*
X206590Y64177D01*
X206804Y65250D01*
X206590Y66323D01*
X205983Y67233D01*
X205073Y67840D01*
X204000Y68054D01*
D02*
G37*
G36*
X142266Y137847D02*
X141193Y137634D01*
X140283Y137026D01*
X139676Y136116D01*
X139462Y135043D01*
X139676Y133970D01*
X140283Y133061D01*
X141193Y132453D01*
X142266Y132240D01*
X143339Y132453D01*
X144249Y133061D01*
X144856Y133970D01*
X145070Y135043D01*
X144856Y136116D01*
X144249Y137026D01*
X143339Y137634D01*
X142266Y137847D01*
D02*
G37*
G36*
X431250Y149054D02*
X430177Y148840D01*
X429267Y148233D01*
X428660Y147323D01*
X428446Y146250D01*
X428660Y145177D01*
X428809Y144954D01*
X429167Y144000D01*
X428809Y143046D01*
X428660Y142823D01*
X428446Y141750D01*
X428660Y140677D01*
X429267Y139767D01*
X430177Y139160D01*
X431250Y138946D01*
X432323Y139160D01*
X433233Y139767D01*
X433840Y140677D01*
X434054Y141750D01*
X433840Y142823D01*
X433691Y143046D01*
X433333Y144000D01*
X433691Y144954D01*
X433840Y145177D01*
X434054Y146250D01*
X433840Y147323D01*
X433233Y148233D01*
X432323Y148840D01*
X431250Y149054D01*
D02*
G37*
G36*
X410250Y102304D02*
X409177Y102090D01*
X408267Y101483D01*
X407660Y100573D01*
X407446Y99500D01*
X407660Y98427D01*
X408267Y97517D01*
X409177Y96910D01*
X410250Y96696D01*
X411323Y96910D01*
X412233Y97517D01*
X412840Y98427D01*
X413054Y99500D01*
X412840Y100573D01*
X412233Y101483D01*
X411323Y102090D01*
X410250Y102304D01*
D02*
G37*
G36*
X360000Y36382D02*
X358927Y36169D01*
X358667Y35995D01*
X357814Y35626D01*
X356760Y35965D01*
X356573Y36090D01*
X355500Y36304D01*
X354427Y36090D01*
X353517Y35483D01*
X352910Y34573D01*
X352696Y33500D01*
X352910Y32427D01*
X353517Y31517D01*
X354427Y30910D01*
X355500Y30696D01*
X356573Y30910D01*
X356833Y31083D01*
X358017Y31596D01*
X358927Y30988D01*
X360000Y30775D01*
X361073Y30988D01*
X361983Y31596D01*
X362590Y32505D01*
X362804Y33578D01*
X362590Y34651D01*
X361983Y35561D01*
X361073Y36169D01*
X360000Y36382D01*
D02*
G37*
G36*
X367000Y40304D02*
X365927Y40090D01*
X365017Y39483D01*
X364410Y38573D01*
X364196Y37500D01*
X364410Y36427D01*
X365017Y35517D01*
X365927Y34910D01*
X367000Y34696D01*
X368073Y34910D01*
X368983Y35517D01*
X369590Y36427D01*
X369804Y37500D01*
X369590Y38573D01*
X368983Y39483D01*
X368073Y40090D01*
X367000Y40304D01*
D02*
G37*
G36*
X-2250Y66054D02*
X-3323Y65840D01*
X-4233Y65233D01*
X-4840Y64323D01*
X-5054Y63250D01*
X-4840Y62177D01*
X-4233Y61267D01*
X-3323Y60660D01*
X-2250Y60446D01*
X-1177Y60660D01*
X-267Y61267D01*
X340Y62177D01*
X554Y63250D01*
X340Y64323D01*
X-267Y65233D01*
X-1177Y65840D01*
X-2250Y66054D01*
D02*
G37*
G36*
X403000Y12304D02*
X401927Y12091D01*
X401017Y11483D01*
X400410Y10573D01*
X400196Y9500D01*
X400410Y8427D01*
X401017Y7517D01*
X401927Y6910D01*
X403000Y6696D01*
X404073Y6910D01*
X404983Y7517D01*
X405590Y8427D01*
X405804Y9500D01*
X405590Y10573D01*
X404983Y11483D01*
X404073Y12091D01*
X403000Y12304D01*
D02*
G37*
G36*
X218250Y12554D02*
X217177Y12340D01*
X216267Y11733D01*
X215660Y10823D01*
X215446Y9750D01*
X215660Y8677D01*
X216267Y7767D01*
X217177Y7160D01*
X218250Y6946D01*
X219323Y7160D01*
X220233Y7767D01*
X220840Y8677D01*
X221054Y9750D01*
X220840Y10823D01*
X220233Y11733D01*
X219323Y12340D01*
X218250Y12554D01*
D02*
G37*
%LPD*%
D11*
X236000Y77500D02*
X238250Y75250D01*
X257750D01*
X266500Y84000D01*
X278000D01*
X301500Y9750D02*
X309000D01*
X331250Y32000D02*
X342250D01*
X309000Y9750D02*
X331250Y32000D01*
X408167Y93250D02*
X409167Y92250D01*
X401333Y93250D02*
X408167D01*
X400333Y92250D02*
X401333Y93250D01*
X392250Y92250D02*
X400333D01*
X406510Y89250D02*
X407510Y88250D01*
X402990Y89250D02*
X406510D01*
X401990Y88250D02*
X402990Y89250D01*
X407510Y88250D02*
X428000D01*
X394750D02*
X401990D01*
X352250Y58750D02*
X401000Y107500D01*
X333000Y155750D02*
X337679D01*
X343535Y161606D02*
Y172375D01*
X337679Y155750D02*
X343535Y161606D01*
X292000Y98000D02*
X306750D01*
X278000Y84000D02*
X292000Y98000D01*
X324500Y115750D02*
Y181500D01*
X306750Y98000D02*
X324500Y115750D01*
Y181500D02*
X326500Y183500D01*
X69883Y165000D02*
X75776Y159107D01*
X62812Y165000D02*
X69883D01*
X57951Y169861D02*
X62812Y165000D01*
X365750Y59250D02*
X394750Y88250D01*
X356750Y56750D02*
X392250Y92250D01*
X409167D02*
X425000D01*
X428000Y88250D02*
X431250Y85000D01*
X445500D01*
X429500Y96750D02*
X443500D01*
X425000Y92250D02*
X429500Y96750D01*
X443500D02*
X445750Y99000D01*
Y101000D01*
X445500Y85000D02*
X450500Y90000D01*
X365750Y46000D02*
Y59250D01*
X360250Y40500D02*
X365750Y46000D01*
X350750Y40500D02*
X360250D01*
X196500Y162000D02*
X242000D01*
X245750Y165750D02*
X254364D01*
X242000Y162000D02*
X245750Y165750D01*
X448500Y104500D02*
X450500Y102500D01*
Y90000D02*
Y102500D01*
X258950Y219300D02*
X275700D01*
X401000Y107500D02*
X410250D01*
X417000Y114250D01*
X352250Y47250D02*
Y58750D01*
X297750Y188250D02*
X300250Y190750D01*
X294631Y188250D02*
X297750D01*
X292800Y190081D02*
X294631Y188250D01*
X300250Y190750D02*
Y203000D01*
X293500Y209750D02*
X300250Y203000D01*
X285250Y209750D02*
X293500D01*
X275700Y219300D02*
X285250Y209750D01*
X342250Y32000D02*
X350750Y40500D01*
X356750Y47250D02*
Y56750D01*
X448500Y104500D02*
Y114650D01*
X107596Y162642D02*
X114667D01*
X260500Y224500D02*
X260596Y224404D01*
X254364Y165750D02*
X256955Y168340D01*
Y172511D01*
X252705Y176761D02*
X256955Y172511D01*
X292665Y190081D02*
X292800D01*
X330750Y168225D02*
X332625Y170100D01*
X330750Y158000D02*
Y168225D01*
Y158000D02*
X333000Y155750D01*
X342615Y173295D02*
X343535Y172375D01*
X342615Y173295D02*
Y173430D01*
D12*
X81473Y75527D02*
X90527D01*
X68250Y88750D02*
X81473Y75527D01*
X68250Y88750D02*
Y93053D01*
X29250Y162053D02*
Y172250D01*
Y162053D02*
X31250Y160053D01*
Y160000D02*
Y160053D01*
Y160000D02*
X42000Y149250D01*
X26750Y174750D02*
X29250Y172250D01*
X48000Y109697D02*
Y134750D01*
X42000Y140750D02*
X48000Y134750D01*
X42000Y140750D02*
Y149250D01*
X121000Y67250D02*
X127000Y73250D01*
X114447Y67250D02*
X121000D01*
X110500Y63303D02*
X114447Y67250D01*
X51000Y107500D02*
X51750Y106750D01*
X50197Y107500D02*
X51000D01*
X51750Y106750D02*
X52277D01*
X48000Y109697D02*
X50197Y107500D01*
X53777Y105250D02*
X56053D01*
X52277Y106750D02*
X53777Y105250D01*
X56053D02*
X68250Y93053D01*
X105197Y59000D02*
X108303D01*
X103000Y61197D02*
X105197Y59000D01*
X108303D02*
X110500Y61197D01*
X155500Y73250D02*
X164750Y64000D01*
X127000Y73250D02*
X155500D01*
X110500Y61197D02*
Y63303D01*
X209250Y3500D02*
Y8500D01*
X186436Y12500D02*
X205250D01*
X209250Y8500D01*
X179223Y5287D02*
X186436Y12500D01*
X177287Y5287D02*
X179223D01*
X177000Y5000D02*
X177287Y5287D01*
X90527Y75527D02*
X103000Y63053D01*
Y61197D02*
Y63053D01*
D15*
X154500Y134750D02*
X158750D01*
X137500Y151750D02*
X154500Y134750D01*
X134534Y151750D02*
X137500D01*
X37750Y161750D02*
X45000D01*
X37500D02*
X37750D01*
X158750Y134750D02*
X166000Y127500D01*
X102000Y203250D02*
X105250Y206500D01*
X102000Y198500D02*
Y203250D01*
X105250Y206500D02*
Y222750D01*
X97000Y247250D02*
X99500Y249750D01*
X89750Y247250D02*
X97000D01*
X99596Y245250D02*
X105500Y251154D01*
X100425Y243250D02*
X107500Y250326D01*
X226000Y97750D02*
X230578D01*
X233078Y100250D01*
X256000D01*
X230000Y100000D02*
X232250Y102250D01*
X223500Y100000D02*
X230000D01*
X229672Y102500D02*
X231422Y104250D01*
X221404Y102500D02*
X229672D01*
X232250Y102250D02*
X254000D01*
X231422Y104250D02*
X253172D01*
X229000Y105000D02*
X230500Y106500D01*
X186500Y105000D02*
X229000D01*
X228172Y107000D02*
X229672Y108500D01*
X195750Y107000D02*
X228172D01*
X230500Y106500D02*
X249809D01*
X229672Y108500D02*
X248981D01*
X225750Y109000D02*
X229410Y112660D01*
X222500Y109000D02*
X225750D01*
X253172Y104250D02*
X259750Y110828D01*
X254000Y102250D02*
X261750Y110000D01*
X256000Y100250D02*
X259250Y103500D01*
X249809Y106500D02*
X256250Y112941D01*
X248981Y108500D02*
X253235Y112754D01*
X240135Y110910D02*
X246045Y116820D01*
X233910Y110910D02*
X240135D01*
X232160Y112660D02*
X233910Y110910D01*
X229410Y112660D02*
X232160D01*
X171250Y192500D02*
X187578D01*
X166750Y197000D02*
X171250Y192500D01*
X148750Y197000D02*
X166750D01*
X-20250Y149750D02*
X-11500Y158500D01*
X-20250Y38078D02*
Y149750D01*
X3000Y152000D02*
X13000Y162000D01*
Y174000D01*
X15250Y176250D01*
Y224282D01*
X3000Y150000D02*
Y152000D01*
X-6500Y140500D02*
X3000Y150000D01*
X10750Y162654D02*
Y174750D01*
X3596Y155500D02*
X10750Y162654D01*
X-250Y155500D02*
X3596D01*
X13250Y177250D02*
Y223453D01*
X10750Y174750D02*
X13250Y177250D01*
X25404Y178000D02*
X29922D01*
X62500Y210578D02*
Y256250D01*
X29922Y178000D02*
X62500Y210578D01*
X74961Y220211D02*
Y238039D01*
X34250Y179500D02*
X74961Y220211D01*
X34250Y160536D02*
Y179500D01*
X96828Y266250D02*
X98328Y264750D01*
X21346Y266250D02*
X96828D01*
X98328Y264750D02*
X107250D01*
X97000Y263250D02*
X98000Y262250D01*
X24500Y263250D02*
X97000D01*
X96172Y261250D02*
X97172Y260250D01*
X39750Y261250D02*
X96172D01*
X130250Y250750D02*
X168250D01*
X98500Y219000D02*
X130250Y250750D01*
X98500Y200750D02*
Y219000D01*
X90500Y192750D02*
X98500Y200750D01*
X198526Y278198D02*
X250948D01*
X96278Y190472D02*
Y192778D01*
X102000Y198500D01*
X70250Y207250D02*
X76961Y213961D01*
X78961Y210961D02*
Y236461D01*
X81500Y208750D02*
Y236172D01*
X83750Y195500D02*
Y235593D01*
X85750Y218425D02*
X116000Y248675D01*
X85750Y193000D02*
Y218425D01*
X85250Y192500D02*
X85750Y193000D01*
X82000Y193750D02*
X83750Y195500D01*
X75250Y202500D02*
X81500Y208750D01*
X73250Y205250D02*
X78961Y210961D01*
X65500Y255096D02*
X67654Y257250D01*
X65500Y247500D02*
Y255096D01*
Y247500D02*
X74961Y238039D01*
X67654Y257250D02*
X91750D01*
X23500Y158500D02*
Y176096D01*
X25404Y178000D01*
X267000Y61000D02*
X275250Y52750D01*
X247250Y61000D02*
X267000D01*
X234000Y47750D02*
X247250Y61000D01*
X74500Y178250D02*
X79000Y173750D01*
X74500Y178250D02*
Y190750D01*
X70250Y195000D02*
X74500Y190750D01*
X70250Y195000D02*
Y207250D01*
X73250Y196750D02*
Y205250D01*
Y196750D02*
X77250Y192750D01*
Y181321D02*
Y192750D01*
Y181321D02*
X82071Y176500D01*
X86667D01*
X107500Y250326D02*
Y259175D01*
X91407Y243250D02*
X100425D01*
X83750Y235593D02*
X91407Y243250D01*
X105500Y251154D02*
Y258346D01*
X90578Y245250D02*
X99596D01*
X81500Y236172D02*
X90578Y245250D01*
X73250Y253750D02*
X76961Y250039D01*
Y213961D02*
Y250039D01*
X78961Y236461D02*
X89750Y247250D01*
X7750Y231782D02*
X15250Y224282D01*
X7750Y231782D02*
Y231782D01*
X5750Y230953D02*
Y230953D01*
Y230953D02*
X13250Y223453D01*
X11250Y178500D02*
Y222625D01*
X-4547Y241250D02*
X5750Y230953D01*
X4828Y234703D02*
X7750Y231782D01*
X-22250Y156000D02*
X-8750Y169500D01*
X-5000D01*
X-3142Y171358D01*
X4108D01*
X-22250Y37250D02*
Y156000D01*
X4108Y171358D02*
X11250Y178500D01*
X-11500Y158500D02*
X-3250D01*
X-250Y155500D01*
X-18250Y38907D02*
Y131750D01*
X-9500Y140500D01*
X-6500D01*
X62500Y256250D02*
X65500Y259250D01*
X75250Y199500D02*
X80000Y194750D01*
X75250Y199500D02*
Y202500D01*
X-5375Y239250D02*
X11250Y222625D01*
X131250Y248750D02*
X169078D01*
X36786Y158000D02*
X61500D01*
X34250Y160536D02*
X36786Y158000D01*
X61500D02*
X63643Y155857D01*
X5750Y268250D02*
X10500Y273000D01*
X-13250Y268250D02*
X5750D01*
X6578Y266250D02*
X7578Y267250D01*
X-12422Y266250D02*
X6578D01*
X15500Y254250D02*
X24500Y263250D01*
X2000Y254250D02*
X15500D01*
X20346Y267250D02*
X21346Y266250D01*
X7578Y267250D02*
X20346D01*
X24250Y245750D02*
X39750Y261250D01*
X11750Y245750D02*
X24250D01*
X-12828Y271500D02*
X-6750D01*
X45000Y161750D02*
X56500Y173250D01*
X17000Y152000D02*
X23500Y158500D01*
X17000Y145500D02*
Y152000D01*
X44250Y173000D02*
X47250Y176000D01*
X56500Y173250D02*
X67846D01*
X105250Y222750D02*
X131250Y248750D01*
X50750Y188250D02*
X60250D01*
X154596Y190000D02*
X161798Y182798D01*
X229000Y244250D02*
X232250Y241000D01*
X223500Y244250D02*
X229000D01*
X219750Y248000D02*
X223500Y244250D01*
X205000Y248000D02*
X219750D01*
X223750Y241000D02*
X227500D01*
X218750Y246000D02*
X223750Y241000D01*
X205828Y246000D02*
X218750D01*
X9843Y15250D02*
X16657D01*
X9015Y13250D02*
X15828D01*
X24907Y7000D02*
X31343D01*
X16657Y15250D02*
X24907Y7000D01*
X24078Y5000D02*
X32172D01*
X15828Y13250D02*
X24078Y5000D01*
X23250Y3000D02*
X33000D01*
X15000Y11250D02*
X23250Y3000D01*
X8186Y11250D02*
X15000D01*
X306922Y278500D02*
X329500D01*
X307750Y280500D02*
X328672D01*
X338422Y290250D01*
X329500Y278500D02*
X339250Y288250D01*
X338422Y290250D02*
X374750D01*
X339250Y288250D02*
X373922D01*
X297172Y288250D02*
X306922Y278500D01*
X265000Y288250D02*
X297172D01*
X298000Y290250D02*
X307750Y280500D01*
X264172Y290250D02*
X298000D01*
X-23750Y248750D02*
X-14250Y239250D01*
X-23750Y248750D02*
Y258922D01*
X-14250Y239250D02*
X-5375D01*
X187578Y192500D02*
X196078Y184000D01*
X166000Y127500D02*
X169500D01*
X153500Y145250D02*
X158773D01*
X149773Y148977D02*
X153500Y145250D01*
X149773Y148977D02*
Y152750D01*
X199000Y124000D02*
X213750D01*
X158773Y145250D02*
X164773Y139250D01*
X194000Y129000D02*
X199000Y124000D01*
X179405Y129000D02*
X194000D01*
X169155Y139250D02*
X179405Y129000D01*
X164773Y139250D02*
X169155D01*
X181000Y131000D02*
X199000D01*
X170750Y141250D02*
X181000Y131000D01*
X167559Y141250D02*
X170750D01*
X157453Y151356D02*
X167559Y141250D01*
X79250Y148500D02*
X91500Y136250D01*
X79250Y148500D02*
Y153500D01*
X76893Y155857D02*
X79250Y153500D01*
X63643Y155857D02*
X76893D01*
X210250Y156250D02*
X216380Y150120D01*
X192500Y156250D02*
X210250D01*
X216380Y150120D02*
X246045D01*
X82000Y189000D02*
Y193750D01*
X10500Y273000D02*
X24846D01*
X29596Y277750D01*
X109750D01*
X-7407Y32500D02*
X9843Y15250D01*
X-11843Y32500D02*
X-7407D01*
X11000Y17250D02*
X30578D01*
X-6500Y34750D02*
X11000Y17250D01*
X11828Y19250D02*
X29750D01*
X-5672Y36750D02*
X11828Y19250D01*
X3500Y30654D02*
Y98846D01*
Y30654D02*
X8404Y25750D01*
X18000D01*
X-8235Y30500D02*
X9015Y13250D01*
X-12672Y30500D02*
X-8235D01*
X-9064Y28500D02*
X8186Y11250D01*
X-13500Y28500D02*
X-9064D01*
X49750Y51000D02*
X51500Y52750D01*
X-8922Y36750D02*
X-5672D01*
X-9750Y34750D02*
X-6500D01*
X46000Y52750D02*
X47750Y51000D01*
X69500Y10750D02*
X76250Y4000D01*
X35093Y10750D02*
X69500D01*
X31343Y7000D02*
X35093Y10750D01*
X66500Y8750D02*
X71250Y4000D01*
X35922Y8750D02*
X66500D01*
X32172Y5000D02*
X35922Y8750D01*
X63000Y6750D02*
X65750Y4000D01*
X36750Y6750D02*
X63000D01*
X35172Y5172D02*
X36750Y6750D01*
X35172Y5171D02*
Y5172D01*
X33000Y3000D02*
X35172Y5171D01*
X185750Y188500D02*
X199250Y175000D01*
X168500Y188500D02*
X185750D01*
X162250Y194750D02*
X168500Y188500D01*
X147750Y194750D02*
X162250D01*
X160750Y192500D02*
X170750Y182500D01*
X146750Y192500D02*
X160750D01*
X153500Y258250D02*
X156750Y255000D01*
X129250Y258250D02*
X153500D01*
X109750Y277750D02*
X129250Y258250D01*
X278750Y15000D02*
Y42750D01*
X275250Y46250D02*
X278750Y42750D01*
X275250Y46250D02*
Y52750D01*
X168250Y250750D02*
X197750Y280250D01*
X169078Y248750D02*
X180578Y260250D01*
X156750Y255000D02*
X165250D01*
X65500Y259250D02*
X95250D01*
X202000Y213672D02*
Y242172D01*
X150250Y199250D02*
X187578D01*
X202000Y213672D01*
X200000Y214500D02*
Y243000D01*
X186750Y201250D02*
X200000Y214500D01*
X151078Y201250D02*
X186750D01*
X202000Y242172D02*
X205828Y246000D01*
X200000Y243000D02*
X205000Y248000D01*
X130000Y203500D02*
X146000D01*
X130828Y205500D02*
X146828D01*
X151078Y201250D01*
X146000Y203500D02*
X150250Y199250D01*
X145000Y200750D02*
X148750Y197000D01*
X117420Y200750D02*
X145000D01*
X144000Y198500D02*
X147750Y194750D01*
X122241Y198500D02*
X144000D01*
X142750Y196500D02*
X146750Y192500D01*
X125000Y196500D02*
X142750D01*
X146000Y190000D02*
X154596D01*
X141500Y194500D02*
X146000Y190000D01*
X125828Y194500D02*
X141500D01*
X-3718Y243250D02*
X4828Y234703D01*
X4828D01*
X-19750Y250407D02*
Y258922D01*
X-21750Y249578D02*
Y259750D01*
X-23750Y258922D02*
Y260578D01*
Y258922D02*
X-23750Y258922D01*
X-19750Y250407D02*
X-12593Y243250D01*
X-19750Y258922D02*
X-12422Y266250D01*
X-21750Y249578D02*
X-13422Y241250D01*
X-21750Y259750D02*
X-13250Y268250D01*
X-23750Y260578D02*
X-12828Y271500D01*
X-13422Y241250D02*
X-4547D01*
X-12593Y243250D02*
X-3718D01*
X109000Y275250D02*
X116000Y268250D01*
X101654Y275250D02*
X109000D01*
X98404Y272000D02*
X101654Y275250D01*
X98250Y272000D02*
X98404D01*
X116000Y248675D02*
Y268250D01*
X103596Y260250D02*
X105500Y258346D01*
X104425Y262250D02*
X107500Y259175D01*
X12500Y289000D02*
X15187Y291688D01*
X28625Y131500D02*
X33370Y136245D01*
X23250Y131500D02*
X28625D01*
X-13500Y41328D02*
X-8922Y36750D01*
X-18250Y38907D02*
X-11843Y32500D01*
X-20250Y38078D02*
X-12672Y30500D01*
X-22250Y37250D02*
X-13500Y28500D01*
X29750Y19250D02*
X47750Y37250D01*
X30578Y17250D02*
X49750Y36422D01*
X19250Y27000D02*
X25500D01*
X18000Y25750D02*
X19250Y27000D01*
X197000Y113000D02*
X218500D01*
X192250Y117750D02*
X197000Y113000D01*
X187500Y117750D02*
X192250D01*
X161250D02*
X174750D01*
X182750Y113000D02*
X187500Y117750D01*
X179500Y113000D02*
X182750D01*
X174750Y117750D02*
X179500Y113000D01*
X14654Y110000D02*
X21000D01*
X3500Y98846D02*
X14654Y110000D01*
X427250Y191750D02*
X428750Y190250D01*
Y171000D02*
Y190250D01*
X426000Y168250D02*
X428750Y171000D01*
X428596Y195000D02*
X430750Y192846D01*
Y170172D02*
Y192846D01*
X428000Y167422D02*
X430750Y170172D01*
X429425Y197000D02*
X432750Y193675D01*
Y169343D02*
Y193675D01*
X430000Y166593D02*
X432750Y169343D01*
X82250Y154000D02*
X92596D01*
X79026Y157224D02*
X82250Y154000D01*
X92596D02*
X97596Y159000D01*
X421500Y190596D02*
X425904Y195000D01*
X421500Y182904D02*
Y190596D01*
Y182904D02*
X422500Y181904D01*
Y177000D02*
Y181904D01*
X425075Y197000D02*
X429425D01*
X412000Y179700D02*
Y183925D01*
X425075Y197000D01*
X425904Y195000D02*
X428596D01*
X259750Y110828D02*
Y125922D01*
X255422Y130250D02*
X259750Y125922D01*
X244750Y130250D02*
X255422D01*
X261750Y110000D02*
Y126750D01*
X255250Y133250D02*
X261750Y126750D01*
X250000Y133250D02*
X255250D01*
X210000Y91000D02*
Y91096D01*
X221404Y102500D01*
X83750Y170250D02*
X86750Y167250D01*
X78250Y170250D02*
X83750D01*
X60250Y188250D02*
X78250Y170250D01*
X68000Y176000D02*
X83500Y160500D01*
X47250Y176000D02*
X68000D01*
X67846Y173250D02*
X79026Y162070D01*
X234000Y45080D02*
Y47750D01*
X80000Y188172D02*
Y194750D01*
X163750Y155986D02*
Y163500D01*
X159250Y168000D02*
X163750Y163500D01*
X154922Y168000D02*
X159250D01*
X160344Y154122D02*
Y163988D01*
X160344D02*
X160344D01*
X158440Y165892D02*
X160344Y163988D01*
X155642Y165892D02*
X158440D01*
X153642Y163892D02*
X155642Y165892D01*
X142013Y190641D02*
X153404Y179250D01*
X109000Y206500D02*
Y217096D01*
X105750Y203250D02*
X109000Y206500D01*
Y217096D02*
X113654Y221750D01*
X116000Y217721D02*
X118029Y219750D01*
X116000Y210000D02*
Y217721D01*
X105727Y184000D02*
X107192Y182534D01*
X102750Y184000D02*
X105727D01*
X96278Y190472D02*
X102750Y184000D01*
X93000Y190472D02*
X96278D01*
X107192Y182534D02*
X115329D01*
X119544Y186749D01*
X125559D01*
X128167Y184141D01*
X133691D01*
X135880Y186330D01*
Y188451D01*
X138070Y190641D01*
X142013D01*
X153404Y179250D02*
X191500D01*
X200250Y170500D01*
X89918Y187391D02*
X93000Y190472D01*
X169000Y174250D02*
X179500Y163750D01*
X163404Y174250D02*
X169000D01*
X161904Y172750D02*
X163404Y174250D01*
X167000Y170750D02*
X177500Y160250D01*
X179500Y163750D02*
X185000D01*
X157656Y172750D02*
X161904D01*
X157626Y172720D02*
X157656Y172750D01*
X153280Y172720D02*
X157626D01*
X142430Y183570D02*
X153280Y172720D01*
X138070Y183570D02*
X142430D01*
X134500Y180000D02*
X138070Y183570D01*
X119500Y180000D02*
X134500D01*
X222000Y175500D02*
X233500D01*
X216250Y181250D02*
X222000Y175500D01*
X207250Y181250D02*
X216250D01*
X168388Y143250D02*
X227500D01*
X156500Y155138D02*
X168388Y143250D01*
X169216Y145250D02*
X174250D01*
X160344Y154122D02*
X169216Y145250D01*
X185000Y163750D02*
X192500Y156250D01*
X259250Y103500D02*
X266000D01*
X97596Y159000D02*
X101750D01*
X93750Y160500D02*
X99142Y165892D01*
X83500Y160500D02*
X93750D01*
X92179Y162571D02*
X95000Y165392D01*
X88929Y162571D02*
X92179D01*
X87025Y164475D02*
X88929Y162571D01*
X87025Y164475D02*
Y164500D01*
X87000D02*
X87025D01*
X86750Y164750D02*
X87000Y164500D01*
X98000Y262250D02*
X104425D01*
X97172Y260250D02*
X103596D01*
X95250Y259250D02*
X97500Y257000D01*
X165250Y114750D02*
X170250Y109750D01*
X160000Y114750D02*
X165250D01*
X158070Y116680D02*
X160000Y114750D01*
X159250Y119750D02*
X161250Y117750D01*
X193000Y109750D02*
X195750Y107000D01*
X170250Y109750D02*
X193000D01*
X199250Y175000D02*
X205654D01*
X205500Y179500D02*
X207250Y181250D01*
X196078Y184000D02*
X218500D01*
X-13500Y41328D02*
Y73422D01*
X-15500Y40500D02*
X-9750Y34750D01*
X-15500Y40500D02*
Y74250D01*
X-9422Y77500D02*
X-4750D01*
X-13500Y73422D02*
X-9422Y77500D01*
X-10250Y79500D02*
X-5578D01*
X-15500Y74250D02*
X-10250Y79500D01*
X205654Y175000D02*
X209154Y178500D01*
X163750Y155986D02*
X167700Y152036D01*
X184250Y107250D02*
X186500Y105000D01*
X168750Y107250D02*
X184250D01*
X206250Y90154D02*
Y93500D01*
X200750Y99000D02*
X206250Y93500D01*
X181750Y99000D02*
X200750D01*
X395500Y116911D02*
X402839Y124250D01*
X421250Y122250D02*
X432500Y111000D01*
X398785Y115600D02*
X405435Y122250D01*
X421250D01*
X402839Y124250D02*
X417000D01*
X424289Y131539D01*
X420250Y120250D02*
X431750Y108750D01*
X409700Y120250D02*
X420250D01*
X404450Y115000D02*
X409700Y120250D01*
X439250Y108750D02*
X442750Y105250D01*
X431750Y108750D02*
X439250D01*
X432500Y111000D02*
X442750D01*
X395500Y114000D02*
Y116911D01*
X390386Y114886D02*
Y118540D01*
X401596Y129750D02*
X405846D01*
X390386Y118540D02*
X401596Y129750D01*
X385750Y110250D02*
X390386Y114886D01*
X405846Y129750D02*
X409000Y132904D01*
X121300Y221750D02*
X124500Y218550D01*
Y211828D02*
Y218550D01*
Y211828D02*
X130828Y205500D01*
X122500Y211000D02*
X130000Y203500D01*
X122500Y211000D02*
Y217721D01*
X84750Y173750D02*
X90275Y168225D01*
X79000Y173750D02*
X84750D01*
X90275Y165821D02*
Y168225D01*
X86750Y164750D02*
Y167250D01*
X206250Y90154D02*
X208654Y87750D01*
X234250Y136500D02*
X246750D01*
X227500Y143250D02*
X234250Y136500D01*
X246750D02*
X250000Y133250D01*
X442750Y111000D02*
Y149500D01*
X430000Y162250D02*
X442750Y149500D01*
X430000Y162250D02*
Y166593D01*
X424289Y149961D02*
X428000Y153672D01*
Y167422D01*
X426000Y154500D02*
Y168250D01*
X409000Y137500D02*
X426000Y154500D01*
X362500Y4750D02*
X367000Y9250D01*
X278750Y15000D02*
X289000Y4750D01*
X362500D01*
X220170Y31250D02*
X234000Y45080D01*
X207500Y31250D02*
X220170D01*
X216000Y87750D02*
X226000Y97750D01*
X208654Y87750D02*
X216000D01*
X214500Y91000D02*
X223500Y100000D01*
X136346Y119750D02*
X159250D01*
X162500Y120750D02*
X199250D01*
X159499Y123751D02*
X162500Y120750D01*
X139416Y123751D02*
X159499D01*
X209154Y178500D02*
X212750D01*
X153558Y159857D02*
X156500Y156915D01*
Y155138D02*
Y156915D01*
X240750Y126250D02*
X244750Y130250D01*
X216000Y126250D02*
X240750D01*
X101750Y159000D02*
X106250Y154500D01*
X110764D01*
X120514Y144750D01*
X97500Y257000D02*
X98000Y256500D01*
X95250Y253750D02*
X99000D01*
X91750Y257250D02*
X95250Y253750D01*
X99000D02*
X102250Y257000D01*
X180578Y260250D02*
X180578D01*
X105750Y192419D02*
Y203250D01*
X113654Y221750D02*
X121300D01*
X107750Y193248D02*
Y201750D01*
X116000Y210000D01*
X118029Y219750D02*
X120471D01*
X107750Y193248D02*
X109786Y191212D01*
X105750Y192419D02*
X108238Y189931D01*
X119250Y208500D02*
Y216375D01*
X111132Y200382D02*
X119250Y208500D01*
X111132Y194462D02*
Y200382D01*
X120471Y219750D02*
X122500Y217721D01*
X103750Y287750D02*
X107500Y291500D01*
X257250Y280500D02*
X265000Y288250D01*
X253250Y280500D02*
X257250D01*
X250948Y278198D02*
X253250Y280500D01*
X256672Y282750D02*
X263922Y290000D01*
X250000Y282750D02*
X256672D01*
X247500Y280250D02*
X250000Y282750D01*
X197750Y280250D02*
X247500D01*
X239069Y173431D02*
X249375D01*
X234750Y177750D02*
X239069Y173431D01*
X224750Y177750D02*
X234750D01*
X399500Y31750D02*
X404750Y37000D01*
X399500Y19250D02*
Y31750D01*
X387750Y7500D02*
X399500Y19250D01*
X373750Y7500D02*
X387750D01*
X180578Y260250D02*
X198526Y278198D01*
X374750Y290250D02*
X407750Y257250D01*
Y239250D02*
Y257250D01*
X405750Y244000D02*
Y256422D01*
X373922Y288250D02*
X405750Y256422D01*
X372000Y9250D02*
X373750Y7500D01*
X367000Y9250D02*
X372000D01*
X212750Y178500D02*
X214750Y176500D01*
X155143Y151356D02*
X157453D01*
X155000Y151500D02*
X155143Y151356D01*
X174250Y145250D02*
X177500Y148500D01*
Y160250D01*
X144392Y163892D02*
X153642D01*
X142750Y162250D02*
X144392Y163892D01*
X142750Y152750D02*
Y162250D01*
X203750Y116250D02*
X210075D01*
X199250Y120750D02*
X203750Y116250D01*
X13250Y121500D02*
X23250Y131500D01*
X80000Y188172D02*
X94515Y173657D01*
X82000Y189000D02*
X90680Y180320D01*
X218500Y184000D02*
X224750Y177750D01*
X49313Y291688D02*
X53250Y287750D01*
X15187Y291688D02*
X49313D01*
X163750Y112250D02*
X168750Y107250D01*
X218500Y113000D02*
X222500Y109000D01*
X159672Y112250D02*
X163750D01*
X158672Y113250D02*
X159672Y112250D01*
X141000Y113250D02*
X158672D01*
X137625Y109875D02*
X141000Y113250D01*
X134491Y109875D02*
X137625D01*
X132345Y116680D02*
X158070D01*
X127000Y117366D02*
X134491Y109875D01*
X124588Y117366D02*
X127000D01*
X36750Y125750D02*
X41500D01*
X21000Y110000D02*
X36750Y125750D01*
X79026Y157224D02*
Y162070D01*
X95000Y165392D02*
Y168000D01*
X86667Y176500D02*
X89919Y173249D01*
X120514Y144750D02*
X127534D01*
X213750Y124000D02*
X216000Y126250D01*
X217305Y123480D02*
X221165D01*
X210075Y116250D02*
X217305Y123480D01*
X142750Y152750D02*
X145000Y150500D01*
X152814Y165892D02*
X154922Y168000D01*
X99142Y165892D02*
X152814D01*
X127534Y144750D02*
X134534Y151750D01*
X256250Y112941D02*
Y124531D01*
X249375Y126810D02*
X253971D01*
X256250Y124531D01*
X249375Y120150D02*
X253235Y116290D01*
Y112754D02*
Y116290D01*
X113750Y178250D02*
X117750D01*
X119500Y180000D01*
X118203Y194462D02*
X122241Y198500D01*
X263922Y290000D02*
X264172Y290250D01*
X263922Y290000D02*
X263922D01*
X53250Y287750D02*
X103750D01*
X120540Y189212D02*
X125828Y194500D01*
X109786Y191212D02*
X119712D01*
X125000Y196500D01*
X117512Y189212D02*
X120540D01*
X112835Y184534D02*
X117512Y189212D01*
X110142Y184534D02*
X112835D01*
X108238Y186438D02*
X110142Y184534D01*
X108238Y186438D02*
Y189931D01*
X114667Y197997D02*
X117420Y200750D01*
X404750Y236250D02*
X407750Y239250D01*
X401250Y239500D02*
X405750Y244000D01*
X424289Y131539D02*
Y149961D01*
X409000Y132904D02*
Y137500D01*
X395500Y114000D02*
X397150Y112350D01*
X401800D01*
X404450Y115000D01*
X406050Y173750D02*
X412000Y179700D01*
X119250Y216375D02*
Y217250D01*
X94515Y173657D02*
X96581D01*
X96846Y173392D01*
X90680Y180320D02*
X96990D01*
X131659Y124437D02*
X136346Y119750D01*
X238899Y170101D02*
X252705D01*
X233500Y175500D02*
X238899Y170101D01*
X244659Y180091D02*
X249375D01*
X234000Y190750D02*
X244659Y180091D01*
X234000Y190750D02*
Y193542D01*
X-4750Y77500D02*
X0Y82250D01*
X-5578Y79500D02*
X-2000Y83078D01*
X-4503Y89497D02*
X-3250D01*
X-8750Y85250D02*
X-4503Y89497D01*
X-4503Y91497D02*
X-2422D01*
X-8750Y95744D02*
X-4503Y91497D01*
X47750Y37250D02*
Y51000D01*
X0Y82250D02*
Y89076D01*
X49750Y36422D02*
Y51000D01*
X-2422Y91497D02*
X0Y89076D01*
X-3250Y89497D02*
X-2000Y88247D01*
Y83078D02*
Y88247D01*
X238860Y123480D02*
X246045D01*
X221165D02*
X227735Y116910D01*
X232290D01*
X238860Y123480D01*
D129*
X437500Y30500D02*
D03*
Y266500D02*
D03*
D133*
X287500Y205000D02*
X291066D01*
X284000Y201500D02*
X287500Y205000D01*
X276009Y201500D02*
X284000D01*
X271250Y196741D02*
X276009Y201500D01*
X291066Y205000D02*
X292665Y203401D01*
X250750Y219750D02*
Y230500D01*
X256800Y213700D02*
X266050D01*
X250750Y219750D02*
X256800Y213700D01*
X271250Y188646D02*
Y196741D01*
X266025D02*
X271250D01*
X269355Y186751D02*
X271250Y188646D01*
D136*
Y249750D02*
Y271000D01*
X273750Y273500D02*
X290250D01*
X273750Y273500D02*
X273750Y273500D01*
X271250Y271000D02*
X273750Y273500D01*
D137*
X229750Y67000D02*
Y79382D01*
X233618Y83250D01*
X238500D01*
X241000Y85750D01*
X258500D01*
X263250Y90500D02*
X276000D01*
X258500Y85750D02*
X263250Y90500D01*
X317250Y120750D02*
Y177000D01*
X313000Y116500D02*
X317250Y120750D01*
X296250Y116500D02*
X313000D01*
X329750Y68250D02*
X377500Y116000D01*
X289750Y68250D02*
X329750D01*
X393750Y141250D02*
X405000Y152500D01*
X393750Y137000D02*
Y141250D01*
X380000Y123250D02*
X393750Y137000D01*
X292750Y107250D02*
Y113000D01*
X276000Y90500D02*
X292750Y107250D01*
Y113000D02*
X296250Y116500D01*
X377500Y116000D02*
Y120750D01*
X380000Y123250D01*
X405000Y152500D02*
X410000D01*
X308375Y185875D02*
X317250Y177000D01*
X308250Y186000D02*
Y216000D01*
X410000Y152500D02*
X418250Y160750D01*
Y172500D01*
X308250Y216000D02*
X313800Y221550D01*
X317250D01*
X342000Y189300D02*
Y199676D01*
Y189300D02*
X354050Y177250D01*
X337250Y204426D02*
X342000Y199676D01*
X317250Y221550D02*
X320126D01*
X337250Y204426D01*
X354050Y177250D02*
X358550D01*
D138*
X110000Y70000D02*
X111750Y71750D01*
X107750Y70000D02*
X110000D01*
X111750Y71750D02*
Y74000D01*
X206445Y54000D02*
X213850Y61405D01*
X184695Y54000D02*
X206445D01*
X128501Y120999D02*
X128750Y120750D01*
X127582Y120999D02*
X128501D01*
X127365Y121216D02*
X127582Y120999D01*
X122994Y121216D02*
X127365D01*
X120738Y118960D02*
X122994Y121216D01*
X120738Y115771D02*
Y118960D01*
Y115771D02*
X123022Y113487D01*
X126840D01*
X133053Y107275D02*
X138702D01*
X126840Y113487D02*
X133053Y107275D01*
X201600Y85705D02*
X207805Y79500D01*
X211500D01*
X213850Y61405D02*
Y77150D01*
X211500Y79500D02*
X213850Y77150D01*
X179850Y95150D02*
X188150D01*
X170500Y104500D02*
X179850Y95150D01*
X167823Y104500D02*
X170500D01*
X188150Y95150D02*
X189400Y96400D01*
X198795D01*
X201600Y93595D01*
Y85705D02*
Y93595D01*
X148945Y79750D02*
X158945D01*
X184695Y54000D01*
X162823Y109500D02*
X167823Y104500D01*
X138702Y107275D02*
X140927Y109500D01*
X162823D01*
X143405Y81600D02*
X147095D01*
X139155Y77350D02*
X143405Y81600D01*
X147095D02*
X148945Y79750D01*
X119100Y77350D02*
X139155D01*
X118000Y76250D02*
X119100Y77350D01*
X114000Y76250D02*
X118000D01*
X111750Y74000D02*
X114000Y76250D01*
D139*
X373550Y148500D02*
Y156564D01*
X276000Y74250D02*
X278750D01*
X19250Y161750D02*
X19250Y161750D01*
X19250Y160593D02*
Y161750D01*
X4250Y145593D02*
X19250Y160593D01*
X4250Y111502D02*
Y145593D01*
X-9750Y262247D02*
X-6000D01*
X-2750Y95500D02*
Y104502D01*
X-2500Y247750D02*
X19250Y226000D01*
Y161750D02*
Y226000D01*
X-15000Y257495D02*
X-10247Y262247D01*
X-15000Y251820D02*
X-10930Y247750D01*
X-15000Y251820D02*
Y257495D01*
X-10930Y247750D02*
X-2500D01*
X366750Y228750D02*
X367250Y229250D01*
X357000Y219000D02*
X366750Y228750D01*
X358750Y159000D02*
Y159750D01*
Y122325D02*
Y159000D01*
X348000Y159000D02*
X356064D01*
X341845Y105420D02*
X358750Y122325D01*
X289000Y84500D02*
X316250D01*
X278750Y74250D02*
X289000Y84500D01*
X330705Y98955D02*
Y102345D01*
X316250Y84500D02*
X330705Y98955D01*
X333781Y105420D02*
X341845D01*
X330705Y102345D02*
X333781Y105420D01*
X-2750Y104502D02*
X4250Y111502D01*
X347250Y219000D02*
X357000D01*
X368858Y190142D02*
X384250Y174750D01*
X350351Y190142D02*
X368858D01*
D141*
X182509Y147250D02*
Y150759D01*
X185500Y153750D01*
X195500D01*
X199000Y150250D01*
Y147806D02*
Y150250D01*
Y147806D02*
X200306Y146500D01*
X230030D01*
X236370Y140160D01*
X254072D01*
X256005Y142093D01*
Y146820D01*
X252705Y150120D02*
X256005Y146820D01*
X326580Y183420D02*
X332625D01*
D144*
X76250Y4000D02*
D03*
X64000Y17000D02*
D03*
X128750Y120750D02*
D03*
X107750Y70000D02*
D03*
X54000Y226000D02*
D03*
X42000Y140750D02*
D03*
X24500Y196250D02*
D03*
X35750Y216500D02*
D03*
X41500Y196000D02*
D03*
X-5250Y234497D02*
D03*
X29750Y150750D02*
D03*
X44250Y173000D02*
D03*
X66750Y219250D02*
D03*
X254250Y205750D02*
D03*
X165250Y255000D02*
D03*
X147250Y236750D02*
D03*
X53750Y184500D02*
D03*
X167700Y152036D02*
D03*
X50750Y188250D02*
D03*
X26000Y125250D02*
D03*
X371750Y122500D02*
D03*
X350000Y233500D02*
D03*
X11750Y245750D02*
D03*
X107250Y264750D02*
D03*
X241750Y210750D02*
D03*
X200250Y170500D02*
D03*
X363000Y282000D02*
D03*
X266000Y103500D02*
D03*
X383923Y114500D02*
D03*
X373673Y88500D02*
D03*
X190250Y135000D02*
D03*
X170750Y182500D02*
D03*
X-3000Y103500D02*
D03*
X-6750Y271500D02*
D03*
X98250Y272000D02*
D03*
X207500Y241250D02*
D03*
X235000Y252250D02*
D03*
X132750Y290250D02*
D03*
X216750Y241250D02*
D03*
X227500Y241000D02*
D03*
X107500Y291500D02*
D03*
X205500Y255750D02*
D03*
X187500Y262250D02*
D03*
X110750Y248250D02*
D03*
X102250Y257000D02*
D03*
X103000Y272000D02*
D03*
X111000Y267500D02*
D03*
X258950Y219300D02*
D03*
X2000Y279000D02*
D03*
X292665Y203401D02*
D03*
X449250Y191750D02*
D03*
X368250Y147500D02*
D03*
X427250Y191750D02*
D03*
X433250Y205250D02*
D03*
X464250Y211500D02*
D03*
X459250Y170750D02*
D03*
X402750Y21750D02*
D03*
X181750Y99000D02*
D03*
X199000Y131000D02*
D03*
X155000Y151500D02*
D03*
X171236Y148500D02*
D03*
X323750Y271750D02*
D03*
X463500Y63500D02*
D03*
X448500Y114650D02*
D03*
X209250Y3500D02*
D03*
X328750Y22250D02*
D03*
X306000Y9750D02*
D03*
X301500Y9750D02*
D03*
X27000Y78250D02*
D03*
X44500Y180000D02*
D03*
X33370Y136245D02*
D03*
X28250Y136250D02*
D03*
X13250Y121500D02*
D03*
X54500Y119750D02*
D03*
X167000Y170750D02*
D03*
X26750Y174750D02*
D03*
X127000Y81250D02*
D03*
X37750Y161750D02*
D03*
X118203Y194462D02*
D03*
X352250Y47250D02*
D03*
X356750Y47250D02*
D03*
X404750Y37000D02*
D03*
X76133Y145321D02*
D03*
X250000Y282750D02*
D03*
X445750Y101000D02*
D03*
X61000Y272500D02*
D03*
X354500Y21000D02*
D03*
X378250Y11750D02*
D03*
X179000Y231250D02*
D03*
X185500Y231500D02*
D03*
X269355Y186751D02*
D03*
X12500Y289000D02*
D03*
X250500Y278000D02*
D03*
X401250Y239500D02*
D03*
X404750Y236250D02*
D03*
X264750Y293750D02*
D03*
X214500Y91000D02*
D03*
X210000D02*
D03*
X182509Y147250D02*
D03*
X168450Y135143D02*
D03*
X232250Y241000D02*
D03*
X422500Y177000D02*
D03*
X406050Y173750D02*
D03*
X169500Y127500D02*
D03*
X61500Y131050D02*
D03*
X97500Y257000D02*
D03*
X119250Y216375D02*
D03*
X51750Y106750D02*
D03*
X25500Y27000D02*
D03*
X99500Y249750D02*
D03*
X73250Y253750D02*
D03*
X2000Y254250D02*
D03*
X-3000Y95000D02*
D03*
Y99250D02*
D03*
X236000Y77500D02*
D03*
X338750Y8000D02*
D03*
X334750D02*
D03*
X342750Y8000D02*
D03*
X404250Y69500D02*
D03*
X412000Y223000D02*
D03*
X400750Y212250D02*
D03*
X374500Y248250D02*
D03*
X306250Y287750D02*
D03*
X291500Y267250D02*
D03*
X63250Y291000D02*
D03*
X87000Y232000D02*
D03*
X97500Y222750D02*
D03*
X196500Y162000D02*
D03*
X93454Y148500D02*
D03*
X95000Y168000D02*
D03*
X65750Y4000D02*
D03*
X71250D02*
D03*
X211500Y273750D02*
D03*
X189250Y216250D02*
D03*
X409000Y232250D02*
D03*
X130500Y221500D02*
D03*
X54500Y241750D02*
D03*
X177000Y5000D02*
D03*
X207500Y31250D02*
D03*
X85750Y192000D02*
D03*
X17000Y145500D02*
D03*
X-9750Y155000D02*
D03*
X57951Y169861D02*
D03*
X114667Y162642D02*
D03*
X118203Y159107D02*
D03*
X390048Y216000D02*
D03*
X95164Y78085D02*
D03*
X77750Y90000D02*
D03*
X132345Y144965D02*
D03*
X100525Y148500D02*
D03*
X107596Y162642D02*
D03*
X307000Y224500D02*
D03*
X344500Y214000D02*
D03*
X315500Y55750D02*
D03*
X375000Y45750D02*
D03*
X373500Y37000D02*
D03*
X400250Y38750D02*
D03*
X381250Y28750D02*
D03*
X331500Y38000D02*
D03*
X337750Y37750D02*
D03*
X431250Y150750D02*
D03*
X149773Y152750D02*
D03*
X385750Y110250D02*
D03*
X387500Y146250D02*
D03*
X252705Y170101D02*
D03*
X252705Y176761D02*
D03*
X214750Y176500D02*
D03*
X212000Y169000D02*
D03*
X205500Y179500D02*
D03*
X153558Y159857D02*
D03*
X113750Y178250D02*
D03*
X114667Y197997D02*
D03*
X337500Y84750D02*
D03*
X312500Y89750D02*
D03*
X46250Y53000D02*
D03*
X51250Y53000D02*
D03*
X206500Y59500D02*
D03*
X202250D02*
D03*
X-8750Y85250D02*
D03*
Y95744D02*
D03*
X212250Y241250D02*
D03*
X71250Y233750D02*
D03*
X65750D02*
D03*
Y197500D02*
D03*
X154750Y282000D02*
D03*
X160250Y209500D02*
D03*
X155500Y211500D02*
D03*
Y216000D02*
D03*
X-9500Y100500D02*
D03*
X-9500Y105494D02*
D03*
X-9500Y128747D02*
D03*
X-9500Y134494D02*
D03*
X-5250Y253997D02*
D03*
X-9750Y253995D02*
D03*
X-5250Y262247D02*
D03*
X-9750Y262244D02*
D03*
X-9500Y234500D02*
D03*
X-8750Y210000D02*
D03*
X-4250Y209997D02*
D03*
X145250Y77750D02*
D03*
X164750Y64000D02*
D03*
X172500Y209250D02*
D03*
X181000Y210750D02*
D03*
X207250Y214750D02*
D03*
X-9500Y124000D02*
D03*
X-5250Y155000D02*
D03*
X-8250Y73750D02*
D03*
X252500Y231750D02*
D03*
X347250Y219000D02*
D03*
X418250Y173750D02*
D03*
X373050Y148500D02*
D03*
X394500Y173500D02*
D03*
X404500Y133000D02*
D03*
Y140000D02*
D03*
X41500Y125750D02*
D03*
X16000Y33500D02*
D03*
X24604Y31750D02*
D03*
X20104D02*
D03*
X15000Y52250D02*
D03*
X28750Y56750D02*
D03*
X273750Y273500D02*
D03*
X290250Y273500D02*
D03*
X307250Y241250D02*
D03*
X317750Y271500D02*
D03*
X250750Y289500D02*
D03*
X414500Y200500D02*
D03*
X394500Y186750D02*
D03*
Y182250D02*
D03*
X350750Y247500D02*
D03*
X328250D02*
D03*
X390053Y211745D02*
D03*
X209750Y83750D02*
D03*
X216500Y129750D02*
D03*
X33500Y105750D02*
D03*
X94750Y54750D02*
D03*
X79250Y53000D02*
D03*
X78000Y56750D02*
D03*
X75000Y53000D02*
D03*
X19000Y105000D02*
D03*
X10250Y101000D02*
D03*
X6750Y87250D02*
D03*
X-3000Y52000D02*
D03*
X10500Y69000D02*
D03*
X63750Y67000D02*
D03*
Y71750D02*
D03*
X65500Y50750D02*
D03*
X68000Y37500D02*
D03*
X64500Y91500D02*
D03*
X417000Y114250D02*
D03*
X18500Y69750D02*
D03*
X25500Y22500D02*
D03*
X41750Y20750D02*
D03*
X11500Y33250D02*
D03*
X13000Y29250D02*
D03*
X52000Y27250D02*
D03*
X30750D02*
D03*
X-3500Y41750D02*
D03*
X-8500D02*
D03*
X11500Y241250D02*
D03*
X32000Y269750D02*
D03*
X25750D02*
D03*
X42500Y287500D02*
D03*
X55250Y254250D02*
D03*
X161750Y182750D02*
D03*
X90500Y192750D02*
D03*
X89918Y187391D02*
D03*
X19000Y264000D02*
D03*
X131659Y124437D02*
D03*
X124588Y117366D02*
D03*
X132345Y116680D02*
D03*
X139416Y123751D02*
D03*
X91500Y136250D02*
D03*
X75776Y159107D02*
D03*
X75383Y152179D02*
D03*
X89919Y173249D02*
D03*
X90275Y165821D02*
D03*
X96990Y180320D02*
D03*
X96846Y173392D02*
D03*
X61634Y144965D02*
D03*
X61634Y152036D02*
D03*
X111132Y194462D02*
D03*
X115250Y225000D02*
D03*
X115500Y81000D02*
D03*
X145000Y150500D02*
D03*
X131988Y172892D02*
D03*
X234000Y193542D02*
D03*
X260500Y224500D02*
D03*
X442750Y111000D02*
D03*
X374750Y174000D02*
D03*
X380000Y123250D02*
D03*
X266050Y213700D02*
D03*
X289750Y68250D02*
D03*
X264200Y65500D02*
D03*
X268250D02*
D03*
X276000Y75000D02*
D03*
X304500Y79000D02*
D03*
X276000Y79500D02*
D03*
X266250Y77250D02*
D03*
X317250Y221550D02*
D03*
X345750Y116750D02*
D03*
X299500Y181750D02*
D03*
X358550Y177250D02*
D03*
X349371Y167579D02*
D03*
X350351Y190142D02*
D03*
X337250Y204426D02*
D03*
X200250Y135500D02*
D03*
X327000Y54750D02*
D03*
X347250Y159000D02*
D03*
X458750Y192000D02*
D03*
X424750Y184250D02*
D03*
X442750Y105250D02*
D03*
X440750Y101000D02*
D03*
X430925Y119000D02*
D03*
X401000Y136500D02*
D03*
X410000Y115000D02*
D03*
X404450Y115000D02*
D03*
X398785Y115600D02*
D03*
X391000Y123750D02*
D03*
X411500Y165000D02*
D03*
X416250Y178000D02*
D03*
X395250Y57750D02*
D03*
X389500D02*
D03*
X426500Y213250D02*
D03*
X281750Y267250D02*
D03*
X390000Y282500D02*
D03*
X378500Y272750D02*
D03*
X323750Y284250D02*
D03*
X339250Y283500D02*
D03*
X416750Y130000D02*
D03*
X400750Y65750D02*
D03*
X415000Y99250D02*
D03*
X404750Y85000D02*
D03*
X402000Y251750D02*
D03*
X378500Y243750D02*
D03*
X342615Y180090D02*
D03*
X246045Y183421D02*
D03*
X233250Y183369D02*
D03*
X325965Y196741D02*
D03*
X292665Y190081D02*
D03*
X266025D02*
D03*
Y196741D02*
D03*
X329295Y186751D02*
D03*
X332625Y183420D02*
D03*
X252705Y150120D02*
D03*
X286005Y110160D02*
D03*
X272685Y103500D02*
D03*
X266025Y96840D02*
D03*
X342615Y173430D02*
D03*
X332625Y170100D02*
D03*
X270000Y31000D02*
D03*
X262250Y57250D02*
D03*
X256750D02*
D03*
X256750Y4750D02*
D03*
X262250D02*
D03*
X292250Y12250D02*
D03*
X297000D02*
D03*
X294750Y49750D02*
D03*
X290000D02*
D03*
X225750Y49250D02*
D03*
X230500D02*
D03*
X223750Y12500D02*
D03*
X228500D02*
D03*
X168500Y49750D02*
D03*
X173250D02*
D03*
X168500Y12250D02*
D03*
X173250D02*
D03*
X103000D02*
D03*
X98250D02*
D03*
X100750Y49750D02*
D03*
X105500D02*
D03*
X133000Y57250D02*
D03*
X138500D02*
D03*
Y4250D02*
D03*
X133000D02*
D03*
X125250Y31000D02*
D03*
X249375Y126810D02*
D03*
Y120150D02*
D03*
X246045Y123480D02*
D03*
Y116820D02*
D03*
X246045Y150120D02*
D03*
X249375Y180091D02*
D03*
X249375Y173431D02*
D03*
X121738Y162642D02*
D03*
X135880Y148500D02*
D03*
X121738D02*
D03*
X107596Y148500D02*
D03*
X114667Y155571D02*
D03*
Y141429D02*
D03*
Y134358D02*
D03*
D145*
X290645Y133500D02*
D03*
Y123500D02*
D03*
Y153500D02*
D03*
Y143500D02*
D03*
Y163500D02*
D03*
Y173500D02*
D03*
X300645Y173400D02*
D03*
Y163400D02*
D03*
Y143400D02*
D03*
Y153400D02*
D03*
Y123400D02*
D03*
Y133400D02*
D03*
X310645Y163400D02*
D03*
Y143400D02*
D03*
Y153400D02*
D03*
Y133400D02*
D03*
X270645D02*
D03*
Y153400D02*
D03*
Y143400D02*
D03*
Y163400D02*
D03*
X280645Y133400D02*
D03*
Y123400D02*
D03*
Y153400D02*
D03*
Y143400D02*
D03*
Y163400D02*
D03*
Y173400D02*
D03*
D146*
X310645D02*
D03*
Y123400D02*
D03*
X270645D02*
D03*
Y173400D02*
D03*
D147*
X404000Y220040D02*
Y225750D01*
Y220040D02*
X408790Y215250D01*
X393500Y236250D02*
X404000Y225750D01*
X337750Y11250D02*
X356750D01*
X391250Y181750D02*
Y195250D01*
X387000Y199500D02*
Y214750D01*
X322750Y244750D02*
X350750D01*
X218750Y233250D02*
X254750D01*
X233290Y67750D02*
X266500D01*
X19500Y35000D02*
X26104D01*
X193500Y45500D02*
X211040D01*
X252000Y54250D02*
X261750D01*
X249000Y7250D02*
X261000D01*
X134250Y54250D02*
X143000D01*
X129750Y7500D02*
X148500D01*
X211040Y45500D02*
X233290Y67750D01*
X312479Y263750D02*
X330500D01*
X294479Y281750D02*
X312479Y263750D01*
X277167Y281750D02*
X294479D01*
X223750Y270250D02*
X258833D01*
X219441Y265941D02*
X223750Y270250D01*
X202441Y265941D02*
X219441D01*
X417000Y77250D02*
X428750Y65500D01*
X381750Y60960D02*
X398040Y77250D01*
X417000D01*
X381750Y51250D02*
X389000Y44000D01*
X384250Y20250D02*
X389000Y25000D01*
Y44000D01*
X183250Y41500D02*
X189500D01*
X193500Y45500D01*
X214250Y24750D02*
X231500D01*
X209000Y19500D02*
X214250Y24750D01*
X201540Y19500D02*
X209000D01*
X317750Y249750D02*
X322750Y244750D01*
X271250Y249750D02*
X317750D01*
X277167Y281750D02*
X277167Y281750D01*
X254750Y233250D02*
X271250Y249750D01*
X258833Y270250D02*
X270333Y281750D01*
X393500Y236250D02*
Y242250D01*
X361600Y274150D02*
X393500Y242250D01*
X340900Y274150D02*
X361600D01*
X366750Y228750D02*
X374000Y221500D01*
X350750Y244750D02*
X366750Y228750D01*
X374000Y221500D02*
X380250D01*
X387000Y214750D01*
Y199500D02*
X391250Y195250D01*
X330500Y263750D02*
X340900Y274150D01*
X384250Y174750D02*
X391250Y181750D01*
X384250Y170250D02*
Y174750D01*
X373000Y159000D02*
X384250Y170250D01*
X358750Y159000D02*
X373000D01*
X356064D02*
X358750D01*
X160750Y224250D02*
X202441Y265941D01*
X160750Y217500D02*
Y224250D01*
X169250Y36750D02*
X178500D01*
X160750Y45250D02*
X169250Y36750D01*
X160750Y45250D02*
Y55000D01*
X148500Y7500D02*
X164250Y23250D01*
X111500Y25750D02*
X129750Y7500D01*
X85290Y25750D02*
X111500D01*
X75750Y35290D02*
Y50000D01*
Y35290D02*
X85290Y25750D01*
X178500Y36750D02*
X183250Y41500D01*
X381750Y51250D02*
Y60960D01*
X242000Y44250D02*
X252000Y54250D01*
X242000Y35250D02*
Y44250D01*
X214500Y237500D02*
X218750Y233250D01*
X43040Y60750D02*
X54664D01*
X36750Y45646D02*
Y54460D01*
X43040Y60750D01*
X456750Y107000D02*
X459300Y104450D01*
X452250Y65500D02*
X459300Y72550D01*
Y104450D01*
X447500Y163250D02*
Y168000D01*
X441250Y174250D02*
X447500Y168000D01*
X441250Y174250D02*
Y209750D01*
X447500Y163250D02*
X451750Y159000D01*
Y122500D02*
Y159000D01*
X365750Y20250D02*
X384250D01*
X356750Y11250D02*
X365750Y20250D01*
X456750Y107000D02*
Y117500D01*
X428750Y65500D02*
X452250D01*
X176750Y19750D02*
X201290D01*
X173250Y23250D02*
X176750Y19750D01*
X201290D02*
X201540Y19500D01*
X91500Y42000D02*
X113000D01*
X87000Y46500D02*
X91500Y42000D01*
X87000Y46500D02*
Y58804D01*
X451750Y122500D02*
X456750Y117500D01*
X54664Y60750D02*
X56250Y59164D01*
X270333Y281750D02*
X277167D01*
X430000Y221000D02*
X441250Y209750D01*
X416750Y215250D02*
X422500Y221000D01*
X430000D01*
X73500Y64500D02*
X81304D01*
X87000Y58804D01*
X68164Y59164D02*
X73500Y64500D01*
X56250Y59164D02*
X68164D01*
X150000Y65750D02*
X160750Y55000D01*
X129944Y65750D02*
X150000D01*
X123000Y58806D02*
X129944Y65750D01*
X123000Y52000D02*
Y58806D01*
X113000Y42000D02*
X123000Y52000D01*
X26104Y35000D02*
X36750Y45646D01*
X408790Y215250D02*
X416750D01*
X231500Y24750D02*
X242000Y35250D01*
X231500Y24750D02*
X249000Y7250D01*
X164250Y23250D02*
X173250D01*
X148000Y39500D02*
X164250Y23250D01*
X148000Y39500D02*
Y49250D01*
X143000Y54250D02*
X148000Y49250D01*
M02*
