G04*
G04 #@! TF.GenerationSoftware,Altium Limited,Altium Designer,19.1.6 (110)*
G04*
G04 Layer_Color=32896*
%FSLAX44Y44*%
%MOMM*%
G71*
G01*
G75*
%ADD10C,0.2540*%
%ADD12C,0.2000*%
%ADD13C,0.1500*%
%ADD14C,0.2500*%
%ADD15C,0.1000*%
%ADD16C,0.1270*%
%ADD212C,0.0762*%
G36*
X57750Y6750D02*
X55750D01*
Y4750D01*
X57750D01*
Y6750D01*
D02*
G37*
G36*
X22000Y69250D02*
X22000Y66250D01*
X25000Y66250D01*
X22000Y69250D01*
D02*
G37*
G36*
Y101000D02*
X22000Y98000D01*
X25000Y98000D01*
X22000Y101000D01*
D02*
G37*
G36*
X45778Y143850D02*
Y153150D01*
X41128Y148500D01*
X45778Y143850D01*
D02*
G37*
G36*
X15750Y230000D02*
X9750D01*
Y224000D01*
X15750Y230000D01*
D02*
G37*
G36*
X385750Y33500D02*
Y29500D01*
X383500D01*
Y33500D01*
X385750D01*
D02*
G37*
G36*
X413375Y146250D02*
Y149000D01*
X408000D01*
X413375Y146250D01*
D02*
G37*
G36*
X353646Y202499D02*
X353645Y210500D01*
X345646Y210499D01*
X353646Y202499D01*
D02*
G37*
G36*
X401750Y216750D02*
Y212750D01*
X405750D01*
X401750Y216750D01*
D02*
G37*
G36*
X390500Y280750D02*
Y284750D01*
X386500D01*
X390500Y280750D01*
D02*
G37*
G36*
X167043Y209000D02*
X163425D01*
X163210Y209009D01*
X163003D01*
X162825Y209019D01*
X162647Y209037D01*
X162497Y209047D01*
X162357Y209056D01*
X162235Y209075D01*
X162122Y209084D01*
X162029Y209094D01*
X161944Y209112D01*
X161879Y209122D01*
X161832Y209131D01*
X161794D01*
X161776Y209141D01*
X161766D01*
X161569Y209197D01*
X161373Y209253D01*
X161194Y209309D01*
X161026Y209375D01*
X160866Y209450D01*
X160716Y209515D01*
X160585Y209581D01*
X160463Y209647D01*
X160351Y209712D01*
X160257Y209769D01*
X160173Y209815D01*
X160107Y209862D01*
X160051Y209900D01*
X160014Y209928D01*
X159995Y209947D01*
X159985Y209956D01*
X159817Y210097D01*
X159667Y210237D01*
X159376Y210546D01*
X159245Y210706D01*
X159114Y210865D01*
X159001Y211024D01*
X158898Y211175D01*
X158814Y211315D01*
X158729Y211446D01*
X158664Y211559D01*
X158598Y211662D01*
X158551Y211746D01*
X158523Y211802D01*
X158504Y211849D01*
X158495Y211859D01*
X158392Y212093D01*
X158298Y212327D01*
X158214Y212562D01*
X158148Y212796D01*
X158092Y213030D01*
X158045Y213265D01*
X157998Y213480D01*
X157970Y213686D01*
X157942Y213883D01*
X157923Y214061D01*
X157914Y214221D01*
X157905Y214352D01*
X157895Y214464D01*
Y214549D01*
Y214596D01*
Y214614D01*
X157905Y214877D01*
X157923Y215130D01*
X157942Y215355D01*
X157970Y215551D01*
X157989Y215636D01*
X158008Y215711D01*
X158017Y215786D01*
X158027Y215842D01*
X158036Y215889D01*
X158045Y215917D01*
X158055Y215936D01*
Y215945D01*
X158120Y216170D01*
X158186Y216367D01*
X158261Y216554D01*
X158327Y216704D01*
X158392Y216835D01*
X158439Y216929D01*
X158458Y216967D01*
X158476Y216995D01*
X158486Y217004D01*
Y217014D01*
X158589Y217182D01*
X158701Y217332D01*
X158814Y217473D01*
X158917Y217585D01*
X159001Y217679D01*
X159076Y217754D01*
X159123Y217792D01*
X159142Y217810D01*
X159292Y217932D01*
X159432Y218035D01*
X159582Y218120D01*
X159714Y218195D01*
X159826Y218251D01*
X159920Y218298D01*
X159976Y218316D01*
X159985Y218326D01*
X159995D01*
X160173Y218391D01*
X160360Y218448D01*
X160538Y218485D01*
X160707Y218523D01*
X160848Y218541D01*
X160913Y218551D01*
X160960Y218560D01*
X161007D01*
X161035Y218569D01*
X161063D01*
X161129Y218579D01*
X161213D01*
X161307Y218588D01*
X161410D01*
X161635Y218598D01*
X161869Y218607D01*
X165037D01*
X167043Y209000D01*
D02*
G37*
G36*
X157342D02*
X155374D01*
X154540Y212983D01*
X153612D01*
X153490Y212974D01*
X153284Y212955D01*
X153125Y212918D01*
X152984Y212890D01*
X152881Y212852D01*
X152815Y212815D01*
X152768Y212796D01*
X152759Y212787D01*
X152675Y212721D01*
X152590Y212646D01*
X152506Y212552D01*
X152431Y212458D01*
X152281Y212252D01*
X152150Y212037D01*
X152037Y211840D01*
X152000Y211756D01*
X151962Y211681D01*
X151925Y211615D01*
X151906Y211568D01*
X151888Y211540D01*
Y211531D01*
X151756Y211221D01*
X151634Y210931D01*
X151522Y210659D01*
X151419Y210406D01*
X151325Y210181D01*
X151241Y209975D01*
X151175Y209787D01*
X151110Y209619D01*
X151053Y209469D01*
X151006Y209347D01*
X150969Y209244D01*
X150941Y209150D01*
X150913Y209084D01*
X150894Y209037D01*
X150885Y209009D01*
Y209000D01*
X148757D01*
X148907Y209375D01*
X149057Y209722D01*
X149198Y210059D01*
X149329Y210359D01*
X149460Y210650D01*
X149582Y210912D01*
X149694Y211146D01*
X149807Y211362D01*
X149901Y211549D01*
X149985Y211718D01*
X150060Y211859D01*
X150125Y211971D01*
X150172Y212065D01*
X150210Y212121D01*
X150229Y212168D01*
X150238Y212177D01*
X150360Y212374D01*
X150491Y212552D01*
X150603Y212712D01*
X150716Y212843D01*
X150810Y212936D01*
X150885Y213011D01*
X150932Y213058D01*
X150950Y213077D01*
X150678Y213124D01*
X150425Y213171D01*
X150191Y213236D01*
X149976Y213311D01*
X149779Y213386D01*
X149591Y213471D01*
X149432Y213555D01*
X149282Y213640D01*
X149151Y213724D01*
X149038Y213799D01*
X148945Y213874D01*
X148869Y213930D01*
X148804Y213986D01*
X148766Y214024D01*
X148738Y214052D01*
X148729Y214061D01*
X148598Y214211D01*
X148485Y214380D01*
X148382Y214549D01*
X148298Y214717D01*
X148232Y214886D01*
X148167Y215055D01*
X148120Y215214D01*
X148082Y215373D01*
X148054Y215523D01*
X148026Y215655D01*
X148007Y215776D01*
X147998Y215879D01*
X147989Y215964D01*
Y216029D01*
Y216076D01*
Y216086D01*
X148007Y216395D01*
X148045Y216676D01*
X148110Y216929D01*
X148148Y217042D01*
X148176Y217145D01*
X148213Y217229D01*
X148251Y217313D01*
X148279Y217379D01*
X148316Y217445D01*
X148335Y217492D01*
X148354Y217520D01*
X148373Y217539D01*
Y217548D01*
X148523Y217754D01*
X148682Y217932D01*
X148851Y218073D01*
X149010Y218185D01*
X149151Y218270D01*
X149207Y218307D01*
X149263Y218326D01*
X149310Y218344D01*
X149338Y218363D01*
X149357Y218373D01*
X149366D01*
X149488Y218410D01*
X149610Y218448D01*
X149891Y218504D01*
X150172Y218551D01*
X150444Y218579D01*
X150575Y218588D01*
X150697Y218598D01*
X150800D01*
X150894Y218607D01*
X155337D01*
X157342Y209000D01*
D02*
G37*
G36*
X171448Y218766D02*
X171729Y218738D01*
X172001Y218701D01*
X172245Y218654D01*
X172470Y218588D01*
X172676Y218523D01*
X172873Y218448D01*
X173041Y218373D01*
X173191Y218298D01*
X173323Y218223D01*
X173435Y218157D01*
X173529Y218091D01*
X173594Y218045D01*
X173651Y218007D01*
X173679Y217979D01*
X173688Y217970D01*
X173838Y217820D01*
X173979Y217651D01*
X174091Y217492D01*
X174194Y217323D01*
X174279Y217154D01*
X174344Y216985D01*
X174401Y216817D01*
X174447Y216667D01*
X174485Y216517D01*
X174513Y216386D01*
X174532Y216264D01*
X174550Y216161D01*
Y216076D01*
X174560Y216011D01*
Y215973D01*
Y215954D01*
X174550Y215701D01*
X174513Y215476D01*
X174466Y215270D01*
X174410Y215092D01*
X174363Y214942D01*
X174335Y214886D01*
X174316Y214839D01*
X174297Y214802D01*
X174279Y214774D01*
X174269Y214755D01*
Y214745D01*
X174147Y214558D01*
X174016Y214399D01*
X173885Y214249D01*
X173754Y214127D01*
X173641Y214033D01*
X173548Y213958D01*
X173510Y213939D01*
X173482Y213921D01*
X173473Y213902D01*
X173463D01*
X173360Y213836D01*
X173248Y213780D01*
X172995Y213640D01*
X172723Y213508D01*
X172451Y213377D01*
X172329Y213321D01*
X172217Y213265D01*
X172104Y213218D01*
X172010Y213180D01*
X171936Y213143D01*
X171879Y213115D01*
X171842Y213105D01*
X171832Y213096D01*
X171635Y213011D01*
X171448Y212927D01*
X171289Y212852D01*
X171139Y212777D01*
X171017Y212721D01*
X170905Y212655D01*
X170801Y212609D01*
X170717Y212562D01*
X170651Y212524D01*
X170595Y212487D01*
X170548Y212458D01*
X170511Y212430D01*
X170483Y212412D01*
X170464Y212402D01*
X170455Y212393D01*
X170333Y212280D01*
X170248Y212159D01*
X170183Y212037D01*
X170145Y211924D01*
X170117Y211821D01*
X170108Y211746D01*
X170098Y211690D01*
Y211681D01*
Y211671D01*
Y211577D01*
X170117Y211493D01*
X170164Y211334D01*
X170239Y211193D01*
X170314Y211071D01*
X170398Y210968D01*
X170473Y210903D01*
X170520Y210856D01*
X170530Y210837D01*
X170539D01*
X170623Y210781D01*
X170726Y210725D01*
X170942Y210640D01*
X171167Y210575D01*
X171401Y210537D01*
X171504Y210518D01*
X171607Y210509D01*
X171701Y210500D01*
X171776D01*
X171842Y210490D01*
X171936D01*
X172142Y210500D01*
X172339Y210509D01*
X172517Y210537D01*
X172676Y210565D01*
X172826Y210612D01*
X172957Y210650D01*
X173070Y210697D01*
X173173Y210743D01*
X173266Y210790D01*
X173341Y210837D01*
X173398Y210884D01*
X173454Y210921D01*
X173491Y210949D01*
X173519Y210978D01*
X173529Y210987D01*
X173538Y210996D01*
X173585Y211062D01*
X173622Y211137D01*
X173697Y211324D01*
X173744Y211521D01*
X173782Y211727D01*
X173810Y211915D01*
X173819Y211999D01*
X173829Y212074D01*
Y212131D01*
X173838Y212177D01*
Y212205D01*
Y212215D01*
X175722Y212112D01*
X175713Y211765D01*
X175685Y211437D01*
X175656Y211287D01*
X175628Y211146D01*
X175600Y211015D01*
X175563Y210893D01*
X175534Y210790D01*
X175497Y210687D01*
X175469Y210603D01*
X175441Y210537D01*
X175422Y210481D01*
X175403Y210443D01*
X175385Y210415D01*
Y210406D01*
X175310Y210275D01*
X175225Y210144D01*
X175028Y209909D01*
X174813Y209712D01*
X174597Y209553D01*
X174410Y209422D01*
X174326Y209375D01*
X174251Y209328D01*
X174185Y209300D01*
X174138Y209272D01*
X174110Y209262D01*
X174100Y209253D01*
X173923Y209178D01*
X173744Y209122D01*
X173379Y209019D01*
X173023Y208944D01*
X172854Y208916D01*
X172685Y208897D01*
X172535Y208878D01*
X172395Y208859D01*
X172273Y208850D01*
X172160D01*
X172076Y208841D01*
X171954D01*
X171626Y208850D01*
X171317Y208878D01*
X171036Y208925D01*
X170764Y208981D01*
X170511Y209047D01*
X170286Y209122D01*
X170070Y209206D01*
X169883Y209291D01*
X169714Y209375D01*
X169574Y209459D01*
X169452Y209534D01*
X169349Y209600D01*
X169264Y209656D01*
X169208Y209703D01*
X169171Y209731D01*
X169161Y209740D01*
X168983Y209909D01*
X168824Y210097D01*
X168693Y210275D01*
X168580Y210462D01*
X168477Y210640D01*
X168393Y210818D01*
X168327Y210996D01*
X168271Y211165D01*
X168233Y211315D01*
X168205Y211456D01*
X168177Y211587D01*
X168168Y211690D01*
X168158Y211784D01*
X168149Y211849D01*
Y211887D01*
Y211905D01*
X168158Y212093D01*
X168177Y212271D01*
X168214Y212440D01*
X168252Y212609D01*
X168308Y212758D01*
X168365Y212890D01*
X168421Y213021D01*
X168486Y213133D01*
X168552Y213236D01*
X168608Y213330D01*
X168664Y213405D01*
X168721Y213471D01*
X168758Y213527D01*
X168796Y213564D01*
X168814Y213583D01*
X168824Y213593D01*
X168927Y213677D01*
X169049Y213771D01*
X169189Y213864D01*
X169349Y213967D01*
X169517Y214061D01*
X169695Y214155D01*
X170052Y214342D01*
X170230Y214427D01*
X170389Y214502D01*
X170539Y214577D01*
X170679Y214633D01*
X170783Y214689D01*
X170867Y214727D01*
X170923Y214745D01*
X170933Y214755D01*
X170942D01*
X171139Y214839D01*
X171317Y214923D01*
X171476Y214998D01*
X171626Y215074D01*
X171757Y215139D01*
X171870Y215205D01*
X171973Y215261D01*
X172057Y215308D01*
X172132Y215355D01*
X172198Y215392D01*
X172254Y215430D01*
X172292Y215458D01*
X172320Y215476D01*
X172339Y215495D01*
X172357Y215505D01*
X172460Y215608D01*
X172545Y215730D01*
X172601Y215842D01*
X172638Y215945D01*
X172657Y216048D01*
X172666Y216123D01*
X172676Y216170D01*
Y216189D01*
X172657Y216348D01*
X172620Y216489D01*
X172563Y216611D01*
X172498Y216723D01*
X172442Y216807D01*
X172385Y216864D01*
X172348Y216910D01*
X172329Y216920D01*
X172254Y216967D01*
X172179Y217014D01*
X172001Y217089D01*
X171804Y217135D01*
X171617Y217173D01*
X171439Y217192D01*
X171364Y217201D01*
X171289Y217210D01*
X171008D01*
X170867Y217192D01*
X170736Y217173D01*
X170605Y217154D01*
X170492Y217126D01*
X170389Y217089D01*
X170305Y217060D01*
X170220Y217023D01*
X170145Y216985D01*
X170080Y216957D01*
X170023Y216920D01*
X169977Y216892D01*
X169949Y216873D01*
X169920Y216854D01*
X169902Y216835D01*
X169752Y216686D01*
X169639Y216517D01*
X169555Y216339D01*
X169489Y216170D01*
X169442Y216020D01*
X169424Y215954D01*
X169414Y215898D01*
X169405Y215851D01*
X169396Y215814D01*
Y215795D01*
Y215786D01*
X167502Y215870D01*
X167530Y216114D01*
X167577Y216339D01*
X167633Y216554D01*
X167699Y216751D01*
X167783Y216939D01*
X167868Y217117D01*
X167952Y217276D01*
X168046Y217417D01*
X168140Y217548D01*
X168224Y217660D01*
X168308Y217754D01*
X168374Y217838D01*
X168440Y217895D01*
X168486Y217941D01*
X168514Y217970D01*
X168524Y217979D01*
X168702Y218120D01*
X168899Y218241D01*
X169114Y218344D01*
X169321Y218438D01*
X169545Y218513D01*
X169761Y218579D01*
X169977Y218635D01*
X170183Y218673D01*
X170380Y218710D01*
X170558Y218738D01*
X170726Y218748D01*
X170867Y218766D01*
X170989D01*
X171073Y218776D01*
X171148D01*
X171448Y218766D01*
D02*
G37*
G36*
X198465Y216660D02*
X196591D01*
X196234Y218357D01*
X198118D01*
X198465Y216660D01*
D02*
G37*
G36*
X191417Y215864D02*
X191623Y215826D01*
X191829Y215779D01*
X192026Y215714D01*
X192214Y215639D01*
X192392Y215555D01*
X192560Y215461D01*
X192720Y215367D01*
X192870Y215273D01*
X192992Y215180D01*
X193113Y215095D01*
X193207Y215020D01*
X193282Y214955D01*
X193338Y214908D01*
X193376Y214870D01*
X193385Y214861D01*
X193216Y215714D01*
X194979D01*
X196431Y208750D01*
X194557D01*
X193891Y211946D01*
X193863Y212096D01*
X193826Y212227D01*
X193798Y212358D01*
X193779Y212462D01*
X193751Y212565D01*
X193732Y212649D01*
X193713Y212724D01*
X193694Y212790D01*
X193676Y212846D01*
X193666Y212893D01*
X193648Y212968D01*
X193629Y213005D01*
Y213015D01*
X193563Y213193D01*
X193488Y213361D01*
X193413Y213502D01*
X193348Y213614D01*
X193291Y213708D01*
X193245Y213783D01*
X193216Y213821D01*
X193207Y213839D01*
X193113Y213952D01*
X193010Y214055D01*
X192917Y214139D01*
X192832Y214214D01*
X192748Y214270D01*
X192692Y214308D01*
X192654Y214336D01*
X192635Y214345D01*
X192514Y214411D01*
X192401Y214458D01*
X192289Y214486D01*
X192195Y214514D01*
X192111Y214524D01*
X192054Y214533D01*
X191998D01*
X191886Y214524D01*
X191782Y214505D01*
X191689Y214477D01*
X191614Y214449D01*
X191558Y214411D01*
X191520Y214383D01*
X191492Y214364D01*
X191483Y214355D01*
X191417Y214280D01*
X191370Y214205D01*
X191342Y214130D01*
X191314Y214055D01*
X191304Y213999D01*
X191295Y213942D01*
Y213905D01*
Y213896D01*
Y213849D01*
X191304Y213792D01*
X191314Y213661D01*
X191342Y213502D01*
X191370Y213343D01*
X191398Y213202D01*
X191408Y213136D01*
X191417Y213071D01*
X191426Y213024D01*
X191436Y212986D01*
X191445Y212968D01*
Y212958D01*
X192317Y208750D01*
X190442D01*
X189786Y211899D01*
X189730Y212143D01*
X189674Y212368D01*
X189617Y212574D01*
X189561Y212771D01*
X189505Y212940D01*
X189439Y213090D01*
X189383Y213230D01*
X189336Y213352D01*
X189280Y213455D01*
X189233Y213549D01*
X189196Y213624D01*
X189158Y213680D01*
X189130Y213727D01*
X189111Y213755D01*
X189093Y213774D01*
Y213783D01*
X188989Y213914D01*
X188877Y214027D01*
X188774Y214130D01*
X188661Y214214D01*
X188558Y214289D01*
X188455Y214355D01*
X188352Y214402D01*
X188258Y214439D01*
X188090Y214495D01*
X188015Y214514D01*
X187959Y214524D01*
X187902Y214533D01*
X187837D01*
X187715Y214524D01*
X187602Y214505D01*
X187518Y214477D01*
X187443Y214449D01*
X187387Y214411D01*
X187340Y214383D01*
X187321Y214364D01*
X187312Y214355D01*
X187255Y214289D01*
X187209Y214214D01*
X187181Y214139D01*
X187152Y214064D01*
X187143Y213999D01*
X187134Y213942D01*
Y213905D01*
Y213896D01*
Y213867D01*
X187143Y213830D01*
X187152Y213774D01*
X187162Y213708D01*
X187190Y213568D01*
X187218Y213408D01*
X187246Y213258D01*
X187265Y213183D01*
X187274Y213118D01*
X187284Y213071D01*
X187293Y213033D01*
X187302Y213005D01*
Y212996D01*
X188202Y208750D01*
X186328D01*
X185418Y212996D01*
X185381Y213155D01*
X185353Y213305D01*
X185334Y213436D01*
X185306Y213558D01*
X185287Y213671D01*
X185278Y213774D01*
X185259Y213867D01*
X185250Y213942D01*
X185240Y214017D01*
X185231Y214074D01*
Y214121D01*
X185222Y214167D01*
Y214214D01*
Y214233D01*
X185231Y214364D01*
X185240Y214495D01*
X185297Y214730D01*
X185372Y214936D01*
X185456Y215105D01*
X185540Y215245D01*
X185578Y215292D01*
X185615Y215339D01*
X185643Y215376D01*
X185672Y215404D01*
X185681Y215414D01*
X185690Y215423D01*
X185784Y215498D01*
X185878Y215573D01*
X186093Y215686D01*
X186309Y215761D01*
X186515Y215817D01*
X186702Y215854D01*
X186787Y215864D01*
X186852D01*
X186909Y215873D01*
X186993D01*
X187265Y215854D01*
X187518Y215817D01*
X187762Y215761D01*
X187968Y215695D01*
X188062Y215658D01*
X188146Y215630D01*
X188221Y215601D01*
X188277Y215573D01*
X188333Y215555D01*
X188371Y215536D01*
X188390Y215517D01*
X188399D01*
X188633Y215376D01*
X188849Y215226D01*
X189027Y215086D01*
X189167Y214945D01*
X189289Y214823D01*
X189374Y214720D01*
X189402Y214683D01*
X189421Y214664D01*
X189439Y214645D01*
Y214636D01*
X189496Y214842D01*
X189580Y215020D01*
X189664Y215180D01*
X189758Y215311D01*
X189852Y215414D01*
X189927Y215489D01*
X189974Y215526D01*
X189983Y215545D01*
X189992D01*
X190161Y215658D01*
X190358Y215733D01*
X190564Y215789D01*
X190751Y215836D01*
X190930Y215854D01*
X191005Y215864D01*
X191070D01*
X191126Y215873D01*
X191201D01*
X191417Y215864D01*
D02*
G37*
G36*
X180704Y215854D02*
X181051Y215808D01*
X181369Y215733D01*
X181669Y215639D01*
X181941Y215526D01*
X182194Y215395D01*
X182429Y215264D01*
X182635Y215123D01*
X182813Y214983D01*
X182972Y214842D01*
X183113Y214711D01*
X183225Y214599D01*
X183310Y214505D01*
X183375Y214430D01*
X183413Y214383D01*
X183422Y214364D01*
X183563Y214149D01*
X183685Y213933D01*
X183788Y213717D01*
X183881Y213493D01*
X183956Y213277D01*
X184013Y213071D01*
X184069Y212865D01*
X184106Y212677D01*
X184144Y212499D01*
X184172Y212330D01*
X184181Y212190D01*
X184200Y212068D01*
Y211965D01*
X184209Y211890D01*
Y211843D01*
Y211824D01*
X184200Y211562D01*
X184172Y211299D01*
X184125Y211065D01*
X184069Y210840D01*
X184003Y210634D01*
X183938Y210437D01*
X183853Y210259D01*
X183769Y210100D01*
X183694Y209959D01*
X183610Y209828D01*
X183544Y209725D01*
X183469Y209631D01*
X183422Y209565D01*
X183375Y209509D01*
X183347Y209481D01*
X183338Y209472D01*
X183169Y209312D01*
X182982Y209181D01*
X182803Y209059D01*
X182607Y208966D01*
X182419Y208881D01*
X182222Y208806D01*
X182044Y208750D01*
X181866Y208703D01*
X181698Y208666D01*
X181538Y208638D01*
X181407Y208619D01*
X181285Y208609D01*
X181182Y208600D01*
X181117Y208591D01*
X181051D01*
X180863Y208600D01*
X180676Y208609D01*
X180329Y208666D01*
X180170Y208713D01*
X180020Y208750D01*
X179879Y208797D01*
X179748Y208844D01*
X179626Y208891D01*
X179523Y208937D01*
X179429Y208984D01*
X179345Y209022D01*
X179289Y209050D01*
X179242Y209078D01*
X179214Y209087D01*
X179204Y209097D01*
X179055Y209200D01*
X178914Y209303D01*
X178652Y209547D01*
X178426Y209800D01*
X178323Y209922D01*
X178230Y210043D01*
X178155Y210165D01*
X178080Y210268D01*
X178023Y210362D01*
X177977Y210446D01*
X177930Y210521D01*
X177902Y210568D01*
X177892Y210606D01*
X177883Y210615D01*
X179570Y210896D01*
X179673Y210728D01*
X179785Y210578D01*
X179898Y210446D01*
X180020Y210334D01*
X180142Y210250D01*
X180264Y210165D01*
X180385Y210100D01*
X180498Y210053D01*
X180610Y210015D01*
X180713Y209978D01*
X180807Y209959D01*
X180882Y209950D01*
X180948Y209940D01*
X181004Y209931D01*
X181042D01*
X181145Y209940D01*
X181248Y209950D01*
X181426Y209997D01*
X181595Y210062D01*
X181735Y210147D01*
X181847Y210222D01*
X181932Y210287D01*
X181988Y210334D01*
X181998Y210353D01*
X182007D01*
X182138Y210521D01*
X182232Y210709D01*
X182307Y210887D01*
X182354Y211065D01*
X182382Y211224D01*
X182391Y211290D01*
Y211356D01*
X182400Y211402D01*
Y211440D01*
Y211459D01*
Y211468D01*
Y211524D01*
X182391Y211581D01*
Y211627D01*
Y211646D01*
X177677D01*
X177630Y211852D01*
X177602Y212068D01*
X177574Y212274D01*
X177564Y212462D01*
X177555Y212621D01*
X177546Y212696D01*
Y212752D01*
Y212799D01*
Y212836D01*
Y212855D01*
Y212865D01*
X177555Y213127D01*
X177574Y213371D01*
X177611Y213596D01*
X177667Y213811D01*
X177724Y214008D01*
X177789Y214195D01*
X177855Y214355D01*
X177920Y214505D01*
X177995Y214636D01*
X178061Y214748D01*
X178127Y214852D01*
X178183Y214936D01*
X178230Y214992D01*
X178267Y215039D01*
X178295Y215067D01*
X178305Y215077D01*
X178455Y215217D01*
X178605Y215339D01*
X178773Y215442D01*
X178942Y215536D01*
X179111Y215611D01*
X179279Y215676D01*
X179439Y215733D01*
X179598Y215770D01*
X179757Y215808D01*
X179889Y215836D01*
X180020Y215845D01*
X180123Y215864D01*
X180217D01*
X180282Y215873D01*
X180338D01*
X180704Y215854D01*
D02*
G37*
G36*
X208250Y208750D02*
X201380D01*
X201043Y210353D01*
X205944D01*
X204276Y218357D01*
X206244D01*
X208250Y208750D01*
D02*
G37*
G36*
X200115D02*
X198240D01*
X196787Y215714D01*
X198662D01*
X200115Y208750D01*
D02*
G37*
G36*
X148018Y205394D02*
X148253Y205366D01*
X148468Y205329D01*
X148665Y205273D01*
X148862Y205207D01*
X149040Y205132D01*
X149209Y205057D01*
X149359Y204982D01*
X149490Y204898D01*
X149612Y204823D01*
X149715Y204748D01*
X149799Y204682D01*
X149865Y204626D01*
X149921Y204588D01*
X149949Y204560D01*
X149958Y204551D01*
X150062Y204438D01*
X150165Y204317D01*
X150352Y204054D01*
X150502Y203782D01*
X150633Y203520D01*
X150689Y203398D01*
X150736Y203286D01*
X150774Y203183D01*
X150811Y203098D01*
X150830Y203023D01*
X150849Y202967D01*
X150868Y202929D01*
Y202920D01*
X149152Y202583D01*
X149115Y202714D01*
X149077Y202836D01*
X149040Y202948D01*
X148993Y203051D01*
X148909Y203220D01*
X148824Y203361D01*
X148759Y203473D01*
X148702Y203548D01*
X148656Y203595D01*
X148646Y203604D01*
X148524Y203707D01*
X148393Y203782D01*
X148271Y203829D01*
X148159Y203867D01*
X148065Y203885D01*
X147981Y203904D01*
X147915D01*
X147765Y203895D01*
X147625Y203867D01*
X147503Y203820D01*
X147409Y203773D01*
X147325Y203717D01*
X147268Y203679D01*
X147231Y203642D01*
X147222Y203632D01*
X147128Y203520D01*
X147062Y203398D01*
X147015Y203276D01*
X146987Y203164D01*
X146959Y203051D01*
X146950Y202967D01*
Y202911D01*
Y202901D01*
Y202892D01*
Y202770D01*
X146969Y202658D01*
X147015Y202451D01*
X147081Y202273D01*
X147147Y202123D01*
X147222Y202011D01*
X147287Y201926D01*
X147334Y201870D01*
X147344Y201861D01*
X147353Y201852D01*
X147512Y201730D01*
X147700Y201636D01*
X147887Y201570D01*
X148075Y201523D01*
X148234Y201495D01*
X148309Y201486D01*
X148375D01*
X148421Y201477D01*
X148562D01*
X148628Y201486D01*
X148684D01*
X149012Y199921D01*
X148899Y199940D01*
X148806Y199949D01*
X148712D01*
X148506Y199930D01*
X148318Y199893D01*
X148168Y199837D01*
X148037Y199780D01*
X147934Y199715D01*
X147859Y199658D01*
X147812Y199621D01*
X147793Y199602D01*
X147681Y199462D01*
X147597Y199312D01*
X147531Y199152D01*
X147493Y199002D01*
X147465Y198871D01*
X147456Y198759D01*
X147447Y198721D01*
Y198693D01*
Y198674D01*
Y198665D01*
Y198543D01*
X147465Y198421D01*
X147512Y198206D01*
X147587Y198018D01*
X147662Y197859D01*
X147737Y197728D01*
X147812Y197634D01*
X147840Y197606D01*
X147859Y197578D01*
X147868Y197568D01*
X147878Y197559D01*
X147962Y197484D01*
X148046Y197418D01*
X148224Y197306D01*
X148393Y197231D01*
X148562Y197184D01*
X148712Y197146D01*
X148778Y197137D01*
X148834D01*
X148871Y197128D01*
X148937D01*
X149115Y197137D01*
X149265Y197175D01*
X149396Y197222D01*
X149509Y197278D01*
X149602Y197325D01*
X149668Y197372D01*
X149705Y197409D01*
X149724Y197418D01*
X149780Y197484D01*
X149827Y197549D01*
X149912Y197709D01*
X149977Y197887D01*
X150033Y198065D01*
X150071Y198224D01*
X150080Y198299D01*
X150099Y198365D01*
X150108Y198412D01*
Y198449D01*
X150118Y198477D01*
Y198487D01*
X151917Y198262D01*
X151880Y198027D01*
X151824Y197812D01*
X151767Y197606D01*
X151692Y197418D01*
X151617Y197240D01*
X151542Y197081D01*
X151458Y196931D01*
X151374Y196800D01*
X151299Y196678D01*
X151214Y196575D01*
X151149Y196490D01*
X151083Y196416D01*
X151036Y196359D01*
X150999Y196322D01*
X150971Y196294D01*
X150961Y196284D01*
X150811Y196162D01*
X150652Y196059D01*
X150483Y195966D01*
X150315Y195881D01*
X150146Y195816D01*
X149977Y195759D01*
X149818Y195713D01*
X149658Y195675D01*
X149518Y195647D01*
X149387Y195628D01*
X149265Y195609D01*
X149162Y195600D01*
X149077D01*
X149012Y195591D01*
X148956D01*
X148656Y195600D01*
X148375Y195647D01*
X148112Y195703D01*
X147859Y195778D01*
X147625Y195872D01*
X147400Y195975D01*
X147203Y196087D01*
X147025Y196200D01*
X146856Y196312D01*
X146715Y196425D01*
X146594Y196528D01*
X146491Y196622D01*
X146406Y196697D01*
X146350Y196753D01*
X146313Y196800D01*
X146303Y196809D01*
X146172Y196978D01*
X146050Y197146D01*
X145947Y197325D01*
X145863Y197493D01*
X145788Y197653D01*
X145731Y197821D01*
X145675Y197971D01*
X145638Y198121D01*
X145610Y198253D01*
X145581Y198374D01*
X145563Y198487D01*
X145553Y198580D01*
Y198655D01*
X145544Y198712D01*
Y198749D01*
Y198759D01*
X145553Y198965D01*
X145591Y199162D01*
X145638Y199340D01*
X145684Y199499D01*
X145741Y199640D01*
X145788Y199743D01*
X145806Y199780D01*
X145825Y199808D01*
X145835Y199818D01*
Y199827D01*
X145956Y200014D01*
X146097Y200174D01*
X146247Y200315D01*
X146397Y200436D01*
X146528Y200530D01*
X146631Y200605D01*
X146678Y200633D01*
X146706Y200643D01*
X146725Y200661D01*
X146734D01*
X146462Y200783D01*
X146219Y200914D01*
X146013Y201064D01*
X145844Y201205D01*
X145703Y201336D01*
X145647Y201392D01*
X145610Y201448D01*
X145572Y201486D01*
X145544Y201514D01*
X145535Y201533D01*
X145525Y201542D01*
X145450Y201655D01*
X145375Y201777D01*
X145272Y202011D01*
X145188Y202236D01*
X145141Y202442D01*
X145122Y202536D01*
X145103Y202630D01*
X145094Y202705D01*
Y202770D01*
X145085Y202817D01*
Y202864D01*
Y202883D01*
Y202892D01*
X145094Y203079D01*
X145113Y203267D01*
X145150Y203435D01*
X145197Y203604D01*
X145244Y203764D01*
X145300Y203904D01*
X145366Y204045D01*
X145431Y204167D01*
X145497Y204279D01*
X145563Y204373D01*
X145619Y204457D01*
X145666Y204532D01*
X145713Y204588D01*
X145750Y204626D01*
X145769Y204654D01*
X145778Y204663D01*
X145910Y204795D01*
X146059Y204907D01*
X146219Y205010D01*
X146378Y205095D01*
X146547Y205160D01*
X146715Y205226D01*
X146875Y205273D01*
X147034Y205310D01*
X147193Y205338D01*
X147334Y205366D01*
X147456Y205385D01*
X147568Y205394D01*
X147653Y205404D01*
X147784D01*
X148018Y205394D01*
D02*
G37*
G36*
X158347Y205151D02*
X158628Y204898D01*
X158928Y204663D01*
X159237Y204429D01*
X159547Y204214D01*
X159856Y204007D01*
X160165Y203820D01*
X160465Y203642D01*
X160746Y203492D01*
X161009Y203351D01*
X161243Y203229D01*
X161440Y203126D01*
X161534Y203079D01*
X161609Y203042D01*
X161674Y203014D01*
X161740Y202986D01*
X161777Y202967D01*
X161815Y202948D01*
X161833Y202939D01*
X161843D01*
X162199Y201261D01*
X161965Y201317D01*
X161730Y201383D01*
X161506Y201458D01*
X161290Y201523D01*
X161196Y201561D01*
X161103Y201598D01*
X161028Y201627D01*
X160962Y201655D01*
X160906Y201674D01*
X160868Y201692D01*
X160840Y201702D01*
X160831D01*
X160550Y201823D01*
X160296Y201945D01*
X160062Y202058D01*
X159865Y202170D01*
X159772Y202217D01*
X159697Y202264D01*
X159631Y202301D01*
X159575Y202330D01*
X159528Y202358D01*
X159500Y202376D01*
X159481Y202395D01*
X159472D01*
X160859Y195750D01*
X158966D01*
X156950Y205413D01*
X158084D01*
X158347Y205151D01*
D02*
G37*
G36*
X168863Y195750D02*
X167241D01*
X162958Y202714D01*
X164992D01*
X166726Y199771D01*
X166745Y199733D01*
X166773Y199687D01*
X166801Y199630D01*
X166838Y199565D01*
X166914Y199415D01*
X166998Y199265D01*
X167082Y199115D01*
X167120Y199049D01*
X167148Y198993D01*
X167176Y198937D01*
X167195Y198899D01*
X167204Y198881D01*
X167213Y198871D01*
X167279Y198740D01*
X167345Y198627D01*
X167401Y198524D01*
X167448Y198431D01*
X167495Y198356D01*
X167532Y198290D01*
X167560Y198224D01*
X167588Y198178D01*
X167635Y198112D01*
X167654Y198065D01*
X167673Y198046D01*
Y198037D01*
X167682Y198121D01*
X167701Y198224D01*
X167710Y198337D01*
X167729Y198459D01*
X167766Y198731D01*
X167813Y199002D01*
X167832Y199133D01*
X167851Y199255D01*
X167869Y199368D01*
X167888Y199471D01*
X167898Y199555D01*
X167907Y199611D01*
X167916Y199658D01*
Y199668D01*
X168404Y202714D01*
X170250D01*
X168863Y195750D01*
D02*
G37*
G36*
X155751D02*
X153886D01*
X153501Y197568D01*
X155366D01*
X155751Y195750D01*
D02*
G37*
G36*
X205264Y200586D02*
X209500Y195750D01*
X206941D01*
X205629Y197193D01*
X205442Y197400D01*
X205273Y197596D01*
X205123Y197775D01*
X204992Y197924D01*
X204870Y198065D01*
X204767Y198196D01*
X204673Y198309D01*
X204589Y198402D01*
X204523Y198487D01*
X204467Y198552D01*
X204429Y198609D01*
X204392Y198655D01*
X204364Y198693D01*
X204345Y198712D01*
X204336Y198731D01*
X204298Y198637D01*
X204251Y198524D01*
X204195Y198402D01*
X204139Y198281D01*
X204017Y198018D01*
X203886Y197756D01*
X203820Y197634D01*
X203764Y197521D01*
X203717Y197418D01*
X203670Y197325D01*
X203633Y197250D01*
X203605Y197193D01*
X203586Y197156D01*
X203577Y197146D01*
X202836Y195750D01*
X200606D01*
X202967Y200305D01*
X198572Y205357D01*
X201084D01*
X202583Y203679D01*
X202789Y203445D01*
X203014Y203183D01*
X203239Y202920D01*
X203445Y202676D01*
X203549Y202564D01*
X203633Y202461D01*
X203717Y202367D01*
X203783Y202283D01*
X203839Y202217D01*
X203877Y202170D01*
X203905Y202133D01*
X203914Y202123D01*
X203942Y202189D01*
X203970Y202245D01*
X203989Y202283D01*
X203998Y202292D01*
X204102Y202508D01*
X204195Y202695D01*
X204280Y202864D01*
X204355Y203004D01*
X204411Y203126D01*
X204467Y203239D01*
X204514Y203323D01*
X204542Y203398D01*
X204580Y203454D01*
X204598Y203501D01*
X204617Y203539D01*
X204626Y203557D01*
X204645Y203585D01*
Y203595D01*
X205592Y205357D01*
X207644D01*
X205264Y200586D01*
D02*
G37*
G36*
X178421D02*
X182657Y195750D01*
X180098D01*
X178786Y197193D01*
X178599Y197400D01*
X178430Y197596D01*
X178280Y197775D01*
X178149Y197924D01*
X178027Y198065D01*
X177924Y198196D01*
X177830Y198309D01*
X177746Y198402D01*
X177680Y198487D01*
X177624Y198552D01*
X177586Y198609D01*
X177549Y198655D01*
X177521Y198693D01*
X177502Y198712D01*
X177493Y198731D01*
X177455Y198637D01*
X177408Y198524D01*
X177352Y198402D01*
X177296Y198281D01*
X177174Y198018D01*
X177043Y197756D01*
X176977Y197634D01*
X176921Y197521D01*
X176874Y197418D01*
X176827Y197325D01*
X176790Y197250D01*
X176762Y197193D01*
X176743Y197156D01*
X176733Y197146D01*
X175993Y195750D01*
X173762D01*
X176124Y200305D01*
X171728Y205357D01*
X174240D01*
X175740Y203679D01*
X175946Y203445D01*
X176171Y203183D01*
X176396Y202920D01*
X176602Y202676D01*
X176705Y202564D01*
X176790Y202461D01*
X176874Y202367D01*
X176940Y202283D01*
X176996Y202217D01*
X177033Y202170D01*
X177062Y202133D01*
X177071Y202123D01*
X177099Y202189D01*
X177127Y202245D01*
X177146Y202283D01*
X177155Y202292D01*
X177258Y202508D01*
X177352Y202695D01*
X177436Y202864D01*
X177511Y203004D01*
X177568Y203126D01*
X177624Y203239D01*
X177671Y203323D01*
X177699Y203398D01*
X177736Y203454D01*
X177755Y203501D01*
X177774Y203539D01*
X177783Y203557D01*
X177802Y203585D01*
Y203595D01*
X178749Y205357D01*
X180801D01*
X178421Y200586D01*
D02*
G37*
G36*
X198525Y203754D02*
X195722D01*
X197391Y195750D01*
X195422D01*
X193754Y203754D01*
X190952D01*
X190614Y205357D01*
X198187D01*
X198525Y203754D01*
D02*
G37*
G36*
X191345Y195750D02*
X189377D01*
X188543Y199733D01*
X187615D01*
X187493Y199724D01*
X187287Y199705D01*
X187128Y199668D01*
X186987Y199640D01*
X186884Y199602D01*
X186818Y199565D01*
X186772Y199546D01*
X186762Y199536D01*
X186678Y199471D01*
X186593Y199396D01*
X186509Y199302D01*
X186434Y199209D01*
X186284Y199002D01*
X186153Y198787D01*
X186040Y198590D01*
X186003Y198505D01*
X185965Y198431D01*
X185928Y198365D01*
X185909Y198318D01*
X185891Y198290D01*
Y198281D01*
X185759Y197971D01*
X185637Y197681D01*
X185525Y197409D01*
X185422Y197156D01*
X185328Y196931D01*
X185244Y196725D01*
X185178Y196537D01*
X185113Y196369D01*
X185056Y196219D01*
X185009Y196097D01*
X184972Y195994D01*
X184944Y195900D01*
X184916Y195834D01*
X184897Y195788D01*
X184888Y195759D01*
Y195750D01*
X182760D01*
X182910Y196125D01*
X183060Y196472D01*
X183201Y196809D01*
X183332Y197109D01*
X183463Y197400D01*
X183585Y197662D01*
X183697Y197896D01*
X183810Y198112D01*
X183904Y198299D01*
X183988Y198468D01*
X184063Y198609D01*
X184128Y198721D01*
X184175Y198815D01*
X184213Y198871D01*
X184232Y198918D01*
X184241Y198927D01*
X184363Y199124D01*
X184494Y199302D01*
X184606Y199462D01*
X184719Y199593D01*
X184813Y199687D01*
X184888Y199762D01*
X184935Y199808D01*
X184953Y199827D01*
X184681Y199874D01*
X184428Y199921D01*
X184194Y199986D01*
X183979Y200061D01*
X183782Y200136D01*
X183594Y200221D01*
X183435Y200305D01*
X183285Y200389D01*
X183154Y200474D01*
X183041Y200549D01*
X182948Y200624D01*
X182873Y200680D01*
X182807Y200736D01*
X182770Y200774D01*
X182741Y200802D01*
X182732Y200811D01*
X182601Y200961D01*
X182488Y201130D01*
X182385Y201299D01*
X182301Y201467D01*
X182235Y201636D01*
X182170Y201805D01*
X182123Y201964D01*
X182085Y202123D01*
X182057Y202273D01*
X182029Y202404D01*
X182010Y202526D01*
X182001Y202630D01*
X181992Y202714D01*
Y202780D01*
Y202826D01*
Y202836D01*
X182010Y203145D01*
X182048Y203426D01*
X182113Y203679D01*
X182151Y203792D01*
X182179Y203895D01*
X182216Y203979D01*
X182254Y204063D01*
X182282Y204129D01*
X182320Y204195D01*
X182338Y204242D01*
X182357Y204270D01*
X182376Y204288D01*
Y204298D01*
X182526Y204504D01*
X182685Y204682D01*
X182854Y204823D01*
X183013Y204935D01*
X183154Y205019D01*
X183210Y205057D01*
X183266Y205076D01*
X183313Y205095D01*
X183341Y205113D01*
X183360Y205123D01*
X183369D01*
X183491Y205160D01*
X183613Y205198D01*
X183894Y205254D01*
X184175Y205301D01*
X184447Y205329D01*
X184578Y205338D01*
X184700Y205347D01*
X184803D01*
X184897Y205357D01*
X189340D01*
X191345Y195750D01*
D02*
G37*
%LPC*%
G36*
X163397Y217023D02*
X162094D01*
X161954Y217014D01*
X161813D01*
X161691Y217004D01*
X161588Y216995D01*
X161485Y216985D01*
X161391Y216976D01*
X161316Y216967D01*
X161251Y216948D01*
X161194Y216939D01*
X161138Y216929D01*
X161101Y216920D01*
X161054Y216910D01*
X161035Y216901D01*
X160857Y216826D01*
X160698Y216723D01*
X160567Y216611D01*
X160445Y216498D01*
X160351Y216386D01*
X160276Y216301D01*
X160257Y216264D01*
X160238Y216236D01*
X160220Y216226D01*
Y216217D01*
X160163Y216114D01*
X160107Y216001D01*
X160023Y215758D01*
X159967Y215505D01*
X159920Y215252D01*
X159910Y215139D01*
X159901Y215027D01*
X159892Y214933D01*
Y214848D01*
X159882Y214774D01*
Y214727D01*
Y214689D01*
Y214680D01*
Y214455D01*
X159901Y214249D01*
X159920Y214042D01*
X159948Y213846D01*
X159976Y213668D01*
X160014Y213489D01*
X160042Y213330D01*
X160079Y213190D01*
X160117Y213049D01*
X160154Y212936D01*
X160192Y212833D01*
X160220Y212749D01*
X160248Y212683D01*
X160267Y212627D01*
X160276Y212599D01*
X160285Y212590D01*
X160445Y212280D01*
X160613Y211999D01*
X160688Y211868D01*
X160773Y211756D01*
X160857Y211653D01*
X160932Y211549D01*
X160998Y211465D01*
X161063Y211390D01*
X161119Y211324D01*
X161176Y211268D01*
X161213Y211231D01*
X161241Y211203D01*
X161260Y211184D01*
X161269Y211175D01*
X161429Y211053D01*
X161588Y210940D01*
X161738Y210856D01*
X161869Y210790D01*
X161991Y210743D01*
X162085Y210706D01*
X162122Y210697D01*
X162150Y210687D01*
X162160Y210678D01*
X162169D01*
X162263Y210659D01*
X162375Y210631D01*
X162619Y210603D01*
X162882Y210575D01*
X163135Y210565D01*
X163256Y210556D01*
X163378D01*
X163472Y210546D01*
X164756D01*
X163397Y217023D01*
D02*
G37*
G36*
X153706Y217004D02*
X151363D01*
X151222Y216995D01*
X151091Y216985D01*
X150978Y216976D01*
X150875Y216967D01*
X150781Y216957D01*
X150697Y216939D01*
X150632Y216929D01*
X150566Y216910D01*
X150519Y216892D01*
X150444Y216873D01*
X150397Y216854D01*
X150388Y216845D01*
X150313Y216789D01*
X150247Y216732D01*
X150135Y216611D01*
X150060Y216479D01*
X150013Y216357D01*
X149976Y216236D01*
X149966Y216142D01*
X149957Y216104D01*
Y216076D01*
Y216067D01*
Y216058D01*
X149966Y215898D01*
X150004Y215739D01*
X150050Y215598D01*
X150107Y215467D01*
X150163Y215355D01*
X150210Y215280D01*
X150247Y215223D01*
X150257Y215214D01*
Y215205D01*
X150379Y215064D01*
X150510Y214942D01*
X150650Y214839D01*
X150781Y214755D01*
X150903Y214699D01*
X150997Y214652D01*
X151035Y214633D01*
X151053Y214624D01*
X151072Y214614D01*
X151081D01*
X151194Y214586D01*
X151316Y214549D01*
X151466Y214530D01*
X151625Y214502D01*
X151803Y214492D01*
X151972Y214474D01*
X152328Y214455D01*
X152497Y214445D01*
X152656Y214436D01*
X152806D01*
X152937Y214427D01*
X154240D01*
X153706Y217004D01*
D02*
G37*
G36*
X180592Y214533D02*
X180535D01*
X180329Y214514D01*
X180142Y214467D01*
X179982Y214411D01*
X179851Y214336D01*
X179748Y214261D01*
X179673Y214205D01*
X179626Y214158D01*
X179608Y214139D01*
X179495Y213980D01*
X179411Y213792D01*
X179345Y213605D01*
X179307Y213418D01*
X179279Y213239D01*
X179270Y213174D01*
Y213108D01*
X179261Y213052D01*
Y213015D01*
Y212986D01*
Y212977D01*
Y212921D01*
Y212855D01*
Y212808D01*
Y212799D01*
Y212790D01*
X182204D01*
X182166Y212949D01*
X182129Y213090D01*
X182091Y213230D01*
X182035Y213352D01*
X181988Y213464D01*
X181941Y213577D01*
X181885Y213671D01*
X181838Y213755D01*
X181782Y213830D01*
X181735Y213896D01*
X181698Y213952D01*
X181660Y213999D01*
X181632Y214036D01*
X181604Y214064D01*
X181595Y214074D01*
X181585Y214083D01*
X181491Y214158D01*
X181407Y214233D01*
X181220Y214345D01*
X181051Y214420D01*
X180882Y214477D01*
X180742Y214514D01*
X180685Y214524D01*
X180629D01*
X180592Y214533D01*
D02*
G37*
G36*
X187709Y203754D02*
X185366D01*
X185225Y203745D01*
X185094Y203736D01*
X184981Y203726D01*
X184878Y203717D01*
X184785Y203707D01*
X184700Y203689D01*
X184635Y203679D01*
X184569Y203661D01*
X184522Y203642D01*
X184447Y203623D01*
X184400Y203604D01*
X184391Y203595D01*
X184316Y203539D01*
X184250Y203482D01*
X184138Y203361D01*
X184063Y203229D01*
X184016Y203107D01*
X183979Y202986D01*
X183969Y202892D01*
X183960Y202854D01*
Y202826D01*
Y202817D01*
Y202808D01*
X183969Y202648D01*
X184007Y202489D01*
X184053Y202348D01*
X184110Y202217D01*
X184166Y202105D01*
X184213Y202030D01*
X184250Y201973D01*
X184260Y201964D01*
Y201955D01*
X184382Y201814D01*
X184513Y201692D01*
X184653Y201589D01*
X184785Y201505D01*
X184906Y201448D01*
X185000Y201402D01*
X185038Y201383D01*
X185056Y201374D01*
X185075Y201364D01*
X185084D01*
X185197Y201336D01*
X185319Y201299D01*
X185469Y201280D01*
X185628Y201252D01*
X185806Y201242D01*
X185975Y201224D01*
X186331Y201205D01*
X186500Y201196D01*
X186659Y201186D01*
X186809D01*
X186940Y201177D01*
X188243D01*
X187709Y203754D01*
D02*
G37*
%LPD*%
D10*
X15570Y54450D02*
G03*
X15570Y54450I-1270J0D01*
G01*
Y85950D02*
G03*
X15570Y85950I-1270J0D01*
G01*
D12*
X293309Y292750D02*
G03*
X293309Y292750I-559J0D01*
G01*
X91275Y62529D02*
G03*
X91275Y62529I-353J0D01*
G01*
X14559Y133000D02*
G03*
X14559Y133000I-559J0D01*
G01*
X26077Y256750D02*
G03*
X26077Y256750I-327J0D01*
G01*
X32000Y249000D02*
G03*
X32000Y249000I-250J0D01*
G01*
X383559Y24250D02*
G03*
X383559Y24250I-559J0D01*
G01*
X9750Y230000D02*
X15750D01*
X9750Y224000D02*
Y230000D01*
Y224000D02*
X15750Y230000D01*
X9750Y184000D02*
Y190000D01*
Y184000D02*
X15750D01*
X55750D02*
Y190000D01*
X49750Y184000D02*
X55750D01*
Y224000D02*
Y230000D01*
X49750D02*
X55750D01*
X174250Y241500D02*
X214250D01*
X174250Y295500D02*
X214250D01*
X353645Y201500D02*
Y210500D01*
X344645D02*
X353645D01*
Y85500D02*
Y94500D01*
X344645Y85500D02*
X353645D01*
X228645D02*
X237645D01*
X228645D02*
Y94500D01*
Y210500D02*
X237645D01*
X228645Y201500D02*
Y210500D01*
X45778Y143850D02*
Y153150D01*
X41128Y148500D02*
X114667Y222039D01*
X114667Y74961D02*
X188206Y148500D01*
X41128D02*
X114667Y74961D01*
X114667Y222039D02*
X188206Y148500D01*
X429000Y72250D02*
Y81750D01*
Y72250D02*
X450460D01*
X429000Y138250D02*
X450460D01*
X429000Y128750D02*
Y138250D01*
X73500Y244500D02*
X135500D01*
Y294500D01*
X73500Y244500D02*
Y290500D01*
X77500Y294500D01*
X135500D01*
X429000Y158750D02*
Y168250D01*
Y158750D02*
X450460D01*
X429000Y224750D02*
X450460D01*
X429000Y215250D02*
Y224750D01*
X-2835Y250332D02*
X-1503Y248999D01*
Y246333D01*
X-2835Y245000D01*
X-8167D01*
X-9500Y246333D01*
Y248999D01*
X-8167Y250332D01*
X-5501D01*
Y247666D01*
X-9500Y252997D02*
X-1503D01*
Y256996D01*
X-2835Y258329D01*
X-5501D01*
X-6834Y256996D01*
Y252997D01*
X-1503Y260995D02*
Y263661D01*
Y262328D01*
X-9500D01*
Y260995D01*
Y263661D01*
X-1503Y271658D02*
Y268992D01*
X-2835Y267659D01*
X-8167D01*
X-9500Y268992D01*
Y271658D01*
X-8167Y272991D01*
X-2835D01*
X-1503Y271658D01*
X230160Y117750D02*
X222163D01*
Y123082D01*
Y125747D02*
X230160D01*
X227495Y128413D01*
X230160Y131079D01*
X222163D01*
X228827Y139076D02*
X230160Y137744D01*
Y135078D01*
X228827Y133745D01*
X227495D01*
X226162Y135078D01*
Y137744D01*
X224829Y139076D01*
X223496D01*
X222163Y137744D01*
Y135078D01*
X223496Y133745D01*
X230160Y141742D02*
Y147074D01*
X228827D01*
X223496Y141742D01*
X222163D01*
X228827Y149740D02*
X230160Y151073D01*
Y153738D01*
X228827Y155071D01*
X223496D01*
X222163Y153738D01*
Y151073D01*
X223496Y149740D01*
X228827D01*
Y157737D02*
X230160Y159070D01*
Y161736D01*
X228827Y163069D01*
X223496D01*
X222163Y161736D01*
Y159070D01*
X223496Y157737D01*
X228827D01*
X222163Y171066D02*
Y165735D01*
X227495Y171066D01*
X228827D01*
X230160Y169733D01*
Y167067D01*
X228827Y165735D01*
X222163Y173732D02*
X230160D01*
X227495Y176398D01*
X230160Y179063D01*
X222163D01*
X-9374Y99012D02*
X-4042D01*
Y100345D01*
X-5375Y101677D01*
X-9374D01*
X-5375D01*
X-4042Y103010D01*
X-5375Y104343D01*
X-9374D01*
Y107009D02*
X-1376D01*
Y111008D01*
X-2709Y112341D01*
X-5375D01*
X-6708Y111008D01*
Y107009D01*
X-2709Y120338D02*
X-1376Y119005D01*
Y116339D01*
X-2709Y115007D01*
X-8041D01*
X-9374Y116339D01*
Y119005D01*
X-8041Y120338D01*
X-1376Y123004D02*
Y125670D01*
Y124337D01*
X-9374D01*
Y123004D01*
Y125670D01*
Y133667D02*
Y131001D01*
X-8041Y129668D01*
X-5375D01*
X-4042Y131001D01*
Y133667D01*
X-5375Y135000D01*
X-6708D01*
Y129668D01*
X146747Y258832D02*
Y256166D01*
Y257499D01*
X140083D01*
X138750Y256166D01*
Y254833D01*
X140083Y253500D01*
X146747Y261497D02*
Y266829D01*
Y264163D01*
X138750D01*
Y269495D02*
X144082D01*
X146747Y272161D01*
X144082Y274827D01*
X138750D01*
X142749D01*
Y269495D01*
X145414Y282824D02*
X146747Y281491D01*
Y278825D01*
X145414Y277492D01*
X140083D01*
X138750Y278825D01*
Y281491D01*
X140083Y282824D01*
X142749D01*
Y280158D01*
X438747Y141999D02*
X430750D01*
Y145997D01*
X432083Y147330D01*
X433416D01*
X434749Y145997D01*
Y141999D01*
Y145997D01*
X436082Y147330D01*
X437415D01*
X438747Y145997D01*
Y141999D01*
Y149996D02*
X430750D01*
Y153995D01*
X432083Y155328D01*
X433416D01*
X434749Y153995D01*
Y149996D01*
Y153995D01*
X436082Y155328D01*
X437415D01*
X438747Y153995D01*
Y149996D01*
D13*
X27250Y141750D02*
G03*
X27250Y141750I-500J0D01*
G01*
X29500Y142250D02*
X39500D01*
X29500Y158250D02*
X39500D01*
X95164Y62176D02*
X111074Y78085D01*
X79255D02*
X95164Y62176D01*
X79255Y78085D02*
X95164Y93995D01*
X111074Y78085D01*
X14000Y117675D02*
Y122000D01*
X37500Y117675D02*
Y122000D01*
Y131000D02*
Y135325D01*
X13250Y258750D02*
Y294750D01*
Y258750D02*
X22000D01*
X64500D02*
X73250D01*
Y294750D01*
X109250Y4500D02*
X129250D01*
X109250D02*
Y28500D01*
X129250D01*
Y4500D02*
Y28500D01*
X408000Y149000D02*
X413375Y146250D01*
Y149000D01*
X408000D02*
X413375D01*
X388625D02*
X394000Y149000D01*
X388625Y146250D02*
X388625Y149000D01*
X388625Y124000D02*
Y126750D01*
Y124000D02*
X394000D01*
X408000Y124000D02*
X413375Y124000D01*
Y126750D01*
X386500Y284750D02*
X390500Y280750D01*
Y284750D01*
X386500D02*
X390500D01*
X366500D02*
X370500D01*
X366500Y280750D02*
Y284750D01*
Y260750D02*
Y264750D01*
Y260750D02*
X370500D01*
X386500D02*
X390500D01*
Y264750D01*
X395577Y83295D02*
X396827D01*
X395577Y72795D02*
Y83295D01*
Y72795D02*
X396827D01*
X412827Y83295D02*
X414077D01*
X412827Y72795D02*
X414077D01*
Y80545D02*
Y83295D01*
Y72795D02*
Y75545D01*
X15000Y233750D02*
Y251750D01*
X29000D01*
Y233750D02*
Y251750D01*
X15000Y233750D02*
X29000D01*
X383500Y7500D02*
Y33500D01*
X403500D01*
Y7500D02*
Y33500D01*
X383500Y7500D02*
X403500D01*
X22000Y66250D02*
Y76750D01*
X32500D01*
X22000Y66250D02*
X32500D01*
Y76750D01*
Y98000D02*
Y108500D01*
X22000Y98000D02*
X32500D01*
X22000Y108500D02*
X32500D01*
X22000Y98000D02*
Y108500D01*
X423760Y195250D02*
Y198000D01*
Y203000D02*
Y205750D01*
X422510Y195250D02*
X423760D01*
X422510Y205750D02*
X423760D01*
X405260Y195250D02*
X406510D01*
X405260D02*
Y205750D01*
X406510D01*
X401750Y232750D02*
Y236750D01*
X405750D01*
X421750D02*
X425750D01*
Y232750D02*
Y236750D01*
Y212750D02*
Y216750D01*
X421750Y212750D02*
X425750D01*
X401750D02*
X405750D01*
X401750D02*
Y216750D01*
X405750Y212750D01*
X342000Y292052D02*
X344750D01*
X334250D02*
X337000D01*
X344750Y290802D02*
Y292052D01*
X334250Y290802D02*
Y292052D01*
X344750Y273552D02*
Y274802D01*
X334250Y273552D02*
X344750D01*
X334250D02*
Y274802D01*
X142250Y57500D02*
X162250Y57500D01*
Y33500D02*
Y57500D01*
X142250Y33500D02*
X162250D01*
X142250D02*
Y57500D01*
X109250D02*
X129250Y57500D01*
Y33500D02*
Y57500D01*
X109250Y33500D02*
X129250D01*
X109250D02*
Y57500D01*
X142250Y4500D02*
X162250Y4500D01*
X142250Y4500D02*
Y28500D01*
X162250D01*
Y4500D02*
Y28500D01*
X266250Y33500D02*
Y57500D01*
Y33500D02*
X286250D01*
Y57500D01*
X266250D02*
X286250D01*
X232750Y4500D02*
X252750D01*
X232750D02*
Y28500D01*
X252750D01*
Y4500D02*
Y28500D01*
X266250Y4500D02*
X286250D01*
X266250D02*
Y28500D01*
X286250D01*
Y4500D02*
Y28500D01*
X232750Y57500D02*
X252750D01*
Y33500D02*
Y57500D01*
X232750Y33500D02*
X252750D01*
X232750D02*
Y57500D01*
X-750Y203000D02*
X-2583D01*
X-1666D01*
Y208498D01*
X-750Y207582D01*
X-8997Y208498D02*
X-7164Y207582D01*
X-5332Y205749D01*
Y203916D01*
X-6248Y203000D01*
X-8081D01*
X-8997Y203916D01*
Y204833D01*
X-8081Y205749D01*
X-5332D01*
X460667Y140250D02*
Y144915D01*
X458335Y147248D01*
X456002Y144915D01*
Y140250D01*
Y143749D01*
X460667D01*
X453669Y147248D02*
Y140250D01*
X450171D01*
X449004Y141416D01*
Y146081D01*
X450171Y147248D01*
X453669D01*
X442006Y146081D02*
X443173Y147248D01*
X445505D01*
X446672Y146081D01*
Y141416D01*
X445505Y140250D01*
X443173D01*
X442006Y141416D01*
X111998Y262417D02*
Y265749D01*
Y264083D01*
X107000D01*
X111165Y270747D02*
X111998Y269914D01*
Y268248D01*
X111165Y267415D01*
X107833D01*
X107000Y268248D01*
Y269914D01*
X107833Y270747D01*
X111998Y272413D02*
X107000D01*
X108666D01*
X111998Y275746D01*
X109499Y273246D01*
X107000Y275746D01*
X0Y167750D02*
X-1833D01*
X-916D01*
Y173248D01*
X0Y172332D01*
X-4582D02*
X-5498Y173248D01*
X-7331D01*
X-8247Y172332D01*
Y171416D01*
X-7331Y170499D01*
X-8247Y169583D01*
Y168666D01*
X-7331Y167750D01*
X-5498D01*
X-4582Y168666D01*
Y169583D01*
X-5498Y170499D01*
X-4582Y171416D01*
Y172332D01*
X-5498Y170499D02*
X-7331D01*
X-3415Y33498D02*
X250D01*
Y30749D01*
X-1583Y31665D01*
X-2499D01*
X-3415Y30749D01*
Y28916D01*
X-2499Y28000D01*
X-666D01*
X250Y28916D01*
X-8913Y28000D02*
X-5248D01*
X-8913Y31665D01*
Y32582D01*
X-7997Y33498D01*
X-6164D01*
X-5248Y32582D01*
X111415Y282999D02*
X112248Y282166D01*
Y280500D01*
X111415Y279667D01*
X108083D01*
X107250Y280500D01*
Y282166D01*
X108083Y282999D01*
X109749D01*
Y281333D01*
X107250Y284665D02*
X112248D01*
X107250Y287997D01*
X112248D01*
Y289663D02*
X107250D01*
Y292162D01*
X108083Y292995D01*
X111415D01*
X112248Y292162D01*
Y289663D01*
X102498Y279667D02*
Y282999D01*
Y281333D01*
X97500D01*
X102498Y284665D02*
X97500D01*
Y287164D01*
X98333Y287997D01*
X101665D01*
X102498Y287164D01*
Y284665D01*
Y292162D02*
Y290496D01*
X101665Y289663D01*
X98333D01*
X97500Y290496D01*
Y292162D01*
X98333Y292996D01*
X101665D01*
X102498Y292162D01*
X460667Y156498D02*
Y149500D01*
X457168D01*
X456002Y150666D01*
Y155331D01*
X457168Y156498D01*
X460667D01*
X453669Y149500D02*
Y154165D01*
X451337Y156498D01*
X449004Y154165D01*
Y149500D01*
Y152999D01*
X453669D01*
X442006Y155331D02*
X443173Y156498D01*
X445505D01*
X446672Y155331D01*
Y150666D01*
X445505Y149500D01*
X443173D01*
X442006Y150666D01*
X102498Y263750D02*
Y267082D01*
Y265416D01*
X97500D01*
X102498Y268748D02*
X97500D01*
Y271247D01*
X98333Y272080D01*
X101665D01*
X102498Y271247D01*
Y268748D01*
Y273746D02*
Y275413D01*
Y274580D01*
X97500D01*
Y273746D01*
Y275413D01*
X102498Y245917D02*
Y249249D01*
Y247583D01*
X97500D01*
Y250915D02*
X102498D01*
X100832Y252581D01*
X102498Y254247D01*
X97500D01*
X101665Y259245D02*
X102498Y258412D01*
Y256746D01*
X101665Y255913D01*
X100832D01*
X99999Y256746D01*
Y258412D01*
X99166Y259245D01*
X98333D01*
X97500Y258412D01*
Y256746D01*
X98333Y255913D01*
X110915Y245917D02*
X111748Y246750D01*
Y248416D01*
X110915Y249249D01*
X110082D01*
X109249Y248416D01*
Y247583D01*
Y248416D01*
X108416Y249249D01*
X107583D01*
X106750Y248416D01*
Y246750D01*
X107583Y245917D01*
X106750Y250915D02*
X111748D01*
Y253414D01*
X110915Y254247D01*
X109249D01*
X108416Y253414D01*
Y250915D01*
X110915Y255913D02*
X111748Y256746D01*
Y258412D01*
X110915Y259246D01*
X110082D01*
X109249Y258412D01*
Y257579D01*
Y258412D01*
X108416Y259246D01*
X107583D01*
X106750Y258412D01*
Y256746D01*
X107583Y255913D01*
X63998Y194000D02*
Y195833D01*
Y194916D01*
X58500D01*
Y194000D01*
Y195833D01*
X63082Y202247D02*
X63998Y201331D01*
Y199498D01*
X63082Y198582D01*
X59416D01*
X58500Y199498D01*
Y201331D01*
X59416Y202247D01*
X63082Y204080D02*
X63998Y204996D01*
Y206829D01*
X63082Y207745D01*
X62165D01*
X61249Y206829D01*
X60333Y207745D01*
X59416D01*
X58500Y206829D01*
Y204996D01*
X59416Y204080D01*
X60333D01*
X61249Y204996D01*
X62165Y204080D01*
X63082D01*
X61249Y204996D02*
Y206829D01*
X28000Y142571D02*
X26167D01*
X27084D01*
Y137072D01*
X28000D01*
X26167D01*
X19753Y141654D02*
X20669Y142571D01*
X22502D01*
X23418Y141654D01*
Y137989D01*
X22502Y137072D01*
X20669D01*
X19753Y137989D01*
X17920Y137072D02*
X16087D01*
X17004D01*
Y142571D01*
X17920Y141654D01*
X9673Y142571D02*
X13338D01*
Y139822D01*
X11505Y140738D01*
X10589D01*
X9673Y139822D01*
Y137989D01*
X10589Y137072D01*
X12422D01*
X13338Y137989D01*
X400250Y41998D02*
X398417D01*
X399334D01*
Y36500D01*
X400250D01*
X398417D01*
X392003Y41082D02*
X392919Y41998D01*
X394752D01*
X395668Y41082D01*
Y37416D01*
X394752Y36500D01*
X392919D01*
X392003Y37416D01*
X390170D02*
X389254Y36500D01*
X387421D01*
X386505Y37416D01*
Y41082D01*
X387421Y41998D01*
X389254D01*
X390170Y41082D01*
Y40166D01*
X389254Y39249D01*
X386505D01*
X82000Y241748D02*
X78334Y236250D01*
Y241748D02*
X82000Y236250D01*
X76502Y237166D02*
X75585Y236250D01*
X73753D01*
X72836Y237166D01*
Y240832D01*
X73753Y241748D01*
X75585D01*
X76502Y240832D01*
Y239916D01*
X75585Y238999D01*
X72836D01*
X40748Y239750D02*
Y241583D01*
Y240666D01*
X35250D01*
Y239750D01*
Y241583D01*
X39832Y247997D02*
X40748Y247081D01*
Y245248D01*
X39832Y244332D01*
X36166D01*
X35250Y245248D01*
Y247081D01*
X36166Y247997D01*
X35250Y249830D02*
Y251663D01*
Y250746D01*
X40748D01*
X39832Y249830D01*
X40748Y258077D02*
X39832Y256245D01*
X37999Y254412D01*
X36166D01*
X35250Y255328D01*
Y257161D01*
X36166Y258077D01*
X37083D01*
X37999Y257161D01*
Y254412D01*
X422248Y73250D02*
Y76915D01*
Y75083D01*
X416750D01*
X421332Y78748D02*
X422248Y79665D01*
Y81497D01*
X421332Y82414D01*
X420415D01*
X419499Y81497D01*
X418583Y82414D01*
X417666D01*
X416750Y81497D01*
Y79665D01*
X417666Y78748D01*
X418583D01*
X419499Y79665D01*
X420415Y78748D01*
X421332D01*
X419499Y79665D02*
Y81497D01*
X412500Y112998D02*
X408834D01*
X410667D01*
Y107500D01*
X403336Y112998D02*
X405169Y112082D01*
X407002Y110249D01*
Y108416D01*
X406085Y107500D01*
X404253D01*
X403336Y108416D01*
Y109333D01*
X404253Y110249D01*
X407002D01*
X327248Y278500D02*
Y282166D01*
Y280333D01*
X321750D01*
Y287664D02*
Y283998D01*
X325415Y287664D01*
X326332D01*
X327248Y286747D01*
Y284915D01*
X326332Y283998D01*
X407748Y51500D02*
Y55166D01*
Y53333D01*
X402250D01*
X407748Y60664D02*
Y56998D01*
X404999D01*
X405915Y58831D01*
Y59747D01*
X404999Y60664D01*
X403166D01*
X402250Y59747D01*
Y57915D01*
X403166Y56998D01*
X424750Y181498D02*
X421085D01*
X422917D01*
Y176000D01*
X419252D02*
X417419D01*
X418335D01*
Y181498D01*
X419252Y180582D01*
X385250Y292998D02*
X383417D01*
X384334D01*
Y287500D01*
X385250D01*
X383417D01*
X377003Y292082D02*
X377919Y292998D01*
X379752D01*
X380668Y292082D01*
Y288416D01*
X379752Y287500D01*
X377919D01*
X377003Y288416D01*
X371505Y292998D02*
X373337Y292082D01*
X375170Y290249D01*
Y288416D01*
X374254Y287500D01*
X372421D01*
X371505Y288416D01*
Y289333D01*
X372421Y290249D01*
X375170D01*
X385748Y130000D02*
Y131833D01*
Y130916D01*
X380250D01*
Y130000D01*
Y131833D01*
X384832Y138247D02*
X385748Y137331D01*
Y135498D01*
X384832Y134582D01*
X381166D01*
X380250Y135498D01*
Y137331D01*
X381166Y138247D01*
X380250Y142829D02*
X385748D01*
X382999Y140080D01*
Y143745D01*
X408000Y245498D02*
X406167D01*
X407084D01*
Y240000D01*
X408000D01*
X406167D01*
X399753Y244582D02*
X400669Y245498D01*
X402502D01*
X403418Y244582D01*
Y240916D01*
X402502Y240000D01*
X400669D01*
X399753Y240916D01*
X394254Y245498D02*
X397920D01*
Y242749D01*
X396087Y243666D01*
X395171D01*
X394254Y242749D01*
Y240916D01*
X395171Y240000D01*
X397004D01*
X397920Y240916D01*
X425750Y141248D02*
X422085Y135750D01*
Y141248D02*
X425750Y135750D01*
X420252Y140332D02*
X419335Y141248D01*
X417503D01*
X416586Y140332D01*
Y139416D01*
X417503Y138499D01*
X416586Y137583D01*
Y136666D01*
X417503Y135750D01*
X419335D01*
X420252Y136666D01*
Y137583D01*
X419335Y138499D01*
X420252Y139416D01*
Y140332D01*
X419335Y138499D02*
X417503D01*
X425000Y160748D02*
X421334Y155250D01*
Y160748D02*
X425000Y155250D01*
X419502D02*
X417669D01*
X418585D01*
Y160748D01*
X419502Y159832D01*
X414920D02*
X414003Y160748D01*
X412171D01*
X411254Y159832D01*
Y158916D01*
X412171Y157999D01*
X413087D01*
X412171D01*
X411254Y157083D01*
Y156166D01*
X412171Y155250D01*
X414003D01*
X414920Y156166D01*
X52748Y88250D02*
Y90083D01*
Y89166D01*
X47250D01*
Y88250D01*
Y90083D01*
X51832Y96497D02*
X52748Y95581D01*
Y93748D01*
X51832Y92832D01*
X48166D01*
X47250Y93748D01*
Y95581D01*
X48166Y96497D01*
X47250Y101995D02*
Y98330D01*
X50915Y101995D01*
X51832D01*
X52748Y101079D01*
Y99246D01*
X51832Y98330D01*
X47250Y106577D02*
X52748D01*
X49999Y103828D01*
Y107494D01*
X5498Y58283D02*
Y60115D01*
Y59199D01*
X0D01*
Y58283D01*
Y60115D01*
X4582Y66530D02*
X5498Y65613D01*
Y63781D01*
X4582Y62864D01*
X916D01*
X0Y63781D01*
Y65613D01*
X916Y66530D01*
X0Y72028D02*
Y68363D01*
X3665Y72028D01*
X4582D01*
X5498Y71112D01*
Y69279D01*
X4582Y68363D01*
X5498Y77526D02*
Y73861D01*
X2749D01*
X3665Y75694D01*
Y76610D01*
X2749Y77526D01*
X916D01*
X0Y76610D01*
Y74777D01*
X916Y73861D01*
X-3002Y58250D02*
Y60083D01*
Y59166D01*
X-8500D01*
Y58250D01*
Y60083D01*
X-3918Y66497D02*
X-3002Y65581D01*
Y63748D01*
X-3918Y62832D01*
X-7584D01*
X-8500Y63748D01*
Y65581D01*
X-7584Y66497D01*
X-8500Y71996D02*
Y68330D01*
X-4834Y71996D01*
X-3918D01*
X-3002Y71079D01*
Y69246D01*
X-3918Y68330D01*
Y73828D02*
X-3002Y74745D01*
Y76577D01*
X-3918Y77494D01*
X-4834D01*
X-5751Y76577D01*
Y75661D01*
Y76577D01*
X-6667Y77494D01*
X-7584D01*
X-8500Y76577D01*
Y74745D01*
X-7584Y73828D01*
X60998Y88000D02*
Y89833D01*
Y88916D01*
X55500D01*
Y88000D01*
Y89833D01*
X60082Y96247D02*
X60998Y95331D01*
Y93498D01*
X60082Y92582D01*
X56416D01*
X55500Y93498D01*
Y95331D01*
X56416Y96247D01*
X55500Y101746D02*
Y98080D01*
X59166Y101746D01*
X60082D01*
X60998Y100829D01*
Y98996D01*
X60082Y98080D01*
X60998Y103578D02*
Y107244D01*
X60082D01*
X56416Y103578D01*
X55500D01*
X57750Y257498D02*
X54085Y252000D01*
Y257498D02*
X57750Y252000D01*
X52252D02*
X50419D01*
X51335D01*
Y257498D01*
X52252Y256582D01*
X44005Y252000D02*
X47670D01*
X44005Y255665D01*
Y256582D01*
X44921Y257498D01*
X46754D01*
X47670Y256582D01*
X187638Y161638D02*
X186342Y162934D01*
X186990Y162286D01*
X183102Y158398D01*
X183750Y157750D01*
X182454Y159046D01*
X181158Y166822D02*
X182454Y166822D01*
X183750Y165526D01*
X183750Y164230D01*
X181158Y161638D01*
X179862D01*
X178566Y162934D01*
Y164230D01*
X180510Y168766D02*
X177918Y171357D01*
X177270Y170709D01*
Y165526D01*
X176622Y164878D01*
X56388Y120138D02*
X55092Y121434D01*
X55740Y120786D01*
X51852Y116898D01*
X52500Y116250D01*
X51204Y117546D01*
X49908Y125322D02*
X51204Y125322D01*
X52500Y124026D01*
X52500Y122730D01*
X49908Y120138D01*
X48612D01*
X47316Y121434D01*
Y122730D01*
X42780Y125970D02*
X45372Y123378D01*
Y128561D01*
X46020Y129209D01*
X47316Y129209D01*
X48612Y127914D01*
X48612Y126618D01*
X44724Y130505D02*
Y131801D01*
X43428Y133097D01*
X42133D01*
X39541Y130505D01*
Y129209D01*
X40837Y127914D01*
X42133D01*
X44724Y130505D01*
X91638Y93388D02*
X90342Y94684D01*
X90990Y94036D01*
X87102Y90148D01*
X87750Y89500D01*
X86454Y90796D01*
X85158Y98572D02*
X86454Y98572D01*
X87750Y97276D01*
X87750Y95980D01*
X85158Y93388D01*
X83862D01*
X82566Y94684D01*
Y95980D01*
X80622Y96628D02*
X79326Y97924D01*
X79974Y97276D01*
X83862Y101164D01*
X83862Y99867D01*
X78030Y100515D02*
X76734D01*
X75438Y101812D01*
Y103107D01*
X78030Y105699D01*
X79326Y105699D01*
X80622Y104403D01*
X80622Y103107D01*
X79974Y102459D01*
X78678D01*
X76734Y104403D01*
X202250Y234998D02*
X200417D01*
X201334D01*
Y229500D01*
X202250D01*
X200417D01*
X194003Y234082D02*
X194919Y234998D01*
X196752D01*
X197668Y234082D01*
Y230416D01*
X196752Y229500D01*
X194919D01*
X194003Y230416D01*
X192170Y229500D02*
X190337D01*
X191254D01*
Y234998D01*
X192170Y234082D01*
X187588D02*
X186672Y234998D01*
X184839D01*
X183923Y234082D01*
Y233165D01*
X184839Y232249D01*
X183923Y231333D01*
Y230416D01*
X184839Y229500D01*
X186672D01*
X187588Y230416D01*
Y231333D01*
X186672Y232249D01*
X187588Y233165D01*
Y234082D01*
X186672Y232249D02*
X184839D01*
X302248Y276000D02*
Y277833D01*
Y276916D01*
X296750D01*
Y276000D01*
Y277833D01*
X301332Y284247D02*
X302248Y283331D01*
Y281498D01*
X301332Y280582D01*
X297666D01*
X296750Y281498D01*
Y283331D01*
X297666Y284247D01*
X296750Y286080D02*
Y287913D01*
Y286996D01*
X302248D01*
X301332Y286080D01*
Y290662D02*
X302248Y291578D01*
Y293411D01*
X301332Y294327D01*
X300415D01*
X299499Y293411D01*
Y292495D01*
Y293411D01*
X298583Y294327D01*
X297666D01*
X296750Y293411D01*
Y291578D01*
X297666Y290662D01*
X8748Y8250D02*
Y10083D01*
Y9166D01*
X3250D01*
Y8250D01*
Y10083D01*
X7832Y16497D02*
X8748Y15581D01*
Y13748D01*
X7832Y12832D01*
X4166D01*
X3250Y13748D01*
Y15581D01*
X4166Y16497D01*
X3250Y21995D02*
Y18330D01*
X6916Y21995D01*
X7832D01*
X8748Y21079D01*
Y19246D01*
X7832Y18330D01*
X3250Y23828D02*
Y25661D01*
Y24745D01*
X8748D01*
X7832Y23828D01*
X370000Y34998D02*
X368167D01*
X369084D01*
Y29500D01*
X370000D01*
X368167D01*
X361753Y34082D02*
X362669Y34998D01*
X364502D01*
X365418Y34082D01*
Y30416D01*
X364502Y29500D01*
X362669D01*
X361753Y30416D01*
X356255Y29500D02*
X359920D01*
X356255Y33166D01*
Y34082D01*
X357171Y34998D01*
X359004D01*
X359920Y34082D01*
X216748Y142500D02*
Y144333D01*
Y143416D01*
X211250D01*
Y142500D01*
Y144333D01*
X215832Y150747D02*
X216748Y149831D01*
Y147998D01*
X215832Y147082D01*
X212166D01*
X211250Y147998D01*
Y149831D01*
X212166Y150747D01*
X211250Y152580D02*
Y154413D01*
Y153496D01*
X216748D01*
X215832Y152580D01*
X217834Y234998D02*
X221500D01*
Y232249D01*
X219667D01*
X221500D01*
Y229500D01*
X216002Y234998D02*
Y229500D01*
X212336D01*
X206838D02*
X210504D01*
X206838Y233165D01*
Y234082D01*
X207754Y234998D01*
X209587D01*
X210504Y234082D01*
D14*
X241500Y294500D02*
G03*
X241500Y294500I-1250J0D01*
G01*
X41671Y154157D02*
G03*
X41671Y154157I-1250J0D01*
G01*
X465750Y130500D02*
G03*
X465750Y130500I-250J0D01*
G01*
X243250Y294000D02*
G03*
X243250Y294000I-1250J0D01*
G01*
X465750Y217000D02*
G03*
X465750Y217000I-250J0D01*
G01*
D15*
X146250Y227750D02*
X149250D01*
X144500Y225750D02*
Y229750D01*
X151000Y225750D02*
Y229750D01*
X164000Y233800D02*
X168000D01*
X164000Y227300D02*
X168000D01*
X63500Y229500D02*
Y232500D01*
X61500Y227750D02*
X65500D01*
X61500Y234250D02*
X65500D01*
X63500Y223250D02*
Y226250D01*
X61500Y221500D02*
X65500D01*
X61500Y228000D02*
X65500D01*
X154750Y227750D02*
X157750D01*
X159500Y225750D02*
Y229750D01*
X153000Y225750D02*
Y229750D01*
X44939Y137189D02*
X47061Y139311D01*
X42288Y137366D02*
X45116Y134538D01*
X46884Y141962D02*
X49712Y139134D01*
X18950Y160750D02*
X22950D01*
X18950Y154250D02*
X22950D01*
X17250Y149500D02*
Y152500D01*
X15250Y154250D02*
X19250D01*
X15250Y147750D02*
X19250D01*
X450Y153800D02*
X3450D01*
X-1300Y151800D02*
Y155800D01*
X5200Y151800D02*
Y155800D01*
X11950Y151800D02*
Y155800D01*
X5450Y151800D02*
Y155800D01*
X3000Y200750D02*
X6000D01*
X7750Y198750D02*
Y202750D01*
X1250Y198750D02*
Y202750D01*
X3000Y211750D02*
X6000D01*
X1250Y209750D02*
Y213750D01*
X7750Y209750D02*
Y213750D01*
X63550Y216700D02*
X63550Y219700D01*
X61550Y214950D02*
X65550D01*
X61550Y221450D02*
X65550D01*
X63500Y209750D02*
Y212750D01*
X61500Y208000D02*
X65500D01*
X61500Y214500D02*
X65500D01*
X1250Y220950D02*
Y224950D01*
X7750Y220950D02*
Y224950D01*
X28250Y176000D02*
X32250D01*
X28250Y182500D02*
X32250D01*
X23500Y167500D02*
Y171500D01*
X30000Y167500D02*
Y171500D01*
X39250Y165250D02*
Y168250D01*
X37250Y163500D02*
X41250D01*
X37250Y170000D02*
X41250D01*
X36750Y171750D02*
Y174750D01*
X34750Y170000D02*
X38750D01*
X34750Y176500D02*
X38750D01*
X15250Y171750D02*
Y174750D01*
X13250Y170000D02*
X17250D01*
X13250Y176500D02*
X17250D01*
X15250Y178250D02*
Y181250D01*
X13250Y183000D02*
X17250D01*
X13250Y176500D02*
X17250D01*
X48250Y239750D02*
Y242750D01*
X46250Y238000D02*
X50250D01*
X46250Y244500D02*
X50250D01*
X62500Y236000D02*
Y239000D01*
X60500Y234250D02*
X64500D01*
X60500Y240750D02*
X64500D01*
X32500Y231250D02*
X36500D01*
X32500Y237750D02*
X36500D01*
X46250Y231250D02*
X50250D01*
X46250Y237750D02*
X50250D01*
X10750Y13250D02*
Y17250D01*
X17250Y13250D02*
Y17250D01*
X263750Y296250D02*
X281750D01*
X263750Y274250D02*
X281750D01*
X416845Y91045D02*
X418345Y92545D01*
X415845Y91045D02*
X418345D01*
X418345Y103045D01*
X396345Y95045D02*
Y103045D01*
X29750Y47500D02*
X33750D01*
X29750Y54000D02*
X33750D01*
X116912Y235800D02*
Y239800D01*
X123412Y235800D02*
Y239800D01*
X127750Y229250D02*
X131750D01*
X127750Y235750D02*
X131750D01*
X419250Y166000D02*
Y170000D01*
X425750Y166000D02*
Y170000D01*
X426250Y64050D02*
X426250Y68050D01*
X432750D02*
X432750Y64050D01*
X433750Y64000D02*
Y68000D01*
X440250Y64000D02*
Y68000D01*
X317000Y3000D02*
Y6000D01*
X315000Y7750D02*
X319000D01*
X315000Y1250D02*
X319000D01*
X377750Y53500D02*
Y61500D01*
X399750Y49500D02*
Y61500D01*
X397250Y49500D02*
X399750D01*
X398250Y49500D02*
X399750Y51000D01*
X354000Y27750D02*
X372000D01*
X354000Y5750D02*
X372000D01*
X247250Y284000D02*
X251250D01*
X247250Y290500D02*
X251250D01*
X249250Y285750D02*
Y288750D01*
X399050Y750D02*
X403050D01*
X399050Y7250D02*
X403050D01*
X401050Y5500D02*
X401050Y2500D01*
X63977Y12250D02*
X67977D01*
X63977Y5750D02*
X67977D01*
X65977Y10500D02*
X65977Y7500D01*
X139000Y295500D02*
X143000D01*
X139000Y289000D02*
X143000D01*
X141000Y290750D02*
Y293750D01*
X36566Y40416D02*
X40566D01*
X36566Y46916D02*
X40566D01*
X24238Y40416D02*
X28238Y40416D01*
X24238Y46916D02*
X28238Y46916D01*
X342500Y17500D02*
Y21500D01*
X336000Y17500D02*
Y21500D01*
X326950Y32439D02*
X330950D01*
X326950Y25939D02*
X330950D01*
X223250Y219500D02*
Y223500D01*
X216750Y219500D02*
Y223500D01*
X230500Y230500D02*
Y234500D01*
X224000Y230500D02*
Y234500D01*
X197250Y20000D02*
X197250D01*
X43000Y163750D02*
X47000D01*
X43000Y157250D02*
X47000D01*
X45000Y162000D02*
X45000Y159000D01*
X407000Y176500D02*
X411000D01*
X407000Y183000D02*
X411000Y183000D01*
X418950Y183750D02*
X422950D01*
X418950Y190250D02*
X422950D01*
X406950Y183750D02*
X410950Y183750D01*
X406950Y190250D02*
X410950Y190250D01*
X118538Y220366D02*
X121366Y217538D01*
X123134Y224962D02*
X125962Y222134D01*
X121189Y220189D02*
X123311Y222311D01*
X5000Y289950D02*
X8000Y289950D01*
X3250Y291950D02*
X3250Y287950D01*
X9750D02*
Y291950D01*
X302500Y264500D02*
Y267500D01*
X300500Y269250D02*
X304500D01*
X300500Y262750D02*
X304500D01*
X261500Y258000D02*
Y261000D01*
X259500Y262750D02*
X263500D01*
X259500Y256250D02*
X263500D01*
X388750Y182000D02*
X391750D01*
X393500Y180000D02*
Y184000D01*
X387000Y180000D02*
Y184000D01*
X397500Y182000D02*
X400500D01*
X395750Y180000D02*
Y184000D01*
X402250Y180000D02*
Y184000D01*
X302500Y258000D02*
Y261000D01*
X300500Y256250D02*
X304500D01*
X300500Y262750D02*
X304500D01*
X385750Y225500D02*
X388750D01*
X390500Y223500D02*
Y227500D01*
X384000Y223500D02*
Y227500D01*
X261500Y264500D02*
Y267500D01*
X259500Y262750D02*
X263500D01*
X259500Y269250D02*
X263500D01*
X392250Y225500D02*
X395250D01*
X390500Y223500D02*
Y227500D01*
X397000Y223500D02*
Y227500D01*
X358300Y241000D02*
Y244000D01*
X356300Y245750D02*
X360300D01*
X356300Y239250D02*
X360300D01*
X372750Y181750D02*
X375750D01*
X377500Y179750D02*
Y183750D01*
X371000Y179750D02*
Y183750D01*
X358300Y234500D02*
Y237500D01*
X356300Y232750D02*
X360300D01*
X356300Y239250D02*
X360300D01*
X366250Y181750D02*
X369250D01*
X364500Y179750D02*
Y183750D01*
X371000Y179750D02*
Y183750D01*
X320700Y241000D02*
Y244000D01*
X318700Y239250D02*
X322700D01*
X318700Y245750D02*
X322700D01*
X373000Y219500D02*
X376000D01*
X371250Y217500D02*
Y221500D01*
X377750Y217500D02*
Y221500D01*
X320700Y234500D02*
Y237500D01*
X318700Y239250D02*
X322700D01*
X318700Y232750D02*
X322700D01*
X366500Y219500D02*
X369500D01*
X371250Y217500D02*
Y221500D01*
X364750Y217500D02*
Y221500D01*
X220500Y210750D02*
Y213750D01*
X218500Y215500D02*
X222500D01*
X218500Y209000D02*
X222500D01*
X107450Y243800D02*
X111450D01*
X107450Y237300D02*
X111450D01*
X109450Y242050D02*
X109450Y239050D01*
X127800Y222300D02*
X131800Y222300D01*
X127800Y228800D02*
X131800Y228800D01*
X129800Y224050D02*
X129800Y227050D01*
X191000Y151750D02*
Y155750D01*
X197500Y151750D02*
Y155750D01*
X204250Y157350D02*
Y161350D01*
X197750Y157350D02*
Y161350D01*
X356750Y258750D02*
Y262750D01*
X350250Y258750D02*
Y262750D01*
X238500Y72500D02*
Y76500D01*
X245000Y72500D02*
Y76500D01*
X240250Y74500D02*
X243250D01*
X252250Y69000D02*
X256250D01*
X252250Y62500D02*
X256250D01*
X229200Y74957D02*
X233200D01*
X229200Y68457D02*
X233200D01*
X82500Y66000D02*
X85500D01*
X87250Y64000D02*
Y68000D01*
X80750Y64000D02*
Y68000D01*
X55750Y6750D02*
X57750D01*
X55750Y4750D02*
Y6750D01*
Y4750D02*
X57750D01*
X25750D02*
Y36750D01*
X57750Y4750D02*
Y36750D01*
X207175Y140220D02*
X211175D01*
X207175Y133720D02*
X211175D01*
X243500Y238500D02*
Y242500D01*
X250000Y238500D02*
Y242500D01*
X3500Y265000D02*
X7500Y265000D01*
X3500Y271500D02*
X7500D01*
X246300Y264550D02*
X250300D01*
X246300Y271050D02*
X250300D01*
X9750Y276750D02*
Y280750D01*
X3250Y276750D02*
Y280750D01*
X236000Y238500D02*
Y242500D01*
X242500Y238500D02*
Y242500D01*
X60250Y250950D02*
X60250Y254950D01*
X66750D02*
X66750Y250950D01*
X253000Y250750D02*
Y254750D01*
X246500Y250750D02*
Y254750D01*
X20800Y253750D02*
Y256750D01*
X18800Y258500D02*
X22800D01*
X18800Y252000D02*
X22800D01*
X6000Y259250D02*
X9000Y259250D01*
X10750Y257250D02*
Y261250D01*
X4250Y257250D02*
Y261250D01*
X116157Y64458D02*
X120157D01*
X116157Y70957D02*
X120157D01*
X84750Y87250D02*
X84750Y91250D01*
X78250Y87250D02*
Y91250D01*
X88270Y53867D02*
X91099Y56695D01*
X83674Y58463D02*
X86502Y61292D01*
X361250Y118650D02*
Y121650D01*
X359250Y123400D02*
X363250D01*
X359250Y116900D02*
X363250D01*
X420000Y121250D02*
X420000Y125250D01*
X413500D02*
X413500Y121250D01*
X415250Y123250D02*
X418250D01*
X361750Y136750D02*
Y140750D01*
X355250Y136750D02*
Y140750D01*
X5250Y133750D02*
X9250D01*
X5250Y127250D02*
X9250D01*
X5250Y125308D02*
X9250Y125308D01*
X5250Y118808D02*
X9250Y118808D01*
X17995Y3500D02*
X21995D01*
X17995Y10000D02*
X21995D01*
X19995Y5250D02*
Y8250D01*
X2243Y144997D02*
X6243D01*
X2243Y138497D02*
X6243D01*
X359500Y154850D02*
X362500D01*
X357750Y152850D02*
Y156850D01*
X364250Y152850D02*
Y156850D01*
X454000Y229000D02*
Y233000D01*
X447500Y229000D02*
Y233000D01*
X442750Y231000D02*
X445750Y231000D01*
X447500Y229000D02*
Y233000D01*
X441000Y229000D02*
Y233000D01*
X428700Y232550D02*
X431700D01*
X426950Y230550D02*
Y234550D01*
X433450Y230550D02*
Y234550D01*
X350500Y274050D02*
Y278050D01*
X357000Y274050D02*
Y278050D01*
X359750Y276050D02*
X362750D01*
X358000Y274050D02*
Y278050D01*
X364500Y274050D02*
Y278050D01*
X359500Y264500D02*
X362500D01*
X364250Y262500D02*
Y266500D01*
X357750Y262500D02*
Y266500D01*
X395985Y117600D02*
X395985Y120600D01*
X393985Y115850D02*
X397985Y115850D01*
X393985Y122350D02*
X397985Y122350D01*
X407250Y117000D02*
Y120000D01*
X405250Y121750D02*
X409250D01*
X405250Y115250D02*
X409250D01*
X51199Y125558D02*
X54028Y122730D01*
X55795Y130154D02*
X58624Y127326D01*
X72235Y102330D02*
X75064Y105158D01*
X67639Y106926D02*
X70468Y109754D01*
X61275Y113290D02*
X64104Y116118D01*
X56679Y117886D02*
X59508Y120715D01*
X81679Y204000D02*
X85679D01*
X81679Y197500D02*
X85679D01*
X62159Y112406D02*
X64988Y115234D01*
X66755Y107810D02*
X69584Y110638D01*
X64811Y112583D02*
X66932Y110462D01*
X359250Y130750D02*
X363250D01*
X359250Y124250D02*
X363250D01*
X251000Y221000D02*
Y225000D01*
X257500Y221000D02*
Y225000D01*
X251250Y217750D02*
X255250D01*
X251250Y211250D02*
X255250D01*
X253250Y213000D02*
Y216000D01*
X220000Y187750D02*
Y191750D01*
X226500Y187750D02*
Y191750D01*
X221750Y189750D02*
X224750D01*
X213500Y192000D02*
Y196000D01*
X220000Y192000D02*
Y196000D01*
X215250Y194000D02*
X218250D01*
X287865Y87250D02*
X291865D01*
X287865Y80750D02*
X291865D01*
X289865Y82500D02*
Y85500D01*
X293250Y72500D02*
Y76500D01*
X286750Y72500D02*
Y76500D01*
X284750Y72500D02*
Y76500D01*
X278250Y72500D02*
Y76500D01*
X276750Y87250D02*
X280750D01*
X276750Y80750D02*
X280750D01*
X278750Y82500D02*
Y85500D01*
X265950Y87250D02*
X269950D01*
X265950Y80750D02*
X269950D01*
X267950Y82500D02*
Y85500D01*
X274000Y72500D02*
Y76500D01*
X267500Y72500D02*
Y76500D01*
X298750Y80750D02*
X302750D01*
X298750Y87250D02*
X302750D01*
X300750Y82500D02*
Y85500D01*
X301250Y72500D02*
Y76500D01*
X294750Y72500D02*
Y76500D01*
X254950Y87250D02*
X258950D01*
X254950Y80750D02*
X258950D01*
X256950Y82500D02*
Y85500D01*
X262950Y72500D02*
Y76500D01*
X256450Y72500D02*
Y76500D01*
X243950Y87250D02*
X247950D01*
X243950Y80750D02*
X247950Y80750D01*
X245950Y85500D02*
X245950Y82500D01*
X252000Y72500D02*
Y76500D01*
X245500Y72500D02*
Y76500D01*
X363250Y166750D02*
Y170750D01*
X356750Y166750D02*
Y170750D01*
X358500Y168750D02*
X361500D01*
X367050Y169200D02*
X371050D01*
X367050Y162700D02*
X371050D01*
X368250Y148800D02*
X372250D01*
X368250Y155300D02*
X372250D01*
D16*
X215000Y91250D02*
X226000D01*
X215000Y83250D02*
Y91250D01*
Y70250D02*
Y78250D01*
Y70250D02*
X226000D01*
Y78250D01*
Y83250D02*
Y91250D01*
X83250Y38250D02*
Y49250D01*
X75250D02*
X83250D01*
X62250D02*
X70250D01*
X62250Y38250D02*
Y49250D01*
Y38250D02*
X70250D01*
X75250D02*
X83250D01*
X83250Y31250D02*
X94250D01*
Y39250D01*
Y44250D02*
Y52250D01*
X83250D02*
X94250D01*
X83250Y44250D02*
Y52250D01*
Y31250D02*
Y39250D01*
X320750Y22000D02*
Y33000D01*
X312750D02*
X320750D01*
X299750D02*
X307750D01*
X299750Y22000D02*
Y33000D01*
Y22000D02*
X307750D01*
X312750D02*
X320750D01*
X306100Y237440D02*
Y245060D01*
X293400Y237440D02*
Y245060D01*
X221238Y13722D02*
X230762D01*
X221238Y17278D02*
X230762D01*
X257900Y237440D02*
Y245060D01*
X270600Y237440D02*
Y245060D01*
X385025Y109545D02*
X396025D01*
X385025Y101545D02*
Y109545D01*
Y88545D02*
Y96545D01*
Y88545D02*
X396025D01*
Y96545D01*
Y101545D02*
Y109545D01*
X366975Y68035D02*
X377975D01*
X366975Y60035D02*
Y68035D01*
Y47035D02*
Y55035D01*
Y47035D02*
X377975D01*
Y55035D01*
Y60035D02*
Y68035D01*
X170778Y74738D02*
Y84262D01*
X167222Y74738D02*
Y84262D01*
X313738Y54472D02*
X323262D01*
X313738Y58028D02*
X323262D01*
X312250Y42250D02*
X320250D01*
X325250D02*
X333250D01*
Y32250D02*
Y42250D01*
X325250Y32250D02*
X333250D01*
X312250D02*
X320250D01*
X312250D02*
Y42250D01*
X324000Y11000D02*
X332000D01*
X311000D02*
X319000D01*
X311000D02*
Y22000D01*
X319000D01*
X324000D02*
X332000D01*
Y11000D02*
Y22000D01*
X48982Y168697D02*
X54639Y163040D01*
X39790Y177889D02*
X45447Y172232D01*
X39790Y177889D02*
X46861Y184960D01*
X52518Y179303D01*
X56053Y175768D02*
X61710Y170111D01*
X54639Y163040D02*
X61710Y170111D01*
X64230Y191224D02*
X70965Y184489D01*
X61716Y188709D02*
X68450Y181975D01*
X128000Y90000D02*
X136000D01*
X141000D02*
X149000D01*
Y80000D02*
Y90000D01*
X141000Y80000D02*
X149000D01*
X128000D02*
X136000D01*
X128000D02*
Y90000D01*
X136222Y67988D02*
Y77512D01*
X139778Y67988D02*
Y77512D01*
X87500Y206969D02*
X95500D01*
X74500D02*
X82500D01*
X74500D02*
Y216969D01*
X82500D01*
X87500D02*
X95500D01*
Y206969D02*
Y216969D01*
X97540Y220347D02*
X103197Y226004D01*
X106732Y229539D02*
X112389Y235196D01*
X119460Y228125D01*
X113803Y222468D02*
X119460Y228125D01*
X104611Y213276D02*
X110268Y218933D01*
X97540Y220347D02*
X104611Y213276D01*
X84488Y228722D02*
X94012D01*
X84488Y232278D02*
X94012D01*
X-250Y232500D02*
Y240500D01*
Y245500D02*
Y253500D01*
X9750D01*
Y245500D02*
Y253500D01*
Y232500D02*
Y240500D01*
X-250Y232500D02*
X9750D01*
X367271Y37000D02*
Y47000D01*
X359271D02*
X367271D01*
X346271D02*
X354271D01*
X346271Y37000D02*
Y47000D01*
Y37000D02*
X354271D01*
X359271D02*
X367271D01*
X392500Y272500D02*
X402500D01*
X392500Y264500D02*
Y272500D01*
Y251500D02*
Y259500D01*
Y251500D02*
X402500D01*
Y259500D01*
Y264500D02*
Y272500D01*
X57940Y58150D02*
X65560D01*
X57940Y70850D02*
X65560D01*
X65527Y84972D02*
X75051D01*
X65527Y88528D02*
X75051D01*
X68245Y29000D02*
Y37000D01*
Y16000D02*
Y24000D01*
X58245Y16000D02*
X68245D01*
X58245D02*
Y24000D01*
Y29000D02*
Y37000D01*
X68245D01*
X25104Y32250D02*
Y40250D01*
Y19250D02*
Y27250D01*
X15104Y19250D02*
X25104D01*
X15104D02*
Y27250D01*
Y32250D02*
Y40250D01*
X25104D01*
X79245Y29000D02*
Y37000D01*
Y16000D02*
Y24000D01*
X68245Y16000D02*
X79245D01*
X68245D02*
Y24000D01*
Y29000D02*
Y37000D01*
X79245D01*
X22170Y57720D02*
X32330D01*
X22170Y84720D02*
X32330D01*
X22170Y89220D02*
X32330D01*
X22170Y116220D02*
X32330D01*
X346475Y57535D02*
X354475D01*
X359475D02*
X367475D01*
Y47535D02*
Y57535D01*
X359475Y47535D02*
X367475D01*
X346475D02*
X354475D01*
X346475D02*
Y57535D01*
X346475Y60035D02*
Y68035D01*
Y47035D02*
Y55035D01*
X336475Y47035D02*
X346475D01*
X336475D02*
Y55035D01*
Y60035D02*
Y68035D01*
X346475D01*
X346475Y67535D02*
X354475D01*
X359475D02*
X367475D01*
Y57535D02*
Y67535D01*
X359475Y57535D02*
X367475D01*
X346475D02*
X354475D01*
X346475D02*
Y67535D01*
X294500Y215000D02*
X302500D01*
X281500D02*
X289500D01*
X281500D02*
Y226000D01*
X289500D01*
X294500D02*
X302500D01*
Y215000D02*
Y226000D01*
X271500Y236000D02*
X279500D01*
X284500D02*
X292500D01*
Y226000D02*
Y236000D01*
X284500Y226000D02*
X292500D01*
X271500D02*
X279500D01*
X271500D02*
Y236000D01*
X261500Y226000D02*
X269500D01*
X274500D02*
X282500D01*
Y215000D02*
Y226000D01*
X274500Y215000D02*
X282500D01*
X261500D02*
X269500D01*
X261500D02*
Y226000D01*
X329000Y242500D02*
X337000D01*
X342000D02*
X350000D01*
Y232500D02*
Y242500D01*
X342000Y232500D02*
X350000D01*
X329000D02*
X337000D01*
X329000D02*
Y242500D01*
X342000Y263500D02*
X350000D01*
X329000D02*
X337000D01*
X329000D02*
Y273500D01*
X337000D01*
X342000D02*
X350000D01*
Y263500D02*
Y273500D01*
X339500Y255500D02*
Y263500D01*
Y242500D02*
Y250500D01*
X329500Y242500D02*
X339500D01*
X329500D02*
Y250500D01*
Y255500D02*
Y263500D01*
X339500D01*
X319000Y232500D02*
X327000D01*
X332000D02*
X340000D01*
Y221500D02*
Y232500D01*
X332000Y221500D02*
X340000D01*
X319000D02*
X327000D01*
X319000D02*
Y232500D01*
X339500Y242500D02*
Y250500D01*
Y255500D02*
Y263500D01*
X349500D01*
Y255500D02*
Y263500D01*
Y242500D02*
Y250500D01*
X339500Y242500D02*
X349500D01*
X352000Y221500D02*
X360000D01*
X339000D02*
X347000D01*
X339000D02*
Y232500D01*
X347000D01*
X352000D02*
X360000D01*
Y221500D02*
Y232500D01*
X282000Y236000D02*
Y244000D01*
Y249000D02*
Y257000D01*
X292000D01*
Y249000D02*
Y257000D01*
Y236000D02*
Y244000D01*
X282000Y236000D02*
X292000D01*
X282000Y249000D02*
Y257000D01*
Y236000D02*
Y244000D01*
X272000Y236000D02*
X282000D01*
X272000D02*
Y244000D01*
Y249000D02*
Y257000D01*
X282000D01*
X284500Y257000D02*
X292500D01*
X271500D02*
X279500D01*
X271500D02*
Y267000D01*
X279500D01*
X284500D02*
X292500D01*
Y257000D02*
Y267000D01*
X364525Y80545D02*
Y88545D01*
Y67545D02*
Y75545D01*
X354525Y67545D02*
X364525D01*
X354525D02*
Y75545D01*
Y80545D02*
Y88545D01*
X364525D01*
X364525Y88045D02*
X372525Y88045D01*
X377525D02*
X385525D01*
Y78045D02*
Y88045D01*
X377525Y78045D02*
X385525D01*
X364525D02*
X372525D01*
X364525Y88045D02*
X364525Y78045D01*
X395525Y80545D02*
Y88545D01*
Y67545D02*
Y75545D01*
X385525Y67545D02*
X395525D01*
X385525D02*
Y75545D01*
Y80545D02*
Y88545D01*
X395525D01*
X364525Y78045D02*
X372525D01*
X377525D02*
X385525D01*
X385525Y68045D01*
X377525Y68045D02*
X385525Y68045D01*
X364525Y68045D02*
X372525D01*
X364525D02*
Y78045D01*
X364500Y213000D02*
X364500Y221000D01*
X364500Y200000D02*
X364500Y208000D01*
X353500Y200000D02*
X364500D01*
X353500D02*
Y208000D01*
Y213000D02*
Y221000D01*
X364500D01*
X353500Y180000D02*
Y188000D01*
Y193000D02*
Y201000D01*
X364500D01*
Y193000D02*
Y201000D01*
X364500Y180000D02*
X364500Y188000D01*
X353500Y180000D02*
X364500Y180000D01*
X395500Y190000D02*
Y198000D01*
Y203000D02*
Y211000D01*
X405500D01*
Y203000D02*
Y211000D01*
X405500Y190000D02*
X405500Y198000D01*
X395500Y190000D02*
X405500D01*
X387500Y200500D02*
X395500D01*
X374500D02*
X382500D01*
X374500D02*
Y210500D01*
X382500D01*
X387500D02*
X395500D01*
Y200500D02*
Y210500D01*
X374500Y200500D02*
X382500D01*
X387500D02*
X395500D01*
Y190500D02*
Y200500D01*
X387500Y190500D02*
X395500D01*
X374500D02*
X382500D01*
X374500D02*
Y200500D01*
X374500Y203000D02*
Y211000D01*
Y190000D02*
Y198000D01*
X364500Y190000D02*
X374500D01*
X364500D02*
Y198000D01*
Y203000D02*
Y211000D01*
X374500D01*
X164488Y44722D02*
X174012D01*
X164488Y48278D02*
X174012Y48278D01*
X97488Y44722D02*
X107012D01*
X97488Y48278D02*
X107012D01*
X164488Y17278D02*
X174012D01*
X164488Y13722D02*
X174012D01*
X97488Y13722D02*
X107012D01*
X97488Y17278D02*
X107012D01*
X364525Y89045D02*
Y99045D01*
Y89045D02*
X372525D01*
X377525D02*
X385525D01*
Y99045D01*
X377525D02*
X385525D01*
X364525D02*
X372525D01*
X354525Y109545D02*
X364525D01*
X354525Y101545D02*
Y109545D01*
Y88545D02*
Y96545D01*
Y88545D02*
X364525D01*
Y96545D01*
Y101545D02*
Y109545D01*
X364525Y99045D02*
Y109045D01*
Y99045D02*
X372525D01*
X377525D02*
X385525D01*
Y109045D01*
X377525D02*
X385525D01*
X364525D02*
X372525D01*
X301000Y64250D02*
X312000D01*
X301000Y56250D02*
Y64250D01*
Y43250D02*
Y51250D01*
Y43250D02*
X312000Y43250D01*
X312000Y51250D01*
Y56250D02*
Y64250D01*
X288238Y48278D02*
X297762Y48278D01*
X288238Y44722D02*
X297762Y44722D01*
X197250Y42000D02*
X205250D01*
X210250D02*
X218250D01*
X218250Y31000D01*
X210250D02*
X218250D01*
X197250D02*
X205250D01*
X197250D02*
X197250Y42000D01*
X221238Y44722D02*
X230762D01*
X221238Y48278D02*
X230762D01*
X197250Y31000D02*
X205250D01*
X210250D02*
X218250D01*
X218250Y20000D02*
X218250Y31000D01*
X210250Y20000D02*
X218250D01*
X197250D02*
X205250D01*
X197250Y31000D02*
X197250Y20000D01*
X299750Y2000D02*
Y10000D01*
Y15000D02*
Y23000D01*
X310750Y23000D01*
X310750Y15000D01*
Y2000D02*
Y10000D01*
X299750Y2000D02*
X310750D01*
X288238Y17278D02*
X297762D01*
X288238Y13722D02*
X297762D01*
D212*
X147708Y92966D02*
X152280Y92966D01*
X157102D02*
X159388D01*
X161162D02*
X165734D01*
X168270D02*
X170556D01*
X171568D02*
X173854Y92966D01*
X176140Y92966D02*
X177664Y92966D01*
X179950Y92966D02*
X182236D01*
X188618D02*
X192428D01*
X194964Y92966D02*
X197250Y92966D01*
X198774Y92966D02*
X201060Y92966D01*
X202584Y92966D02*
X205632Y92966D01*
X206644D02*
X215026D01*
X147708Y93728D02*
X153042Y93728D01*
X157102D02*
X159388D01*
X160400D02*
X166496Y93728D01*
X168270Y93728D02*
X170556Y93728D01*
X171568Y93728D02*
X173854D01*
X175378D02*
X177664Y93728D01*
X179188Y93728D02*
X182236Y93728D01*
X187856Y93728D02*
X193190D01*
X194964Y93728D02*
X197250Y93728D01*
X198774Y93728D02*
X201060Y93728D01*
X202584Y93728D02*
X204870Y93728D01*
X206644Y93728D02*
X214264D01*
X146946Y94490D02*
X149232Y94490D01*
X150756Y94490D02*
X153042Y94490D01*
X157102D02*
X159388D01*
X160400D02*
X162686Y94490D01*
X164210Y94490D02*
X166496Y94490D01*
X167508Y94490D02*
X170556Y94490D01*
X171568Y94490D02*
X173854D01*
X175378D02*
X177664D01*
X179188D02*
X181474D01*
X187094Y94490D02*
X190142Y94490D01*
X190904Y94490D02*
X193190Y94490D01*
X194964Y94490D02*
X197250Y94490D01*
X198774Y94490D02*
X201060Y94490D01*
X202584Y94490D02*
X204870Y94490D01*
X206644Y94490D02*
X208930Y94490D01*
X211978Y94490D02*
X214264Y94490D01*
X146946Y95252D02*
X149232D01*
X150756D02*
X153042D01*
X156340D02*
X159388D01*
X160400D02*
X162686D01*
X164210D02*
X166496D01*
X167508D02*
X169794D01*
X171568D02*
X173854D01*
X175378D02*
X177664D01*
X179188D02*
X181474D01*
X190904D02*
X193190Y95252D01*
X194202Y95252D02*
X197250Y95252D01*
X198774Y95252D02*
X201060Y95252D01*
X202584Y95252D02*
X204870Y95252D01*
X205882Y95252D02*
X208168Y95252D01*
X211978D02*
X214264Y95252D01*
X146946Y96014D02*
X149232D01*
X150756D02*
X153042D01*
X156340D02*
X158626D01*
X164210D02*
X166496D01*
X167508D02*
X169794D01*
X170806D02*
X173854D01*
X175378D02*
X177664D01*
X179188D02*
X181474D01*
X190904D02*
X193190D01*
X194202D02*
X196488D01*
X198774D02*
X200298D01*
X202584D02*
X204870D01*
X205882D02*
X208168D01*
X211978D02*
X214264D01*
X146184Y96776D02*
X148470D01*
X150756D02*
X153042D01*
X156340D02*
X158626Y96776D01*
X164210Y96776D02*
X166496Y96776D01*
X167508Y96776D02*
X169794Y96776D01*
X170806Y96776D02*
X173092D01*
X174616D02*
X176902D01*
X179188D02*
X181474Y96776D01*
X186332Y96776D02*
X193190D01*
X194202D02*
X196488D01*
X198012D02*
X200298D01*
X201822D02*
X204870D01*
X205882D02*
X208168D01*
X211216D02*
X214264D01*
X146184Y97538D02*
X148470D01*
X150756Y97538D02*
X153042Y97538D01*
X156340D02*
X158626Y97538D01*
X163448Y97538D02*
X165734D01*
X167508D02*
X169794D01*
X170806Y97538D02*
X173092Y97538D01*
X174616Y97538D02*
X176902Y97538D01*
X178426Y97538D02*
X180712Y97538D01*
X186332D02*
X188618D01*
X190142D02*
X193190D01*
X194202D02*
X196488D01*
X198012D02*
X200298D01*
X201822D02*
X204108D01*
X205882D02*
X208168D01*
X211216D02*
X213502D01*
X146184Y98300D02*
X148470D01*
X149994D02*
X152280D01*
X156340D02*
X158626Y98300D01*
X159638Y98300D02*
X161924D01*
X163448D02*
X165734D01*
X166746Y98300D02*
X169032Y98300D01*
X170806Y98300D02*
X173092Y98300D01*
X174616Y98300D02*
X176902Y98300D01*
X178426Y98300D02*
X180712Y98300D01*
X186332D02*
X188618D01*
X190142D02*
X193190Y98300D01*
X194202Y98300D02*
X196488D01*
X198012D02*
X200298D01*
X201822D02*
X204108D01*
X205120D02*
X208168Y98300D01*
X211216Y98300D02*
X213502D01*
X146184Y99062D02*
X148470D01*
X149994D02*
X152280D01*
X153292D02*
X154816D01*
X155578D02*
X158626D01*
X159638D02*
X161924D01*
X163448D02*
X165734D01*
X166746D02*
X169032D01*
X170806D02*
X173092D01*
X174616D02*
X176902D01*
X178426D02*
X180712D01*
X186332D02*
X188618D01*
X190142D02*
X192428D01*
X193440D02*
X196488D01*
X198012D02*
X200298D01*
X201822D02*
X204108D01*
X205120D02*
X207406D01*
X211216D02*
X213502D01*
X146434Y99824D02*
X157864D01*
X159638D02*
X165734D01*
X166746D02*
X169032D01*
X170806D02*
X180712D01*
X186332D02*
X192428D01*
X194202D02*
X204108D01*
X205120D02*
X207406D01*
X211216D02*
X213502D01*
X146946Y100586D02*
X151518D01*
X152530D02*
X156340D01*
X159638D02*
X164972D01*
X166746D02*
X169032D01*
X170806D02*
X179188D01*
X186332D02*
X191666D01*
X194202D02*
X202584Y100586D01*
X205120Y100586D02*
X207406D01*
X210454D02*
X213502D01*
X148470Y101348D02*
X149232D01*
X154054D02*
X154816Y101348D01*
X187856Y101348D02*
X190142D01*
X194964Y101348D02*
X197250Y101348D01*
X199536D02*
X201060D01*
X210454Y101348D02*
X212740Y101348D01*
X165984Y102110D02*
X168270D01*
X205120D02*
X206644Y102110D01*
X210454D02*
X212740Y102110D01*
X165984Y102872D02*
X168270Y102872D01*
X204358Y102872D02*
X206644D01*
X210454D02*
X212740D01*
X166746Y103634D02*
X167508D01*
X204358D02*
X205882Y103634D01*
X193130Y105694D02*
X193892D01*
X193130Y106456D02*
X193892Y106456D01*
X201512D02*
X203036D01*
X193892Y107218D02*
X194654Y107218D01*
X201512Y107218D02*
X203036Y107218D01*
X184748Y107980D02*
X185510D01*
X194654Y107980D02*
X195416Y107980D01*
X201512Y107980D02*
X203036Y107980D01*
X186272Y108742D02*
X187034D01*
X194654Y108742D02*
X196178Y108742D01*
X201512D02*
X203036D01*
X187034Y109504D02*
X188558D01*
X195416D02*
X196940D01*
X200750D02*
X203036D01*
X188558Y110266D02*
X190082D01*
X200750D02*
X203036D01*
X189320Y111028D02*
X190844D01*
X200750D02*
X203036D01*
X190844Y111790D02*
X192368Y111790D01*
X201512Y111790D02*
X203036Y111790D01*
X192368Y112552D02*
X193130D01*
X202274Y112552D02*
X203036Y112552D01*
X202274Y113314D02*
X203798D01*
X203798Y114838D02*
X204560D01*
Y115600D02*
X205322Y115600D01*
Y116362D02*
X207608D01*
X193130Y117886D02*
X195416D01*
X206084D02*
X211418D01*
X190844Y118648D02*
X196178D01*
X206846D02*
X209894D01*
X187796Y119410D02*
X196940D01*
X206846D02*
X208370D01*
X196940Y120172D02*
X198464Y120172D01*
X206846Y120172D02*
X208370Y120172D01*
X198464Y120934D02*
X199226D01*
X206846D02*
X209132D01*
X199226Y121696D02*
X199988D01*
X206846D02*
X209894D01*
X199988Y122458D02*
X200750D01*
X206846D02*
X210656D01*
X199988Y123220D02*
X203036D01*
X206084Y123220D02*
X211418Y123220D01*
X199988Y123982D02*
X208370Y123982D01*
X210656Y123982D02*
X212180Y123982D01*
X200750Y124744D02*
X203036D01*
X206084D02*
X208370D01*
X212180D02*
X213704D01*
X200750Y125506D02*
X203036D01*
X206846D02*
X208370D01*
X213704D02*
X214466D01*
X200750Y126268D02*
X202274D01*
X207608D02*
X209132D01*
X215228D02*
X215990D01*
X200750Y127030D02*
X202274Y127030D01*
X207608Y127030D02*
X209894Y127030D01*
X215990Y127030D02*
X216752D01*
X200750Y127792D02*
X202274Y127792D01*
X208370Y127792D02*
X209894Y127792D01*
X217514D02*
X218276Y127792D01*
X200750Y128554D02*
X202274D01*
X209132D02*
X210656Y128554D01*
X219038Y128554D02*
X219800D01*
X200750Y129316D02*
X201512D01*
X209894D02*
X211418D01*
X200750Y130078D02*
X201512D01*
X210656D02*
X211418D01*
X200750Y130840D02*
X201512D01*
X211418D02*
X212180D01*
X211418Y131602D02*
X212942D01*
X212180Y132364D02*
X212942Y132364D01*
Y133126D02*
X213704D01*
Y133888D02*
X214466D01*
M02*
