G04*
G04 #@! TF.GenerationSoftware,Altium Limited,Altium Designer,19.0.15 (446)*
G04*
G04 Layer_Physical_Order=6*
G04 Layer_Color=16737945*
%FSLAX24Y24*%
%MOIN*%
G70*
G01*
G75*
%ADD10C,0.0118*%
%ADD11C,0.0098*%
%ADD14C,0.0100*%
%ADD15C,0.0079*%
%ADD16C,0.0060*%
%ADD17C,0.0080*%
%ADD18C,0.0138*%
%ADD80C,0.0236*%
%ADD108R,0.2165X0.2165*%
%ADD112C,0.0139*%
%ADD114C,0.0197*%
%ADD121C,0.0197*%
%ADD123C,0.0040*%
%ADD131C,0.0050*%
%ADD135C,0.0114*%
G36*
X53925Y35819D02*
X35661D01*
Y36211D01*
X35663D01*
X35650Y36314D01*
X35610Y36409D01*
X35547Y36492D01*
X35464Y36555D01*
X35459Y36557D01*
X35464Y36609D01*
X35492Y36615D01*
X35551Y36654D01*
X35551D01*
X35610Y36615D01*
X35679Y36601D01*
X35748Y36615D01*
X35807Y36654D01*
X35846Y36712D01*
X35860Y36782D01*
X35846Y36851D01*
X35807Y36909D01*
X35748Y36948D01*
X35679Y36962D01*
X35610Y36948D01*
X35551Y36909D01*
X35551D01*
X35492Y36948D01*
X35423Y36962D01*
X35354Y36948D01*
X35296Y36909D01*
X35256Y36851D01*
X35243Y36782D01*
X35256Y36712D01*
X35295Y36655D01*
X35294Y36650D01*
X35276Y36607D01*
X35266Y36608D01*
Y36606D01*
X34087D01*
Y42705D01*
X35581D01*
Y42703D01*
X35684Y42717D01*
X35779Y42756D01*
X35862Y42819D01*
X35925Y42902D01*
X35965Y42998D01*
X35978Y43101D01*
X35965Y43203D01*
X35925Y43299D01*
X35862Y43382D01*
X35779Y43445D01*
X35684Y43484D01*
X35581Y43498D01*
Y43496D01*
X34087D01*
Y46563D01*
X35149D01*
X35164Y46513D01*
X35138Y46496D01*
X35099Y46437D01*
X35085Y46368D01*
X35099Y46299D01*
X35138Y46240D01*
X35197Y46201D01*
X35266Y46188D01*
X35335Y46201D01*
X35384Y46234D01*
X35433Y46201D01*
X35502Y46188D01*
X35571Y46201D01*
X35630Y46240D01*
X35669Y46299D01*
X35683Y46368D01*
X35669Y46437D01*
X35630Y46496D01*
X35571Y46535D01*
X35502Y46549D01*
X35433Y46535D01*
X35403Y46515D01*
X35384Y46529D01*
X35392Y46584D01*
X35464Y46615D01*
X35547Y46678D01*
X35610Y46760D01*
X35650Y46856D01*
X35663Y46959D01*
X35661D01*
X35661Y46959D01*
Y47351D01*
X53925D01*
Y35819D01*
D02*
G37*
%LPC*%
G36*
X49813Y47179D02*
X49755Y47167D01*
X49706Y47134D01*
X49674Y47085D01*
X49662Y47028D01*
X49674Y46970D01*
X49706Y46921D01*
X49755Y46888D01*
X49813Y46877D01*
X49871Y46888D01*
X49920Y46921D01*
X49952Y46970D01*
X49964Y47028D01*
X49952Y47085D01*
X49920Y47134D01*
X49871Y47167D01*
X49813Y47179D01*
D02*
G37*
G36*
X46427Y46864D02*
X46369Y46852D01*
X46320Y46819D01*
X46317Y46814D01*
X46316Y46814D01*
X46316Y46813D01*
X46073D01*
X46034Y46806D01*
X46002Y46784D01*
X45519Y46302D01*
X45519Y46302D01*
X45518Y46301D01*
X45512Y46303D01*
X45454Y46291D01*
X45405Y46258D01*
X45372Y46209D01*
X45361Y46152D01*
X45372Y46094D01*
X45405Y46045D01*
X45454Y46012D01*
X45512Y46001D01*
X45570Y46012D01*
X45619Y46045D01*
X45651Y46094D01*
X45663Y46152D01*
X45662Y46158D01*
X45662Y46159D01*
X45662Y46159D01*
X46115Y46612D01*
X46316D01*
X46316Y46612D01*
X46317Y46611D01*
X46320Y46606D01*
X46369Y46573D01*
X46427Y46562D01*
X46485Y46573D01*
X46534Y46606D01*
X46567Y46655D01*
X46578Y46713D01*
X46567Y46770D01*
X46534Y46819D01*
X46485Y46852D01*
X46427Y46864D01*
D02*
G37*
G36*
X39478Y46893D02*
X36988D01*
X36938Y46883D01*
X36895Y46855D01*
X36521Y46481D01*
X36493Y46438D01*
X36483Y46388D01*
Y46182D01*
X36475Y46170D01*
X36463Y46112D01*
X36475Y46055D01*
X36483Y46042D01*
Y45936D01*
X36475Y45924D01*
X36463Y45866D01*
X36475Y45808D01*
X36507Y45760D01*
X36556Y45727D01*
X36614Y45715D01*
X36672Y45727D01*
X36721Y45760D01*
X36754Y45808D01*
X36765Y45866D01*
X36774Y45875D01*
X36831Y45873D01*
X36868Y45836D01*
Y45797D01*
X36875Y45759D01*
X36897Y45726D01*
X36945Y45679D01*
X36936Y45624D01*
X36902Y45607D01*
X36888Y45615D01*
X36879Y45622D01*
X36821Y45633D01*
X36763Y45622D01*
X36714Y45589D01*
X36711D01*
X36662Y45622D01*
X36604Y45633D01*
X36547Y45622D01*
X36498Y45589D01*
X36465Y45540D01*
X36453Y45482D01*
X36465Y45425D01*
X36498Y45376D01*
X36547Y45343D01*
X36604Y45331D01*
X36610Y45333D01*
X36611Y45333D01*
X36612Y45332D01*
X36966Y44978D01*
X36999Y44956D01*
X37037Y44949D01*
X37202D01*
X37814Y44337D01*
X37846Y44316D01*
X37885Y44308D01*
X38223D01*
X38262Y44316D01*
X38294Y44337D01*
X38473Y44516D01*
X38474Y44516D01*
X38477Y44516D01*
X38484Y44515D01*
X38542Y44526D01*
X38591Y44559D01*
X38624Y44608D01*
X38667Y44626D01*
X38681Y44617D01*
X38750Y44603D01*
X38819Y44617D01*
X38873Y44653D01*
X38895Y44647D01*
X38923Y44633D01*
Y43816D01*
X38677Y43570D01*
X38655Y43537D01*
X38647Y43499D01*
Y42865D01*
X38655Y42827D01*
X38677Y42794D01*
X38718Y42753D01*
X38718Y42752D01*
X38718Y42751D01*
X38717Y42746D01*
X38722Y42720D01*
X38686Y42670D01*
X38193D01*
X37896Y42967D01*
X37902Y43026D01*
X37919Y43036D01*
X37929Y43039D01*
X37982Y43029D01*
X38040Y43040D01*
X38089Y43073D01*
X38122Y43122D01*
X38125Y43135D01*
X38141Y43178D01*
X38179Y43171D01*
X38199Y43168D01*
X38257Y43179D01*
X38306Y43212D01*
X38338Y43261D01*
X38350Y43318D01*
X38338Y43376D01*
X38306Y43425D01*
X38257Y43458D01*
X38199Y43469D01*
X38193Y43468D01*
X38192Y43468D01*
X38191Y43468D01*
X38122Y43537D01*
Y43860D01*
X38115Y43899D01*
X38093Y43931D01*
X37721Y44304D01*
X37688Y44325D01*
X37649Y44333D01*
X37251D01*
X37079Y44505D01*
Y44616D01*
X37071Y44655D01*
X37050Y44687D01*
X36902Y44835D01*
X36869Y44857D01*
X36831Y44865D01*
X36636D01*
X35567Y45934D01*
X35566Y45937D01*
X35565Y45941D01*
X35564Y45946D01*
X35563Y45964D01*
X35563Y45965D01*
X35564Y45975D01*
X35551Y46044D01*
X35512Y46102D01*
X35453Y46141D01*
X35384Y46155D01*
X35315Y46141D01*
X35256Y46102D01*
X35217Y46044D01*
X35203Y45975D01*
X35217Y45905D01*
X35256Y45847D01*
X35315Y45808D01*
X35384Y45794D01*
X35392Y45796D01*
X35405Y45795D01*
X35411Y45794D01*
X35417Y45794D01*
X35422Y45793D01*
X35424Y45792D01*
X35514Y45702D01*
X35503Y45642D01*
X35493Y45636D01*
X35424Y45567D01*
X35422Y45566D01*
X35417Y45565D01*
X35413Y45564D01*
X35395Y45563D01*
X35393Y45563D01*
X35384Y45565D01*
X35315Y45551D01*
X35256Y45512D01*
X35217Y45453D01*
X35203Y45384D01*
X35217Y45315D01*
X35242Y45278D01*
X35206Y45242D01*
X35182Y45258D01*
X35128Y45269D01*
X34648D01*
X34596Y45279D01*
X34539Y45267D01*
X34490Y45235D01*
X34457Y45186D01*
X34446Y45128D01*
X34457Y45070D01*
X34490Y45021D01*
X34524Y44998D01*
X34526Y44992D01*
Y44949D01*
X34524Y44943D01*
X34490Y44920D01*
X34457Y44871D01*
X34446Y44813D01*
X34457Y44755D01*
X34490Y44706D01*
X34539Y44674D01*
X34596Y44662D01*
X34654Y44674D01*
X34703Y44706D01*
X34712Y44720D01*
X34715Y44722D01*
X35057D01*
X35559Y44220D01*
X35591Y44198D01*
X35630Y44191D01*
X36027D01*
X36167Y44051D01*
X36163Y44014D01*
X36130Y43965D01*
X36130Y43963D01*
X36111Y43929D01*
X36053Y43941D01*
X35995Y43929D01*
X35947Y43897D01*
X35914Y43848D01*
X35902Y43790D01*
X35914Y43732D01*
X35947Y43683D01*
X35995Y43650D01*
X36053Y43639D01*
X36111Y43650D01*
X36160Y43683D01*
X36193Y43732D01*
X36193Y43734D01*
X36212Y43768D01*
X36270Y43757D01*
X36327Y43768D01*
X36376Y43801D01*
X36423Y43805D01*
X36462Y43797D01*
X36523D01*
X36523Y43797D01*
X36524Y43796D01*
X36527Y43791D01*
X36576Y43759D01*
X36634Y43747D01*
X36643Y43749D01*
X36682Y43717D01*
Y43683D01*
X36672Y43630D01*
X36683Y43573D01*
X36716Y43524D01*
X36765Y43491D01*
X36822Y43479D01*
X36880Y43491D01*
X36929Y43524D01*
X36962Y43573D01*
X36973Y43630D01*
X36963Y43683D01*
Y43948D01*
X36952Y44002D01*
X36922Y44047D01*
X36795Y44174D01*
X36749Y44205D01*
X36695Y44215D01*
X36554D01*
X36241Y44529D01*
X36195Y44559D01*
X36142Y44570D01*
X35885D01*
X35264Y45191D01*
X35295Y45230D01*
X35315Y45217D01*
X35384Y45203D01*
X35453Y45217D01*
X35512Y45256D01*
X35551Y45315D01*
X35564Y45384D01*
X35563Y45392D01*
X35563Y45405D01*
X35564Y45412D01*
X35564Y45414D01*
X35582Y45425D01*
X35592Y45430D01*
X35612Y45437D01*
X36464Y44584D01*
X36497Y44563D01*
X36535Y44555D01*
X36740D01*
X36769Y44525D01*
Y44410D01*
X36777Y44371D01*
X36799Y44338D01*
X37074Y44063D01*
X37107Y44041D01*
X37146Y44033D01*
X37561D01*
X37821Y43774D01*
Y43538D01*
X37782Y43506D01*
X37776Y43507D01*
X37718Y43496D01*
X37669Y43463D01*
X37636Y43414D01*
X37625Y43356D01*
X37636Y43299D01*
X37638Y43295D01*
X37599Y43264D01*
X37524Y43339D01*
X37491Y43361D01*
X37453Y43369D01*
X36637D01*
X36598Y43361D01*
X36566Y43339D01*
X35600Y42373D01*
X35545Y42389D01*
X35541Y42412D01*
X35502Y42470D01*
X35456Y42501D01*
X35455Y42502D01*
X35422Y42524D01*
X35384Y42532D01*
X35345Y42524D01*
X35331Y42515D01*
X35305Y42510D01*
X35246Y42470D01*
X35207Y42412D01*
X35193Y42343D01*
X35207Y42274D01*
X35246Y42215D01*
X35305Y42176D01*
X35317Y42173D01*
X35321Y42168D01*
X35332Y42129D01*
X35332Y42119D01*
X35329Y42117D01*
X35285Y42085D01*
X35277Y42079D01*
X35275Y42077D01*
X35273Y42077D01*
X35269Y42072D01*
X35246Y42057D01*
X35207Y41998D01*
X35193Y41929D01*
X35207Y41860D01*
X35182Y41807D01*
X35159Y41803D01*
X35110Y41770D01*
X35106Y41765D01*
X35106Y41764D01*
X35105Y41764D01*
X34892D01*
X34853Y41757D01*
X34821Y41735D01*
X34702Y41617D01*
X34681Y41584D01*
X34673Y41545D01*
Y38475D01*
X34681Y38436D01*
X34702Y38403D01*
X36484Y36622D01*
X36517Y36600D01*
X36555Y36592D01*
X38632D01*
X38670Y36600D01*
X38703Y36622D01*
X39031Y36950D01*
X39036Y36949D01*
X39081Y36919D01*
X39093Y36917D01*
X39196Y36814D01*
X39196Y36814D01*
X39235Y36788D01*
X39281Y36779D01*
X39281Y36779D01*
X40764D01*
Y36476D01*
X40778Y36407D01*
X40817Y36349D01*
X40827Y36339D01*
X40886Y36300D01*
X40955Y36286D01*
X41024Y36300D01*
X41082Y36339D01*
X41122Y36398D01*
X41135Y36467D01*
X41126Y36516D01*
Y36841D01*
X41112Y36910D01*
X41073Y36968D01*
X41014Y37008D01*
X40945Y37021D01*
X40921Y37017D01*
X40905Y37017D01*
X40886Y37021D01*
X40886Y37021D01*
X39332D01*
X39264Y37088D01*
X39262Y37100D01*
X39232Y37145D01*
X39187Y37175D01*
X39167Y37179D01*
Y37230D01*
X39187Y37234D01*
X39232Y37264D01*
X39262Y37309D01*
X39264Y37321D01*
X39450Y37507D01*
X40974D01*
X40976Y37507D01*
X40978Y37506D01*
X40980Y37505D01*
X40981Y37505D01*
X40984Y37500D01*
X41043Y37461D01*
X41112Y37447D01*
X41181Y37461D01*
X41237Y37498D01*
X41252Y37495D01*
X41287Y37481D01*
Y36959D01*
X41295Y36920D01*
X41317Y36888D01*
X41849Y36355D01*
X41882Y36333D01*
X41920Y36326D01*
X44300D01*
X44339Y36333D01*
X44371Y36355D01*
X44429Y36413D01*
X44480Y36411D01*
X44511Y36370D01*
X44504Y36339D01*
X44518Y36270D01*
X44557Y36211D01*
X44616Y36172D01*
X44685Y36158D01*
X44754Y36172D01*
X44786Y36193D01*
X44832Y36162D01*
X44902Y36148D01*
X44971Y36162D01*
X45029Y36201D01*
X45068Y36260D01*
X45082Y36329D01*
X45073Y36375D01*
X45106Y36425D01*
X46831D01*
X46869Y36433D01*
X46902Y36455D01*
X47079Y36632D01*
X47080Y36632D01*
X47081Y36632D01*
X47087Y36631D01*
X47144Y36642D01*
X47193Y36675D01*
X47245Y36689D01*
X47283Y36681D01*
X47369D01*
X47369Y36681D01*
X47370Y36680D01*
X47374Y36675D01*
X47423Y36642D01*
X47480Y36631D01*
X47538Y36642D01*
X47587Y36675D01*
X47620Y36724D01*
X47631Y36782D01*
X47620Y36839D01*
X47587Y36888D01*
X47538Y36921D01*
X47480Y36933D01*
X47423Y36921D01*
X47374Y36888D01*
X47373Y36887D01*
X47323Y36884D01*
X46832Y37376D01*
X46799Y37398D01*
X46794Y37399D01*
X46784Y37452D01*
X46800Y37462D01*
X46832Y37511D01*
X46844Y37569D01*
X46867Y37598D01*
X47098D01*
X47259Y37437D01*
X47292Y37415D01*
X47330Y37408D01*
X47774D01*
X47812Y37415D01*
X47845Y37437D01*
X48181Y37773D01*
X48182Y37773D01*
X48183Y37774D01*
X48189Y37772D01*
X48247Y37784D01*
X48296Y37817D01*
X48321Y37854D01*
X48367Y37851D01*
X48373Y37849D01*
X48376Y37832D01*
X48416Y37773D01*
X48474Y37734D01*
X48543Y37720D01*
X48612Y37734D01*
X48671Y37773D01*
X48710Y37832D01*
X48724Y37901D01*
X48710Y37970D01*
X48671Y38028D01*
X48612Y38068D01*
X48543Y38081D01*
X48474Y38068D01*
X48416Y38028D01*
X48380Y37976D01*
X48356Y37975D01*
X48328Y37981D01*
X48328Y37981D01*
X48296Y38030D01*
X48247Y38063D01*
X48189Y38074D01*
X48131Y38063D01*
X48082Y38030D01*
X48050Y37981D01*
X48038Y37923D01*
X48039Y37917D01*
X48039Y37916D01*
X48039Y37916D01*
X47734Y37611D01*
X47685Y37615D01*
X47661Y37659D01*
X47671Y37707D01*
X47659Y37765D01*
X47626Y37814D01*
X47577Y37846D01*
X47520Y37858D01*
X47462Y37846D01*
X47426Y37822D01*
X47423Y37824D01*
X47390Y37873D01*
X47341Y37905D01*
X47283Y37917D01*
X47226Y37905D01*
X47177Y37873D01*
X47144Y37824D01*
X47139Y37799D01*
X46639D01*
X46601Y37791D01*
X46568Y37769D01*
X46536Y37737D01*
X46474D01*
X46450Y37766D01*
X46439Y37824D01*
X46406Y37873D01*
X46357Y37905D01*
X46299Y37917D01*
X46241Y37905D01*
X46192Y37873D01*
X46186Y37863D01*
X46136Y37858D01*
X45311Y38683D01*
X45279Y38704D01*
X45240Y38712D01*
X44513D01*
X44265Y38960D01*
X44232Y38982D01*
X44194Y38990D01*
X43014D01*
X43004Y39044D01*
X42971Y39093D01*
X42922Y39126D01*
X42864Y39137D01*
X42806Y39126D01*
X42783Y39110D01*
X42746Y39097D01*
X42709Y39110D01*
X42686Y39126D01*
X42628Y39137D01*
X42570Y39126D01*
X42521Y39093D01*
X42521Y39093D01*
X42471Y39088D01*
X42320Y39239D01*
X42339Y39286D01*
X44075D01*
X44121Y39305D01*
X44194Y39378D01*
X44248Y39361D01*
X44252Y39340D01*
X44292Y39282D01*
X44350Y39243D01*
X44419Y39229D01*
X44488Y39243D01*
X44547Y39282D01*
X44586Y39340D01*
X44600Y39410D01*
X44586Y39479D01*
X44552Y39530D01*
X45264Y40242D01*
X45283Y40288D01*
Y40613D01*
X45264Y40659D01*
X45165Y40759D01*
X45158Y40783D01*
X45170Y40801D01*
X45179Y40844D01*
X45170Y40887D01*
X45146Y40923D01*
X45145Y40924D01*
X45148Y40982D01*
X45174Y40999D01*
X45207Y41048D01*
X45218Y41106D01*
X45207Y41164D01*
X45174Y41213D01*
X45125Y41246D01*
X45067Y41257D01*
X45009Y41246D01*
X44960Y41213D01*
X44928Y41164D01*
X44916Y41106D01*
X44898Y41079D01*
X44893Y41078D01*
X44857Y41054D01*
X44833Y41018D01*
X44830Y41004D01*
X44779D01*
X44777Y41018D01*
X44753Y41054D01*
X44716Y41078D01*
X44674Y41087D01*
X44631Y41078D01*
X44595Y41054D01*
X44571Y41018D01*
X44562Y40975D01*
X44571Y40932D01*
X44595Y40896D01*
X44631Y40872D01*
X44645Y40869D01*
Y40819D01*
X44631Y40816D01*
X44599Y40795D01*
X44594Y40793D01*
X44590Y40788D01*
X44586Y40785D01*
X44583Y40782D01*
X44580Y40780D01*
X44577Y40779D01*
X44574Y40778D01*
X44574Y40778D01*
X44439D01*
X44413Y40828D01*
X44424Y40843D01*
X44432Y40886D01*
X44424Y40929D01*
X44400Y40965D01*
X44364Y40989D01*
X44321Y40997D01*
X44318Y40997D01*
X44315Y40998D01*
X44308Y40998D01*
X44304Y40998D01*
X44300Y40999D01*
X44297Y40999D01*
X44294Y41000D01*
X44292Y41001D01*
X44176Y41117D01*
X44201Y41163D01*
X44222Y41158D01*
X44265Y41167D01*
X44301Y41191D01*
X44325Y41227D01*
X44334Y41270D01*
X44325Y41312D01*
X44301Y41349D01*
X44265Y41373D01*
X44227Y41380D01*
X44223Y41382D01*
X44216Y41382D01*
X44211Y41383D01*
X44207Y41383D01*
X44204Y41384D01*
X44201Y41385D01*
X44198Y41386D01*
X44198Y41386D01*
X44040Y41544D01*
X43994Y41563D01*
X43904D01*
Y41733D01*
X43899Y41745D01*
X43893Y41778D01*
X43892Y41780D01*
X43920Y41828D01*
X44066D01*
X44098Y41778D01*
X44091Y41742D01*
X44103Y41684D01*
X44135Y41636D01*
X44184Y41603D01*
X44242Y41591D01*
X44300Y41603D01*
X44349Y41636D01*
X44382Y41684D01*
X44393Y41742D01*
X44386Y41778D01*
X44406Y41810D01*
X44425Y41814D01*
X44430Y41815D01*
X44463Y41814D01*
X44463Y41813D01*
X44468Y41811D01*
X44500Y41790D01*
X44543Y41782D01*
X44586Y41790D01*
X44622Y41814D01*
X44622Y41815D01*
X44681Y41812D01*
X44693Y41794D01*
X44698Y41762D01*
X44693Y41729D01*
X44665Y41688D01*
X44659Y41654D01*
X44618Y41646D01*
X44569Y41613D01*
X44536Y41564D01*
X44527Y41516D01*
X44485Y41508D01*
X44436Y41475D01*
X44403Y41426D01*
X44392Y41368D01*
X44403Y41311D01*
X44436Y41262D01*
X44485Y41229D01*
X44543Y41217D01*
X44600Y41229D01*
X44649Y41262D01*
X44682Y41311D01*
X44692Y41359D01*
X44733Y41367D01*
X44782Y41400D01*
X44815Y41449D01*
X44822Y41483D01*
X44863Y41491D01*
X44912Y41524D01*
X44960D01*
X45009Y41491D01*
X45067Y41480D01*
X45125Y41491D01*
X45174Y41524D01*
X45207Y41573D01*
X45218Y41631D01*
X45207Y41688D01*
X45174Y41737D01*
X45148Y41755D01*
X45145Y41813D01*
X45146Y41814D01*
X45170Y41850D01*
X45178Y41888D01*
X45180Y41893D01*
X45180Y41899D01*
X45180Y41904D01*
X45181Y41908D01*
X45182Y41912D01*
X45182Y41915D01*
X45183Y41917D01*
X45184Y41917D01*
X45243Y41977D01*
X45262Y42023D01*
Y42741D01*
X45243Y42787D01*
X45157Y42873D01*
X45172Y42921D01*
X45180Y42925D01*
X45198Y42922D01*
X45256Y42933D01*
X45305Y42966D01*
X45338Y43015D01*
X45346Y43056D01*
X45387Y43064D01*
X45436Y43097D01*
X45469Y43146D01*
X45480Y43204D01*
X45469Y43262D01*
X45436Y43311D01*
X45431Y43314D01*
X45430Y43315D01*
X45430Y43315D01*
Y43648D01*
X45422Y43686D01*
X45401Y43719D01*
X45297Y43822D01*
X45308Y43882D01*
X45333Y43899D01*
X45366Y43948D01*
X45377Y44006D01*
X45366Y44064D01*
X45333Y44113D01*
X45284Y44145D01*
X45226Y44157D01*
X45169Y44145D01*
X45141Y44127D01*
X45091Y44153D01*
Y44288D01*
X45091Y44289D01*
X45092Y44290D01*
X45097Y44293D01*
X45130Y44342D01*
X45141Y44400D01*
X45130Y44457D01*
X45097Y44506D01*
X45048Y44539D01*
X44990Y44551D01*
X44932Y44539D01*
X44883Y44506D01*
X44851Y44457D01*
X44839Y44400D01*
X44851Y44342D01*
X44883Y44293D01*
X44888Y44290D01*
X44889Y44289D01*
X44889Y44288D01*
Y43987D01*
X44897Y43949D01*
X44919Y43916D01*
X45229Y43606D01*
Y43483D01*
X45182Y43464D01*
X44983Y43664D01*
X44983Y43664D01*
X44982Y43665D01*
X44984Y43671D01*
X44972Y43729D01*
X44939Y43778D01*
X44890Y43811D01*
X44833Y43822D01*
X44775Y43811D01*
X44726Y43778D01*
X44708Y43751D01*
X44666Y43780D01*
X44597Y43793D01*
X44528Y43780D01*
X44469Y43740D01*
X44430Y43682D01*
X44418Y43619D01*
X44396Y43606D01*
X44368Y43598D01*
X44209Y43757D01*
X44163Y43776D01*
X42590D01*
X42590Y43776D01*
X42587Y43777D01*
X42584Y43778D01*
X42581Y43780D01*
X42578Y43783D01*
X42574Y43786D01*
X42570Y43790D01*
X42565Y43792D01*
X42533Y43814D01*
X42490Y43822D01*
X42448Y43814D01*
X42411Y43790D01*
X42388Y43754D01*
X42387Y43753D01*
X42333Y43738D01*
X42265Y43806D01*
Y43959D01*
X42246Y44005D01*
X41972Y44280D01*
X41926Y44299D01*
X40887D01*
X40886Y44299D01*
X40884Y44300D01*
X40881Y44301D01*
X40877Y44303D01*
X40874Y44306D01*
X40870Y44309D01*
X40865Y44314D01*
X40859Y44316D01*
X40830Y44335D01*
X40787Y44344D01*
X40745Y44335D01*
X40709Y44311D01*
X40684Y44275D01*
X40676Y44232D01*
X40684Y44190D01*
X40709Y44154D01*
X40745Y44129D01*
X40787Y44121D01*
X40811Y44126D01*
X40856Y44098D01*
X40862Y44091D01*
X40864Y44078D01*
X40828Y44035D01*
X40443D01*
X40438Y44038D01*
X40429Y44083D01*
X40396Y44132D01*
X40390Y44136D01*
X40373Y44185D01*
X40381Y44198D01*
X40406Y44234D01*
X40417Y44292D01*
X40406Y44350D01*
X40373Y44399D01*
X40324Y44431D01*
X40266Y44443D01*
X40238Y44487D01*
X40236Y44513D01*
X40450Y44727D01*
X40496Y44703D01*
X40489Y44665D01*
X40500Y44608D01*
X40533Y44559D01*
X40582Y44526D01*
X40640Y44515D01*
X40698Y44526D01*
X40710Y44534D01*
X41537D01*
X41567Y44490D01*
X41615Y44457D01*
X41673Y44446D01*
X41731Y44457D01*
X41780Y44490D01*
X41813Y44539D01*
X41824Y44597D01*
X41813Y44654D01*
X41780Y44703D01*
X41731Y44736D01*
X41717Y44739D01*
X41697Y44758D01*
X41655Y44787D01*
X41604Y44797D01*
X40771D01*
Y44910D01*
X40779Y44923D01*
X40791Y44980D01*
X40779Y45038D01*
X40746Y45087D01*
X40698Y45120D01*
X40640Y45131D01*
X40623Y45128D01*
X40615Y45133D01*
X40600Y45182D01*
X41165Y45747D01*
X41175Y45750D01*
X41197Y45733D01*
X41195Y45672D01*
X41191Y45669D01*
X41152Y45611D01*
X41138Y45541D01*
X41152Y45472D01*
X41191Y45414D01*
X41250Y45375D01*
X41319Y45361D01*
X41388Y45375D01*
X41447Y45414D01*
X41486Y45472D01*
X41498Y45534D01*
X41499Y45536D01*
X41501Y45538D01*
X41571Y45608D01*
X41599Y45651D01*
X41609Y45701D01*
Y45932D01*
X41599Y45982D01*
X41571Y46025D01*
X41194Y46402D01*
X41178Y46413D01*
X41197Y46460D01*
X41230Y46454D01*
X41288Y46465D01*
X41337Y46498D01*
X41370Y46547D01*
X41381Y46604D01*
X41370Y46662D01*
X41337Y46711D01*
X41288Y46744D01*
X41230Y46755D01*
X41173Y46744D01*
X41124Y46711D01*
X41091Y46662D01*
X41079Y46604D01*
X41091Y46547D01*
X41124Y46498D01*
X41146Y46482D01*
X41127Y46435D01*
X41101Y46440D01*
X39985D01*
X39571Y46855D01*
X39529Y46883D01*
X39478Y46893D01*
D02*
G37*
G36*
X46821Y46657D02*
X46763Y46645D01*
X46714Y46613D01*
X46681Y46564D01*
X46670Y46506D01*
X46681Y46448D01*
X46714Y46399D01*
X46763Y46367D01*
X46821Y46355D01*
X46879Y46367D01*
X46928Y46399D01*
X46960Y46448D01*
X46972Y46506D01*
X46960Y46564D01*
X46928Y46613D01*
X46879Y46645D01*
X46821Y46657D01*
D02*
G37*
G36*
X50128Y46519D02*
X50070Y46508D01*
X50021Y46475D01*
X49989Y46426D01*
X49977Y46368D01*
X49989Y46310D01*
X50021Y46262D01*
X50070Y46229D01*
X50128Y46217D01*
X50186Y46229D01*
X50235Y46262D01*
X50267Y46310D01*
X50279Y46368D01*
X50267Y46426D01*
X50235Y46475D01*
X50186Y46508D01*
X50128Y46519D01*
D02*
G37*
G36*
X45049Y46273D02*
X44991Y46262D01*
X44942Y46229D01*
X44925Y46203D01*
X44910Y46212D01*
X44852Y46224D01*
X44795Y46212D01*
X44746Y46180D01*
X44713Y46131D01*
X44701Y46073D01*
X44713Y46015D01*
X44746Y45966D01*
X44795Y45933D01*
X44852Y45922D01*
X44910Y45933D01*
X44959Y45966D01*
X44977Y45993D01*
X44991Y45983D01*
X45049Y45971D01*
X45107Y45983D01*
X45156Y46015D01*
X45189Y46064D01*
X45200Y46122D01*
X45189Y46180D01*
X45156Y46229D01*
X45107Y46262D01*
X45049Y46273D01*
D02*
G37*
G36*
X51535Y46352D02*
X51478Y46340D01*
X51429Y46308D01*
X51396Y46259D01*
X51385Y46201D01*
X51396Y46143D01*
X51429Y46094D01*
X51478Y46061D01*
X51535Y46050D01*
X51593Y46061D01*
X51642Y46094D01*
X51675Y46143D01*
X51686Y46201D01*
X51675Y46259D01*
X51642Y46308D01*
X51593Y46340D01*
X51535Y46352D01*
D02*
G37*
G36*
X44085D02*
X44027Y46340D01*
X43978Y46308D01*
X43945Y46259D01*
X43934Y46201D01*
X43945Y46143D01*
X43978Y46094D01*
X44027Y46061D01*
X44085Y46050D01*
X44142Y46061D01*
X44191Y46094D01*
X44224Y46143D01*
X44236Y46201D01*
X44224Y46259D01*
X44191Y46308D01*
X44142Y46340D01*
X44085Y46352D01*
D02*
G37*
G36*
X49557Y46125D02*
X49499Y46114D01*
X49450Y46081D01*
X49418Y46032D01*
X49406Y45975D01*
X49418Y45917D01*
X49450Y45868D01*
X49499Y45835D01*
X49557Y45824D01*
X49615Y45835D01*
X49664Y45868D01*
X49697Y45917D01*
X49708Y45975D01*
X49697Y46032D01*
X49664Y46081D01*
X49615Y46114D01*
X49557Y46125D01*
D02*
G37*
G36*
X48888D02*
X48830Y46114D01*
X48781Y46081D01*
X48748Y46032D01*
X48737Y45975D01*
X48748Y45917D01*
X48781Y45868D01*
X48830Y45835D01*
X48888Y45824D01*
X48946Y45835D01*
X48995Y45868D01*
X49027Y45917D01*
X49039Y45975D01*
X49027Y46032D01*
X48995Y46081D01*
X48946Y46114D01*
X48888Y46125D01*
D02*
G37*
G36*
X47943Y45456D02*
X47885Y45445D01*
X47836Y45412D01*
X47813Y45378D01*
X47807Y45376D01*
X47764D01*
X47758Y45378D01*
X47735Y45412D01*
X47686Y45445D01*
X47628Y45456D01*
X47570Y45445D01*
X47521Y45412D01*
X47489Y45363D01*
X47477Y45305D01*
X47489Y45247D01*
X47521Y45198D01*
X47570Y45166D01*
X47628Y45154D01*
X47686Y45166D01*
X47735Y45198D01*
X47758Y45233D01*
X47764Y45235D01*
X47807D01*
X47813Y45233D01*
X47836Y45198D01*
X47885Y45166D01*
X47943Y45154D01*
X48001Y45166D01*
X48050Y45198D01*
X48082Y45247D01*
X48094Y45305D01*
X48082Y45363D01*
X48050Y45412D01*
X48001Y45445D01*
X47943Y45456D01*
D02*
G37*
G36*
X46900Y45860D02*
X46830Y45846D01*
X46772Y45807D01*
X46733Y45748D01*
X46719Y45679D01*
X46732Y45614D01*
X46730Y45602D01*
X46710Y45564D01*
X46526D01*
X46480Y45555D01*
X46440Y45529D01*
X46440Y45529D01*
X46258Y45347D01*
X45943D01*
X45914Y45366D01*
X45856Y45377D01*
X45799Y45366D01*
X45750Y45333D01*
X45717Y45284D01*
X45705Y45226D01*
X45717Y45169D01*
X45750Y45120D01*
X45799Y45087D01*
X45856Y45076D01*
X45914Y45087D01*
X45943Y45106D01*
X46308D01*
X46308Y45106D01*
X46338Y45112D01*
X46363Y45066D01*
X46359Y45062D01*
X46352Y45052D01*
X46308Y45021D01*
X46280Y45027D01*
X46250Y45033D01*
X46192Y45021D01*
X46143Y44989D01*
X46111Y44940D01*
X46108Y44925D01*
X45862Y44680D01*
X45833Y44637D01*
X45823Y44587D01*
Y43627D01*
X45833Y43577D01*
X45862Y43534D01*
X45896Y43500D01*
X45891Y43450D01*
X45878Y43442D01*
X45829D01*
X45780Y43474D01*
X45723Y43486D01*
X45665Y43474D01*
X45616Y43442D01*
X45583Y43393D01*
X45572Y43335D01*
X45583Y43277D01*
X45616Y43228D01*
Y43179D01*
X45583Y43131D01*
X45572Y43073D01*
X45583Y43015D01*
X45616Y42966D01*
X45665Y42933D01*
X45723Y42922D01*
X45780Y42933D01*
X45829Y42966D01*
X45878D01*
X45927Y42933D01*
X45985Y42922D01*
X46043Y42933D01*
X46084Y42961D01*
X46116Y42966D01*
X46148Y42961D01*
X46189Y42933D01*
X46223Y42927D01*
X46311Y42839D01*
X46311Y42839D01*
X46350Y42813D01*
X46396Y42804D01*
X46396Y42804D01*
X46881D01*
X46881Y42804D01*
X46927Y42813D01*
X46966Y42839D01*
X47418Y43291D01*
X47418Y43291D01*
X47444Y43330D01*
X47453Y43376D01*
Y44977D01*
X47453Y44977D01*
X47444Y45023D01*
X47418Y45062D01*
X47418Y45062D01*
X47197Y45283D01*
Y45335D01*
X47188Y45381D01*
X47161Y45420D01*
X47053Y45529D01*
X47053Y45589D01*
X47066Y45610D01*
X47080Y45679D01*
X47066Y45748D01*
X47027Y45807D01*
X46969Y45846D01*
X46900Y45860D01*
D02*
G37*
G36*
X44567Y45850D02*
X44509Y45838D01*
X44460Y45806D01*
X44427Y45757D01*
X44416Y45699D01*
X44427Y45641D01*
X44460Y45592D01*
Y45579D01*
X44427Y45530D01*
X44416Y45473D01*
X44421Y45450D01*
X44380Y45407D01*
X44322Y45395D01*
X44273Y45363D01*
X44240Y45314D01*
X44239Y45307D01*
X44185Y45291D01*
X43754Y45722D01*
X43711Y45751D01*
X43661Y45760D01*
X41919D01*
X41869Y45751D01*
X41827Y45722D01*
X41730Y45625D01*
X41714Y45622D01*
X41665Y45589D01*
X41632Y45540D01*
X41621Y45482D01*
X41632Y45425D01*
X41665Y45376D01*
X41714Y45343D01*
X41754Y45335D01*
X41768Y45284D01*
X41754Y45274D01*
X41721Y45225D01*
X41709Y45167D01*
X41721Y45110D01*
X41754Y45061D01*
X41802Y45028D01*
X41860Y45016D01*
X41918Y45028D01*
X41967Y45061D01*
X41997Y45105D01*
X41999Y45107D01*
X42045Y45082D01*
X42044Y45079D01*
X42055Y45021D01*
X42088Y44972D01*
X42137Y44939D01*
X42195Y44928D01*
X42253Y44939D01*
X42302Y44972D01*
X42334Y45021D01*
X42346Y45079D01*
X42334Y45137D01*
X42302Y45186D01*
X42253Y45218D01*
X42195Y45230D01*
X42191Y45229D01*
X42167Y45275D01*
X42224Y45332D01*
X42836D01*
X42962Y45206D01*
X43007Y45175D01*
X43061Y45165D01*
X43098D01*
Y44774D01*
X43108Y44720D01*
X43139Y44674D01*
X43299Y44515D01*
X43328Y44470D01*
X43377Y44437D01*
X43435Y44426D01*
X43493Y44437D01*
X43542Y44470D01*
X43564Y44504D01*
X43601Y44515D01*
X43624Y44512D01*
X43663Y44487D01*
X43720Y44475D01*
X43778Y44487D01*
X43827Y44519D01*
X43860Y44568D01*
X43871Y44626D01*
X43860Y44684D01*
X43827Y44733D01*
X43778Y44766D01*
X43720Y44777D01*
X43663Y44766D01*
X43614Y44733D01*
X43591Y44699D01*
X43554Y44687D01*
X43531Y44691D01*
X43497Y44713D01*
X43379Y44832D01*
Y45124D01*
X43415Y45154D01*
X43473Y45166D01*
X43522Y45198D01*
X43530Y45210D01*
X43584Y45218D01*
X43633Y45185D01*
X43691Y45174D01*
X43749Y45185D01*
X43798Y45218D01*
X43806Y45230D01*
X43870Y45237D01*
X44284Y44823D01*
X44290Y44795D01*
X44322Y44746D01*
X44371Y44713D01*
X44429Y44702D01*
X44487Y44713D01*
X44536Y44746D01*
X44569Y44795D01*
X44580Y44852D01*
X44569Y44910D01*
X44536Y44959D01*
X44487Y44992D01*
X44483Y44993D01*
X44415Y45061D01*
X44431Y45115D01*
X44438Y45117D01*
X44487Y45149D01*
X44519Y45198D01*
X44531Y45256D01*
X44526Y45279D01*
X44567Y45322D01*
X44625Y45333D01*
X44674Y45366D01*
X44706Y45415D01*
X44718Y45473D01*
X44706Y45530D01*
X44674Y45579D01*
Y45592D01*
X44706Y45641D01*
X44718Y45699D01*
X44706Y45757D01*
X44674Y45806D01*
X44625Y45838D01*
X44567Y45850D01*
D02*
G37*
G36*
X48760Y45486D02*
X48691Y45472D01*
X48632Y45433D01*
X48593Y45374D01*
X48579Y45305D01*
X48593Y45236D01*
X48632Y45177D01*
X48691Y45138D01*
X48760Y45125D01*
X48829Y45138D01*
X48888Y45177D01*
X48927Y45236D01*
X48940Y45305D01*
X48927Y45374D01*
X48888Y45433D01*
X48829Y45472D01*
X48760Y45486D01*
D02*
G37*
G36*
X44911Y45437D02*
X44842Y45423D01*
X44784Y45384D01*
X44745Y45325D01*
X44731Y45256D01*
X44745Y45187D01*
X44784Y45128D01*
X44842Y45089D01*
X44911Y45075D01*
X44981Y45089D01*
X45039Y45128D01*
X45078Y45187D01*
X45092Y45256D01*
X45078Y45325D01*
X45039Y45384D01*
X44981Y45423D01*
X44911Y45437D01*
D02*
G37*
G36*
X50394Y45397D02*
X50325Y45384D01*
X50266Y45344D01*
X50227Y45286D01*
X50213Y45217D01*
X50227Y45148D01*
X50266Y45089D01*
X50325Y45050D01*
X50394Y45036D01*
X50463Y45050D01*
X50521Y45089D01*
X50561Y45148D01*
X50574Y45217D01*
X50561Y45286D01*
X50521Y45344D01*
X50463Y45384D01*
X50394Y45397D01*
D02*
G37*
G36*
X45148Y45102D02*
X45090Y45090D01*
X45041Y45058D01*
X45008Y45009D01*
X44997Y44951D01*
X45008Y44893D01*
X45041Y44844D01*
X45090Y44811D01*
X45148Y44800D01*
X45205Y44811D01*
X45254Y44844D01*
X45287Y44893D01*
X45299Y44951D01*
X45287Y45009D01*
X45254Y45058D01*
X45205Y45090D01*
X45148Y45102D01*
D02*
G37*
G36*
X47894Y46223D02*
X46610D01*
X46571Y46215D01*
X46538Y46193D01*
X46307Y45962D01*
X46306Y45962D01*
X46305Y45962D01*
X46299Y45963D01*
X46241Y45951D01*
X46192Y45918D01*
X46160Y45870D01*
X46148Y45812D01*
X46160Y45754D01*
X46192Y45705D01*
X46241Y45672D01*
X46299Y45661D01*
X46357Y45672D01*
X46406Y45705D01*
X46439Y45754D01*
X46450Y45812D01*
X46449Y45818D01*
X46449Y45819D01*
X46449Y45819D01*
X46651Y46021D01*
X47852D01*
X48187Y45687D01*
Y43496D01*
X48148Y43476D01*
X48137Y43475D01*
X48082Y43486D01*
X48025Y43474D01*
X47976Y43442D01*
X47943Y43393D01*
X47932Y43335D01*
X47943Y43277D01*
X47976Y43228D01*
X48025Y43196D01*
X48066Y43187D01*
X48074Y43146D01*
X48102Y43105D01*
X48107Y43073D01*
X48102Y43041D01*
X48074Y42999D01*
X48067Y42962D01*
X48029Y42954D01*
X47980Y42921D01*
X47947Y42872D01*
X47936Y42815D01*
X47947Y42757D01*
X47980Y42708D01*
X47980Y42708D01*
Y42666D01*
X47974Y42652D01*
X47943Y42606D01*
X47932Y42548D01*
X47943Y42491D01*
X47976Y42442D01*
X48025Y42409D01*
X48067Y42400D01*
X48074Y42367D01*
X48107Y42318D01*
X48156Y42285D01*
X48196Y42277D01*
X48205Y42228D01*
X48233Y42187D01*
X48238Y42155D01*
X48233Y42123D01*
X48205Y42082D01*
X48197Y42039D01*
X48152Y42030D01*
X48103Y41997D01*
X48070Y41948D01*
X48062Y41909D01*
X48025Y41901D01*
X47976Y41868D01*
X47943Y41819D01*
X47932Y41762D01*
X47943Y41704D01*
X47976Y41655D01*
Y41606D01*
X47943Y41557D01*
X47932Y41500D01*
X47943Y41442D01*
X47976Y41393D01*
X48025Y41360D01*
X48082Y41349D01*
X48098Y41352D01*
X48137Y41308D01*
X48130Y41276D01*
X48142Y41218D01*
X48143Y41216D01*
X48116Y41188D01*
X48094Y41155D01*
X48086Y41117D01*
Y40950D01*
X48094Y40912D01*
X48091Y40900D01*
X48068Y40861D01*
X48025Y40852D01*
X47976Y40820D01*
X47943Y40771D01*
X47932Y40713D01*
X47943Y40655D01*
X47973Y40610D01*
X47988Y40569D01*
Y40560D01*
X47956Y40511D01*
X47944Y40454D01*
X47956Y40396D01*
X47988Y40347D01*
X48037Y40314D01*
X48065Y40309D01*
X48074Y40262D01*
X48102Y40220D01*
X48103Y40218D01*
X48103Y40195D01*
X48096Y40160D01*
X48093Y40159D01*
X47801Y39866D01*
X47779Y39834D01*
X47771Y39795D01*
Y39712D01*
X47721Y39678D01*
X47689Y39684D01*
X47631Y39672D01*
X47582Y39640D01*
X47534D01*
X47485Y39672D01*
X47444Y39681D01*
X47435Y39722D01*
X47403Y39771D01*
X47354Y39804D01*
X47296Y39815D01*
X47238Y39804D01*
X47189Y39771D01*
X47156Y39722D01*
X47145Y39664D01*
X47147Y39653D01*
X47147Y39651D01*
X47147Y39649D01*
X47023Y39525D01*
X47001Y39492D01*
X46994Y39454D01*
Y39139D01*
X47001Y39101D01*
X47023Y39068D01*
X47265Y38827D01*
X47297Y38805D01*
X47336Y38797D01*
X47536D01*
X47537Y38797D01*
X47538Y38796D01*
X47541Y38791D01*
X47590Y38758D01*
X47648Y38747D01*
X47705Y38758D01*
X47754Y38791D01*
X47787Y38840D01*
X47799Y38898D01*
X47787Y38956D01*
X47797Y38991D01*
X47829Y39001D01*
X47845Y38984D01*
X47878Y38962D01*
X47917Y38955D01*
X48791D01*
X48830Y38962D01*
X48863Y38984D01*
X48891Y39012D01*
X48962Y39022D01*
X49040Y39054D01*
X49107Y39106D01*
X49159Y39173D01*
X49191Y39251D01*
X49202Y39334D01*
X49203D01*
X49208Y39361D01*
X49223Y39383D01*
X49246Y39398D01*
X49272Y39404D01*
X49299Y39398D01*
X49321Y39383D01*
X49335Y39362D01*
X49342Y39315D01*
X49342D01*
X49353Y39236D01*
X49383Y39163D01*
X49432Y39100D01*
X49495Y39052D01*
X49568Y39021D01*
X49647Y39011D01*
Y39012D01*
X49759D01*
X49797Y39019D01*
X49830Y39041D01*
X50018Y39229D01*
X50040Y39262D01*
X50048Y39301D01*
Y39823D01*
X50048D01*
X50037Y39907D01*
X50005Y39985D01*
X49953Y40052D01*
X49886Y40104D01*
X49868Y40111D01*
Y40166D01*
X49886Y40173D01*
X49953Y40225D01*
X50005Y40292D01*
X50037Y40370D01*
X50048Y40454D01*
X50085Y40486D01*
X50097Y40494D01*
X50130Y40543D01*
X50141Y40601D01*
X50130Y40658D01*
X50097Y40707D01*
X50048Y40740D01*
X49990Y40751D01*
X49932Y40740D01*
X49887Y40709D01*
X49841Y40740D01*
X49783Y40751D01*
X49726Y40740D01*
X49677Y40707D01*
X49644Y40658D01*
X49633Y40601D01*
X49644Y40543D01*
X49664Y40512D01*
X49645Y40461D01*
X49644Y40459D01*
X49586Y40452D01*
X49508Y40419D01*
X49441Y40368D01*
X49389Y40301D01*
X49357Y40222D01*
X49346Y40139D01*
X49357Y40055D01*
X49389Y39976D01*
X49441Y39909D01*
X49508Y39858D01*
X49586Y39825D01*
X49670Y39814D01*
X49670Y39814D01*
X49716Y39805D01*
Y39412D01*
X49668Y39409D01*
X49666Y39409D01*
X49662Y39439D01*
X49622Y39536D01*
X49558Y39620D01*
X49474Y39684D01*
X49377Y39724D01*
X49272Y39738D01*
X49168Y39724D01*
X49070Y39684D01*
X48987Y39620D01*
X48923Y39536D01*
X48882Y39439D01*
X48870Y39343D01*
X48870Y39343D01*
X48799D01*
X48761Y39335D01*
X48728Y39313D01*
X48698Y39284D01*
X48242D01*
X48215Y39334D01*
X48222Y39344D01*
X48230Y39385D01*
X48271Y39394D01*
X48320Y39426D01*
X48369D01*
X48418Y39394D01*
X48476Y39382D01*
X48534Y39394D01*
X48583Y39426D01*
X48615Y39475D01*
X48627Y39533D01*
X48615Y39591D01*
X48583Y39640D01*
X48534Y39672D01*
X48492Y39681D01*
X48484Y39722D01*
X48451Y39771D01*
X48402Y39804D01*
X48387Y39807D01*
X48392Y39857D01*
X48856D01*
X48857Y39854D01*
X48889Y39805D01*
X48938Y39772D01*
X48996Y39761D01*
X49054Y39772D01*
X49103Y39805D01*
X49135Y39854D01*
X49147Y39912D01*
X49135Y39969D01*
X49103Y40018D01*
Y40021D01*
X49135Y40070D01*
X49147Y40128D01*
X49135Y40186D01*
X49103Y40235D01*
X49054Y40268D01*
X48996Y40279D01*
X48938Y40268D01*
X48889Y40235D01*
X48858Y40188D01*
X48364D01*
X48337Y40238D01*
X48353Y40262D01*
X48361Y40303D01*
X48402Y40311D01*
X48451Y40344D01*
X48484Y40393D01*
X48492Y40434D01*
X48534Y40442D01*
X48583Y40475D01*
X48593Y40491D01*
X48643Y40496D01*
X48685Y40454D01*
X48718Y40432D01*
X48756Y40424D01*
X48924D01*
X48962Y40432D01*
X48995Y40454D01*
X49254Y40714D01*
X49319Y40707D01*
X49331Y40689D01*
X49390Y40650D01*
X49459Y40636D01*
X49528Y40650D01*
X49586Y40689D01*
X49626Y40748D01*
X49639Y40817D01*
X49639Y40820D01*
X49684Y40850D01*
X49696Y40842D01*
X49734Y40834D01*
X50529D01*
X50856Y40508D01*
X50888Y40486D01*
X50927Y40478D01*
X51279D01*
X51318Y40486D01*
X51350Y40508D01*
X51396Y40553D01*
X51450Y40537D01*
X51455Y40513D01*
X51488Y40464D01*
X51537Y40432D01*
X51594Y40420D01*
X51652Y40432D01*
X51701Y40464D01*
X51719Y40491D01*
X51720Y40492D01*
X51721Y40492D01*
X51726Y40494D01*
X51741Y40497D01*
X51774Y40519D01*
X51779Y40524D01*
X51785Y40523D01*
X51809Y40500D01*
X51841Y40478D01*
X51875Y40471D01*
X51877Y40471D01*
X51881Y40464D01*
X51930Y40432D01*
X51988Y40420D01*
X51996Y40422D01*
X52001Y40422D01*
X52011Y40411D01*
X52044Y40389D01*
X52082Y40382D01*
X52605D01*
X52606Y40381D01*
X52606Y40381D01*
X52610Y40376D01*
X52659Y40343D01*
X52717Y40331D01*
X52774Y40343D01*
X52823Y40376D01*
X52856Y40425D01*
X52867Y40482D01*
X52856Y40540D01*
X52823Y40589D01*
X52774Y40622D01*
X52717Y40633D01*
X52659Y40622D01*
X52610Y40589D01*
X52606Y40584D01*
X52606Y40583D01*
X52605Y40583D01*
X52137D01*
X52128Y40629D01*
X52095Y40678D01*
X52046Y40710D01*
X51988Y40722D01*
X51957Y40747D01*
Y40788D01*
X51949Y40827D01*
X51928Y40859D01*
X51736Y41051D01*
X51703Y41073D01*
X51664Y41081D01*
X51497D01*
X51458Y41073D01*
X51425Y41051D01*
X51184Y40810D01*
X51023D01*
X50696Y41136D01*
X50663Y41158D01*
X50625Y41166D01*
X49830D01*
X49819Y41177D01*
X49812Y41182D01*
X49802Y41243D01*
X49907Y41348D01*
X50480D01*
X50487Y41341D01*
X50520Y41319D01*
X50558Y41311D01*
X50808D01*
X50846Y41319D01*
X50879Y41341D01*
X51444Y41905D01*
X51494Y41885D01*
Y41819D01*
X51501Y41780D01*
X51523Y41747D01*
X51551Y41720D01*
X51583Y41698D01*
X51622Y41691D01*
X51811D01*
X51850Y41698D01*
X51882Y41720D01*
X51916Y41754D01*
X51938Y41787D01*
X51988Y41828D01*
X52046Y41839D01*
X52095Y41872D01*
X52128Y41921D01*
X52139Y41978D01*
X52128Y42036D01*
X52095Y42085D01*
X52092Y42087D01*
X52091Y42088D01*
Y42200D01*
X52083Y42238D01*
X52061Y42271D01*
X51926Y42406D01*
X51894Y42428D01*
X51855Y42436D01*
X51585D01*
X51574Y42491D01*
X51535Y42549D01*
X51477Y42588D01*
X51407Y42602D01*
X51338Y42588D01*
X51280Y42549D01*
X51241Y42491D01*
X51227Y42421D01*
X51241Y42352D01*
X51280Y42294D01*
X51297Y42282D01*
X51302Y42232D01*
X50880Y41810D01*
X50818Y41819D01*
X50797Y41850D01*
X50785Y41858D01*
Y41908D01*
X50787Y41910D01*
X50826Y41968D01*
X50840Y42038D01*
X50826Y42107D01*
X50787Y42165D01*
X50729Y42204D01*
X50659Y42218D01*
X50590Y42204D01*
X50532Y42165D01*
X50493Y42107D01*
X50479Y42038D01*
X50493Y41968D01*
X50532Y41910D01*
X50544Y41902D01*
Y41852D01*
X50542Y41850D01*
X50502Y41792D01*
X50489Y41723D01*
X50490Y41718D01*
X50458Y41679D01*
X49811D01*
X49773Y41671D01*
X49740Y41649D01*
X49727Y41636D01*
X49673Y41653D01*
X49667Y41682D01*
X49634Y41731D01*
X49631Y41768D01*
X49770Y41907D01*
X49836D01*
X49874Y41915D01*
X49907Y41937D01*
X50104Y42134D01*
X50125Y42166D01*
X50133Y42205D01*
Y42367D01*
X50142Y42375D01*
X50891D01*
X50929Y42383D01*
X50962Y42405D01*
X51171Y42614D01*
X51193Y42647D01*
X51201Y42686D01*
Y43492D01*
X51926D01*
X52176Y43242D01*
X52176Y43215D01*
X52176Y43210D01*
X52167Y43185D01*
X52128Y43158D01*
X52095Y43109D01*
X52083Y43051D01*
X52095Y42994D01*
X52128Y42945D01*
X52176Y42912D01*
X52234Y42900D01*
X52292Y42912D01*
X52341Y42945D01*
X52374Y42994D01*
X52385Y43051D01*
X52374Y43109D01*
X52343Y43154D01*
X52347Y43173D01*
X52361Y43204D01*
X52415D01*
X52454Y43212D01*
X52486Y43234D01*
X52529Y43276D01*
X52552Y43281D01*
X52585Y43303D01*
X52664Y43381D01*
X52707Y43373D01*
X52764Y43384D01*
X52813Y43417D01*
X52846Y43466D01*
X52858Y43524D01*
X52846Y43581D01*
X52813Y43630D01*
X52764Y43663D01*
X52707Y43675D01*
X52649Y43663D01*
X52612Y43638D01*
X52571Y43670D01*
X52574Y43679D01*
X52589Y43702D01*
X52601Y43760D01*
X52589Y43818D01*
X52557Y43867D01*
X52508Y43899D01*
X52450Y43911D01*
X52433Y43908D01*
X52419Y43918D01*
X52396Y43951D01*
X52405Y43996D01*
X52393Y44054D01*
X52361Y44103D01*
X52312Y44136D01*
X52254Y44147D01*
X52196Y44136D01*
X52147Y44103D01*
X52114Y44054D01*
X52103Y43996D01*
X52114Y43938D01*
X52147Y43889D01*
X52196Y43857D01*
X52254Y43845D01*
X52271Y43849D01*
X52284Y43838D01*
X52308Y43805D01*
X52299Y43760D01*
X52311Y43702D01*
X52326Y43679D01*
X52330Y43669D01*
X52312Y43638D01*
X52255Y43631D01*
X52092Y43794D01*
X52060Y43816D01*
X52021Y43823D01*
X51064D01*
X51026Y43816D01*
X50993Y43794D01*
X50899Y43700D01*
X50877Y43667D01*
X50870Y43629D01*
Y42781D01*
X50795Y42707D01*
X50046D01*
X50008Y42699D01*
X49975Y42677D01*
X49831Y42534D01*
X49809Y42501D01*
X49802Y42463D01*
Y42313D01*
X49728Y42239D01*
X49675D01*
X49636Y42231D01*
X49604Y42209D01*
X49484Y42090D01*
X49434Y42095D01*
X49428Y42105D01*
X49379Y42138D01*
X49321Y42149D01*
X49263Y42138D01*
X49214Y42105D01*
X49183Y42058D01*
X49167Y42054D01*
X49130Y42054D01*
X49103Y42095D01*
X49100Y42097D01*
X49095Y42147D01*
X49372Y42424D01*
X49394Y42457D01*
X49402Y42495D01*
Y43284D01*
X50428D01*
X50467Y43291D01*
X50499Y43313D01*
X50615Y43428D01*
X50636Y43461D01*
X50644Y43499D01*
Y43957D01*
X51083Y44395D01*
X52321D01*
X52343Y44362D01*
X52392Y44329D01*
X52450Y44318D01*
X52508Y44329D01*
X52557Y44362D01*
X52589Y44411D01*
X52601Y44469D01*
X52650Y44479D01*
X52689Y44487D01*
X52738Y44519D01*
X52770Y44568D01*
X52782Y44626D01*
X52770Y44684D01*
X52738Y44733D01*
X52689Y44766D01*
X52631Y44777D01*
X52573Y44766D01*
X52524Y44733D01*
X52520Y44727D01*
X50987D01*
X50949Y44719D01*
X50916Y44697D01*
X50342Y44123D01*
X50320Y44091D01*
X50313Y44052D01*
Y43615D01*
X49285D01*
X49247Y43607D01*
X49214Y43585D01*
X49100Y43472D01*
X49078Y43439D01*
X49071Y43400D01*
Y42591D01*
X48942Y42462D01*
X48879Y42470D01*
X48867Y42489D01*
X48818Y42521D01*
X48760Y42533D01*
X48702Y42521D01*
X48653Y42489D01*
X48620Y42440D01*
X48609Y42382D01*
X48620Y42324D01*
X48653Y42275D01*
X48672Y42263D01*
X48680Y42201D01*
X48645Y42167D01*
X48607Y42175D01*
X48549Y42163D01*
X48503Y42133D01*
X48487Y42136D01*
X48456Y42181D01*
X48457Y42187D01*
X48484Y42228D01*
X48496Y42286D01*
X48484Y42344D01*
X48451Y42393D01*
X48402Y42426D01*
X48363Y42433D01*
X48353Y42482D01*
X48328Y42519D01*
X48334Y42543D01*
X48370Y42569D01*
X48377Y42567D01*
X48418Y42540D01*
X48476Y42529D01*
X48534Y42540D01*
X48583Y42573D01*
X48615Y42622D01*
X48627Y42679D01*
X48615Y42737D01*
X48583Y42786D01*
Y42835D01*
X48615Y42884D01*
X48627Y42942D01*
X48615Y42999D01*
X48583Y43048D01*
X48534Y43081D01*
X48476Y43093D01*
X48418Y43081D01*
X48377Y43054D01*
X48361Y43051D01*
X48331Y43081D01*
X48324Y43098D01*
X48326Y43105D01*
X48353Y43146D01*
X48365Y43204D01*
X48363Y43213D01*
X48380Y43239D01*
X48388Y43278D01*
Y45728D01*
X48380Y45767D01*
X48359Y45800D01*
X47965Y46193D01*
X47932Y46215D01*
X47894Y46223D01*
D02*
G37*
G36*
X48809Y44590D02*
X48740Y44576D01*
X48681Y44537D01*
X48642Y44479D01*
X48628Y44410D01*
X48642Y44340D01*
X48681Y44282D01*
X48740Y44243D01*
X48809Y44229D01*
X48878Y44243D01*
X48937Y44282D01*
X48976Y44340D01*
X48990Y44410D01*
X48976Y44479D01*
X48937Y44537D01*
X48878Y44576D01*
X48809Y44590D01*
D02*
G37*
G36*
X38563Y44472D02*
X38505Y44460D01*
X38456Y44428D01*
X38424Y44379D01*
X38412Y44321D01*
X38424Y44263D01*
X38456Y44214D01*
X38505Y44182D01*
X38563Y44170D01*
X38621Y44182D01*
X38670Y44214D01*
X38702Y44263D01*
X38714Y44321D01*
X38702Y44379D01*
X38670Y44428D01*
X38621Y44460D01*
X38563Y44472D01*
D02*
G37*
G36*
X52844Y44265D02*
X52787Y44254D01*
X52738Y44221D01*
X52705Y44172D01*
X52694Y44114D01*
X52705Y44057D01*
X52738Y44008D01*
X52787Y43975D01*
X52844Y43963D01*
X52902Y43975D01*
X52951Y44008D01*
X52984Y44057D01*
X52995Y44114D01*
X52984Y44172D01*
X52951Y44221D01*
X52902Y44254D01*
X52844Y44265D01*
D02*
G37*
G36*
X44282Y44206D02*
X44224Y44195D01*
X44175Y44162D01*
X44142Y44113D01*
X44131Y44055D01*
X44142Y43997D01*
X44175Y43948D01*
X44224Y43916D01*
X44282Y43904D01*
X44339Y43916D01*
X44388Y43948D01*
X44421Y43997D01*
X44432Y44055D01*
X44421Y44113D01*
X44388Y44162D01*
X44339Y44195D01*
X44282Y44206D01*
D02*
G37*
G36*
X49803Y44442D02*
X49745Y44431D01*
X49696Y44398D01*
X49664Y44349D01*
X49652Y44291D01*
X49664Y44234D01*
X49696Y44185D01*
X49676Y44138D01*
X49667Y44132D01*
X49634Y44083D01*
X49623Y44026D01*
X49634Y43968D01*
X49667Y43919D01*
X49716Y43886D01*
X49774Y43875D01*
X49831Y43886D01*
X49880Y43919D01*
X49913Y43968D01*
X49925Y44026D01*
X49913Y44083D01*
X49880Y44132D01*
X49901Y44179D01*
X49910Y44185D01*
X49943Y44234D01*
X49954Y44291D01*
X49943Y44349D01*
X49910Y44398D01*
X49861Y44431D01*
X49803Y44442D01*
D02*
G37*
G36*
X37224Y43911D02*
X37155Y43897D01*
X37097Y43858D01*
X37058Y43800D01*
X37044Y43730D01*
X37058Y43661D01*
X37097Y43603D01*
X37155Y43564D01*
X37224Y43550D01*
X37294Y43564D01*
X37352Y43603D01*
X37391Y43661D01*
X37405Y43730D01*
X37391Y43800D01*
X37352Y43858D01*
X37294Y43897D01*
X37224Y43911D01*
D02*
G37*
G36*
X52825Y43202D02*
X52767Y43191D01*
X52718Y43158D01*
X52685Y43109D01*
X52674Y43051D01*
X52685Y42994D01*
X52718Y42945D01*
X52767Y42912D01*
X52825Y42900D01*
X52883Y42912D01*
X52932Y42945D01*
X52964Y42994D01*
X52976Y43051D01*
X52964Y43109D01*
X52932Y43158D01*
X52883Y43191D01*
X52825Y43202D01*
D02*
G37*
G36*
X49862Y43134D02*
X49793Y43120D01*
X49734Y43081D01*
X49695Y43022D01*
X49682Y42953D01*
X49695Y42884D01*
X49734Y42825D01*
X49793Y42786D01*
X49862Y42772D01*
X49931Y42786D01*
X49990Y42825D01*
X50029Y42884D01*
X50043Y42953D01*
X50029Y43022D01*
X49990Y43081D01*
X49931Y43120D01*
X49862Y43134D01*
D02*
G37*
G36*
X38386Y43045D02*
X38328Y43033D01*
X38279Y43001D01*
X38246Y42952D01*
X38235Y42894D01*
X38246Y42836D01*
X38279Y42787D01*
X38328Y42754D01*
X38386Y42743D01*
X38444Y42754D01*
X38493Y42787D01*
X38525Y42836D01*
X38537Y42894D01*
X38525Y42952D01*
X38493Y43001D01*
X38444Y43033D01*
X38386Y43045D01*
D02*
G37*
G36*
X51988Y41578D02*
X51930Y41567D01*
X51881Y41534D01*
X51849Y41485D01*
X51837Y41427D01*
X51849Y41370D01*
X51881Y41321D01*
X51930Y41288D01*
X51988Y41276D01*
X52046Y41288D01*
X52050Y41291D01*
X52052Y41291D01*
X52068Y41296D01*
X52070Y41296D01*
X52075Y41297D01*
X52629D01*
X52634Y41296D01*
X52635Y41296D01*
X52655Y41290D01*
X52659Y41287D01*
X52717Y41276D01*
X52774Y41287D01*
X52823Y41320D01*
X52856Y41369D01*
X52867Y41427D01*
X52856Y41484D01*
X52823Y41533D01*
X52774Y41566D01*
X52717Y41578D01*
X52659Y41566D01*
X52610Y41533D01*
X52586Y41498D01*
X52119D01*
X52095Y41534D01*
X52046Y41567D01*
X51988Y41578D01*
D02*
G37*
G36*
X52146Y41125D02*
X52088Y41114D01*
X52039Y41081D01*
X52006Y41032D01*
X51995Y40975D01*
X52006Y40917D01*
X52039Y40868D01*
X52088Y40835D01*
X52146Y40824D01*
X52203Y40835D01*
X52252Y40868D01*
X52285Y40917D01*
X52297Y40975D01*
X52285Y41032D01*
X52252Y41081D01*
X52203Y41114D01*
X52146Y41125D01*
D02*
G37*
G36*
X52884Y41086D02*
X52826Y41075D01*
X52777Y41042D01*
X52744Y40993D01*
X52733Y40935D01*
X52744Y40877D01*
X52777Y40828D01*
X52826Y40796D01*
X52884Y40784D01*
X52942Y40796D01*
X52991Y40828D01*
X53023Y40877D01*
X53035Y40935D01*
X53023Y40993D01*
X52991Y41042D01*
X52942Y41075D01*
X52884Y41086D01*
D02*
G37*
G36*
X45592Y40208D02*
X45534Y40197D01*
X45485Y40164D01*
X45452Y40115D01*
X45441Y40057D01*
X45452Y40000D01*
X45485Y39951D01*
X45534Y39918D01*
X45592Y39906D01*
X45649Y39918D01*
X45698Y39951D01*
X45731Y40000D01*
X45742Y40057D01*
X45731Y40115D01*
X45698Y40164D01*
X45649Y40197D01*
X45592Y40208D01*
D02*
G37*
G36*
X53248Y44492D02*
X53190Y44480D01*
X53141Y44447D01*
X53109Y44398D01*
X53097Y44341D01*
X53109Y44283D01*
X53141Y44234D01*
X53190Y44201D01*
X53248Y44190D01*
X53277Y44151D01*
Y41247D01*
X53248Y41224D01*
X53190Y41212D01*
X53141Y41180D01*
X53109Y41131D01*
X53097Y41073D01*
X53109Y41015D01*
X53141Y40966D01*
X53190Y40933D01*
X53248Y40922D01*
X53277Y40899D01*
Y40210D01*
X52832Y39766D01*
X52832Y39766D01*
X52831Y39766D01*
X52825Y39767D01*
X52767Y39756D01*
X52718Y39723D01*
X52685Y39674D01*
X52674Y39616D01*
X52685Y39558D01*
X52691Y39551D01*
X52669Y39536D01*
X52636Y39487D01*
X52625Y39429D01*
X52636Y39371D01*
X52669Y39323D01*
X52718Y39290D01*
X52776Y39278D01*
X52833Y39290D01*
X52882Y39323D01*
X52915Y39371D01*
X52927Y39429D01*
X52915Y39487D01*
X52910Y39495D01*
X52932Y39510D01*
X52964Y39558D01*
X52976Y39616D01*
X52975Y39622D01*
X52975Y39623D01*
X52975Y39624D01*
X53449Y40098D01*
X53470Y40130D01*
X53478Y40169D01*
Y44211D01*
X53470Y44250D01*
X53449Y44283D01*
X53398Y44333D01*
X53398Y44334D01*
X53398Y44335D01*
X53399Y44341D01*
X53387Y44398D01*
X53355Y44447D01*
X53306Y44480D01*
X53248Y44492D01*
D02*
G37*
G36*
X45985Y40077D02*
X45927Y40066D01*
X45878Y40033D01*
X45845Y39984D01*
X45834Y39926D01*
X45845Y39869D01*
X45878Y39820D01*
X45927Y39787D01*
X45968Y39779D01*
X45977Y39737D01*
X46009Y39688D01*
X46058Y39656D01*
X46116Y39644D01*
X46174Y39656D01*
X46215Y39683D01*
X46247Y39688D01*
X46279Y39683D01*
X46320Y39656D01*
X46362Y39648D01*
X46370Y39606D01*
X46403Y39557D01*
X46451Y39525D01*
X46509Y39513D01*
X46567Y39525D01*
X46616Y39557D01*
X46649Y39606D01*
X46660Y39664D01*
X46649Y39722D01*
X46616Y39771D01*
X46567Y39804D01*
X46526Y39812D01*
X46518Y39853D01*
X46485Y39902D01*
X46436Y39935D01*
X46378Y39946D01*
X46320Y39935D01*
X46279Y39907D01*
X46247Y39902D01*
X46215Y39907D01*
X46174Y39935D01*
X46132Y39943D01*
X46124Y39984D01*
X46092Y40033D01*
X46043Y40066D01*
X45985Y40077D01*
D02*
G37*
G36*
X45460Y39815D02*
X45403Y39804D01*
X45354Y39771D01*
X45321Y39722D01*
X45310Y39664D01*
X45321Y39606D01*
X45354Y39557D01*
X45403Y39525D01*
X45460Y39513D01*
X45518Y39525D01*
X45567Y39557D01*
X45600Y39606D01*
X45611Y39664D01*
X45600Y39722D01*
X45567Y39771D01*
X45518Y39804D01*
X45460Y39815D01*
D02*
G37*
G36*
X53297Y39718D02*
X53239Y39706D01*
X53191Y39674D01*
X53158Y39625D01*
X53146Y39567D01*
X53158Y39509D01*
X53191Y39460D01*
X53239Y39428D01*
X53297Y39416D01*
X53355Y39428D01*
X53404Y39460D01*
X53437Y39509D01*
X53448Y39567D01*
X53437Y39625D01*
X53404Y39674D01*
X53355Y39706D01*
X53297Y39718D01*
D02*
G37*
G36*
X50374Y40781D02*
X50316Y40769D01*
X50267Y40737D01*
X50235Y40688D01*
X50223Y40630D01*
X50235Y40572D01*
X50267Y40523D01*
X50272Y40520D01*
X50273Y40519D01*
X50273Y40519D01*
Y40091D01*
X50224Y40042D01*
X50202Y40009D01*
X50195Y39971D01*
Y39501D01*
X50194Y39501D01*
X50194Y39500D01*
X50189Y39497D01*
X50156Y39448D01*
X50144Y39390D01*
X50156Y39332D01*
X50189Y39283D01*
X50238Y39250D01*
X50295Y39239D01*
X50353Y39250D01*
X50402Y39283D01*
X50435Y39332D01*
X50446Y39390D01*
X50435Y39448D01*
X50402Y39497D01*
X50397Y39500D01*
X50396Y39501D01*
X50396Y39501D01*
Y39929D01*
X50445Y39978D01*
X50467Y40011D01*
X50475Y40049D01*
Y40519D01*
X50475Y40519D01*
X50476Y40520D01*
X50481Y40523D01*
X50513Y40572D01*
X50525Y40630D01*
X50513Y40688D01*
X50481Y40737D01*
X50432Y40769D01*
X50374Y40781D01*
D02*
G37*
G36*
X46211Y39354D02*
X46153Y39342D01*
X46104Y39310D01*
X46071Y39261D01*
X46060Y39203D01*
X46071Y39145D01*
X46104Y39096D01*
X46153Y39063D01*
X46211Y39052D01*
X46268Y39063D01*
X46317Y39096D01*
X46350Y39145D01*
X46362Y39203D01*
X46350Y39261D01*
X46317Y39310D01*
X46268Y39342D01*
X46211Y39354D01*
D02*
G37*
G36*
X44705Y39118D02*
X44647Y39106D01*
X44598Y39073D01*
X44565Y39024D01*
X44554Y38967D01*
X44565Y38909D01*
X44598Y38860D01*
X44647Y38827D01*
X44705Y38816D01*
X44762Y38827D01*
X44811Y38860D01*
X44844Y38909D01*
X44856Y38967D01*
X44844Y39024D01*
X44811Y39073D01*
X44762Y39106D01*
X44705Y39118D01*
D02*
G37*
G36*
X51742Y40279D02*
X51684Y40268D01*
X51635Y40235D01*
X51603Y40186D01*
X51591Y40128D01*
X51603Y40070D01*
X51635Y40021D01*
X51640Y40018D01*
X51641Y40017D01*
X51641Y40017D01*
Y39884D01*
X51207Y39450D01*
X51186Y39418D01*
X51178Y39379D01*
Y38790D01*
X51186Y38752D01*
X51207Y38719D01*
X51287Y38640D01*
X51287Y38639D01*
X51287Y38638D01*
X51286Y38632D01*
X51298Y38574D01*
X51330Y38525D01*
X51379Y38493D01*
X51437Y38481D01*
X51495Y38493D01*
X51544Y38525D01*
X51576Y38574D01*
X51588Y38632D01*
X51576Y38690D01*
X51544Y38739D01*
X51495Y38771D01*
X51437Y38783D01*
X51431Y38782D01*
X51430Y38782D01*
X51429Y38782D01*
X51379Y38832D01*
Y39337D01*
X51813Y39771D01*
X51835Y39804D01*
X51843Y39843D01*
Y40017D01*
X51843Y40017D01*
X51844Y40018D01*
X51849Y40021D01*
X51882Y40070D01*
X51893Y40128D01*
X51882Y40186D01*
X51849Y40235D01*
X51800Y40268D01*
X51742Y40279D01*
D02*
G37*
G36*
X46368Y38754D02*
X46299Y38740D01*
X46240Y38701D01*
X46201Y38642D01*
X46187Y38573D01*
X46201Y38504D01*
X46240Y38445D01*
X46299Y38406D01*
X46368Y38392D01*
X46437Y38406D01*
X46496Y38445D01*
X46535Y38504D01*
X46549Y38573D01*
X46535Y38642D01*
X46496Y38701D01*
X46437Y38740D01*
X46368Y38754D01*
D02*
G37*
G36*
X51841Y38734D02*
X51771Y38720D01*
X51713Y38681D01*
X51674Y38622D01*
X51660Y38553D01*
X51674Y38484D01*
X51713Y38426D01*
X51771Y38386D01*
X51841Y38373D01*
X51910Y38386D01*
X51968Y38426D01*
X52007Y38484D01*
X52021Y38553D01*
X52007Y38622D01*
X51968Y38681D01*
X51910Y38720D01*
X51841Y38734D01*
D02*
G37*
G36*
X46824Y38319D02*
X46755Y38305D01*
X46696Y38266D01*
X46657Y38208D01*
X46643Y38139D01*
X46657Y38069D01*
X46696Y38011D01*
X46755Y37972D01*
X46824Y37958D01*
X46893Y37972D01*
X46952Y38011D01*
X46991Y38069D01*
X47005Y38139D01*
X46991Y38208D01*
X46952Y38266D01*
X46893Y38305D01*
X46824Y38319D01*
D02*
G37*
G36*
X50856Y38084D02*
X50787Y38071D01*
X50729Y38031D01*
X50689Y37973D01*
X50676Y37904D01*
X50689Y37835D01*
X50729Y37776D01*
X50787Y37737D01*
X50856Y37723D01*
X50925Y37737D01*
X50984Y37776D01*
X51023Y37835D01*
X51037Y37904D01*
X51023Y37973D01*
X50984Y38031D01*
X50925Y38071D01*
X50856Y38084D01*
D02*
G37*
G36*
X48947Y36943D02*
X48878Y36929D01*
X48819Y36890D01*
X48780Y36831D01*
X48766Y36762D01*
X48780Y36693D01*
X48819Y36634D01*
X48878Y36595D01*
X48947Y36581D01*
X49016Y36595D01*
X49075Y36634D01*
X49114Y36693D01*
X49127Y36762D01*
X49114Y36831D01*
X49075Y36890D01*
X49016Y36929D01*
X48947Y36943D01*
D02*
G37*
G36*
X40138Y36401D02*
X40069Y36387D01*
X40010Y36348D01*
X39971Y36290D01*
X39957Y36221D01*
X39971Y36151D01*
X40010Y36093D01*
X40069Y36054D01*
X40138Y36040D01*
X40207Y36054D01*
X40266Y36093D01*
X40305Y36151D01*
X40318Y36221D01*
X40305Y36290D01*
X40266Y36348D01*
X40207Y36387D01*
X40138Y36401D01*
D02*
G37*
G36*
X50974Y36313D02*
X50905Y36299D01*
X50847Y36260D01*
X50808Y36201D01*
X50794Y36132D01*
X50808Y36063D01*
X50847Y36004D01*
X50905Y35965D01*
X50974Y35951D01*
X51044Y35965D01*
X51102Y36004D01*
X51141Y36063D01*
X51155Y36132D01*
X51141Y36201D01*
X51102Y36260D01*
X51044Y36299D01*
X50974Y36313D01*
D02*
G37*
%LPD*%
G36*
X46378Y46664D02*
X46372Y46670D01*
X46366Y46674D01*
X46361Y46679D01*
X46355Y46682D01*
X46349Y46686D01*
X46343Y46688D01*
X46337Y46690D01*
X46331Y46692D01*
X46325Y46692D01*
X46319Y46693D01*
Y46733D01*
X46325Y46733D01*
X46331Y46734D01*
X46337Y46735D01*
X46343Y46737D01*
X46349Y46740D01*
X46355Y46743D01*
X46361Y46747D01*
X46366Y46751D01*
X46372Y46756D01*
X46378Y46761D01*
Y46664D01*
D02*
G37*
G36*
X45602Y46214D02*
X45598Y46209D01*
X45595Y46204D01*
X45591Y46199D01*
X45589Y46194D01*
X45586Y46188D01*
X45584Y46181D01*
X45583Y46175D01*
X45582Y46168D01*
X45581Y46160D01*
X45581Y46152D01*
X45512Y46221D01*
X45520Y46221D01*
X45528Y46222D01*
X45535Y46223D01*
X45542Y46224D01*
X45548Y46226D01*
X45554Y46228D01*
X45559Y46231D01*
X45565Y46234D01*
X45569Y46238D01*
X45574Y46242D01*
X45602Y46214D01*
D02*
G37*
G36*
X37992Y45964D02*
X37984Y45964D01*
X37977Y45964D01*
X37970Y45963D01*
X37963Y45962D01*
X37957Y45960D01*
X37951Y45958D01*
X37945Y45955D01*
X37940Y45952D01*
X37935Y45948D01*
X37931Y45944D01*
X37903Y45973D01*
X37907Y45977D01*
X37911Y45982D01*
X37914Y45987D01*
X37917Y45993D01*
X37919Y45999D01*
X37921Y46005D01*
X37923Y46012D01*
X37924Y46019D01*
X37925Y46026D01*
X37925Y46034D01*
X37992Y45964D01*
D02*
G37*
G36*
X37670Y46025D02*
X37670Y46018D01*
X37671Y46011D01*
X37673Y46004D01*
X37675Y45998D01*
X37677Y45992D01*
X37680Y45986D01*
X37683Y45981D01*
X37687Y45976D01*
X37691Y45971D01*
X37663Y45943D01*
X37658Y45947D01*
X37653Y45951D01*
X37648Y45954D01*
X37642Y45957D01*
X37636Y45959D01*
X37630Y45961D01*
X37623Y45963D01*
X37616Y45964D01*
X37609Y45964D01*
X37601Y45964D01*
X37670Y46033D01*
X37670Y46025D01*
D02*
G37*
G36*
X37206Y45964D02*
X37198Y45964D01*
X37191Y45964D01*
X37184Y45963D01*
X37177Y45961D01*
X37171Y45959D01*
X37165Y45957D01*
X37159Y45954D01*
X37154Y45951D01*
X37149Y45947D01*
X37145Y45943D01*
X37116Y45971D01*
X37120Y45976D01*
X37124Y45981D01*
X37127Y45986D01*
X37130Y45992D01*
X37132Y45998D01*
X37134Y46004D01*
X37136Y46011D01*
X37137Y46018D01*
X37137Y46025D01*
X37137Y46033D01*
X37206Y45964D01*
D02*
G37*
G36*
X36882Y46025D02*
X36883Y46018D01*
X36884Y46011D01*
X36885Y46004D01*
X36887Y45998D01*
X36890Y45992D01*
X36892Y45986D01*
X36896Y45981D01*
X36899Y45976D01*
X36903Y45971D01*
X36875Y45943D01*
X36871Y45947D01*
X36866Y45951D01*
X36861Y45954D01*
X36855Y45957D01*
X36849Y45959D01*
X36843Y45961D01*
X36836Y45963D01*
X36829Y45964D01*
X36821Y45964D01*
X36814Y45964D01*
X36882Y46033D01*
X36882Y46025D01*
D02*
G37*
G36*
X35482Y45960D02*
X35484Y45936D01*
X35486Y45926D01*
X35488Y45916D01*
X35491Y45907D01*
X35495Y45898D01*
X35498Y45891D01*
X35503Y45884D01*
X35508Y45879D01*
X35480Y45850D01*
X35474Y45855D01*
X35467Y45860D01*
X35460Y45864D01*
X35452Y45867D01*
X35443Y45870D01*
X35433Y45872D01*
X35422Y45874D01*
X35411Y45875D01*
X35385Y45876D01*
X35482Y45974D01*
X35482Y45960D01*
D02*
G37*
G36*
X41269Y45818D02*
X41264Y45823D01*
X41258Y45828D01*
X41252Y45832D01*
X41247Y45836D01*
X41241Y45839D01*
X41235Y45842D01*
X41229Y45844D01*
X41223Y45845D01*
X41217Y45846D01*
X41211Y45846D01*
Y45886D01*
X41217Y45887D01*
X41223Y45887D01*
X41229Y45889D01*
X41235Y45891D01*
X41241Y45893D01*
X41247Y45897D01*
X41252Y45900D01*
X41258Y45904D01*
X41264Y45909D01*
X41269Y45915D01*
Y45818D01*
D02*
G37*
G36*
X39838Y46216D02*
X39881Y46188D01*
X39931Y46178D01*
X41047D01*
X41208Y46017D01*
X41187Y45967D01*
X41142D01*
X41103Y45959D01*
X41071Y45937D01*
X40417Y45284D01*
X40367Y45304D01*
Y45578D01*
X40417Y45596D01*
X40463Y45587D01*
X40520Y45599D01*
X40569Y45632D01*
X40602Y45681D01*
X40614Y45738D01*
X40602Y45796D01*
X40569Y45845D01*
X40520Y45878D01*
X40463Y45889D01*
X40410Y45879D01*
X40279D01*
X40226Y45889D01*
X40169Y45878D01*
X40120Y45845D01*
X40087Y45796D01*
X40075Y45738D01*
X40086Y45686D01*
Y44893D01*
X39885Y44692D01*
X39835Y44713D01*
Y45351D01*
X39827Y45390D01*
X39805Y45422D01*
X39753Y45475D01*
X39769Y45529D01*
X39772Y45530D01*
X39821Y45563D01*
X39854Y45612D01*
X39866Y45669D01*
X39854Y45727D01*
X39821Y45776D01*
X39772Y45809D01*
X39715Y45820D01*
X39657Y45809D01*
X39608Y45776D01*
X39575Y45727D01*
X39575Y45724D01*
X39520Y45708D01*
X39375Y45853D01*
X39343Y45874D01*
X39304Y45882D01*
X38124D01*
X38110Y45908D01*
X38104Y45932D01*
X38134Y45976D01*
X38145Y46034D01*
X38134Y46091D01*
X38101Y46140D01*
X38052Y46173D01*
X37994Y46185D01*
X37936Y46173D01*
X37887Y46140D01*
X37855Y46091D01*
X37843Y46034D01*
X37844Y46029D01*
X37844Y46028D01*
X37796Y45980D01*
X37750Y46026D01*
X37750Y46027D01*
X37750Y46028D01*
X37751Y46034D01*
X37740Y46091D01*
X37707Y46140D01*
X37658Y46173D01*
X37600Y46185D01*
X37543Y46173D01*
X37494Y46140D01*
X37461Y46091D01*
X37449Y46034D01*
X37461Y45976D01*
X37484Y45941D01*
X37492Y45922D01*
X37475Y45880D01*
X37452Y45865D01*
X37420Y45816D01*
X37408Y45758D01*
X37409Y45754D01*
X37363Y45729D01*
X37250Y45842D01*
X37261Y45890D01*
X37267Y45896D01*
X37313Y45927D01*
X37346Y45976D01*
X37358Y46034D01*
X37346Y46091D01*
X37313Y46140D01*
X37264Y46173D01*
X37207Y46185D01*
X37149Y46173D01*
X37100Y46140D01*
X37067Y46091D01*
X37056Y46034D01*
X37022Y45996D01*
X37001Y45994D01*
X36963Y46028D01*
X36964Y46034D01*
X36952Y46091D01*
X36920Y46140D01*
X36871Y46173D01*
X36813Y46185D01*
X36795Y46181D01*
X36745Y46222D01*
Y46334D01*
X37043Y46631D01*
X39424D01*
X39838Y46216D01*
D02*
G37*
G36*
X41456Y45608D02*
X41449Y45600D01*
X41436Y45586D01*
X41431Y45579D01*
X41427Y45572D01*
X41423Y45566D01*
X41421Y45559D01*
X41419Y45554D01*
X41418Y45548D01*
X41417Y45542D01*
X41320Y45640D01*
X41325Y45640D01*
X41331Y45641D01*
X41337Y45643D01*
X41343Y45646D01*
X41349Y45649D01*
X41356Y45654D01*
X41363Y45659D01*
X41370Y45665D01*
X41385Y45679D01*
X41456Y45608D01*
D02*
G37*
G36*
X37107Y45474D02*
X37107Y45466D01*
X37108Y45459D01*
X37110Y45453D01*
X37112Y45446D01*
X37114Y45440D01*
X37117Y45435D01*
X37120Y45430D01*
X37124Y45425D01*
X37128Y45420D01*
X37100Y45392D01*
X37095Y45396D01*
X37090Y45400D01*
X37085Y45403D01*
X37079Y45406D01*
X37073Y45408D01*
X37067Y45410D01*
X37060Y45411D01*
X37053Y45412D01*
X37046Y45413D01*
X37038Y45413D01*
X37107Y45482D01*
X37107Y45474D01*
D02*
G37*
G36*
X36890D02*
X36891Y45466D01*
X36892Y45459D01*
X36893Y45453D01*
X36895Y45446D01*
X36898Y45440D01*
X36900Y45435D01*
X36904Y45430D01*
X36907Y45425D01*
X36911Y45420D01*
X36883Y45392D01*
X36879Y45396D01*
X36874Y45400D01*
X36868Y45403D01*
X36863Y45406D01*
X36857Y45408D01*
X36851Y45410D01*
X36844Y45411D01*
X36837Y45412D01*
X36829Y45413D01*
X36822Y45413D01*
X36890Y45482D01*
X36890Y45474D01*
D02*
G37*
G36*
X36674D02*
X36674Y45466D01*
X36675Y45459D01*
X36677Y45453D01*
X36679Y45446D01*
X36681Y45440D01*
X36684Y45435D01*
X36687Y45430D01*
X36691Y45425D01*
X36695Y45420D01*
X36667Y45392D01*
X36662Y45396D01*
X36657Y45400D01*
X36652Y45403D01*
X36646Y45406D01*
X36640Y45408D01*
X36634Y45410D01*
X36627Y45411D01*
X36620Y45412D01*
X36613Y45413D01*
X36605Y45413D01*
X36674Y45482D01*
X36674Y45474D01*
D02*
G37*
G36*
X35508Y45480D02*
X35503Y45474D01*
X35498Y45468D01*
X35495Y45460D01*
X35491Y45452D01*
X35488Y45443D01*
X35486Y45433D01*
X35484Y45422D01*
X35483Y45411D01*
X35482Y45385D01*
X35385Y45482D01*
X35398Y45483D01*
X35422Y45484D01*
X35433Y45486D01*
X35443Y45488D01*
X35452Y45491D01*
X35460Y45495D01*
X35467Y45499D01*
X35474Y45503D01*
X35480Y45508D01*
X35508Y45480D01*
D02*
G37*
G36*
X34645Y44863D02*
X34658Y44855D01*
X34664Y44852D01*
X34670Y44849D01*
X34677Y44847D01*
X34683Y44845D01*
X34689Y44844D01*
X34695Y44843D01*
X34701Y44843D01*
X34707Y44803D01*
X34700Y44803D01*
X34694Y44802D01*
X34688Y44800D01*
X34683Y44798D01*
X34677Y44795D01*
X34672Y44792D01*
X34667Y44788D01*
X34662Y44783D01*
X34657Y44778D01*
X34652Y44772D01*
X34638Y44868D01*
X34645Y44863D01*
D02*
G37*
G36*
X38247Y44618D02*
X38241Y44624D01*
X38236Y44629D01*
X38230Y44633D01*
X38224Y44637D01*
X38219Y44640D01*
X38213Y44643D01*
X38207Y44645D01*
X38201Y44646D01*
X38195Y44647D01*
X38189Y44647D01*
X38190Y44687D01*
X38196Y44688D01*
X38202Y44688D01*
X38208Y44690D01*
X38214Y44692D01*
X38220Y44694D01*
X38226Y44697D01*
X38232Y44701D01*
X38237Y44705D01*
X38243Y44710D01*
X38249Y44715D01*
X38247Y44618D01*
D02*
G37*
G36*
X38481Y44596D02*
X38473Y44596D01*
X38466Y44596D01*
X38459Y44595D01*
X38452Y44594D01*
X38446Y44592D01*
X38440Y44590D01*
X38434Y44587D01*
X38429Y44584D01*
X38424Y44581D01*
X38419Y44577D01*
X38392Y44606D01*
X38396Y44611D01*
X38400Y44615D01*
X38403Y44621D01*
X38406Y44626D01*
X38409Y44632D01*
X38411Y44638D01*
X38412Y44645D01*
X38414Y44652D01*
X38415Y44660D01*
X38415Y44668D01*
X38481Y44596D01*
D02*
G37*
G36*
X38110Y44489D02*
X38105Y44495D01*
X38099Y44500D01*
X38093Y44504D01*
X38087Y44508D01*
X38082Y44511D01*
X38076Y44513D01*
X38070Y44515D01*
X38064Y44517D01*
X38058Y44518D01*
X38052Y44518D01*
Y44558D01*
X38058Y44558D01*
X38064Y44559D01*
X38070Y44561D01*
X38076Y44563D01*
X38082Y44565D01*
X38087Y44568D01*
X38093Y44572D01*
X38099Y44576D01*
X38105Y44581D01*
X38110Y44586D01*
Y44489D01*
D02*
G37*
G36*
X40000Y44487D02*
X40002Y44452D01*
X40004Y44446D01*
X40005Y44441D01*
X40006Y44436D01*
X40008Y44433D01*
X40010Y44431D01*
X39872D01*
X39874Y44433D01*
X39876Y44436D01*
X39877Y44441D01*
X39878Y44446D01*
X39879Y44452D01*
X39881Y44468D01*
X39882Y44487D01*
X39882Y44498D01*
X40000D01*
X40000Y44487D01*
D02*
G37*
G36*
X45033Y44345D02*
X45028Y44339D01*
X45024Y44333D01*
X45020Y44327D01*
X45017Y44322D01*
X45015Y44316D01*
X45013Y44310D01*
X45011Y44304D01*
X45010Y44298D01*
X45010Y44292D01*
X44970D01*
X44970Y44298D01*
X44969Y44304D01*
X44968Y44310D01*
X44966Y44316D01*
X44963Y44322D01*
X44960Y44327D01*
X44956Y44333D01*
X44952Y44339D01*
X44947Y44345D01*
X44942Y44350D01*
X45039D01*
X45033Y44345D01*
D02*
G37*
G36*
X40842Y44276D02*
X40847Y44272D01*
X40853Y44268D01*
X40859Y44264D01*
X40865Y44261D01*
X40871Y44258D01*
X40877Y44256D01*
X40883Y44255D01*
X40889Y44254D01*
X40895Y44254D01*
X40896Y44214D01*
X40890Y44213D01*
X40884Y44213D01*
X40878Y44211D01*
X40872Y44209D01*
X40866Y44207D01*
X40860Y44203D01*
X40854Y44200D01*
X40849Y44195D01*
X40843Y44190D01*
X40838Y44185D01*
X40836Y44282D01*
X40842Y44276D01*
D02*
G37*
G36*
X36584Y43850D02*
X36579Y43855D01*
X36573Y43860D01*
X36568Y43864D01*
X36562Y43868D01*
X36556Y43871D01*
X36550Y43874D01*
X36544Y43876D01*
X36538Y43877D01*
X36532Y43878D01*
X36526Y43878D01*
Y43918D01*
X36532Y43918D01*
X36538Y43919D01*
X36544Y43921D01*
X36550Y43923D01*
X36556Y43925D01*
X36562Y43928D01*
X36568Y43932D01*
X36573Y43936D01*
X36579Y43941D01*
X36584Y43947D01*
Y43850D01*
D02*
G37*
G36*
X40504Y43835D02*
X40509Y43830D01*
X40515Y43826D01*
X40521Y43822D01*
X40526Y43819D01*
X40532Y43817D01*
X40538Y43815D01*
X40544Y43813D01*
X40550Y43812D01*
X40556Y43812D01*
Y43772D01*
X40550Y43772D01*
X40544Y43771D01*
X40538Y43770D01*
X40532Y43768D01*
X40526Y43765D01*
X40521Y43762D01*
X40515Y43758D01*
X40509Y43754D01*
X40504Y43749D01*
X40498Y43744D01*
Y43841D01*
X40504Y43835D01*
D02*
G37*
G36*
X40329Y43755D02*
X40330Y43749D01*
X40332Y43743D01*
X40334Y43737D01*
X40336Y43731D01*
X40339Y43725D01*
X40343Y43719D01*
X40347Y43714D01*
X40352Y43708D01*
X40358Y43702D01*
X40261D01*
X40266Y43708D01*
X40271Y43714D01*
X40275Y43719D01*
X40279Y43725D01*
X40282Y43731D01*
X40285Y43737D01*
X40287Y43743D01*
X40288Y43749D01*
X40289Y43755D01*
X40289Y43761D01*
X40329D01*
X40329Y43755D01*
D02*
G37*
G36*
X42545Y43754D02*
X42551Y43749D01*
X42557Y43745D01*
X42562Y43741D01*
X42568Y43738D01*
X42574Y43735D01*
X42580Y43733D01*
X42586Y43732D01*
X42592Y43731D01*
X42598Y43731D01*
Y43691D01*
X42592Y43690D01*
X42586Y43690D01*
X42580Y43688D01*
X42574Y43686D01*
X42568Y43684D01*
X42562Y43680D01*
X42557Y43677D01*
X42551Y43672D01*
X42545Y43668D01*
X42540Y43662D01*
Y43759D01*
X42545Y43754D01*
D02*
G37*
G36*
X41330Y43722D02*
X41330Y43715D01*
X41331Y43708D01*
X41333Y43701D01*
X41335Y43695D01*
X41337Y43689D01*
X41340Y43683D01*
X41343Y43678D01*
X41347Y43673D01*
X41351Y43669D01*
X41322Y43640D01*
X41318Y43644D01*
X41313Y43648D01*
X41308Y43651D01*
X41302Y43654D01*
X41296Y43656D01*
X41290Y43658D01*
X41283Y43660D01*
X41276Y43661D01*
X41269Y43661D01*
X41261Y43662D01*
X41329Y43730D01*
X41330Y43722D01*
D02*
G37*
G36*
X41072Y43661D02*
X41064Y43661D01*
X41057Y43660D01*
X41050Y43659D01*
X41043Y43658D01*
X41037Y43656D01*
X41031Y43654D01*
X41025Y43651D01*
X41020Y43648D01*
X41015Y43644D01*
X41011Y43640D01*
X40982Y43668D01*
X40986Y43673D01*
X40990Y43678D01*
X40993Y43683D01*
X40996Y43688D01*
X40998Y43694D01*
X41000Y43701D01*
X41002Y43707D01*
X41003Y43714D01*
X41003Y43722D01*
X41004Y43730D01*
X41072Y43661D01*
D02*
G37*
G36*
X44902Y43663D02*
X44903Y43655D01*
X44904Y43648D01*
X44905Y43642D01*
X44907Y43635D01*
X44909Y43629D01*
X44912Y43624D01*
X44915Y43619D01*
X44919Y43614D01*
X44923Y43609D01*
X44895Y43581D01*
X44890Y43585D01*
X44885Y43589D01*
X44880Y43592D01*
X44875Y43595D01*
X44869Y43597D01*
X44862Y43599D01*
X44856Y43600D01*
X44849Y43601D01*
X44841Y43602D01*
X44833Y43602D01*
X44902Y43671D01*
X44902Y43663D01*
D02*
G37*
G36*
X41728Y43537D02*
X41734Y43532D01*
X41740Y43528D01*
X41745Y43524D01*
X41751Y43521D01*
X41757Y43519D01*
X41763Y43517D01*
X41769Y43515D01*
X41775Y43514D01*
X41781Y43514D01*
Y43474D01*
X41775Y43474D01*
X41769Y43473D01*
X41763Y43472D01*
X41757Y43470D01*
X41751Y43467D01*
X41745Y43464D01*
X41740Y43460D01*
X41734Y43456D01*
X41728Y43451D01*
X41723Y43446D01*
Y43543D01*
X41728Y43537D01*
D02*
G37*
G36*
X40495Y43461D02*
X40490Y43455D01*
X40486Y43449D01*
X40483Y43443D01*
X40480Y43437D01*
X40477Y43431D01*
X40475Y43425D01*
X40474Y43419D01*
X40473Y43413D01*
X40473Y43407D01*
X40433Y43405D01*
X40432Y43411D01*
X40432Y43417D01*
X40430Y43423D01*
X40428Y43429D01*
X40425Y43434D01*
X40422Y43440D01*
X40418Y43446D01*
X40414Y43451D01*
X40409Y43456D01*
X40403Y43461D01*
X40500Y43467D01*
X40495Y43461D01*
D02*
G37*
G36*
X38141Y43405D02*
X38146Y43401D01*
X38151Y43398D01*
X38157Y43395D01*
X38163Y43393D01*
X38169Y43391D01*
X38176Y43389D01*
X38183Y43388D01*
X38190Y43388D01*
X38198Y43388D01*
X38130Y43319D01*
X38129Y43327D01*
X38129Y43334D01*
X38128Y43341D01*
X38126Y43348D01*
X38124Y43354D01*
X38122Y43360D01*
X38119Y43366D01*
X38116Y43371D01*
X38112Y43376D01*
X38108Y43381D01*
X38137Y43409D01*
X38141Y43405D01*
D02*
G37*
G36*
X45350Y43306D02*
X45350Y43300D01*
X45352Y43294D01*
X45354Y43288D01*
X45356Y43282D01*
X45360Y43276D01*
X45363Y43270D01*
X45368Y43265D01*
X45372Y43259D01*
X45378Y43253D01*
X45281D01*
X45286Y43259D01*
X45291Y43265D01*
X45295Y43270D01*
X45299Y43276D01*
X45302Y43282D01*
X45305Y43288D01*
X45307Y43294D01*
X45308Y43300D01*
X45309Y43306D01*
X45309Y43312D01*
X45349D01*
X45350Y43306D01*
D02*
G37*
G36*
X38003Y43281D02*
X38004Y43275D01*
X38005Y43269D01*
X38007Y43264D01*
X38010Y43258D01*
X38013Y43252D01*
X38016Y43246D01*
X38021Y43240D01*
X38026Y43235D01*
X38031Y43229D01*
X37934D01*
X37939Y43235D01*
X37944Y43240D01*
X37949Y43246D01*
X37952Y43252D01*
X37955Y43258D01*
X37958Y43264D01*
X37960Y43269D01*
X37961Y43275D01*
X37962Y43281D01*
X37962Y43288D01*
X38002D01*
X38003Y43281D01*
D02*
G37*
G36*
X44514Y43281D02*
X44519Y43277D01*
X44525Y43272D01*
X44531Y43269D01*
X44537Y43265D01*
X44543Y43263D01*
X44549Y43261D01*
X44554Y43259D01*
X44561Y43259D01*
X44567Y43258D01*
Y43218D01*
X44561Y43218D01*
X44554Y43217D01*
X44549Y43216D01*
X44543Y43214D01*
X44537Y43211D01*
X44531Y43208D01*
X44525Y43204D01*
X44519Y43200D01*
X44514Y43195D01*
X44508Y43190D01*
Y43287D01*
X44514Y43281D01*
D02*
G37*
G36*
X39773Y43198D02*
X39774Y43192D01*
X39775Y43186D01*
X39777Y43180D01*
X39780Y43174D01*
X39783Y43168D01*
X39786Y43163D01*
X39791Y43157D01*
X39796Y43151D01*
X39801Y43146D01*
X39704D01*
X39709Y43151D01*
X39714Y43157D01*
X39718Y43163D01*
X39722Y43168D01*
X39725Y43174D01*
X39728Y43180D01*
X39730Y43186D01*
X39731Y43192D01*
X39732Y43198D01*
X39732Y43204D01*
X39772D01*
X39773Y43198D01*
D02*
G37*
G36*
X45219Y43175D02*
X45219Y43169D01*
X45221Y43163D01*
X45223Y43157D01*
X45225Y43151D01*
X45228Y43145D01*
X45232Y43139D01*
X45236Y43134D01*
X45241Y43128D01*
X45247Y43122D01*
X45150D01*
X45155Y43128D01*
X45160Y43134D01*
X45164Y43139D01*
X45168Y43145D01*
X45171Y43151D01*
X45174Y43157D01*
X45176Y43163D01*
X45177Y43169D01*
X45178Y43175D01*
X45178Y43181D01*
X45218D01*
X45219Y43175D01*
D02*
G37*
G36*
X44878Y43159D02*
X44883Y43155D01*
X44888Y43152D01*
X44894Y43149D01*
X44900Y43147D01*
X44906Y43145D01*
X44913Y43144D01*
X44920Y43143D01*
X44928Y43142D01*
X44935Y43142D01*
X44867Y43073D01*
X44867Y43081D01*
X44866Y43089D01*
X44865Y43096D01*
X44864Y43102D01*
X44862Y43109D01*
X44859Y43115D01*
X44857Y43120D01*
X44853Y43126D01*
X44850Y43130D01*
X44846Y43135D01*
X44874Y43163D01*
X44878Y43159D01*
D02*
G37*
G36*
X40634Y43045D02*
X40629Y43040D01*
X40625Y43034D01*
X40621Y43028D01*
X40618Y43022D01*
X40615Y43017D01*
X40613Y43011D01*
X40612Y43005D01*
X40611Y42999D01*
X40611Y42993D01*
X40571D01*
X40570Y42999D01*
X40569Y43005D01*
X40568Y43011D01*
X40566Y43017D01*
X40563Y43022D01*
X40560Y43028D01*
X40557Y43034D01*
X40552Y43040D01*
X40547Y43045D01*
X40542Y43051D01*
X40639D01*
X40634Y43045D01*
D02*
G37*
G36*
X39481Y42922D02*
X39482Y42916D01*
X39484Y42910D01*
X39486Y42905D01*
X39489Y42899D01*
X39492Y42894D01*
X39496Y42889D01*
X39501Y42884D01*
X39506Y42880D01*
X39512Y42876D01*
X39417Y42857D01*
X39421Y42864D01*
X39429Y42877D01*
X39432Y42884D01*
X39435Y42890D01*
X39437Y42896D01*
X39439Y42903D01*
X39440Y42909D01*
X39440Y42914D01*
X39441Y42920D01*
X39481Y42928D01*
X39481Y42922D01*
D02*
G37*
G36*
X37401Y42844D02*
X37393Y42844D01*
X37386Y42843D01*
X37379Y42842D01*
X37372Y42841D01*
X37366Y42839D01*
X37360Y42837D01*
X37354Y42834D01*
X37349Y42831D01*
X37344Y42827D01*
X37339Y42823D01*
X37311Y42851D01*
X37315Y42856D01*
X37319Y42861D01*
X37322Y42866D01*
X37325Y42872D01*
X37327Y42877D01*
X37329Y42884D01*
X37331Y42891D01*
X37332Y42898D01*
X37332Y42905D01*
X37332Y42913D01*
X37401Y42844D01*
D02*
G37*
G36*
X44887Y42762D02*
X44881Y42767D01*
X44875Y42772D01*
X44870Y42777D01*
X44864Y42780D01*
X44858Y42783D01*
X44852Y42786D01*
X44846Y42788D01*
X44840Y42789D01*
X44834Y42790D01*
X44828Y42791D01*
Y42831D01*
X44834Y42831D01*
X44840Y42832D01*
X44846Y42833D01*
X44852Y42835D01*
X44858Y42838D01*
X44864Y42841D01*
X44870Y42845D01*
X44875Y42849D01*
X44881Y42854D01*
X44887Y42859D01*
Y42762D01*
D02*
G37*
G36*
X40384Y42836D02*
X40385Y42829D01*
X40386Y42822D01*
X40387Y42815D01*
X40389Y42809D01*
X40392Y42803D01*
X40394Y42797D01*
X40398Y42792D01*
X40401Y42787D01*
X40405Y42782D01*
X40377Y42754D01*
X40373Y42758D01*
X40368Y42762D01*
X40363Y42765D01*
X40357Y42768D01*
X40351Y42770D01*
X40345Y42772D01*
X40338Y42774D01*
X40331Y42775D01*
X40323Y42775D01*
X40316Y42775D01*
X40384Y42844D01*
X40384Y42836D01*
D02*
G37*
G36*
X38810Y42832D02*
X38815Y42829D01*
X38820Y42825D01*
X38826Y42823D01*
X38831Y42820D01*
X38838Y42818D01*
X38844Y42817D01*
X38852Y42816D01*
X38859Y42816D01*
X38867Y42815D01*
X38799Y42746D01*
X38799Y42754D01*
X38798Y42761D01*
X38797Y42769D01*
X38795Y42775D01*
X38793Y42782D01*
X38791Y42788D01*
X38788Y42793D01*
X38785Y42798D01*
X38781Y42803D01*
X38777Y42808D01*
X38805Y42836D01*
X38810Y42832D01*
D02*
G37*
G36*
X39351Y42782D02*
X39352Y42775D01*
X39353Y42770D01*
X39355Y42764D01*
X39358Y42758D01*
X39361Y42752D01*
X39365Y42747D01*
X39370Y42741D01*
X39375Y42736D01*
X39380Y42731D01*
X39283Y42725D01*
X39289Y42731D01*
X39293Y42737D01*
X39297Y42743D01*
X39301Y42749D01*
X39304Y42755D01*
X39306Y42761D01*
X39308Y42767D01*
X39310Y42773D01*
X39310Y42779D01*
X39311Y42785D01*
X39351Y42788D01*
X39351Y42782D01*
D02*
G37*
G36*
X39094Y42737D02*
X39003Y42723D01*
X39007Y42728D01*
X39009Y42732D01*
X39011Y42737D01*
X39012Y42742D01*
X39012Y42747D01*
X39011Y42751D01*
X39009Y42756D01*
X39006Y42761D01*
X39002Y42766D01*
X38998Y42771D01*
X39034Y42791D01*
X39094Y42737D01*
D02*
G37*
G36*
X44718Y42733D02*
X44722Y42730D01*
X44727Y42727D01*
X44732Y42725D01*
X44737Y42724D01*
X44742Y42724D01*
X44746Y42725D01*
X44751Y42727D01*
X44756Y42729D01*
X44760Y42733D01*
X44747Y42642D01*
X44744Y42645D01*
X44738Y42654D01*
X44722Y42671D01*
X44692Y42702D01*
X44713Y42738D01*
X44718Y42733D01*
D02*
G37*
G36*
X39932Y42747D02*
X39938Y42745D01*
X39962Y42708D01*
X40011Y42676D01*
X40069Y42664D01*
X40127Y42676D01*
X40176Y42708D01*
X40241Y42716D01*
X40257Y42705D01*
X40315Y42694D01*
X40321Y42695D01*
X40322Y42695D01*
X40322Y42695D01*
X40420Y42597D01*
X40403Y42543D01*
X40391Y42540D01*
X40342Y42508D01*
X40309Y42459D01*
X40297Y42401D01*
X40309Y42343D01*
X40342Y42294D01*
X40353Y42287D01*
Y42237D01*
X40342Y42229D01*
X40309Y42180D01*
X40297Y42123D01*
X40309Y42065D01*
X40342Y42016D01*
X40391Y41983D01*
X40448Y41972D01*
X40506Y41983D01*
X40555Y42016D01*
X40588Y42065D01*
X40597Y42113D01*
X40645Y42122D01*
X40694Y42155D01*
X40727Y42204D01*
X40730Y42217D01*
X40784Y42233D01*
X40838Y42179D01*
X40822Y42125D01*
X40808Y42122D01*
X40759Y42089D01*
X40727Y42040D01*
X40717Y41993D01*
X40669Y41984D01*
X40620Y41951D01*
X40587Y41902D01*
X40578Y41854D01*
X40530Y41844D01*
X40481Y41812D01*
X40448Y41763D01*
X40437Y41705D01*
X40448Y41647D01*
X40481Y41598D01*
X40530Y41566D01*
X40588Y41554D01*
X40645Y41566D01*
X40694Y41598D01*
X40696Y41602D01*
X40757D01*
X40759Y41598D01*
X40808Y41565D01*
X40866Y41553D01*
X40924Y41565D01*
X40973Y41598D01*
X41005Y41647D01*
X41015Y41695D01*
X41063Y41705D01*
X41112Y41738D01*
X41145Y41786D01*
X41147Y41799D01*
X41162Y41809D01*
X41202Y41819D01*
X41222Y41806D01*
X41261Y41798D01*
X41380D01*
X41395Y41748D01*
X41370Y41731D01*
X41337Y41682D01*
X41325Y41624D01*
X41337Y41566D01*
X41370Y41517D01*
X41419Y41485D01*
X41476Y41473D01*
X41534Y41485D01*
X41583Y41517D01*
X41613Y41562D01*
X41647Y41555D01*
X41705Y41567D01*
X41754Y41599D01*
X41786Y41648D01*
X41798Y41706D01*
X41790Y41748D01*
X41792Y41753D01*
X41846Y41768D01*
X41965Y41650D01*
X41960Y41603D01*
X41927Y41554D01*
X41916Y41496D01*
X41927Y41438D01*
X41960Y41389D01*
X41994Y41367D01*
X41979Y41345D01*
X41968Y41287D01*
X41945Y41253D01*
X41937Y41251D01*
X41901Y41227D01*
X41896Y41221D01*
X41834Y41213D01*
X41739Y41307D01*
X41706Y41329D01*
X41668Y41337D01*
X41167D01*
X41147Y41333D01*
X41145Y41345D01*
X41112Y41394D01*
X41063Y41427D01*
X41005Y41438D01*
X40947Y41427D01*
X40898Y41394D01*
X40891Y41383D01*
X40841D01*
X40834Y41394D01*
X40785Y41427D01*
X40727Y41438D01*
X40669Y41427D01*
X40620Y41394D01*
X40587Y41345D01*
X40576Y41287D01*
X40587Y41230D01*
X40620Y41181D01*
X40669Y41148D01*
X40717Y41138D01*
X40727Y41091D01*
X40727Y41090D01*
X40726Y41085D01*
X40648Y41007D01*
X40645Y41009D01*
X40588Y41021D01*
X40530Y41009D01*
X40481Y40977D01*
X40448Y40928D01*
X40438Y40877D01*
X40395Y40868D01*
X40346Y40835D01*
X40314Y40786D01*
X40302Y40729D01*
X40314Y40671D01*
X40346Y40622D01*
X40350Y40581D01*
X40293Y40524D01*
X40293Y40524D01*
X40292Y40524D01*
X40286Y40525D01*
X40228Y40514D01*
X40179Y40481D01*
X40175Y40475D01*
X40125Y40470D01*
X39925Y40670D01*
X39892Y40692D01*
X39854Y40700D01*
X39578D01*
X39540Y40692D01*
X39528Y40684D01*
X39483Y40714D01*
X39486Y40731D01*
X39474Y40788D01*
X39442Y40837D01*
X39393Y40870D01*
X39386Y40872D01*
X39375Y40925D01*
X39378Y40927D01*
X39411Y40976D01*
X39423Y41034D01*
X39411Y41091D01*
X39378Y41140D01*
X39329Y41173D01*
X39272Y41185D01*
X39214Y41173D01*
X39165Y41140D01*
X39153Y41122D01*
X39114Y41148D01*
X39056Y41159D01*
X38999Y41148D01*
X38950Y41115D01*
X38947Y41110D01*
X38887D01*
X38886Y41111D01*
X38878Y41116D01*
Y41176D01*
X38885Y41181D01*
X38888Y41185D01*
X38994Y41292D01*
X39002Y41303D01*
X39014Y41311D01*
X39047Y41360D01*
X39058Y41418D01*
X39057Y41423D01*
Y41606D01*
X39103Y41625D01*
X39279Y41449D01*
X39328Y41416D01*
X39386Y41405D01*
X39605D01*
X39607Y41405D01*
X39664Y41416D01*
X39713Y41449D01*
X39746Y41498D01*
X39757Y41556D01*
X39746Y41613D01*
X39713Y41662D01*
X39664Y41695D01*
X39607Y41706D01*
X39605Y41706D01*
X39448D01*
X39265Y41889D01*
X39216Y41922D01*
X39158Y41933D01*
X39123D01*
X39114Y41982D01*
X39163Y42015D01*
X39196Y42064D01*
X39206Y42113D01*
X39253Y42122D01*
X39302Y42155D01*
X39335Y42204D01*
X39347Y42262D01*
X39335Y42320D01*
X39302Y42369D01*
X39292Y42376D01*
Y42426D01*
X39302Y42433D01*
X39335Y42482D01*
X39345Y42530D01*
X39393Y42539D01*
X39442Y42572D01*
X39449Y42583D01*
X39499D01*
X39507Y42572D01*
X39555Y42539D01*
X39613Y42528D01*
X39671Y42539D01*
X39720Y42572D01*
X39753Y42621D01*
X39762Y42669D01*
X39810Y42678D01*
X39859Y42711D01*
X39882Y42745D01*
X39894Y42748D01*
X39932Y42747D01*
D02*
G37*
G36*
X43986Y42501D02*
X43980Y42506D01*
X43975Y42511D01*
X43969Y42515D01*
X43963Y42519D01*
X43957Y42522D01*
X43952Y42525D01*
X43946Y42527D01*
X43940Y42528D01*
X43934Y42529D01*
X43928Y42529D01*
Y42569D01*
X43934Y42570D01*
X43940Y42570D01*
X43946Y42572D01*
X43952Y42574D01*
X43957Y42576D01*
X43963Y42580D01*
X43969Y42583D01*
X43975Y42588D01*
X43980Y42592D01*
X43986Y42598D01*
Y42501D01*
D02*
G37*
G36*
X39146Y42491D02*
X39141Y42496D01*
X39135Y42501D01*
X39129Y42505D01*
X39123Y42509D01*
X39118Y42512D01*
X39112Y42515D01*
X39106Y42517D01*
X39100Y42518D01*
X39094Y42519D01*
X39088Y42519D01*
Y42559D01*
X39094Y42560D01*
X39100Y42561D01*
X39106Y42562D01*
X39112Y42564D01*
X39118Y42567D01*
X39123Y42570D01*
X39129Y42573D01*
X39135Y42578D01*
X39141Y42583D01*
X39146Y42588D01*
Y42491D01*
D02*
G37*
G36*
X39007Y42352D02*
X39001Y42357D01*
X38996Y42362D01*
X38990Y42366D01*
X38984Y42370D01*
X38978Y42373D01*
X38973Y42376D01*
X38967Y42378D01*
X38961Y42379D01*
X38955Y42380D01*
X38949Y42380D01*
Y42420D01*
X38955Y42421D01*
X38961Y42421D01*
X38967Y42423D01*
X38973Y42425D01*
X38978Y42427D01*
X38984Y42431D01*
X38990Y42434D01*
X38996Y42438D01*
X39001Y42443D01*
X39007Y42449D01*
Y42352D01*
D02*
G37*
G36*
X44181Y42324D02*
X44174Y42323D01*
X44166Y42323D01*
X44159Y42322D01*
X44152Y42320D01*
X44146Y42318D01*
X44140Y42316D01*
X44135Y42313D01*
X44129Y42310D01*
X44124Y42306D01*
X44120Y42302D01*
X44092Y42331D01*
X44096Y42335D01*
X44099Y42340D01*
X44103Y42345D01*
X44105Y42351D01*
X44108Y42357D01*
X44110Y42363D01*
X44111Y42370D01*
X44112Y42377D01*
X44113Y42384D01*
X44113Y42392D01*
X44181Y42324D01*
D02*
G37*
G36*
X43712Y42380D02*
X43717Y42376D01*
X43722Y42373D01*
X43728Y42370D01*
X43734Y42368D01*
X43740Y42366D01*
X43747Y42364D01*
X43754Y42363D01*
X43761Y42363D01*
X43769Y42363D01*
X43700Y42294D01*
X43700Y42302D01*
X43700Y42309D01*
X43699Y42316D01*
X43697Y42323D01*
X43695Y42329D01*
X43693Y42335D01*
X43690Y42341D01*
X43687Y42346D01*
X43683Y42351D01*
X43679Y42356D01*
X43708Y42384D01*
X43712Y42380D01*
D02*
G37*
G36*
X44887Y42238D02*
X44881Y42243D01*
X44875Y42248D01*
X44870Y42252D01*
X44864Y42256D01*
X44858Y42259D01*
X44852Y42262D01*
X44846Y42264D01*
X44840Y42265D01*
X44834Y42266D01*
X44828Y42266D01*
Y42306D01*
X44834Y42306D01*
X44840Y42307D01*
X44846Y42309D01*
X44852Y42311D01*
X44858Y42313D01*
X44864Y42316D01*
X44870Y42320D01*
X44875Y42324D01*
X44881Y42329D01*
X44887Y42335D01*
Y42238D01*
D02*
G37*
G36*
X35462Y42296D02*
X35460Y42289D01*
X35459Y42283D01*
X35458Y42276D01*
X35459Y42270D01*
X35460Y42263D01*
X35463Y42257D01*
X35466Y42252D01*
X35470Y42246D01*
X35475Y42241D01*
X35446Y42212D01*
X35440Y42218D01*
X35434Y42224D01*
X35427Y42228D01*
X35420Y42232D01*
X35412Y42236D01*
X35405Y42239D01*
X35397Y42241D01*
X35389Y42243D01*
X35381Y42244D01*
X35372Y42244D01*
X35464Y42304D01*
X35462Y42296D01*
D02*
G37*
G36*
X44755Y42107D02*
X44750Y42112D01*
X44744Y42117D01*
X44738Y42121D01*
X44733Y42125D01*
X44727Y42128D01*
X44721Y42130D01*
X44715Y42132D01*
X44709Y42134D01*
X44703Y42135D01*
X44697Y42135D01*
Y42175D01*
X44703Y42175D01*
X44709Y42176D01*
X44715Y42178D01*
X44721Y42180D01*
X44727Y42182D01*
X44733Y42185D01*
X44738Y42189D01*
X44744Y42193D01*
X44750Y42198D01*
X44755Y42204D01*
Y42107D01*
D02*
G37*
G36*
X37401Y42742D02*
X37426Y42706D01*
X37430Y42690D01*
X37418Y42628D01*
X37432Y42559D01*
X37471Y42500D01*
X37529Y42461D01*
X37598Y42447D01*
X37668Y42461D01*
X37726Y42500D01*
X37765Y42559D01*
X37767Y42565D01*
X37814Y42580D01*
X38027Y42368D01*
X38059Y42346D01*
X38098Y42338D01*
X38700D01*
X38710Y42329D01*
X38742Y42307D01*
X38765Y42274D01*
X38760Y42250D01*
X38772Y42192D01*
X38805Y42144D01*
X38811Y42140D01*
Y42090D01*
X38806Y42083D01*
X38756Y42078D01*
X38747Y42088D01*
X38746Y42089D01*
X38697Y42122D01*
X38639Y42134D01*
X38581Y42122D01*
X38532Y42089D01*
X38530Y42085D01*
X38469D01*
X38463Y42095D01*
X38414Y42128D01*
X38356Y42139D01*
X38299Y42128D01*
X38250Y42095D01*
X38217Y42046D01*
X38206Y41992D01*
X38164Y41984D01*
X38115Y41951D01*
X38082Y41902D01*
X38072Y41854D01*
X38024Y41844D01*
X37975Y41812D01*
X37943Y41763D01*
X37931Y41705D01*
X37943Y41647D01*
X37975Y41598D01*
X38006Y41578D01*
X37991Y41528D01*
X37913D01*
X37875Y41520D01*
X37845Y41500D01*
X37836Y41503D01*
X37799Y41526D01*
X37799Y41526D01*
X37785Y41595D01*
X37746Y41654D01*
X37687Y41693D01*
X37618Y41707D01*
X37549Y41693D01*
X37491Y41654D01*
X37451Y41595D01*
X37438Y41526D01*
X37451Y41457D01*
X37489Y41400D01*
X37461Y41359D01*
X37447Y41289D01*
X37453Y41261D01*
X37421Y41223D01*
X36834D01*
X36823Y41221D01*
X36785Y41234D01*
X36772Y41258D01*
X36764Y41295D01*
X36749Y41318D01*
X36721Y41360D01*
X36754Y41409D01*
X36765Y41467D01*
X36754Y41525D01*
X36721Y41574D01*
X36672Y41606D01*
X36614Y41618D01*
X36557Y41606D01*
X36508Y41574D01*
X36475Y41525D01*
X36472Y41513D01*
X35348D01*
X35334Y41537D01*
X35327Y41563D01*
X35356Y41606D01*
X35367Y41663D01*
X35416Y41670D01*
X36864D01*
X36902Y41678D01*
X36935Y41700D01*
X37315Y42080D01*
X37337Y42113D01*
X37345Y42151D01*
Y42707D01*
X37383Y42743D01*
X37401Y42742D01*
D02*
G37*
G36*
X35448Y42064D02*
X35443Y42057D01*
X35438Y42051D01*
X35435Y42044D01*
X35433Y42037D01*
X35433Y42030D01*
X35433Y42023D01*
X35435Y42016D01*
X35439Y42008D01*
X35443Y42000D01*
X35449Y41993D01*
X35321Y42012D01*
X35331Y42019D01*
X35379Y42054D01*
X35388Y42061D01*
X35411Y42083D01*
X35448Y42064D01*
D02*
G37*
G36*
X36980Y42987D02*
X36975Y42963D01*
X36989Y42894D01*
X37028Y42835D01*
X37086Y42796D01*
X37149Y42783D01*
X37143Y42756D01*
Y42193D01*
X36943Y41992D01*
X36894Y42003D01*
X36872Y42048D01*
X36884Y42088D01*
X36927Y42116D01*
X36967Y42175D01*
X36980Y42244D01*
X36967Y42313D01*
X36963Y42318D01*
X36977Y42351D01*
X37026Y42384D01*
X37059Y42433D01*
X37070Y42490D01*
X37059Y42548D01*
X37026Y42597D01*
X36977Y42630D01*
X36919Y42641D01*
X36862Y42630D01*
X36852Y42624D01*
X36830Y42628D01*
X36772Y42667D01*
X36703Y42681D01*
X36634Y42667D01*
X36575Y42628D01*
X36553Y42624D01*
X36544Y42630D01*
X36486Y42641D01*
X36428Y42630D01*
X36379Y42597D01*
X36347Y42548D01*
X36335Y42490D01*
X36339Y42472D01*
X36304Y42414D01*
X36289Y42411D01*
X36231Y42372D01*
X36191Y42313D01*
X36178Y42244D01*
X36191Y42175D01*
X36231Y42116D01*
X36289Y42077D01*
X36358Y42064D01*
X36427Y42077D01*
X36486Y42116D01*
X36525Y42175D01*
X36539Y42244D01*
X36525Y42313D01*
X36538Y42345D01*
X36587Y42365D01*
X36634Y42333D01*
X36627Y42284D01*
X36619Y42244D01*
X36633Y42175D01*
X36663Y42130D01*
X36671Y42114D01*
X36654Y42068D01*
X36635Y42056D01*
X36603Y42007D01*
X36591Y41949D01*
X36597Y41922D01*
X36560Y41871D01*
X35583D01*
X35551Y41910D01*
X35555Y41929D01*
X35549Y41957D01*
X35581Y41996D01*
X35650D01*
X35688Y42004D01*
X35721Y42025D01*
X36733Y43037D01*
X36939D01*
X36980Y42987D01*
D02*
G37*
G36*
X45158Y41955D02*
X45153Y41950D01*
X45150Y41946D01*
X45147Y41940D01*
X45144Y41935D01*
X45142Y41929D01*
X45140Y41923D01*
X45138Y41916D01*
X45137Y41909D01*
X45137Y41901D01*
X45136Y41894D01*
X45068Y41962D01*
X45076Y41962D01*
X45083Y41963D01*
X45090Y41964D01*
X45097Y41965D01*
X45103Y41967D01*
X45109Y41970D01*
X45115Y41972D01*
X45120Y41976D01*
X45125Y41979D01*
X45129Y41983D01*
X45158Y41955D01*
D02*
G37*
G36*
X44494Y41845D02*
X44488Y41850D01*
X44482Y41855D01*
X44477Y41859D01*
X44471Y41863D01*
X44465Y41866D01*
X44459Y41869D01*
X44453Y41871D01*
X44447Y41872D01*
X44441Y41873D01*
X44435Y41873D01*
Y41913D01*
X44441Y41913D01*
X44447Y41914D01*
X44453Y41916D01*
X44459Y41918D01*
X44465Y41920D01*
X44471Y41923D01*
X44477Y41927D01*
X44482Y41931D01*
X44488Y41936D01*
X44494Y41942D01*
Y41845D01*
D02*
G37*
G36*
X35307Y41726D02*
X35303Y41721D01*
X35299Y41716D01*
X35296Y41711D01*
X35293Y41705D01*
X35291Y41699D01*
X35289Y41693D01*
X35287Y41686D01*
X35286Y41679D01*
X35286Y41672D01*
X35286Y41664D01*
X35217Y41733D01*
X35225Y41733D01*
X35232Y41733D01*
X35239Y41734D01*
X35246Y41736D01*
X35252Y41738D01*
X35258Y41740D01*
X35264Y41743D01*
X35269Y41746D01*
X35274Y41750D01*
X35279Y41754D01*
X35307Y41726D01*
D02*
G37*
G36*
X35167Y41615D02*
X35161Y41620D01*
X35156Y41625D01*
X35150Y41630D01*
X35144Y41633D01*
X35138Y41636D01*
X35132Y41639D01*
X35127Y41641D01*
X35121Y41642D01*
X35115Y41643D01*
X35108Y41644D01*
X35109Y41684D01*
X35115Y41684D01*
X35121Y41685D01*
X35127Y41686D01*
X35133Y41688D01*
X35138Y41691D01*
X35144Y41694D01*
X35150Y41697D01*
X35156Y41702D01*
X35161Y41707D01*
X35167Y41712D01*
X35167Y41615D01*
D02*
G37*
G36*
X38221Y41496D02*
X38213Y41496D01*
X38205Y41495D01*
X38198Y41494D01*
X38192Y41493D01*
X38185Y41491D01*
X38179Y41488D01*
X38174Y41486D01*
X38168Y41482D01*
X38164Y41479D01*
X38159Y41475D01*
X38131Y41503D01*
X38135Y41507D01*
X38139Y41512D01*
X38142Y41517D01*
X38145Y41523D01*
X38147Y41529D01*
X38149Y41535D01*
X38150Y41542D01*
X38151Y41549D01*
X38152Y41557D01*
X38152Y41564D01*
X38221Y41496D01*
D02*
G37*
G36*
X36575Y41410D02*
X36574Y41410D01*
X36574Y41410D01*
X36573Y41409D01*
X36572Y41409D01*
X36570Y41408D01*
X36567Y41405D01*
X36560Y41398D01*
X36532Y41426D01*
X36549Y41445D01*
X36575Y41410D01*
D02*
G37*
G36*
X42765Y41377D02*
X42760Y41383D01*
X42754Y41388D01*
X42748Y41392D01*
X42742Y41396D01*
X42737Y41399D01*
X42731Y41401D01*
X42725Y41403D01*
X42719Y41405D01*
X42713Y41406D01*
X42707Y41406D01*
Y41446D01*
X42713Y41446D01*
X42719Y41447D01*
X42725Y41448D01*
X42731Y41450D01*
X42737Y41453D01*
X42742Y41456D01*
X42748Y41460D01*
X42754Y41464D01*
X42760Y41469D01*
X42765Y41474D01*
Y41377D01*
D02*
G37*
G36*
X44165Y41356D02*
X44170Y41353D01*
X44175Y41349D01*
X44180Y41347D01*
X44186Y41344D01*
X44193Y41342D01*
X44199Y41341D01*
X44207Y41340D01*
X44214Y41339D01*
X44222Y41339D01*
X44153Y41270D01*
X44153Y41278D01*
X44152Y41286D01*
X44151Y41293D01*
X44150Y41299D01*
X44148Y41306D01*
X44146Y41312D01*
X44143Y41317D01*
X44140Y41323D01*
X44136Y41327D01*
X44132Y41332D01*
X44160Y41360D01*
X44165Y41356D01*
D02*
G37*
G36*
X36556Y41232D02*
X36555Y41238D01*
X36553Y41243D01*
X36551Y41248D01*
X36548Y41251D01*
X36545Y41255D01*
X36541Y41257D01*
X36536Y41259D01*
X36531Y41261D01*
X36525Y41262D01*
X36518Y41262D01*
X36530Y41302D01*
X36610Y41305D01*
X36556Y41232D01*
D02*
G37*
G36*
X38507Y41218D02*
X38499Y41217D01*
X38484Y41214D01*
X38477Y41212D01*
X38471Y41209D01*
X38465Y41207D01*
X38460Y41204D01*
X38454Y41200D01*
X38450Y41197D01*
X38445Y41193D01*
X38414Y41218D01*
X38418Y41222D01*
X38421Y41227D01*
X38424Y41232D01*
X38427Y41238D01*
X38429Y41244D01*
X38430Y41250D01*
X38431Y41256D01*
X38432Y41263D01*
X38432Y41271D01*
X38431Y41278D01*
X38507Y41218D01*
D02*
G37*
G36*
X38010Y41179D02*
X38003Y41179D01*
X37995Y41179D01*
X37988Y41178D01*
X37982Y41177D01*
X37975Y41175D01*
X37969Y41173D01*
X37964Y41170D01*
X37958Y41167D01*
X37954Y41163D01*
X37949Y41159D01*
X37919Y41186D01*
X37924Y41191D01*
X37928Y41196D01*
X37932Y41202D01*
X37935Y41208D01*
X37938Y41214D01*
X37940Y41221D01*
X37942Y41228D01*
X37943Y41235D01*
X37944Y41242D01*
X37945Y41250D01*
X38010Y41179D01*
D02*
G37*
G36*
X42041Y41181D02*
X42044Y41178D01*
X42047Y41176D01*
X42050Y41174D01*
X42054Y41172D01*
X42058Y41171D01*
X42063Y41170D01*
X42068Y41169D01*
X42074Y41168D01*
X42080Y41168D01*
Y41128D01*
X42074Y41128D01*
X42068Y41128D01*
X42063Y41127D01*
X42058Y41126D01*
X42054Y41124D01*
X42050Y41123D01*
X42047Y41121D01*
X42044Y41118D01*
X42041Y41115D01*
X42039Y41112D01*
Y41184D01*
X42041Y41181D01*
D02*
G37*
G36*
X38261Y41033D02*
X38261Y41031D01*
X38261Y41024D01*
X38260Y40979D01*
X38220D01*
X38220Y40983D01*
X38220Y40985D01*
X38219Y40988D01*
X38219Y40990D01*
X38218Y40992D01*
X38216Y40993D01*
X38215Y40994D01*
X38213Y40995D01*
X38211Y40995D01*
X38209Y40995D01*
X38262Y41034D01*
X38261Y41033D01*
D02*
G37*
G36*
X36293Y40887D02*
X36287Y40892D01*
X36282Y40897D01*
X36276Y40901D01*
X36270Y40905D01*
X36264Y40908D01*
X36259Y40911D01*
X36253Y40913D01*
X36247Y40914D01*
X36241Y40915D01*
X36235Y40915D01*
Y40955D01*
X36241Y40955D01*
X36247Y40956D01*
X36253Y40958D01*
X36259Y40960D01*
X36264Y40962D01*
X36270Y40965D01*
X36276Y40969D01*
X36282Y40973D01*
X36287Y40978D01*
X36293Y40984D01*
Y40887D01*
D02*
G37*
G36*
X35957Y40978D02*
X35962Y40973D01*
X35968Y40969D01*
X35974Y40965D01*
X35980Y40962D01*
X35986Y40960D01*
X35991Y40958D01*
X35997Y40956D01*
X36003Y40955D01*
X36009Y40955D01*
Y40915D01*
X36003Y40915D01*
X35997Y40914D01*
X35991Y40913D01*
X35986Y40911D01*
X35980Y40908D01*
X35974Y40905D01*
X35968Y40901D01*
X35962Y40897D01*
X35957Y40892D01*
X35951Y40887D01*
Y40984D01*
X35957Y40978D01*
D02*
G37*
G36*
X44260Y40970D02*
X44265Y40967D01*
X44270Y40963D01*
X44275Y40961D01*
X44281Y40959D01*
X44288Y40957D01*
X44294Y40956D01*
X44301Y40955D01*
X44309Y40955D01*
X44316Y40955D01*
X44252Y40883D01*
X44251Y40891D01*
X44250Y40898D01*
X44249Y40905D01*
X44247Y40912D01*
X44245Y40918D01*
X44242Y40924D01*
X44240Y40930D01*
X44236Y40935D01*
X44233Y40940D01*
X44229Y40944D01*
X44255Y40974D01*
X44260Y40970D01*
D02*
G37*
G36*
X41923Y40954D02*
X41928Y40950D01*
X41933Y40947D01*
X41939Y40944D01*
X41945Y40942D01*
X41951Y40940D01*
X41958Y40939D01*
X41965Y40938D01*
X41972Y40937D01*
X41980Y40937D01*
X41912Y40868D01*
X41912Y40876D01*
X41911Y40884D01*
X41910Y40891D01*
X41908Y40897D01*
X41907Y40904D01*
X41904Y40910D01*
X41901Y40915D01*
X41898Y40921D01*
X41895Y40925D01*
X41890Y40930D01*
X41919Y40958D01*
X41923Y40954D01*
D02*
G37*
G36*
X41861Y40820D02*
X41862Y40810D01*
X41863Y40806D01*
X41864Y40802D01*
X41865Y40799D01*
X41867Y40796D01*
X41868Y40794D01*
X41870Y40792D01*
X41873Y40790D01*
X41809Y40789D01*
X41811Y40791D01*
X41813Y40793D01*
X41815Y40795D01*
X41816Y40798D01*
X41818Y40802D01*
X41819Y40805D01*
X41819Y40810D01*
X41820Y40814D01*
X41820Y40820D01*
X41821Y40825D01*
X41861D01*
X41861Y40820D01*
D02*
G37*
G36*
X42531Y40741D02*
X42527Y40737D01*
X42524Y40732D01*
X42520Y40727D01*
X42518Y40721D01*
X42515Y40715D01*
X42513Y40709D01*
X42512Y40702D01*
X42511Y40695D01*
X42510Y40688D01*
X42510Y40680D01*
X42442Y40749D01*
X42449Y40749D01*
X42457Y40749D01*
X42464Y40750D01*
X42471Y40752D01*
X42477Y40754D01*
X42483Y40756D01*
X42489Y40759D01*
X42494Y40762D01*
X42499Y40766D01*
X42503Y40770D01*
X42531Y40741D01*
D02*
G37*
G36*
X44991Y40756D02*
X44997Y40751D01*
X45002Y40747D01*
X45008Y40743D01*
X45014Y40740D01*
X45020Y40737D01*
X45026Y40735D01*
X45032Y40734D01*
X45038Y40733D01*
X45044Y40733D01*
Y40693D01*
X45038Y40693D01*
X45032Y40692D01*
X45026Y40690D01*
X45020Y40688D01*
X45014Y40686D01*
X45008Y40683D01*
X45002Y40679D01*
X44997Y40675D01*
X44991Y40670D01*
X44986Y40664D01*
Y40761D01*
X44991Y40756D01*
D02*
G37*
G36*
X44624Y40664D02*
X44619Y40670D01*
X44613Y40675D01*
X44607Y40679D01*
X44602Y40683D01*
X44596Y40686D01*
X44590Y40688D01*
X44584Y40690D01*
X44578Y40692D01*
X44572Y40693D01*
X44566Y40693D01*
Y40733D01*
X44572Y40733D01*
X44578Y40734D01*
X44584Y40735D01*
X44590Y40737D01*
X44596Y40740D01*
X44602Y40743D01*
X44607Y40747D01*
X44613Y40751D01*
X44619Y40756D01*
X44624Y40761D01*
Y40664D01*
D02*
G37*
G36*
X41721Y40693D02*
X41722Y40687D01*
X41724Y40681D01*
X41726Y40675D01*
X41728Y40669D01*
X41731Y40663D01*
X41735Y40657D01*
X41739Y40651D01*
X41744Y40646D01*
X41750Y40640D01*
X41653D01*
X41658Y40646D01*
X41663Y40651D01*
X41667Y40657D01*
X41671Y40663D01*
X41674Y40669D01*
X41677Y40675D01*
X41679Y40681D01*
X41680Y40687D01*
X41681Y40693D01*
X41681Y40699D01*
X41721D01*
X41721Y40693D01*
D02*
G37*
G36*
X39056Y40661D02*
X39048Y40660D01*
X39041Y40660D01*
X39033Y40659D01*
X39027Y40657D01*
X39020Y40656D01*
X39014Y40653D01*
X39009Y40650D01*
X39004Y40647D01*
X38999Y40644D01*
X38994Y40639D01*
X38966Y40668D01*
X38970Y40672D01*
X38974Y40677D01*
X38977Y40682D01*
X38980Y40688D01*
X38982Y40694D01*
X38984Y40700D01*
X38985Y40707D01*
X38986Y40714D01*
X38987Y40721D01*
X38987Y40729D01*
X39056Y40661D01*
D02*
G37*
G36*
X41605Y40675D02*
X41600Y40669D01*
X41596Y40663D01*
X41592Y40658D01*
X41589Y40652D01*
X41587Y40646D01*
X41585Y40640D01*
X41583Y40634D01*
X41582Y40628D01*
X41582Y40622D01*
X41542D01*
X41542Y40628D01*
X41541Y40634D01*
X41539Y40640D01*
X41537Y40646D01*
X41535Y40652D01*
X41532Y40658D01*
X41528Y40663D01*
X41524Y40669D01*
X41519Y40675D01*
X41513Y40680D01*
X41610D01*
X41605Y40675D01*
D02*
G37*
G36*
X41381Y40633D02*
X41381Y40632D01*
X41380Y40631D01*
X41380Y40629D01*
X41379Y40627D01*
X41379Y40624D01*
X41378Y40618D01*
X41378Y40609D01*
X41338D01*
X41338Y40614D01*
X41337Y40627D01*
X41337Y40629D01*
X41336Y40631D01*
X41336Y40632D01*
X41335Y40633D01*
X41335Y40634D01*
X41382D01*
X41381Y40633D01*
D02*
G37*
G36*
X41217Y40593D02*
X41218Y40593D01*
X41220Y40592D01*
X41221Y40592D01*
X41223Y40592D01*
X41229Y40591D01*
X41240Y40591D01*
Y40551D01*
X41236Y40551D01*
X41221Y40550D01*
X41220Y40550D01*
X41218Y40549D01*
X41217Y40549D01*
X41217Y40548D01*
Y40593D01*
X41217Y40593D01*
D02*
G37*
G36*
X38652Y41165D02*
X38659Y41158D01*
X38673Y41111D01*
X38640Y41062D01*
X38629Y41004D01*
X38640Y40946D01*
X38673Y40897D01*
X38722Y40865D01*
X38780Y40853D01*
X38837Y40865D01*
X38886Y40897D01*
X38889Y40902D01*
X38949D01*
X38950Y40902D01*
X38961Y40894D01*
Y40844D01*
X38950Y40837D01*
X38917Y40788D01*
X38906Y40730D01*
X38907Y40724D01*
X38907Y40723D01*
X38907Y40722D01*
X38801Y40617D01*
X38796Y40614D01*
X38795Y40613D01*
X38779Y40607D01*
X38774Y40605D01*
X38772Y40604D01*
X38761Y40602D01*
X38712Y40569D01*
X38679Y40520D01*
X38668Y40463D01*
X38679Y40405D01*
X38687Y40393D01*
X38668Y40347D01*
X38663Y40346D01*
X38614Y40314D01*
X38581Y40265D01*
X38570Y40207D01*
X38573Y40189D01*
X38532Y40139D01*
X38143D01*
X37966Y40316D01*
X37986Y40362D01*
X38110D01*
X38149Y40370D01*
X38181Y40392D01*
X38361Y40571D01*
X38365Y40572D01*
X38397Y40550D01*
X38455Y40538D01*
X38513Y40550D01*
X38562Y40583D01*
X38594Y40632D01*
X38606Y40689D01*
X38594Y40747D01*
X38562Y40796D01*
X38513Y40829D01*
X38503Y40831D01*
X38463Y40862D01*
X38471Y40900D01*
Y41104D01*
X38502Y41135D01*
X38503Y41135D01*
X38504Y41136D01*
X38512Y41138D01*
X38517Y41138D01*
X38525Y41141D01*
X38557Y41147D01*
X38606Y41180D01*
X38652Y41165D01*
D02*
G37*
G36*
X44754Y40534D02*
X44749Y40540D01*
X44743Y40545D01*
X44738Y40549D01*
X44732Y40553D01*
X44726Y40556D01*
X44721Y40559D01*
X44715Y40561D01*
X44709Y40562D01*
X44703Y40563D01*
X44697Y40563D01*
X44697Y40603D01*
X44703Y40603D01*
X44709Y40604D01*
X44715Y40606D01*
X44721Y40608D01*
X44727Y40610D01*
X44733Y40613D01*
X44739Y40617D01*
X44745Y40621D01*
X44751Y40626D01*
X44756Y40631D01*
X44754Y40534D01*
D02*
G37*
G36*
X38897Y40542D02*
X38892Y40537D01*
X38889Y40532D01*
X38886Y40527D01*
X38884Y40521D01*
X38882Y40516D01*
X38881Y40510D01*
X38881Y40504D01*
X38882Y40498D01*
X38883Y40491D01*
X38885Y40484D01*
X38799Y40529D01*
X38807Y40532D01*
X38828Y40540D01*
X38834Y40543D01*
X38845Y40550D01*
X38850Y40553D01*
X38855Y40557D01*
X38859Y40561D01*
X38897Y40542D01*
D02*
G37*
G36*
X44006Y40502D02*
X43998Y40502D01*
X43990Y40501D01*
X43983Y40500D01*
X43977Y40499D01*
X43970Y40497D01*
X43964Y40494D01*
X43959Y40492D01*
X43954Y40489D01*
X43949Y40485D01*
X43944Y40481D01*
X43916Y40509D01*
X43920Y40514D01*
X43924Y40518D01*
X43927Y40524D01*
X43930Y40529D01*
X43932Y40535D01*
X43934Y40542D01*
X43935Y40548D01*
X43936Y40555D01*
X43937Y40563D01*
X43937Y40571D01*
X44006Y40502D01*
D02*
G37*
G36*
X39668Y40496D02*
X39673Y40491D01*
X39679Y40487D01*
X39685Y40483D01*
X39691Y40480D01*
X39697Y40477D01*
X39703Y40475D01*
X39709Y40474D01*
X39715Y40473D01*
X39721Y40473D01*
X39722Y40433D01*
X39715Y40433D01*
X39709Y40432D01*
X39703Y40430D01*
X39698Y40428D01*
X39692Y40426D01*
X39686Y40422D01*
X39680Y40419D01*
X39675Y40414D01*
X39669Y40409D01*
X39664Y40404D01*
X39662Y40501D01*
X39668Y40496D01*
D02*
G37*
G36*
X42317Y40447D02*
X42312Y40441D01*
X42308Y40436D01*
X42304Y40430D01*
X42301Y40424D01*
X42298Y40418D01*
X42296Y40412D01*
X42295Y40406D01*
X42294Y40400D01*
X42294Y40394D01*
X42254D01*
X42253Y40400D01*
X42252Y40406D01*
X42251Y40412D01*
X42249Y40418D01*
X42246Y40424D01*
X42243Y40430D01*
X42240Y40436D01*
X42235Y40441D01*
X42231Y40447D01*
X42225Y40453D01*
X42322D01*
X42317Y40447D01*
D02*
G37*
G36*
X40779Y40446D02*
X40775Y40442D01*
X40772Y40437D01*
X40768Y40432D01*
X40766Y40426D01*
X40763Y40420D01*
X40761Y40414D01*
X40760Y40407D01*
X40759Y40400D01*
X40758Y40392D01*
X40758Y40385D01*
X40690Y40453D01*
X40697Y40453D01*
X40705Y40454D01*
X40712Y40455D01*
X40719Y40456D01*
X40725Y40458D01*
X40731Y40461D01*
X40737Y40463D01*
X40742Y40467D01*
X40747Y40470D01*
X40751Y40474D01*
X40779Y40446D01*
D02*
G37*
G36*
X40376Y40437D02*
X40372Y40432D01*
X40368Y40427D01*
X40365Y40422D01*
X40362Y40416D01*
X40360Y40410D01*
X40358Y40404D01*
X40357Y40397D01*
X40356Y40390D01*
X40355Y40383D01*
X40355Y40375D01*
X40286Y40444D01*
X40294Y40444D01*
X40302Y40444D01*
X40309Y40445D01*
X40315Y40447D01*
X40322Y40449D01*
X40328Y40451D01*
X40333Y40454D01*
X40339Y40457D01*
X40343Y40461D01*
X40348Y40465D01*
X40376Y40437D01*
D02*
G37*
G36*
X39337Y40382D02*
X39329Y40382D01*
X39322Y40381D01*
X39315Y40380D01*
X39308Y40378D01*
X39302Y40376D01*
X39296Y40373D01*
X39290Y40371D01*
X39285Y40367D01*
X39280Y40364D01*
X39276Y40360D01*
X39246Y40387D01*
X39250Y40391D01*
X39254Y40396D01*
X39257Y40401D01*
X39260Y40407D01*
X39262Y40413D01*
X39264Y40419D01*
X39265Y40426D01*
X39266Y40433D01*
X39266Y40440D01*
X39266Y40448D01*
X39337Y40382D01*
D02*
G37*
G36*
X44455Y40396D02*
X44450Y40390D01*
X44446Y40384D01*
X44442Y40378D01*
X44439Y40373D01*
X44436Y40367D01*
X44434Y40361D01*
X44433Y40355D01*
X44432Y40349D01*
X44432Y40343D01*
X44392D01*
X44391Y40349D01*
X44390Y40355D01*
X44389Y40361D01*
X44387Y40367D01*
X44384Y40373D01*
X44381Y40378D01*
X44378Y40384D01*
X44373Y40390D01*
X44369Y40396D01*
X44363Y40401D01*
X44460D01*
X44455Y40396D01*
D02*
G37*
G36*
X44196Y40337D02*
X44193Y40337D01*
X44189Y40337D01*
X44185Y40337D01*
X44181Y40336D01*
X44178Y40334D01*
X44173Y40332D01*
X44169Y40330D01*
X44165Y40327D01*
X44161Y40323D01*
X44157Y40319D01*
X44128Y40347D01*
X44132Y40352D01*
X44136Y40356D01*
X44139Y40360D01*
X44142Y40364D01*
X44144Y40368D01*
X44145Y40372D01*
X44146Y40376D01*
X44147Y40380D01*
X44146Y40384D01*
X44146Y40387D01*
X44196Y40337D01*
D02*
G37*
G36*
X37459Y40384D02*
X37464Y40385D01*
X37470Y40388D01*
X37474Y40391D01*
Y40321D01*
X37470Y40324D01*
X37464Y40327D01*
X37459Y40328D01*
Y40307D01*
X37453Y40313D01*
X37448Y40318D01*
X37442Y40322D01*
X37436Y40326D01*
X37430Y40329D01*
X37424Y40331D01*
X37418Y40333D01*
X37413Y40335D01*
X37383Y40336D01*
X37365Y40336D01*
Y40376D01*
X37383Y40376D01*
X37418Y40378D01*
X37418Y40379D01*
X37424Y40381D01*
X37430Y40383D01*
X37436Y40386D01*
X37442Y40390D01*
X37448Y40394D01*
X37453Y40399D01*
X37459Y40405D01*
Y40384D01*
D02*
G37*
G36*
X35105Y41563D02*
X35106Y41562D01*
X35110Y41557D01*
X35135Y41540D01*
X35140Y41487D01*
X35138Y41481D01*
X34998Y41341D01*
X34976Y41308D01*
X34968Y41270D01*
Y40869D01*
X34976Y40831D01*
X34998Y40798D01*
X35099Y40697D01*
X35132Y40675D01*
X35170Y40667D01*
X35606D01*
X35697Y40576D01*
X35730Y40554D01*
X35768Y40546D01*
X35948D01*
X35971Y40518D01*
X35983Y40460D01*
X36015Y40411D01*
X36064Y40378D01*
X36122Y40367D01*
X36180Y40378D01*
X36229Y40411D01*
X36261Y40460D01*
X36273Y40518D01*
X36296Y40546D01*
X36535D01*
X36556Y40532D01*
X36579Y40503D01*
Y40347D01*
X36529Y40320D01*
X36515Y40329D01*
X36457Y40341D01*
X36400Y40329D01*
X36351Y40297D01*
X36318Y40248D01*
X36306Y40190D01*
X36318Y40132D01*
X36351Y40083D01*
X36323Y40042D01*
X36308Y40019D01*
X36296Y39961D01*
X36308Y39903D01*
X36340Y39854D01*
X36389Y39822D01*
X36447Y39810D01*
X36505Y39822D01*
X36554Y39854D01*
X36586Y39903D01*
X36598Y39961D01*
X36586Y40019D01*
X36554Y40068D01*
X36581Y40109D01*
X36593Y40126D01*
X36604Y40134D01*
X36650Y40145D01*
X36671Y40129D01*
Y38404D01*
X36654Y38389D01*
X36596Y38378D01*
X36547Y38345D01*
X36514Y38296D01*
X36503Y38238D01*
X36514Y38181D01*
X36547Y38132D01*
X36596Y38099D01*
X36654Y38087D01*
X36671Y38073D01*
Y37794D01*
X36628Y37751D01*
X36564Y37758D01*
X36554Y37774D01*
X36505Y37807D01*
X36447Y37818D01*
X36389Y37807D01*
X36340Y37774D01*
X36307Y37725D01*
X36296Y37667D01*
X36307Y37610D01*
X36340Y37561D01*
Y37538D01*
X36307Y37489D01*
X36296Y37431D01*
X36307Y37373D01*
X36340Y37324D01*
X36389Y37292D01*
X36447Y37280D01*
X36505Y37292D01*
X36554Y37324D01*
X36586Y37373D01*
X36588Y37384D01*
X36688D01*
X36726Y37391D01*
X36746Y37404D01*
X36790Y37400D01*
X36809Y37393D01*
X36822Y37374D01*
X36871Y37341D01*
X36929Y37329D01*
X36986Y37341D01*
X37035Y37374D01*
X37068Y37423D01*
X37078Y37473D01*
X37132Y37527D01*
X38497D01*
X38685Y37339D01*
X38691Y37309D01*
X38721Y37264D01*
X38766Y37234D01*
X38786Y37230D01*
Y37179D01*
X38766Y37175D01*
X38721Y37145D01*
X38691Y37100D01*
X38689Y37088D01*
X38592Y36991D01*
X37065D01*
X37035Y37036D01*
X36986Y37069D01*
X36929Y37080D01*
X36871Y37069D01*
X36822Y37036D01*
X36789Y36987D01*
X36778Y36929D01*
X36789Y36871D01*
X36808Y36844D01*
X36782Y36794D01*
X36597D01*
X34874Y38516D01*
Y41504D01*
X34933Y41563D01*
X35105D01*
X35105Y41563D01*
D02*
G37*
G36*
X41025Y40275D02*
X41026Y40269D01*
X41028Y40263D01*
X41030Y40257D01*
X41032Y40251D01*
X41035Y40245D01*
X41039Y40240D01*
X41043Y40234D01*
X41048Y40228D01*
X41054Y40223D01*
X40957D01*
X40962Y40228D01*
X40967Y40234D01*
X40971Y40240D01*
X40975Y40245D01*
X40978Y40251D01*
X40981Y40257D01*
X40983Y40263D01*
X40984Y40269D01*
X40985Y40275D01*
X40985Y40281D01*
X41025D01*
X41025Y40275D01*
D02*
G37*
G36*
X39146Y40230D02*
X39141Y40225D01*
X39138Y40220D01*
X39135Y40215D01*
X39132Y40209D01*
X39130Y40203D01*
X39128Y40197D01*
X39126Y40190D01*
X39125Y40183D01*
X39125Y40176D01*
X39124Y40168D01*
X39056Y40237D01*
X39064Y40237D01*
X39071Y40237D01*
X39078Y40238D01*
X39085Y40240D01*
X39091Y40242D01*
X39097Y40244D01*
X39103Y40247D01*
X39108Y40250D01*
X39113Y40254D01*
X39117Y40258D01*
X39146Y40230D01*
D02*
G37*
G36*
X37306Y40171D02*
X37302Y40166D01*
X37298Y40161D01*
X37294Y40155D01*
X37291Y40149D01*
X37289Y40144D01*
X37287Y40138D01*
X37286Y40132D01*
X37285Y40125D01*
X37285Y40119D01*
X37245Y40119D01*
X37244Y40125D01*
X37244Y40131D01*
X37242Y40137D01*
X37240Y40143D01*
X37238Y40149D01*
X37235Y40154D01*
X37231Y40160D01*
X37227Y40165D01*
X37223Y40170D01*
X37218Y40175D01*
X37311Y40176D01*
X37306Y40171D01*
D02*
G37*
G36*
X41210Y40010D02*
X41209Y40003D01*
X41209Y39997D01*
X41210Y39991D01*
X41211Y39985D01*
X41212Y39979D01*
X41215Y39973D01*
X41218Y39968D01*
X41221Y39963D01*
X41226Y39959D01*
X41190Y39937D01*
X41186Y39941D01*
X41182Y39945D01*
X41177Y39948D01*
X41171Y39951D01*
X41165Y39954D01*
X41159Y39957D01*
X41145Y39962D01*
X41137Y39964D01*
X41129Y39966D01*
X41212Y40017D01*
X41210Y40010D01*
D02*
G37*
G36*
X37456Y39934D02*
X37453Y39937D01*
X37450Y39940D01*
X37446Y39942D01*
X37443Y39945D01*
X37438Y39946D01*
X37434Y39948D01*
X37429Y39949D01*
X37424Y39950D01*
X37418Y39950D01*
X37412Y39951D01*
Y39991D01*
X37418Y39991D01*
X37424Y39991D01*
X37429Y39992D01*
X37434Y39993D01*
X37438Y39995D01*
X37443Y39997D01*
X37446Y39999D01*
X37450Y40001D01*
X37453Y40004D01*
X37456Y40007D01*
Y39934D01*
D02*
G37*
G36*
X37879Y40007D02*
X37884Y40003D01*
X37888Y40000D01*
X37892Y39998D01*
X37897Y39996D01*
X37902Y39994D01*
X37907Y39992D01*
X37912Y39991D01*
X37917Y39991D01*
X37922Y39991D01*
Y39951D01*
X37917Y39950D01*
X37912Y39950D01*
X37907Y39949D01*
X37902Y39947D01*
X37897Y39946D01*
X37892Y39943D01*
X37888Y39941D01*
X37884Y39938D01*
X37879Y39934D01*
X37875Y39931D01*
Y40011D01*
X37879Y40007D01*
D02*
G37*
G36*
X41814Y39860D02*
X41813Y39853D01*
X41812Y39847D01*
X41812Y39841D01*
X41813Y39836D01*
X41814Y39830D01*
X41816Y39825D01*
X41819Y39820D01*
X41823Y39815D01*
X41827Y39810D01*
X41787Y39794D01*
X41783Y39797D01*
X41779Y39801D01*
X41774Y39804D01*
X41763Y39811D01*
X41757Y39814D01*
X41736Y39824D01*
X41728Y39827D01*
X41817Y39866D01*
X41814Y39860D01*
D02*
G37*
G36*
X41055Y39846D02*
X41047Y39833D01*
X41044Y39827D01*
X41041Y39821D01*
X41039Y39815D01*
X41037Y39808D01*
X41036Y39802D01*
X41035Y39797D01*
X41035Y39791D01*
X40995Y39785D01*
X40995Y39791D01*
X40994Y39797D01*
X40992Y39803D01*
X40990Y39808D01*
X40987Y39814D01*
X40984Y39819D01*
X40980Y39824D01*
X40975Y39829D01*
X40970Y39834D01*
X40964Y39839D01*
X41060Y39853D01*
X41055Y39846D01*
D02*
G37*
G36*
X37879Y39830D02*
X37884Y39826D01*
X37888Y39823D01*
X37892Y39821D01*
X37897Y39818D01*
X37902Y39817D01*
X37907Y39815D01*
X37912Y39814D01*
X37917Y39814D01*
X37922Y39813D01*
Y39773D01*
X37917Y39773D01*
X37912Y39773D01*
X37907Y39772D01*
X37902Y39770D01*
X37897Y39768D01*
X37892Y39766D01*
X37888Y39764D01*
X37884Y39761D01*
X37879Y39757D01*
X37875Y39753D01*
Y39833D01*
X37879Y39830D01*
D02*
G37*
G36*
X37495Y39746D02*
X37490Y39747D01*
X37485Y39746D01*
X37480Y39746D01*
X37475Y39745D01*
X37470Y39743D01*
X37465Y39741D01*
X37461Y39739D01*
X37456Y39736D01*
X37452Y39733D01*
X37448Y39729D01*
X37422Y39759D01*
X37426Y39763D01*
X37429Y39767D01*
X37432Y39772D01*
X37435Y39776D01*
X37437Y39781D01*
X37439Y39786D01*
X37440Y39791D01*
X37442Y39796D01*
X37443Y39801D01*
X37443Y39807D01*
X37495Y39746D01*
D02*
G37*
G36*
X41639Y39792D02*
X41640Y39790D01*
X41642Y39789D01*
X41645Y39787D01*
X41648Y39786D01*
X41651Y39785D01*
X41655Y39785D01*
X41659Y39784D01*
X41670Y39784D01*
Y39744D01*
X41664Y39744D01*
X41655Y39743D01*
X41651Y39742D01*
X41648Y39741D01*
X41645Y39740D01*
X41642Y39739D01*
X41640Y39738D01*
X41639Y39736D01*
X41637Y39734D01*
Y39794D01*
X41639Y39792D01*
D02*
G37*
G36*
X40643Y39799D02*
X40648Y39794D01*
X40654Y39790D01*
X40660Y39786D01*
X40666Y39783D01*
X40672Y39780D01*
X40677Y39778D01*
X40683Y39777D01*
X40689Y39776D01*
X40696Y39776D01*
Y39736D01*
X40689Y39735D01*
X40683Y39734D01*
X40677Y39733D01*
X40672Y39731D01*
X40666Y39728D01*
X40660Y39725D01*
X40654Y39722D01*
X40648Y39717D01*
X40643Y39712D01*
X40637Y39707D01*
Y39804D01*
X40643Y39799D01*
D02*
G37*
G36*
X39982Y39706D02*
X39976Y39712D01*
X39970Y39716D01*
X39964Y39721D01*
X39958Y39724D01*
X39952Y39727D01*
X39946Y39730D01*
X39940Y39732D01*
X39934Y39733D01*
X39928Y39734D01*
X39922Y39734D01*
X39921Y39774D01*
X39927Y39774D01*
X39933Y39775D01*
X39939Y39777D01*
X39945Y39779D01*
X39950Y39781D01*
X39956Y39785D01*
X39962Y39788D01*
X39967Y39793D01*
X39973Y39798D01*
X39978Y39803D01*
X39982Y39706D01*
D02*
G37*
G36*
X37285Y39692D02*
X37280Y39687D01*
X37277Y39682D01*
X37274Y39677D01*
X37272Y39672D01*
X37271Y39666D01*
X37270Y39661D01*
X37271Y39655D01*
X37272Y39650D01*
X37274Y39644D01*
X37276Y39638D01*
X37186Y39669D01*
X37193Y39673D01*
X37218Y39687D01*
X37223Y39690D01*
X37233Y39698D01*
X37237Y39701D01*
X37241Y39705D01*
X37285Y39692D01*
D02*
G37*
G36*
X37870Y39681D02*
X37875Y39678D01*
X37880Y39676D01*
X37885Y39674D01*
X37890Y39672D01*
X37895Y39671D01*
X37900Y39670D01*
X37905Y39669D01*
X37910Y39669D01*
X37916Y39669D01*
X37926Y39629D01*
X37920Y39628D01*
X37915Y39628D01*
X37910Y39627D01*
X37905Y39625D01*
X37901Y39623D01*
X37897Y39620D01*
X37893Y39618D01*
X37889Y39614D01*
X37886Y39610D01*
X37883Y39606D01*
X37866Y39684D01*
X37870Y39681D01*
D02*
G37*
G36*
X40129Y39562D02*
X40122Y39566D01*
X40108Y39574D01*
X40102Y39577D01*
X40095Y39579D01*
X40089Y39581D01*
X40083Y39583D01*
X40077Y39584D01*
X40071Y39585D01*
X40065Y39585D01*
X40057Y39625D01*
X40063Y39625D01*
X40069Y39626D01*
X40075Y39628D01*
X40080Y39630D01*
X40086Y39633D01*
X40091Y39636D01*
X40096Y39641D01*
X40100Y39645D01*
X40105Y39651D01*
X40109Y39657D01*
X40129Y39562D01*
D02*
G37*
G36*
X40786Y39598D02*
X40786Y39591D01*
X40786Y39584D01*
X40787Y39577D01*
X40788Y39571D01*
X40790Y39565D01*
X40792Y39560D01*
X40796Y39555D01*
X40799Y39550D01*
X40803Y39545D01*
X40770Y39521D01*
X40766Y39525D01*
X40761Y39529D01*
X40756Y39532D01*
X40751Y39535D01*
X40745Y39538D01*
X40738Y39541D01*
X40732Y39543D01*
X40724Y39545D01*
X40709Y39548D01*
X40787Y39605D01*
X40786Y39598D01*
D02*
G37*
G36*
X37879Y39515D02*
X37884Y39511D01*
X37888Y39508D01*
X37892Y39506D01*
X37897Y39503D01*
X37902Y39502D01*
X37907Y39500D01*
X37912Y39499D01*
X37917Y39499D01*
X37922Y39498D01*
Y39458D01*
X37917Y39458D01*
X37912Y39458D01*
X37907Y39457D01*
X37902Y39455D01*
X37897Y39453D01*
X37892Y39451D01*
X37888Y39449D01*
X37884Y39446D01*
X37879Y39442D01*
X37875Y39439D01*
Y39518D01*
X37879Y39515D01*
D02*
G37*
G36*
X40258Y39431D02*
X40252Y39436D01*
X40246Y39441D01*
X40240Y39445D01*
X40234Y39449D01*
X40228Y39452D01*
X40222Y39454D01*
X40216Y39456D01*
X40210Y39457D01*
X40204Y39458D01*
X40198Y39458D01*
X40196Y39498D01*
X40202Y39499D01*
X40208Y39500D01*
X40214Y39501D01*
X40220Y39503D01*
X40226Y39506D01*
X40232Y39509D01*
X40237Y39513D01*
X40243Y39517D01*
X40248Y39522D01*
X40254Y39528D01*
X40258Y39431D01*
D02*
G37*
G36*
X37452Y39497D02*
X37510Y39485D01*
X37523Y39474D01*
X37526Y39413D01*
X37438Y39326D01*
X37423Y39323D01*
X37374Y39290D01*
X37341Y39241D01*
X37329Y39183D01*
X37341Y39125D01*
X37374Y39076D01*
X37423Y39044D01*
X37437Y39041D01*
X37781Y38697D01*
X37824Y38668D01*
X37874Y38658D01*
X38850D01*
X38883Y38608D01*
X38874Y38563D01*
X38888Y38494D01*
X38927Y38435D01*
X38986Y38396D01*
X39055Y38382D01*
X39124Y38396D01*
X39183Y38435D01*
X39222Y38494D01*
X39236Y38563D01*
X39227Y38608D01*
X39260Y38658D01*
X40463D01*
X40513Y38668D01*
X40555Y38697D01*
X40742Y38884D01*
X40771Y38926D01*
X40781Y38976D01*
Y39089D01*
X40831Y39110D01*
X41319Y38621D01*
X41352Y38599D01*
X41382Y38593D01*
X41407Y38548D01*
X41317Y38457D01*
X41295Y38424D01*
X41287Y38386D01*
Y37775D01*
X41252Y37761D01*
X41237Y37758D01*
X41181Y37795D01*
X41112Y37809D01*
X41043Y37795D01*
X40984Y37756D01*
X40981Y37751D01*
X40980Y37751D01*
X40978Y37750D01*
X40976Y37749D01*
X40974Y37749D01*
X39400D01*
X39400Y37749D01*
X39353Y37740D01*
X39314Y37714D01*
X39314Y37714D01*
X39093Y37493D01*
X39081Y37490D01*
X39036Y37460D01*
X39006Y37415D01*
X39002Y37395D01*
X38951D01*
X38947Y37415D01*
X38917Y37460D01*
X38872Y37490D01*
X38842Y37496D01*
X38622Y37716D01*
X38586Y37740D01*
X38543Y37749D01*
X37086D01*
X37052Y37742D01*
X37020Y37759D01*
X37002Y37773D01*
Y38087D01*
X37006Y38092D01*
X37014Y38131D01*
Y38346D01*
X37006Y38384D01*
X37002Y38389D01*
Y39414D01*
X37049Y39433D01*
X37094Y39388D01*
X37127Y39366D01*
X37165Y39358D01*
X37269D01*
X37308Y39366D01*
X37341Y39388D01*
X37451Y39498D01*
X37452Y39497D01*
D02*
G37*
G36*
X40405Y39292D02*
X40399Y39297D01*
X40394Y39302D01*
X40388Y39306D01*
X40383Y39310D01*
X40377Y39313D01*
X40371Y39316D01*
X40365Y39318D01*
X40359Y39320D01*
X40353Y39320D01*
X40347Y39321D01*
X40349Y39361D01*
X40355Y39361D01*
X40361Y39362D01*
X40367Y39363D01*
X40373Y39365D01*
X40379Y39368D01*
X40385Y39371D01*
X40391Y39374D01*
X40396Y39378D01*
X40402Y39383D01*
X40408Y39388D01*
X40405Y39292D01*
D02*
G37*
G36*
X41567Y39083D02*
X41572Y39079D01*
X41577Y39076D01*
X41582Y39073D01*
X41588Y39071D01*
X41595Y39069D01*
X41601Y39067D01*
X41608Y39066D01*
X41616Y39066D01*
X41624Y39066D01*
X41555Y38997D01*
X41555Y39005D01*
X41554Y39012D01*
X41553Y39019D01*
X41552Y39026D01*
X41550Y39032D01*
X41548Y39038D01*
X41545Y39044D01*
X41542Y39049D01*
X41538Y39054D01*
X41534Y39058D01*
X41562Y39087D01*
X41567Y39083D01*
D02*
G37*
G36*
X39210Y39269D02*
X39243Y39248D01*
X39281Y39240D01*
X40343D01*
X40344Y39239D01*
X40345Y39238D01*
X40349Y39232D01*
X40398Y39199D01*
X40438Y39191D01*
X40448Y39142D01*
X40481Y39093D01*
X40506Y39076D01*
X40510Y39022D01*
X40408Y38921D01*
X39272D01*
X39231Y38971D01*
X39236Y38996D01*
X39222Y39065D01*
X39183Y39124D01*
X39124Y39163D01*
X39086Y39171D01*
X39098Y39232D01*
X39094Y39251D01*
X39126Y39290D01*
X39190D01*
X39210Y39269D01*
D02*
G37*
G36*
X43710Y38711D02*
X43705Y38717D01*
X43699Y38722D01*
X43693Y38726D01*
X43688Y38730D01*
X43682Y38733D01*
X43676Y38735D01*
X43670Y38737D01*
X43664Y38739D01*
X43658Y38740D01*
X43652Y38740D01*
Y38780D01*
X43658Y38780D01*
X43664Y38781D01*
X43670Y38783D01*
X43676Y38785D01*
X43682Y38787D01*
X43688Y38790D01*
X43693Y38794D01*
X43699Y38798D01*
X43705Y38803D01*
X43710Y38808D01*
Y38711D01*
D02*
G37*
G36*
X44105Y38751D02*
X44105Y38744D01*
X44106Y38737D01*
X44108Y38730D01*
X44110Y38724D01*
X44112Y38718D01*
X44115Y38712D01*
X44118Y38707D01*
X44122Y38702D01*
X44126Y38698D01*
X44098Y38670D01*
X44093Y38674D01*
X44088Y38677D01*
X44083Y38680D01*
X44077Y38683D01*
X44071Y38686D01*
X44065Y38687D01*
X44058Y38689D01*
X44051Y38690D01*
X44044Y38691D01*
X44036Y38691D01*
X44105Y38759D01*
X44105Y38751D01*
D02*
G37*
G36*
X42126Y38515D02*
X42120Y38520D01*
X42114Y38525D01*
X42109Y38529D01*
X42103Y38533D01*
X42097Y38536D01*
X42091Y38539D01*
X42085Y38541D01*
X42079Y38542D01*
X42073Y38543D01*
X42067Y38543D01*
Y38583D01*
X42073Y38583D01*
X42079Y38584D01*
X42085Y38586D01*
X42091Y38588D01*
X42097Y38590D01*
X42103Y38593D01*
X42109Y38597D01*
X42114Y38601D01*
X42120Y38606D01*
X42126Y38612D01*
Y38515D01*
D02*
G37*
G36*
X43342Y38537D02*
X43348Y38532D01*
X43354Y38528D01*
X43360Y38524D01*
X43365Y38521D01*
X43371Y38519D01*
X43377Y38517D01*
X43383Y38515D01*
X43389Y38514D01*
X43395Y38514D01*
Y38474D01*
X43389Y38474D01*
X43383Y38473D01*
X43377Y38472D01*
X43371Y38470D01*
X43365Y38467D01*
X43360Y38464D01*
X43354Y38460D01*
X43348Y38456D01*
X43342Y38451D01*
X43337Y38446D01*
Y38543D01*
X43342Y38537D01*
D02*
G37*
G36*
X42029Y38378D02*
X42032Y38373D01*
X42042Y38361D01*
X42078Y38323D01*
X42104Y38297D01*
X42056Y38232D01*
X42049Y38239D01*
X42042Y38245D01*
X42034Y38249D01*
X42027Y38253D01*
X42021Y38256D01*
X42014Y38257D01*
X42007Y38257D01*
X42001Y38257D01*
X41995Y38255D01*
X41989Y38252D01*
X42027Y38381D01*
X42029Y38378D01*
D02*
G37*
G36*
X43478Y38183D02*
X43475Y38180D01*
X43473Y38176D01*
X43471Y38171D01*
X43469Y38166D01*
X43468Y38161D01*
X43466Y38155D01*
X43466Y38149D01*
X43465Y38142D01*
X43465Y38134D01*
X43405D01*
X43405Y38142D01*
X43404Y38155D01*
X43403Y38161D01*
X43401Y38166D01*
X43399Y38171D01*
X43397Y38176D01*
X43395Y38180D01*
X43393Y38183D01*
X43390Y38186D01*
X43481D01*
X43478Y38183D01*
D02*
G37*
G36*
X44617Y37910D02*
X44650Y37888D01*
X44688Y37881D01*
X45245D01*
X45391Y37734D01*
Y37160D01*
X45399Y37121D01*
X45421Y37089D01*
X45837Y36673D01*
X45818Y36626D01*
X44400D01*
X44361Y36619D01*
X44328Y36597D01*
X44259Y36527D01*
X44203D01*
X44175Y36577D01*
X44187Y36634D01*
X44173Y36703D01*
X44134Y36762D01*
X44075Y36801D01*
X44006Y36815D01*
X43937Y36801D01*
X43878Y36762D01*
X43839Y36703D01*
X43825Y36634D01*
X43837Y36577D01*
X43809Y36527D01*
X42462D01*
X42431Y36566D01*
X42435Y36585D01*
X42421Y36654D01*
X42382Y36712D01*
X42323Y36752D01*
X42254Y36765D01*
X42185Y36752D01*
X42126Y36712D01*
X42087Y36654D01*
X42073Y36585D01*
X42077Y36566D01*
X42045Y36527D01*
X41962D01*
X41609Y36880D01*
X41626Y36934D01*
X41653Y36940D01*
X41712Y36979D01*
X41715Y36983D01*
X41716Y36984D01*
X41718Y36984D01*
X41721Y36985D01*
X41723Y36985D01*
X42760D01*
X42775Y36935D01*
X42736Y36909D01*
X42697Y36851D01*
X42684Y36782D01*
X42697Y36712D01*
X42736Y36654D01*
X42795Y36615D01*
X42864Y36601D01*
X42933Y36615D01*
X42992Y36654D01*
X43031Y36712D01*
X43045Y36782D01*
X43031Y36851D01*
X42992Y36909D01*
X42933Y36948D01*
X42915Y36952D01*
X42906Y37005D01*
X42930Y37021D01*
X43013Y37104D01*
X43025Y37106D01*
X43070Y37136D01*
X43100Y37181D01*
X43104Y37202D01*
X43155D01*
X43159Y37181D01*
X43189Y37136D01*
X43234Y37106D01*
X43247Y37104D01*
X43300Y37050D01*
X43300Y37050D01*
X43340Y37024D01*
X43386Y37015D01*
X45082D01*
X45110Y36997D01*
X45168Y36985D01*
X45225Y36997D01*
X45274Y37029D01*
X45307Y37078D01*
X45319Y37136D01*
X45307Y37194D01*
X45274Y37243D01*
X45225Y37275D01*
X45168Y37287D01*
X45110Y37275D01*
X45082Y37257D01*
X43436D01*
X43418Y37275D01*
X43415Y37287D01*
X43385Y37332D01*
X43352Y37354D01*
X43342Y37398D01*
X43342Y37413D01*
X43358Y37428D01*
X43358Y37428D01*
X43404Y37437D01*
X43444Y37464D01*
X43507Y37527D01*
X45082D01*
X45110Y37508D01*
X45168Y37497D01*
X45225Y37508D01*
X45274Y37541D01*
X45307Y37590D01*
X45319Y37648D01*
X45307Y37706D01*
X45274Y37754D01*
X45225Y37787D01*
X45168Y37799D01*
X45110Y37787D01*
X45082Y37769D01*
X43456D01*
X43456Y37769D01*
X43410Y37760D01*
X43371Y37733D01*
X43319Y37682D01*
X43287Y37688D01*
X43279Y37686D01*
X43241Y37718D01*
Y37779D01*
X43513Y38052D01*
X43517Y38057D01*
X43523Y38059D01*
X43575Y38054D01*
X43603Y38012D01*
X43661Y37973D01*
X43730Y37959D01*
X43799Y37973D01*
X43858Y38012D01*
X43897Y38071D01*
X43907Y38118D01*
X44410D01*
X44617Y37910D01*
D02*
G37*
G36*
X48188Y37854D02*
X48180Y37854D01*
X48173Y37853D01*
X48166Y37852D01*
X48159Y37851D01*
X48153Y37849D01*
X48147Y37847D01*
X48141Y37844D01*
X48136Y37841D01*
X48131Y37837D01*
X48127Y37833D01*
X48099Y37861D01*
X48103Y37866D01*
X48106Y37871D01*
X48109Y37876D01*
X48112Y37881D01*
X48115Y37887D01*
X48116Y37894D01*
X48118Y37900D01*
X48119Y37907D01*
X48120Y37915D01*
X48120Y37923D01*
X48188Y37854D01*
D02*
G37*
G36*
X45118Y37599D02*
X45116Y37601D01*
X45114Y37602D01*
X45110Y37604D01*
X45106Y37605D01*
X45102Y37606D01*
X45097Y37606D01*
X45084Y37607D01*
X45070Y37608D01*
Y37688D01*
X45077Y37688D01*
X45097Y37689D01*
X45102Y37690D01*
X45106Y37691D01*
X45110Y37692D01*
X45114Y37693D01*
X45116Y37695D01*
X45118Y37696D01*
Y37599D01*
D02*
G37*
G36*
X43160Y37626D02*
X43161Y37615D01*
X43162Y37610D01*
X43162Y37605D01*
X43164Y37602D01*
X43165Y37598D01*
X43166Y37595D01*
X43168Y37592D01*
X43170Y37590D01*
X43090D01*
X43092Y37592D01*
X43094Y37595D01*
X43095Y37598D01*
X43096Y37602D01*
X43097Y37605D01*
X43098Y37610D01*
X43099Y37615D01*
X43100Y37626D01*
X43100Y37632D01*
X43160D01*
X43160Y37626D01*
D02*
G37*
G36*
X41042Y37559D02*
X41036Y37565D01*
X41030Y37570D01*
X41023Y37574D01*
X41016Y37578D01*
X41008Y37581D01*
X41000Y37583D01*
X40991Y37585D01*
X40982Y37587D01*
X40973Y37588D01*
X40963Y37588D01*
Y37668D01*
X40973Y37668D01*
X40982Y37669D01*
X40991Y37671D01*
X41000Y37673D01*
X41008Y37675D01*
X41016Y37678D01*
X41023Y37682D01*
X41030Y37687D01*
X41036Y37691D01*
X41042Y37697D01*
Y37559D01*
D02*
G37*
G36*
X37024Y37533D02*
X37019Y37528D01*
X37014Y37522D01*
X37010Y37517D01*
X37007Y37512D01*
X37004Y37507D01*
X37002Y37502D01*
X37000Y37497D01*
X36999Y37491D01*
X36998Y37486D01*
X36998Y37481D01*
X36929Y37550D01*
X36935Y37550D01*
X36940Y37551D01*
X36945Y37552D01*
X36950Y37554D01*
X36955Y37556D01*
X36960Y37559D01*
X36966Y37562D01*
X36971Y37566D01*
X36976Y37570D01*
X36981Y37575D01*
X37024Y37533D01*
D02*
G37*
G36*
X43336Y37343D02*
X43332Y37348D01*
X43327Y37352D01*
X43322Y37355D01*
X43316Y37358D01*
X43311Y37361D01*
X43305Y37363D01*
X43302Y37364D01*
X43299Y37363D01*
X43294Y37361D01*
X43288Y37358D01*
X43283Y37355D01*
X43278Y37352D01*
X43273Y37348D01*
X43268Y37343D01*
Y37440D01*
X43273Y37436D01*
X43278Y37432D01*
X43283Y37428D01*
X43288Y37425D01*
X43294Y37423D01*
X43299Y37421D01*
X43302Y37420D01*
X43305Y37421D01*
X43311Y37423D01*
X43316Y37425D01*
X43322Y37428D01*
X43327Y37432D01*
X43332Y37436D01*
X43336Y37440D01*
Y37343D01*
D02*
G37*
G36*
X43169D02*
X43164Y37348D01*
X43159Y37352D01*
X43154Y37355D01*
X43149Y37358D01*
X43143Y37361D01*
X43138Y37363D01*
X43132Y37365D01*
X43130Y37365D01*
X43128Y37365D01*
X43122Y37363D01*
X43117Y37361D01*
X43111Y37358D01*
X43106Y37355D01*
X43100Y37352D01*
X43096Y37348D01*
X43091Y37343D01*
Y37440D01*
X43096Y37436D01*
X43100Y37432D01*
X43106Y37428D01*
X43111Y37425D01*
X43117Y37423D01*
X43122Y37421D01*
X43128Y37419D01*
X43130Y37419D01*
X43132Y37419D01*
X43138Y37421D01*
X43143Y37423D01*
X43149Y37425D01*
X43154Y37428D01*
X43159Y37432D01*
X43164Y37436D01*
X43169Y37440D01*
Y37343D01*
D02*
G37*
G36*
X38786Y37438D02*
X38794Y37430D01*
X38798Y37427D01*
X38802Y37425D01*
X38806Y37423D01*
X38809Y37421D01*
X38812Y37420D01*
X38815Y37420D01*
X38818Y37419D01*
X38762Y37363D01*
X38762Y37366D01*
X38761Y37369D01*
X38760Y37372D01*
X38758Y37375D01*
X38756Y37379D01*
X38754Y37383D01*
X38751Y37387D01*
X38743Y37395D01*
X38739Y37400D01*
X38782Y37442D01*
X38786Y37438D01*
D02*
G37*
G36*
X41565Y38209D02*
X41624Y38170D01*
X41693Y38156D01*
X41762Y38170D01*
X41816Y38206D01*
X41870Y38170D01*
X41939Y38156D01*
X42004Y38169D01*
X42385Y37789D01*
X42385Y37789D01*
X42424Y37762D01*
X42470Y37753D01*
X42597D01*
X42842Y37508D01*
X42844Y37496D01*
X42875Y37451D01*
X42919Y37421D01*
X42923Y37421D01*
Y37440D01*
X42928Y37436D01*
X42933Y37432D01*
X42938Y37428D01*
X42944Y37425D01*
X42949Y37423D01*
X42955Y37421D01*
X42958Y37420D01*
X42960Y37421D01*
X42966Y37423D01*
X42972Y37425D01*
X42977Y37428D01*
X42982Y37432D01*
X42987Y37436D01*
X42992Y37440D01*
Y37343D01*
X42987Y37348D01*
X42982Y37352D01*
X42977Y37355D01*
X42972Y37358D01*
X42966Y37361D01*
X42960Y37363D01*
X42958Y37364D01*
X42955Y37363D01*
X42949Y37361D01*
X42944Y37358D01*
X42938Y37355D01*
X42933Y37352D01*
X42928Y37348D01*
X42923Y37343D01*
Y37363D01*
X42919Y37362D01*
X42875Y37332D01*
X42844Y37287D01*
X42842Y37275D01*
X42794Y37227D01*
X41774D01*
X41747Y37277D01*
X41751Y37283D01*
X41765Y37352D01*
X41751Y37421D01*
X41712Y37480D01*
X41653Y37519D01*
X41584Y37533D01*
X41538Y37524D01*
X41488Y37557D01*
Y38234D01*
X41538Y38249D01*
X41565Y38209D01*
D02*
G37*
G36*
X46643Y37127D02*
X46638Y37132D01*
X46632Y37137D01*
X46626Y37141D01*
X46621Y37145D01*
X46615Y37148D01*
X46609Y37151D01*
X46603Y37153D01*
X46597Y37154D01*
X46591Y37155D01*
X46585Y37155D01*
Y37195D01*
X46591Y37196D01*
X46597Y37196D01*
X46603Y37198D01*
X46609Y37200D01*
X46615Y37202D01*
X46621Y37206D01*
X46626Y37209D01*
X46632Y37214D01*
X46638Y37218D01*
X46643Y37224D01*
Y37127D01*
D02*
G37*
G36*
X39013Y37160D02*
X39009Y37156D01*
X39006Y37152D01*
X39004Y37147D01*
X39001Y37143D01*
X39000Y37138D01*
X38998Y37133D01*
X38997Y37128D01*
X38997Y37123D01*
X38996Y37117D01*
X38956D01*
X38956Y37123D01*
X38956Y37128D01*
X38955Y37133D01*
X38953Y37138D01*
X38951Y37143D01*
X38949Y37147D01*
X38947Y37152D01*
X38944Y37156D01*
X38940Y37160D01*
X38936Y37164D01*
X39016D01*
X39013Y37160D01*
D02*
G37*
G36*
X45118Y37087D02*
X45116Y37089D01*
X45114Y37090D01*
X45110Y37092D01*
X45106Y37093D01*
X45102Y37094D01*
X45097Y37095D01*
X45084Y37096D01*
X45070Y37096D01*
Y37176D01*
X45077Y37176D01*
X45097Y37177D01*
X45102Y37178D01*
X45106Y37179D01*
X45110Y37180D01*
X45114Y37181D01*
X45116Y37183D01*
X45118Y37184D01*
Y37087D01*
D02*
G37*
G36*
X41660Y37170D02*
X41667Y37165D01*
X41674Y37161D01*
X41681Y37157D01*
X41688Y37154D01*
X41696Y37151D01*
X41705Y37149D01*
X41714Y37148D01*
X41723Y37147D01*
X41733Y37146D01*
Y37066D01*
X41723Y37066D01*
X41714Y37065D01*
X41705Y37064D01*
X41696Y37062D01*
X41688Y37059D01*
X41681Y37056D01*
X41674Y37052D01*
X41667Y37048D01*
X41660Y37043D01*
X41655Y37038D01*
Y37175D01*
X41660Y37170D01*
D02*
G37*
G36*
X40921Y36936D02*
X40847Y36828D01*
X40846Y36834D01*
X40844Y36839D01*
X40840Y36844D01*
X40836Y36848D01*
X40831Y36852D01*
X40824Y36855D01*
X40817Y36857D01*
X40809Y36858D01*
X40800Y36859D01*
X40789Y36860D01*
X40807Y36940D01*
X40921Y36936D01*
D02*
G37*
G36*
X47431Y36733D02*
X47425Y36739D01*
X47420Y36743D01*
X47414Y36748D01*
X47408Y36751D01*
X47402Y36754D01*
X47396Y36757D01*
X47390Y36759D01*
X47384Y36760D01*
X47378Y36761D01*
X47372Y36762D01*
Y36802D01*
X47378Y36802D01*
X47384Y36803D01*
X47390Y36804D01*
X47396Y36806D01*
X47402Y36809D01*
X47408Y36812D01*
X47414Y36816D01*
X47420Y36820D01*
X47425Y36825D01*
X47431Y36830D01*
Y36733D01*
D02*
G37*
G36*
X47086Y36712D02*
X47078Y36712D01*
X47071Y36712D01*
X47064Y36711D01*
X47057Y36709D01*
X47051Y36707D01*
X47045Y36705D01*
X47039Y36702D01*
X47034Y36699D01*
X47029Y36695D01*
X47024Y36691D01*
X46996Y36719D01*
X47000Y36724D01*
X47004Y36729D01*
X47007Y36734D01*
X47010Y36740D01*
X47012Y36746D01*
X47014Y36752D01*
X47016Y36759D01*
X47017Y36766D01*
X47017Y36773D01*
X47017Y36781D01*
X47086Y36712D01*
D02*
G37*
G36*
X46692D02*
X46684Y36712D01*
X46677Y36712D01*
X46670Y36711D01*
X46663Y36709D01*
X46657Y36707D01*
X46651Y36705D01*
X46645Y36702D01*
X46640Y36699D01*
X46635Y36695D01*
X46631Y36691D01*
X46602Y36719D01*
X46607Y36724D01*
X46610Y36729D01*
X46613Y36734D01*
X46616Y36740D01*
X46619Y36746D01*
X46620Y36752D01*
X46622Y36759D01*
X46623Y36766D01*
X46623Y36773D01*
X46624Y36781D01*
X46692Y36712D01*
D02*
G37*
%LPC*%
G36*
X39911Y42385D02*
X39854Y42374D01*
X39805Y42341D01*
X39799Y42332D01*
X39739D01*
X39733Y42341D01*
X39684Y42374D01*
X39626Y42385D01*
X39568Y42374D01*
X39519Y42341D01*
X39487Y42292D01*
X39475Y42234D01*
X39487Y42177D01*
X39501Y42155D01*
X39500Y42154D01*
X39467Y42105D01*
X39456Y42048D01*
X39467Y41990D01*
X39500Y41941D01*
X39549Y41908D01*
X39607Y41897D01*
X39664Y41908D01*
X39713Y41941D01*
X39746Y41990D01*
X39757Y42048D01*
X39750Y42087D01*
X39760Y42104D01*
X39769Y42108D01*
X39821Y42117D01*
X39854Y42095D01*
X39911Y42083D01*
X39969Y42095D01*
X40018Y42128D01*
X40051Y42177D01*
X40062Y42234D01*
X40051Y42292D01*
X40018Y42341D01*
X39969Y42374D01*
X39911Y42385D01*
D02*
G37*
G36*
X39892Y41995D02*
X39834Y41984D01*
X39785Y41951D01*
X39752Y41902D01*
X39741Y41844D01*
X39752Y41786D01*
X39785Y41738D01*
X39834Y41705D01*
X39892Y41693D01*
X39949Y41705D01*
X39998Y41738D01*
X40031Y41786D01*
X40043Y41844D01*
X40031Y41902D01*
X39998Y41951D01*
X39949Y41984D01*
X39892Y41995D01*
D02*
G37*
G36*
X40031Y41578D02*
X39973Y41566D01*
X39924Y41533D01*
X39891Y41484D01*
X39882Y41436D01*
X39834Y41427D01*
X39785Y41394D01*
X39752Y41345D01*
X39741Y41287D01*
X39752Y41230D01*
X39785Y41181D01*
X39834Y41148D01*
X39882Y41138D01*
X39891Y41091D01*
X39924Y41042D01*
X39973Y41009D01*
X40031Y40997D01*
X40089Y41009D01*
X40138Y41042D01*
X40170Y41091D01*
X40180Y41138D01*
X40228Y41148D01*
X40277Y41181D01*
X40309Y41230D01*
X40319Y41278D01*
X40367Y41287D01*
X40416Y41320D01*
X40449Y41369D01*
X40460Y41427D01*
X40449Y41484D01*
X40416Y41533D01*
X40367Y41566D01*
X40309Y41578D01*
X40251Y41566D01*
X40202Y41533D01*
X40195Y41522D01*
X40145D01*
X40138Y41533D01*
X40089Y41566D01*
X40031Y41578D01*
D02*
G37*
G36*
X37795Y42405D02*
X37738Y42393D01*
X37689Y42361D01*
X37656Y42312D01*
X37644Y42254D01*
X37656Y42196D01*
X37689Y42147D01*
X37738Y42115D01*
X37795Y42103D01*
X37853Y42115D01*
X37902Y42147D01*
X37935Y42196D01*
X37946Y42254D01*
X37935Y42312D01*
X37902Y42361D01*
X37853Y42393D01*
X37795Y42405D01*
D02*
G37*
G36*
X35846Y39620D02*
X35789Y39608D01*
X35740Y39575D01*
X35707Y39526D01*
X35704Y39509D01*
X35687Y39512D01*
X35457D01*
X35456Y39513D01*
X35454Y39513D01*
X35453Y39514D01*
X35445Y39519D01*
X35440Y39522D01*
X35433Y39525D01*
X35412Y39539D01*
X35354Y39551D01*
X35297Y39539D01*
X35248Y39506D01*
X35215Y39457D01*
X35203Y39400D01*
X35215Y39342D01*
X35248Y39293D01*
X35297Y39260D01*
X35354Y39249D01*
X35412Y39260D01*
X35461Y39293D01*
X35472Y39309D01*
X35474Y39311D01*
X35645D01*
X35677Y39279D01*
X35678Y39277D01*
X35679Y39275D01*
X35680Y39273D01*
X35683Y39263D01*
X35684Y39258D01*
X35687Y39251D01*
X35691Y39231D01*
X35723Y39182D01*
X35772Y39149D01*
X35830Y39137D01*
X35888Y39149D01*
X35937Y39182D01*
X35970Y39231D01*
X35981Y39288D01*
X35970Y39346D01*
X35956Y39366D01*
X35986Y39411D01*
X35997Y39469D01*
X35986Y39526D01*
X35953Y39575D01*
X35904Y39608D01*
X35846Y39620D01*
D02*
G37*
G36*
X36457Y39039D02*
X36399Y39027D01*
X36350Y38995D01*
X36317Y38946D01*
X36306Y38888D01*
X36317Y38830D01*
X36348Y38785D01*
X36317Y38739D01*
X36306Y38681D01*
X36317Y38623D01*
X36350Y38574D01*
X36399Y38542D01*
X36457Y38530D01*
X36514Y38542D01*
X36563Y38574D01*
X36596Y38623D01*
X36608Y38681D01*
X36596Y38739D01*
X36566Y38785D01*
X36596Y38830D01*
X36608Y38888D01*
X36596Y38946D01*
X36563Y38995D01*
X36514Y39027D01*
X36457Y39039D01*
D02*
G37*
G36*
X36191Y38576D02*
X36122Y38563D01*
X36063Y38524D01*
X36024Y38465D01*
X35997Y38459D01*
X35972Y38460D01*
X35943Y38503D01*
X35894Y38535D01*
X35837Y38547D01*
X35779Y38535D01*
X35730Y38503D01*
X35697Y38454D01*
X35686Y38396D01*
X35697Y38338D01*
X35728Y38292D01*
X35720Y38286D01*
X35687Y38237D01*
X35676Y38179D01*
X35687Y38121D01*
X35720Y38073D01*
X35729Y38066D01*
Y38016D01*
X35720Y38010D01*
X35687Y37961D01*
X35676Y37904D01*
X35687Y37846D01*
X35720Y37797D01*
X35769Y37764D01*
X35827Y37753D01*
X35885Y37764D01*
X35933Y37797D01*
X35966Y37846D01*
X35978Y37904D01*
X35966Y37961D01*
X35933Y38010D01*
X35924Y38016D01*
Y38066D01*
X35933Y38073D01*
X35965Y38120D01*
X35972Y38121D01*
X36017Y38118D01*
X36024Y38081D01*
X36063Y38022D01*
X36122Y37983D01*
X36191Y37969D01*
X36260Y37983D01*
X36319Y38022D01*
X36358Y38081D01*
X36372Y38150D01*
X36358Y38219D01*
X36322Y38273D01*
X36358Y38327D01*
X36372Y38396D01*
X36358Y38465D01*
X36319Y38524D01*
X36260Y38563D01*
X36191Y38576D01*
D02*
G37*
%LPD*%
G36*
X35401Y39451D02*
X35415Y39444D01*
X35421Y39440D01*
X35427Y39438D01*
X35434Y39436D01*
X35440Y39434D01*
X35446Y39433D01*
X35452Y39432D01*
X35457Y39432D01*
X35465Y39392D01*
X35458Y39391D01*
X35452Y39390D01*
X35447Y39389D01*
X35441Y39387D01*
X35435Y39384D01*
X35430Y39380D01*
X35425Y39376D01*
X35420Y39372D01*
X35416Y39366D01*
X35411Y39360D01*
X35395Y39456D01*
X35401Y39451D01*
D02*
G37*
G36*
X35761Y39366D02*
X35766Y39363D01*
X35771Y39360D01*
X35777Y39357D01*
X35782Y39356D01*
X35788Y39354D01*
X35795Y39354D01*
X35801Y39354D01*
X35808Y39355D01*
X35815Y39356D01*
X35762Y39275D01*
X35760Y39283D01*
X35756Y39298D01*
X35754Y39304D01*
X35751Y39311D01*
X35748Y39317D01*
X35745Y39322D01*
X35742Y39327D01*
X35738Y39332D01*
X35734Y39336D01*
X35756Y39371D01*
X35761Y39366D01*
D02*
G37*
%LPC*%
G36*
X38150Y38586D02*
X38080Y38573D01*
X38022Y38533D01*
X37983Y38475D01*
X37969Y38406D01*
X37983Y38337D01*
X38022Y38278D01*
X38080Y38239D01*
X38150Y38225D01*
X38219Y38239D01*
X38277Y38278D01*
X38316Y38337D01*
X38330Y38406D01*
X38316Y38475D01*
X38277Y38533D01*
X38219Y38573D01*
X38150Y38586D01*
D02*
G37*
G36*
X38573D02*
X38504Y38573D01*
X38445Y38533D01*
X38406Y38475D01*
X38392Y38406D01*
X38406Y38337D01*
X38445Y38278D01*
X38504Y38239D01*
X38524Y38188D01*
X38516Y38174D01*
X38514Y38173D01*
X38459Y38166D01*
X38410Y38198D01*
X38341Y38212D01*
X38272Y38198D01*
X38214Y38159D01*
X38174Y38101D01*
X38161Y38032D01*
X38174Y37962D01*
X38214Y37904D01*
X38272Y37865D01*
X38341Y37851D01*
X38410Y37865D01*
X38469Y37904D01*
X38508Y37962D01*
X38508Y37963D01*
X38528Y37972D01*
X38562Y37979D01*
X38604Y37951D01*
X38661Y37940D01*
X38719Y37951D01*
X38755Y37975D01*
X38791Y37951D01*
X38848Y37940D01*
X38906Y37951D01*
X38955Y37984D01*
X38988Y38033D01*
X38999Y38091D01*
X38988Y38148D01*
X38955Y38197D01*
X38906Y38230D01*
X38848Y38242D01*
X38791Y38230D01*
X38765Y38213D01*
X38718Y38234D01*
X38710Y38254D01*
X38705Y38284D01*
X38740Y38337D01*
X38753Y38406D01*
X38740Y38475D01*
X38701Y38533D01*
X38642Y38573D01*
X38573Y38586D01*
D02*
G37*
G36*
X39646Y38183D02*
X39577Y38169D01*
X39518Y38130D01*
X39479Y38071D01*
X39465Y38002D01*
X39479Y37933D01*
X39518Y37874D01*
X39577Y37835D01*
X39646Y37821D01*
X39715Y37835D01*
X39773Y37874D01*
X39813Y37933D01*
X39826Y38002D01*
X39813Y38071D01*
X39773Y38130D01*
X39715Y38169D01*
X39646Y38183D01*
D02*
G37*
%LPD*%
G36*
X45908Y45273D02*
X45911Y45272D01*
X45914Y45270D01*
X45918Y45269D01*
X45923Y45268D01*
X45928Y45267D01*
X45940Y45266D01*
X45955Y45266D01*
Y45187D01*
X45947Y45187D01*
X45928Y45186D01*
X45923Y45185D01*
X45918Y45184D01*
X45914Y45183D01*
X45911Y45181D01*
X45908Y45180D01*
X45906Y45178D01*
Y45275D01*
X45908Y45273D01*
D02*
G37*
G36*
X46315Y44691D02*
Y43924D01*
X46326Y43867D01*
X46359Y43818D01*
X46537Y43640D01*
Y43419D01*
X46548Y43361D01*
X46555Y43352D01*
X46522Y43311D01*
X46485D01*
X46436Y43343D01*
X46378Y43355D01*
X46320Y43343D01*
X46279Y43316D01*
X46273Y43315D01*
X46255Y43322D01*
X46234Y43343D01*
X46227Y43361D01*
X46228Y43367D01*
X46255Y43408D01*
X46267Y43466D01*
X46255Y43524D01*
X46223Y43573D01*
X46174Y43605D01*
X46159Y43608D01*
X46086Y43682D01*
Y44532D01*
X46265Y44711D01*
X46315Y44691D01*
D02*
G37*
G36*
X46317Y43069D02*
X46317Y43066D01*
X46319Y43063D01*
X46321Y43059D01*
X46323Y43055D01*
X46326Y43051D01*
X46334Y43042D01*
X46345Y43031D01*
X46289Y42975D01*
X46283Y42981D01*
X46269Y42993D01*
X46264Y42996D01*
X46260Y42999D01*
X46257Y43001D01*
X46253Y43002D01*
X46250Y43003D01*
X46248Y43003D01*
X46316Y43072D01*
X46317Y43069D01*
D02*
G37*
G36*
X46390Y45874D02*
X46386Y45869D01*
X46382Y45865D01*
X46379Y45859D01*
X46376Y45854D01*
X46374Y45848D01*
X46372Y45841D01*
X46370Y45835D01*
X46369Y45828D01*
X46369Y45820D01*
X46368Y45812D01*
X46300Y45881D01*
X46308Y45881D01*
X46315Y45882D01*
X46322Y45883D01*
X46329Y45884D01*
X46335Y45886D01*
X46341Y45888D01*
X46347Y45891D01*
X46352Y45894D01*
X46357Y45898D01*
X46361Y45902D01*
X46390Y45874D01*
D02*
G37*
G36*
X52566Y44600D02*
X52566Y44602D01*
X52565Y44603D01*
X52563Y44603D01*
X52561Y44604D01*
X52559Y44605D01*
X52556Y44605D01*
X52552Y44606D01*
X52544Y44606D01*
X52539Y44606D01*
Y44646D01*
X52544Y44646D01*
X52556Y44647D01*
X52559Y44648D01*
X52561Y44648D01*
X52563Y44649D01*
X52565Y44650D01*
X52566Y44651D01*
X52566Y44652D01*
Y44600D01*
D02*
G37*
G36*
X52385Y44444D02*
X52383Y44450D01*
X52380Y44455D01*
X52376Y44460D01*
X52372Y44464D01*
X52368Y44468D01*
X52363Y44471D01*
X52358Y44473D01*
X52352Y44475D01*
X52346Y44476D01*
X52340Y44476D01*
X52358Y44516D01*
X52363Y44516D01*
X52369Y44517D01*
X52380Y44519D01*
X52387Y44520D01*
X52401Y44524D01*
X52416Y44530D01*
X52424Y44533D01*
X52385Y44444D01*
D02*
G37*
G36*
X52676Y43462D02*
X52670Y43464D01*
X52664Y43466D01*
X52658Y43467D01*
X52652Y43468D01*
X52647Y43467D01*
X52642Y43466D01*
X52636Y43464D01*
X52631Y43461D01*
X52626Y43458D01*
X52621Y43453D01*
X52608Y43496D01*
X52612Y43500D01*
X52619Y43509D01*
X52623Y43514D01*
X52630Y43526D01*
X52637Y43538D01*
X52644Y43552D01*
X52676Y43462D01*
D02*
G37*
G36*
X52449Y43455D02*
X52441Y43454D01*
X52434Y43454D01*
X52427Y43453D01*
X52420Y43451D01*
X52414Y43449D01*
X52408Y43447D01*
X52402Y43444D01*
X52397Y43441D01*
X52392Y43437D01*
X52388Y43433D01*
X52360Y43462D01*
X52364Y43466D01*
X52367Y43471D01*
X52370Y43476D01*
X52373Y43482D01*
X52376Y43488D01*
X52378Y43494D01*
X52379Y43501D01*
X52380Y43508D01*
X52381Y43515D01*
X52381Y43523D01*
X52449Y43455D01*
D02*
G37*
G36*
X48302Y43264D02*
X48297Y43259D01*
X48293Y43254D01*
X48290Y43249D01*
X48287Y43244D01*
X48285Y43240D01*
X48283Y43235D01*
X48282Y43230D01*
X48282Y43225D01*
X48282Y43220D01*
X48282Y43214D01*
X48224Y43272D01*
X48229Y43272D01*
X48234Y43272D01*
X48239Y43272D01*
X48244Y43274D01*
X48249Y43275D01*
X48254Y43277D01*
X48259Y43280D01*
X48264Y43284D01*
X48269Y43287D01*
X48273Y43292D01*
X48302Y43264D01*
D02*
G37*
G36*
X48706Y42055D02*
X48702Y42051D01*
X48698Y42047D01*
X48691Y42037D01*
X48688Y42032D01*
X48681Y42019D01*
X48674Y42005D01*
X48671Y41997D01*
X48635Y42087D01*
X48641Y42085D01*
X48648Y42083D01*
X48653Y42082D01*
X48659Y42082D01*
X48665Y42082D01*
X48670Y42084D01*
X48676Y42086D01*
X48681Y42089D01*
X48686Y42092D01*
X48690Y42097D01*
X48706Y42055D01*
D02*
G37*
G36*
X52010Y42086D02*
X52011Y42080D01*
X52011Y42074D01*
X52013Y42068D01*
X52015Y42062D01*
X52017Y42056D01*
X52020Y42050D01*
X52024Y42044D01*
X52028Y42038D01*
X52033Y42032D01*
X52038Y42026D01*
X51941Y42029D01*
X51947Y42035D01*
X51952Y42040D01*
X51956Y42046D01*
X51960Y42051D01*
X51963Y42057D01*
X51966Y42063D01*
X51968Y42069D01*
X51969Y42075D01*
X51970Y42081D01*
X51970Y42087D01*
X52010Y42086D01*
D02*
G37*
G36*
X51638Y41963D02*
X51633Y41957D01*
X51628Y41951D01*
X51625Y41946D01*
X51622Y41940D01*
X51619Y41934D01*
X51617Y41928D01*
X51616Y41922D01*
X51615Y41916D01*
X51614Y41910D01*
X51574D01*
X51574Y41916D01*
X51573Y41922D01*
X51572Y41928D01*
X51570Y41934D01*
X51567Y41940D01*
X51564Y41946D01*
X51561Y41951D01*
X51556Y41957D01*
X51551Y41963D01*
X51546Y41968D01*
X51643D01*
X51638Y41963D01*
D02*
G37*
G36*
X48531Y41936D02*
X48537Y41931D01*
X48542Y41927D01*
X48548Y41923D01*
X48554Y41920D01*
X48560Y41917D01*
X48566Y41915D01*
X48572Y41914D01*
X48578Y41913D01*
X48584Y41913D01*
Y41873D01*
X48578Y41873D01*
X48572Y41872D01*
X48566Y41870D01*
X48560Y41868D01*
X48554Y41866D01*
X48548Y41863D01*
X48542Y41859D01*
X48537Y41855D01*
X48531Y41850D01*
X48525Y41844D01*
Y41941D01*
X48531Y41936D01*
D02*
G37*
G36*
X48625Y41746D02*
X48621Y41741D01*
X48617Y41736D01*
X48614Y41731D01*
X48611Y41725D01*
X48609Y41719D01*
X48607Y41713D01*
X48605Y41706D01*
X48604Y41699D01*
X48604Y41692D01*
X48603Y41684D01*
X48535Y41753D01*
X48543Y41753D01*
X48550Y41753D01*
X48557Y41754D01*
X48564Y41756D01*
X48570Y41758D01*
X48576Y41760D01*
X48582Y41763D01*
X48587Y41766D01*
X48592Y41770D01*
X48596Y41774D01*
X48625Y41746D01*
D02*
G37*
G36*
X48269Y41674D02*
X48274Y41669D01*
X48280Y41665D01*
X48286Y41661D01*
X48292Y41658D01*
X48298Y41655D01*
X48303Y41653D01*
X48309Y41652D01*
X48315Y41651D01*
X48321Y41651D01*
Y41611D01*
X48315Y41610D01*
X48309Y41609D01*
X48303Y41608D01*
X48298Y41606D01*
X48292Y41603D01*
X48286Y41600D01*
X48280Y41597D01*
X48274Y41592D01*
X48269Y41588D01*
X48263Y41582D01*
Y41679D01*
X48269Y41674D01*
D02*
G37*
G36*
X48803Y41604D02*
X48802Y41598D01*
X48801Y41591D01*
X48802Y41585D01*
X48802Y41579D01*
X48804Y41573D01*
X48806Y41568D01*
X48809Y41563D01*
X48813Y41558D01*
X48817Y41553D01*
X48780Y41533D01*
X48776Y41537D01*
X48772Y41541D01*
X48767Y41544D01*
X48761Y41547D01*
X48756Y41550D01*
X48743Y41556D01*
X48735Y41559D01*
X48720Y41564D01*
X48804Y41611D01*
X48803Y41604D01*
D02*
G37*
G36*
X48387Y41444D02*
X48383Y41439D01*
X48379Y41434D01*
X48376Y41429D01*
X48374Y41424D01*
X48371Y41418D01*
X48370Y41412D01*
X48369Y41406D01*
X48368Y41399D01*
X48368Y41393D01*
X48328Y41392D01*
X48327Y41399D01*
X48327Y41405D01*
X48325Y41411D01*
X48324Y41416D01*
X48321Y41422D01*
X48319Y41427D01*
X48315Y41432D01*
X48311Y41436D01*
X48307Y41441D01*
X48302Y41445D01*
X48391Y41448D01*
X48387Y41444D01*
D02*
G37*
G36*
X48431Y41053D02*
X48425Y41058D01*
X48412Y41067D01*
X48406Y41070D01*
X48400Y41073D01*
X48394Y41076D01*
X48388Y41078D01*
X48382Y41079D01*
X48376Y41080D01*
X48370Y41080D01*
X48366Y41120D01*
X48372Y41120D01*
X48379Y41121D01*
X48384Y41123D01*
X48390Y41125D01*
X48396Y41127D01*
X48401Y41131D01*
X48407Y41135D01*
X48412Y41139D01*
X48417Y41144D01*
X48422Y41150D01*
X48431Y41053D01*
D02*
G37*
G36*
X51636Y40627D02*
X51650Y40620D01*
X51657Y40617D01*
X51670Y40613D01*
X51676Y40612D01*
X51682Y40611D01*
X51688Y40610D01*
X51693Y40610D01*
X51703Y40570D01*
X51697Y40570D01*
X51691Y40569D01*
X51686Y40567D01*
X51681Y40565D01*
X51676Y40562D01*
X51671Y40558D01*
X51667Y40554D01*
X51663Y40549D01*
X51659Y40544D01*
X51655Y40538D01*
X51629Y40631D01*
X51636Y40627D01*
D02*
G37*
G36*
X51936Y40525D02*
X51931Y40530D01*
X51927Y40535D01*
X51922Y40538D01*
X51916Y40542D01*
X51911Y40545D01*
X51905Y40547D01*
X51899Y40549D01*
X51893Y40550D01*
X51887Y40551D01*
X51880Y40551D01*
Y40591D01*
X51887Y40591D01*
X51893Y40592D01*
X51899Y40593D01*
X51905Y40595D01*
X51911Y40597D01*
X51916Y40600D01*
X51922Y40604D01*
X51927Y40607D01*
X51931Y40612D01*
X51936Y40617D01*
Y40525D01*
D02*
G37*
G36*
X49997Y40532D02*
X49991Y40531D01*
X49986Y40529D01*
X49982Y40527D01*
X49978Y40524D01*
X49974Y40521D01*
X49972Y40516D01*
X49970Y40512D01*
X49968Y40506D01*
X49967Y40500D01*
X49967Y40494D01*
X49927Y40505D01*
X49923Y40585D01*
X49997Y40532D01*
D02*
G37*
G36*
X49847Y40571D02*
X49841Y40551D01*
X49840Y40545D01*
X49837Y40526D01*
X49837Y40520D01*
X49837Y40515D01*
X49797Y40491D01*
X49797Y40497D01*
X49796Y40504D01*
X49794Y40509D01*
X49792Y40514D01*
X49789Y40519D01*
X49785Y40523D01*
X49781Y40526D01*
X49776Y40529D01*
X49771Y40532D01*
X49765Y40534D01*
X49849Y40578D01*
X49847Y40571D01*
D02*
G37*
G36*
X52058Y40566D02*
X52059Y40559D01*
X52060Y40552D01*
X52062Y40545D01*
X52064Y40539D01*
X52067Y40533D01*
X52070Y40527D01*
X52073Y40522D01*
X52076Y40517D01*
X52081Y40513D01*
X52054Y40483D01*
X52049Y40487D01*
X52045Y40490D01*
X52039Y40494D01*
X52034Y40496D01*
X52028Y40498D01*
X52021Y40500D01*
X52015Y40501D01*
X52008Y40502D01*
X52001Y40502D01*
X51993Y40502D01*
X52057Y40574D01*
X52058Y40566D01*
D02*
G37*
G36*
X52667Y40434D02*
X52661Y40439D01*
X52656Y40444D01*
X52650Y40448D01*
X52644Y40452D01*
X52638Y40455D01*
X52633Y40458D01*
X52627Y40460D01*
X52621Y40461D01*
X52615Y40462D01*
X52609Y40462D01*
Y40502D01*
X52615Y40503D01*
X52621Y40504D01*
X52627Y40505D01*
X52633Y40507D01*
X52638Y40510D01*
X52644Y40513D01*
X52650Y40516D01*
X52656Y40521D01*
X52661Y40525D01*
X52667Y40531D01*
Y40434D01*
D02*
G37*
G36*
X48979Y40061D02*
X48974Y40062D01*
X48961Y40064D01*
X48946Y40066D01*
X48919Y40067D01*
X48898Y40067D01*
X48888Y40107D01*
X48895Y40108D01*
X48901Y40109D01*
X48906Y40110D01*
X48911Y40112D01*
X48915Y40115D01*
X48919Y40118D01*
X48922Y40122D01*
X48924Y40127D01*
X48926Y40132D01*
X48928Y40138D01*
X48979Y40061D01*
D02*
G37*
G36*
X48927Y39908D02*
X48926Y39913D01*
X48925Y39918D01*
X48923Y39923D01*
X48920Y39927D01*
X48917Y39930D01*
X48913Y39933D01*
X48908Y39935D01*
X48903Y39936D01*
X48897Y39937D01*
X48890Y39937D01*
X48903Y39977D01*
X48983Y39980D01*
X48927Y39908D01*
D02*
G37*
G36*
X47302Y39595D02*
X47294Y39594D01*
X47279Y39591D01*
X47272Y39590D01*
X47266Y39587D01*
X47260Y39585D01*
X47254Y39582D01*
X47249Y39578D01*
X47244Y39575D01*
X47240Y39571D01*
X47209Y39596D01*
X47213Y39601D01*
X47217Y39606D01*
X47220Y39611D01*
X47222Y39617D01*
X47224Y39622D01*
X47226Y39629D01*
X47227Y39635D01*
X47227Y39642D01*
X47227Y39649D01*
X47227Y39657D01*
X47302Y39595D01*
D02*
G37*
G36*
X48162Y39487D02*
X48157Y39492D01*
X48152Y39496D01*
X48147Y39500D01*
X48142Y39504D01*
X48136Y39506D01*
X48131Y39509D01*
X48125Y39511D01*
X48118Y39512D01*
X48112Y39513D01*
X48106Y39513D01*
Y39553D01*
X48112Y39553D01*
X48118Y39554D01*
X48125Y39555D01*
X48131Y39557D01*
X48136Y39559D01*
X48142Y39562D01*
X48147Y39566D01*
X48152Y39570D01*
X48157Y39574D01*
X48162Y39579D01*
Y39487D01*
D02*
G37*
G36*
X47377Y39484D02*
X47373Y39488D01*
X47369Y39491D01*
X47365Y39493D01*
X47361Y39493D01*
X47356Y39493D01*
X47352Y39492D01*
X47347Y39491D01*
X47342Y39488D01*
X47338Y39484D01*
X47333Y39480D01*
X47314Y39518D01*
X47371Y39574D01*
X47377Y39484D01*
D02*
G37*
G36*
X47736Y39481D02*
X47733Y39477D01*
X47732Y39472D01*
X47731Y39468D01*
X47731Y39463D01*
X47732Y39459D01*
X47734Y39454D01*
X47736Y39449D01*
X47740Y39444D01*
X47745Y39439D01*
X47707Y39420D01*
X47650Y39476D01*
X47740Y39485D01*
X47736Y39481D01*
D02*
G37*
G36*
X48006Y39473D02*
X48011Y39470D01*
X48016Y39467D01*
X48022Y39465D01*
X48027Y39463D01*
X48033Y39463D01*
X48039Y39463D01*
X48045Y39463D01*
X48052Y39465D01*
X48058Y39467D01*
X48017Y39379D01*
X48014Y39387D01*
X48005Y39408D01*
X48002Y39414D01*
X47995Y39425D01*
X47991Y39430D01*
X47988Y39435D01*
X47984Y39438D01*
X48002Y39478D01*
X48006Y39473D01*
D02*
G37*
G36*
X47628Y39402D02*
X47631Y39387D01*
X47633Y39380D01*
X47636Y39374D01*
X47638Y39368D01*
X47641Y39362D01*
X47645Y39357D01*
X47648Y39352D01*
X47652Y39348D01*
X47628Y39316D01*
X47623Y39320D01*
X47618Y39324D01*
X47613Y39327D01*
X47607Y39329D01*
X47601Y39331D01*
X47595Y39333D01*
X47589Y39334D01*
X47582Y39334D01*
X47575Y39334D01*
X47567Y39333D01*
X47627Y39410D01*
X47628Y39402D01*
D02*
G37*
G36*
X47654Y39065D02*
X47646Y39064D01*
X47632Y39061D01*
X47625Y39060D01*
X47618Y39057D01*
X47612Y39055D01*
X47607Y39052D01*
X47602Y39048D01*
X47597Y39045D01*
X47592Y39041D01*
X47561Y39066D01*
X47566Y39071D01*
X47569Y39076D01*
X47572Y39081D01*
X47575Y39086D01*
X47577Y39092D01*
X47578Y39099D01*
X47579Y39105D01*
X47580Y39112D01*
X47580Y39119D01*
X47579Y39127D01*
X47654Y39065D01*
D02*
G37*
G36*
X47598Y38849D02*
X47593Y38855D01*
X47587Y38860D01*
X47581Y38864D01*
X47575Y38867D01*
X47570Y38871D01*
X47564Y38873D01*
X47558Y38875D01*
X47552Y38877D01*
X47546Y38877D01*
X47540Y38878D01*
Y38918D01*
X47546Y38918D01*
X47552Y38919D01*
X47558Y38920D01*
X47564Y38922D01*
X47570Y38925D01*
X47575Y38928D01*
X47581Y38932D01*
X47587Y38936D01*
X47593Y38941D01*
X47598Y38946D01*
Y38849D01*
D02*
G37*
G36*
X52056Y41444D02*
X52059Y41438D01*
X52062Y41434D01*
X52066Y41429D01*
X52070Y41426D01*
X52075Y41423D01*
X52080Y41421D01*
X52086Y41419D01*
X52092Y41418D01*
X52098Y41418D01*
X52078Y41378D01*
X52073Y41378D01*
X52067Y41377D01*
X52055Y41375D01*
X52049Y41374D01*
X52028Y41368D01*
X52021Y41366D01*
X52013Y41363D01*
X52054Y41450D01*
X52056Y41444D01*
D02*
G37*
G36*
X52691Y41362D02*
X52683Y41365D01*
X52655Y41374D01*
X52649Y41375D01*
X52637Y41377D01*
X52631Y41378D01*
X52626Y41378D01*
X52606Y41418D01*
X52613Y41418D01*
X52619Y41419D01*
X52624Y41421D01*
X52630Y41423D01*
X52634Y41426D01*
X52639Y41429D01*
X52642Y41434D01*
X52646Y41438D01*
X52649Y41444D01*
X52651Y41450D01*
X52691Y41362D01*
D02*
G37*
G36*
X53317Y44332D02*
X53318Y44325D01*
X53319Y44318D01*
X53321Y44311D01*
X53322Y44305D01*
X53325Y44299D01*
X53328Y44293D01*
X53331Y44288D01*
X53334Y44283D01*
X53338Y44278D01*
X53310Y44250D01*
X53306Y44254D01*
X53301Y44258D01*
X53296Y44261D01*
X53290Y44264D01*
X53284Y44266D01*
X53278Y44268D01*
X53271Y44270D01*
X53264Y44271D01*
X53257Y44271D01*
X53249Y44271D01*
X53317Y44340D01*
X53317Y44332D01*
D02*
G37*
G36*
X52915Y39678D02*
X52911Y39674D01*
X52908Y39669D01*
X52904Y39664D01*
X52902Y39658D01*
X52899Y39652D01*
X52897Y39646D01*
X52896Y39639D01*
X52895Y39632D01*
X52894Y39625D01*
X52894Y39617D01*
X52825Y39686D01*
X52833Y39686D01*
X52841Y39686D01*
X52848Y39687D01*
X52854Y39689D01*
X52861Y39691D01*
X52867Y39693D01*
X52872Y39696D01*
X52878Y39699D01*
X52882Y39703D01*
X52887Y39707D01*
X52915Y39678D01*
D02*
G37*
G36*
X50417Y40575D02*
X50412Y40569D01*
X50408Y40564D01*
X50404Y40558D01*
X50401Y40552D01*
X50399Y40546D01*
X50397Y40540D01*
X50395Y40534D01*
X50394Y40528D01*
X50394Y40522D01*
X50354D01*
X50354Y40528D01*
X50353Y40534D01*
X50351Y40540D01*
X50349Y40546D01*
X50347Y40552D01*
X50344Y40558D01*
X50340Y40564D01*
X50336Y40569D01*
X50331Y40575D01*
X50326Y40581D01*
X50423D01*
X50417Y40575D01*
D02*
G37*
G36*
X50316Y39492D02*
X50316Y39486D01*
X50318Y39480D01*
X50320Y39474D01*
X50322Y39468D01*
X50326Y39462D01*
X50329Y39456D01*
X50334Y39451D01*
X50338Y39445D01*
X50344Y39439D01*
X50247D01*
X50252Y39445D01*
X50257Y39451D01*
X50261Y39456D01*
X50265Y39462D01*
X50268Y39468D01*
X50271Y39474D01*
X50273Y39480D01*
X50274Y39486D01*
X50275Y39492D01*
X50275Y39498D01*
X50315D01*
X50316Y39492D01*
D02*
G37*
G36*
X51785Y40073D02*
X51780Y40067D01*
X51776Y40062D01*
X51772Y40056D01*
X51769Y40050D01*
X51767Y40044D01*
X51765Y40038D01*
X51763Y40032D01*
X51762Y40026D01*
X51762Y40020D01*
X51722D01*
X51722Y40026D01*
X51721Y40032D01*
X51720Y40038D01*
X51718Y40044D01*
X51715Y40050D01*
X51712Y40056D01*
X51708Y40062D01*
X51704Y40067D01*
X51699Y40073D01*
X51694Y40079D01*
X51791D01*
X51785Y40073D01*
D02*
G37*
G36*
X51379Y38718D02*
X51384Y38715D01*
X51389Y38711D01*
X51395Y38709D01*
X51401Y38706D01*
X51407Y38704D01*
X51414Y38703D01*
X51421Y38702D01*
X51429Y38701D01*
X51436Y38701D01*
X51368Y38633D01*
X51368Y38640D01*
X51367Y38648D01*
X51366Y38655D01*
X51365Y38662D01*
X51363Y38668D01*
X51360Y38674D01*
X51358Y38680D01*
X51354Y38685D01*
X51351Y38690D01*
X51347Y38694D01*
X51375Y38722D01*
X51379Y38718D01*
D02*
G37*
G54D10*
X36496Y44075D02*
X36695D01*
X36142Y44429D02*
X36496Y44075D01*
X35827Y44429D02*
X36142D01*
X36695Y44075D02*
X36822Y43948D01*
X47116Y43400D02*
Y44707D01*
X46883Y43167D02*
X47116Y43400D01*
X46683Y43167D02*
X46883D01*
X46900Y44923D02*
X47116Y44707D01*
X46646Y43204D02*
X46683Y43167D01*
X46640Y43204D02*
X46646D01*
X46900Y44923D02*
Y45295D01*
X43061Y45305D02*
X43415D01*
X42894Y45473D02*
X43061Y45305D01*
X42165Y45473D02*
X42894D01*
X41860Y45167D02*
X42165Y45473D01*
X43238Y44774D02*
Y45300D01*
Y44774D02*
X43435Y44577D01*
X34597Y45128D02*
X35128D01*
X35827Y44429D01*
X36822Y43630D02*
Y43948D01*
X40226Y45738D02*
X40463D01*
X40463Y45738D01*
X40226Y44835D02*
Y45738D01*
X39941Y44549D02*
X40226Y44835D01*
X39941Y44360D02*
Y44549D01*
G54D11*
X37677Y39380D02*
Y39626D01*
X37667Y39971D02*
Y40197D01*
X37508Y40356D02*
X37667Y40197D01*
X37480Y39183D02*
X37677Y39380D01*
X43661Y45630D02*
X44429Y44862D01*
X41772Y45482D02*
X41919Y45630D01*
X43661D01*
G54D14*
X45955Y44587D02*
X46250Y44882D01*
X36988Y46762D02*
X39478D01*
X36614Y46388D02*
X36988Y46762D01*
X36614Y46112D02*
Y46388D01*
X39478Y46762D02*
X39931Y46309D01*
X36614Y45866D02*
Y46112D01*
X45955Y43627D02*
Y44587D01*
X40588Y39200D02*
X40650Y39138D01*
Y38976D02*
Y39138D01*
X40463Y38789D02*
X40650Y38976D01*
X37874Y38789D02*
X40463D01*
X37480Y39183D02*
X37874Y38789D01*
X45955Y43627D02*
X46116Y43466D01*
X41319Y45541D02*
X41478Y45701D01*
Y45932D01*
X41101Y46309D02*
X41478Y45932D01*
X39931Y46309D02*
X41101D01*
X40640Y44665D02*
Y44980D01*
Y44665D02*
X41604D01*
X41673Y44597D01*
G54D15*
X46247Y43073D02*
X46396Y42924D01*
X46881D01*
X47333Y43376D02*
Y44977D01*
X46881Y42924D02*
X47333Y43376D01*
X46967Y45444D02*
X47076Y45335D01*
Y45233D02*
Y45335D01*
Y45233D02*
X47333Y44977D01*
X45856Y45226D02*
X46308D01*
X46526Y45444D02*
X46967D01*
X46308Y45226D02*
X46526Y45444D01*
G54D16*
X43130Y37549D02*
Y37825D01*
X43435Y38130D01*
X38543Y37638D02*
X38819Y37362D01*
X37086Y37638D02*
X38543D01*
X36929Y37480D02*
X37086Y37638D01*
X43435Y38130D02*
Y38238D01*
G54D17*
X41584Y37106D02*
X42844D01*
X42648Y37874D02*
X42972Y37549D01*
X42470Y37874D02*
X42648D01*
X42008Y38337D02*
X42470Y37874D01*
X42844Y37106D02*
X42972Y37234D01*
X43287D02*
X43386Y37136D01*
X45168D01*
X43456Y37648D02*
X45168D01*
X43358Y37549D02*
X43456Y37648D01*
X43287Y37549D02*
X43358D01*
X39134Y37362D02*
X39400Y37628D01*
X41112D01*
X41939Y38337D02*
X42008D01*
X39134Y37047D02*
X39281Y36900D01*
X40886D01*
X40945Y36841D01*
X36929Y36929D02*
X36988Y36870D01*
X38642D01*
X38819Y37047D01*
G54D18*
X39158Y41783D02*
X39386Y41556D01*
X39011Y41783D02*
X39158D01*
X38906Y41678D02*
X39011Y41783D01*
X46565Y45216D02*
X46565Y45217D01*
X46466Y43924D02*
X46687Y43702D01*
X46466Y43924D02*
Y44956D01*
X46565Y45055D01*
Y45216D01*
X38639Y41983D02*
X38888Y41734D01*
Y41398D02*
Y41734D01*
X38778Y41288D02*
X38888Y41398D01*
X38778Y41287D02*
Y41288D01*
X46687Y43419D02*
X46771Y43335D01*
X46687Y43419D02*
Y43702D01*
X38906Y41419D02*
X38907Y41418D01*
X38906Y41419D02*
Y41678D01*
X39386Y41556D02*
X39607D01*
G54D80*
X50974Y41073D02*
D03*
X50689Y45994D02*
D03*
X45512Y46585D02*
D03*
X52224Y39518D02*
D03*
G54D108*
X52805Y36939D02*
D03*
Y46230D02*
D03*
G54D112*
X43022Y46398D02*
D03*
X42323Y46143D02*
D03*
X48607Y42024D02*
D03*
X48476Y42155D02*
D03*
X51959Y40886D02*
D03*
X39085Y41604D02*
D03*
X38778Y42123D02*
D03*
X38484Y44665D02*
D03*
X48947Y37343D02*
D03*
X51211Y37205D02*
D03*
X51594Y42018D02*
D03*
X51988Y41978D02*
D03*
Y40571D02*
D03*
X52717Y40482D02*
D03*
X51594Y40571D02*
D03*
X51742Y40128D02*
D03*
X51988Y41427D02*
D03*
X52767Y40709D02*
D03*
X52717Y41427D02*
D03*
X47648Y38898D02*
D03*
X47854Y38917D02*
D03*
X47943Y38356D02*
D03*
X51436Y39030D02*
D03*
X51171Y39547D02*
D03*
Y40158D02*
D03*
X48476Y41893D02*
D03*
X48534Y41683D02*
D03*
X48345Y41500D02*
D03*
X48281Y41276D02*
D03*
X48738Y41631D02*
D03*
X48819Y40217D02*
D03*
X48996Y39912D02*
D03*
Y40128D02*
D03*
X48476Y41106D02*
D03*
Y42417D02*
D03*
X48928Y42914D02*
D03*
X48214Y41631D02*
D03*
X47254Y38356D02*
D03*
X51545Y40069D02*
D03*
X50797Y42293D02*
D03*
X50325Y41319D02*
D03*
X49783Y40601D02*
D03*
X49990D02*
D03*
X50374Y40630D02*
D03*
X48544Y37451D02*
D03*
X50148Y37589D02*
D03*
X49793D02*
D03*
Y36880D02*
D03*
Y37234D02*
D03*
X50148D02*
D03*
Y36880D02*
D03*
X50502D02*
D03*
X50148Y36211D02*
D03*
X50165Y38356D02*
D03*
X49236Y40043D02*
D03*
X51437Y38632D02*
D03*
X51478Y38404D02*
D03*
X53691Y42421D02*
D03*
Y41073D02*
D03*
Y41841D02*
D03*
X50502Y37589D02*
D03*
X51437Y38819D02*
D03*
X50502Y37234D02*
D03*
X51973Y40197D02*
D03*
X52707Y43524D02*
D03*
X52687Y43337D02*
D03*
X52450Y43524D02*
D03*
X52933Y44793D02*
D03*
X52631Y44626D02*
D03*
X50453Y44301D02*
D03*
X52450Y44469D02*
D03*
X50807Y43947D02*
D03*
X47392Y36211D02*
D03*
X41624Y38996D02*
D03*
X41562Y40730D02*
D03*
X41358Y40699D02*
D03*
X47953Y43475D02*
D03*
X53691Y42933D02*
D03*
Y43760D02*
D03*
Y44715D02*
D03*
X51093Y38406D02*
D03*
X52992Y38376D02*
D03*
X52313D02*
D03*
X48214Y43204D02*
D03*
X48082Y43073D02*
D03*
X48345Y42548D02*
D03*
X49596Y40601D02*
D03*
X39911Y42579D02*
D03*
X40315Y42845D02*
D03*
X38199Y43318D02*
D03*
X38366Y43150D02*
D03*
X37402Y42913D02*
D03*
X37982Y43180D02*
D03*
X38169Y43140D02*
D03*
X38165Y43711D02*
D03*
X36496Y43701D02*
D03*
X42815Y41426D02*
D03*
X38160Y44538D02*
D03*
X38445Y44173D02*
D03*
X38878Y43849D02*
D03*
X38602Y43839D02*
D03*
X44232Y44675D02*
D03*
X44035Y38760D02*
D03*
X46250Y44882D02*
D03*
X46565Y45217D02*
D03*
X45856Y45226D02*
D03*
X46299Y45812D02*
D03*
X44459Y43238D02*
D03*
X42441Y40679D02*
D03*
X42274Y40502D02*
D03*
X41260Y43731D02*
D03*
X41073Y43730D02*
D03*
X42490Y43711D02*
D03*
X51171Y39838D02*
D03*
X48189Y37923D02*
D03*
X36625Y41238D02*
D03*
X36122Y41142D02*
D03*
X35902Y40935D02*
D03*
X36343D02*
D03*
X36824Y41518D02*
D03*
X37018Y42294D02*
D03*
X36614Y41467D02*
D03*
X35413Y41575D02*
D03*
X35571Y40620D02*
D03*
X43396Y46447D02*
D03*
X43278Y36772D02*
D03*
X44990Y44400D02*
D03*
X43406Y45797D02*
D03*
X43632Y47136D02*
D03*
X43602Y46723D02*
D03*
X43435Y45099D02*
D03*
X43415Y45305D02*
D03*
X46142Y43947D02*
D03*
X43770Y42293D02*
D03*
X35830Y39288D02*
D03*
X40448Y43792D02*
D03*
X40502Y44134D02*
D03*
X40787Y44232D02*
D03*
X41840Y42679D02*
D03*
X41284D02*
D03*
X41673Y43494D02*
D03*
X44222Y41270D02*
D03*
X42175Y38563D02*
D03*
X42874Y37392D02*
D03*
X42530D02*
D03*
X41437Y38829D02*
D03*
X43573Y42303D02*
D03*
X43041Y37392D02*
D03*
X43287Y37717D02*
D03*
X44543Y41893D02*
D03*
X40719Y39616D02*
D03*
X53248Y44538D02*
D03*
X51535Y46457D02*
D03*
X51929Y43878D02*
D03*
X50886Y44803D02*
D03*
X52035Y44360D02*
D03*
X53248Y44341D02*
D03*
X36813Y46034D02*
D03*
X37994D02*
D03*
X37600D02*
D03*
X37207D02*
D03*
X36614Y46112D02*
D03*
Y45866D02*
D03*
X37175Y39203D02*
D03*
X36585Y37786D02*
D03*
X36437Y38396D02*
D03*
X41319Y45866D02*
D03*
X37797Y46034D02*
D03*
X35906Y44813D02*
D03*
X45512Y46152D02*
D03*
X45315Y46951D02*
D03*
X38868Y42746D02*
D03*
X39056Y42679D02*
D03*
X39335D02*
D03*
X39474Y42818D02*
D03*
X39752Y43096D02*
D03*
X43218Y37392D02*
D03*
X46250Y44538D02*
D03*
X45787Y43888D02*
D03*
X51437Y39242D02*
D03*
X45522Y36191D02*
D03*
X39055Y36860D02*
D03*
X37569Y37480D02*
D03*
X38081Y37441D02*
D03*
X37480Y39183D02*
D03*
X44518Y37392D02*
D03*
X48593Y38356D02*
D03*
X40588Y39200D02*
D03*
X40448Y39060D02*
D03*
X50126Y39470D02*
D03*
X51161Y40443D02*
D03*
X41860Y45167D02*
D03*
X35876Y43652D02*
D03*
X35630Y37078D02*
D03*
X53691Y40246D02*
D03*
X44606Y46339D02*
D03*
X49272Y39306D02*
D03*
X52455Y41545D02*
D03*
X52224Y39183D02*
D03*
X45315Y46219D02*
D03*
X45856Y46260D02*
D03*
X45778Y46851D02*
D03*
X50433Y46250D02*
D03*
X50886Y46360D02*
D03*
X49813Y45650D02*
D03*
X49902Y46368D02*
D03*
X48624Y47018D02*
D03*
X50532Y47195D02*
D03*
X50128Y46821D02*
D03*
X47313Y47156D02*
D03*
X50886Y45628D02*
D03*
X51329Y46959D02*
D03*
X50935Y46959D02*
D03*
X46427Y46713D02*
D03*
X47951Y40057D02*
D03*
X48819Y39823D02*
D03*
X47296Y39926D02*
D03*
X47165Y39795D02*
D03*
X48082Y39402D02*
D03*
X48214Y39533D02*
D03*
X53691Y39675D02*
D03*
Y38376D02*
D03*
Y39075D02*
D03*
X52313Y44793D02*
D03*
X50325Y44606D02*
D03*
X50049Y44803D02*
D03*
X48740D02*
D03*
X48425Y44882D02*
D03*
X47677Y44734D02*
D03*
X46509Y43597D02*
D03*
X36722Y44508D02*
D03*
Y44902D02*
D03*
X37116D02*
D03*
Y44508D02*
D03*
X38500Y41565D02*
D03*
X38917Y41147D02*
D03*
X39056Y40730D02*
D03*
X38778Y41287D02*
D03*
X44429Y44852D02*
D03*
X41772Y45482D02*
D03*
X41230Y46604D02*
D03*
X41703Y45847D02*
D03*
X43435Y44577D02*
D03*
X38639Y41983D02*
D03*
X38361Y41704D02*
D03*
X40456Y39338D02*
D03*
X40727Y39338D02*
D03*
X39616Y39895D02*
D03*
X40305Y39481D02*
D03*
X40167Y39619D02*
D03*
X40029Y39757D02*
D03*
X40588Y39756D02*
D03*
X40679Y40039D02*
D03*
X41144Y40034D02*
D03*
X37010Y46034D02*
D03*
X36821Y45482D02*
D03*
X36604D02*
D03*
X37037D02*
D03*
X36565Y39085D02*
D03*
X49636Y42569D02*
D03*
X40448Y41843D02*
D03*
X39752Y41426D02*
D03*
X40170Y41565D02*
D03*
X40309Y41147D02*
D03*
X40448Y41287D02*
D03*
X40727Y41565D02*
D03*
X42676D02*
D03*
X45854Y39795D02*
D03*
X46247Y39926D02*
D03*
Y43335D02*
D03*
X45854Y43466D02*
D03*
X45592Y43204D02*
D03*
X45067Y41893D02*
D03*
X44805Y40320D02*
D03*
X41683Y46723D02*
D03*
X36949Y46379D02*
D03*
X36909Y47106D02*
D03*
X35935Y46447D02*
D03*
Y47038D02*
D03*
Y46762D02*
D03*
X34596Y45758D02*
D03*
X34321Y45758D02*
D03*
X34911D02*
D03*
X34596Y37254D02*
D03*
X34321Y37254D02*
D03*
X34911D02*
D03*
X34596Y38829D02*
D03*
X34321Y38829D02*
D03*
X34911D02*
D03*
X34596Y39774D02*
D03*
X34321Y39774D02*
D03*
X34911D02*
D03*
X34596Y41033D02*
D03*
X34321Y41034D02*
D03*
X34911D02*
D03*
Y42293D02*
D03*
X34321D02*
D03*
X34596Y42293D02*
D03*
X39607Y41556D02*
D03*
X41683Y46447D02*
D03*
X44675Y47136D02*
D03*
X41144Y41426D02*
D03*
X41144Y41704D02*
D03*
X40031D02*
D03*
X40170Y41008D02*
D03*
X39833Y40896D02*
D03*
X46378Y40099D02*
D03*
X44774Y44675D02*
D03*
X37569Y46536D02*
D03*
X44675Y46723D02*
D03*
X45581Y44557D02*
D03*
X40588Y41148D02*
D03*
X39892Y39895D02*
D03*
X39613Y40452D02*
D03*
X40309Y41983D02*
D03*
X39752Y41705D02*
D03*
X39892Y41566D02*
D03*
X40170Y41844D02*
D03*
X41284Y41566D02*
D03*
X48607Y42811D02*
D03*
X44936Y40713D02*
D03*
X44805Y40582D02*
D03*
X45329Y43204D02*
D03*
X45198Y43073D02*
D03*
X44936Y42286D02*
D03*
Y43073D02*
D03*
X44805Y42155D02*
D03*
X44936Y42811D02*
D03*
X44805Y42679D02*
D03*
X39197Y40592D02*
D03*
X39537Y40738D02*
D03*
X38917Y40869D02*
D03*
X45985Y39664D02*
D03*
X45592Y39533D02*
D03*
X34596Y44813D02*
D03*
Y45128D02*
D03*
X36634Y43898D02*
D03*
X37648Y43906D02*
D03*
X45994Y47156D02*
D03*
X39400Y41919D02*
D03*
X36358Y45532D02*
D03*
X36822Y43630D02*
D03*
X39613Y40173D02*
D03*
X37215Y39606D02*
D03*
X36585Y37313D02*
D03*
X36555Y39784D02*
D03*
X35354Y39400D02*
D03*
X47689Y39533D02*
D03*
X47558Y39402D02*
D03*
X47296Y39664D02*
D03*
X47427Y39533D02*
D03*
X47480Y38760D02*
D03*
X45659Y38573D02*
D03*
X44921Y38967D02*
D03*
X47689Y40057D02*
D03*
X47648Y39134D02*
D03*
X47726Y46910D02*
D03*
X47346Y45650D02*
D03*
X47343Y45965D02*
D03*
X47234Y45354D02*
D03*
X51388Y45404D02*
D03*
X50433Y45748D02*
D03*
X38221Y41565D02*
D03*
X48573Y36211D02*
D03*
X38639Y41704D02*
D03*
Y42262D02*
D03*
X38500Y41008D02*
D03*
X38199Y41063D02*
D03*
X38639Y41147D02*
D03*
X38500Y41287D02*
D03*
X36447Y37667D02*
D03*
Y37431D02*
D03*
X37264Y40227D02*
D03*
X37943Y41565D02*
D03*
X38014Y41248D02*
D03*
X36550Y40355D02*
D03*
X52224Y38858D02*
D03*
X52825Y39616D02*
D03*
X50295Y39390D02*
D03*
X49587Y46171D02*
D03*
X48858D02*
D03*
X52982Y39144D02*
D03*
X52677Y38858D02*
D03*
X50177Y40601D02*
D03*
X52982Y39488D02*
D03*
X48346Y39390D02*
D03*
X46752Y46713D02*
D03*
X37508Y40356D02*
D03*
X46771Y43335D02*
D03*
X46640Y43204D02*
D03*
X46116Y43466D02*
D03*
X46247Y43597D02*
D03*
Y43073D02*
D03*
X46014Y38573D02*
D03*
X46683D02*
D03*
X46900Y45295D02*
D03*
X35689Y42579D02*
D03*
X36348Y43228D02*
D03*
X48573Y36604D02*
D03*
X38376Y37205D02*
D03*
X39577D02*
D03*
X43730Y37392D02*
D03*
X35620Y38012D02*
D03*
X35620Y38338D02*
D03*
X36585Y42294D02*
D03*
X38701Y37205D02*
D03*
X39232D02*
D03*
X36929Y37480D02*
D03*
X43386Y37392D02*
D03*
X43209Y37067D02*
D03*
X36929Y36929D02*
D03*
X45168Y37136D02*
D03*
Y37648D02*
D03*
X43435Y38238D02*
D03*
X51860Y38081D02*
D03*
X46693Y36782D02*
D03*
X42894Y38465D02*
D03*
X46693Y37175D02*
D03*
X43760Y38760D02*
D03*
X46693Y37569D02*
D03*
X47480Y37175D02*
D03*
Y36782D02*
D03*
X43287Y38494D02*
D03*
X35216Y41663D02*
D03*
X41683Y47136D02*
D03*
X51427Y44803D02*
D03*
X38778Y40730D02*
D03*
X38819Y40463D02*
D03*
X39055Y40167D02*
D03*
X39335Y40452D02*
D03*
X35669Y39587D02*
D03*
X35630Y39272D02*
D03*
X39196Y42539D02*
D03*
X39056Y42400D02*
D03*
X41981Y40868D02*
D03*
X35591Y41919D02*
D03*
X38297Y44665D02*
D03*
X40640Y44980D02*
D03*
Y44665D02*
D03*
X40463Y45738D02*
D03*
X40226Y45738D02*
D03*
X37404Y46034D02*
D03*
X49636Y42303D02*
D03*
X49321Y43908D02*
D03*
X51496Y44262D02*
D03*
X51161D02*
D03*
X44833Y43671D02*
D03*
X41005Y40173D02*
D03*
X44805Y41106D02*
D03*
X42579Y45295D02*
D03*
X44674Y40713D02*
D03*
X40309Y43653D02*
D03*
X44085Y43908D02*
D03*
X41423Y42539D02*
D03*
X42067Y44597D02*
D03*
X41673Y44597D02*
D03*
X43681Y43908D02*
D03*
X40727Y42122D02*
D03*
X40588Y41983D02*
D03*
X44182Y42393D02*
D03*
X44035Y42549D02*
D03*
X44805Y42942D02*
D03*
X39892Y43238D02*
D03*
X40448Y43514D02*
D03*
X41284Y40173D02*
D03*
X41575Y39764D02*
D03*
X41752Y39892D02*
D03*
X47087Y36782D02*
D03*
X41980Y41148D02*
D03*
Y42539D02*
D03*
X40591Y43101D02*
D03*
X39752Y40034D02*
D03*
Y40312D02*
D03*
X40448Y41009D02*
D03*
X41842Y40729D02*
D03*
X41701Y40591D02*
D03*
X41152Y40571D02*
D03*
X41144Y39756D02*
D03*
X41005Y39895D02*
D03*
X40689Y40384D02*
D03*
X40286Y40374D02*
D03*
X42536Y41147D02*
D03*
X44412Y40451D02*
D03*
X44321Y40886D02*
D03*
X44006Y40571D02*
D03*
X44213Y40404D02*
D03*
G54D114*
X47747Y40866D02*
D03*
X35374Y41929D02*
D03*
X39872Y37205D02*
D03*
X42224Y37402D02*
D03*
X44035D02*
D03*
X35384Y45384D02*
D03*
Y45975D02*
D03*
X40502Y36663D02*
D03*
X37421Y36476D02*
D03*
X36378D02*
D03*
X40945Y36841D02*
D03*
X40955Y36467D02*
D03*
X39134Y36545D02*
D03*
X38583Y36221D02*
D03*
X37963Y37106D02*
D03*
X37559D02*
D03*
X41584Y37106D02*
D03*
X41112Y37628D02*
D03*
X41939Y38337D02*
D03*
X47756Y42746D02*
D03*
Y42274D02*
D03*
Y41801D02*
D03*
Y41329D02*
D03*
Y40384D02*
D03*
X47520Y40620D02*
D03*
Y41093D02*
D03*
Y41565D02*
D03*
Y42038D02*
D03*
Y42510D02*
D03*
X47283Y42746D02*
D03*
Y42274D02*
D03*
Y41801D02*
D03*
Y41329D02*
D03*
Y40856D02*
D03*
Y40384D02*
D03*
X47047Y40620D02*
D03*
Y41093D02*
D03*
Y41565D02*
D03*
Y42038D02*
D03*
Y42510D02*
D03*
X46102D02*
D03*
Y42038D02*
D03*
Y41565D02*
D03*
Y41093D02*
D03*
Y40620D02*
D03*
X46339Y40384D02*
D03*
Y40856D02*
D03*
Y41329D02*
D03*
Y41801D02*
D03*
Y42274D02*
D03*
Y42746D02*
D03*
X46575Y42510D02*
D03*
Y42038D02*
D03*
Y41565D02*
D03*
Y41093D02*
D03*
Y40620D02*
D03*
X46811Y40384D02*
D03*
Y40856D02*
D03*
Y41329D02*
D03*
Y41801D02*
D03*
Y42274D02*
D03*
Y42746D02*
D03*
X45394Y40384D02*
D03*
Y40856D02*
D03*
Y41329D02*
D03*
Y41801D02*
D03*
X45630Y42510D02*
D03*
Y42038D02*
D03*
Y41565D02*
D03*
Y41093D02*
D03*
Y40620D02*
D03*
X45866Y40384D02*
D03*
Y40856D02*
D03*
Y41329D02*
D03*
Y41801D02*
D03*
Y42274D02*
D03*
Y42746D02*
D03*
X35374Y42343D02*
D03*
X41319Y45541D02*
D03*
X45394Y42746D02*
D03*
Y42274D02*
D03*
X39941Y44360D02*
D03*
X40344Y46860D02*
D03*
G54D121*
X40945Y36476D02*
Y36841D01*
Y36476D02*
X40955Y36467D01*
G54D123*
X49724Y40231D02*
G03*
X49947Y40454I0J223D01*
G01*
Y39823D02*
G03*
X49724Y40046I-223J0D01*
G01*
X49670Y40231D02*
G03*
X49670Y40046I0J-93D01*
G01*
X49444Y39334D02*
G03*
X49101Y39334I-172J0D01*
G01*
X49444Y39315D02*
G03*
X49647Y39112I203J0D01*
G01*
X48879D02*
G03*
X49101Y39334I0J222D01*
G01*
X49724Y40361D02*
G03*
X49817Y40454I0J93D01*
G01*
Y39823D02*
G03*
X49724Y39916I-93J0D01*
G01*
X49670Y40361D02*
G03*
X49670Y39916I0J-223D01*
G01*
X49574Y39334D02*
G03*
X48971Y39334I-302J0D01*
G01*
X49574Y39315D02*
G03*
X49647Y39242I73J0D01*
G01*
X48879D02*
G03*
X48971Y39334I0J92D01*
G01*
X43711Y41174D02*
G03*
X43724Y41161I13J0D01*
G01*
X43711Y41174D02*
G03*
X43651Y41234I-60J0D01*
G01*
D02*
G03*
X43591Y41174I0J-60D01*
G01*
X43579Y41161D02*
G03*
X43591Y41174I0J13D01*
G01*
X43471Y41221D02*
G03*
X43531Y41161I60J0D01*
G01*
X43471Y41338D02*
G03*
X43411Y41398I-60J0D01*
G01*
D02*
G03*
X43351Y41338I0J-60D01*
G01*
X43291Y41161D02*
G03*
X43351Y41221I0J60D01*
G01*
X43231D02*
G03*
X43291Y41161I60J0D01*
G01*
X43231Y41338D02*
G03*
X43171Y41398I-60J0D01*
G01*
D02*
G03*
X43111Y41338I0J-60D01*
G01*
X43051Y41161D02*
G03*
X43111Y41221I0J60D01*
G01*
X42490Y40996D02*
G03*
X42575Y40996I42J42D01*
G01*
X42447Y41039D02*
G03*
X42362Y41039I-42J-42D01*
G01*
D02*
G03*
X42362Y40954I42J-42D01*
G01*
X42405Y40826D02*
G03*
X42405Y40911I-42J42D01*
G01*
X42091Y40597D02*
G03*
X42176Y40597I42J42D01*
G01*
X42034Y40655D02*
G03*
X41949Y40655I-42J-42D01*
G01*
D02*
G03*
X41949Y40570I42J-42D01*
G01*
X42006Y40427D02*
G03*
X42006Y40512I-42J42D01*
G01*
X42830Y42424D02*
G03*
X42773Y42480I-57J0D01*
G01*
X42830Y42424D02*
G03*
X42890Y42364I60J0D01*
G01*
D02*
G03*
X42950Y42424I0J60D01*
G01*
X43006Y42480D02*
G03*
X42950Y42424I0J-57D01*
G01*
X42370Y42715D02*
G03*
X42285Y42715I-42J-42D01*
G01*
X42168Y42682D02*
G03*
X42253Y42682I42J42D01*
G01*
X42168Y42767D02*
G03*
X42168Y42682I42J-42D01*
G01*
X42280Y42879D02*
G03*
X42280Y42964I-42J42D01*
G01*
D02*
G03*
X42195Y42964I-42J-42D01*
G01*
X41998Y42852D02*
G03*
X42083Y42852I42J42D01*
G01*
X41998Y42937D02*
G03*
X41998Y42852I42J-42D01*
G01*
X42110Y43049D02*
G03*
X42110Y43134I-42J42D01*
G01*
D02*
G03*
X42025Y43134I-42J-42D01*
G01*
X41951Y43134D02*
G03*
X42025Y43134I37J37D01*
G01*
X43814Y42594D02*
G03*
X43729Y42594I-42J-42D01*
G01*
X43644Y42594D02*
G03*
X43729Y42594I42J42D01*
G01*
X43644Y42679D02*
G03*
X43644Y42594I42J-42D01*
G01*
X43729Y42763D02*
G03*
X43729Y42848I-42J42D01*
G01*
D02*
G03*
X43644Y42848I-42J-42D01*
G01*
X43559Y42848D02*
G03*
X43644Y42848I42J42D01*
G01*
X43412Y42933D02*
G03*
X43352Y42873I0J-60D01*
G01*
X43292Y42813D02*
G03*
X43352Y42873I0J60D01*
G01*
X43232D02*
G03*
X43292Y42813I60J0D01*
G01*
X43232Y42980D02*
G03*
X43172Y43040I-60J0D01*
G01*
D02*
G03*
X43112Y42980I0J-60D01*
G01*
X43052Y42813D02*
G03*
X43112Y42873I0J60D01*
G01*
X42992D02*
G03*
X43052Y42813I60J0D01*
G01*
X42992Y42980D02*
G03*
X42932Y43040I-60J0D01*
G01*
D02*
G03*
X42872Y42980I0J-60D01*
G01*
X42812Y42813D02*
G03*
X42872Y42873I0J60D01*
G01*
X42752D02*
G03*
X42812Y42813I60J0D01*
G01*
X42752Y42980D02*
G03*
X42692Y43040I-60J0D01*
G01*
D02*
G03*
X42632Y42980I0J-60D01*
G01*
X42585Y42933D02*
G03*
X42632Y42980I0J47D01*
G01*
X43839Y41558D02*
G03*
X43899Y41498I60J0D01*
G01*
X43839Y41733D02*
G03*
X43779Y41793I-60J0D01*
G01*
D02*
G03*
X43719Y41733I0J-60D01*
G01*
X43659Y41498D02*
G03*
X43719Y41558I0J60D01*
G01*
X43599D02*
G03*
X43659Y41498I60J0D01*
G01*
X43599Y41733D02*
G03*
X43539Y41793I-60J0D01*
G01*
D02*
G03*
X43479Y41733I0J-60D01*
G01*
X43419Y41498D02*
G03*
X43479Y41558I0J60D01*
G01*
X43359D02*
G03*
X43419Y41498I60J0D01*
G01*
X43359Y41733D02*
G03*
X43299Y41793I-60J0D01*
G01*
D02*
G03*
X43239Y41733I0J-60D01*
G01*
X43179Y41498D02*
G03*
X43239Y41558I0J60D01*
G01*
X43930Y40050D02*
G03*
X43860Y40050I-35J-35D01*
G01*
X43930D02*
G03*
X44001Y40050I35J35D01*
G01*
D02*
G03*
X44001Y40121I-35J35D01*
G01*
X43966Y40206D02*
G03*
X43966Y40156I25J-25D01*
G01*
X44036Y40227D02*
G03*
X43987Y40227I-25J-25D01*
G01*
X44072Y40192D02*
G03*
X44142Y40192I35J35D01*
G01*
D02*
G03*
X44142Y40262I-35J35D01*
G01*
Y40333D02*
G03*
X44142Y40262I35J-35D01*
G01*
X42280Y41148D02*
G03*
X42230Y41098I0J-50D01*
G01*
X42180Y40788D02*
G03*
X42230Y40838I0J50D01*
G01*
X42130D02*
G03*
X42180Y40788I50J0D01*
G01*
X42130Y41098D02*
G03*
X42080Y41148I-50J0D01*
G01*
X43004Y39930D02*
G03*
X42934Y39860I0J-70D01*
G01*
X42864Y39726D02*
G03*
X42934Y39796I0J70D01*
G01*
X42794D02*
G03*
X42864Y39726I70J0D01*
G01*
X42794Y39860D02*
G03*
X42724Y39930I-70J0D01*
G01*
D02*
G03*
X42654Y39860I0J-70D01*
G01*
X42584Y39726D02*
G03*
X42654Y39796I0J70D01*
G01*
X42514D02*
G03*
X42584Y39726I70J0D01*
G01*
X42514Y39860D02*
G03*
X42444Y39930I-70J0D01*
G01*
X43691Y39716D02*
G03*
X43781Y39626I90J0D01*
G01*
X43691Y39740D02*
G03*
X43601Y39830I-90J0D01*
G01*
D02*
G03*
X43511Y39740I0J-90D01*
G01*
X43421Y39626D02*
G03*
X43511Y39716I0J90D01*
G01*
X43331D02*
G03*
X43421Y39626I90J0D01*
G01*
X43331Y39740D02*
G03*
X43241Y39830I-90J0D01*
G01*
D02*
G03*
X43151Y39740I0J-90D01*
G01*
X43061Y39626D02*
G03*
X43151Y39716I0J90D01*
G01*
X44130Y39645D02*
G03*
X44130Y39707I-31J31D01*
G01*
X44130Y39806D02*
G03*
X44130Y39707I49J-49D01*
G01*
X44229Y39806D02*
G03*
X44130Y39806I-49J-49D01*
G01*
X44347Y39688D02*
G03*
X44446Y39688I49J49D01*
G01*
D02*
G03*
X44446Y39787I-49J49D01*
G01*
X44328Y40004D02*
G03*
X44328Y39905I49J-49D01*
G01*
X44427Y40004D02*
G03*
X44328Y40004I-49J-49D01*
G01*
X44561Y39871D02*
G03*
X44660Y39871I49J49D01*
G01*
D02*
G03*
X44660Y39970I-49J49D01*
G01*
X44518Y40210D02*
G03*
X44518Y40111I49J-49D01*
G01*
X44617Y40210D02*
G03*
X44518Y40210I-49J-49D01*
G01*
X44617D02*
G03*
X44696Y40210I39J39D01*
G01*
X43504Y40112D02*
G03*
X43546Y40069I43J0D01*
G01*
X43504Y40112D02*
G03*
X43454Y40162I-50J0D01*
G01*
D02*
G03*
X43404Y40112I0J-50D01*
G01*
X43365Y40030D02*
G03*
X43404Y40069I0J39D01*
G01*
X43304D02*
G03*
X43343Y40030I39J0D01*
G01*
X43304Y40112D02*
G03*
X43254Y40162I-50J0D01*
G01*
D02*
G03*
X43204Y40112I0J-50D01*
G01*
X43165Y40030D02*
G03*
X43204Y40069I0J39D01*
G01*
X43104D02*
G03*
X43143Y40030I39J0D01*
G01*
X43104Y40112D02*
G03*
X43054Y40162I-50J0D01*
G01*
D02*
G03*
X43004Y40112I0J-50D01*
G01*
X42965Y40030D02*
G03*
X43004Y40069I0J39D01*
G01*
X42904D02*
G03*
X42943Y40030I39J0D01*
G01*
X42904Y40095D02*
G03*
X42854Y40145I-50J0D01*
G01*
D02*
G03*
X42804Y40095I0J-50D01*
G01*
X42765Y40030D02*
G03*
X42804Y40069I0J39D01*
G01*
X42704D02*
G03*
X42743Y40030I39J0D01*
G01*
X42704Y40095D02*
G03*
X42654Y40145I-50J0D01*
G01*
D02*
G03*
X42604Y40095I0J-50D01*
G01*
X42565Y40030D02*
G03*
X42604Y40069I0J39D01*
G01*
X42504D02*
G03*
X42543Y40030I39J0D01*
G01*
X43484Y40295D02*
G03*
X43534Y40245I50J0D01*
G01*
X43484Y40570D02*
G03*
X43434Y40620I-50J0D01*
G01*
D02*
G03*
X43384Y40570I0J-50D01*
G01*
X43334Y40245D02*
G03*
X43384Y40295I0J50D01*
G01*
X43284D02*
G03*
X43334Y40245I50J0D01*
G01*
X43284Y40570D02*
G03*
X43234Y40620I-50J0D01*
G01*
D02*
G03*
X43184Y40570I0J-50D01*
G01*
X43134Y40245D02*
G03*
X43184Y40295I0J50D01*
G01*
X43084D02*
G03*
X43134Y40245I50J0D01*
G01*
X43084Y40570D02*
G03*
X43034Y40620I-50J0D01*
G01*
D02*
G03*
X42984Y40570I0J-50D01*
G01*
X42934Y40245D02*
G03*
X42984Y40295I0J50D01*
G01*
X43747Y40885D02*
G03*
X43797Y40835I50J0D01*
G01*
X43747Y41003D02*
G03*
X43697Y41053I-50J0D01*
G01*
D02*
G03*
X43647Y41003I0J-50D01*
G01*
X43597Y40731D02*
G03*
X43647Y40781I0J50D01*
G01*
X43547D02*
G03*
X43597Y40731I50J0D01*
G01*
X43547Y41003D02*
G03*
X43497Y41053I-50J0D01*
G01*
D02*
G03*
X43447Y41003I0J-50D01*
G01*
X43397Y40731D02*
G03*
X43447Y40781I0J50D01*
G01*
X43347D02*
G03*
X43397Y40731I50J0D01*
G01*
X43347Y41003D02*
G03*
X43297Y41053I-50J0D01*
G01*
D02*
G03*
X43247Y41003I0J-50D01*
G01*
X43197Y40731D02*
G03*
X43247Y40781I0J50D01*
G01*
X43147D02*
G03*
X43197Y40731I50J0D01*
G01*
X43147Y41003D02*
G03*
X43097Y41053I-50J0D01*
G01*
D02*
G03*
X43047Y41003I0J-50D01*
G01*
X42997Y40731D02*
G03*
X43047Y40781I0J50D01*
G01*
X42947D02*
G03*
X42997Y40731I50J0D01*
G01*
X42947Y40785D02*
G03*
X42897Y40835I-50J0D01*
G01*
D02*
G03*
X42847Y40785I0J-50D01*
G01*
X42797Y40731D02*
G03*
X42847Y40781I0J50D01*
G01*
X42747D02*
G03*
X42797Y40731I50J0D01*
G01*
X42747Y40785D02*
G03*
X42697Y40835I-50J0D01*
G01*
X52423Y44496D02*
X52450Y44469D01*
X51041Y44496D02*
X52423D01*
X50543Y43998D02*
X51041Y44496D01*
X50413Y44052D02*
X50987Y44626D01*
X50543Y43499D02*
Y43998D01*
X49339Y43384D02*
X50428D01*
X50543Y43499D01*
X50413Y43553D02*
Y44052D01*
X50374Y43514D02*
X50413Y43553D01*
X49285Y43514D02*
X50374D01*
X49171Y42549D02*
Y43400D01*
X49285Y43514D01*
X49301Y43347D02*
X49339Y43384D01*
X49301Y42495D02*
Y43347D01*
X52539Y44626D02*
X52539Y44626D01*
X50987Y44626D02*
X52539D01*
X52539Y44626D02*
X52631D01*
X51100Y42686D02*
Y43575D01*
X50100Y42476D02*
X50891D01*
X51100Y42686D01*
X50970Y42739D02*
Y43629D01*
X50837Y42606D02*
X50970Y42739D01*
X50046Y42606D02*
X50837D01*
X50032Y42409D02*
X50100Y42476D01*
X49902Y42463D02*
X50046Y42606D01*
X51064Y43723D02*
X52021D01*
X50970Y43629D02*
X51064Y43723D01*
X51118Y43593D02*
X51967D01*
X51100Y43575D02*
X51118Y43593D01*
X49770Y42138D02*
X49902Y42271D01*
Y42463D01*
X49675Y42138D02*
X49770D01*
X50032Y42205D02*
Y42409D01*
X49836Y42008D02*
X50032Y42205D01*
X52021Y43723D02*
X52309Y43435D01*
X51967Y43593D02*
X52255Y43305D01*
X52361Y43435D02*
X52450Y43524D01*
X52309Y43435D02*
X52361D01*
X52514Y43374D02*
X52664Y43524D01*
X52484Y43374D02*
X52514D01*
X52415Y43305D02*
X52484Y43374D01*
X52255Y43305D02*
X52415D01*
X49139Y41683D02*
X49220D01*
X49031Y41791D02*
X49139Y41683D01*
X49220D02*
X49675Y42138D01*
X49011Y41467D02*
X49098Y41553D01*
X49274D01*
X49729Y42008D01*
X48642Y41791D02*
X49031D01*
X49729Y42008D02*
X49836D01*
X51975Y41978D02*
X51990Y41994D01*
X51279Y40579D02*
X51550Y40850D01*
X50571Y40935D02*
X50927Y40579D01*
X51279D01*
X51225Y40709D02*
X51497Y40980D01*
X50981Y40709D02*
X51225D01*
X50625Y41065D02*
X50981Y40709D01*
X51664Y40980D02*
X51856Y40788D01*
X51497Y40980D02*
X51664D01*
X51611Y40850D02*
X51726Y40734D01*
X51550Y40850D02*
X51611D01*
X48924Y40525D02*
X49374Y40976D01*
X48870Y40655D02*
X49320Y41106D01*
X49748D01*
X48294Y40843D02*
X48438D01*
X48187Y40950D02*
Y41117D01*
Y40950D02*
X48294Y40843D01*
X48348Y40973D02*
X48492D01*
X48317Y41004D02*
X48348Y40973D01*
X48317Y41004D02*
Y41063D01*
X48187Y41117D02*
X48275Y41205D01*
X48317Y41063D02*
X48354Y41100D01*
X48275Y41205D02*
Y41270D01*
X48354Y41100D02*
X48470D01*
X51856Y40594D02*
Y40788D01*
X51726Y40613D02*
Y40734D01*
X48438Y40843D02*
X48756Y40525D01*
X48924D01*
X48810Y40655D02*
X48870D01*
X48492Y40973D02*
X48810Y40655D01*
X48499Y41240D02*
X49657D01*
X48553Y41370D02*
X49603D01*
X48478Y41446D02*
X48553Y41370D01*
X48699Y41893D02*
X49301Y42495D01*
X48476Y41893D02*
X48699D01*
X48607Y42024D02*
X48646D01*
X36902Y38357D02*
Y40258D01*
Y38357D02*
X36913Y38346D01*
Y38131D02*
Y38346D01*
X36902Y38120D02*
X36913Y38131D01*
X36902Y37698D02*
Y38120D01*
X36772Y38303D02*
Y40204D01*
Y38303D02*
X36783Y38292D01*
Y38185D02*
Y38292D01*
X36772Y38174D02*
X36783Y38185D01*
X36772Y37752D02*
Y38174D01*
X51594Y41819D02*
X51622Y41791D01*
X51594Y41819D02*
Y41978D01*
X51622Y41791D02*
X51811D01*
X51845Y41826D02*
Y42032D01*
X51811Y41791D02*
X51845Y41826D01*
X51860Y42047D02*
Y42146D01*
X51845Y42032D02*
X51860Y42047D01*
X51975Y41978D02*
X51988D01*
X51990Y41994D02*
Y42200D01*
X50808Y41412D02*
X51601Y42205D01*
X50558Y41412D02*
X50808D01*
X51601Y42205D02*
X51801D01*
X50754Y41542D02*
X51547Y42335D01*
X50612Y41542D02*
X50754D01*
X51547Y42335D02*
X51855D01*
X51990Y42200D01*
X51801Y42205D02*
X51860Y42146D01*
X52017Y41398D02*
X52688D01*
X51988Y41427D02*
X52017Y41398D01*
X52688D02*
X52717Y41427D01*
X38480Y44665D02*
X38484D01*
X52082Y40482D02*
X52717D01*
X51988Y40571D02*
X51994D01*
X52082Y40482D01*
X52723D02*
X52726Y40486D01*
X52717Y40482D02*
X52723D01*
X49811Y41578D02*
X50576D01*
X49603Y41370D02*
X49811Y41578D01*
X49865Y41448D02*
X50522D01*
X49657Y41240D02*
X49865Y41448D01*
X50576Y41578D02*
X50612Y41542D01*
X50522Y41448D02*
X50558Y41412D01*
X49788Y41065D02*
X50625D01*
X49748Y41106D02*
X49788Y41065D01*
X49734Y40935D02*
X50571D01*
X49694Y40976D02*
X49734Y40935D01*
X51594Y40571D02*
X51613Y40590D01*
X51703D01*
X51726Y40613D01*
X51880Y40571D02*
X51988D01*
X51856Y40594D02*
X51880Y40571D01*
X51742Y39843D02*
Y40128D01*
Y40129D01*
X48534Y41683D02*
X48642Y41791D01*
X48875Y41467D02*
X49011D01*
X48646Y42024D02*
X49171Y42549D01*
X48738Y41604D02*
X48875Y41467D01*
X49374Y40976D02*
X49694D01*
X47336Y38898D02*
X47648D01*
X47917Y39055D02*
X48791D01*
X47564Y39408D02*
X47917Y39055D01*
X48740Y39183D02*
X48799Y39242D01*
X47972Y39183D02*
X48740D01*
X51279Y39379D02*
X51742Y39843D01*
X51279Y38790D02*
Y39379D01*
Y38790D02*
X51437Y38632D01*
X48478Y41446D02*
Y41550D01*
X48397Y41631D02*
X48478Y41550D01*
X48214Y41631D02*
X48397D01*
X48345Y41500D02*
X48348Y41497D01*
X48275Y41270D02*
X48281Y41276D01*
X48738Y41604D02*
Y41631D01*
X48164Y40087D02*
X48946D01*
X48218Y39957D02*
X48950D01*
X48946Y40087D02*
X48996Y40137D01*
X48348Y41392D02*
X48499Y41240D01*
X48470Y41100D02*
X48476Y41106D01*
X48348Y41392D02*
Y41497D01*
X53248Y44341D02*
X53377Y44211D01*
Y40169D02*
Y44211D01*
X52825Y39616D02*
X53377Y40169D01*
X49947Y39301D02*
Y39823D01*
X49670Y40231D02*
X49724D01*
X49670Y40046D02*
X49724D01*
X49444Y39315D02*
Y39334D01*
X49647Y39112D02*
X49759D01*
X48848D02*
X48879D01*
X49817Y39354D02*
Y39823D01*
X49670Y40361D02*
X49724D01*
X49670Y39916D02*
X49724D01*
X49574Y39315D02*
Y39334D01*
X49647Y39242D02*
X49705D01*
X48799D02*
X48879D01*
X50374Y40049D02*
Y40630D01*
X50295Y39971D02*
X50374Y40049D01*
X50295Y39390D02*
Y39971D01*
X49783Y40601D02*
X49817Y40567D01*
Y40454D02*
Y40567D01*
X49947Y40454D02*
Y40557D01*
X49990Y40601D01*
X52664Y43524D02*
X52707D01*
X42560Y38857D02*
X42918D01*
X42193Y39224D02*
X42560Y38857D01*
X42061Y39224D02*
X42193D01*
X42509Y38760D02*
X43760D01*
X42125Y39144D02*
X42509Y38760D01*
X42028Y39144D02*
X42125D01*
X41446Y39175D02*
X41624Y38996D01*
X41259Y39175D02*
X41446D01*
X42274Y40369D02*
X42398Y40245D01*
X42274Y40369D02*
Y40502D01*
X42398Y40245D02*
X42934D01*
X42309Y42251D02*
X42667Y41893D01*
X44543D01*
X41668Y41236D02*
X41823Y41081D01*
X41167Y41236D02*
X41668D01*
X41694Y40972D02*
Y41067D01*
X41619Y41143D02*
X41694Y41067D01*
X41214Y41143D02*
X41619D01*
X41483Y40859D02*
X41616D01*
X41339Y41004D02*
X41483Y40859D01*
X41562Y40547D02*
Y40730D01*
X41102Y40797D02*
Y40892D01*
X40689Y40384D02*
X41102Y40797D01*
X40718Y40807D02*
Y40935D01*
X40996Y40925D02*
X41214Y41143D01*
X40996Y40809D02*
Y40925D01*
X40787Y40601D02*
X40996Y40809D01*
X40945Y41014D02*
X41167Y41236D01*
X40797Y41014D02*
X40945D01*
X40718Y40935D02*
X40797Y41014D01*
X41358Y40609D02*
Y40699D01*
X41215Y41004D02*
X41339D01*
X41102Y40892D02*
X41215Y41004D01*
X41694Y40972D02*
X41841Y40825D01*
X48214Y43204D02*
X48287Y43278D01*
X41261Y41899D02*
X41858D01*
X40315Y42845D02*
X41261Y41899D01*
X48996Y40128D02*
Y40137D01*
X41858Y41899D02*
X42331Y41426D01*
X41204Y42097D02*
X41541D01*
X40453Y42848D02*
X41204Y42097D01*
X40453Y42848D02*
Y43509D01*
X35384Y42303D02*
Y42431D01*
X37399Y43138D02*
X38098Y42439D01*
X38742D02*
X38781Y42400D01*
X38098Y42439D02*
X38742D01*
X38796Y42569D02*
X38826Y42539D01*
X38152Y42569D02*
X38796D01*
X37453Y43268D02*
X38152Y42569D01*
X38022Y43496D02*
X38199Y43318D01*
X37982Y43180D02*
Y43367D01*
X37921Y43428D02*
X37982Y43367D01*
X37921Y43428D02*
Y43815D01*
X38022Y43496D02*
Y43860D01*
X37649Y44232D02*
X38022Y43860D01*
X37603Y44134D02*
X37921Y43815D01*
X37209Y44232D02*
X37649D01*
X36590Y41457D02*
X36624D01*
X37835Y41257D02*
Y41349D01*
X37700Y41122D02*
X37835Y41257D01*
X36834Y41122D02*
X37700D01*
X37965Y41203D02*
Y41242D01*
X37754Y40992D02*
X37965Y41203D01*
X36888Y40992D02*
X37754D01*
X37244Y42756D02*
X37402Y42913D01*
X36489Y40777D02*
X36834Y41122D01*
X36543Y40647D02*
X36888Y40992D01*
X37982Y43133D02*
Y43180D01*
X37146Y44134D02*
X37603D01*
X36691Y43138D02*
X37399D01*
X36637Y43268D02*
X37453D01*
X36462Y43898D02*
X36634D01*
X36069Y44291D02*
X36462Y43898D01*
X35630Y44291D02*
X36069D01*
X37244Y42151D02*
Y42756D01*
X34892Y41663D02*
X35217D01*
X41078Y42400D02*
X41657D01*
X40591Y42888D02*
X41078Y42400D01*
X40591Y42888D02*
Y43101D01*
X41541Y42097D02*
X41610Y42165D01*
X42331Y41426D02*
X42815D01*
X42888Y41284D02*
X43102Y41498D01*
X42490Y41284D02*
X42888D01*
X42354Y41148D02*
X42490Y41284D01*
X43102Y41498D02*
X43179D01*
X44118Y41083D02*
X44321Y40880D01*
X44082Y41119D02*
X44118Y41083D01*
X44040Y41161D02*
X44082Y41119D01*
X42740Y41161D02*
X43051D01*
X43951D02*
X44040D01*
X43831D02*
X43951D01*
X43724D02*
X43831D01*
X43531D02*
X43579D01*
X43471Y41221D02*
Y41338D01*
X43351Y41221D02*
Y41338D01*
X43231Y41221D02*
Y41338D01*
X43111Y41221D02*
Y41338D01*
X42596Y41017D02*
X42740Y41161D01*
X37869Y44538D02*
X38160D01*
X37853Y44667D02*
X38295D01*
X37885Y44409D02*
X38223D01*
X37244Y45049D02*
X37885Y44409D01*
X36864Y41771D02*
X37244Y42151D01*
X42950Y38889D02*
X44194D01*
X44472Y38611D02*
X45240D01*
X44194Y38889D02*
X44472Y38611D01*
X45240D02*
X46215Y37637D01*
X44264Y38531D02*
X45195D01*
X44035Y38760D02*
X44264Y38531D01*
X45195D02*
X46216Y37510D01*
X44405Y43109D02*
X44564D01*
X43997Y43517D02*
X44405Y43109D01*
X44459Y43238D02*
X44770D01*
X44488Y43386D02*
X44813D01*
X44163Y43711D02*
X44488Y43386D01*
X42441Y40679D02*
X42597Y40835D01*
X42200Y40222D02*
X42354Y40069D01*
X41745Y40222D02*
X42200D01*
X42112Y40122D02*
X42304Y39930D01*
X41689Y40122D02*
X42112D01*
X41991Y40022D02*
X42387Y39626D01*
X41617Y40022D02*
X41991D01*
X41752Y39856D02*
X42101Y39508D01*
X41670Y39764D02*
X42083Y39351D01*
X41826Y39459D02*
X42061Y39224D01*
X41697Y39459D02*
X41826D01*
X41793Y39379D02*
X42028Y39144D01*
X41338Y39379D02*
X41793D01*
X41787Y39272D02*
X42207Y38852D01*
X41275Y39272D02*
X41787D01*
X41531Y43799D02*
X41988D01*
X41360Y43970D02*
X41531Y43799D01*
X41318Y43870D02*
X41506Y43683D01*
X41260Y43731D02*
X41384Y43607D01*
X40925Y43583D02*
X41073Y43730D01*
X40928Y43792D02*
X41006Y43870D01*
X40448Y43792D02*
X40928D01*
X41483Y43225D02*
X42229Y42480D01*
X42371Y43417D02*
X42729D01*
X41988Y43799D02*
X42371Y43417D01*
X42463Y43517D02*
X43997D01*
X42200Y43779D02*
X42463Y43517D01*
X42490Y43711D02*
X44163D01*
X41908Y43683D02*
X42441Y43150D01*
X41006Y43870D02*
X41318D01*
X40443Y43970D02*
X41360D01*
X40789Y44234D02*
X41926D01*
X41544Y43338D02*
Y43502D01*
X41506Y43683D02*
X41908D01*
X41439Y43607D02*
X41544Y43502D01*
X41384Y43607D02*
X41439D01*
X42441Y43150D02*
X43627D01*
X44491Y42286D01*
X42849Y43297D02*
X43917D01*
X42729Y43417D02*
X42849Y43297D01*
X40309Y43836D02*
X40443Y43970D01*
X40787Y44232D02*
X40789Y44234D01*
X41926D02*
X42200Y43959D01*
Y43779D02*
Y43959D01*
X47774Y37508D02*
X48189Y37923D01*
X47330Y37508D02*
X47774D01*
X37265Y40117D02*
Y40227D01*
X36580Y41282D02*
X36625Y41238D01*
X35902Y40935D02*
X36343D01*
X35822Y40777D02*
X36489D01*
X35701Y40898D02*
X35822Y40777D01*
X35648Y40768D02*
X35768Y40647D01*
X36543D01*
X35324Y41771D02*
X36864D01*
X35217Y41663D02*
X35324Y41771D01*
X35211Y41412D02*
X36546D01*
X35265Y41282D02*
X36580D01*
X35199Y41216D02*
X35265Y41282D01*
X36546Y41412D02*
X36590Y41457D01*
X35224Y40898D02*
X35701D01*
X35170Y40768D02*
X35648D01*
X35069Y41270D02*
X35211Y41412D01*
X35374Y41929D02*
Y42018D01*
X34774Y41545D02*
X34892Y41663D01*
X34774Y38475D02*
Y41545D01*
X35199Y40923D02*
Y41216D01*
X35069Y40869D02*
Y41270D01*
X47894Y46122D02*
X48287Y45728D01*
X46610Y46122D02*
X47894D01*
X46299Y45812D02*
X46610Y46122D01*
X44990Y43987D02*
Y44400D01*
X37304Y39740D02*
Y39940D01*
X37215Y39650D02*
X37304Y39740D01*
X37135Y40110D02*
X37304Y39940D01*
X37215Y39606D02*
Y39650D01*
X37381Y39689D02*
X37494Y39803D01*
X37381Y39570D02*
Y39689D01*
X37494Y39803D02*
X37500D01*
X35687Y39412D02*
X35827Y39272D01*
X43309Y42026D02*
X44315D01*
X43071Y42264D02*
X43309Y42026D01*
X43935Y42146D02*
X44182Y42393D01*
X43504Y42146D02*
X43935D01*
X43406Y42658D02*
X43770Y42293D01*
X36555Y36693D02*
X38632D01*
X34774Y38475D02*
X36555Y36693D01*
X41144Y40011D02*
X41697Y39459D01*
X41144Y40011D02*
Y40034D01*
X35830Y39288D02*
Y39288D01*
Y39288D02*
X35837Y39282D01*
X35827Y39272D02*
X35837Y39282D01*
X42387Y39626D02*
X43061D01*
X39461Y42804D02*
Y42965D01*
X38748Y42865D02*
X38873Y42741D01*
X38976Y39478D02*
X40325D01*
X38986Y39754D02*
X40030D01*
X39281Y39341D02*
X40482D01*
X38159Y40873D02*
X38240Y40954D01*
X38289Y40819D02*
X38370Y40900D01*
X38159Y40696D02*
Y40873D01*
X38289Y40642D02*
Y40819D01*
X38056Y40593D02*
X38159Y40696D01*
X38110Y40463D02*
X38289Y40642D01*
X37957Y40593D02*
X38056D01*
X37904Y40463D02*
X38110D01*
X37792Y40758D02*
X37957Y40593D01*
X37718Y40648D02*
X37904Y40463D01*
X36927Y40758D02*
X37792D01*
X37000Y40648D02*
X37718D01*
X36680Y40511D02*
X36927Y40758D01*
X36810Y40457D02*
X37000Y40648D01*
X36680Y40296D02*
Y40511D01*
X36810Y40350D02*
Y40457D01*
X36680Y40296D02*
X36772Y40204D01*
X36810Y40350D02*
X36902Y40258D01*
X36634Y37614D02*
X36772Y37752D01*
X36688Y37484D02*
X36902Y37698D01*
X36500Y37614D02*
X36634D01*
X36500Y37484D02*
X36688D01*
X38370Y41146D02*
X38500Y41275D01*
X38370Y40900D02*
Y41146D01*
X45065Y42873D02*
Y43134D01*
X44813Y43386D02*
X45065Y43134D01*
X42241Y40662D02*
X42320Y40741D01*
X42575Y40996D02*
X42596Y41017D01*
X42447Y41039D02*
X42490Y40996D01*
X42362Y40954D02*
X42405Y40911D01*
X42362Y40784D02*
X42405Y40826D01*
X42320Y40741D02*
X42362Y40784D01*
X41901Y40322D02*
X41921Y40343D01*
X42218Y40640D02*
X42241Y40662D01*
X42176Y40597D02*
X42218Y40640D01*
X42034Y40655D02*
X42091Y40597D01*
X41949Y40570D02*
X42006Y40512D01*
X41964Y40385D02*
X42006Y40427D01*
X41921Y40343D02*
X41964Y40385D01*
X41787Y40322D02*
X41901D01*
X41562Y40547D02*
X41787Y40322D01*
X43169Y42480D02*
X43504Y42146D01*
X43130Y42480D02*
X43169D01*
X42229D02*
X42736D01*
X42773D01*
X43006D02*
X43070D01*
X43130D01*
X41369Y43225D02*
X41483D01*
X41269Y43326D02*
X41369Y43225D01*
X41098Y43326D02*
X41269D01*
X40925Y43498D02*
X41098Y43326D01*
X40925Y43498D02*
Y43583D01*
X42441Y42658D02*
X43406D01*
X42427D02*
X42441D01*
X42412Y42672D02*
X42427Y42658D01*
X42370Y42715D02*
X42412Y42672D01*
X42253Y42682D02*
X42285Y42715D01*
X42168Y42767D02*
X42243Y42842D01*
X42280Y42879D01*
X42158Y42927D02*
X42195Y42964D01*
X42083Y42852D02*
X42158Y42927D01*
X41998Y42937D02*
X42073Y43012D01*
X42110Y43049D01*
X41903Y43181D02*
X41951Y43134D01*
X41818Y43266D02*
X41903Y43181D01*
X41776Y43309D02*
X41818Y43266D01*
X41573Y43309D02*
X41776D01*
X41544Y43338D02*
X41573Y43309D01*
X41891Y43494D02*
X42452Y42933D01*
X41673Y43494D02*
X41891D01*
X42452Y42933D02*
X42512D01*
X44770Y43238D02*
X44936Y43073D01*
X44564Y43109D02*
X44676Y42997D01*
X43858Y42549D02*
X44035D01*
X43856Y42551D02*
X43858Y42549D01*
X43814Y42594D02*
X43856Y42551D01*
X43729Y42594D02*
X43729Y42594D01*
X43644Y42679D02*
X43686Y42721D01*
X43729Y42763D01*
X43644Y42848D02*
X43644Y42848D01*
X43517Y42891D02*
X43559Y42848D01*
X43474Y42933D02*
X43517Y42891D01*
X43472Y42933D02*
X43474D01*
X43412D02*
X43472D01*
X43352Y42873D02*
Y42873D01*
X43232Y42873D02*
Y42933D01*
Y42980D01*
X43112Y42933D02*
Y42980D01*
Y42873D02*
Y42933D01*
X42992Y42873D02*
Y42933D01*
Y42980D01*
X42872Y42933D02*
Y42980D01*
Y42873D02*
Y42933D01*
X42752Y42873D02*
Y42933D01*
Y42980D01*
X42512Y42933D02*
X42585D01*
X42648Y42264D02*
X43071D01*
X42560Y42351D02*
X42648Y42264D01*
X42024Y42351D02*
X42560D01*
X40309Y43653D02*
Y43836D01*
X43994Y41498D02*
X44222Y41270D01*
X43947Y41498D02*
X43994D01*
X43899D02*
X43947D01*
X43839Y41558D02*
Y41733D01*
X43719Y41558D02*
Y41733D01*
X43599Y41558D02*
Y41733D01*
X43479Y41558D02*
Y41733D01*
X43359Y41558D02*
Y41733D01*
X43239Y41558D02*
Y41733D01*
X42283Y41148D02*
X42354D01*
X43739Y39930D02*
X43844Y40034D01*
X43860Y40050D01*
X43966Y40156D02*
X44001Y40121D01*
X43966Y40206D02*
X43987Y40227D01*
X44036D02*
X44072Y40192D01*
X44142Y40333D02*
X44178Y40369D01*
X44213Y40404D01*
X43179Y39930D02*
X43739D01*
X42065Y42251D02*
X42309D01*
X41792Y42265D02*
X41938D01*
X41657Y42400D02*
X41792Y42265D01*
X42280Y41148D02*
X42283D01*
X42230Y40838D02*
Y41098D01*
X42130Y40838D02*
Y41098D01*
X42030Y41148D02*
X42080D01*
X41980D02*
X42030D01*
X43074Y39930D02*
X43179D01*
X43004D02*
X43074D01*
X42934Y39796D02*
Y39860D01*
X42794Y39796D02*
Y39860D01*
X42654Y39796D02*
Y39860D01*
X42514Y39796D02*
Y39860D01*
X42374Y39930D02*
X42444D01*
X42304D02*
X42374D01*
X41240Y40571D02*
X41689Y40122D01*
X44412Y40229D02*
Y40451D01*
X43907Y39725D02*
X44412Y40229D01*
X43873Y39690D02*
X43907Y39725D01*
X43809Y39626D02*
X43873Y39690D01*
X43781Y39626D02*
X43809D01*
X43691Y39716D02*
Y39740D01*
X43511Y39716D02*
Y39740D01*
X43331Y39716D02*
Y39740D01*
X43151Y39716D02*
Y39740D01*
X41198Y40442D02*
X41617Y40022D01*
X41091Y40442D02*
X41198D01*
X41005Y40356D02*
X41091Y40442D01*
X41005Y40173D02*
Y40356D01*
X43993Y39508D02*
X44035Y39550D01*
X44062Y39577D01*
X44130Y39645D01*
X44229Y39806D02*
X44260Y39775D01*
X44347Y39688D01*
X44359Y39874D02*
X44446Y39787D01*
X44328Y39905D02*
X44359Y39874D01*
X44427Y40004D02*
X44458Y39973D01*
X44561Y39871D01*
X44557Y40072D02*
X44660Y39970D01*
X44518Y40111D02*
X44557Y40072D01*
X44696Y40210D02*
X44755Y40270D01*
X44805Y40320D01*
X42101Y39508D02*
X43993D01*
X44201Y40583D02*
X44804D01*
X43687Y40069D02*
X44201Y40583D01*
X43661Y40069D02*
X43687D01*
X43604D02*
X43661D01*
X43546D02*
X43604D01*
X43404D02*
Y40112D01*
X43343Y40030D02*
X43365D01*
X43304Y40069D02*
Y40112D01*
X43204Y40069D02*
Y40112D01*
X43143Y40030D02*
X43165D01*
X43104Y40069D02*
Y40112D01*
X43004Y40069D02*
Y40112D01*
X42943Y40030D02*
X42965D01*
X42904Y40069D02*
Y40095D01*
X42804Y40069D02*
Y40095D01*
X42743Y40030D02*
X42765D01*
X42704Y40069D02*
Y40095D01*
X42604Y40069D02*
Y40095D01*
X42543Y40030D02*
X42565D01*
X42404Y40069D02*
X42504D01*
X42354D02*
X42404D01*
X41358Y40609D02*
X41745Y40222D01*
X43681Y40246D02*
X44006Y40571D01*
X43680Y40245D02*
X43681Y40246D01*
X43584Y40245D02*
X43680D01*
X43534D02*
X43584D01*
X43484Y40295D02*
Y40570D01*
X43384Y40295D02*
Y40570D01*
X43284Y40295D02*
Y40570D01*
X43184Y40295D02*
Y40570D01*
X43084Y40295D02*
Y40570D01*
X42984Y40295D02*
Y40570D01*
X43797Y40835D02*
X43799D01*
X43747Y40885D02*
Y41003D01*
X43647Y40835D02*
Y41003D01*
Y40781D02*
Y40835D01*
X43547Y40781D02*
Y40835D01*
Y41003D01*
X43447Y40835D02*
Y41003D01*
Y40781D02*
Y40835D01*
X43347Y40781D02*
Y40835D01*
Y41003D01*
X43247Y40835D02*
Y41003D01*
Y40781D02*
Y40835D01*
X43147Y40781D02*
Y40835D01*
Y41003D01*
X43047Y40835D02*
Y41003D01*
Y40781D02*
Y40835D01*
X42947Y40781D02*
Y40785D01*
X42847Y40781D02*
Y40785D01*
X42747Y40781D02*
Y40785D01*
X42647Y40835D02*
X42697D01*
X42597D02*
X42647D01*
X43799D02*
X43812Y40848D01*
X43965D01*
X44100Y40713D02*
X44674D01*
X43965Y40848D02*
X44100Y40713D01*
X42083Y39351D02*
X44075D01*
X44292Y39568D01*
X35384Y45975D02*
X36594Y44764D01*
X36831D01*
X36978Y44616D01*
Y44463D02*
Y44616D01*
Y44463D02*
X37209Y44232D01*
X35384Y45384D02*
X35564Y45565D01*
X35626D01*
X36535Y44656D01*
X36781D01*
X36870Y44567D01*
Y44410D02*
Y44567D01*
Y44410D02*
X37146Y44134D01*
X42918Y38857D02*
X42950Y38889D01*
X42440Y38594D02*
X43005D01*
X42262Y38772D02*
X42440Y38594D01*
X42467Y38680D02*
X43466D01*
X42295Y38852D02*
X42467Y38680D01*
X42207Y38852D02*
X42295D01*
X42229Y38692D02*
X42407Y38514D01*
X41565Y38563D02*
X42175D01*
X41391Y38692D02*
X42229D01*
X41493Y38772D02*
X42262D01*
X41437Y38829D02*
X41493Y38772D01*
X40935Y39611D02*
X41275Y39272D01*
X41015Y39702D02*
X41338Y39379D01*
X40866Y39217D02*
X41391Y38692D01*
X35069Y40869D02*
X35170Y40768D01*
X38909Y39391D02*
X39231D01*
X38731Y39569D02*
X38909Y39391D01*
X38806Y39649D02*
X38976Y39478D01*
X39231Y39391D02*
X39281Y39341D01*
X40855Y39578D02*
X41259Y39175D01*
X40719Y39601D02*
X40866Y39454D01*
X40719Y39601D02*
Y39616D01*
X40855Y39578D02*
Y39663D01*
X40721Y39910D02*
X40935Y39696D01*
X40366Y39910D02*
X40721D01*
X40763Y39756D02*
X40855Y39663D01*
X40588Y39756D02*
X40763D01*
X48287Y43278D02*
Y45728D01*
X37992Y46034D02*
X37994D01*
X36604Y45482D02*
X37037Y45049D01*
X37046Y40314D02*
X37244Y40512D01*
X37046Y39578D02*
Y40314D01*
Y39578D02*
X37165Y39459D01*
X45065Y38444D02*
X45668Y37841D01*
X43899Y38444D02*
X45065D01*
X43716Y38627D02*
X43899Y38444D01*
X46760Y37305D02*
X47283Y36782D01*
X46209Y37305D02*
X46760D01*
X47283Y36782D02*
X47480D01*
X45049Y38347D02*
X45588Y37808D01*
X43868Y38347D02*
X45049D01*
X45588Y37418D02*
Y37808D01*
X43720Y38494D02*
X43868Y38347D01*
X45668Y37693D02*
Y37841D01*
X43519Y38627D02*
X43716D01*
X38748Y43499D02*
X39024Y43774D01*
X38748Y42865D02*
Y43499D01*
X38878Y43445D02*
X39154Y43721D01*
X38878Y42919D02*
Y43445D01*
Y42919D02*
X39056Y42741D01*
X46073Y46713D02*
X46427D01*
X45512Y46152D02*
X46073Y46713D01*
X39056Y42679D02*
Y42741D01*
X39080Y43104D02*
Y43342D01*
X39210Y43158D02*
Y43288D01*
Y43158D02*
X39279Y43089D01*
X39080Y43104D02*
X39225Y42959D01*
X39279Y43089D02*
X39337D01*
X39225Y42959D02*
X39283D01*
X39337Y43089D02*
X39461Y42965D01*
Y42776D02*
Y42804D01*
X39474Y42818D01*
X39331Y42683D02*
Y42911D01*
Y42683D02*
X39335Y42679D01*
X39283Y42959D02*
X39331Y42911D01*
X39752Y43096D02*
Y43434D01*
X39785Y43467D01*
X40146Y39605D02*
X40157Y39616D01*
X38976Y37038D02*
Y37205D01*
X38632Y36693D02*
X38976Y37038D01*
X49759Y39112D02*
X49947Y39301D01*
X49705Y39242D02*
X49817Y39354D01*
X47689Y39466D02*
Y39533D01*
X48049Y39402D02*
X48082D01*
X47224Y39400D02*
X47358Y39533D01*
X47224Y39193D02*
Y39400D01*
X47094Y39454D02*
X47296Y39655D01*
X47094Y39139D02*
X47336Y38898D01*
X41229Y46603D02*
X41230Y46604D01*
X34606Y44823D02*
X35098D01*
X35630Y44291D01*
X37847Y39649D02*
X38806D01*
X37933Y39478D02*
X38023Y39569D01*
X38731D01*
X35366Y39412D02*
X35687D01*
X37835Y39478D02*
X37933D01*
X37835Y39636D02*
X37847Y39649D01*
X37265Y40117D02*
X37411Y39971D01*
X37500D01*
X35354Y39400D02*
X35366Y39412D01*
X47094Y39139D02*
Y39454D01*
X47296Y39655D02*
Y39664D01*
X47358Y39533D02*
X47427D01*
X47551Y39028D02*
X47648Y39124D01*
X47224Y39193D02*
X47390Y39028D01*
X37965Y41242D02*
X37970Y41248D01*
X38500Y41275D02*
Y41287D01*
X36447Y37431D02*
X36500Y37484D01*
X36447Y37667D02*
X36500Y37614D01*
X37264Y40227D02*
X37265D01*
X37135Y40110D02*
Y40280D01*
X38199Y41063D02*
X38199D01*
X38240Y41022D01*
X37970Y41248D02*
X38014D01*
X38240Y40979D02*
Y41022D01*
X37835Y41349D02*
X37913Y41427D01*
X38084D01*
X38221Y41565D01*
X47689Y39466D02*
X47972Y39183D01*
X48791Y39055D02*
X48848Y39112D01*
X37135Y40280D02*
X37210Y40356D01*
X37508D01*
X37269Y39459D02*
X37381Y39570D01*
X37165Y39459D02*
X37269D01*
X37244Y40512D02*
X37628D01*
X45831Y37175D02*
X46693D01*
X43287Y38494D02*
X43720D01*
X45668Y37693D02*
X45792Y37569D01*
X45945D01*
X46209Y37305D01*
X45588Y37418D02*
X45831Y37175D01*
X38987Y39605D02*
X40146D01*
X39484Y40227D02*
Y40505D01*
X38819Y40463D02*
Y40492D01*
X39056Y40730D01*
X38240Y40954D02*
Y40975D01*
X37835Y39793D02*
X38799D01*
X38987Y39605D01*
X37628Y40512D02*
X38102Y40038D01*
X39295D02*
X39484Y40227D01*
X37835Y39971D02*
X37943D01*
X38002Y39912D01*
X38829D02*
X38986Y39754D01*
X38002Y39912D02*
X38829D01*
X38102Y40038D02*
X39295D01*
X39335Y40447D02*
Y40452D01*
X39055Y40167D02*
X39335Y40447D01*
X35199Y40923D02*
X35224Y40898D01*
X38781Y42400D02*
X39056D01*
X38826Y42539D02*
X39196D01*
X35650Y42097D02*
X36691Y43138D01*
X35596Y42227D02*
X36637Y43268D01*
X35374Y42018D02*
X35453Y42097D01*
X35650D01*
X35384Y42303D02*
X35461Y42227D01*
X35596D01*
X41616Y40859D02*
X41701Y40774D01*
X41841Y40730D02*
Y40825D01*
X41823Y41026D02*
Y41081D01*
Y41026D02*
X41981Y40868D01*
X47872Y39579D02*
Y39795D01*
Y39579D02*
X48049Y39402D01*
X48002Y39636D02*
Y39741D01*
Y39636D02*
X48105Y39533D01*
X48214D01*
X47390Y39028D02*
X47551D01*
X48002Y39741D02*
X48218Y39957D01*
X48950D02*
X48996Y39912D01*
X47872Y39795D02*
X48164Y40087D01*
X38223Y44409D02*
X38480Y44665D01*
X36821Y45482D02*
X37174Y45129D01*
X38295Y44667D02*
X38297Y44665D01*
X39505Y43947D02*
X39665Y44108D01*
X41142Y45866D02*
X41319D01*
X40472Y45197D02*
X41142Y45866D01*
X39665Y44108D02*
Y44108D01*
X38880Y45333D02*
X39024Y45189D01*
Y43774D02*
Y45189D01*
X38934Y45463D02*
X39154Y45243D01*
Y43721D02*
Y45243D01*
X37037Y45482D02*
X37853Y44667D01*
X37037Y45049D02*
X37244D01*
X37277Y45129D02*
X37869Y44538D01*
X37174Y45129D02*
X37277D01*
X37843Y45651D02*
X39250D01*
X37897Y45781D02*
X39304D01*
X39734Y45351D01*
X39250Y45651D02*
X39604Y45297D01*
X37736Y45758D02*
X37843Y45651D01*
X37736Y45758D02*
Y45898D01*
X37600Y46034D02*
X37736Y45898D01*
X37866Y45908D02*
X37992Y46034D01*
X37866Y45812D02*
X37897Y45781D01*
X37866Y45812D02*
Y45908D01*
X37433Y45333D02*
X38880D01*
X37487Y45463D02*
X38934D01*
X36969Y45797D02*
X37433Y45333D01*
X36969Y45797D02*
Y45878D01*
X36813Y46034D02*
X36969Y45878D01*
X37099Y45925D02*
X37207Y46034D01*
X37099Y45851D02*
Y45925D01*
Y45851D02*
X37487Y45463D01*
X45329Y43204D02*
Y43648D01*
X44990Y43987D02*
X45329Y43648D01*
X46216Y37510D02*
X46634D01*
X46693Y37569D01*
X47140Y37698D02*
X47330Y37508D01*
X46639Y37698D02*
X47140D01*
X46578Y37637D02*
X46639Y37698D01*
X46215Y37637D02*
X46578D01*
X45198Y43073D02*
Y43306D01*
X44833Y43671D02*
X45198Y43306D01*
X45067Y41893D02*
X45197Y42023D01*
X40472Y44892D02*
Y45197D01*
X44743Y42679D02*
X44805D01*
X39665Y44108D02*
X39734Y44177D01*
X44491Y42286D02*
X44936D01*
X45065Y42873D02*
X45197Y42741D01*
X44676Y42888D02*
Y42997D01*
Y42888D02*
X44753Y42811D01*
X44936D01*
X44597Y42825D02*
X44743Y42679D01*
X39375Y44001D02*
X39604Y44230D01*
Y45297D01*
X39734Y44177D02*
Y45351D01*
X39210Y43288D02*
X39505Y43583D01*
Y43947D01*
X39080Y43342D02*
X39375Y43637D01*
Y44001D01*
X40448Y43514D02*
X40453Y43509D01*
X39785Y43467D02*
Y43971D01*
X40099Y44519D02*
X40472Y44892D01*
X39785Y43971D02*
X40099Y44285D01*
Y44519D01*
X41015Y39702D02*
Y39885D01*
X44804Y40583D02*
X44805Y40582D01*
X40935Y39611D02*
Y39696D01*
X41752Y39856D02*
Y39892D01*
X40866Y39217D02*
Y39454D01*
X43466Y38680D02*
X43519Y38627D01*
X42844Y38514D02*
X42894Y38465D01*
X42407Y38514D02*
X42844D01*
X43005Y38594D02*
X43234Y38365D01*
X43379D01*
X45286Y37981D02*
X45492Y37776D01*
X44688Y37981D02*
X45286D01*
X46526Y36614D02*
X46693Y36782D01*
X46038Y36614D02*
X46526D01*
X45492Y37160D02*
X46038Y36614D01*
X43379Y38365D02*
X43381Y38368D01*
X43734D01*
X43883Y38218D01*
X44451D01*
X44688Y37981D01*
X45492Y37160D02*
Y37776D01*
X41388Y38386D02*
X41565Y38563D01*
X44300Y36426D02*
X44400Y36526D01*
X46831D01*
X47087Y36782D01*
X41388Y36959D02*
Y38386D01*
Y36959D02*
X41920Y36426D01*
X44300D01*
X39484Y40505D02*
X39578Y40599D01*
X39854D01*
X39616Y40453D02*
X39823D01*
X40366Y39910D01*
X41841Y40730D02*
X41842Y40729D01*
X41701Y40591D02*
Y40774D01*
X41005Y39895D02*
X41015Y39885D01*
X40695Y40601D02*
X40787D01*
X40286Y40374D02*
X40718Y40807D01*
X40339Y40245D02*
X40695Y40601D01*
X39854Y40599D02*
X40208Y40245D01*
X40339D01*
X44444Y42155D02*
X44805D01*
X45197Y42023D02*
Y42741D01*
X44321Y40880D02*
Y40886D01*
X41980Y42165D02*
X42065Y42251D01*
X41938Y42265D02*
X42024Y42351D01*
X41610Y42165D02*
X41980D01*
X43917Y43297D02*
X44390Y42825D01*
X44597D01*
X44315Y42026D02*
X44444Y42155D01*
X41152Y40571D02*
X41240D01*
X41575Y39764D02*
X41670D01*
X44292Y39568D02*
X44498D01*
X45218Y40288D01*
Y40613D01*
X45119Y40713D02*
X45218Y40613D01*
X44936Y40713D02*
X45119D01*
G54D131*
X42874Y37392D02*
X43041D01*
X43218D02*
X43386D01*
X43041D02*
X43218D01*
G54D135*
X43130Y37549D02*
D03*
X42972D02*
D03*
Y37234D02*
D03*
X37500Y39971D02*
D03*
X37667D02*
D03*
X37835D02*
D03*
X37677Y39626D02*
D03*
X37835Y39478D02*
D03*
Y39636D02*
D03*
Y39793D02*
D03*
X37500Y39803D02*
D03*
X38819Y37362D02*
D03*
X39134D02*
D03*
X38819Y37047D02*
D03*
X39134D02*
D03*
X43287Y37549D02*
D03*
Y37234D02*
D03*
X38976Y37205D02*
D03*
M02*
