G04*
G04 #@! TF.GenerationSoftware,Altium Limited,Altium Designer,19.0.15 (446)*
G04*
G04 Layer_Color=8421504*
%FSLAX24Y24*%
%MOIN*%
G70*
G01*
G75*
%ADD19R,0.0433X0.0433*%
%ADD20R,0.0433X0.0433*%
%ADD21R,0.0394X0.1319*%
%ADD22R,0.0197X0.0197*%
G04:AMPARAMS|DCode=23|XSize=19.7mil|YSize=19.7mil|CornerRadius=6.9mil|HoleSize=0mil|Usage=FLASHONLY|Rotation=180.000|XOffset=0mil|YOffset=0mil|HoleType=Round|Shape=RoundedRectangle|*
%AMROUNDEDRECTD23*
21,1,0.0197,0.0059,0,0,180.0*
21,1,0.0059,0.0197,0,0,180.0*
1,1,0.0138,-0.0030,0.0030*
1,1,0.0138,0.0030,0.0030*
1,1,0.0138,0.0030,-0.0030*
1,1,0.0138,-0.0030,-0.0030*
%
%ADD23ROUNDEDRECTD23*%
%ADD24R,0.0299X0.0449*%
%ADD25C,0.0079*%
%ADD26R,0.0315X0.0315*%
%ADD27R,0.0315X0.0315*%
%ADD28R,0.0197X0.0197*%
%ADD29R,0.0630X0.0197*%
%ADD30R,0.0433X0.0866*%
%ADD31R,0.0394X0.0413*%
%ADD32R,0.0157X0.0551*%
G04:AMPARAMS|DCode=33|XSize=19.7mil|YSize=19.7mil|CornerRadius=6.9mil|HoleSize=0mil|Usage=FLASHONLY|Rotation=90.000|XOffset=0mil|YOffset=0mil|HoleType=Round|Shape=RoundedRectangle|*
%AMROUNDEDRECTD33*
21,1,0.0197,0.0059,0,0,90.0*
21,1,0.0059,0.0197,0,0,90.0*
1,1,0.0138,0.0030,0.0030*
1,1,0.0138,0.0030,-0.0030*
1,1,0.0138,-0.0030,-0.0030*
1,1,0.0138,-0.0030,0.0030*
%
%ADD33ROUNDEDRECTD33*%
%ADD34O,0.0110X0.0354*%
%ADD35O,0.0354X0.0110*%
%ADD36R,0.0866X0.0433*%
%ADD37R,0.0413X0.0394*%
%ADD38R,0.0394X0.0394*%
%ADD39C,0.0394*%
%ADD40R,0.0394X0.0394*%
%ADD41R,0.0400X0.0400*%
%ADD42R,0.0400X0.0400*%
%ADD43R,0.0295X0.0157*%
%ADD44O,0.0197X0.0079*%
%ADD45O,0.0079X0.0197*%
G04:AMPARAMS|DCode=46|XSize=16.5mil|YSize=9.8mil|CornerRadius=2.5mil|HoleSize=0mil|Usage=FLASHONLY|Rotation=180.000|XOffset=0mil|YOffset=0mil|HoleType=Round|Shape=RoundedRectangle|*
%AMROUNDEDRECTD46*
21,1,0.0165,0.0049,0,0,180.0*
21,1,0.0116,0.0098,0,0,180.0*
1,1,0.0049,-0.0058,0.0025*
1,1,0.0049,0.0058,0.0025*
1,1,0.0049,0.0058,-0.0025*
1,1,0.0049,-0.0058,-0.0025*
%
%ADD46ROUNDEDRECTD46*%
G04:AMPARAMS|DCode=47|XSize=16.5mil|YSize=9.8mil|CornerRadius=2.5mil|HoleSize=0mil|Usage=FLASHONLY|Rotation=270.000|XOffset=0mil|YOffset=0mil|HoleType=Round|Shape=RoundedRectangle|*
%AMROUNDEDRECTD47*
21,1,0.0165,0.0049,0,0,270.0*
21,1,0.0116,0.0098,0,0,270.0*
1,1,0.0049,-0.0025,-0.0058*
1,1,0.0049,-0.0025,0.0058*
1,1,0.0049,0.0025,0.0058*
1,1,0.0049,0.0025,-0.0058*
%
%ADD47ROUNDEDRECTD47*%
%ADD48R,0.0551X0.0591*%
%ADD49R,0.0354X0.0315*%
%ADD50R,0.0098X0.0207*%
%ADD51R,0.1496X0.0394*%
%ADD52R,0.1791X0.0394*%
%ADD53R,0.0394X0.1496*%
%ADD54R,0.0748X0.0748*%
%ADD55R,0.0906X0.0748*%
%ADD56R,0.0630X0.0551*%
%ADD57O,0.0138X0.0157*%
%ADD58C,0.0138*%
G36*
X52382Y39360D02*
Y39675D01*
X52067D01*
Y39360D01*
X52382D01*
D02*
G37*
G36*
X51132Y40915D02*
Y41230D01*
X50817D01*
Y40915D01*
X51132D01*
D02*
G37*
G54D19*
X45718Y37667D02*
D03*
X45167Y37116D02*
D03*
G54D20*
X45718Y37116D02*
D03*
X45167Y37667D02*
D03*
G54D21*
X53691Y43858D02*
D03*
X53691Y39311D02*
D03*
X47274D02*
D03*
X47274Y43858D02*
D03*
G54D22*
X52352Y40463D02*
D03*
X52746D02*
D03*
X49075Y37904D02*
D03*
X49468D02*
D03*
X48189Y37923D02*
D03*
X47795D02*
D03*
X47480D02*
D03*
X47087D02*
D03*
X36959Y41870D02*
D03*
X37352D02*
D03*
X52333Y42510D02*
D03*
X52726D02*
D03*
X50108Y42008D02*
D03*
X49715D02*
D03*
X46417Y38258D02*
D03*
X46811D02*
D03*
X45659Y38593D02*
D03*
X46053D02*
D03*
X46939Y36191D02*
D03*
X46545D02*
D03*
X45837D02*
D03*
X46230D02*
D03*
X48622Y41732D02*
D03*
X49016D02*
D03*
X47766Y43671D02*
D03*
X48159D02*
D03*
X49360Y41034D02*
D03*
X48967D02*
D03*
X49272Y41349D02*
D03*
X48878D02*
D03*
X44754Y39921D02*
D03*
X45148D02*
D03*
X39252Y39843D02*
D03*
X38858D02*
D03*
X48809Y44331D02*
D03*
X48415D02*
D03*
X45089Y39282D02*
D03*
X45482D02*
D03*
X48553Y42195D02*
D03*
X48947D02*
D03*
X44488Y40650D02*
D03*
X44094D02*
D03*
X39085Y41289D02*
D03*
X39478D02*
D03*
X43071Y40925D02*
D03*
X43465D02*
D03*
X40856Y42589D02*
D03*
X41250D02*
D03*
X43071Y40591D02*
D03*
X43465D02*
D03*
X45089Y38927D02*
D03*
X45482D02*
D03*
X44045Y38307D02*
D03*
X44439D02*
D03*
X44252Y36368D02*
D03*
X44646D02*
D03*
X51368Y43967D02*
D03*
X50974D02*
D03*
X51152Y44282D02*
D03*
X50758D02*
D03*
X42333Y44695D02*
D03*
X42726D02*
D03*
Y44341D02*
D03*
X42333D02*
D03*
X37244Y44124D02*
D03*
X36850D02*
D03*
X37746Y40138D02*
D03*
X37352D02*
D03*
X49301Y44331D02*
D03*
X49695D02*
D03*
X48612Y45305D02*
D03*
X48218D02*
D03*
X37431Y38140D02*
D03*
X37037D02*
D03*
G54D23*
X49705Y40925D02*
D03*
X50098D02*
D03*
X37087Y39183D02*
D03*
X37480D02*
D03*
X51998Y41604D02*
D03*
X51604D02*
D03*
X46526Y44380D02*
D03*
Y44695D02*
D03*
X45640Y45049D02*
D03*
X46033D02*
D03*
X44380Y45108D02*
D03*
X43986D02*
D03*
X45187Y43081D02*
D03*
X44793D02*
D03*
X45305Y40620D02*
D03*
X45699D02*
D03*
X45305Y41093D02*
D03*
X45699D02*
D03*
X45305Y42038D02*
D03*
X45699D02*
D03*
X45148Y42352D02*
D03*
X45541D02*
D03*
X35974Y39912D02*
D03*
X36368D02*
D03*
X35974Y40226D02*
D03*
X36368D02*
D03*
X35974Y37392D02*
D03*
X36368D02*
D03*
X35974Y37707D02*
D03*
X36368D02*
D03*
Y38652D02*
D03*
X35974D02*
D03*
X36368Y38967D02*
D03*
X35974D02*
D03*
X39478Y41604D02*
D03*
X39085D02*
D03*
X37736Y41949D02*
D03*
X38130D02*
D03*
X38258Y41634D02*
D03*
X37864D02*
D03*
X38652Y41191D02*
D03*
X38258D02*
D03*
X40226Y41604D02*
D03*
X39833D02*
D03*
X40856Y42234D02*
D03*
X41250D02*
D03*
X40541Y41919D02*
D03*
X40148D02*
D03*
X40856Y41604D02*
D03*
X41250D02*
D03*
X39764Y40236D02*
D03*
X39370D02*
D03*
X40856Y40866D02*
D03*
X41250D02*
D03*
X41644Y43563D02*
D03*
X42037D02*
D03*
X41644Y43248D02*
D03*
X42037D02*
D03*
X40856Y41211D02*
D03*
X41250D02*
D03*
X39114Y42894D02*
D03*
X38720D02*
D03*
X40502Y40551D02*
D03*
X40108D02*
D03*
X40974Y40138D02*
D03*
X41368D02*
D03*
X39793Y41919D02*
D03*
X39400D02*
D03*
X42234Y41250D02*
D03*
X42628D02*
D03*
X40974Y40541D02*
D03*
X41368D02*
D03*
X40502Y40236D02*
D03*
X40108D02*
D03*
X41250Y41919D02*
D03*
X40856D02*
D03*
X52726Y41250D02*
D03*
X52333D02*
D03*
X44163Y39793D02*
D03*
X43770D02*
D03*
X39409Y43455D02*
D03*
X39803D02*
D03*
X38701D02*
D03*
X39094D02*
D03*
X36398Y43228D02*
D03*
X36791D02*
D03*
X45276Y42766D02*
D03*
X44882D02*
D03*
X45148Y40246D02*
D03*
X44754D02*
D03*
X45699Y41565D02*
D03*
X45305D02*
D03*
X47707Y42195D02*
D03*
X48100D02*
D03*
X47589Y42894D02*
D03*
X47982D02*
D03*
X48927Y42904D02*
D03*
X48533D02*
D03*
X47589Y42559D02*
D03*
X47982D02*
D03*
X48829Y42589D02*
D03*
X48435D02*
D03*
X47736Y40807D02*
D03*
X48130D02*
D03*
X47785Y40148D02*
D03*
X48179D02*
D03*
X48159Y43219D02*
D03*
X47766D02*
D03*
X46447Y39538D02*
D03*
X46841D02*
D03*
X45492Y39597D02*
D03*
X45098D02*
D03*
X48061Y40492D02*
D03*
X47667D02*
D03*
X48691Y40719D02*
D03*
X49085D02*
D03*
X46132Y44695D02*
D03*
Y44380D02*
D03*
X36929Y45138D02*
D03*
X36535D02*
D03*
X48032Y39163D02*
D03*
X48425D02*
D03*
X48032Y38849D02*
D03*
X48425D02*
D03*
X49449Y40187D02*
D03*
X49843D02*
D03*
X49449Y39872D02*
D03*
X49843D02*
D03*
X35974Y41496D02*
D03*
Y41171D02*
D03*
X36368Y41496D02*
D03*
Y41171D02*
D03*
X45128Y36191D02*
D03*
X45522D02*
D03*
X44951Y38593D02*
D03*
X45344D02*
D03*
X44301Y45502D02*
D03*
X43907D02*
D03*
X37480Y39498D02*
D03*
X37087D02*
D03*
X37264Y39823D02*
D03*
X37657D02*
D03*
X36211Y44734D02*
D03*
X36604D02*
D03*
X47402Y37530D02*
D03*
X47008D02*
D03*
X40787Y43169D02*
D03*
X40394D02*
D03*
G54D24*
X53128Y42982D02*
D03*
X52530D02*
D03*
X51931D02*
D03*
Y44163D02*
D03*
X53128D02*
D03*
X52530D02*
D03*
X50500Y42461D02*
D03*
X49902D02*
D03*
X49303D02*
D03*
Y43642D02*
D03*
X50500D02*
D03*
X49902D02*
D03*
X49821Y45837D02*
D03*
X45238Y45532D02*
D03*
X49222Y47018D02*
D03*
X49821D02*
D03*
X48624D02*
D03*
Y45837D02*
D03*
X49222D02*
D03*
X45837Y46713D02*
D03*
X46435D02*
D03*
X45238D02*
D03*
X45837Y45532D02*
D03*
X46435D02*
D03*
G54D25*
X41594Y44114D02*
D03*
X41732D02*
D03*
X41594Y43976D02*
D03*
X41732D02*
D03*
X36437Y38307D02*
D03*
X36575D02*
D03*
X36437Y38169D02*
D03*
X36575D02*
D03*
X37116Y44606D02*
D03*
X36919D02*
D03*
X37116Y44803D02*
D03*
X36919D02*
D03*
G54D26*
X41378Y45059D02*
D03*
Y44469D02*
D03*
G54D27*
X36437Y40630D02*
D03*
X35846D02*
D03*
G54D28*
X35787Y46004D02*
D03*
Y45610D02*
D03*
X41230Y46998D02*
D03*
Y46604D02*
D03*
Y46230D02*
D03*
Y45837D02*
D03*
X37283Y45532D02*
D03*
Y45138D02*
D03*
X50157Y40236D02*
D03*
Y39843D02*
D03*
X48750Y38809D02*
D03*
Y39203D02*
D03*
X51722Y41949D02*
D03*
Y42343D02*
D03*
X44419Y39410D02*
D03*
Y39016D02*
D03*
X45807Y39203D02*
D03*
Y39597D02*
D03*
X48809Y43248D02*
D03*
Y43642D02*
D03*
X41358Y38789D02*
D03*
Y38396D02*
D03*
X38150Y40413D02*
D03*
Y40020D02*
D03*
X46447Y38829D02*
D03*
Y39223D02*
D03*
X46841Y39223D02*
D03*
Y38829D02*
D03*
X46116Y39597D02*
D03*
Y39203D02*
D03*
X45226Y43445D02*
D03*
Y43839D02*
D03*
X42382Y42864D02*
D03*
Y42471D02*
D03*
X42579Y45049D02*
D03*
Y45443D02*
D03*
X41860Y45167D02*
D03*
Y44774D02*
D03*
X44902Y43563D02*
D03*
Y43957D02*
D03*
X41565Y41014D02*
D03*
Y41408D02*
D03*
Y41919D02*
D03*
Y42313D02*
D03*
X46604Y42953D02*
D03*
Y42559D02*
D03*
X36791Y39813D02*
D03*
Y40207D02*
D03*
X35787Y44882D02*
D03*
Y45276D02*
D03*
X41260Y44075D02*
D03*
Y43681D02*
D03*
X50974Y43258D02*
D03*
Y43652D02*
D03*
X51289Y43258D02*
D03*
Y43652D02*
D03*
X43386Y41752D02*
D03*
Y41358D02*
D03*
X37175Y40847D02*
D03*
Y40453D02*
D03*
X44803Y45512D02*
D03*
Y45118D02*
D03*
X37352Y41870D02*
D03*
Y42264D02*
D03*
X37175Y41555D02*
D03*
Y41162D02*
D03*
X38150Y38878D02*
D03*
Y38484D02*
D03*
X38986Y38878D02*
D03*
Y38484D02*
D03*
X38573Y38878D02*
D03*
Y38484D02*
D03*
X44567Y43957D02*
D03*
Y43563D02*
D03*
X43474Y38110D02*
D03*
Y38504D02*
D03*
X42844Y38110D02*
D03*
Y38504D02*
D03*
X43159Y38110D02*
D03*
Y38504D02*
D03*
X42067Y42471D02*
D03*
Y42864D02*
D03*
G54D29*
X36703Y42205D02*
D03*
Y42795D02*
D03*
G54D30*
X50226Y36604D02*
D03*
X51407D02*
D03*
X43455Y46762D02*
D03*
X44636D02*
D03*
X42864D02*
D03*
X41683D02*
D03*
X35974D02*
D03*
X37156D02*
D03*
X48573Y36604D02*
D03*
X47392D02*
D03*
G54D31*
X50817Y37234D02*
D03*
X44045Y46132D02*
D03*
X42274D02*
D03*
X36565D02*
D03*
X47982Y37234D02*
D03*
G54D32*
X37687Y37549D02*
D03*
X37943D02*
D03*
X38455D02*
D03*
X38199D02*
D03*
X37431D02*
D03*
G54D33*
X46654Y37943D02*
D03*
Y37549D02*
D03*
Y36841D02*
D03*
Y37234D02*
D03*
X52352Y41723D02*
D03*
X52697D02*
D03*
X52352Y42116D02*
D03*
X52697D02*
D03*
X40600Y39439D02*
D03*
Y39833D02*
D03*
X45581Y43415D02*
D03*
Y43809D02*
D03*
X42451Y44026D02*
D03*
Y43632D02*
D03*
X43701Y41752D02*
D03*
Y41358D02*
D03*
X43071Y41752D02*
D03*
Y41358D02*
D03*
X39833Y41289D02*
D03*
Y40896D02*
D03*
X38770Y41900D02*
D03*
Y41506D02*
D03*
X40226Y41289D02*
D03*
Y40896D02*
D03*
X40541Y41486D02*
D03*
Y41093D02*
D03*
Y42234D02*
D03*
Y42628D02*
D03*
X39921Y39912D02*
D03*
Y39518D02*
D03*
X41880Y41762D02*
D03*
Y41368D02*
D03*
X39911Y42234D02*
D03*
Y42628D02*
D03*
X40699Y39124D02*
D03*
Y38730D02*
D03*
X40226Y42628D02*
D03*
Y42234D02*
D03*
X42028Y40807D02*
D03*
Y40413D02*
D03*
X41683Y40699D02*
D03*
Y40305D02*
D03*
X41014Y39124D02*
D03*
Y38730D02*
D03*
X36014Y44242D02*
D03*
Y43849D02*
D03*
X36329Y44242D02*
D03*
Y43849D02*
D03*
X36014Y41988D02*
D03*
Y42382D02*
D03*
X44439Y41093D02*
D03*
Y41486D02*
D03*
X44124Y41644D02*
D03*
Y41250D02*
D03*
X45640Y42667D02*
D03*
Y43061D02*
D03*
X46211Y40345D02*
D03*
Y39951D02*
D03*
X48474Y43612D02*
D03*
Y43219D02*
D03*
X48494Y40010D02*
D03*
Y40404D02*
D03*
X48307Y41132D02*
D03*
Y41526D02*
D03*
X46919Y42973D02*
D03*
Y42579D02*
D03*
X46841Y43406D02*
D03*
Y43799D02*
D03*
X46211Y43671D02*
D03*
Y44065D02*
D03*
X46526Y43406D02*
D03*
Y43799D02*
D03*
X46289Y42982D02*
D03*
Y42589D02*
D03*
X45896Y43622D02*
D03*
Y44016D02*
D03*
X46565Y39951D02*
D03*
Y40345D02*
D03*
X45463Y39912D02*
D03*
Y40305D02*
D03*
X44774Y39203D02*
D03*
Y39597D02*
D03*
X45817Y39912D02*
D03*
Y40305D02*
D03*
X46841Y44341D02*
D03*
Y44734D02*
D03*
X49744Y41280D02*
D03*
Y41673D02*
D03*
X50059Y41280D02*
D03*
Y41673D02*
D03*
X53081Y39429D02*
D03*
Y39823D02*
D03*
X42215Y45049D02*
D03*
Y45443D02*
D03*
X47707Y39203D02*
D03*
Y38809D02*
D03*
X49134Y39843D02*
D03*
Y40236D02*
D03*
X42018Y43947D02*
D03*
Y44341D02*
D03*
X39606Y39912D02*
D03*
Y39518D02*
D03*
X37510Y40453D02*
D03*
Y40847D02*
D03*
X44252Y37549D02*
D03*
Y37943D02*
D03*
Y37234D02*
D03*
Y36841D02*
D03*
X51407Y42343D02*
D03*
Y41949D02*
D03*
G54D34*
X45049Y38179D02*
D03*
X45246D02*
D03*
X45443D02*
D03*
X45640D02*
D03*
X45837D02*
D03*
Y36604D02*
D03*
X45640D02*
D03*
X45443D02*
D03*
X45246D02*
D03*
X45049D02*
D03*
G54D35*
X46230Y37786D02*
D03*
Y37589D02*
D03*
Y37392D02*
D03*
Y37195D02*
D03*
Y36998D02*
D03*
X44656D02*
D03*
Y37195D02*
D03*
Y37392D02*
D03*
Y37589D02*
D03*
Y37786D02*
D03*
G54D36*
X47589Y45778D02*
D03*
Y46959D02*
D03*
X50935D02*
D03*
Y45778D02*
D03*
G54D37*
X46959Y46368D02*
D03*
X50305D02*
D03*
G54D38*
X38524Y46880D02*
D03*
X37795D02*
D03*
Y46152D02*
D03*
Y45423D02*
D03*
Y44695D02*
D03*
X39980Y43967D02*
D03*
X39252D02*
D03*
X38524D02*
D03*
X40709D02*
D03*
G54D39*
X37795D02*
D03*
G54D40*
X39252Y46880D02*
D03*
X39980D02*
D03*
X40709D02*
D03*
Y46152D02*
D03*
Y45423D02*
D03*
Y44695D02*
D03*
G54D41*
X37411Y42736D02*
D03*
X38051D02*
D03*
X41028Y39675D02*
D03*
X41669D02*
D03*
X39242Y42480D02*
D03*
X38602D02*
D03*
X39409Y40689D02*
D03*
X38769D02*
D03*
X42185Y37106D02*
D03*
X41545D02*
D03*
X40305Y36575D02*
D03*
X40945D02*
D03*
G54D42*
X42549Y40064D02*
D03*
Y40704D02*
D03*
X42224Y37697D02*
D03*
Y38337D02*
D03*
X40059Y38484D02*
D03*
Y39125D02*
D03*
X39518Y38489D02*
D03*
Y39129D02*
D03*
G54D43*
X49183Y38849D02*
D03*
Y39163D02*
D03*
X49951D02*
D03*
Y38849D02*
D03*
X50581Y39882D02*
D03*
Y40197D02*
D03*
X51348D02*
D03*
Y39882D02*
D03*
G54D44*
X51831Y39784D02*
D03*
X52618D02*
D03*
Y39252D02*
D03*
Y39429D02*
D03*
Y39606D02*
D03*
X51831D02*
D03*
Y39429D02*
D03*
Y39252D02*
D03*
X50581Y41339D02*
D03*
X51368D02*
D03*
Y40807D02*
D03*
Y40984D02*
D03*
Y41162D02*
D03*
X50581D02*
D03*
Y40984D02*
D03*
Y40807D02*
D03*
G54D45*
X52382Y39912D02*
D03*
X52224D02*
D03*
X52067D02*
D03*
Y39124D02*
D03*
X52224D02*
D03*
X52382D02*
D03*
X51132Y41467D02*
D03*
X50974D02*
D03*
X50817D02*
D03*
Y40679D02*
D03*
X50974D02*
D03*
X51132D02*
D03*
G54D46*
X43679Y44626D02*
D03*
Y44823D02*
D03*
Y45020D02*
D03*
X43191Y44626D02*
D03*
Y44823D02*
D03*
Y45020D02*
D03*
G54D47*
X43435Y44583D02*
D03*
Y45063D02*
D03*
G54D48*
X43892Y42272D02*
D03*
Y43752D02*
D03*
X42959Y42272D02*
D03*
Y43752D02*
D03*
G54D49*
X43701Y42412D02*
D03*
Y43612D02*
D03*
X43150Y42412D02*
D03*
Y43612D02*
D03*
G54D50*
X43612Y45354D02*
D03*
X43415D02*
D03*
X43218D02*
D03*
Y45640D02*
D03*
X43415D02*
D03*
X43612D02*
D03*
G54D51*
X50482Y44793D02*
D03*
Y38376D02*
D03*
G54D52*
X52992Y44793D02*
D03*
X47972D02*
D03*
Y38376D02*
D03*
X52992D02*
D03*
G54D53*
X53691Y41585D02*
D03*
X47274D02*
D03*
G54D54*
X38415Y36506D02*
D03*
X37470D02*
D03*
G54D55*
X39518D02*
D03*
X36368D02*
D03*
G54D56*
X36893Y37535D02*
D03*
X38993D02*
D03*
G54D57*
X45985Y43073D02*
D03*
Y43335D02*
D03*
G54D58*
X38917Y40305D02*
D03*
X39055Y40167D02*
D03*
M02*
