G04*
G04 #@! TF.GenerationSoftware,Altium Limited,Altium Designer,19.1.6 (110)*
G04*
G04 Layer_Physical_Order=5*
G04 Layer_Color=16737945*
%FSLAX44Y44*%
%MOMM*%
G71*
G01*
G75*
%ADD125R,5.5000X5.5000*%
%ADD140C,0.3500*%
%ADD141C,0.4000*%
%ADD142C,0.5000*%
G36*
X465961Y158692D02*
X464895Y157980D01*
X463790Y156326D01*
X463402Y154375D01*
X463790Y152424D01*
X464895Y150770D01*
X465961Y150058D01*
Y146942D01*
X464895Y146230D01*
X463790Y144576D01*
X463402Y142625D01*
X463790Y140674D01*
X464895Y139020D01*
X465961Y138308D01*
Y2039D01*
X371306D01*
X370921Y3309D01*
X371233Y3517D01*
X371840Y4427D01*
X372054Y5500D01*
X371840Y6573D01*
X371233Y7483D01*
X370323Y8090D01*
X369250Y8304D01*
X368177Y8090D01*
X367267Y7483D01*
X366660Y6573D01*
X366446Y5500D01*
X366660Y4427D01*
X367267Y3517D01*
X367579Y3309D01*
X367194Y2039D01*
X265255D01*
X264595Y3309D01*
X264840Y3677D01*
X265054Y4750D01*
X264840Y5823D01*
X264233Y6733D01*
X263323Y7340D01*
X262250Y7554D01*
X261177Y7340D01*
X260267Y6733D01*
X260264Y6727D01*
X258736D01*
X258733Y6733D01*
X257823Y7340D01*
X256750Y7554D01*
X255677Y7340D01*
X254767Y6733D01*
X254160Y5823D01*
X253946Y4750D01*
X254160Y3677D01*
X254405Y3309D01*
X253745Y2039D01*
X218242Y2039D01*
X217266Y3309D01*
X217304Y3500D01*
X217090Y4573D01*
X216483Y5483D01*
X215573Y6090D01*
X214500Y6304D01*
X213427Y6090D01*
X212517Y5483D01*
X211233D01*
X210323Y6090D01*
X209250Y6304D01*
X208292Y6113D01*
X207796Y6430D01*
X207197Y6963D01*
X207304Y7500D01*
X207090Y8573D01*
X206483Y9483D01*
X205573Y10090D01*
X204500Y10304D01*
X203427Y10090D01*
X202517Y9483D01*
X202233D01*
X201323Y10090D01*
X200250Y10304D01*
X199177Y10090D01*
X198267Y9483D01*
X197983D01*
X197073Y10090D01*
X196000Y10304D01*
X194927Y10090D01*
X193557Y10622D01*
X193483Y10733D01*
X192573Y11340D01*
X191500Y11554D01*
X190427Y11340D01*
X189517Y10733D01*
X188910Y9823D01*
X188858Y9562D01*
X188323Y9340D01*
X187250Y9554D01*
X186177Y9340D01*
X185267Y8733D01*
X184660Y7823D01*
X184446Y6750D01*
X184660Y5677D01*
X185023Y5134D01*
X185020Y3605D01*
X183974Y2039D01*
X179740D01*
X179537Y2302D01*
X179177Y3309D01*
X179590Y3927D01*
X179804Y5000D01*
X179590Y6073D01*
X178983Y6983D01*
X178073Y7590D01*
X177000Y7804D01*
X175927Y7590D01*
X175017Y6983D01*
X174410Y6073D01*
X174196Y5000D01*
X174410Y3927D01*
X174823Y3309D01*
X174463Y2302D01*
X174260Y2039D01*
X159325D01*
X158466Y3309D01*
X158554Y3750D01*
X158340Y4823D01*
X157733Y5733D01*
X156823Y6340D01*
X155750Y6554D01*
X154677Y6340D01*
X153767Y5733D01*
X153160Y4823D01*
X152946Y3750D01*
X153034Y3309D01*
X152175Y2039D01*
X141858D01*
X141169Y3060D01*
X141117Y3309D01*
X141304Y4250D01*
X141090Y5323D01*
X140483Y6233D01*
X139573Y6840D01*
X138500Y7054D01*
X137427Y6840D01*
X136517Y6233D01*
X136514Y6227D01*
X134986D01*
X134983Y6233D01*
X134073Y6840D01*
X133000Y7054D01*
X131927Y6840D01*
X131017Y6233D01*
X130409Y5323D01*
X130196Y4250D01*
X130383Y3309D01*
X130331Y3060D01*
X129642Y2039D01*
X95732D01*
X95044Y3061D01*
X94992Y3309D01*
X95179Y4250D01*
X94965Y5323D01*
X94358Y6233D01*
X93448Y6841D01*
X92375Y7054D01*
X91302Y6841D01*
X90392Y6233D01*
X90358D01*
X89448Y6841D01*
X88375Y7054D01*
X87302Y6841D01*
X86392Y6233D01*
X86358D01*
X85448Y6841D01*
X84375Y7054D01*
X83302Y6841D01*
X82392Y6233D01*
X81785Y5323D01*
X81571Y4250D01*
X81758Y3309D01*
X81706Y3061D01*
X81018Y2039D01*
X79658D01*
X78917Y3309D01*
X79054Y4000D01*
X78840Y5073D01*
X78233Y5983D01*
X77323Y6590D01*
X76250Y6804D01*
X75177Y6590D01*
X74608Y6210D01*
X73750Y6068D01*
X72892Y6210D01*
X72323Y6590D01*
X71250Y6804D01*
X70177Y6590D01*
X69268Y5983D01*
X69264Y5977D01*
X67736D01*
X67733Y5983D01*
X66823Y6590D01*
X65750Y6804D01*
X64677Y6590D01*
X63767Y5983D01*
X63160Y5073D01*
X62946Y4000D01*
X63084Y3309D01*
X62342Y2039D01*
X2039D01*
Y12000D01*
X2029Y12050D01*
X2037Y12100D01*
X1998Y12884D01*
X1961Y13031D01*
Y13182D01*
X1655Y14720D01*
X1578Y14906D01*
X1539Y15103D01*
X939Y16552D01*
X828Y16718D01*
X751Y16904D01*
X-121Y18208D01*
X-262Y18350D01*
X-374Y18517D01*
X-1483Y19626D01*
X-1650Y19737D01*
X-1792Y19879D01*
X-3096Y20751D01*
X-3282Y20828D01*
X-3449Y20939D01*
X-4897Y21539D01*
X-5094Y21579D01*
X-5280Y21655D01*
X-6818Y21961D01*
X-6969D01*
X-7116Y21998D01*
X-7900Y22037D01*
X-7950Y22029D01*
X-8000Y22039D01*
X-35750Y22039D01*
Y176961D01*
X0Y176961D01*
X66Y176974D01*
X133Y176965D01*
X1177Y177034D01*
X1372Y177086D01*
X1572Y177099D01*
X3589Y177639D01*
X3828Y177757D01*
X4081Y177843D01*
X5890Y178887D01*
X6090Y179063D01*
X6312Y179211D01*
X7789Y180688D01*
X7937Y180910D01*
X8113Y181110D01*
X9157Y182919D01*
X9243Y183172D01*
X9361Y183411D01*
X9901Y185428D01*
X9919Y185694D01*
X9971Y185956D01*
Y188044D01*
X9919Y188306D01*
X9901Y188572D01*
X9361Y190589D01*
X9243Y190828D01*
X9157Y191081D01*
X8113Y192890D01*
X7937Y193090D01*
X7789Y193312D01*
X6312Y194789D01*
X6090Y194937D01*
X5890Y195113D01*
X4081Y196157D01*
X3828Y196243D01*
X3589Y196361D01*
X1572Y196901D01*
X1372Y196914D01*
X1178Y196966D01*
X133Y197035D01*
X66Y197026D01*
X0Y197039D01*
X-35750D01*
Y274961D01*
X-8000Y274961D01*
X-7950Y274971D01*
X-7900Y274963D01*
X-7116Y275002D01*
X-6969Y275039D01*
X-6818D01*
X-5280Y275345D01*
X-5094Y275421D01*
X-4897Y275461D01*
X-3449Y276061D01*
X-3282Y276172D01*
X-3096Y276249D01*
X-1792Y277120D01*
X-1650Y277262D01*
X-1483Y277374D01*
X-374Y278483D01*
X-262Y278650D01*
X-121Y278792D01*
X751Y280096D01*
X828Y280282D01*
X939Y280448D01*
X1539Y281897D01*
X1578Y282094D01*
X1655Y282280D01*
X1961Y283818D01*
Y283969D01*
X1998Y284116D01*
X2037Y284900D01*
X2029Y284950D01*
X2039Y285000D01*
X2039Y294961D01*
X96944D01*
X97329Y293691D01*
X97017Y293483D01*
X96410Y292573D01*
X96196Y291500D01*
X96410Y290427D01*
X97017Y289517D01*
X97927Y288910D01*
X99000Y288696D01*
X100073Y288910D01*
X100983Y289517D01*
X101590Y290427D01*
X101804Y291500D01*
X101590Y292573D01*
X100983Y293483D01*
X100671Y293691D01*
X101056Y294961D01*
X105444D01*
X105829Y293691D01*
X105517Y293483D01*
X104910Y292573D01*
X104696Y291500D01*
X104910Y290427D01*
X105517Y289517D01*
X106427Y288910D01*
X107500Y288696D01*
X108573Y288910D01*
X109483Y289517D01*
X110090Y290427D01*
X110304Y291500D01*
X110090Y292573D01*
X109483Y293483D01*
X109171Y293691D01*
X109556Y294961D01*
X183974D01*
X185020Y293395D01*
X186674Y292290D01*
X188625Y291902D01*
X190576Y292290D01*
X192230Y293395D01*
X193276Y294961D01*
X195724D01*
X196770Y293395D01*
X198424Y292290D01*
X200375Y291902D01*
X202326Y292290D01*
X203980Y293395D01*
X205026Y294961D01*
X301495D01*
X302155Y293691D01*
X301910Y293323D01*
X301696Y292250D01*
X301910Y291177D01*
X302517Y290267D01*
X303427Y289660D01*
X304500Y289446D01*
X305573Y289660D01*
X306483Y290267D01*
X307090Y291177D01*
X307304Y292250D01*
X307090Y293323D01*
X306845Y293691D01*
X307505Y294961D01*
X465961D01*
Y158692D01*
D02*
G37*
%LPC*%
G36*
X142500Y293054D02*
X141427Y292840D01*
X140517Y292233D01*
X139910Y291323D01*
X139696Y290250D01*
X139910Y289177D01*
X140517Y288267D01*
X141427Y287660D01*
X142500Y287446D01*
X143573Y287660D01*
X144483Y288267D01*
X144611Y288460D01*
X146139D01*
X146267Y288267D01*
X147177Y287659D01*
X148250Y287446D01*
X149323Y287659D01*
X150232Y288267D01*
X150840Y289177D01*
X151054Y290250D01*
X150840Y291323D01*
X150232Y292232D01*
X149323Y292840D01*
X148250Y293054D01*
X147177Y292840D01*
X146267Y292232D01*
X146139Y292040D01*
X144611D01*
X144483Y292233D01*
X143573Y292840D01*
X142500Y293054D01*
D02*
G37*
G36*
X245500Y292304D02*
X244427Y292090D01*
X243517Y291483D01*
X242910Y290573D01*
X242696Y289500D01*
X242910Y288427D01*
X243517Y287517D01*
X244427Y286910D01*
X245500Y286696D01*
X246573Y286910D01*
X247483Y287517D01*
X248090Y288427D01*
X248304Y289500D01*
X248090Y290573D01*
X247483Y291483D01*
X246573Y292090D01*
X245500Y292304D01*
D02*
G37*
G36*
X12500Y290554D02*
X11427Y290340D01*
X10517Y289733D01*
X9910Y288823D01*
X9696Y287750D01*
X9910Y286677D01*
X10517Y285767D01*
X11427Y285160D01*
X12500Y284946D01*
X13573Y285160D01*
X14483Y285767D01*
X15090Y286677D01*
X15304Y287750D01*
X15090Y288823D01*
X14483Y289733D01*
X13573Y290340D01*
X12500Y290554D01*
D02*
G37*
G36*
X329300Y289754D02*
X328227Y289540D01*
X327317Y288932D01*
X326710Y288023D01*
X326496Y286950D01*
X326710Y285877D01*
X327317Y284967D01*
X328227Y284359D01*
X329300Y284146D01*
X330373Y284359D01*
X331283Y284967D01*
X331890Y285877D01*
X332104Y286950D01*
X331890Y288023D01*
X331283Y288932D01*
X330373Y289540D01*
X329300Y289754D01*
D02*
G37*
G36*
X238750Y289554D02*
X237677Y289340D01*
X236767Y288733D01*
X236159Y287823D01*
X235946Y286750D01*
X236159Y285677D01*
X236767Y284767D01*
X237677Y284160D01*
X238750Y283946D01*
X239823Y284160D01*
X240733Y284767D01*
X241340Y285677D01*
X241554Y286750D01*
X241340Y287823D01*
X240733Y288733D01*
X239823Y289340D01*
X238750Y289554D01*
D02*
G37*
G36*
X357500Y285054D02*
X356427Y284840D01*
X355517Y284233D01*
X355187Y283738D01*
X353871Y283593D01*
X353733Y283629D01*
X352823Y284237D01*
X351750Y284450D01*
X350677Y284237D01*
X349767Y283629D01*
X349160Y282719D01*
X348946Y281646D01*
X349160Y280574D01*
X349767Y279664D01*
X350677Y279056D01*
X351750Y278843D01*
X352823Y279056D01*
X353733Y279664D01*
X354063Y280158D01*
X355379Y280303D01*
X355517Y280267D01*
X356427Y279660D01*
X357500Y279446D01*
X358573Y279660D01*
X359483Y280267D01*
X360090Y281177D01*
X360304Y282250D01*
X360090Y283323D01*
X359483Y284233D01*
X358573Y284840D01*
X357500Y285054D01*
D02*
G37*
G36*
X146000Y284054D02*
X144927Y283840D01*
X144017Y283233D01*
X143410Y282323D01*
X143196Y281250D01*
X143410Y280177D01*
X144017Y279267D01*
X144927Y278660D01*
X146000Y278446D01*
X147073Y278660D01*
X147983Y279267D01*
X148590Y280177D01*
X148804Y281250D01*
X148590Y282323D01*
X147983Y283233D01*
X147073Y283840D01*
X146000Y284054D01*
D02*
G37*
G36*
X26500Y282054D02*
X25427Y281840D01*
X24517Y281233D01*
X23910Y280323D01*
X23696Y279250D01*
X23910Y278177D01*
X24517Y277267D01*
X25427Y276660D01*
X26500Y276446D01*
X27573Y276660D01*
X28483Y277267D01*
X29090Y278177D01*
X29304Y279250D01*
X29090Y280323D01*
X28483Y281233D01*
X27573Y281840D01*
X26500Y282054D01*
D02*
G37*
G36*
X250000Y285554D02*
X248927Y285340D01*
X248017Y284733D01*
X247410Y283823D01*
X247196Y282750D01*
X247410Y281677D01*
X248017Y280767D01*
X248517Y280433D01*
Y279983D01*
X247910Y279073D01*
X247696Y278000D01*
X247910Y276927D01*
X248517Y276017D01*
X249427Y275410D01*
X250500Y275196D01*
X251573Y275410D01*
X252483Y276017D01*
X253090Y276927D01*
X253304Y278000D01*
X253090Y279073D01*
X252483Y279983D01*
X251983Y280317D01*
Y280767D01*
X252590Y281677D01*
X252804Y282750D01*
X252590Y283823D01*
X251983Y284733D01*
X251073Y285340D01*
X250000Y285554D01*
D02*
G37*
G36*
X72500Y278054D02*
X71427Y277840D01*
X70517Y277233D01*
X69910Y276323D01*
X69696Y275250D01*
X69910Y274177D01*
X70517Y273267D01*
X71427Y272660D01*
X72500Y272446D01*
X73573Y272660D01*
X74483Y273267D01*
X75090Y274177D01*
X75304Y275250D01*
X75090Y276323D01*
X74483Y277233D01*
X73573Y277840D01*
X72500Y278054D01*
D02*
G37*
G36*
X273750Y276304D02*
X272677Y276091D01*
X271767Y275483D01*
X271160Y274573D01*
X270946Y273500D01*
X271160Y272427D01*
X271767Y271517D01*
X272677Y270910D01*
X273750Y270696D01*
X274823Y270910D01*
X275733Y271517D01*
X276340Y272427D01*
X276554Y273500D01*
X276340Y274573D01*
X275733Y275483D01*
X274823Y276091D01*
X273750Y276304D01*
D02*
G37*
G36*
X290250Y276304D02*
X289177Y276090D01*
X288267Y275483D01*
X287660Y274573D01*
X287446Y273500D01*
X287660Y272427D01*
X288267Y271517D01*
X289177Y270910D01*
X290250Y270696D01*
X291323Y270910D01*
X292233Y271517D01*
X292840Y272427D01*
X293054Y273500D01*
X292840Y274573D01*
X292233Y275483D01*
X291323Y276090D01*
X290250Y276304D01*
D02*
G37*
G36*
X1000Y272054D02*
X-73Y271840D01*
X-983Y271233D01*
X-1591Y270323D01*
X-1804Y269250D01*
X-1591Y268177D01*
X-983Y267267D01*
X-73Y266660D01*
X1000Y266446D01*
X2073Y266660D01*
X2983Y267267D01*
X3590Y268177D01*
X3804Y269250D01*
X3590Y270323D01*
X2983Y271233D01*
X2073Y271840D01*
X1000Y272054D01*
D02*
G37*
G36*
X172729Y272054D02*
X171656Y271840D01*
X170746Y271233D01*
X170138Y270323D01*
X169925Y269250D01*
X170138Y268177D01*
X170746Y267267D01*
X171656Y266660D01*
X172729Y266446D01*
X173801Y266660D01*
X174711Y267267D01*
X175319Y268177D01*
X175532Y269250D01*
X175319Y270323D01*
X174711Y271233D01*
X173801Y271840D01*
X172729Y272054D01*
D02*
G37*
G36*
X98250Y274804D02*
X97177Y274590D01*
X96267Y273983D01*
X95660Y273073D01*
X95446Y272000D01*
X95660Y270927D01*
X96267Y270017D01*
X97177Y269410D01*
X97823Y269281D01*
X97910Y269073D01*
X97696Y268000D01*
X97910Y266927D01*
X98517Y266017D01*
X99427Y265410D01*
X100500Y265196D01*
X101573Y265410D01*
X102483Y266017D01*
X103090Y266927D01*
X103304Y268000D01*
X103090Y269073D01*
X102483Y269983D01*
X101573Y270590D01*
X100927Y270719D01*
X100840Y270927D01*
X101054Y272000D01*
X100840Y273073D01*
X100233Y273983D01*
X99323Y274590D01*
X98250Y274804D01*
D02*
G37*
G36*
X356050Y270104D02*
X354977Y269890D01*
X354067Y269283D01*
X353460Y268373D01*
X353246Y267300D01*
X353460Y266227D01*
X354067Y265317D01*
X354977Y264710D01*
X356050Y264496D01*
X357123Y264710D01*
X358033Y265317D01*
X358640Y266227D01*
X358854Y267300D01*
X358640Y268373D01*
X358033Y269283D01*
X357123Y269890D01*
X356050Y270104D01*
D02*
G37*
G36*
X287000Y270054D02*
X285927Y269840D01*
X285017Y269233D01*
X284410Y268323D01*
X284196Y267250D01*
X284410Y266177D01*
X285017Y265267D01*
X285927Y264660D01*
X287000Y264446D01*
X288073Y264660D01*
X288983Y265267D01*
X289590Y266177D01*
X289804Y267250D01*
X289590Y268323D01*
X288983Y269233D01*
X288073Y269840D01*
X287000Y270054D01*
D02*
G37*
G36*
X277000Y270054D02*
X275927Y269840D01*
X275017Y269233D01*
X274410Y268323D01*
X274196Y267250D01*
X274410Y266177D01*
X275017Y265267D01*
X275927Y264660D01*
X277000Y264446D01*
X278073Y264660D01*
X278983Y265267D01*
X279590Y266177D01*
X279804Y267250D01*
X279590Y268323D01*
X278983Y269233D01*
X278073Y269840D01*
X277000Y270054D01*
D02*
G37*
G36*
X-5250Y265051D02*
X-6323Y264838D01*
X-6548Y264688D01*
X-7767Y264227D01*
X-8677Y264835D01*
X-9750Y265048D01*
X-10823Y264835D01*
X-11733Y264227D01*
X-12341Y263318D01*
X-12554Y262244D01*
X-12341Y261171D01*
X-11733Y260262D01*
X-10823Y259654D01*
X-9750Y259441D01*
X-8677Y259654D01*
X-8452Y259804D01*
X-7233Y260265D01*
X-6323Y259657D01*
X-5250Y259443D01*
X-4177Y259657D01*
X-3267Y260265D01*
X-2660Y261174D01*
X-2446Y262247D01*
X-2660Y263320D01*
X-3267Y264230D01*
X-4177Y264838D01*
X-5250Y265051D01*
D02*
G37*
G36*
X107250Y267554D02*
X106177Y267340D01*
X105267Y266733D01*
X104660Y265823D01*
X104446Y264750D01*
X104660Y263677D01*
X105267Y262767D01*
X106177Y262160D01*
X107250Y261946D01*
X108323Y262160D01*
X109233Y262767D01*
X109840Y263677D01*
X110054Y264750D01*
X109840Y265823D01*
X109233Y266733D01*
X108323Y267340D01*
X107250Y267554D01*
D02*
G37*
G36*
X50500Y259304D02*
X49427Y259090D01*
X48517Y258482D01*
X47733D01*
X46823Y259090D01*
X45750Y259304D01*
X44677Y259090D01*
X43767Y258482D01*
X43160Y257573D01*
X42946Y256500D01*
X43160Y255427D01*
X43767Y254517D01*
X44677Y253909D01*
X45750Y253696D01*
X46823Y253909D01*
X47733Y254517D01*
X48517D01*
X49427Y253909D01*
X50500Y253696D01*
X51573Y253909D01*
X52483Y254517D01*
X53091Y255427D01*
X53304Y256500D01*
X53091Y257573D01*
X52483Y258482D01*
X51573Y259090D01*
X50500Y259304D01*
D02*
G37*
G36*
X10500Y262554D02*
X9427Y262340D01*
X8517Y261733D01*
X7910Y260823D01*
X7696Y259750D01*
X7910Y258677D01*
X8517Y257767D01*
X9427Y257160D01*
X10500Y256946D01*
X11573Y257160D01*
X12483Y257767D01*
X13090Y258677D01*
X13304Y259750D01*
X13090Y260823D01*
X12483Y261733D01*
X11573Y262340D01*
X10500Y262554D01*
D02*
G37*
G36*
X97500Y259804D02*
X96427Y259590D01*
X95517Y258983D01*
X94910Y258073D01*
X94696Y257000D01*
X94910Y255927D01*
X95517Y255017D01*
X96427Y254410D01*
X97500Y254196D01*
X98573Y254410D01*
X99483Y255017D01*
X100267D01*
X101177Y254410D01*
X102250Y254196D01*
X103323Y254410D01*
X104233Y255017D01*
X104840Y255927D01*
X105054Y257000D01*
X104840Y258073D01*
X104233Y258983D01*
X103323Y259590D01*
X102250Y259804D01*
X101177Y259590D01*
X100781Y259326D01*
X99875Y259086D01*
X98969Y259326D01*
X98573Y259590D01*
X97500Y259804D01*
D02*
G37*
G36*
X166000Y259304D02*
X164927Y259090D01*
X164017Y258483D01*
X163410Y257573D01*
X163196Y256500D01*
X163410Y255427D01*
X164017Y254517D01*
X164927Y253910D01*
X166000Y253696D01*
X167073Y253910D01*
X167983Y254517D01*
X168590Y255427D01*
X168804Y256500D01*
X168590Y257573D01*
X167983Y258483D01*
X167073Y259090D01*
X166000Y259304D01*
D02*
G37*
G36*
X156500Y259304D02*
X155427Y259090D01*
X154517Y258483D01*
X153910Y257573D01*
X153696Y256500D01*
X153910Y255427D01*
X154517Y254517D01*
X155427Y253910D01*
X156500Y253696D01*
X157573Y253910D01*
X158483Y254517D01*
X159090Y255427D01*
X159304Y256500D01*
X159090Y257573D01*
X158483Y258483D01*
X157573Y259090D01*
X156500Y259304D01*
D02*
G37*
G36*
X215000Y258804D02*
X213927Y258590D01*
X213017Y257983D01*
X212410Y257073D01*
X212196Y256000D01*
X212410Y254927D01*
X213017Y254017D01*
X213927Y253410D01*
X215000Y253196D01*
X216073Y253410D01*
X216983Y254017D01*
X217590Y254927D01*
X217804Y256000D01*
X217590Y257073D01*
X216983Y257983D01*
X216073Y258590D01*
X215000Y258804D01*
D02*
G37*
G36*
X237750Y259054D02*
X236677Y258840D01*
X235767Y258232D01*
X235160Y257323D01*
X234946Y256250D01*
X235160Y255177D01*
X235767Y254267D01*
X236677Y253659D01*
X237750Y253446D01*
X238823Y253659D01*
X239390Y254039D01*
X239660Y253927D01*
X240267Y253017D01*
X241177Y252410D01*
X242250Y252196D01*
X243323Y252410D01*
X244233Y253017D01*
X244841Y253927D01*
X245054Y255000D01*
X244841Y256073D01*
X244233Y256983D01*
X243323Y257590D01*
X242250Y257804D01*
X241177Y257590D01*
X240610Y257211D01*
X240340Y257323D01*
X239733Y258232D01*
X238823Y258840D01*
X237750Y259054D01*
D02*
G37*
G36*
X2000Y263304D02*
X927Y263090D01*
X17Y262482D01*
X-590Y261573D01*
X-804Y260500D01*
X-590Y259427D01*
X17Y258517D01*
X671Y258081D01*
X780Y257551D01*
Y257198D01*
X671Y256669D01*
X17Y256233D01*
X-590Y255323D01*
X-804Y254250D01*
X-590Y253177D01*
X17Y252267D01*
X927Y251660D01*
X2000Y251446D01*
X3073Y251660D01*
X3983Y252267D01*
X4590Y253177D01*
X4804Y254250D01*
X4590Y255323D01*
X3983Y256233D01*
X3329Y256669D01*
X3220Y257198D01*
Y257551D01*
X3329Y258081D01*
X3983Y258517D01*
X4590Y259427D01*
X4804Y260500D01*
X4590Y261573D01*
X3983Y262482D01*
X3073Y263090D01*
X2000Y263304D01*
D02*
G37*
G36*
X71250Y256554D02*
X70177Y256340D01*
X69267Y255733D01*
X68660Y254823D01*
X68446Y253750D01*
X68660Y252677D01*
X69267Y251767D01*
X70177Y251160D01*
X71250Y250946D01*
X72323Y251160D01*
X73233Y251767D01*
X73840Y252677D01*
X74054Y253750D01*
X73840Y254823D01*
X73233Y255733D01*
X72323Y256340D01*
X71250Y256554D01*
D02*
G37*
G36*
X99000Y251054D02*
X97927Y250840D01*
X97017Y250233D01*
X95733D01*
X94823Y250840D01*
X93750Y251054D01*
X92677Y250840D01*
X91767Y250233D01*
X91160Y249323D01*
X90946Y248250D01*
X91160Y247177D01*
X91767Y246267D01*
X92677Y245660D01*
X93750Y245446D01*
X94823Y245660D01*
X95733Y246267D01*
X97017D01*
X97927Y245660D01*
X99000Y245446D01*
X100073Y245660D01*
X100983Y246267D01*
X101590Y247177D01*
X101804Y248250D01*
X101590Y249323D01*
X100983Y250233D01*
X100073Y250840D01*
X99000Y251054D01*
D02*
G37*
G36*
X397500Y254554D02*
X396427Y254340D01*
X395517Y253733D01*
X394910Y252823D01*
X394696Y251750D01*
X394910Y250677D01*
X395517Y249767D01*
X396427Y249160D01*
X397500Y248946D01*
X398573Y249160D01*
X399483Y249767D01*
X400090Y250677D01*
X400304Y251750D01*
X400090Y252823D01*
X399483Y253733D01*
X398573Y254340D01*
X397500Y254554D01*
D02*
G37*
G36*
X249000Y250804D02*
X247927Y250590D01*
X247017Y249983D01*
X246410Y249073D01*
X246196Y248000D01*
X246410Y246927D01*
X247017Y246017D01*
X247927Y245410D01*
X249000Y245196D01*
X250073Y245410D01*
X250983Y246017D01*
X251590Y246927D01*
X251804Y248000D01*
X251590Y249073D01*
X250983Y249983D01*
X250073Y250590D01*
X249000Y250804D01*
D02*
G37*
G36*
X12250Y250804D02*
X11177Y250590D01*
X10267Y249983D01*
X9660Y249073D01*
X9446Y248000D01*
X9660Y246927D01*
X10267Y246017D01*
X11177Y245410D01*
X12250Y245196D01*
X13323Y245410D01*
X14233Y246017D01*
X14840Y246927D01*
X15054Y248000D01*
X14840Y249073D01*
X14233Y249983D01*
X13323Y250590D01*
X12250Y250804D01*
D02*
G37*
G36*
X350750Y250304D02*
X349677Y250090D01*
X348767Y249482D01*
X348159Y248573D01*
X347946Y247500D01*
X348159Y246427D01*
X348767Y245517D01*
X349677Y244909D01*
X350750Y244696D01*
X351823Y244909D01*
X352732Y245517D01*
X353340Y246427D01*
X353554Y247500D01*
X353340Y248573D01*
X352732Y249482D01*
X351823Y250090D01*
X350750Y250304D01*
D02*
G37*
G36*
X328250D02*
X327177Y250090D01*
X326267Y249482D01*
X325660Y248573D01*
X325446Y247500D01*
X325660Y246427D01*
X326267Y245517D01*
X327177Y244909D01*
X328250Y244696D01*
X329323Y244909D01*
X330233Y245517D01*
X330840Y246427D01*
X331054Y247500D01*
X330840Y248573D01*
X330233Y249482D01*
X329323Y250090D01*
X328250Y250304D01*
D02*
G37*
G36*
X216750Y244054D02*
X215677Y243840D01*
X214767Y243233D01*
X214767Y243233D01*
X214233D01*
X213323Y243840D01*
X212250Y244054D01*
X211177Y243840D01*
X210631Y243475D01*
X209483Y243233D01*
X208573Y243840D01*
X207500Y244054D01*
X206427Y243840D01*
X205517Y243233D01*
X204910Y242323D01*
X204696Y241250D01*
X204910Y240177D01*
X205517Y239267D01*
X206427Y238660D01*
X207500Y238446D01*
X208573Y238660D01*
X209119Y239025D01*
X210268Y239267D01*
X211177Y238659D01*
X212250Y238446D01*
X213323Y238659D01*
X214233Y239267D01*
X214233Y239267D01*
X214767D01*
X215677Y238660D01*
X216750Y238446D01*
X217823Y238660D01*
X218733Y239267D01*
X220180Y239148D01*
X220267Y239017D01*
X221177Y238410D01*
X222250Y238196D01*
X223323Y238410D01*
X224233Y239017D01*
X225517Y239017D01*
X226427Y238410D01*
X227500Y238196D01*
X228573Y238410D01*
X228969Y238674D01*
X229875Y238914D01*
X230781Y238674D01*
X231177Y238410D01*
X232250Y238196D01*
X233323Y238410D01*
X234233Y239017D01*
X234840Y239927D01*
X235054Y241000D01*
X234840Y242073D01*
X234233Y242983D01*
X233323Y243591D01*
X232250Y243804D01*
X231177Y243591D01*
X230781Y243326D01*
X229875Y243086D01*
X228969Y243326D01*
X228573Y243590D01*
X227500Y243804D01*
X226427Y243590D01*
X225517Y242983D01*
X224233Y242983D01*
X223323Y243590D01*
X222250Y243804D01*
X221177Y243590D01*
X220267Y242983D01*
X218820Y243102D01*
X218733Y243233D01*
X217823Y243840D01*
X216750Y244054D01*
D02*
G37*
G36*
X22500Y248554D02*
X21427Y248340D01*
X20517Y247733D01*
X19910Y246823D01*
X19696Y245750D01*
X19910Y244677D01*
X20517Y243768D01*
X21427Y243160D01*
X22500Y242946D01*
X23573Y243160D01*
X24483Y243768D01*
X25090Y244677D01*
X25304Y245750D01*
X25090Y246823D01*
X24483Y247733D01*
X23573Y248340D01*
X22500Y248554D01*
D02*
G37*
G36*
X159250Y249975D02*
X158177Y249762D01*
X157267Y249154D01*
X156660Y248245D01*
X156446Y247172D01*
X156660Y246099D01*
X157267Y245189D01*
X158177Y244581D01*
X159250Y244368D01*
X160196Y243750D01*
X160271Y243375D01*
X160410Y242677D01*
X161017Y241767D01*
X161927Y241159D01*
X163000Y240946D01*
X164073Y241159D01*
X164983Y241767D01*
X165590Y242677D01*
X165804Y243750D01*
X165590Y244823D01*
X164983Y245733D01*
X164073Y246340D01*
X163000Y246554D01*
X162054Y247172D01*
X161979Y247547D01*
X161840Y248245D01*
X161233Y249154D01*
X160323Y249762D01*
X159250Y249975D01*
D02*
G37*
G36*
X83000Y245554D02*
X81927Y245340D01*
X81017Y244733D01*
X80410Y243823D01*
X80196Y242750D01*
X80410Y241677D01*
X81017Y240767D01*
X81927Y240160D01*
X83000Y239946D01*
X84073Y240160D01*
X84983Y240767D01*
X85590Y241677D01*
X85804Y242750D01*
X85590Y243823D01*
X84983Y244733D01*
X84073Y245340D01*
X83000Y245554D01*
D02*
G37*
G36*
X39750Y245304D02*
X38677Y245090D01*
X37767Y244483D01*
X37160Y243573D01*
X36946Y242500D01*
X37160Y241427D01*
X37767Y240517D01*
X38677Y239910D01*
X39750Y239696D01*
X40823Y239910D01*
X41733Y240517D01*
X42340Y241427D01*
X42554Y242500D01*
X42340Y243573D01*
X41733Y244483D01*
X40823Y245090D01*
X39750Y245304D01*
D02*
G37*
G36*
X49750Y243304D02*
X48677Y243090D01*
X47767Y242483D01*
X47160Y241573D01*
X46946Y240500D01*
X47160Y239427D01*
X47767Y238517D01*
X48677Y237910D01*
X49750Y237696D01*
X50823Y237910D01*
X51733Y238517D01*
X52340Y239427D01*
X52554Y240500D01*
X52340Y241573D01*
X51733Y242483D01*
X50823Y243090D01*
X49750Y243304D01*
D02*
G37*
G36*
X381750Y242304D02*
X380677Y242090D01*
X379767Y241483D01*
X379160Y240573D01*
X378946Y239500D01*
X379160Y238427D01*
X379767Y237517D01*
X380677Y236910D01*
X381750Y236696D01*
X382823Y236910D01*
X383733Y237517D01*
X384340Y238427D01*
X384554Y239500D01*
X384340Y240573D01*
X383733Y241483D01*
X382823Y242090D01*
X381750Y242304D01*
D02*
G37*
G36*
X72250Y246554D02*
X71177Y246340D01*
X70267Y245733D01*
X69660Y244823D01*
X69446Y243750D01*
X69660Y242677D01*
X69877Y242351D01*
X70267Y241233D01*
X69659Y240323D01*
X69446Y239250D01*
X69659Y238177D01*
X70267Y237267D01*
X71177Y236660D01*
X72250Y236446D01*
X73323Y236660D01*
X74232Y237267D01*
X74840Y238177D01*
X75054Y239250D01*
X74840Y240323D01*
X74623Y240648D01*
X74233Y241767D01*
X74840Y242677D01*
X75054Y243750D01*
X74840Y244823D01*
X74233Y245733D01*
X73323Y246340D01*
X72250Y246554D01*
D02*
G37*
G36*
X16500Y240054D02*
X15427Y239840D01*
X14518Y239233D01*
X13910Y238323D01*
X13696Y237250D01*
X13910Y236177D01*
X14518Y235267D01*
X15427Y234660D01*
X16500Y234446D01*
X17573Y234660D01*
X18483Y235267D01*
X19090Y236177D01*
X19304Y237250D01*
X19090Y238323D01*
X18483Y239233D01*
X17573Y239840D01*
X16500Y240054D01*
D02*
G37*
G36*
X401250Y242304D02*
X400177Y242090D01*
X399267Y241483D01*
X398660Y240573D01*
X398446Y239500D01*
X398660Y238427D01*
X399267Y237517D01*
X400177Y236910D01*
X400759Y236794D01*
X401946Y236250D01*
X402160Y235177D01*
X402767Y234267D01*
X403677Y233660D01*
X404750Y233446D01*
X405823Y233660D01*
X406733Y234267D01*
X407340Y235177D01*
X407554Y236250D01*
X407340Y237323D01*
X406733Y238233D01*
X405823Y238840D01*
X405241Y238956D01*
X404054Y239500D01*
X403840Y240573D01*
X403233Y241483D01*
X402323Y242090D01*
X401250Y242304D01*
D02*
G37*
G36*
X155500Y239054D02*
X154427Y238840D01*
X153517Y238233D01*
X152910Y237323D01*
X152696Y236250D01*
X152910Y235177D01*
X153517Y234267D01*
X154427Y233660D01*
X155500Y233446D01*
X156573Y233660D01*
X157483Y234267D01*
X158090Y235177D01*
X158304Y236250D01*
X158090Y237323D01*
X157483Y238233D01*
X156573Y238840D01*
X155500Y239054D01*
D02*
G37*
G36*
X435500Y238554D02*
X434427Y238340D01*
X433517Y237733D01*
X432910Y236823D01*
X432696Y235750D01*
X432910Y234677D01*
X433517Y233767D01*
X434427Y233160D01*
X435500Y232946D01*
X436573Y233160D01*
X437483Y233767D01*
X438090Y234677D01*
X438304Y235750D01*
X438090Y236823D01*
X437483Y237733D01*
X436573Y238340D01*
X435500Y238554D01*
D02*
G37*
G36*
X136250Y238304D02*
X135177Y238090D01*
X134267Y237483D01*
X133660Y236573D01*
X133446Y235500D01*
X133660Y234427D01*
X134267Y233517D01*
X135177Y232910D01*
X136250Y232696D01*
X137323Y232910D01*
X138233Y233517D01*
X138840Y234427D01*
X139054Y235500D01*
X138840Y236573D01*
X138233Y237483D01*
X137323Y238090D01*
X136250Y238304D01*
D02*
G37*
G36*
X107500Y237554D02*
X106427Y237341D01*
X105517Y236733D01*
X104909Y235823D01*
X104696Y234750D01*
X104909Y233677D01*
X105517Y232768D01*
X106427Y232160D01*
X107500Y231946D01*
X108573Y232160D01*
X109482Y232768D01*
X110090Y233677D01*
X110304Y234750D01*
X110090Y235823D01*
X109482Y236733D01*
X108573Y237341D01*
X107500Y237554D01*
D02*
G37*
G36*
X413750Y234804D02*
X412677Y234590D01*
X411768Y233983D01*
X411160Y233073D01*
X410946Y232000D01*
X411160Y230927D01*
X411768Y230017D01*
X412677Y229410D01*
X413750Y229196D01*
X414823Y229410D01*
X415733Y230017D01*
X416341Y230927D01*
X416554Y232000D01*
X416341Y233073D01*
X415733Y233983D01*
X414823Y234590D01*
X413750Y234804D01*
D02*
G37*
G36*
X252500Y234554D02*
X251427Y234340D01*
X250517Y233733D01*
X249910Y232823D01*
X249696Y231750D01*
X249910Y230677D01*
X250517Y229767D01*
X251427Y229160D01*
X252500Y228946D01*
X253573Y229160D01*
X254483Y229767D01*
X255090Y230677D01*
X255304Y231750D01*
X255090Y232823D01*
X254483Y233733D01*
X253573Y234340D01*
X252500Y234554D01*
D02*
G37*
G36*
X36500Y237554D02*
X35427Y237340D01*
X34517Y236733D01*
X33910Y235823D01*
X33696Y234750D01*
X33910Y233677D01*
X34517Y232767D01*
Y231983D01*
X33910Y231073D01*
X33696Y230000D01*
X33910Y228927D01*
X34517Y228017D01*
X35427Y227410D01*
X36500Y227196D01*
X37573Y227410D01*
X38483Y228017D01*
X39090Y228927D01*
X39304Y230000D01*
X39090Y231073D01*
X38483Y231983D01*
Y232767D01*
X39090Y233677D01*
X39304Y234750D01*
X39090Y235823D01*
X38483Y236733D01*
X37573Y237340D01*
X36500Y237554D01*
D02*
G37*
G36*
X127000Y231579D02*
X125927Y231366D01*
X125017Y230758D01*
X124410Y229848D01*
X124196Y228775D01*
X124410Y227702D01*
X125017Y226793D01*
X125927Y226185D01*
X127000Y225971D01*
X128073Y226185D01*
X128983Y226793D01*
X129590Y227702D01*
X129804Y228775D01*
X129590Y229848D01*
X128983Y230758D01*
X128073Y231366D01*
X127000Y231579D01*
D02*
G37*
G36*
X456300Y231054D02*
X455227Y230840D01*
X454317Y230233D01*
X453710Y229323D01*
X453496Y228250D01*
X453710Y227177D01*
X454317Y226267D01*
X455227Y225660D01*
X456300Y225446D01*
X457373Y225660D01*
X458283Y226267D01*
X458890Y227177D01*
X459104Y228250D01*
X458890Y229323D01*
X458283Y230233D01*
X457373Y230840D01*
X456300Y231054D01*
D02*
G37*
G36*
X395750Y225054D02*
X394677Y224841D01*
X393768Y224233D01*
X392624Y224807D01*
X392573Y224840D01*
X391500Y225054D01*
X390427Y224840D01*
X389517Y224233D01*
X388910Y223323D01*
X388696Y222250D01*
X388910Y221177D01*
X389517Y220267D01*
X390427Y219660D01*
X391500Y219446D01*
X392573Y219660D01*
X393483Y220267D01*
X394627Y219693D01*
X394677Y219660D01*
X395750Y219446D01*
X396823Y219660D01*
X397733Y220267D01*
X398340Y221177D01*
X398554Y222250D01*
X398340Y223323D01*
X397733Y224233D01*
X396823Y224841D01*
X395750Y225054D01*
D02*
G37*
G36*
X227750Y228054D02*
X226677Y227840D01*
X225767Y227233D01*
X225160Y226323D01*
X224946Y225250D01*
X225160Y224177D01*
X225767Y223267D01*
X226677Y222660D01*
X227750Y222446D01*
X228823Y222660D01*
X229733Y223267D01*
X230340Y224177D01*
X230554Y225250D01*
X230340Y226323D01*
X229733Y227233D01*
X228823Y227840D01*
X227750Y228054D01*
D02*
G37*
G36*
X214250Y226404D02*
X213177Y226190D01*
X212267Y225583D01*
X211660Y224673D01*
X211446Y223600D01*
X211660Y222527D01*
X212267Y221617D01*
X213177Y221010D01*
X214250Y220796D01*
X215323Y221010D01*
X216233Y221617D01*
X216840Y222527D01*
X217054Y223600D01*
X216840Y224673D01*
X216233Y225583D01*
X215323Y226190D01*
X214250Y226404D01*
D02*
G37*
G36*
X11500Y226304D02*
X10427Y226091D01*
X9517Y225483D01*
X8910Y224573D01*
X8696Y223500D01*
X8910Y222427D01*
X9517Y221517D01*
X10427Y220910D01*
X11500Y220696D01*
X12573Y220910D01*
X13483Y221517D01*
X14090Y222427D01*
X14304Y223500D01*
X14090Y224573D01*
X13483Y225483D01*
X12573Y226091D01*
X11500Y226304D01*
D02*
G37*
G36*
X49750Y225804D02*
X48677Y225590D01*
X47767Y224983D01*
X47160Y224073D01*
X46946Y223000D01*
X47160Y221927D01*
X47767Y221017D01*
X48677Y220410D01*
X49750Y220196D01*
X50823Y220410D01*
X51733Y221017D01*
X52340Y221927D01*
X52554Y223000D01*
X52340Y224073D01*
X51733Y224983D01*
X50823Y225590D01*
X49750Y225804D01*
D02*
G37*
G36*
X35250Y220054D02*
X34177Y219840D01*
X33781Y219576D01*
X32875Y219336D01*
X31969Y219576D01*
X31573Y219840D01*
X30500Y220054D01*
X29427Y219840D01*
X28517Y219233D01*
X27910Y218323D01*
X27696Y217250D01*
X27910Y216177D01*
X28517Y215267D01*
X29427Y214660D01*
X30500Y214446D01*
X31573Y214660D01*
X31969Y214924D01*
X32875Y215164D01*
X33781Y214924D01*
X34177Y214660D01*
X35250Y214446D01*
X36323Y214660D01*
X37233Y215267D01*
X37840Y216177D01*
X38054Y217250D01*
X37840Y218323D01*
X37233Y219233D01*
X36323Y219840D01*
X35250Y220054D01*
D02*
G37*
G36*
X444000Y224804D02*
X442927Y224590D01*
X442017Y223983D01*
X441410Y223073D01*
X441196Y222000D01*
X441410Y220927D01*
X442017Y220017D01*
X442927Y219410D01*
X444000Y219196D01*
X445073Y219410D01*
X445983Y220017D01*
X446590Y220927D01*
X446804Y222000D01*
X446590Y223073D01*
X445983Y223983D01*
X445073Y224590D01*
X444000Y224804D01*
D02*
G37*
G36*
X317250Y224354D02*
X316177Y224140D01*
X315268Y223533D01*
X314660Y222623D01*
X314446Y221550D01*
X314660Y220477D01*
X315268Y219567D01*
X316177Y218960D01*
X317250Y218746D01*
X318323Y218960D01*
X319233Y219567D01*
X319841Y220477D01*
X320054Y221550D01*
X319841Y222623D01*
X319233Y223533D01*
X318323Y224140D01*
X317250Y224354D01*
D02*
G37*
G36*
X260500Y227304D02*
X259427Y227090D01*
X258517Y226483D01*
X257910Y225573D01*
X257696Y224500D01*
X257910Y223427D01*
X258048Y223219D01*
X257885Y221952D01*
X257634Y221728D01*
X256967Y221283D01*
X256360Y220373D01*
X256146Y219300D01*
X256360Y218227D01*
X256967Y217317D01*
X257877Y216710D01*
X258950Y216496D01*
X260023Y216710D01*
X260933Y217317D01*
X261541Y218227D01*
X261754Y219300D01*
X261541Y220373D01*
X261402Y220581D01*
X261565Y221848D01*
X261816Y222072D01*
X262483Y222517D01*
X263090Y223427D01*
X263304Y224500D01*
X263090Y225573D01*
X262483Y226483D01*
X261573Y227090D01*
X260500Y227304D01*
D02*
G37*
G36*
X347250Y221804D02*
X346177Y221590D01*
X345267Y220983D01*
X344660Y220073D01*
X344446Y219000D01*
X344660Y217927D01*
X345267Y217017D01*
X346177Y216410D01*
X347250Y216196D01*
X348323Y216410D01*
X349233Y217017D01*
X349840Y217927D01*
X350054Y219000D01*
X349840Y220073D01*
X349233Y220983D01*
X348323Y221590D01*
X347250Y221804D01*
D02*
G37*
G36*
X102000Y220540D02*
X100927Y220326D01*
X100017Y219718D01*
X99410Y218809D01*
X99196Y217736D01*
X99410Y216663D01*
X100017Y215753D01*
X100927Y215145D01*
X102000Y214932D01*
X103073Y215145D01*
X103983Y215753D01*
X104590Y216663D01*
X104804Y217736D01*
X104590Y218809D01*
X103983Y219718D01*
X103073Y220326D01*
X102000Y220540D01*
D02*
G37*
G36*
X-5750Y220304D02*
X-6823Y220090D01*
X-7733Y219483D01*
X-8340Y218573D01*
X-8554Y217500D01*
X-8340Y216427D01*
X-7733Y215517D01*
X-6823Y214910D01*
X-5750Y214696D01*
X-4677Y214910D01*
X-3767Y215517D01*
X-3160Y216427D01*
X-2946Y217500D01*
X-3160Y218573D01*
X-3767Y219483D01*
X-4677Y220090D01*
X-5750Y220304D01*
D02*
G37*
G36*
X119250Y219179D02*
X118177Y218965D01*
X117267Y218358D01*
X116660Y217448D01*
X116446Y216375D01*
X116660Y215302D01*
X117267Y214392D01*
X118177Y213785D01*
X119250Y213571D01*
X120323Y213785D01*
X121233Y214392D01*
X121840Y215302D01*
X122054Y216375D01*
X121840Y217448D01*
X121233Y218358D01*
X120323Y218965D01*
X119250Y219179D01*
D02*
G37*
G36*
X178000Y218304D02*
X176927Y218090D01*
X176017Y217482D01*
X175410Y216573D01*
X175196Y215500D01*
X175410Y214427D01*
X176017Y213517D01*
X176927Y212909D01*
X178000Y212696D01*
X179073Y212909D01*
X179983Y213517D01*
X180590Y214427D01*
X180804Y215500D01*
X180590Y216573D01*
X179983Y217482D01*
X179073Y218090D01*
X178000Y218304D01*
D02*
G37*
G36*
X274750Y217054D02*
X273677Y216840D01*
X272767Y216233D01*
X272160Y215323D01*
X271946Y214250D01*
X272160Y213177D01*
X272767Y212267D01*
X273677Y211660D01*
X274750Y211446D01*
X275823Y211660D01*
X276733Y212267D01*
X277340Y213177D01*
X277554Y214250D01*
X277340Y215323D01*
X276733Y216233D01*
X275823Y216840D01*
X274750Y217054D01*
D02*
G37*
G36*
X92500Y216804D02*
X91427Y216590D01*
X90517Y215983D01*
X89910Y215073D01*
X89696Y214000D01*
X89910Y212927D01*
X90517Y212017D01*
X91427Y211410D01*
X92500Y211196D01*
X93573Y211410D01*
X94483Y212017D01*
X95090Y212927D01*
X95304Y214000D01*
X95090Y215073D01*
X94483Y215983D01*
X93573Y216590D01*
X92500Y216804D01*
D02*
G37*
G36*
X130250Y216304D02*
X129177Y216090D01*
X128267Y215483D01*
X127660Y214573D01*
X127446Y213500D01*
X127660Y212427D01*
X128267Y211517D01*
X129177Y210910D01*
X130250Y210696D01*
X131323Y210910D01*
X132233Y211517D01*
X132840Y212427D01*
X133054Y213500D01*
X132840Y214573D01*
X132233Y215483D01*
X131323Y216090D01*
X130250Y216304D01*
D02*
G37*
G36*
X349000Y215054D02*
X347927Y214840D01*
X347017Y214233D01*
X346410Y213323D01*
X346196Y212250D01*
X346410Y211177D01*
X347017Y210267D01*
X347927Y209660D01*
X349000Y209446D01*
X350073Y209660D01*
X350983Y210267D01*
X351590Y211177D01*
X351804Y212250D01*
X351590Y213323D01*
X350983Y214233D01*
X350073Y214840D01*
X349000Y215054D01*
D02*
G37*
G36*
X232000Y214054D02*
X230927Y213840D01*
X230017Y213233D01*
X229410Y212323D01*
X229196Y211250D01*
X229410Y210177D01*
X230017Y209267D01*
X230927Y208660D01*
X232000Y208446D01*
X233073Y208660D01*
X233983Y209267D01*
X234590Y210177D01*
X234804Y211250D01*
X234590Y212323D01*
X233983Y213233D01*
X233073Y213840D01*
X232000Y214054D01*
D02*
G37*
G36*
X2250Y212804D02*
X1177Y212590D01*
X267Y211983D01*
X-340Y211073D01*
X-554Y210000D01*
X-340Y208927D01*
X267Y208017D01*
X1177Y207410D01*
X2250Y207196D01*
X3323Y207410D01*
X4233Y208017D01*
X4840Y208927D01*
X5054Y210000D01*
X4840Y211073D01*
X4233Y211983D01*
X3323Y212590D01*
X2250Y212804D01*
D02*
G37*
G36*
X155500Y218804D02*
X154427Y218590D01*
X153517Y217983D01*
X152910Y217073D01*
X152696Y216000D01*
X152910Y214927D01*
X153059Y214704D01*
X153417Y213750D01*
X153059Y212796D01*
X152910Y212573D01*
X152696Y211500D01*
X152910Y210427D01*
X153517Y209517D01*
X154427Y208910D01*
X155500Y208696D01*
X156280Y208851D01*
X157660Y208427D01*
X158267Y207517D01*
X159177Y206910D01*
X160250Y206696D01*
X161323Y206910D01*
X162233Y207517D01*
X162840Y208427D01*
X163054Y209500D01*
X162840Y210573D01*
X162233Y211483D01*
X161323Y212090D01*
X160250Y212304D01*
X159470Y212149D01*
X158090Y212573D01*
X157941Y212796D01*
X157583Y213750D01*
X157941Y214704D01*
X158090Y214927D01*
X158304Y216000D01*
X158090Y217073D01*
X157483Y217983D01*
X156573Y218590D01*
X155500Y218804D01*
D02*
G37*
G36*
X428250Y211054D02*
X427177Y210840D01*
X426267Y210233D01*
X425660Y209323D01*
X425446Y208250D01*
X425660Y207177D01*
X426267Y206267D01*
X427177Y205660D01*
X428250Y205446D01*
X429323Y205660D01*
X430233Y206267D01*
X430840Y207177D01*
X431054Y208250D01*
X430840Y209323D01*
X430233Y210233D01*
X429323Y210840D01*
X428250Y211054D01*
D02*
G37*
G36*
X266050Y216504D02*
X264977Y216290D01*
X264067Y215683D01*
X263460Y214773D01*
X263246Y213700D01*
X263460Y212627D01*
X263870Y212013D01*
X264012Y211546D01*
X263661Y210462D01*
X263317Y210233D01*
X262710Y209323D01*
X262496Y208250D01*
X262710Y207177D01*
X263317Y206267D01*
X264227Y205660D01*
X265300Y205446D01*
X266373Y205660D01*
X267283Y206267D01*
X267890Y207177D01*
X268104Y208250D01*
X267890Y209323D01*
X267480Y209937D01*
X267338Y210403D01*
X267689Y211488D01*
X268033Y211717D01*
X268640Y212627D01*
X268854Y213700D01*
X268640Y214773D01*
X268033Y215683D01*
X267123Y216290D01*
X266050Y216504D01*
D02*
G37*
G36*
X254700Y211054D02*
X253627Y210840D01*
X252717Y210233D01*
X252110Y209323D01*
X251896Y208250D01*
X252110Y207177D01*
X252717Y206267D01*
X253627Y205660D01*
X254700Y205446D01*
X255773Y205660D01*
X256682Y206267D01*
X257290Y207177D01*
X257504Y208250D01*
X257290Y209323D01*
X256682Y210233D01*
X255773Y210840D01*
X254700Y211054D01*
D02*
G37*
G36*
X246250Y214804D02*
X245177Y214590D01*
X244267Y213983D01*
X243660Y213073D01*
X243446Y212000D01*
X243448Y211990D01*
X243497Y210881D01*
X242526Y210610D01*
X242427Y210590D01*
X241517Y209983D01*
X240910Y209073D01*
X240696Y208000D01*
X240910Y206927D01*
X241517Y206017D01*
X242427Y205410D01*
X243500Y205196D01*
X244573Y205410D01*
X245483Y206017D01*
X246090Y206927D01*
X246304Y208000D01*
X246302Y208010D01*
X246253Y209118D01*
X247224Y209390D01*
X247323Y209410D01*
X248233Y210017D01*
X248840Y210927D01*
X249054Y212000D01*
X248840Y213073D01*
X248233Y213983D01*
X247323Y214590D01*
X246250Y214804D01*
D02*
G37*
G36*
X91393Y209933D02*
X90320Y209720D01*
X89411Y209112D01*
X88803Y208202D01*
X88589Y207129D01*
X88803Y206056D01*
X89411Y205147D01*
X90320Y204539D01*
X91393Y204325D01*
X92466Y204539D01*
X93376Y205147D01*
X93984Y206056D01*
X94197Y207129D01*
X93984Y208202D01*
X93376Y209112D01*
X92466Y209720D01*
X91393Y209933D01*
D02*
G37*
G36*
X217500Y209191D02*
X216427Y208977D01*
X215517Y208370D01*
X214910Y207460D01*
X214696Y206387D01*
X214910Y205314D01*
X215517Y204404D01*
X216427Y203796D01*
X217500Y203583D01*
X218573Y203796D01*
X219483Y204404D01*
X220091Y205314D01*
X220304Y206387D01*
X220091Y207460D01*
X219483Y208370D01*
X218573Y208977D01*
X217500Y209191D01*
D02*
G37*
G36*
X100169Y208229D02*
X99096Y208016D01*
X98186Y207408D01*
X97578Y206498D01*
X97365Y205425D01*
X97578Y204352D01*
X98186Y203442D01*
X99096Y202835D01*
X100169Y202621D01*
X101242Y202835D01*
X102151Y203442D01*
X102759Y204352D01*
X102972Y205425D01*
X102759Y206498D01*
X102151Y207408D01*
X101242Y208016D01*
X100169Y208229D01*
D02*
G37*
G36*
X128500Y208054D02*
X127427Y207840D01*
X126517Y207233D01*
X125910Y206323D01*
X125696Y205250D01*
X125910Y204177D01*
X126517Y203267D01*
X127427Y202660D01*
X128500Y202446D01*
X129573Y202660D01*
X130483Y203267D01*
X131090Y204177D01*
X131304Y205250D01*
X131090Y206323D01*
X130483Y207233D01*
X129573Y207840D01*
X128500Y208054D01*
D02*
G37*
G36*
X337250Y207230D02*
X336177Y207017D01*
X335267Y206409D01*
X334660Y205499D01*
X334446Y204426D01*
X334660Y203353D01*
X335267Y202443D01*
X336177Y201836D01*
X337250Y201622D01*
X338323Y201836D01*
X339232Y202443D01*
X339840Y203353D01*
X340054Y204426D01*
X339840Y205499D01*
X339232Y206409D01*
X338323Y207017D01*
X337250Y207230D01*
D02*
G37*
G36*
X449250Y209304D02*
X448177Y209090D01*
X447267Y208483D01*
X446660Y207573D01*
X446446Y206500D01*
X446660Y205427D01*
X447267Y204517D01*
X448177Y203910D01*
X448807Y203784D01*
X449946Y203000D01*
X450160Y201927D01*
X450767Y201017D01*
X451677Y200410D01*
X452750Y200196D01*
X453823Y200410D01*
X454733Y201017D01*
X455340Y201927D01*
X455554Y203000D01*
X455340Y204073D01*
X454733Y204983D01*
X453823Y205590D01*
X453193Y205716D01*
X452054Y206500D01*
X451840Y207573D01*
X451233Y208483D01*
X450323Y209090D01*
X449250Y209304D01*
D02*
G37*
G36*
X79000Y203554D02*
X77927Y203340D01*
X77017Y202733D01*
X76410Y201823D01*
X76196Y200750D01*
X76410Y199677D01*
X77017Y198767D01*
X77927Y198160D01*
X79000Y197946D01*
X80073Y198160D01*
X80983Y198767D01*
X81590Y199677D01*
X81804Y200750D01*
X81590Y201823D01*
X80983Y202733D01*
X80073Y203340D01*
X79000Y203554D01*
D02*
G37*
G36*
X266025Y199545D02*
X264952Y199331D01*
X264042Y198723D01*
X263434Y197814D01*
X263342Y197351D01*
X262058D01*
X262041Y197379D01*
X261955Y197814D01*
X261347Y198723D01*
X260438Y199331D01*
X259365Y199545D01*
X258292Y199331D01*
X257382Y198723D01*
X256774Y197814D01*
X256561Y196741D01*
X256774Y195668D01*
X257382Y194758D01*
X258292Y194150D01*
X258755Y194058D01*
Y192763D01*
X258292Y192671D01*
X257382Y192063D01*
X256774Y191154D01*
X256688Y190720D01*
X256035Y189555D01*
X254962Y189341D01*
X254052Y188733D01*
X253444Y187824D01*
X253361Y187407D01*
X253352Y187360D01*
X252057D01*
X252048Y187407D01*
X251965Y187824D01*
X251357Y188733D01*
X250448Y189341D01*
X249375Y189555D01*
X248302Y189341D01*
X247392Y188733D01*
X246784Y187824D01*
X246571Y186751D01*
X246784Y185678D01*
X247392Y184768D01*
X248302Y184160D01*
X248718Y184077D01*
X248765Y184068D01*
Y182773D01*
X248718Y182764D01*
X248302Y182681D01*
X247392Y182073D01*
X246784Y181164D01*
X246571Y180091D01*
X245406Y179437D01*
X244972Y179351D01*
X244062Y178743D01*
X243454Y177834D01*
X243241Y176761D01*
X242076Y176107D01*
X241642Y176021D01*
X240732Y175413D01*
X240124Y174504D01*
X239911Y173431D01*
X240124Y172358D01*
X240732Y171448D01*
X241642Y170840D01*
X242076Y170754D01*
X243241Y170101D01*
X243454Y169028D01*
X244062Y168118D01*
X244972Y167510D01*
X245406Y167424D01*
X245435Y167407D01*
Y166134D01*
X245406Y166117D01*
X244972Y166031D01*
X244062Y165423D01*
X243454Y164514D01*
X243241Y163441D01*
X242715Y162914D01*
X241642Y162701D01*
X240732Y162093D01*
X240124Y161183D01*
X239911Y160111D01*
X240124Y159038D01*
X240732Y158128D01*
X241642Y157520D01*
X242076Y157434D01*
X243241Y156781D01*
X243454Y155708D01*
X244062Y154798D01*
X244972Y154190D01*
X245388Y154107D01*
X245435Y154098D01*
Y152803D01*
X245388Y152794D01*
X244972Y152711D01*
X244062Y152103D01*
X243454Y151194D01*
X243241Y150120D01*
X242715Y149594D01*
X241642Y149381D01*
X240732Y148773D01*
X240124Y147864D01*
X239911Y146791D01*
X239385Y146264D01*
X238312Y146051D01*
X237402Y145443D01*
X236794Y144533D01*
X236581Y143460D01*
X236794Y142387D01*
X237402Y141478D01*
X238312Y140870D01*
X239385Y140657D01*
X240458Y140870D01*
X241367Y141478D01*
X241975Y142387D01*
X242067Y142851D01*
X243362D01*
X243454Y142387D01*
X244062Y141478D01*
X244972Y140870D01*
X246045Y140657D01*
X247118Y140870D01*
X248027Y141478D01*
X248635Y142387D01*
X248848Y143460D01*
X248635Y144533D01*
X248027Y145443D01*
X247118Y146051D01*
X246654Y146143D01*
Y147438D01*
X247118Y147530D01*
X248027Y148138D01*
X248635Y149047D01*
X248718Y149464D01*
X248727Y149511D01*
X250022D01*
X250031Y149464D01*
X250114Y149047D01*
X250722Y148138D01*
X251632Y147530D01*
X252705Y147317D01*
X253778Y147530D01*
X254687Y148138D01*
X255295Y149047D01*
X255508Y150120D01*
X255295Y151193D01*
X254687Y152103D01*
X253778Y152711D01*
X253361Y152794D01*
X253314Y152803D01*
Y154098D01*
X253361Y154107D01*
X253778Y154190D01*
X254687Y154798D01*
X255295Y155708D01*
X255508Y156781D01*
X255295Y157853D01*
X254687Y158763D01*
X253778Y159371D01*
X252705Y159584D01*
X252178Y160111D01*
X251965Y161183D01*
X251357Y162093D01*
X250448Y162701D01*
X249984Y162793D01*
Y164077D01*
X250013Y164094D01*
X250448Y164180D01*
X251357Y164788D01*
X251965Y165698D01*
X252178Y166770D01*
X253343Y167424D01*
X253778Y167510D01*
X254687Y168118D01*
X255295Y169028D01*
X255508Y170101D01*
X255295Y171174D01*
X254687Y172083D01*
X253778Y172691D01*
X253344Y172777D01*
X253314Y172794D01*
Y174068D01*
X253344Y174084D01*
X253778Y174170D01*
X254687Y174778D01*
X255295Y175688D01*
X255508Y176761D01*
X255295Y177834D01*
X254687Y178743D01*
X253778Y179351D01*
X252705Y179564D01*
X252052Y180729D01*
X251965Y181164D01*
X251357Y182073D01*
X250448Y182681D01*
X250031Y182764D01*
X249984Y182773D01*
Y184068D01*
X250031Y184077D01*
X250448Y184160D01*
X251357Y184768D01*
X251965Y185678D01*
X252048Y186094D01*
X252057Y186141D01*
X253352D01*
X253361Y186094D01*
X253444Y185678D01*
X254052Y184768D01*
X254962Y184160D01*
X256035Y183947D01*
X257108Y184160D01*
X258017Y184768D01*
X258625Y185678D01*
X258711Y186112D01*
X259365Y187277D01*
X260438Y187490D01*
X261347Y188098D01*
X261955Y189008D01*
X262041Y189442D01*
X262695Y190607D01*
X263768Y190820D01*
X264677Y191428D01*
X265285Y192338D01*
X265371Y192772D01*
X266025Y193937D01*
X267098Y194150D01*
X268007Y194758D01*
X268615Y195668D01*
X268829Y196741D01*
X268615Y197814D01*
X268007Y198723D01*
X267098Y199331D01*
X266025Y199545D01*
D02*
G37*
G36*
X319305Y206205D02*
X318232Y205991D01*
X317322Y205383D01*
X316715Y204474D01*
X316501Y203401D01*
X315975Y202875D01*
X314902Y202661D01*
X313992Y202053D01*
X313385Y201144D01*
X313171Y200071D01*
X313385Y198998D01*
X313992Y198088D01*
X314902Y197480D01*
X315975Y197267D01*
X317048Y197480D01*
X317958Y198088D01*
X318565Y198998D01*
X318779Y200071D01*
X319305Y200597D01*
X320378Y200810D01*
X321288Y201418D01*
X321895Y202328D01*
X322109Y203401D01*
X321895Y204474D01*
X321288Y205383D01*
X320378Y205991D01*
X319305Y206205D01*
D02*
G37*
G36*
X89562Y197622D02*
X88489Y197409D01*
X87579Y196801D01*
X87107Y196094D01*
X86323Y195090D01*
X85250Y195304D01*
X84177Y195090D01*
X83267Y194483D01*
X82660Y193573D01*
X82446Y192500D01*
X82660Y191427D01*
X83267Y190517D01*
X84177Y189910D01*
X85250Y189696D01*
X86323Y189910D01*
X87233Y190517D01*
X87705Y191224D01*
X88489Y192228D01*
X89562Y192015D01*
X90635Y192228D01*
X91545Y192836D01*
X92152Y193745D01*
X92366Y194818D01*
X92152Y195891D01*
X91545Y196801D01*
X90635Y197409D01*
X89562Y197622D01*
D02*
G37*
G36*
X234000Y196346D02*
X232927Y196133D01*
X232017Y195525D01*
X231410Y194615D01*
X231196Y193542D01*
X231410Y192469D01*
X232017Y191560D01*
X232927Y190952D01*
X234000Y190738D01*
X235073Y190952D01*
X235983Y191560D01*
X236590Y192469D01*
X236804Y193542D01*
X236590Y194615D01*
X235983Y195525D01*
X235073Y196133D01*
X234000Y196346D01*
D02*
G37*
G36*
X292665Y206205D02*
X291592Y205991D01*
X290682Y205383D01*
X290075Y204474D01*
X289861Y203401D01*
X290075Y202328D01*
X290682Y201418D01*
X291592Y200810D01*
X292665Y200597D01*
X293191Y200071D01*
X293405Y198998D01*
X294012Y198088D01*
X294922Y197480D01*
X295338Y197397D01*
X295385Y197388D01*
Y196093D01*
X295338Y196084D01*
X294922Y196001D01*
X294012Y195393D01*
X293405Y194484D01*
X293318Y194049D01*
X292854Y193222D01*
X292026Y192757D01*
X291592Y192671D01*
X290682Y192063D01*
X290075Y191154D01*
X289982Y190690D01*
X288687D01*
X288595Y191154D01*
X287987Y192063D01*
X287078Y192671D01*
X286005Y192885D01*
X284932Y192671D01*
X284022Y192063D01*
X283414Y191154D01*
X283322Y190690D01*
X282027D01*
X281935Y191154D01*
X281327Y192063D01*
X280418Y192671D01*
X280001Y192754D01*
X279955Y192763D01*
Y194058D01*
X280001Y194067D01*
X280418Y194150D01*
X281327Y194758D01*
X281935Y195668D01*
X282149Y196741D01*
X281935Y197814D01*
X281327Y198723D01*
X280418Y199331D01*
X279345Y199545D01*
X278272Y199331D01*
X277362Y198723D01*
X276754Y197814D01*
X276541Y196741D01*
X276754Y195668D01*
X277362Y194758D01*
X278272Y194150D01*
X278688Y194067D01*
X278735Y194058D01*
Y192763D01*
X278688Y192754D01*
X278272Y192671D01*
X277362Y192063D01*
X276754Y191154D01*
X276541Y190081D01*
X276754Y189008D01*
X277362Y188098D01*
X278272Y187490D01*
X278706Y187404D01*
X279871Y186751D01*
X280084Y185678D01*
X280692Y184768D01*
X281602Y184160D01*
X282675Y183947D01*
X283748Y184160D01*
X284657Y184768D01*
X285265Y185678D01*
X285357Y186141D01*
X286652D01*
X286744Y185678D01*
X287352Y184768D01*
X288262Y184160D01*
X289335Y183947D01*
X290408Y184160D01*
X291318Y184768D01*
X291925Y185678D01*
X292139Y186751D01*
X293304Y187404D01*
X293738Y187490D01*
X294648Y188098D01*
X295255Y189008D01*
X295342Y189442D01*
X295806Y190270D01*
X296634Y190734D01*
X297068Y190820D01*
X297978Y191428D01*
X298585Y192338D01*
X298799Y193411D01*
X298585Y194484D01*
X297978Y195393D01*
X297068Y196001D01*
X296651Y196084D01*
X296605Y196093D01*
Y197388D01*
X296651Y197397D01*
X297068Y197480D01*
X297978Y198088D01*
X298585Y198998D01*
X298799Y200071D01*
X298585Y201144D01*
X297978Y202053D01*
X297068Y202661D01*
X295995Y202875D01*
X295469Y203401D01*
X295255Y204474D01*
X294648Y205383D01*
X293738Y205991D01*
X292665Y206205D01*
D02*
G37*
G36*
X427250Y194554D02*
X426177Y194340D01*
X425267Y193733D01*
X424660Y192823D01*
X424446Y191750D01*
X424660Y190677D01*
X425267Y189767D01*
X426177Y189160D01*
X427250Y188946D01*
X428323Y189160D01*
X429233Y189767D01*
X429841Y190677D01*
X430054Y191750D01*
X429841Y192823D01*
X429233Y193733D01*
X428323Y194340D01*
X427250Y194554D01*
D02*
G37*
G36*
X38250Y194054D02*
X37177Y193841D01*
X36267Y193233D01*
X35660Y192323D01*
X35446Y191250D01*
X35660Y190177D01*
X36267Y189267D01*
X37177Y188660D01*
X38250Y188446D01*
X39323Y188660D01*
X40233Y189267D01*
X40840Y190177D01*
X41054Y191250D01*
X40840Y192323D01*
X40233Y193233D01*
X39323Y193841D01*
X38250Y194054D01*
D02*
G37*
G36*
X46950Y193429D02*
X45877Y193215D01*
X44967Y192608D01*
X44360Y191698D01*
X44146Y190625D01*
X44360Y189552D01*
X44967Y188642D01*
X45877Y188035D01*
X46950Y187821D01*
X48023Y188035D01*
X48933Y188642D01*
X49540Y189552D01*
X49754Y190625D01*
X49540Y191698D01*
X48933Y192608D01*
X48023Y193215D01*
X46950Y193429D01*
D02*
G37*
G36*
X96990Y190195D02*
X95917Y189981D01*
X95007Y189374D01*
X94399Y188464D01*
X94266Y187793D01*
X94208Y187712D01*
X92673Y187750D01*
X92642Y187793D01*
X92509Y188464D01*
X91901Y189373D01*
X90991Y189981D01*
X89918Y190195D01*
X88846Y189981D01*
X87936Y189373D01*
X87328Y188464D01*
X87115Y187391D01*
X87328Y186318D01*
X87936Y185408D01*
X88846Y184800D01*
X89636Y183491D01*
X89521Y183047D01*
X89517Y183044D01*
X88846Y182910D01*
X87936Y182302D01*
X87328Y181393D01*
X87195Y180722D01*
X87018Y180475D01*
X85748D01*
X85571Y180722D01*
X85438Y181393D01*
X84830Y182302D01*
X83920Y182910D01*
X82847Y183124D01*
X81775Y182910D01*
X80865Y182302D01*
X80257Y181393D01*
X80044Y180320D01*
X80257Y179247D01*
X80865Y178337D01*
X81775Y177729D01*
X82087Y177667D01*
X82522Y176784D01*
X82087Y175901D01*
X81775Y175839D01*
X80865Y175231D01*
X80257Y174322D01*
X80124Y173651D01*
X79617Y172943D01*
X78910Y172437D01*
X78239Y172304D01*
X77329Y171696D01*
X76722Y170786D01*
X76588Y170115D01*
X75776Y168981D01*
X74703Y168768D01*
X73794Y168160D01*
X73186Y167251D01*
X72972Y166178D01*
X73186Y165105D01*
X73794Y164195D01*
X74703Y163587D01*
X75776Y163374D01*
X76849Y163587D01*
X77759Y164195D01*
X78367Y165105D01*
X78500Y165776D01*
X78677Y166023D01*
X79947D01*
X80124Y165776D01*
X80257Y165105D01*
X80865Y164195D01*
X81775Y163587D01*
X82847Y163374D01*
X83920Y163587D01*
X84830Y164195D01*
X85438Y165105D01*
X85651Y166178D01*
X85438Y167251D01*
X84830Y168160D01*
X83920Y168768D01*
X83242Y168903D01*
X82952Y169365D01*
X82946Y169389D01*
X83841Y170643D01*
X83920Y170658D01*
X84830Y171266D01*
X85438Y172176D01*
X85571Y172847D01*
X85748Y173094D01*
X87018D01*
X87195Y172847D01*
X87328Y172176D01*
X87936Y171266D01*
X88846Y170658D01*
X89919Y170445D01*
X90992Y170658D01*
X91901Y171266D01*
X92509Y172176D01*
X92722Y173249D01*
X92509Y174322D01*
X91901Y175231D01*
X90992Y175839D01*
X90320Y175973D01*
X90239Y176031D01*
X90278Y177565D01*
X90320Y177596D01*
X90991Y177729D01*
X91901Y178337D01*
X92509Y179247D01*
X92619Y179799D01*
X93244Y180014D01*
X94398Y179252D01*
X94399Y179247D01*
X95007Y178337D01*
X95917Y177729D01*
X96990Y177516D01*
X98063Y177729D01*
X98972Y178337D01*
X99580Y179247D01*
X99794Y180320D01*
X99580Y181393D01*
X98972Y182302D01*
X98063Y182910D01*
X97750Y182972D01*
X97315Y183855D01*
X97750Y184738D01*
X98063Y184800D01*
X98972Y185408D01*
X99580Y186318D01*
X99794Y187391D01*
X99580Y188464D01*
X98972Y189374D01*
X98063Y189981D01*
X96990Y190195D01*
D02*
G37*
G36*
X28750Y193304D02*
X27677Y193090D01*
X26767Y192483D01*
X26160Y191573D01*
X25946Y190500D01*
X26160Y189427D01*
X26767Y188517D01*
X27677Y187910D01*
X28750Y187696D01*
X29823Y187910D01*
X30733Y188517D01*
X31340Y189427D01*
X31554Y190500D01*
X31340Y191573D01*
X30733Y192483D01*
X29823Y193090D01*
X28750Y193304D01*
D02*
G37*
G36*
X350351Y192945D02*
X349278Y192732D01*
X348369Y192124D01*
X347761Y191215D01*
X347547Y190142D01*
X347761Y189069D01*
X348369Y188159D01*
X349278Y187551D01*
X350351Y187338D01*
X351424Y187551D01*
X352334Y188159D01*
X352942Y189069D01*
X353155Y190142D01*
X352942Y191215D01*
X352334Y192124D01*
X351424Y192732D01*
X350351Y192945D01*
D02*
G37*
G36*
X161750Y185554D02*
X160677Y185340D01*
X159767Y184733D01*
X158546Y185191D01*
X158323Y185340D01*
X157250Y185554D01*
X156177Y185340D01*
X155267Y184733D01*
X154660Y183823D01*
X154446Y182750D01*
X154660Y181677D01*
X155267Y180767D01*
X156177Y180160D01*
X157250Y179946D01*
X158323Y180160D01*
X159233Y180767D01*
X160454Y180309D01*
X160677Y180160D01*
X161750Y179946D01*
X162823Y180160D01*
X163733Y180767D01*
X164340Y181677D01*
X164554Y182750D01*
X164340Y183823D01*
X163733Y184733D01*
X162823Y185340D01*
X161750Y185554D01*
D02*
G37*
G36*
X104061Y190195D02*
X102988Y189981D01*
X102078Y189373D01*
X101470Y188464D01*
X101257Y187391D01*
X101470Y186318D01*
X102078Y185408D01*
X102988Y184800D01*
X104061Y184587D01*
X105134Y184800D01*
X106043Y185408D01*
X106651Y186318D01*
X106865Y187391D01*
X106651Y188464D01*
X106043Y189373D01*
X105134Y189981D01*
X104061Y190195D01*
D02*
G37*
G36*
X403900Y189804D02*
X402827Y189590D01*
X401917Y188983D01*
X401310Y188073D01*
X401096Y187000D01*
X401310Y185927D01*
X401917Y185017D01*
X402827Y184410D01*
X403900Y184196D01*
X404973Y184410D01*
X405882Y185017D01*
X406490Y185927D01*
X406704Y187000D01*
X406490Y188073D01*
X405882Y188983D01*
X404973Y189590D01*
X403900Y189804D01*
D02*
G37*
G36*
X322635Y189555D02*
X321562Y189341D01*
X320652Y188733D01*
X320045Y187824D01*
X319831Y186751D01*
X320045Y185678D01*
X320652Y184768D01*
X321562Y184160D01*
X322635Y183947D01*
X323708Y184160D01*
X324618Y184768D01*
X325225Y185678D01*
X325439Y186751D01*
X325225Y187824D01*
X324618Y188733D01*
X323708Y189341D01*
X322635Y189555D01*
D02*
G37*
G36*
X269355D02*
X268282Y189341D01*
X267372Y188733D01*
X266764Y187824D01*
X266551Y186751D01*
X266764Y185678D01*
X267372Y184768D01*
X268282Y184160D01*
X269355Y183947D01*
X270428Y184160D01*
X271337Y184768D01*
X271945Y185678D01*
X272159Y186751D01*
X271945Y187824D01*
X271337Y188733D01*
X270428Y189341D01*
X269355Y189555D01*
D02*
G37*
G36*
X150500Y189554D02*
X149427Y189340D01*
X148517Y188733D01*
X147910Y187823D01*
X147696Y186750D01*
X147910Y185677D01*
X148517Y184767D01*
X149427Y184160D01*
X150500Y183946D01*
X151573Y184160D01*
X152483Y184767D01*
X153090Y185677D01*
X153304Y186750D01*
X153090Y187823D01*
X152483Y188733D01*
X151573Y189340D01*
X150500Y189554D01*
D02*
G37*
G36*
X205500Y182304D02*
X204427Y182090D01*
X203517Y181483D01*
X203465Y181404D01*
X202833Y180609D01*
X201838Y181081D01*
X201823Y181090D01*
X200750Y181304D01*
X199677Y181090D01*
X198768Y180483D01*
X198160Y179573D01*
X197946Y178500D01*
X198160Y177427D01*
X198768Y176517D01*
X199677Y175910D01*
X200750Y175696D01*
X201823Y175910D01*
X202733Y176517D01*
X202785Y176596D01*
X203417Y177391D01*
X204412Y176919D01*
X204427Y176910D01*
X205500Y176696D01*
X206573Y176910D01*
X207483Y177517D01*
X208090Y178427D01*
X208304Y179500D01*
X208090Y180573D01*
X207483Y181483D01*
X206573Y182090D01*
X205500Y182304D01*
D02*
G37*
G36*
X170750Y185304D02*
X169677Y185091D01*
X168768Y184483D01*
X168160Y183573D01*
X167946Y182500D01*
X168160Y181427D01*
X168768Y180517D01*
X169677Y179910D01*
X170750Y179696D01*
X171823Y179910D01*
X172733Y180517D01*
X173340Y181427D01*
X173554Y182500D01*
X173340Y183573D01*
X172733Y184483D01*
X171823Y185091D01*
X170750Y185304D01*
D02*
G37*
G36*
X180000Y187804D02*
X178927Y187590D01*
X178017Y186983D01*
X177410Y186073D01*
X177196Y185000D01*
X177410Y183927D01*
X178017Y183017D01*
X178927Y182410D01*
X180000Y182196D01*
X180968Y182389D01*
X181160Y181427D01*
X181768Y180517D01*
X182677Y179909D01*
X183750Y179696D01*
X184823Y179909D01*
X185733Y180517D01*
X186341Y181427D01*
X186554Y182500D01*
X186341Y183573D01*
X185733Y184483D01*
X184823Y185090D01*
X183750Y185304D01*
X182782Y185111D01*
X182591Y186073D01*
X181983Y186983D01*
X181073Y187590D01*
X180000Y187804D01*
D02*
G37*
G36*
X394500Y189554D02*
X393427Y189340D01*
X392517Y188733D01*
X391910Y187823D01*
X391696Y186750D01*
X391910Y185677D01*
X392059Y185454D01*
X392417Y184500D01*
X392059Y183546D01*
X391910Y183323D01*
X391696Y182250D01*
X391910Y181177D01*
X392517Y180267D01*
X393427Y179660D01*
X394500Y179446D01*
X395573Y179660D01*
X396483Y180267D01*
X397090Y181177D01*
X397304Y182250D01*
X397090Y183323D01*
X396941Y183546D01*
X396583Y184500D01*
X396941Y185454D01*
X397090Y185677D01*
X397304Y186750D01*
X397090Y187823D01*
X396483Y188733D01*
X395573Y189340D01*
X394500Y189554D01*
D02*
G37*
G36*
X105167Y182767D02*
X104094Y182554D01*
X103185Y181946D01*
X102577Y181036D01*
X102364Y179963D01*
X102577Y178890D01*
X103185Y177981D01*
X104094Y177373D01*
X105167Y177159D01*
X106240Y177373D01*
X107150Y177981D01*
X107758Y178890D01*
X107971Y179963D01*
X107758Y181036D01*
X107150Y181946D01*
X106240Y182554D01*
X105167Y182767D01*
D02*
G37*
G36*
X422500Y179804D02*
X421427Y179590D01*
X420517Y178983D01*
X419910Y178073D01*
X419785Y177445D01*
X419578Y176951D01*
X418500Y176504D01*
X418250Y176554D01*
X417177Y176340D01*
X416267Y175733D01*
X415660Y174823D01*
X415446Y173750D01*
X415660Y172677D01*
X416267Y171767D01*
X417177Y171160D01*
X418250Y170946D01*
X419323Y171160D01*
X420233Y171767D01*
X420840Y172677D01*
X420965Y173305D01*
X421172Y173799D01*
X422250Y174246D01*
X422500Y174196D01*
X423573Y174410D01*
X424483Y175017D01*
X425090Y175927D01*
X425304Y177000D01*
X425090Y178073D01*
X424483Y178983D01*
X423573Y179590D01*
X422500Y179804D01*
D02*
G37*
G36*
X29250Y176804D02*
X28177Y176590D01*
X27267Y175983D01*
X25821Y176104D01*
X25323Y176437D01*
X24250Y176650D01*
X23177Y176437D01*
X22268Y175829D01*
X21660Y174919D01*
X21446Y173846D01*
X21660Y172773D01*
X22268Y171863D01*
X23177Y171256D01*
X24250Y171042D01*
X25323Y171256D01*
X26233Y171863D01*
X27679Y171742D01*
X28177Y171410D01*
X29250Y171196D01*
X30323Y171410D01*
X31233Y172017D01*
X31840Y172927D01*
X32054Y174000D01*
X31840Y175073D01*
X31233Y175983D01*
X30323Y176590D01*
X29250Y176804D01*
D02*
G37*
G36*
X113750Y181054D02*
X112677Y180840D01*
X111767Y180233D01*
X111159Y179323D01*
X110946Y178250D01*
X111159Y177177D01*
X111767Y176267D01*
X112677Y175660D01*
X113750Y175446D01*
X114823Y175660D01*
X115733Y176267D01*
X116340Y177177D01*
X116554Y178250D01*
X116340Y179323D01*
X115733Y180233D01*
X114823Y180840D01*
X113750Y181054D01*
D02*
G37*
G36*
X358550Y180054D02*
X357477Y179841D01*
X356567Y179233D01*
X355960Y178323D01*
X355746Y177250D01*
X355960Y176177D01*
X356567Y175268D01*
X357477Y174660D01*
X358550Y174446D01*
X359623Y174660D01*
X360533Y175268D01*
X361141Y176177D01*
X361354Y177250D01*
X361141Y178323D01*
X360533Y179233D01*
X359623Y179841D01*
X358550Y180054D01*
D02*
G37*
G36*
X440064Y179618D02*
X438992Y179405D01*
X438082Y178797D01*
X437474Y177887D01*
X437261Y176814D01*
X437474Y175741D01*
X438082Y174832D01*
X438992Y174224D01*
X440064Y174011D01*
X441137Y174224D01*
X442047Y174832D01*
X442655Y175741D01*
X442868Y176814D01*
X442655Y177887D01*
X442047Y178797D01*
X441137Y179405D01*
X440064Y179618D01*
D02*
G37*
G36*
X452757Y179554D02*
X451684Y179340D01*
X450775Y178733D01*
X450167Y177823D01*
X449953Y176750D01*
X450167Y175677D01*
X450775Y174767D01*
X451684Y174160D01*
X452757Y173946D01*
X453830Y174160D01*
X454740Y174767D01*
X455348Y175677D01*
X455561Y176750D01*
X455348Y177823D01*
X454740Y178733D01*
X453830Y179340D01*
X452757Y179554D01*
D02*
G37*
G36*
X214750Y179304D02*
X213677Y179090D01*
X212767Y178483D01*
X212160Y177573D01*
X211946Y176500D01*
X212160Y175427D01*
X212767Y174517D01*
X213677Y173910D01*
X214750Y173696D01*
X215823Y173910D01*
X216733Y174517D01*
X217340Y175427D01*
X217554Y176500D01*
X217340Y177573D01*
X216733Y178483D01*
X215823Y179090D01*
X214750Y179304D01*
D02*
G37*
G36*
X172750Y178054D02*
X171677Y177840D01*
X170767Y177232D01*
X170160Y176323D01*
X169946Y175250D01*
X170160Y174177D01*
X170767Y173267D01*
X171677Y172659D01*
X172750Y172446D01*
X173823Y172659D01*
X174733Y173267D01*
X175341Y174177D01*
X175554Y175250D01*
X175341Y176323D01*
X174733Y177232D01*
X173823Y177840D01*
X172750Y178054D01*
D02*
G37*
G36*
X404000Y180804D02*
X402927Y180590D01*
X402017Y179983D01*
X401410Y179073D01*
X401196Y178000D01*
X401410Y176927D01*
X402017Y176017D01*
X402927Y175410D01*
X403304Y174040D01*
X403246Y173750D01*
X403460Y172677D01*
X404068Y171767D01*
X404977Y171160D01*
X406050Y170946D01*
X407123Y171160D01*
X408033Y171767D01*
X408641Y172677D01*
X408854Y173750D01*
X408641Y174823D01*
X408033Y175733D01*
X407123Y176340D01*
X406746Y177710D01*
X406804Y178000D01*
X406590Y179073D01*
X405983Y179983D01*
X405073Y180590D01*
X404000Y180804D01*
D02*
G37*
G36*
X332625Y192884D02*
X331552Y192671D01*
X330643Y192063D01*
X330035Y191154D01*
X329821Y190081D01*
X330035Y189007D01*
X330643Y188098D01*
X331552Y187490D01*
X331969Y187407D01*
X332015Y187398D01*
Y186103D01*
X331969Y186094D01*
X331552Y186011D01*
X330643Y185403D01*
X330035Y184493D01*
X329821Y183421D01*
X329295Y182894D01*
X328222Y182681D01*
X327313Y182073D01*
X326705Y181163D01*
X326491Y180090D01*
X326705Y179017D01*
X327313Y178108D01*
X328222Y177500D01*
X328639Y177417D01*
X328685Y177408D01*
Y176113D01*
X328639Y176104D01*
X328222Y176021D01*
X327313Y175413D01*
X326705Y174503D01*
X326491Y173430D01*
X326705Y172357D01*
X327313Y171448D01*
X328222Y170840D01*
X329295Y170627D01*
X329948Y169462D01*
X330035Y169027D01*
X330643Y168118D01*
X331552Y167510D01*
X332625Y167297D01*
X333151Y166770D01*
X333365Y165697D01*
X333973Y164788D01*
X334882Y164180D01*
X335299Y164097D01*
X335345Y164088D01*
Y162793D01*
X335299Y162784D01*
X334882Y162701D01*
X333973Y162093D01*
X333365Y161183D01*
X333305Y160881D01*
X332010D01*
X331965Y161103D01*
X331358Y162013D01*
X330448Y162621D01*
X329375Y162834D01*
X328302Y162621D01*
X327392Y162013D01*
X326785Y161103D01*
X326571Y160030D01*
X326785Y158957D01*
X327392Y158048D01*
X328302Y157440D01*
X328524Y157396D01*
Y156101D01*
X328222Y156041D01*
X327313Y155433D01*
X326705Y154523D01*
X326491Y153450D01*
X326705Y152377D01*
X327313Y151468D01*
X328222Y150860D01*
X328685Y150768D01*
Y149473D01*
X328222Y149381D01*
X327313Y148773D01*
X326705Y147863D01*
X326491Y146790D01*
X326705Y145717D01*
X327313Y144808D01*
X328222Y144200D01*
X329295Y143986D01*
X330368Y144200D01*
X331278Y144808D01*
X331885Y145717D01*
X331978Y146180D01*
X333273D01*
X333365Y145717D01*
X333973Y144808D01*
X334882Y144200D01*
X335299Y144117D01*
X335345Y144108D01*
Y142813D01*
X335299Y142803D01*
X334882Y142721D01*
X333973Y142113D01*
X333365Y141203D01*
X333151Y140130D01*
X333365Y139057D01*
X333973Y138148D01*
X334882Y137540D01*
X335955Y137326D01*
X336481Y136800D01*
X336695Y135727D01*
X337303Y134818D01*
X338212Y134210D01*
X339285Y133996D01*
X340358Y134210D01*
X341268Y134818D01*
X341876Y135727D01*
X341958Y136144D01*
X341968Y136191D01*
X343263D01*
X343272Y136144D01*
X343355Y135727D01*
X343963Y134818D01*
X344872Y134210D01*
X345945Y133996D01*
X347018Y134210D01*
X347928Y134818D01*
X348536Y135727D01*
X348749Y136800D01*
X348536Y137873D01*
X347928Y138783D01*
X347018Y139391D01*
X345945Y139604D01*
X344872Y139391D01*
X343963Y138783D01*
X343355Y137873D01*
X343272Y137457D01*
X343263Y137410D01*
X341968D01*
X341958Y137457D01*
X341876Y137873D01*
X341268Y138783D01*
X340358Y139391D01*
X339285Y139604D01*
X338759Y140130D01*
X338546Y141203D01*
X337938Y142113D01*
X337028Y142721D01*
X336612Y142803D01*
X336565Y142813D01*
Y144108D01*
X336612Y144117D01*
X337028Y144200D01*
X337938Y144808D01*
X338546Y145717D01*
X338759Y146790D01*
X338546Y147863D01*
X337938Y148773D01*
X337028Y149381D01*
X336565Y149473D01*
Y150768D01*
X337028Y150860D01*
X337938Y151468D01*
X338546Y152377D01*
X338759Y153450D01*
X339285Y153976D01*
X340358Y154190D01*
X341268Y154798D01*
X341876Y155707D01*
X342089Y156780D01*
X342615Y157306D01*
X343688Y157520D01*
X344660Y157927D01*
X345267Y157017D01*
X346177Y156410D01*
X347250Y156196D01*
X348323Y156410D01*
X349233Y157017D01*
X349840Y157927D01*
X350054Y159000D01*
X349840Y160073D01*
X349233Y160983D01*
X348323Y161590D01*
X347250Y161804D01*
X346177Y161590D01*
X345206Y161183D01*
X344598Y162093D01*
X343688Y162701D01*
X342615Y162914D01*
X341542Y162701D01*
X340633Y162093D01*
X340025Y161183D01*
X339933Y160720D01*
X338638D01*
X338546Y161183D01*
X337938Y162093D01*
X337028Y162701D01*
X336612Y162784D01*
X336565Y162793D01*
Y164088D01*
X336612Y164097D01*
X337028Y164180D01*
X337938Y164788D01*
X338546Y165697D01*
X338759Y166770D01*
X338546Y167843D01*
X337938Y168753D01*
X337028Y169361D01*
X335955Y169574D01*
X335429Y170100D01*
X335215Y171173D01*
X334608Y172083D01*
X333698Y172691D01*
X332625Y172904D01*
X331972Y174069D01*
X331885Y174503D01*
X331278Y175413D01*
X330368Y176021D01*
X329952Y176104D01*
X329905Y176113D01*
Y177408D01*
X329952Y177417D01*
X330368Y177500D01*
X331278Y178108D01*
X331885Y179017D01*
X332099Y180090D01*
X332625Y180617D01*
X333698Y180830D01*
X334608Y181438D01*
X335215Y182347D01*
X335298Y182764D01*
X335308Y182811D01*
X336603D01*
X336612Y182764D01*
X336695Y182348D01*
X337303Y181438D01*
X338212Y180830D01*
X338629Y180747D01*
X338675Y180738D01*
Y179443D01*
X338629Y179434D01*
X338212Y179351D01*
X337303Y178743D01*
X336695Y177833D01*
X336481Y176760D01*
X336695Y175687D01*
X337303Y174778D01*
X338212Y174170D01*
X339285Y173957D01*
X339811Y173430D01*
X340025Y172357D01*
X340633Y171448D01*
X341542Y170840D01*
X342615Y170627D01*
X343688Y170840D01*
X344598Y171448D01*
X345206Y172357D01*
X345419Y173430D01*
X345206Y174503D01*
X344598Y175413D01*
X343688Y176021D01*
X342615Y176234D01*
X342089Y176760D01*
X341876Y177833D01*
X341268Y178743D01*
X340358Y179351D01*
X339942Y179434D01*
X339895Y179443D01*
Y180738D01*
X339942Y180747D01*
X340358Y180830D01*
X341268Y181438D01*
X341876Y182348D01*
X342089Y183421D01*
X341876Y184494D01*
X341268Y185403D01*
X340358Y186011D01*
X339285Y186224D01*
X338212Y186011D01*
X337303Y185403D01*
X336695Y184494D01*
X336612Y184077D01*
X336603Y184030D01*
X335308D01*
X335298Y184077D01*
X335215Y184493D01*
X334608Y185403D01*
X333698Y186011D01*
X333282Y186094D01*
X333235Y186103D01*
Y187398D01*
X333282Y187407D01*
X333698Y187490D01*
X334608Y188098D01*
X335215Y189007D01*
X335429Y190081D01*
X335215Y191154D01*
X334608Y192063D01*
X333698Y192671D01*
X332625Y192884D01*
D02*
G37*
G36*
X121346Y179196D02*
X120273Y178983D01*
X119364Y178375D01*
X118756Y177465D01*
X118542Y176392D01*
X118756Y175319D01*
X119364Y174410D01*
X120273Y173802D01*
X121346Y173588D01*
X122158Y172455D01*
X122291Y171784D01*
X122899Y170874D01*
X123809Y170266D01*
X124882Y170053D01*
X125955Y170266D01*
X126864Y170874D01*
X127472Y171784D01*
X127686Y172857D01*
X127472Y173930D01*
X126864Y174839D01*
X125955Y175447D01*
X124882Y175660D01*
X124070Y176794D01*
X123937Y177465D01*
X123329Y178375D01*
X122419Y178983D01*
X121346Y179196D01*
D02*
G37*
G36*
X96846Y176196D02*
X95773Y175983D01*
X94864Y175375D01*
X94256Y174465D01*
X94042Y173392D01*
X94256Y172319D01*
X94473Y171994D01*
X93966Y170598D01*
X93927Y170590D01*
X93017Y169983D01*
X92482Y169181D01*
X92262Y168981D01*
X91348Y168412D01*
X90275Y168625D01*
X89202Y168412D01*
X88293Y167804D01*
X87685Y166894D01*
X87471Y165821D01*
X87685Y164748D01*
X88293Y163839D01*
X89202Y163231D01*
X90275Y163017D01*
X91348Y163231D01*
X92258Y163839D01*
X92793Y164640D01*
X93013Y164840D01*
X93927Y165410D01*
X95000Y165196D01*
X96073Y165410D01*
X96983Y166017D01*
X97590Y166927D01*
X97804Y168000D01*
X97590Y169073D01*
X97373Y169398D01*
X97880Y170794D01*
X97919Y170802D01*
X98829Y171410D01*
X99437Y172319D01*
X99650Y173392D01*
X99437Y174465D01*
X98829Y175375D01*
X97919Y175983D01*
X96846Y176196D01*
D02*
G37*
G36*
X167000Y173554D02*
X165927Y173340D01*
X165018Y172733D01*
X164410Y171823D01*
X164196Y170750D01*
X164410Y169677D01*
X165018Y168767D01*
X165927Y168159D01*
X167000Y167946D01*
X168073Y168159D01*
X168983Y168767D01*
X169590Y169677D01*
X169804Y170750D01*
X169590Y171823D01*
X168983Y172733D01*
X168073Y173340D01*
X167000Y173554D01*
D02*
G37*
G36*
X231974Y173454D02*
X230901Y173240D01*
X229991Y172633D01*
X229384Y171723D01*
X229170Y170650D01*
X229384Y169577D01*
X229991Y168667D01*
X230901Y168060D01*
X231974Y167846D01*
X233047Y168060D01*
X233957Y168667D01*
X234564Y169577D01*
X234778Y170650D01*
X234564Y171723D01*
X233957Y172633D01*
X233047Y173240D01*
X231974Y173454D01*
D02*
G37*
G36*
X200250Y173304D02*
X199177Y173090D01*
X198267Y172483D01*
X197659Y171573D01*
X197446Y170500D01*
X197659Y169427D01*
X198267Y168517D01*
X199177Y167910D01*
X200250Y167696D01*
X201323Y167910D01*
X202233Y168517D01*
X202840Y169427D01*
X203054Y170500D01*
X202840Y171573D01*
X202233Y172483D01*
X201323Y173090D01*
X200250Y173304D01*
D02*
G37*
G36*
X207750Y173304D02*
X206677Y173090D01*
X205767Y172482D01*
X205160Y171573D01*
X204946Y170500D01*
X205160Y169427D01*
X205767Y168517D01*
X206677Y167910D01*
X207750Y167696D01*
X208823Y167910D01*
X209733Y168517D01*
X210340Y169427D01*
X210554Y170500D01*
X210340Y171573D01*
X209733Y172482D01*
X208823Y173090D01*
X207750Y173304D01*
D02*
G37*
G36*
X57951Y172665D02*
X56878Y172451D01*
X55968Y171843D01*
X55361Y170934D01*
X55147Y169861D01*
X55361Y168788D01*
X55968Y167878D01*
X56878Y167271D01*
X57951Y167057D01*
X59024Y167271D01*
X59934Y167878D01*
X60542Y168788D01*
X60755Y169861D01*
X60542Y170934D01*
X59934Y171843D01*
X59024Y172451D01*
X57951Y172665D01*
D02*
G37*
G36*
X114667Y207872D02*
X113594Y207659D01*
X112685Y207051D01*
X112077Y206141D01*
X111863Y205069D01*
X110730Y204257D01*
X110059Y204123D01*
X109149Y203516D01*
X108541Y202606D01*
X108408Y201935D01*
X107901Y201228D01*
X107194Y200721D01*
X106523Y200588D01*
X105614Y199980D01*
X105006Y199070D01*
X104792Y197997D01*
X104061Y197266D01*
X102988Y197052D01*
X102078Y196445D01*
X101470Y195535D01*
X101257Y194462D01*
X101470Y193389D01*
X102078Y192479D01*
X102988Y191872D01*
X104061Y191658D01*
X105134Y191872D01*
X106043Y192479D01*
X106651Y193389D01*
X106652Y193394D01*
X107806Y194156D01*
X108432Y193941D01*
X108541Y193389D01*
X109149Y192479D01*
X110059Y191871D01*
X110606Y191763D01*
X110744Y191735D01*
Y190440D01*
X110643Y190420D01*
X110415Y190375D01*
X109506Y189767D01*
X108898Y188857D01*
X108685Y187784D01*
X108898Y186711D01*
X109506Y185802D01*
X110415Y185194D01*
X111488Y184981D01*
X112561Y185194D01*
X113471Y185802D01*
X114079Y186711D01*
X114292Y187784D01*
X114079Y188857D01*
X113471Y189767D01*
X112561Y190375D01*
X112015Y190483D01*
X111876Y190511D01*
Y191806D01*
X111977Y191826D01*
X112205Y191871D01*
X113114Y192479D01*
X113722Y193389D01*
X113856Y194060D01*
X114032Y194307D01*
X115302D01*
X115479Y194060D01*
X115612Y193389D01*
X116220Y192479D01*
X117130Y191871D01*
X118203Y191658D01*
X119276Y191871D01*
X120185Y192479D01*
X120793Y193389D01*
X120927Y194060D01*
X121103Y194307D01*
X122373Y194307D01*
X122550Y194060D01*
X122683Y193389D01*
X123291Y192479D01*
X124201Y191871D01*
X125274Y191658D01*
X126086Y190525D01*
X126219Y189853D01*
X126827Y188944D01*
X127736Y188336D01*
X128809Y188123D01*
X129621Y186989D01*
X129755Y186318D01*
X130362Y185408D01*
X131272Y184800D01*
X131943Y184667D01*
X132650Y184161D01*
X133157Y183454D01*
X133290Y182782D01*
X133898Y181873D01*
X134808Y181265D01*
X135880Y181052D01*
X136692Y179918D01*
X136826Y179247D01*
X137433Y178337D01*
X138343Y177729D01*
X139014Y177596D01*
X140148Y176784D01*
X140361Y175711D01*
X140969Y174802D01*
X141879Y174194D01*
X142502Y174070D01*
X143107Y173778D01*
X143811Y172857D01*
X143897Y172426D01*
X144504Y171516D01*
X145414Y170908D01*
X146487Y170695D01*
X147010Y169993D01*
X147251Y169552D01*
X147432Y168640D01*
X148040Y167731D01*
X148950Y167123D01*
X150023Y166909D01*
X151096Y167123D01*
X152005Y167731D01*
X152613Y168640D01*
X152826Y169713D01*
X152613Y170786D01*
X152005Y171696D01*
X151096Y172304D01*
X150023Y172517D01*
X149499Y173219D01*
X149259Y173660D01*
X149078Y174572D01*
X148470Y175481D01*
X147560Y176089D01*
X146937Y176213D01*
X146332Y176506D01*
X145628Y177427D01*
X145542Y177857D01*
X144934Y178767D01*
X144025Y179375D01*
X143353Y179508D01*
X142220Y180320D01*
X142006Y181393D01*
X141399Y182302D01*
X140489Y182910D01*
X139811Y183045D01*
X139521Y183507D01*
X139514Y183531D01*
X140410Y184785D01*
X140489Y184800D01*
X141399Y185408D01*
X142006Y186318D01*
X142220Y187391D01*
X142006Y188464D01*
X141399Y189373D01*
X140489Y189981D01*
X139416Y190195D01*
X138343Y189981D01*
X137433Y189373D01*
X136826Y188464D01*
X136692Y187793D01*
X136634Y187712D01*
X135127D01*
X135069Y187793D01*
X134935Y188464D01*
X134328Y189373D01*
X133418Y189981D01*
X132345Y190195D01*
X131533Y191328D01*
X131400Y191999D01*
X130792Y192909D01*
X129882Y193517D01*
X128809Y193730D01*
X127998Y194864D01*
X127864Y195535D01*
X127256Y196444D01*
X126347Y197052D01*
X125274Y197266D01*
X124462Y198399D01*
X124329Y199070D01*
X123721Y199980D01*
X122811Y200588D01*
X122140Y200721D01*
X121433Y201228D01*
X120927Y201935D01*
X120793Y202606D01*
X120185Y203516D01*
X119276Y204123D01*
X118203Y204337D01*
X117391Y205470D01*
X117258Y206141D01*
X116650Y207051D01*
X115740Y207659D01*
X114667Y207872D01*
D02*
G37*
G36*
Y172517D02*
X113594Y172304D01*
X112685Y171696D01*
X112077Y170786D01*
X111863Y169713D01*
X112077Y168640D01*
X112685Y167731D01*
X113594Y167123D01*
X114667Y166909D01*
X115740Y167123D01*
X116650Y167731D01*
X117258Y168640D01*
X117471Y169713D01*
X117258Y170786D01*
X116650Y171696D01*
X115740Y172304D01*
X114667Y172517D01*
D02*
G37*
G36*
X438000Y167304D02*
X436927Y167090D01*
X436017Y166483D01*
X434796Y166941D01*
X434573Y167090D01*
X433500Y167304D01*
X432427Y167090D01*
X431517Y166483D01*
X430910Y165573D01*
X430696Y164500D01*
X430910Y163427D01*
X431517Y162517D01*
X432427Y161910D01*
X433500Y161696D01*
X434573Y161910D01*
X435483Y162517D01*
X436704Y162059D01*
X436927Y161910D01*
X438000Y161696D01*
X439073Y161910D01*
X439983Y162517D01*
X440590Y163427D01*
X440804Y164500D01*
X440590Y165573D01*
X439983Y166483D01*
X439073Y167090D01*
X438000Y167304D01*
D02*
G37*
G36*
X216500Y171804D02*
X215427Y171590D01*
X214517Y170983D01*
X213910Y170073D01*
X213696Y169000D01*
X213910Y167927D01*
X214517Y167017D01*
X215427Y166410D01*
X216500Y166196D01*
X217573Y166410D01*
X218483Y167017D01*
X219090Y167927D01*
X219304Y169000D01*
X219090Y170073D01*
X218483Y170983D01*
X217573Y171590D01*
X216500Y171804D01*
D02*
G37*
G36*
X6250Y171054D02*
X5177Y170840D01*
X4267Y170233D01*
X3660Y169323D01*
X3446Y168250D01*
X3660Y167177D01*
X4267Y166267D01*
X5177Y165660D01*
X6250Y165446D01*
X7323Y165660D01*
X8233Y166267D01*
X8840Y167177D01*
X9054Y168250D01*
X8840Y169323D01*
X8233Y170233D01*
X7323Y170840D01*
X6250Y171054D01*
D02*
G37*
G36*
X157094Y165446D02*
X156021Y165233D01*
X155111Y164625D01*
X154503Y163715D01*
X154290Y162642D01*
X153805Y162611D01*
X153558Y162661D01*
X152485Y162447D01*
X151575Y161839D01*
X150968Y160930D01*
X150754Y159857D01*
X150968Y158784D01*
X151575Y157874D01*
X152485Y157266D01*
X153558Y157053D01*
X154631Y157266D01*
X155541Y157874D01*
X156131Y158758D01*
X156152Y158786D01*
X156789Y159105D01*
X157948Y158492D01*
X158039Y158034D01*
X158647Y157124D01*
X159556Y156516D01*
X160347Y155207D01*
X160232Y154762D01*
X160227Y154760D01*
X159556Y154626D01*
X158647Y154018D01*
X158399Y153648D01*
X157026Y153488D01*
X156910Y153531D01*
X156073Y154090D01*
X155000Y154304D01*
X153927Y154090D01*
X153642Y153900D01*
X152587Y153837D01*
X152070Y154261D01*
X151755Y154733D01*
X150845Y155340D01*
X149773Y155554D01*
X148700Y155340D01*
X147790Y154733D01*
X147182Y153823D01*
X146073Y153090D01*
X145000Y153304D01*
X143927Y153090D01*
X143017Y152483D01*
X142410Y151573D01*
X142196Y150500D01*
X142410Y149427D01*
X143017Y148517D01*
X143927Y147910D01*
X145000Y147696D01*
X146073Y147910D01*
X146983Y148517D01*
X147590Y149427D01*
X148700Y150160D01*
X149773Y149946D01*
X150845Y150160D01*
X151130Y150350D01*
X152186Y150414D01*
X152702Y149989D01*
X153017Y149517D01*
X153927Y148910D01*
X155000Y148696D01*
X156073Y148910D01*
X156983Y149517D01*
X157230Y149887D01*
X158603Y150048D01*
X158719Y150004D01*
X159556Y149445D01*
X160227Y149312D01*
X160935Y148805D01*
X161441Y148098D01*
X161574Y147427D01*
X162182Y146517D01*
X163092Y145910D01*
X164165Y145696D01*
X165238Y145910D01*
X166147Y146517D01*
X166755Y147427D01*
X166889Y148098D01*
X167395Y148805D01*
X168102Y149312D01*
X168773Y149445D01*
X169683Y150053D01*
X170291Y150962D01*
X170504Y152036D01*
X170291Y153109D01*
X169683Y154018D01*
X168773Y154626D01*
X167700Y154839D01*
X166889Y155973D01*
X166755Y156644D01*
X166147Y157554D01*
X165238Y158161D01*
X164165Y158375D01*
X163353Y159508D01*
X163220Y160180D01*
X162612Y161089D01*
X161702Y161697D01*
X160629Y161910D01*
X159818Y163044D01*
X159684Y163715D01*
X159076Y164625D01*
X158167Y165233D01*
X157094Y165446D01*
D02*
G37*
G36*
X55000Y166054D02*
X53927Y165840D01*
X53017Y165233D01*
X52410Y164323D01*
X52196Y163250D01*
X52410Y162177D01*
X53017Y161267D01*
X53927Y160660D01*
X55000Y160446D01*
X56073Y160660D01*
X56983Y161267D01*
X57590Y162177D01*
X57804Y163250D01*
X57590Y164323D01*
X56983Y165233D01*
X56073Y165840D01*
X55000Y166054D01*
D02*
G37*
G36*
X114667Y165446D02*
X113594Y165233D01*
X112685Y164625D01*
X112077Y163715D01*
X111863Y162642D01*
X112077Y161569D01*
X112685Y160660D01*
X113594Y160052D01*
X114667Y159838D01*
X115740Y160052D01*
X116650Y160660D01*
X117258Y161569D01*
X117471Y162642D01*
X117258Y163715D01*
X116650Y164625D01*
X115740Y165233D01*
X114667Y165446D01*
D02*
G37*
G36*
X107596D02*
X106523Y165233D01*
X105614Y164625D01*
X105006Y163715D01*
X104792Y162642D01*
X105006Y161569D01*
X105614Y160660D01*
X106523Y160052D01*
X107596Y159838D01*
X108669Y160052D01*
X109579Y160660D01*
X110187Y161569D01*
X110400Y162642D01*
X110187Y163715D01*
X109579Y164625D01*
X108669Y165233D01*
X107596Y165446D01*
D02*
G37*
G36*
X68705Y161910D02*
X67632Y161697D01*
X66723Y161089D01*
X66115Y160180D01*
X65981Y159508D01*
X65924Y159427D01*
X64389Y159466D01*
X64358Y159508D01*
X64225Y160180D01*
X63617Y161089D01*
X62707Y161697D01*
X61634Y161910D01*
X60561Y161697D01*
X59652Y161089D01*
X59044Y160180D01*
X58830Y159107D01*
X59044Y158034D01*
X59652Y157124D01*
X60561Y156516D01*
X61233Y156383D01*
X61940Y155876D01*
X62446Y155169D01*
X62579Y154498D01*
X63187Y153588D01*
X64097Y152981D01*
X65170Y152767D01*
X66243Y152981D01*
X67152Y153588D01*
X67760Y154498D01*
X67894Y155169D01*
X68705Y156303D01*
X69778Y156516D01*
X70688Y157124D01*
X71296Y158034D01*
X71509Y159107D01*
X71296Y160180D01*
X70688Y161089D01*
X69778Y161697D01*
X68705Y161910D01*
D02*
G37*
G36*
X196500Y164804D02*
X195427Y164590D01*
X194517Y163983D01*
X193910Y163073D01*
X193696Y162000D01*
X193910Y160927D01*
X194517Y160017D01*
X195427Y159410D01*
X196500Y159196D01*
X197573Y159410D01*
X198483Y160017D01*
X199090Y160927D01*
X199304Y162000D01*
X199090Y163073D01*
X198483Y163983D01*
X197573Y164590D01*
X196500Y164804D01*
D02*
G37*
G36*
X146131Y163304D02*
X145057Y163090D01*
X144148Y162483D01*
X143540Y161573D01*
X143327Y160500D01*
X143540Y159427D01*
X144148Y158518D01*
X145057Y157910D01*
X146131Y157696D01*
X147204Y157910D01*
X148113Y158518D01*
X148721Y159427D01*
X148934Y160500D01*
X148721Y161573D01*
X148113Y162483D01*
X147204Y163090D01*
X146131Y163304D01*
D02*
G37*
G36*
X37500Y162804D02*
X36427Y162590D01*
X35517Y161983D01*
X34910Y161073D01*
X34696Y160000D01*
X34910Y158927D01*
X35517Y158017D01*
X36427Y157410D01*
X37500Y157196D01*
X38573Y157410D01*
X39483Y158017D01*
X40090Y158927D01*
X40304Y160000D01*
X40090Y161073D01*
X39483Y161983D01*
X38573Y162590D01*
X37500Y162804D01*
D02*
G37*
G36*
X75776Y161910D02*
X74703Y161697D01*
X73794Y161089D01*
X73186Y160180D01*
X72972Y159107D01*
X73186Y158034D01*
X73794Y157124D01*
X74703Y156516D01*
X75776Y156303D01*
X76849Y156516D01*
X77759Y157124D01*
X78367Y158034D01*
X78580Y159107D01*
X78367Y160180D01*
X77759Y161089D01*
X76849Y161697D01*
X75776Y161910D01*
D02*
G37*
G36*
X135488Y165054D02*
X134415Y164840D01*
X133506Y164233D01*
X132898Y163323D01*
X132684Y162250D01*
X132898Y161177D01*
X133506Y160267D01*
X134415Y159660D01*
X135488Y159446D01*
X136300Y158313D01*
X136433Y157641D01*
X137041Y156732D01*
X137951Y156124D01*
X139024Y155911D01*
X140097Y156124D01*
X141006Y156732D01*
X141614Y157641D01*
X141828Y158715D01*
X141614Y159788D01*
X141006Y160697D01*
X140097Y161305D01*
X139024Y161518D01*
X138212Y162652D01*
X138079Y163323D01*
X137471Y164233D01*
X136561Y164840D01*
X135488Y165054D01*
D02*
G37*
G36*
X128809Y158375D02*
X127736Y158161D01*
X126827Y157554D01*
X126219Y156644D01*
X126086Y155973D01*
X125909Y155726D01*
X124639D01*
X124462Y155973D01*
X124329Y156644D01*
X123721Y157554D01*
X122811Y158161D01*
X121738Y158375D01*
X120665Y158161D01*
X119756Y157554D01*
X119148Y156644D01*
X119014Y155973D01*
X118203Y154839D01*
X117130Y154626D01*
X116220Y154018D01*
X115612Y153109D01*
X115399Y152036D01*
X115612Y150962D01*
X116220Y150053D01*
X117130Y149445D01*
X118203Y149232D01*
X119276Y149445D01*
X120185Y150053D01*
X120793Y150962D01*
X120927Y151634D01*
X121103Y151880D01*
X122373D01*
X122550Y151634D01*
X122683Y150963D01*
X123291Y150053D01*
X124201Y149445D01*
X125274Y149232D01*
X126347Y149445D01*
X127256Y150053D01*
X127864Y150963D01*
X127998Y151634D01*
X128504Y152341D01*
X129211Y152847D01*
X129882Y152981D01*
X130792Y153588D01*
X131400Y154498D01*
X131613Y155571D01*
X131400Y156644D01*
X130792Y157554D01*
X129882Y158161D01*
X128809Y158375D01*
D02*
G37*
G36*
X-250Y168353D02*
X-1323Y168140D01*
X-2233Y167532D01*
X-2840Y166622D01*
X-3054Y165549D01*
X-2840Y164476D01*
X-2233Y163567D01*
Y162908D01*
X-2840Y161998D01*
X-3054Y160925D01*
X-2840Y159852D01*
X-2233Y158942D01*
X-1323Y158335D01*
X-250Y158121D01*
X868Y157134D01*
X910Y156927D01*
X1517Y156018D01*
X2427Y155410D01*
X3500Y155196D01*
X4573Y155410D01*
X5483Y156018D01*
X6090Y156927D01*
X6304Y158000D01*
X6090Y159073D01*
X5483Y159983D01*
X4573Y160590D01*
X3500Y160804D01*
X2382Y161791D01*
X2340Y161998D01*
X1733Y162908D01*
Y163567D01*
X2340Y164476D01*
X2554Y165549D01*
X2340Y166622D01*
X1733Y167532D01*
X823Y168140D01*
X-250Y168353D01*
D02*
G37*
G36*
X84704Y160054D02*
X83631Y159840D01*
X82722Y159233D01*
X82114Y158323D01*
X81900Y157250D01*
X82114Y156177D01*
X82722Y155267D01*
X83631Y154660D01*
X84704Y154446D01*
X85777Y154660D01*
X86687Y155267D01*
X87295Y156177D01*
X87508Y157250D01*
X87295Y158323D01*
X86687Y159233D01*
X85777Y159840D01*
X84704Y160054D01*
D02*
G37*
G36*
X100525Y158375D02*
X99452Y158161D01*
X98543Y157554D01*
X97935Y156644D01*
X97721Y155571D01*
X97935Y154498D01*
X98543Y153588D01*
X99452Y152981D01*
X100525Y152767D01*
X101598Y152981D01*
X102508Y153588D01*
X103116Y154498D01*
X103329Y155571D01*
X103116Y156644D01*
X102508Y157554D01*
X101598Y158161D01*
X100525Y158375D01*
D02*
G37*
G36*
X217500Y158054D02*
X216427Y157840D01*
X215517Y157233D01*
X214910Y156323D01*
X214696Y155250D01*
X214910Y154177D01*
X215517Y153267D01*
X216427Y152660D01*
X217500Y152446D01*
X218573Y152660D01*
X219483Y153267D01*
X220090Y154177D01*
X220304Y155250D01*
X220090Y156323D01*
X219483Y157233D01*
X218573Y157840D01*
X217500Y158054D01*
D02*
G37*
G36*
X49250Y156304D02*
X48177Y156090D01*
X47267Y155483D01*
X46660Y154573D01*
X46446Y153500D01*
X46660Y152427D01*
X47267Y151517D01*
X48177Y150910D01*
X49250Y150696D01*
X50323Y150910D01*
X51233Y151517D01*
X51840Y152427D01*
X52054Y153500D01*
X51840Y154573D01*
X51233Y155483D01*
X50323Y156090D01*
X49250Y156304D01*
D02*
G37*
G36*
X205500Y153304D02*
X204427Y153090D01*
X203517Y152483D01*
X202910Y151573D01*
X202696Y150500D01*
X202910Y149427D01*
X203517Y148517D01*
X204427Y147910D01*
X205500Y147696D01*
X206573Y147910D01*
X207483Y148517D01*
X208090Y149427D01*
X208304Y150500D01*
X208090Y151573D01*
X207483Y152483D01*
X206573Y153090D01*
X205500Y153304D01*
D02*
G37*
G36*
X373050Y151304D02*
X371977Y151090D01*
X371067Y150483D01*
X370460Y149573D01*
X370246Y148500D01*
X370460Y147427D01*
X371067Y146517D01*
X371977Y145910D01*
X373050Y145696D01*
X374123Y145910D01*
X375033Y146517D01*
X375640Y147427D01*
X375854Y148500D01*
X375640Y149573D01*
X375033Y150483D01*
X374123Y151090D01*
X373050Y151304D01*
D02*
G37*
G36*
X93454D02*
X92381Y151090D01*
X91471Y150483D01*
X90864Y149573D01*
X90650Y148500D01*
X90864Y147427D01*
X91471Y146517D01*
X92381Y145910D01*
X93454Y145696D01*
X94527Y145910D01*
X95437Y146517D01*
X96045Y147427D01*
X96258Y148500D01*
X96045Y149573D01*
X95437Y150483D01*
X94527Y151090D01*
X93454Y151304D01*
D02*
G37*
G36*
X439750Y152304D02*
X438677Y152091D01*
X437767Y151483D01*
X437160Y150573D01*
X436946Y149500D01*
X437160Y148427D01*
X437767Y147517D01*
X438677Y146910D01*
X439750Y146696D01*
X440145Y146775D01*
X440888Y146864D01*
X441942Y146130D01*
X442017Y146017D01*
X442927Y145410D01*
X444000Y145196D01*
X445073Y145410D01*
X445983Y146017D01*
X446590Y146927D01*
X446804Y148000D01*
X446590Y149073D01*
X445983Y149983D01*
X445073Y150590D01*
X444000Y150804D01*
X443605Y150725D01*
X442862Y150636D01*
X441808Y151370D01*
X441733Y151483D01*
X440823Y152091D01*
X439750Y152304D01*
D02*
G37*
G36*
X182509Y150054D02*
X181436Y149840D01*
X180526Y149233D01*
X179918Y148323D01*
X179705Y147250D01*
X179918Y146177D01*
X180526Y145267D01*
X181436Y144660D01*
X182509Y144446D01*
X183582Y144660D01*
X184492Y145267D01*
X185099Y146177D01*
X185313Y147250D01*
X185099Y148323D01*
X184492Y149233D01*
X183582Y149840D01*
X182509Y150054D01*
D02*
G37*
G36*
X12974D02*
X11901Y149840D01*
X10991Y149233D01*
X10383Y148323D01*
X10170Y147250D01*
X10383Y146177D01*
X10991Y145267D01*
X11901Y144660D01*
X12974Y144446D01*
X14047Y144660D01*
X14957Y145267D01*
X15564Y146177D01*
X15778Y147250D01*
X15564Y148323D01*
X14957Y149233D01*
X14047Y149840D01*
X12974Y150054D01*
D02*
G37*
G36*
X28500Y157304D02*
X27427Y157090D01*
X26517Y156483D01*
X25910Y155573D01*
X25696Y154500D01*
X25698Y154489D01*
X25177Y153090D01*
X24267Y152483D01*
X23660Y151573D01*
X23446Y150500D01*
X22803Y149857D01*
X21730Y149643D01*
X20820Y149036D01*
X20213Y148126D01*
X19999Y147053D01*
X20213Y145980D01*
X20820Y145070D01*
X21730Y144463D01*
X22803Y144249D01*
X23876Y144463D01*
X24786Y145070D01*
X25393Y145980D01*
X25607Y147053D01*
X26250Y147696D01*
X27323Y147910D01*
X28233Y148517D01*
X28840Y149427D01*
X29054Y150500D01*
X29052Y150511D01*
X29573Y151910D01*
X30483Y152517D01*
X31090Y153427D01*
X31304Y154500D01*
X31090Y155573D01*
X30483Y156483D01*
X29573Y157090D01*
X28500Y157304D01*
D02*
G37*
G36*
X-3000Y153804D02*
X-4073Y153590D01*
X-4983Y152983D01*
X-5590Y152073D01*
X-5804Y151000D01*
X-5996Y149832D01*
X-6733Y149658D01*
X-7073Y149591D01*
X-7983Y148983D01*
X-8590Y148073D01*
X-8804Y147000D01*
X-8590Y145927D01*
X-7983Y145017D01*
X-7073Y144410D01*
X-6000Y144196D01*
X-4927Y144410D01*
X-4017Y145017D01*
X-3410Y145927D01*
X-3196Y147000D01*
X-3005Y148168D01*
X-2267Y148342D01*
X-1927Y148410D01*
X-1017Y149017D01*
X-410Y149927D01*
X-196Y151000D01*
X-410Y152073D01*
X-1017Y152983D01*
X-1927Y153590D01*
X-3000Y153804D01*
D02*
G37*
G36*
X349509Y149054D02*
X348436Y148840D01*
X347527Y148233D01*
X346919Y147323D01*
X346706Y146250D01*
X346919Y145177D01*
X347527Y144267D01*
X348436Y143660D01*
X349509Y143446D01*
X350582Y143660D01*
X351492Y144267D01*
X352100Y145177D01*
X352313Y146250D01*
X352100Y147323D01*
X351492Y148233D01*
X350582Y148840D01*
X349509Y149054D01*
D02*
G37*
G36*
X76133Y148125D02*
X75060Y147911D01*
X74150Y147304D01*
X73543Y146394D01*
X73329Y145321D01*
X73543Y144248D01*
X74150Y143338D01*
X75060Y142731D01*
X76133Y142517D01*
X77206Y142731D01*
X78116Y143338D01*
X78724Y144248D01*
X78937Y145321D01*
X78724Y146394D01*
X78116Y147304D01*
X77206Y147911D01*
X76133Y148125D01*
D02*
G37*
G36*
X58099Y151304D02*
X57026Y151090D01*
X56116Y150483D01*
X55508Y149573D01*
X55375Y148902D01*
X54563Y147768D01*
X53490Y147555D01*
X52581Y146947D01*
X51973Y146038D01*
X51759Y144965D01*
X51973Y143891D01*
X52581Y142982D01*
X53490Y142374D01*
X54563Y142161D01*
X55636Y142374D01*
X56546Y142982D01*
X57154Y143891D01*
X57287Y144563D01*
X57793Y145270D01*
X58500Y145776D01*
X59172Y145910D01*
X60081Y146517D01*
X60689Y147427D01*
X60903Y148500D01*
X60689Y149573D01*
X60081Y150483D01*
X59172Y151090D01*
X58099Y151304D01*
D02*
G37*
G36*
X149337Y144918D02*
X148264Y144705D01*
X147354Y144097D01*
X146747Y143187D01*
X146533Y142114D01*
X146747Y141041D01*
X147354Y140132D01*
X148264Y139524D01*
X149337Y139311D01*
X150410Y139524D01*
X151320Y140132D01*
X151927Y141041D01*
X152141Y142114D01*
X151927Y143187D01*
X151320Y144097D01*
X150410Y144705D01*
X149337Y144918D01*
D02*
G37*
G36*
X431250Y149054D02*
X430177Y148840D01*
X429267Y148233D01*
X428660Y147323D01*
X428446Y146250D01*
X428660Y145177D01*
X428809Y144954D01*
X429167Y144000D01*
X428809Y143046D01*
X428660Y142823D01*
X428446Y141750D01*
X428660Y140677D01*
X429267Y139767D01*
X430177Y139160D01*
X431250Y138946D01*
X432323Y139160D01*
X433233Y139767D01*
X433840Y140677D01*
X434054Y141750D01*
X433840Y142823D01*
X433691Y143046D01*
X433333Y144000D01*
X433691Y144954D01*
X433840Y145177D01*
X434054Y146250D01*
X433840Y147323D01*
X433233Y148233D01*
X432323Y148840D01*
X431250Y149054D01*
D02*
G37*
G36*
X128809Y144233D02*
X127736Y144019D01*
X126827Y143412D01*
X126219Y142502D01*
X126006Y141429D01*
X126219Y140356D01*
X126827Y139446D01*
X127736Y138839D01*
X128809Y138625D01*
X129882Y138839D01*
X130792Y139446D01*
X131400Y140356D01*
X131613Y141429D01*
X131400Y142502D01*
X130792Y143412D01*
X129882Y144019D01*
X128809Y144233D01*
D02*
G37*
G36*
X121738D02*
X120665Y144019D01*
X119756Y143412D01*
X119148Y142502D01*
X118934Y141429D01*
X119148Y140356D01*
X119756Y139446D01*
X120665Y138839D01*
X121738Y138625D01*
X122811Y138839D01*
X123721Y139446D01*
X124329Y140356D01*
X124542Y141429D01*
X124329Y142502D01*
X123721Y143412D01*
X122811Y144019D01*
X121738Y144233D01*
D02*
G37*
G36*
X107596D02*
X106523Y144019D01*
X105614Y143412D01*
X105006Y142502D01*
X104792Y141429D01*
X105006Y140356D01*
X105614Y139446D01*
X106523Y138839D01*
X107596Y138625D01*
X108669Y138839D01*
X109579Y139446D01*
X110187Y140356D01*
X110400Y141429D01*
X110187Y142502D01*
X109579Y143412D01*
X108669Y144019D01*
X107596Y144233D01*
D02*
G37*
G36*
X100525D02*
X99452Y144019D01*
X98542Y143412D01*
X97935Y142502D01*
X97721Y141429D01*
X97935Y140356D01*
X98542Y139446D01*
X99452Y138839D01*
X100525Y138625D01*
X101598Y138839D01*
X102508Y139446D01*
X103116Y140356D01*
X103329Y141429D01*
X103116Y142502D01*
X102508Y143412D01*
X101598Y144019D01*
X100525Y144233D01*
D02*
G37*
G36*
X186621Y141675D02*
X185548Y141462D01*
X184639Y140854D01*
X184031Y139944D01*
X183818Y138871D01*
X182750Y138054D01*
X181677Y137840D01*
X180767Y137233D01*
X180712Y137150D01*
X180588Y137111D01*
X179243Y137237D01*
X178940Y137690D01*
X178030Y138298D01*
X176957Y138511D01*
X175884Y138298D01*
X174975Y137690D01*
X174367Y136780D01*
X174154Y135707D01*
X174367Y134634D01*
X174975Y133725D01*
X175884Y133117D01*
X176957Y132903D01*
X178030Y133117D01*
X178940Y133725D01*
X178995Y133807D01*
X179119Y133847D01*
X180465Y133720D01*
X180767Y133267D01*
X181677Y132660D01*
X182750Y132446D01*
X183823Y132660D01*
X184733Y133267D01*
X185340Y134177D01*
X185554Y135250D01*
X186621Y136068D01*
X187694Y136281D01*
X188604Y136889D01*
X189212Y137799D01*
X189425Y138871D01*
X189212Y139944D01*
X188604Y140854D01*
X187694Y141462D01*
X186621Y141675D01*
D02*
G37*
G36*
X157094Y144233D02*
X156021Y144019D01*
X155111Y143412D01*
X154503Y142502D01*
X154290Y141429D01*
X154503Y140356D01*
X155111Y139446D01*
X156021Y138839D01*
X156692Y138705D01*
X157399Y138199D01*
X157905Y137492D01*
X158039Y136820D01*
X158647Y135911D01*
X159556Y135303D01*
X160629Y135090D01*
X161702Y135303D01*
X162612Y135911D01*
X163220Y136820D01*
X163433Y137893D01*
X163220Y138966D01*
X162612Y139876D01*
X161702Y140484D01*
X161031Y140617D01*
X160324Y141124D01*
X159818Y141831D01*
X159684Y142502D01*
X159076Y143412D01*
X158167Y144019D01*
X157094Y144233D01*
D02*
G37*
G36*
X65170Y144233D02*
X64097Y144019D01*
X63187Y143412D01*
X62579Y142502D01*
X62446Y141831D01*
X61940Y141124D01*
X61233Y140617D01*
X60561Y140484D01*
X59652Y139876D01*
X59044Y138966D01*
X58830Y137893D01*
X59044Y136820D01*
X59652Y135911D01*
X60561Y135303D01*
X61634Y135090D01*
X62707Y135303D01*
X63617Y135911D01*
X64225Y136820D01*
X64358Y137492D01*
X64865Y138199D01*
X65572Y138705D01*
X66243Y138839D01*
X67152Y139446D01*
X67760Y140356D01*
X67974Y141429D01*
X67760Y142502D01*
X67152Y143412D01*
X66243Y144019D01*
X65170Y144233D01*
D02*
G37*
G36*
X33370Y140548D02*
X32297Y140335D01*
X31387Y139727D01*
X30780Y138818D01*
X30566Y137745D01*
X30780Y136672D01*
X31387Y135762D01*
X32297Y135154D01*
X33370Y134941D01*
X34443Y135154D01*
X35353Y135762D01*
X35960Y136672D01*
X36174Y137745D01*
X35960Y138818D01*
X35353Y139727D01*
X34443Y140335D01*
X33370Y140548D01*
D02*
G37*
G36*
X252705Y139604D02*
X251632Y139391D01*
X250722Y138783D01*
X250114Y137873D01*
X249901Y136800D01*
X248736Y136147D01*
X248302Y136061D01*
X247392Y135453D01*
X246784Y134543D01*
X246692Y134080D01*
X245408D01*
X245391Y134109D01*
X245305Y134543D01*
X244697Y135453D01*
X243788Y136061D01*
X242715Y136274D01*
X241642Y136061D01*
X240732Y135453D01*
X240124Y134543D01*
X239911Y133470D01*
X240124Y132397D01*
X240732Y131488D01*
X241642Y130880D01*
X242715Y130667D01*
X243368Y129501D01*
X243454Y129067D01*
X244062Y128158D01*
X244972Y127550D01*
X245435Y127458D01*
Y126173D01*
X245406Y126157D01*
X244972Y126071D01*
X244062Y125463D01*
X243454Y124553D01*
X243241Y123480D01*
X243454Y122407D01*
X244062Y121498D01*
X244972Y120890D01*
X245406Y120803D01*
X245435Y120787D01*
Y119513D01*
X245406Y119497D01*
X244972Y119411D01*
X244062Y118803D01*
X243454Y117893D01*
X243241Y116820D01*
X243454Y115747D01*
X244062Y114838D01*
X244972Y114230D01*
X245406Y114143D01*
X246234Y113679D01*
X246698Y112851D01*
X246784Y112417D01*
X247392Y111508D01*
X248302Y110900D01*
X249375Y110686D01*
X250448Y110900D01*
X251357Y111508D01*
X251965Y112417D01*
X252178Y113490D01*
X251965Y114563D01*
X251357Y115473D01*
X250448Y116081D01*
X250013Y116167D01*
X249984Y116183D01*
Y117457D01*
X250013Y117473D01*
X250448Y117560D01*
X251357Y118168D01*
X251965Y119077D01*
X252178Y120150D01*
X253344Y120803D01*
X253778Y120890D01*
X254687Y121498D01*
X255295Y122407D01*
X255508Y123480D01*
X255295Y124553D01*
X254687Y125463D01*
X253778Y126071D01*
X253343Y126157D01*
X253314Y126173D01*
Y127458D01*
X253778Y127550D01*
X254687Y128158D01*
X255295Y129067D01*
X255508Y130140D01*
X255295Y131213D01*
X254687Y132123D01*
X253778Y132731D01*
X253314Y132823D01*
Y134107D01*
X253344Y134123D01*
X253778Y134210D01*
X254687Y134818D01*
X255295Y135727D01*
X255508Y136800D01*
X255295Y137873D01*
X254687Y138783D01*
X253778Y139391D01*
X252705Y139604D01*
D02*
G37*
G36*
X91500Y139054D02*
X90427Y138840D01*
X89517Y138233D01*
X88910Y137323D01*
X88696Y136250D01*
X88910Y135177D01*
X89517Y134267D01*
X90427Y133660D01*
X91500Y133446D01*
X92573Y133660D01*
X93483Y134267D01*
X94090Y135177D01*
X94304Y136250D01*
X94090Y137323D01*
X93483Y138233D01*
X92573Y138840D01*
X91500Y139054D01*
D02*
G37*
G36*
X142266Y137847D02*
X141193Y137634D01*
X140283Y137026D01*
X139676Y136116D01*
X139462Y135043D01*
X139676Y133970D01*
X140283Y133061D01*
X141193Y132453D01*
X142266Y132240D01*
X143339Y132453D01*
X144249Y133061D01*
X144856Y133970D01*
X145070Y135043D01*
X144856Y136116D01*
X144249Y137026D01*
X143339Y137634D01*
X142266Y137847D01*
D02*
G37*
G36*
X204750Y137554D02*
X203677Y137340D01*
X202767Y136733D01*
X202160Y135823D01*
X201946Y134750D01*
X202160Y133677D01*
X202767Y132767D01*
X203677Y132160D01*
X204750Y131946D01*
X205823Y132160D01*
X206733Y132767D01*
X207340Y133677D01*
X207554Y134750D01*
X207340Y135823D01*
X206733Y136733D01*
X205823Y137340D01*
X204750Y137554D01*
D02*
G37*
G36*
X121738Y137162D02*
X120665Y136948D01*
X119756Y136341D01*
X119148Y135431D01*
X118934Y134358D01*
X119148Y133285D01*
X119756Y132375D01*
X120665Y131768D01*
X121738Y131554D01*
X122811Y131768D01*
X123721Y132375D01*
X124329Y133285D01*
X124542Y134358D01*
X124329Y135431D01*
X123721Y136341D01*
X122811Y136948D01*
X121738Y137162D01*
D02*
G37*
G36*
X414750Y137054D02*
X413677Y136840D01*
X412767Y136233D01*
X412160Y135323D01*
X411946Y134250D01*
X412160Y133177D01*
X412767Y132267D01*
X413677Y131660D01*
X414750Y131446D01*
X415823Y131660D01*
X416733Y132267D01*
X417340Y133177D01*
X417554Y134250D01*
X417340Y135323D01*
X416733Y136233D01*
X415823Y136840D01*
X414750Y137054D01*
D02*
G37*
G36*
X-2750Y135054D02*
X-3823Y134840D01*
X-4733Y134233D01*
X-5340Y133323D01*
X-5554Y132250D01*
X-5340Y131177D01*
X-4733Y130267D01*
X-3823Y129660D01*
X-2750Y129446D01*
X-1677Y129660D01*
X-767Y130267D01*
X-160Y131177D01*
X54Y132250D01*
X-160Y133323D01*
X-767Y134233D01*
X-1677Y134840D01*
X-2750Y135054D01*
D02*
G37*
G36*
X61500Y133854D02*
X60427Y133640D01*
X59517Y133033D01*
X58910Y132123D01*
X58696Y131050D01*
X58910Y129977D01*
X59517Y129067D01*
X60427Y128460D01*
X61500Y128246D01*
X62573Y128460D01*
X63483Y129067D01*
X64090Y129977D01*
X64304Y131050D01*
X64090Y132123D01*
X63483Y133033D01*
X62573Y133640D01*
X61500Y133854D01*
D02*
G37*
G36*
X72241Y137162D02*
X71168Y136948D01*
X70258Y136341D01*
X69650Y135431D01*
X69517Y134760D01*
X68705Y133626D01*
X67632Y133413D01*
X66723Y132805D01*
X66115Y131895D01*
X65901Y130822D01*
X66115Y129749D01*
X66723Y128840D01*
X67632Y128232D01*
X68705Y128019D01*
X69778Y128232D01*
X70688Y128840D01*
X71296Y129749D01*
X71429Y130421D01*
X72241Y131554D01*
X73314Y131767D01*
X74223Y132375D01*
X74831Y133285D01*
X75045Y134358D01*
X74831Y135431D01*
X74223Y136341D01*
X73314Y136948D01*
X72241Y137162D01*
D02*
G37*
G36*
X153558Y133626D02*
X152485Y133413D01*
X151575Y132805D01*
X150968Y131895D01*
X150754Y130822D01*
X149621Y130011D01*
X148950Y129877D01*
X148040Y129269D01*
X147432Y128360D01*
X147337Y127882D01*
X146743Y127580D01*
X145587Y128134D01*
X145542Y128360D01*
X144934Y129269D01*
X144024Y129877D01*
X142951Y130091D01*
X141878Y129877D01*
X140969Y129269D01*
X140361Y128360D01*
X140228Y127689D01*
X139721Y126981D01*
X139014Y126475D01*
X138343Y126342D01*
X137433Y125734D01*
X136826Y124824D01*
X136612Y123751D01*
X136826Y122678D01*
X137433Y121769D01*
X138343Y121161D01*
X139416Y120947D01*
X140489Y121161D01*
X141399Y121769D01*
X142006Y122678D01*
X142116Y123230D01*
X142741Y123446D01*
X143896Y122683D01*
X143897Y122678D01*
X144504Y121769D01*
X145414Y121161D01*
X146487Y120948D01*
X147560Y121161D01*
X148470Y121769D01*
X149078Y122678D01*
X149291Y123751D01*
X150023Y124483D01*
X151096Y124696D01*
X152005Y125304D01*
X152613Y126214D01*
X152826Y127287D01*
X153960Y128098D01*
X154631Y128232D01*
X155541Y128840D01*
X156149Y129749D01*
X156362Y130822D01*
X156149Y131895D01*
X155541Y132805D01*
X154631Y133413D01*
X153558Y133626D01*
D02*
G37*
G36*
X335955Y129614D02*
X334882Y129401D01*
X333973Y128793D01*
X333365Y127883D01*
X333282Y127467D01*
X333273Y127420D01*
X331978D01*
X331968Y127467D01*
X331885Y127883D01*
X331278Y128793D01*
X330368Y129401D01*
X329295Y129614D01*
X328222Y129401D01*
X327313Y128793D01*
X326705Y127883D01*
X326491Y126810D01*
X326705Y125737D01*
X327313Y124827D01*
X328222Y124220D01*
X328639Y124137D01*
X328685Y124128D01*
Y122833D01*
X328639Y122823D01*
X328222Y122740D01*
X327313Y122133D01*
X326705Y121223D01*
X326491Y120150D01*
X326705Y119077D01*
X327313Y118167D01*
X328222Y117560D01*
X328656Y117473D01*
X329484Y117009D01*
X329948Y116181D01*
X330035Y115747D01*
X330643Y114838D01*
X331552Y114230D01*
X332625Y114016D01*
X333698Y114230D01*
X334608Y114838D01*
X335215Y115747D01*
X335429Y116820D01*
X335215Y117893D01*
X334608Y118803D01*
X333698Y119411D01*
X333264Y119497D01*
X332436Y119961D01*
X331972Y120789D01*
X331885Y121223D01*
X331278Y122133D01*
X330368Y122740D01*
X329952Y122823D01*
X329905Y122833D01*
Y124128D01*
X329952Y124137D01*
X330368Y124220D01*
X331278Y124827D01*
X331885Y125737D01*
X331968Y126154D01*
X331978Y126200D01*
X333273D01*
X333282Y126154D01*
X333365Y125737D01*
X333973Y124827D01*
X334882Y124220D01*
X335955Y124006D01*
X336481Y123480D01*
X336695Y122407D01*
X337303Y121497D01*
X338212Y120890D01*
X339285Y120676D01*
X339811Y120150D01*
X340025Y119077D01*
X340633Y118167D01*
X341542Y117560D01*
X342615Y117346D01*
X343688Y117560D01*
X344598Y118167D01*
X345206Y119077D01*
X345419Y120150D01*
X345206Y121223D01*
X344598Y122133D01*
X343688Y122740D01*
X342615Y122954D01*
X342089Y123480D01*
X341876Y124553D01*
X341268Y125463D01*
X340358Y126071D01*
X339285Y126284D01*
X338759Y126810D01*
X338546Y127883D01*
X337938Y128793D01*
X337028Y129401D01*
X335955Y129614D01*
D02*
G37*
G36*
X169500Y130304D02*
X168427Y130090D01*
X167517Y129483D01*
X166910Y128573D01*
X166696Y127500D01*
X166910Y126427D01*
X167517Y125517D01*
X168427Y124910D01*
X169500Y124696D01*
X170573Y124910D01*
X171483Y125517D01*
X172090Y126427D01*
X172304Y127500D01*
X172090Y128573D01*
X171483Y129483D01*
X170573Y130090D01*
X169500Y130304D01*
D02*
G37*
G36*
X79312Y137162D02*
X78239Y136948D01*
X77329Y136341D01*
X76722Y135431D01*
X76508Y134358D01*
X76722Y133285D01*
X77329Y132375D01*
X78239Y131768D01*
X78551Y131705D01*
X78987Y130822D01*
X78551Y129939D01*
X78239Y129877D01*
X77329Y129269D01*
X76722Y128360D01*
X76588Y127689D01*
X75776Y126555D01*
X74703Y126342D01*
X73794Y125734D01*
X73186Y124824D01*
X72972Y123751D01*
X73186Y122678D01*
X73794Y121769D01*
X74703Y121161D01*
X75776Y120947D01*
X76849Y121161D01*
X77759Y121769D01*
X78367Y122678D01*
X78500Y123350D01*
X79007Y124057D01*
X79714Y124563D01*
X80385Y124696D01*
X81295Y125304D01*
X81902Y126214D01*
X82036Y126885D01*
X82212Y127132D01*
X83483D01*
X83659Y126885D01*
X83793Y126214D01*
X84400Y125304D01*
X85310Y124696D01*
X86383Y124483D01*
X87456Y124696D01*
X88366Y125304D01*
X88973Y126214D01*
X89187Y127287D01*
X88973Y128360D01*
X88366Y129269D01*
X87456Y129877D01*
X86383Y130091D01*
X85571Y131224D01*
X85438Y131895D01*
X84830Y132805D01*
X83920Y133413D01*
X82847Y133626D01*
X82036Y134760D01*
X81902Y135431D01*
X81295Y136341D01*
X80385Y136948D01*
X79312Y137162D01*
D02*
G37*
G36*
X111132Y133626D02*
X110059Y133413D01*
X109149Y132805D01*
X108541Y131895D01*
X108328Y130822D01*
X108541Y129749D01*
X109149Y128840D01*
X110059Y128232D01*
X111132Y128019D01*
X111943Y126885D01*
X112077Y126214D01*
X112685Y125304D01*
X113594Y124696D01*
X114667Y124483D01*
X115740Y124696D01*
X116650Y125304D01*
X117258Y126214D01*
X117471Y127287D01*
X117258Y128360D01*
X116650Y129269D01*
X115740Y129877D01*
X114667Y130091D01*
X113856Y131224D01*
X113722Y131895D01*
X113114Y132805D01*
X112205Y133413D01*
X111132Y133626D01*
D02*
G37*
G36*
X199000Y133804D02*
X197927Y133590D01*
X197017Y132983D01*
X196410Y132073D01*
X196196Y131000D01*
X196410Y129927D01*
X197017Y129017D01*
X197927Y128410D01*
X198940Y128208D01*
X199000Y128196D01*
X199946Y127250D01*
X199958Y127190D01*
X200160Y126177D01*
X200767Y125267D01*
X201677Y124660D01*
X202750Y124446D01*
X203823Y124660D01*
X204733Y125267D01*
X205340Y126177D01*
X205554Y127250D01*
X205340Y128323D01*
X204733Y129233D01*
X203823Y129840D01*
X202810Y130042D01*
X202750Y130054D01*
X201804Y131000D01*
X201792Y131060D01*
X201590Y132073D01*
X200983Y132983D01*
X200073Y133590D01*
X199000Y133804D01*
D02*
G37*
G36*
X185000Y127554D02*
X183927Y127340D01*
X183017Y126733D01*
X182410Y125823D01*
X182196Y124750D01*
X182410Y123677D01*
X183017Y122767D01*
X183927Y122160D01*
X185000Y121946D01*
X186073Y122160D01*
X186983Y122767D01*
X187590Y123677D01*
X187804Y124750D01*
X187590Y125823D01*
X186983Y126733D01*
X186073Y127340D01*
X185000Y127554D01*
D02*
G37*
G36*
X380000Y126054D02*
X378927Y125840D01*
X378017Y125233D01*
X377410Y124323D01*
X377196Y123250D01*
X377410Y122177D01*
X378017Y121267D01*
X378927Y120660D01*
X380000Y120446D01*
X381073Y120660D01*
X381983Y121267D01*
X382590Y122177D01*
X382804Y123250D01*
X382590Y124323D01*
X381983Y125233D01*
X381073Y125840D01*
X380000Y126054D01*
D02*
G37*
G36*
X131659Y127241D02*
X130587Y127027D01*
X129677Y126419D01*
X129069Y125510D01*
X128856Y124437D01*
X127775Y123360D01*
X127677Y123340D01*
X126767Y122733D01*
X126160Y121823D01*
X126012Y121083D01*
X125901Y120726D01*
X124774Y120133D01*
X124588Y120170D01*
X123515Y119956D01*
X122606Y119348D01*
X121998Y118439D01*
X121784Y117366D01*
X121998Y116293D01*
X122606Y115383D01*
X123515Y114775D01*
X124588Y114562D01*
X125661Y114775D01*
X126571Y115383D01*
X127179Y116293D01*
X127326Y117033D01*
X127437Y117389D01*
X128564Y117983D01*
X128750Y117946D01*
X129568Y116814D01*
X129541Y116680D01*
X129755Y115607D01*
X130362Y114698D01*
X131272Y114090D01*
X132345Y113876D01*
X133418Y114090D01*
X134328Y114698D01*
X134935Y115607D01*
X135149Y116680D01*
X134935Y117753D01*
X134328Y118663D01*
X133418Y119271D01*
X132345Y119484D01*
X131527Y120616D01*
X131554Y120750D01*
X132634Y121827D01*
X132732Y121846D01*
X133642Y122454D01*
X134250Y123364D01*
X134463Y124437D01*
X134250Y125510D01*
X133642Y126419D01*
X132732Y127027D01*
X131659Y127241D01*
D02*
G37*
G36*
X12880Y129054D02*
X11807Y128840D01*
X10897Y128233D01*
X10289Y127323D01*
X10076Y126250D01*
X10289Y125177D01*
X10897Y124267D01*
X10810Y122798D01*
X10660Y122573D01*
X10446Y121500D01*
X10660Y120427D01*
X11267Y119517D01*
X12177Y118910D01*
X13250Y118696D01*
X14323Y118910D01*
X15233Y119517D01*
X15840Y120427D01*
X16054Y121500D01*
X15840Y122573D01*
X15233Y123483D01*
X15320Y124952D01*
X15470Y125177D01*
X15684Y126250D01*
X15470Y127323D01*
X14863Y128233D01*
X13953Y128840D01*
X12880Y129054D01*
D02*
G37*
G36*
X41500Y128554D02*
X40427Y128341D01*
X39517Y127733D01*
X38910Y126823D01*
X38696Y125750D01*
X38869Y124879D01*
X38910Y124677D01*
X38523Y123236D01*
X38517Y123233D01*
X37910Y122323D01*
X37696Y121250D01*
X37910Y120177D01*
X38517Y119267D01*
X39427Y118660D01*
X40500Y118446D01*
X41573Y118660D01*
X42483Y119267D01*
X43091Y120177D01*
X43304Y121250D01*
X43131Y122121D01*
X43131Y122121D01*
X43091Y122323D01*
X43476Y123759D01*
X43483Y123767D01*
X43550Y123869D01*
X44090Y124677D01*
X44304Y125750D01*
X44090Y126823D01*
X43483Y127733D01*
X42573Y128341D01*
X41500Y128554D01*
D02*
G37*
G36*
X140500Y119804D02*
X139427Y119590D01*
X138517Y118983D01*
X137909Y118073D01*
X137696Y117000D01*
X137909Y115927D01*
X138517Y115017D01*
X139427Y114410D01*
X140500Y114196D01*
X141573Y114410D01*
X142483Y115017D01*
X143090Y115927D01*
X143304Y117000D01*
X143090Y118073D01*
X142483Y118983D01*
X141573Y119590D01*
X140500Y119804D01*
D02*
G37*
G36*
X23000Y119554D02*
X21927Y119340D01*
X21017Y118733D01*
X20410Y117823D01*
X20196Y116750D01*
X20410Y115677D01*
X21017Y114767D01*
X21927Y114160D01*
X23000Y113946D01*
X24073Y114160D01*
X24983Y114767D01*
X25591Y115677D01*
X25804Y116750D01*
X25591Y117823D01*
X24983Y118733D01*
X24073Y119340D01*
X23000Y119554D01*
D02*
G37*
G36*
X86383Y123020D02*
X85310Y122806D01*
X84400Y122198D01*
X83793Y121289D01*
X83659Y120618D01*
X82847Y119484D01*
X81775Y119271D01*
X80865Y118663D01*
X80257Y117753D01*
X80044Y116680D01*
X80257Y115607D01*
X80865Y114698D01*
X81775Y114090D01*
X82847Y113876D01*
X83920Y114090D01*
X84830Y114698D01*
X85438Y115607D01*
X85571Y116278D01*
X86383Y117412D01*
X87456Y117625D01*
X88366Y118233D01*
X88973Y119143D01*
X89187Y120216D01*
X88973Y121289D01*
X88366Y122198D01*
X87456Y122806D01*
X86383Y123020D01*
D02*
G37*
G36*
X398785Y118404D02*
X397712Y118190D01*
X396802Y117583D01*
X396195Y116673D01*
X395981Y115600D01*
X396195Y114527D01*
X396802Y113617D01*
X397712Y113010D01*
X398785Y112796D01*
X399858Y113010D01*
X400690Y113566D01*
X400833Y113610D01*
X402181Y113446D01*
X402467Y113017D01*
X403377Y112410D01*
X404450Y112196D01*
X405523Y112410D01*
X406433Y113017D01*
X407040Y113927D01*
X407254Y115000D01*
X407040Y116073D01*
X406433Y116983D01*
X405523Y117590D01*
X404450Y117804D01*
X403377Y117590D01*
X402545Y117035D01*
X402402Y116990D01*
X401054Y117154D01*
X400768Y117583D01*
X399858Y118190D01*
X398785Y118404D01*
D02*
G37*
G36*
X442750Y113804D02*
X441677Y113590D01*
X440768Y112983D01*
X440160Y112073D01*
X438895Y112225D01*
X438500Y112304D01*
X437427Y112091D01*
X436517Y111483D01*
X435910Y110573D01*
X435696Y109500D01*
X435910Y108427D01*
X436517Y107517D01*
X437427Y106910D01*
X438500Y106696D01*
X439060Y106808D01*
X439091Y106794D01*
X440044Y105841D01*
X440058Y105810D01*
X439946Y105250D01*
X440160Y104177D01*
X440768Y103267D01*
X441677Y102659D01*
X442065Y102582D01*
X442788Y102246D01*
X442986Y101202D01*
X442946Y101000D01*
X443159Y99927D01*
X443767Y99017D01*
X444677Y98410D01*
X445750Y98196D01*
X446823Y98410D01*
X447733Y99017D01*
X448340Y99927D01*
X448554Y101000D01*
X448340Y102073D01*
X447733Y102983D01*
X446823Y103590D01*
X446436Y103667D01*
X446188Y103783D01*
X446152Y104317D01*
X446627Y104708D01*
X447371Y105121D01*
X448250Y104946D01*
X449323Y105160D01*
X450233Y105767D01*
X450840Y106677D01*
X451054Y107750D01*
X450840Y108823D01*
X450233Y109733D01*
X449323Y110340D01*
X448250Y110554D01*
X447177Y110340D01*
X446647Y109986D01*
X445491Y110682D01*
X445554Y111000D01*
X445341Y112073D01*
X444733Y112983D01*
X443823Y113590D01*
X442750Y113804D01*
D02*
G37*
G36*
X441500Y125054D02*
X440427Y124840D01*
X439517Y124233D01*
X438910Y123323D01*
X438696Y122250D01*
X438910Y121177D01*
X439517Y120267D01*
X440427Y119660D01*
X441389Y119468D01*
X441196Y118500D01*
X441410Y117427D01*
X442017Y116517D01*
X442927Y115910D01*
X444000Y115696D01*
X444635Y115822D01*
X445583Y115090D01*
X445735Y114845D01*
X445696Y114650D01*
X445910Y113577D01*
X446517Y112667D01*
X447427Y112059D01*
X448500Y111846D01*
X449573Y112059D01*
X450483Y112667D01*
X451091Y113577D01*
X451304Y114650D01*
X451091Y115723D01*
X450483Y116632D01*
X449573Y117240D01*
X448500Y117454D01*
X447865Y117327D01*
X446918Y118060D01*
X446765Y118305D01*
X446804Y118500D01*
X446590Y119573D01*
X445983Y120483D01*
X445073Y121090D01*
X444111Y121282D01*
X444304Y122250D01*
X444090Y123323D01*
X443483Y124233D01*
X442573Y124840D01*
X441500Y125054D01*
D02*
G37*
G36*
X417000Y117054D02*
X415927Y116840D01*
X415017Y116233D01*
X414410Y115323D01*
X414196Y114250D01*
X414410Y113177D01*
X415017Y112267D01*
X415927Y111660D01*
X417000Y111446D01*
X418073Y111660D01*
X418983Y112267D01*
X419590Y113177D01*
X419804Y114250D01*
X419590Y115323D01*
X418983Y116233D01*
X418073Y116840D01*
X417000Y117054D01*
D02*
G37*
G36*
X104746Y120170D02*
X103673Y119956D01*
X102764Y119348D01*
X102156Y118439D01*
X101942Y117366D01*
X102156Y116293D01*
X102764Y115383D01*
X103673Y114775D01*
X104746Y114562D01*
X105558Y113428D01*
X105691Y112757D01*
X106299Y111848D01*
X107209Y111240D01*
X108282Y111026D01*
X109355Y111240D01*
X110264Y111848D01*
X110872Y112757D01*
X111086Y113830D01*
X110872Y114903D01*
X110264Y115813D01*
X109355Y116421D01*
X108282Y116634D01*
X107470Y117767D01*
X107337Y118439D01*
X106729Y119348D01*
X105819Y119956D01*
X104746Y120170D01*
D02*
G37*
G36*
X224750Y115804D02*
X223677Y115590D01*
X222767Y114983D01*
X222160Y114073D01*
X221946Y113000D01*
X222160Y111927D01*
X222767Y111017D01*
X223677Y110410D01*
X224750Y110196D01*
X225823Y110410D01*
X226733Y111017D01*
X227340Y111927D01*
X227554Y113000D01*
X227340Y114073D01*
X226733Y114983D01*
X225823Y115590D01*
X224750Y115804D01*
D02*
G37*
G36*
X173200D02*
X172127Y115590D01*
X171217Y114983D01*
X170610Y114073D01*
X170396Y113000D01*
X170610Y111927D01*
X171217Y111017D01*
X172127Y110410D01*
X173200Y110196D01*
X174273Y110410D01*
X175183Y111017D01*
X175790Y111927D01*
X176004Y113000D01*
X175790Y114073D01*
X175183Y114983D01*
X174273Y115590D01*
X173200Y115804D01*
D02*
G37*
G36*
X132345Y112413D02*
X131272Y112200D01*
X130362Y111592D01*
X129754Y110682D01*
X129621Y110011D01*
X129444Y109764D01*
X128174D01*
X127998Y110011D01*
X127864Y110682D01*
X127256Y111592D01*
X126347Y112200D01*
X125274Y112413D01*
X124201Y112200D01*
X123291Y111592D01*
X122683Y110682D01*
X122470Y109609D01*
X122683Y108536D01*
X123291Y107626D01*
X124201Y107019D01*
X125274Y106805D01*
X126086Y105672D01*
X126219Y105001D01*
X126827Y104091D01*
X127736Y103483D01*
X128809Y103270D01*
X129882Y103483D01*
X130792Y104091D01*
X131400Y105001D01*
X131533Y105672D01*
X132040Y106379D01*
X132747Y106885D01*
X133418Y107019D01*
X134328Y107626D01*
X134935Y108536D01*
X135149Y109609D01*
X134935Y110682D01*
X134328Y111592D01*
X133418Y112200D01*
X132345Y112413D01*
D02*
G37*
G36*
X385750Y113054D02*
X384677Y112840D01*
X383767Y112233D01*
X383160Y111323D01*
X382946Y110250D01*
X383160Y109177D01*
X383767Y108267D01*
X384677Y107660D01*
X385750Y107446D01*
X386823Y107660D01*
X387733Y108267D01*
X388340Y109177D01*
X388554Y110250D01*
X388340Y111323D01*
X387733Y112233D01*
X386823Y112840D01*
X385750Y113054D01*
D02*
G37*
G36*
X51750Y114054D02*
X50677Y113840D01*
X49767Y113233D01*
X49160Y112323D01*
X48946Y111250D01*
X49160Y110177D01*
X49767Y109267D01*
X49377Y108149D01*
X49160Y107823D01*
X48946Y106750D01*
X49160Y105677D01*
X49767Y104767D01*
X50677Y104160D01*
X51750Y103946D01*
X52823Y104160D01*
X53733Y104767D01*
X54341Y105677D01*
X54431Y106131D01*
X54946Y106841D01*
X55792Y107037D01*
X56250Y106946D01*
X57323Y107160D01*
X58233Y107767D01*
X58840Y108677D01*
X59054Y109750D01*
X58840Y110823D01*
X58233Y111733D01*
X57323Y112340D01*
X56250Y112554D01*
X55615Y112427D01*
X54341Y112323D01*
X53733Y113233D01*
X52823Y113840D01*
X51750Y114054D01*
D02*
G37*
G36*
X158500Y110554D02*
X157427Y110340D01*
X156517Y109733D01*
X155910Y108823D01*
X155696Y107750D01*
X155910Y106677D01*
X156517Y105767D01*
X157427Y105160D01*
X158500Y104946D01*
X159573Y105160D01*
X160483Y105767D01*
X161090Y106677D01*
X161304Y107750D01*
X161090Y108823D01*
X160483Y109733D01*
X159573Y110340D01*
X158500Y110554D01*
D02*
G37*
G36*
X299325Y112964D02*
X298252Y112751D01*
X297342Y112143D01*
X296735Y111233D01*
X296521Y110160D01*
X296735Y109087D01*
X297342Y108177D01*
X298252Y107570D01*
X299325Y107356D01*
X299851Y106830D01*
X300065Y105757D01*
X300672Y104847D01*
X301582Y104240D01*
X302655Y104026D01*
X303728Y104240D01*
X304638Y104847D01*
X305245Y105757D01*
X305459Y106830D01*
X305245Y107903D01*
X304638Y108813D01*
X303728Y109420D01*
X302655Y109634D01*
X302129Y110160D01*
X301915Y111233D01*
X301308Y112143D01*
X300398Y112751D01*
X299325Y112964D01*
D02*
G37*
G36*
X38163Y109391D02*
X37090Y109178D01*
X36180Y108570D01*
X35572Y107660D01*
X35359Y106587D01*
X35572Y105514D01*
X36180Y104605D01*
X37090Y103997D01*
X38163Y103784D01*
X39236Y103997D01*
X39479Y104159D01*
X40767Y104517D01*
X41677Y103910D01*
X42750Y103696D01*
X43823Y103910D01*
X44733Y104517D01*
X45340Y105427D01*
X45554Y106500D01*
X45340Y107573D01*
X44733Y108483D01*
X43823Y109090D01*
X42750Y109304D01*
X41677Y109090D01*
X41326Y108856D01*
X40145Y108570D01*
X39236Y109178D01*
X38163Y109391D01*
D02*
G37*
G36*
X53000Y102054D02*
X51927Y101840D01*
X51704Y101691D01*
X50750Y101333D01*
X49796Y101691D01*
X49573Y101840D01*
X48500Y102054D01*
X47427Y101840D01*
X46517Y101233D01*
X45910Y100323D01*
X45696Y99250D01*
X45910Y98177D01*
X46059Y97954D01*
X46417Y97000D01*
X46059Y96046D01*
X45910Y95823D01*
X45696Y94750D01*
X45910Y93677D01*
X46517Y92767D01*
X47427Y92160D01*
X48500Y91946D01*
X49573Y92160D01*
X50483Y92767D01*
X51090Y93677D01*
X51304Y94750D01*
X51121Y95671D01*
X51551Y96199D01*
X52079Y96629D01*
X53000Y96446D01*
X54073Y96659D01*
X54983Y97267D01*
X55590Y98177D01*
X55804Y99250D01*
X55590Y100323D01*
X54983Y101233D01*
X54073Y101840D01*
X53000Y102054D01*
D02*
G37*
G36*
X276015Y109634D02*
X274942Y109420D01*
X274032Y108813D01*
X273424Y107903D01*
X273211Y106830D01*
X273424Y105757D01*
X274032Y104847D01*
X274942Y104240D01*
X276015Y104026D01*
X276541Y103500D01*
X276754Y102427D01*
X277362Y101517D01*
X278272Y100910D01*
X279345Y100696D01*
X280418Y100910D01*
X281327Y101517D01*
X281935Y102427D01*
X282149Y103500D01*
X281935Y104573D01*
X281327Y105483D01*
X280418Y106090D01*
X279345Y106304D01*
X278819Y106830D01*
X278605Y107903D01*
X277997Y108813D01*
X277088Y109420D01*
X276015Y109634D01*
D02*
G37*
G36*
X431500Y106304D02*
X430427Y106090D01*
X429517Y105483D01*
X428910Y104573D01*
X428696Y103500D01*
X428910Y102427D01*
X429517Y101517D01*
X430427Y100910D01*
X431500Y100696D01*
X432573Y100910D01*
X433483Y101517D01*
X434090Y102427D01*
X434304Y103500D01*
X434090Y104573D01*
X433483Y105483D01*
X432573Y106090D01*
X431500Y106304D01*
D02*
G37*
G36*
X140454D02*
X139381Y106090D01*
X138471Y105483D01*
X137864Y104573D01*
X137650Y103500D01*
X137864Y102427D01*
X138471Y101517D01*
X139381Y100910D01*
X140454Y100696D01*
X141527Y100910D01*
X142437Y101517D01*
X143045Y102427D01*
X143258Y103500D01*
X143045Y104573D01*
X142437Y105483D01*
X141527Y106090D01*
X140454Y106304D01*
D02*
G37*
G36*
X90750Y105304D02*
X89677Y105090D01*
X88767Y104483D01*
X88160Y103573D01*
X87946Y102500D01*
X88160Y101427D01*
X88767Y100517D01*
X89677Y99910D01*
X90750Y99696D01*
X91823Y99910D01*
X92733Y100517D01*
X93340Y101427D01*
X93554Y102500D01*
X93340Y103573D01*
X92733Y104483D01*
X91823Y105090D01*
X90750Y105304D01*
D02*
G37*
G36*
X115353Y109563D02*
X114280Y109349D01*
X113370Y108742D01*
X112762Y107832D01*
X112549Y106759D01*
X112762Y105686D01*
X113370Y104776D01*
X114280Y104169D01*
X114518Y104121D01*
X114918Y103935D01*
X115205Y102557D01*
X114973Y102233D01*
X114265Y101727D01*
X113594Y101593D01*
X112685Y100985D01*
X112077Y100076D01*
X111943Y99404D01*
X111885Y99323D01*
X110351Y99362D01*
X110320Y99404D01*
X110187Y100076D01*
X109579Y100985D01*
X108669Y101593D01*
X108357Y101655D01*
X107922Y102538D01*
X108357Y103421D01*
X108669Y103483D01*
X109579Y104091D01*
X110187Y105001D01*
X110400Y106074D01*
X110187Y107147D01*
X109579Y108056D01*
X108669Y108664D01*
X107596Y108877D01*
X106523Y108664D01*
X105614Y108056D01*
X105006Y107147D01*
X104872Y106475D01*
X104061Y105342D01*
X102988Y105128D01*
X102078Y104521D01*
X101470Y103611D01*
X101257Y102538D01*
X101470Y101465D01*
X102078Y100555D01*
X102988Y99948D01*
X104061Y99734D01*
X104872Y98601D01*
X105006Y97929D01*
X105614Y97020D01*
X106523Y96412D01*
X107194Y96279D01*
X107901Y95772D01*
X108408Y95065D01*
X108541Y94394D01*
X109149Y93484D01*
X110059Y92877D01*
X111132Y92663D01*
X111943Y91530D01*
X112077Y90858D01*
X112685Y89949D01*
X113594Y89341D01*
X114667Y89128D01*
X115479Y87994D01*
X115612Y87323D01*
X116220Y86413D01*
X117130Y85806D01*
X118203Y85592D01*
X119276Y85806D01*
X120185Y86413D01*
X120793Y87323D01*
X121007Y88396D01*
X120793Y89469D01*
X120185Y90379D01*
X119276Y90986D01*
X118963Y91048D01*
X118528Y91931D01*
X118964Y92815D01*
X119276Y92877D01*
X120185Y93484D01*
X120793Y94394D01*
X120927Y95065D01*
X121433Y95772D01*
X122140Y96279D01*
X122811Y96412D01*
X123721Y97020D01*
X124329Y97930D01*
X124542Y99003D01*
X124329Y100076D01*
X123721Y100985D01*
X122811Y101593D01*
X122140Y101727D01*
X121007Y102538D01*
X120793Y103611D01*
X120185Y104521D01*
X119276Y105128D01*
X119038Y105176D01*
X118186Y105573D01*
X118116Y106556D01*
X118157Y106759D01*
X117943Y107832D01*
X117335Y108742D01*
X116426Y109349D01*
X115353Y109563D01*
D02*
G37*
G36*
X165250Y103554D02*
X164177Y103340D01*
X163267Y102733D01*
X162660Y101823D01*
X162446Y100750D01*
X162660Y99677D01*
X163267Y98767D01*
X164177Y98160D01*
X165250Y97946D01*
X166323Y98160D01*
X167233Y98767D01*
X167840Y99677D01*
X168054Y100750D01*
X167840Y101823D01*
X167233Y102733D01*
X166323Y103340D01*
X165250Y103554D01*
D02*
G37*
G36*
X-3000Y106304D02*
X-4073Y106090D01*
X-4983Y105483D01*
X-5590Y104573D01*
X-5804Y103500D01*
X-5590Y102427D01*
X-5557Y102376D01*
X-5054Y101375D01*
X-5557Y100373D01*
X-5590Y100323D01*
X-5804Y99250D01*
X-5590Y98177D01*
X-6667Y97577D01*
X-6767Y97727D01*
X-7677Y98335D01*
X-8750Y98548D01*
X-9823Y98335D01*
X-10733Y97727D01*
X-11340Y96817D01*
X-11554Y95744D01*
X-11340Y94671D01*
X-10733Y93762D01*
X-9823Y93154D01*
X-8750Y92940D01*
X-7677Y93154D01*
X-6767Y93762D01*
X-6707Y93770D01*
X-5360Y93582D01*
X-4983Y93017D01*
X-4073Y92410D01*
X-3000Y92196D01*
X-1927Y92410D01*
X-1017Y93017D01*
X-410Y93927D01*
X-196Y95000D01*
X-410Y96073D01*
X-443Y96124D01*
X-946Y97125D01*
X-443Y98126D01*
X-410Y98177D01*
X-196Y99250D01*
X-410Y100323D01*
X-443Y100373D01*
X-946Y101375D01*
X-443Y102376D01*
X-410Y102427D01*
X-196Y103500D01*
X-410Y104573D01*
X-1017Y105483D01*
X-1927Y106090D01*
X-3000Y106304D01*
D02*
G37*
G36*
X266025Y112964D02*
X264952Y112751D01*
X264042Y112143D01*
X263434Y111233D01*
X263221Y110160D01*
X263434Y109087D01*
X264042Y108177D01*
X264952Y107570D01*
X265358Y107489D01*
X265403Y107480D01*
Y106185D01*
X265354Y106175D01*
X264927Y106090D01*
X264017Y105483D01*
X263410Y104573D01*
X263324Y104144D01*
X262695Y102974D01*
X261622Y102760D01*
X260712Y102153D01*
X260104Y101243D01*
X259891Y100170D01*
X260104Y99097D01*
X260712Y98187D01*
X261622Y97580D01*
X262695Y97366D01*
X263768Y97580D01*
X264677Y98187D01*
X265285Y99097D01*
X265371Y99526D01*
X265389Y99560D01*
X266663D01*
X266677Y99536D01*
X266764Y99097D01*
X267372Y98187D01*
X268282Y97580D01*
X269355Y97366D01*
X270428Y97580D01*
X271337Y98187D01*
X271945Y99097D01*
X272159Y100170D01*
X271945Y101243D01*
X271337Y102153D01*
X270428Y102760D01*
X269970Y102852D01*
X269165Y103299D01*
X268678Y104134D01*
X268590Y104573D01*
X267983Y105483D01*
X267073Y106090D01*
X266667Y106171D01*
X266622Y106180D01*
Y107475D01*
X266671Y107485D01*
X267098Y107570D01*
X268007Y108177D01*
X268615Y109087D01*
X268829Y110160D01*
X268615Y111233D01*
X268007Y112143D01*
X267098Y112751D01*
X266025Y112964D01*
D02*
G37*
G36*
X410250Y102304D02*
X409177Y102090D01*
X408267Y101483D01*
X407660Y100573D01*
X407446Y99500D01*
X407660Y98427D01*
X408267Y97517D01*
X409177Y96910D01*
X410250Y96696D01*
X411323Y96910D01*
X412233Y97517D01*
X412840Y98427D01*
X413054Y99500D01*
X412840Y100573D01*
X412233Y101483D01*
X411323Y102090D01*
X410250Y102304D01*
D02*
G37*
G36*
X181750Y101804D02*
X180677Y101590D01*
X179767Y100983D01*
X179160Y100073D01*
X178946Y99000D01*
X179160Y97927D01*
X179767Y97017D01*
X180677Y96410D01*
X181750Y96196D01*
X182823Y96410D01*
X183733Y97017D01*
X184340Y97927D01*
X184554Y99000D01*
X184340Y100073D01*
X183733Y100983D01*
X182823Y101590D01*
X181750Y101804D01*
D02*
G37*
G36*
X197750Y94804D02*
X196677Y94590D01*
X196281Y94326D01*
X195375Y94086D01*
X194469Y94326D01*
X194073Y94590D01*
X193000Y94804D01*
X191927Y94590D01*
X191017Y93983D01*
X190410Y93073D01*
X190196Y92000D01*
X190410Y90927D01*
X191017Y90017D01*
X191927Y89410D01*
X192696Y88000D01*
X192910Y86927D01*
X193517Y86017D01*
X194427Y85410D01*
X195500Y85196D01*
X196573Y85410D01*
X197483Y86017D01*
X198090Y86927D01*
X198304Y88000D01*
X198090Y89073D01*
X198672Y89380D01*
X198823Y89410D01*
X199733Y90017D01*
X200340Y90927D01*
X200554Y92000D01*
X200340Y93073D01*
X199733Y93983D01*
X198823Y94590D01*
X197750Y94804D01*
D02*
G37*
G36*
X335955Y102974D02*
X334882Y102760D01*
X333973Y102153D01*
X333365Y101243D01*
X333151Y100170D01*
X333365Y99097D01*
X333973Y98187D01*
X334882Y97580D01*
X335955Y97366D01*
X336481Y96840D01*
X336695Y95767D01*
X337303Y94857D01*
X338212Y94250D01*
X339285Y94036D01*
X340358Y94250D01*
X341268Y94857D01*
X341876Y95767D01*
X342089Y96840D01*
X341876Y97913D01*
X341268Y98823D01*
X340358Y99430D01*
X339285Y99644D01*
X338759Y100170D01*
X338546Y101243D01*
X337938Y102153D01*
X337028Y102760D01*
X335955Y102974D01*
D02*
G37*
G36*
X214500Y93804D02*
X213427Y93590D01*
X212518Y92983D01*
X211983D01*
X211073Y93590D01*
X210000Y93804D01*
X208927Y93590D01*
X208018Y92983D01*
X207410Y92073D01*
X207196Y91000D01*
X207410Y89927D01*
X208018Y89017D01*
X208927Y88410D01*
X210000Y88196D01*
X211073Y88410D01*
X211296Y88559D01*
X212250Y88917D01*
X213204Y88559D01*
X213427Y88410D01*
X214500Y88196D01*
X215573Y88410D01*
X216483Y89017D01*
X217090Y89927D01*
X217304Y91000D01*
X217090Y92073D01*
X216483Y92983D01*
X215573Y93590D01*
X214500Y93804D01*
D02*
G37*
G36*
X319305Y99644D02*
X318232Y99430D01*
X317322Y98823D01*
X316715Y97913D01*
X316501Y96840D01*
X315975Y96314D01*
X314902Y96100D01*
X313992Y95493D01*
X313385Y94583D01*
X313171Y93510D01*
X313385Y92437D01*
X313992Y91527D01*
X314902Y90920D01*
X315975Y90706D01*
X317048Y90920D01*
X317958Y91527D01*
X318566Y92437D01*
X318779Y93510D01*
X319305Y94036D01*
X320378Y94250D01*
X321288Y94857D01*
X321895Y95767D01*
X322109Y96840D01*
X321895Y97913D01*
X321288Y98823D01*
X320378Y99430D01*
X319305Y99644D01*
D02*
G37*
G36*
X230500Y94054D02*
X229427Y93840D01*
X228517Y93233D01*
X227910Y92323D01*
X227696Y91250D01*
X227910Y90177D01*
X228517Y89267D01*
X229427Y88660D01*
X230500Y88446D01*
X231573Y88660D01*
X232483Y89267D01*
X233090Y90177D01*
X233304Y91250D01*
X233090Y92323D01*
X232483Y93233D01*
X231573Y93840D01*
X230500Y94054D01*
D02*
G37*
G36*
X440750Y93804D02*
X439677Y93590D01*
X438767Y92983D01*
X438159Y92073D01*
X437946Y91000D01*
X438159Y89927D01*
X438767Y89017D01*
X439677Y88410D01*
X440750Y88196D01*
X441823Y88410D01*
X442733Y89017D01*
X443340Y89927D01*
X443554Y91000D01*
X443340Y92073D01*
X442733Y92983D01*
X441823Y93590D01*
X440750Y93804D01*
D02*
G37*
G36*
X131875Y93679D02*
X130802Y93466D01*
X129892Y92858D01*
X129284Y91948D01*
X129071Y90875D01*
X129284Y89802D01*
X129892Y88892D01*
X130802Y88285D01*
X131875Y88071D01*
X132948Y88285D01*
X133857Y88892D01*
X134465Y89802D01*
X134679Y90875D01*
X134465Y91948D01*
X133857Y92858D01*
X132948Y93466D01*
X131875Y93679D01*
D02*
G37*
G36*
X18250Y90054D02*
X17177Y89840D01*
X16267Y89233D01*
X15660Y88323D01*
X15446Y87250D01*
X15660Y86177D01*
X16267Y85267D01*
X17177Y84660D01*
X18250Y84446D01*
X19323Y84660D01*
X20233Y85267D01*
X20840Y86177D01*
X21054Y87250D01*
X20840Y88323D01*
X20233Y89233D01*
X19323Y89840D01*
X18250Y90054D01*
D02*
G37*
G36*
X11250D02*
X10177Y89840D01*
X9267Y89233D01*
X8660Y88323D01*
X8446Y87250D01*
X8660Y86177D01*
X9267Y85267D01*
X10177Y84660D01*
X11250Y84446D01*
X12323Y84660D01*
X13233Y85267D01*
X13840Y86177D01*
X14054Y87250D01*
X13840Y88323D01*
X13233Y89233D01*
X12323Y89840D01*
X11250Y90054D01*
D02*
G37*
G36*
X173250Y89554D02*
X172177Y89340D01*
X171267Y88733D01*
X170660Y87823D01*
X170446Y86750D01*
X170660Y85677D01*
X171267Y84767D01*
X172177Y84159D01*
X173250Y83946D01*
X174323Y84159D01*
X175233Y84767D01*
X175840Y85677D01*
X176054Y86750D01*
X175840Y87823D01*
X175233Y88733D01*
X174323Y89340D01*
X173250Y89554D01*
D02*
G37*
G36*
X451550Y83554D02*
X450477Y83340D01*
X449567Y82733D01*
X449514Y82652D01*
X447986D01*
X447933Y82733D01*
X447023Y83340D01*
X445950Y83554D01*
X444877Y83340D01*
X443967Y82733D01*
X443360Y81823D01*
X443146Y80750D01*
X443360Y79677D01*
X443967Y78767D01*
X444877Y78160D01*
X445950Y77946D01*
X447023Y78160D01*
X447933Y78767D01*
X447986Y78848D01*
X449514D01*
X449567Y78767D01*
X450477Y78160D01*
X451550Y77946D01*
X452623Y78160D01*
X453533Y78767D01*
X454140Y79677D01*
X454354Y80750D01*
X454140Y81823D01*
X453533Y82733D01*
X452623Y83340D01*
X451550Y83554D01*
D02*
G37*
G36*
X-8750Y88054D02*
X-9823Y87840D01*
X-10733Y87233D01*
X-11340Y86323D01*
X-11554Y85250D01*
X-11340Y84177D01*
X-10733Y83267D01*
X-9823Y82660D01*
X-8750Y82446D01*
X-7677Y82660D01*
X-6767Y83267D01*
X-6160Y84177D01*
X-5946Y85250D01*
X-6160Y86323D01*
X-6767Y87233D01*
X-7677Y87840D01*
X-8750Y88054D01*
D02*
G37*
G36*
X86000Y89804D02*
X84927Y89590D01*
X84017Y88983D01*
X83410Y88073D01*
X83303Y87538D01*
X83000Y86304D01*
X81927Y86090D01*
X81017Y85483D01*
X80410Y84573D01*
X80196Y83500D01*
X80410Y82427D01*
X81017Y81517D01*
X81927Y80910D01*
X83000Y80696D01*
X84073Y80910D01*
X84983Y81517D01*
X85590Y82427D01*
X85697Y82962D01*
X86000Y84196D01*
X87073Y84410D01*
X87983Y85017D01*
X88590Y85927D01*
X88804Y87000D01*
X88590Y88073D01*
X87983Y88983D01*
X87073Y89590D01*
X86000Y89804D01*
D02*
G37*
G36*
X110936Y85804D02*
X109863Y85590D01*
X108953Y84983D01*
X108345Y84073D01*
X108132Y83000D01*
X108345Y81927D01*
X108953Y81017D01*
X109863Y80410D01*
X110936Y80196D01*
X112009Y80410D01*
X112918Y81017D01*
X113526Y81927D01*
X113739Y83000D01*
X113526Y84073D01*
X112918Y84983D01*
X112009Y85590D01*
X110936Y85804D01*
D02*
G37*
G36*
X438250Y77554D02*
X437177Y77340D01*
X436268Y76733D01*
X435733D01*
X434823Y77340D01*
X433750Y77554D01*
X432677Y77340D01*
X431768Y76733D01*
X431160Y75823D01*
X430946Y74750D01*
X431160Y73677D01*
X431768Y72767D01*
X432677Y72160D01*
X433750Y71946D01*
X434823Y72160D01*
X435733Y72767D01*
X436268D01*
X437177Y72160D01*
X438250Y71946D01*
X439323Y72160D01*
X440233Y72767D01*
X440840Y73677D01*
X441054Y74750D01*
X440840Y75823D01*
X440233Y76733D01*
X439323Y77340D01*
X438250Y77554D01*
D02*
G37*
G36*
X121750Y76304D02*
X120677Y76090D01*
X119767Y75483D01*
X118546Y75941D01*
X118323Y76090D01*
X117250Y76304D01*
X116177Y76090D01*
X115267Y75483D01*
X114660Y74573D01*
X114446Y73500D01*
X114660Y72427D01*
X115267Y71517D01*
X116177Y70910D01*
X117250Y70696D01*
X118323Y70910D01*
X119233Y71517D01*
X120454Y71059D01*
X120677Y70910D01*
X121750Y70696D01*
X122823Y70910D01*
X123733Y71517D01*
X124340Y72427D01*
X124554Y73500D01*
X124340Y74573D01*
X123733Y75483D01*
X122823Y76090D01*
X121750Y76304D01*
D02*
G37*
G36*
X236000Y80304D02*
X234927Y80090D01*
X234017Y79483D01*
X233410Y78573D01*
X233196Y77500D01*
X233410Y76427D01*
X234017Y75517D01*
X234927Y74910D01*
X236000Y74696D01*
X237073Y74910D01*
X237983Y75517D01*
X238590Y76427D01*
X238804Y77500D01*
X238590Y78573D01*
X237983Y79483D01*
X237073Y80090D01*
X236000Y80304D01*
D02*
G37*
G36*
X22500Y79554D02*
X21427Y79341D01*
X20517Y78733D01*
X19910Y77823D01*
X19696Y76750D01*
X19910Y75677D01*
X20517Y74767D01*
X21427Y74160D01*
X22500Y73946D01*
X23573Y74160D01*
X24483Y74767D01*
X25090Y75677D01*
X25304Y76750D01*
X25090Y77823D01*
X24483Y78733D01*
X23573Y79341D01*
X22500Y79554D01*
D02*
G37*
G36*
X107750Y77304D02*
X106677Y77090D01*
X105767Y76483D01*
X105160Y75573D01*
X104946Y74500D01*
X105120Y73627D01*
X104586Y73052D01*
X104101Y72735D01*
X103125Y72929D01*
X102052Y72715D01*
X101142Y72108D01*
X100535Y71198D01*
X100321Y70125D01*
X100535Y69052D01*
X101142Y68142D01*
X102052Y67535D01*
X103125Y67321D01*
X104198Y67535D01*
X104450Y67703D01*
X105767Y68017D01*
X106677Y67410D01*
X107750Y67196D01*
X108823Y67410D01*
X109733Y68017D01*
X110340Y68927D01*
X110554Y70000D01*
X110340Y71073D01*
X110191Y71296D01*
X109833Y72250D01*
X110191Y73204D01*
X110340Y73427D01*
X110554Y74500D01*
X110340Y75573D01*
X109733Y76483D01*
X108823Y77090D01*
X107750Y77304D01*
D02*
G37*
G36*
X276000Y77804D02*
X274927Y77590D01*
X274017Y76983D01*
X273410Y76073D01*
X273196Y75000D01*
X273410Y73927D01*
X274017Y73017D01*
X274927Y72410D01*
X276000Y72196D01*
X277073Y72410D01*
X277983Y73017D01*
X278590Y73927D01*
X278804Y75000D01*
X278590Y76073D01*
X277983Y76983D01*
X277073Y77590D01*
X276000Y77804D01*
D02*
G37*
G36*
X353000Y72054D02*
X351927Y71840D01*
X351531Y71576D01*
X350625Y71336D01*
X349719Y71576D01*
X349323Y71840D01*
X348250Y72054D01*
X347177Y71840D01*
X346267Y71233D01*
X345660Y70323D01*
X345446Y69250D01*
X345660Y68177D01*
X346267Y67267D01*
X347177Y66660D01*
X348250Y66446D01*
X349323Y66660D01*
X349719Y66924D01*
X350625Y67164D01*
X351531Y66924D01*
X351927Y66660D01*
X353000Y66446D01*
X354073Y66660D01*
X354983Y67267D01*
X355590Y68177D01*
X355804Y69250D01*
X355590Y70323D01*
X354983Y71233D01*
X354073Y71840D01*
X353000Y72054D01*
D02*
G37*
G36*
X176750Y73554D02*
X175677Y73341D01*
X174767Y72733D01*
X174160Y71823D01*
X173946Y70750D01*
X174160Y69677D01*
X174767Y68767D01*
X175677Y68160D01*
X176750Y67946D01*
X177823Y68160D01*
X178733Y68767D01*
X179340Y69677D01*
X179554Y70750D01*
X179340Y71823D01*
X178733Y72733D01*
X177823Y73341D01*
X176750Y73554D01*
D02*
G37*
G36*
X268250Y68304D02*
X267177Y68090D01*
X266225Y67509D01*
X265273Y68090D01*
X264200Y68304D01*
X263127Y68090D01*
X262218Y67483D01*
X261610Y66573D01*
X261396Y65500D01*
X261610Y64427D01*
X262218Y63517D01*
X263127Y62910D01*
X264200Y62696D01*
X265273Y62910D01*
X266225Y63492D01*
X267177Y62910D01*
X268250Y62696D01*
X269323Y62910D01*
X270233Y63517D01*
X270840Y64427D01*
X271054Y65500D01*
X270840Y66573D01*
X270233Y67483D01*
X269323Y68090D01*
X268250Y68304D01*
D02*
G37*
G36*
X-9247Y71801D02*
X-10320Y71588D01*
X-11230Y70980D01*
X-11838Y70070D01*
X-12051Y68997D01*
X-11838Y67924D01*
X-11230Y67014D01*
X-10320Y66407D01*
X-9247Y66193D01*
X-8174Y66407D01*
X-7265Y67014D01*
X-6657Y67924D01*
X-6443Y68997D01*
X-6657Y70070D01*
X-7265Y70980D01*
X-8174Y71588D01*
X-9247Y71801D01*
D02*
G37*
G36*
X169250Y66804D02*
X168177Y66590D01*
X167267Y65983D01*
X166733D01*
X165823Y66590D01*
X164750Y66804D01*
X163677Y66590D01*
X162767Y65983D01*
X162160Y65073D01*
X161946Y64000D01*
X162160Y62927D01*
X162767Y62017D01*
X163677Y61410D01*
X164750Y61196D01*
X165823Y61410D01*
X166733Y62017D01*
X167267D01*
X168177Y61410D01*
X169250Y61196D01*
X170323Y61410D01*
X171232Y62017D01*
X171840Y62927D01*
X172054Y64000D01*
X171840Y65073D01*
X171232Y65983D01*
X170323Y66590D01*
X169250Y66804D01*
D02*
G37*
G36*
X289750Y71054D02*
X288677Y70840D01*
X287767Y70233D01*
X287160Y69323D01*
X286946Y68250D01*
X287160Y67177D01*
X287767Y66267D01*
X288677Y65660D01*
X289750Y65446D01*
X290823Y65660D01*
X291733Y66267D01*
X292340Y67177D01*
X292554Y68250D01*
X292340Y69323D01*
X291733Y70233D01*
X290823Y70840D01*
X289750Y71054D01*
D02*
G37*
G36*
X410000Y70054D02*
X408927Y69840D01*
X408017Y69233D01*
X407410Y68323D01*
X407196Y67250D01*
X407410Y66177D01*
X408017Y65267D01*
X408927Y64660D01*
X410000Y64446D01*
X411073Y64660D01*
X411983Y65267D01*
X412590Y66177D01*
X412804Y67250D01*
X412590Y68323D01*
X411983Y69233D01*
X411073Y69840D01*
X410000Y70054D01*
D02*
G37*
G36*
X89750Y69818D02*
X88677Y69605D01*
X87767Y68997D01*
X87160Y68087D01*
X86946Y67014D01*
X87160Y65941D01*
X87767Y65032D01*
X88677Y64424D01*
X89750Y64210D01*
X90823Y64424D01*
X91733Y65032D01*
X92340Y65941D01*
X92554Y67014D01*
X92340Y68087D01*
X91733Y68997D01*
X90823Y69605D01*
X89750Y69818D01*
D02*
G37*
G36*
X445000Y72804D02*
X443927Y72590D01*
X443017Y71983D01*
X442410Y71073D01*
X442196Y70000D01*
X442410Y68927D01*
X443017Y68017D01*
X443927Y67410D01*
X445000Y67196D01*
X446073Y67410D01*
X446513Y67703D01*
X446595Y67757D01*
X447681Y66957D01*
X447659Y66823D01*
X447634Y66694D01*
X447446Y65750D01*
X447660Y64677D01*
X448267Y63767D01*
X449177Y63160D01*
X450250Y62946D01*
X451323Y63160D01*
X452233Y63767D01*
X452840Y64677D01*
X453054Y65750D01*
X452840Y66823D01*
X452233Y67733D01*
X451323Y68340D01*
X450250Y68554D01*
X449177Y68340D01*
X448737Y68046D01*
X448655Y67993D01*
X447569Y68793D01*
X447590Y68927D01*
X447616Y69056D01*
X447804Y70000D01*
X447590Y71073D01*
X446983Y71983D01*
X446073Y72590D01*
X445000Y72804D01*
D02*
G37*
G36*
X206500Y62304D02*
X205427Y62090D01*
X205376Y62057D01*
X204375Y61554D01*
X203374Y62057D01*
X203323Y62090D01*
X202250Y62304D01*
X201177Y62090D01*
X200267Y61483D01*
X199660Y60573D01*
X199446Y59500D01*
X199660Y58427D01*
X200267Y57517D01*
X201177Y56910D01*
X202250Y56696D01*
X203323Y56910D01*
X203374Y56943D01*
X204375Y57446D01*
X205376Y56943D01*
X205427Y56910D01*
X206500Y56696D01*
X207573Y56910D01*
X208483Y57517D01*
X209090Y58427D01*
X209304Y59500D01*
X209090Y60573D01*
X208483Y61483D01*
X207573Y62090D01*
X206500Y62304D01*
D02*
G37*
G36*
X-2250Y66054D02*
X-3323Y65840D01*
X-4233Y65233D01*
X-4840Y64323D01*
X-5054Y63250D01*
X-4840Y62177D01*
X-4233Y61267D01*
X-3323Y60660D01*
X-2250Y60446D01*
X-1177Y60660D01*
X-267Y61267D01*
X340Y62177D01*
X554Y63250D01*
X340Y64323D01*
X-267Y65233D01*
X-1177Y65840D01*
X-2250Y66054D01*
D02*
G37*
G36*
X106750Y65554D02*
X105677Y65340D01*
X104767Y64733D01*
X104160Y63823D01*
X103946Y62750D01*
X104160Y61677D01*
X104767Y60767D01*
X105677Y60160D01*
X106750Y59946D01*
X107823Y60160D01*
X108733Y60767D01*
X109340Y61677D01*
X109554Y62750D01*
X109340Y63823D01*
X108733Y64733D01*
X107823Y65340D01*
X106750Y65554D01*
D02*
G37*
G36*
X98250Y65304D02*
X97177Y65090D01*
X96267Y64482D01*
X95660Y63573D01*
X95446Y62500D01*
X95660Y61427D01*
X96267Y60517D01*
X97177Y59910D01*
X98250Y59696D01*
X99323Y59910D01*
X100233Y60517D01*
X100841Y61427D01*
X101054Y62500D01*
X100841Y63573D01*
X100233Y64482D01*
X99323Y65090D01*
X98250Y65304D01*
D02*
G37*
G36*
X138500Y60054D02*
X137427Y59840D01*
X136517Y59233D01*
X136514Y59227D01*
X134986D01*
X134983Y59233D01*
X134073Y59840D01*
X133000Y60054D01*
X131927Y59840D01*
X131017Y59233D01*
X130409Y58323D01*
X130196Y57250D01*
X130409Y56177D01*
X131017Y55267D01*
X131927Y54660D01*
X133000Y54446D01*
X134073Y54660D01*
X134983Y55267D01*
X134986Y55273D01*
X136514D01*
X136517Y55267D01*
X137427Y54660D01*
X138500Y54446D01*
X139573Y54660D01*
X140483Y55267D01*
X141090Y56177D01*
X141304Y57250D01*
X141090Y58323D01*
X140483Y59233D01*
X139573Y59840D01*
X138500Y60054D01*
D02*
G37*
G36*
X262250D02*
X261177Y59840D01*
X260267Y59233D01*
X260264Y59227D01*
X258736D01*
X258733Y59233D01*
X257823Y59840D01*
X256750Y60054D01*
X255677Y59840D01*
X254767Y59233D01*
X254160Y58323D01*
X253946Y57250D01*
X254160Y56177D01*
X254767Y55267D01*
X255677Y54660D01*
X256750Y54446D01*
X257823Y54660D01*
X258733Y55267D01*
X258736Y55273D01*
X260264D01*
X260267Y55267D01*
X261177Y54660D01*
X262250Y54446D01*
X263323Y54660D01*
X264233Y55267D01*
X264840Y56177D01*
X265054Y57250D01*
X264840Y58323D01*
X264233Y59233D01*
X263323Y59840D01*
X262250Y60054D01*
D02*
G37*
G36*
X24000Y57804D02*
X22927Y57590D01*
X22017Y56983D01*
X21333D01*
X20423Y57590D01*
X19350Y57804D01*
X18277Y57590D01*
X17367Y56983D01*
X16760Y56073D01*
X16546Y55000D01*
X16760Y53927D01*
X17367Y53017D01*
X18277Y52410D01*
X19350Y52196D01*
X20423Y52410D01*
X21333Y53017D01*
X22017D01*
X22927Y52410D01*
X24000Y52196D01*
X25073Y52410D01*
X25983Y53017D01*
X26590Y53927D01*
X26804Y55000D01*
X26590Y56073D01*
X25983Y56983D01*
X25073Y57590D01*
X24000Y57804D01*
D02*
G37*
G36*
X310500Y61054D02*
X309427Y60840D01*
X308517Y60233D01*
X307910Y59323D01*
X307696Y58250D01*
X307910Y57177D01*
X308517Y56267D01*
X309427Y55660D01*
X310500Y55446D01*
X311573Y55660D01*
X312483Y56267D01*
X313090Y57177D01*
X313304Y58250D01*
X313090Y59323D01*
X312483Y60233D01*
X311573Y60840D01*
X310500Y61054D01*
D02*
G37*
G36*
X302500D02*
X301427Y60840D01*
X300517Y60233D01*
X299910Y59323D01*
X299696Y58250D01*
X299910Y57177D01*
X300517Y56267D01*
X301427Y55660D01*
X302500Y55446D01*
X303573Y55660D01*
X304483Y56267D01*
X305090Y57177D01*
X305304Y58250D01*
X305090Y59323D01*
X304483Y60233D01*
X303573Y60840D01*
X302500Y61054D01*
D02*
G37*
G36*
X-4607Y59054D02*
X-5680Y58840D01*
X-6590Y58232D01*
X-7198Y57323D01*
X-7411Y56250D01*
X-7198Y55177D01*
X-7139Y55089D01*
X-8055Y54174D01*
X-8674Y54587D01*
X-9747Y54801D01*
X-10820Y54587D01*
X-11730Y53980D01*
X-12338Y53070D01*
X-12551Y51997D01*
X-12338Y50924D01*
X-11730Y50015D01*
X-10820Y49407D01*
X-9747Y49193D01*
X-8674Y49407D01*
X-7765Y50015D01*
X-7157Y50924D01*
X-6943Y51997D01*
X-7157Y53070D01*
X-7215Y53158D01*
X-6300Y54073D01*
X-5680Y53660D01*
X-4607Y53446D01*
X-3534Y53660D01*
X-2625Y54267D01*
X-2017Y55177D01*
X-1804Y56250D01*
X-2017Y57323D01*
X-2625Y58232D01*
X-3534Y58840D01*
X-4607Y59054D01*
D02*
G37*
G36*
X46250Y55804D02*
X45177Y55591D01*
X44268Y54983D01*
X43660Y54073D01*
X43446Y53000D01*
X43660Y51927D01*
X44268Y51017D01*
X45177Y50410D01*
X46250Y50196D01*
X47323Y50410D01*
X47892Y50790D01*
X49267Y51017D01*
X50177Y50410D01*
X51250Y50196D01*
X52323Y50410D01*
X53233Y51017D01*
X53840Y51927D01*
X54054Y53000D01*
X53840Y54073D01*
X53233Y54983D01*
X52323Y55590D01*
X51250Y55804D01*
X50177Y55590D01*
X49608Y55210D01*
X48233Y54983D01*
X47323Y55591D01*
X46250Y55804D01*
D02*
G37*
G36*
X78000Y59554D02*
X76927Y59340D01*
X76017Y58733D01*
X75410Y57823D01*
X75196Y56750D01*
X74124Y55630D01*
X73927Y55590D01*
X73017Y54983D01*
X72410Y54073D01*
X72196Y53000D01*
X72410Y51927D01*
X73017Y51017D01*
X73927Y50410D01*
X75000Y50196D01*
X76073Y50410D01*
X76123Y50443D01*
X77125Y50946D01*
X78127Y50443D01*
X78177Y50410D01*
X79250Y50196D01*
X80323Y50410D01*
X81233Y51017D01*
X81840Y51927D01*
X82054Y53000D01*
X81840Y54073D01*
X81233Y54983D01*
X80468Y55494D01*
X80590Y55677D01*
X80804Y56750D01*
X80590Y57823D01*
X79983Y58733D01*
X79073Y59340D01*
X78000Y59554D01*
D02*
G37*
G36*
X329750Y53554D02*
X328677Y53341D01*
X327767Y52733D01*
X327160Y51823D01*
X326946Y50750D01*
X327160Y49677D01*
X327767Y48767D01*
X328677Y48160D01*
X329750Y47946D01*
X330823Y48160D01*
X331733Y48767D01*
X332340Y49677D01*
X332554Y50750D01*
X332340Y51823D01*
X331733Y52733D01*
X330823Y53341D01*
X329750Y53554D01*
D02*
G37*
G36*
X177025Y56829D02*
X175952Y56616D01*
X175042Y56008D01*
X174435Y55098D01*
X174221Y54025D01*
X174435Y52952D01*
X175042Y52042D01*
X175952Y51435D01*
X175660Y50323D01*
X175446Y49250D01*
X175516Y48899D01*
X175325Y48608D01*
X174420Y47921D01*
X173750Y48054D01*
X172677Y47840D01*
X171767Y47233D01*
X171160Y46323D01*
X170946Y45250D01*
X171160Y44177D01*
X171767Y43267D01*
X172677Y42660D01*
X173750Y42446D01*
X174823Y42660D01*
X175733Y43267D01*
X176340Y44177D01*
X176554Y45250D01*
X176484Y45601D01*
X176675Y45892D01*
X177580Y46579D01*
X178250Y46446D01*
X179323Y46660D01*
X179373Y46693D01*
X180518Y47267D01*
X181427Y46659D01*
X182500Y46446D01*
X183573Y46659D01*
X184483Y47267D01*
X185091Y48177D01*
X185304Y49250D01*
X185091Y50323D01*
X184483Y51233D01*
X183573Y51840D01*
X182500Y52054D01*
X181427Y51840D01*
X181377Y51807D01*
X180398Y51316D01*
X179374Y52033D01*
X179615Y52952D01*
X179829Y54025D01*
X179615Y55098D01*
X179008Y56008D01*
X178098Y56616D01*
X177025Y56829D01*
D02*
G37*
G36*
X94750Y52804D02*
X93677Y52590D01*
X92767Y51983D01*
X92160Y51073D01*
X91946Y50000D01*
X92160Y48927D01*
X92767Y48017D01*
X93677Y47410D01*
X94750Y47196D01*
X95823Y47410D01*
X96733Y48017D01*
X97340Y48927D01*
X97554Y50000D01*
X97340Y51073D01*
X96733Y51983D01*
X95823Y52590D01*
X94750Y52804D01*
D02*
G37*
G36*
X352250Y50054D02*
X351177Y49840D01*
X350267Y49233D01*
X349660Y48323D01*
X349446Y47250D01*
X349660Y46177D01*
X350267Y45267D01*
X351177Y44660D01*
X352250Y44446D01*
X353323Y44660D01*
X354233Y45267D01*
X354767D01*
X355677Y44660D01*
X356750Y44446D01*
X357823Y44660D01*
X358733Y45267D01*
X359340Y46177D01*
X359554Y47250D01*
X359340Y48323D01*
X358733Y49233D01*
X357823Y49840D01*
X356750Y50054D01*
X355677Y49840D01*
X354767Y49233D01*
X354233D01*
X353323Y49840D01*
X352250Y50054D01*
D02*
G37*
G36*
X96750Y36554D02*
X95677Y36340D01*
X95626Y36307D01*
X94625Y35804D01*
X93624Y36307D01*
X93573Y36340D01*
X92500Y36554D01*
X91427Y36340D01*
X91376Y36307D01*
X90375Y35804D01*
X89374Y36307D01*
X89323Y36340D01*
X88250Y36554D01*
X87177Y36340D01*
X86267Y35733D01*
X85660Y34823D01*
X85446Y33750D01*
X85660Y32677D01*
X86267Y31767D01*
X87177Y31160D01*
X88250Y30946D01*
X89323Y31160D01*
X89374Y31193D01*
X90375Y31696D01*
X91376Y31193D01*
X91427Y31160D01*
X92500Y30946D01*
X93573Y31160D01*
X93624Y31193D01*
X94625Y31696D01*
X95626Y31193D01*
X95677Y31160D01*
X96750Y30946D01*
X97823Y31160D01*
X98733Y31767D01*
X99340Y32677D01*
X99554Y33750D01*
X99340Y34823D01*
X98733Y35733D01*
X97823Y36340D01*
X96750Y36554D01*
D02*
G37*
G36*
X360000Y36382D02*
X358927Y36169D01*
X358667Y35995D01*
X357483Y35483D01*
X356573Y36090D01*
X355500Y36304D01*
X354427Y36090D01*
X353517Y35483D01*
X352910Y34573D01*
X352696Y33500D01*
X352910Y32427D01*
X353517Y31517D01*
X354427Y30910D01*
X355500Y30696D01*
X356573Y30910D01*
X356833Y31083D01*
X358017Y31596D01*
X358927Y30988D01*
X360000Y30775D01*
X361073Y30988D01*
X361983Y31596D01*
X362590Y32505D01*
X362804Y33578D01*
X362590Y34651D01*
X361983Y35561D01*
X361073Y36169D01*
X360000Y36382D01*
D02*
G37*
G36*
X367000Y40304D02*
X365927Y40090D01*
X365017Y39483D01*
X364410Y38573D01*
X364196Y37500D01*
X364410Y36427D01*
X365017Y35517D01*
X365927Y34910D01*
X367000Y34696D01*
X368073Y34910D01*
X368983Y35517D01*
X369590Y36427D01*
X369804Y37500D01*
X369590Y38573D01*
X368983Y39483D01*
X368073Y40090D01*
X367000Y40304D01*
D02*
G37*
G36*
X404750Y39804D02*
X403677Y39590D01*
X402767Y38983D01*
X402160Y38073D01*
X401946Y37000D01*
X402160Y35927D01*
X402767Y35017D01*
X403677Y34410D01*
X404750Y34196D01*
X405823Y34410D01*
X406733Y35017D01*
X407340Y35927D01*
X407554Y37000D01*
X407340Y38073D01*
X406733Y38983D01*
X405823Y39590D01*
X404750Y39804D01*
D02*
G37*
G36*
X263500Y48304D02*
X262427Y48090D01*
X261517Y47483D01*
X260910Y46573D01*
X260696Y45500D01*
X260910Y44427D01*
X261517Y43517D01*
X261984Y43206D01*
X261992Y43185D01*
Y41815D01*
X261984Y41794D01*
X261517Y41483D01*
X260910Y40573D01*
X260696Y39500D01*
X260910Y38427D01*
X261517Y37517D01*
Y36983D01*
X260910Y36073D01*
X260696Y35000D01*
X260725Y34855D01*
X259645Y33775D01*
X259500Y33804D01*
X259355Y33775D01*
X258275Y34855D01*
X258304Y35000D01*
X258090Y36073D01*
X257941Y36296D01*
X257583Y37250D01*
X257941Y38204D01*
X258090Y38427D01*
X258304Y39500D01*
X258090Y40573D01*
X257483Y41483D01*
X257016Y41794D01*
X257008Y41815D01*
Y43185D01*
X257016Y43206D01*
X257483Y43517D01*
X258090Y44427D01*
X258304Y45500D01*
X258090Y46573D01*
X257483Y47483D01*
X256573Y48090D01*
X255500Y48304D01*
X254427Y48090D01*
X253517Y47483D01*
X252910Y46573D01*
X252696Y45500D01*
X252910Y44427D01*
X253517Y43517D01*
X253984Y43206D01*
X253992Y43185D01*
Y41815D01*
X253984Y41794D01*
X253517Y41483D01*
X252910Y40573D01*
X252696Y39500D01*
X252910Y38427D01*
X253059Y38204D01*
X253417Y37250D01*
X253059Y36296D01*
X252910Y36073D01*
X252696Y35000D01*
X252910Y33927D01*
X253517Y33017D01*
X254427Y32410D01*
X255500Y32196D01*
X255645Y32225D01*
X256725Y31145D01*
X256696Y31000D01*
X256725Y30855D01*
X255645Y29775D01*
X255500Y29804D01*
X254427Y29590D01*
X253517Y28983D01*
X252910Y28073D01*
X252696Y27000D01*
X252910Y25927D01*
X253517Y25017D01*
Y24483D01*
X252910Y23573D01*
X252696Y22500D01*
X252910Y21427D01*
X253517Y20517D01*
X253984Y20206D01*
X253992Y20185D01*
Y18815D01*
X253984Y18794D01*
X253517Y18483D01*
X252910Y17573D01*
X252696Y16500D01*
X252910Y15427D01*
X253517Y14517D01*
X254427Y13910D01*
X255500Y13696D01*
X256573Y13910D01*
X257483Y14517D01*
X258090Y15427D01*
X258304Y16500D01*
X258090Y17573D01*
X257483Y18483D01*
X257016Y18794D01*
X257008Y18815D01*
Y20185D01*
X257016Y20206D01*
X257483Y20517D01*
X258090Y21427D01*
X258304Y22500D01*
X258090Y23573D01*
X257483Y24483D01*
Y25017D01*
X258090Y25927D01*
X258304Y27000D01*
X259428Y27532D01*
X259572D01*
X260696Y27000D01*
X260910Y25927D01*
X261517Y25017D01*
Y24483D01*
X260910Y23573D01*
X260696Y22500D01*
X260910Y21427D01*
X261517Y20517D01*
X261984Y20206D01*
X261992Y20185D01*
Y18815D01*
X261984Y18794D01*
X261517Y18483D01*
X260910Y17573D01*
X260696Y16500D01*
X260910Y15427D01*
X261517Y14517D01*
X262427Y13910D01*
X263500Y13696D01*
X264573Y13910D01*
X265483Y14517D01*
X266090Y15427D01*
X266304Y16500D01*
X266090Y17573D01*
X265483Y18483D01*
X265016Y18794D01*
X265008Y18815D01*
Y20185D01*
X265016Y20206D01*
X265483Y20517D01*
X266090Y21427D01*
X266304Y22500D01*
X266090Y23573D01*
X265483Y24483D01*
Y25017D01*
X266090Y25927D01*
X266304Y27000D01*
X266090Y28073D01*
X265483Y28983D01*
X264573Y29590D01*
X263500Y29804D01*
X262968Y30928D01*
Y31072D01*
X263500Y32196D01*
X264573Y32410D01*
X265483Y33017D01*
X266090Y33927D01*
X266304Y35000D01*
X266090Y36073D01*
X265483Y36983D01*
Y37517D01*
X266090Y38427D01*
X266304Y39500D01*
X266090Y40573D01*
X265483Y41483D01*
X265016Y41794D01*
X265008Y41815D01*
Y43185D01*
X265016Y43206D01*
X265483Y43517D01*
X266090Y44427D01*
X266304Y45500D01*
X266090Y46573D01*
X265483Y47483D01*
X264573Y48090D01*
X263500Y48304D01*
D02*
G37*
G36*
X207500Y34054D02*
X206427Y33840D01*
X205517Y33233D01*
X204483Y32733D01*
X203573Y33340D01*
X202500Y33554D01*
X201427Y33340D01*
X200517Y32733D01*
X199910Y31823D01*
X199696Y30750D01*
X199910Y29677D01*
X200517Y28767D01*
X201427Y28160D01*
X202100Y28026D01*
X201946Y27250D01*
X202160Y26177D01*
X202767Y25267D01*
X203677Y24660D01*
X204750Y24446D01*
X205823Y24660D01*
X206733Y25267D01*
X207340Y26177D01*
X207554Y27250D01*
X207552Y27260D01*
X207503Y28368D01*
X208474Y28640D01*
X208573Y28660D01*
X209483Y29267D01*
X210090Y30177D01*
X210304Y31250D01*
X210090Y32323D01*
X209483Y33233D01*
X208573Y33840D01*
X207500Y34054D01*
D02*
G37*
G36*
X131750Y48304D02*
X130677Y48091D01*
X129767Y47483D01*
X129160Y46573D01*
X128946Y45500D01*
X129160Y44427D01*
X129767Y43517D01*
X130234Y43206D01*
X130242Y43185D01*
Y41815D01*
X130234Y41795D01*
X129767Y41483D01*
X129160Y40573D01*
X128946Y39500D01*
X129160Y38427D01*
X129309Y38204D01*
X129667Y37250D01*
X129309Y36296D01*
X129160Y36073D01*
X128946Y35000D01*
X129160Y33927D01*
X129767Y33017D01*
X130677Y32410D01*
X131750Y32196D01*
X131895Y32225D01*
X132975Y31145D01*
X132946Y31000D01*
X132975Y30855D01*
X131895Y29775D01*
X131750Y29804D01*
X130677Y29590D01*
X129767Y28983D01*
X129160Y28073D01*
X128946Y27000D01*
X129160Y25927D01*
X129767Y25017D01*
Y24483D01*
X129160Y23573D01*
X128946Y22500D01*
X129160Y21427D01*
X129767Y20517D01*
X130234Y20206D01*
X130242Y20185D01*
Y18815D01*
X130234Y18794D01*
X129767Y18483D01*
X129160Y17573D01*
X128946Y16500D01*
X129160Y15427D01*
X129767Y14517D01*
X130677Y13910D01*
X131750Y13696D01*
X132823Y13910D01*
X133733Y14517D01*
X134340Y15427D01*
X134554Y16500D01*
X134340Y17573D01*
X133733Y18483D01*
X133266Y18794D01*
X133258Y18815D01*
Y20185D01*
X133266Y20206D01*
X133733Y20517D01*
X134340Y21427D01*
X134554Y22500D01*
X134340Y23573D01*
X133733Y24483D01*
Y25017D01*
X134340Y25927D01*
X134554Y27000D01*
X135678Y27532D01*
X135822D01*
X136946Y27000D01*
X137160Y25927D01*
X137309Y25704D01*
X137667Y24750D01*
X137309Y23796D01*
X137160Y23573D01*
X136946Y22500D01*
X137160Y21427D01*
X137767Y20517D01*
X138234Y20206D01*
X138242Y20185D01*
Y18815D01*
X138234Y18794D01*
X137767Y18483D01*
X137160Y17573D01*
X136946Y16500D01*
X137160Y15427D01*
X137767Y14517D01*
X138677Y13910D01*
X139750Y13696D01*
X140823Y13910D01*
X141733Y14517D01*
X142340Y15427D01*
X142554Y16500D01*
X142340Y17573D01*
X141733Y18483D01*
X141266Y18794D01*
X141258Y18815D01*
Y20185D01*
X141266Y20206D01*
X141733Y20517D01*
X142340Y21427D01*
X142554Y22500D01*
X142340Y23573D01*
X142191Y23796D01*
X141833Y24750D01*
X142191Y25704D01*
X142340Y25927D01*
X142554Y27000D01*
X142340Y28073D01*
X141733Y28983D01*
X140823Y29590D01*
X139750Y29804D01*
X139605Y29775D01*
X138525Y30855D01*
X138554Y31000D01*
X138525Y31145D01*
X139605Y32225D01*
X139750Y32196D01*
X140823Y32410D01*
X141733Y33017D01*
X142340Y33927D01*
X142554Y35000D01*
X142340Y36073D01*
X141733Y36983D01*
Y37517D01*
X142340Y38427D01*
X142554Y39500D01*
X142340Y40573D01*
X141733Y41483D01*
X141266Y41794D01*
X141258Y41815D01*
Y43185D01*
X141266Y43206D01*
X141733Y43517D01*
X142340Y44427D01*
X142554Y45500D01*
X142340Y46573D01*
X141733Y47483D01*
X140823Y48090D01*
X139750Y48304D01*
X138677Y48090D01*
X137767Y47483D01*
X137160Y46573D01*
X136946Y45500D01*
X137160Y44427D01*
X137767Y43517D01*
X138234Y43206D01*
X138242Y43185D01*
Y41815D01*
X138234Y41794D01*
X137767Y41483D01*
X137160Y40573D01*
X136946Y39500D01*
X137160Y38427D01*
X137767Y37517D01*
Y36983D01*
X137160Y36073D01*
X136946Y35000D01*
X136975Y34855D01*
X135895Y33775D01*
X135750Y33804D01*
X135605Y33775D01*
X134525Y34855D01*
X134554Y35000D01*
X134340Y36073D01*
X134191Y36296D01*
X133833Y37250D01*
X134191Y38204D01*
X134340Y38427D01*
X134554Y39500D01*
X134340Y40573D01*
X133733Y41483D01*
X133266Y41795D01*
X133258Y41815D01*
Y43185D01*
X133266Y43206D01*
X133733Y43517D01*
X134340Y44427D01*
X134554Y45500D01*
X134340Y46573D01*
X133733Y47483D01*
X132823Y48091D01*
X131750Y48304D01*
D02*
G37*
G36*
X186250Y36304D02*
X185177Y36090D01*
X184267Y35483D01*
X183660Y34573D01*
X183446Y33500D01*
X183660Y32427D01*
X183834Y32167D01*
X183688Y30937D01*
X183490Y30738D01*
X182625Y30304D01*
X181624Y30807D01*
X181573Y30840D01*
X180500Y31054D01*
X179427Y30840D01*
X178517Y30233D01*
X177910Y29323D01*
X177696Y28250D01*
X177910Y27177D01*
X178517Y26267D01*
X179427Y25660D01*
X180500Y25446D01*
X181573Y25660D01*
X181623Y25693D01*
X182625Y26196D01*
X183626Y25693D01*
X183677Y25660D01*
X184750Y25446D01*
X185823Y25660D01*
X186733Y26267D01*
X187340Y27177D01*
X187554Y28250D01*
X187340Y29323D01*
X187166Y29583D01*
X187312Y30813D01*
X187578Y31080D01*
X188233Y31517D01*
X188840Y32427D01*
X189054Y33500D01*
X188840Y34573D01*
X188233Y35483D01*
X187323Y36090D01*
X186250Y36304D01*
D02*
G37*
G36*
X7250Y34304D02*
X6177Y34090D01*
X5267Y33483D01*
X4660Y32573D01*
X4446Y31500D01*
X4660Y30427D01*
X5267Y29517D01*
X6177Y28909D01*
X7250Y28696D01*
X8323Y28909D01*
X9233Y29517D01*
X9840Y30427D01*
X10054Y31500D01*
X9840Y32573D01*
X9233Y33483D01*
X8323Y34090D01*
X7250Y34304D01*
D02*
G37*
G36*
X342250Y30554D02*
X341177Y30340D01*
X340267Y29733D01*
X339660Y28823D01*
X339446Y27750D01*
X339660Y26677D01*
X340267Y25767D01*
X341177Y25160D01*
X342250Y24946D01*
X343323Y25160D01*
X344233Y25767D01*
X344840Y26677D01*
X345054Y27750D01*
X344840Y28823D01*
X344233Y29733D01*
X343323Y30340D01*
X342250Y30554D01*
D02*
G37*
G36*
X16000Y36304D02*
X14927Y36090D01*
X14017Y35483D01*
X13410Y34573D01*
X13196Y33500D01*
X13410Y32427D01*
X14017Y31517D01*
X14927Y30910D01*
X16000Y30696D01*
X16207Y30737D01*
X17290Y30687D01*
X17976Y29985D01*
X18122Y29767D01*
X19031Y29160D01*
X20104Y28946D01*
X21177Y29160D01*
X22087Y29767D01*
X22493D01*
X23320Y28787D01*
X22952Y28136D01*
X22910Y28073D01*
X22696Y27000D01*
X22910Y25927D01*
X23517Y25017D01*
X24427Y24410D01*
X25500Y24196D01*
X26573Y24410D01*
X27483Y25017D01*
X28090Y25927D01*
X28304Y27000D01*
X28090Y28073D01*
X27483Y28983D01*
X27476Y28987D01*
X26644Y29717D01*
X27153Y30614D01*
X27195Y30677D01*
X27408Y31750D01*
X27195Y32823D01*
X26587Y33733D01*
X25677Y34341D01*
X24604Y34554D01*
X23531Y34341D01*
X23308Y34191D01*
X22354Y33833D01*
X21400Y34191D01*
X21177Y34341D01*
X20104Y34554D01*
X19897Y34513D01*
X18814Y34563D01*
X18128Y35265D01*
X17983Y35483D01*
X17073Y36090D01*
X16000Y36304D01*
D02*
G37*
G36*
X286500Y28804D02*
X285427Y28590D01*
X284517Y27983D01*
X283910Y27073D01*
X283696Y26000D01*
X283910Y24927D01*
X283943Y24876D01*
X284446Y23875D01*
X283943Y22873D01*
X283910Y22823D01*
X283696Y21750D01*
X283910Y20677D01*
X284517Y19767D01*
X285427Y19160D01*
X286500Y18946D01*
X287573Y19160D01*
X288483Y19767D01*
X289090Y20677D01*
X289304Y21750D01*
X289090Y22823D01*
X289057Y22873D01*
X288554Y23875D01*
X289057Y24876D01*
X289090Y24927D01*
X289304Y26000D01*
X289090Y27073D01*
X288483Y27983D01*
X287573Y28590D01*
X286500Y28804D01*
D02*
G37*
G36*
X323500Y22804D02*
X322427Y22590D01*
X321517Y21983D01*
X320910Y21073D01*
X320696Y20000D01*
X320910Y18927D01*
X321517Y18017D01*
X322427Y17409D01*
X323500Y17196D01*
X324573Y17409D01*
X325483Y18017D01*
X326090Y18927D01*
X326304Y20000D01*
X326090Y21073D01*
X325483Y21983D01*
X324573Y22590D01*
X323500Y22804D01*
D02*
G37*
G36*
X109000Y19054D02*
X107927Y18840D01*
X107017Y18233D01*
X106410Y17323D01*
X106196Y16250D01*
X106410Y15177D01*
X107017Y14267D01*
X107927Y13659D01*
X109000Y13446D01*
X110073Y13659D01*
X110983Y14267D01*
X111590Y15177D01*
X111804Y16250D01*
X111590Y17323D01*
X110983Y18233D01*
X110073Y18840D01*
X109000Y19054D01*
D02*
G37*
G36*
X77750Y23554D02*
X76677Y23340D01*
X75767Y22733D01*
X75160Y21823D01*
X74946Y20750D01*
X75160Y19677D01*
X75282Y19494D01*
X74517Y18983D01*
X73910Y18073D01*
X73696Y17000D01*
X73910Y15927D01*
X74517Y15017D01*
X75052Y14660D01*
X74660Y14073D01*
X74446Y13000D01*
X74660Y11927D01*
X75267Y11017D01*
X76177Y10409D01*
X77250Y10196D01*
X78323Y10409D01*
X79233Y11017D01*
X79840Y11927D01*
X80054Y13000D01*
X79840Y14073D01*
X79233Y14983D01*
X78698Y15340D01*
X79090Y15927D01*
X79304Y17000D01*
X79090Y18073D01*
X78968Y18256D01*
X79733Y18767D01*
X80340Y19677D01*
X80554Y20750D01*
X80340Y21823D01*
X79733Y22733D01*
X78823Y23340D01*
X77750Y23554D01*
D02*
G37*
G36*
X340250Y10804D02*
X339177Y10590D01*
X338267Y9983D01*
X337123Y10557D01*
X337073Y10590D01*
X336000Y10804D01*
X334927Y10590D01*
X334876Y10557D01*
X333875Y10054D01*
X332873Y10557D01*
X332823Y10590D01*
X331750Y10804D01*
X330677Y10590D01*
X329767Y9983D01*
X329160Y9073D01*
X328946Y8000D01*
X329160Y6927D01*
X329767Y6017D01*
X330677Y5410D01*
X331750Y5196D01*
X332823Y5410D01*
X332873Y5443D01*
X333875Y5946D01*
X334876Y5443D01*
X334927Y5410D01*
X336000Y5196D01*
X337073Y5410D01*
X337983Y6017D01*
X339127Y5443D01*
X339177Y5410D01*
X340250Y5196D01*
X341323Y5410D01*
X342233Y6017D01*
X342840Y6927D01*
X343054Y8000D01*
X342840Y9073D01*
X342233Y9983D01*
X341323Y10590D01*
X340250Y10804D01*
D02*
G37*
G36*
X180500Y14671D02*
X179427Y14458D01*
X178517Y13850D01*
X177910Y12941D01*
X177696Y11868D01*
X177910Y10795D01*
X178517Y9885D01*
X179427Y9277D01*
X180500Y9064D01*
X181573Y9277D01*
X182483Y9885D01*
X183090Y10795D01*
X183304Y11868D01*
X183090Y12941D01*
X182483Y13850D01*
X181573Y14458D01*
X180500Y14671D01*
D02*
G37*
G36*
X24250Y16804D02*
X23177Y16590D01*
X22267Y15983D01*
X21660Y15073D01*
X21446Y14000D01*
X21660Y12927D01*
X22267Y12017D01*
X23177Y11410D01*
X24139Y11218D01*
X23946Y10250D01*
X24160Y9177D01*
X24767Y8267D01*
X25677Y7660D01*
X26750Y7446D01*
X27823Y7660D01*
X28733Y8267D01*
X29340Y9177D01*
X29554Y10250D01*
X29340Y11323D01*
X28733Y12233D01*
X27823Y12840D01*
X26861Y13032D01*
X27054Y14000D01*
X26840Y15073D01*
X26233Y15983D01*
X25323Y16590D01*
X24250Y16804D01*
D02*
G37*
G36*
X301500Y12554D02*
X300427Y12341D01*
X299517Y11733D01*
X298910Y10823D01*
X298696Y9750D01*
X298910Y8677D01*
X299517Y7768D01*
X300427Y7160D01*
X301500Y6946D01*
X302573Y7160D01*
X303483Y7768D01*
X304017D01*
X304017Y7767D01*
X304927Y7160D01*
X306000Y6946D01*
X307073Y7160D01*
X307983Y7767D01*
X308590Y8677D01*
X308804Y9750D01*
X308590Y10823D01*
X307983Y11733D01*
X307073Y12340D01*
X306000Y12554D01*
X304927Y12340D01*
X304017Y11733D01*
X303483D01*
X303483Y11733D01*
X302573Y12341D01*
X301500Y12554D01*
D02*
G37*
G36*
X218250Y12554D02*
X217177Y12340D01*
X216267Y11733D01*
X215660Y10823D01*
X215446Y9750D01*
X215660Y8677D01*
X216267Y7767D01*
X217177Y7160D01*
X218250Y6946D01*
X219323Y7160D01*
X220233Y7767D01*
X220840Y8677D01*
X221054Y9750D01*
X220840Y10823D01*
X220233Y11733D01*
X219323Y12340D01*
X218250Y12554D01*
D02*
G37*
G36*
X403000Y12304D02*
X401927Y12091D01*
X401017Y11483D01*
X400410Y10573D01*
X400196Y9500D01*
X400410Y8427D01*
X401017Y7517D01*
X401927Y6910D01*
X403000Y6696D01*
X404073Y6910D01*
X404983Y7517D01*
X405590Y8427D01*
X405804Y9500D01*
X405590Y10573D01*
X404983Y11483D01*
X404073Y12091D01*
X403000Y12304D01*
D02*
G37*
%LPD*%
D125*
X437500Y30500D02*
D03*
Y266500D02*
D03*
D140*
X92954Y113395D02*
D03*
X26000Y125250D02*
D03*
X371750Y122500D02*
D03*
X350000Y233500D02*
D03*
X146487Y123751D02*
D03*
X238750Y208250D02*
D03*
X7750Y159500D02*
D03*
X183250Y159750D02*
D03*
X363000Y282000D02*
D03*
X383923Y114500D02*
D03*
X373673Y88500D02*
D03*
X190250Y135000D02*
D03*
X175750Y182500D02*
D03*
X235000Y252500D02*
D03*
X132750Y290250D02*
D03*
X205500Y255750D02*
D03*
X187500Y262250D02*
D03*
X110750Y248250D02*
D03*
X136000Y253750D02*
D03*
X152500Y239750D02*
D03*
X103000Y272000D02*
D03*
X111000Y267500D02*
D03*
X1750Y279000D02*
D03*
X121382Y183499D02*
D03*
X454500Y98500D02*
D03*
X438500Y109500D02*
D03*
X448250Y107750D02*
D03*
X431500Y103500D02*
D03*
X450250Y65750D02*
D03*
X445000Y70000D02*
D03*
X444000Y118500D02*
D03*
X441500Y122250D02*
D03*
X444000Y148000D02*
D03*
X439750Y149500D02*
D03*
X349509Y146250D02*
D03*
X329295Y153450D02*
D03*
X452757Y176750D02*
D03*
X440064Y176814D02*
D03*
X452750Y203000D02*
D03*
X449250Y206500D02*
D03*
Y191750D02*
D03*
X329375Y160030D02*
D03*
X335955Y153450D02*
D03*
X368250Y147500D02*
D03*
X433250Y205250D02*
D03*
X464250Y211500D02*
D03*
X459250Y170750D02*
D03*
X402750Y21750D02*
D03*
X171236Y148500D02*
D03*
X323750Y271750D02*
D03*
X463500Y63500D02*
D03*
X445500Y91500D02*
D03*
X323500Y20000D02*
D03*
X456300Y228250D02*
D03*
X329250Y18500D02*
D03*
X27000Y78250D02*
D03*
X43000Y175500D02*
D03*
X28250Y136250D02*
D03*
X54500Y119750D02*
D03*
X274750Y214250D02*
D03*
X127000Y82750D02*
D03*
X128500Y205250D02*
D03*
X61000Y272500D02*
D03*
X353500Y21000D02*
D03*
X375750Y11750D02*
D03*
X181396Y231500D02*
D03*
X185500Y231500D02*
D03*
X255500Y262750D02*
D03*
X288250Y89250D02*
D03*
X264750Y293750D02*
D03*
X168450Y135143D02*
D03*
X403900Y187000D02*
D03*
X214250Y223600D02*
D03*
X140500Y117000D02*
D03*
X160629Y137893D02*
D03*
X404750Y70000D02*
D03*
X412000Y223000D02*
D03*
X400500Y211750D02*
D03*
X374500Y248250D02*
D03*
X306250Y287750D02*
D03*
X291500Y267250D02*
D03*
X63250Y291000D02*
D03*
X87000Y230750D02*
D03*
X97500Y222750D02*
D03*
X53750Y184500D02*
D03*
X211500Y273750D02*
D03*
X189250Y217500D02*
D03*
X409000Y232250D02*
D03*
X130500Y221500D02*
D03*
X54500Y240500D02*
D03*
X-9750Y155000D02*
D03*
X26750Y184000D02*
D03*
X118203Y159107D02*
D03*
X91250Y157250D02*
D03*
X95164Y78085D02*
D03*
X77750Y90000D02*
D03*
X132345Y144965D02*
D03*
X100525Y148500D02*
D03*
X121738Y134358D02*
D03*
X75776Y123751D02*
D03*
X79312Y127287D02*
D03*
X307000Y224500D02*
D03*
X344500Y214000D02*
D03*
X57750Y134250D02*
D03*
X103750Y125750D02*
D03*
X315500Y55750D02*
D03*
X375000Y45750D02*
D03*
X373500Y37000D02*
D03*
X400250Y38750D02*
D03*
X381250Y28750D02*
D03*
X331500Y38000D02*
D03*
X337750Y37750D02*
D03*
X444000Y155750D02*
D03*
X431250Y150750D02*
D03*
X149750Y157250D02*
D03*
X61634Y137893D02*
D03*
X65170Y141429D02*
D03*
X50500Y256500D02*
D03*
X45750D02*
D03*
X387500Y146250D02*
D03*
X272685Y196741D02*
D03*
X259365D02*
D03*
X262695Y193411D02*
D03*
X431000Y91500D02*
D03*
X176957Y135707D02*
D03*
X186621Y138871D02*
D03*
X212000Y169000D02*
D03*
X112250Y215750D02*
D03*
X337500Y84750D02*
D03*
X312500Y89750D02*
D03*
X309315Y106830D02*
D03*
X155750Y115000D02*
D03*
X158500Y107750D02*
D03*
X435500Y235750D02*
D03*
X66750Y253750D02*
D03*
X59000D02*
D03*
X71250Y234500D02*
D03*
X65500Y235750D02*
D03*
Y220250D02*
D03*
Y198750D02*
D03*
X154750Y282000D02*
D03*
X-9500Y100500D02*
D03*
X-9500Y105494D02*
D03*
X-9500Y128747D02*
D03*
X-9500Y134494D02*
D03*
X-4500Y162500D02*
D03*
X-8750Y162500D02*
D03*
X-5250Y253997D02*
D03*
X-9750Y253995D02*
D03*
X-5000Y234497D02*
D03*
X-9500Y234500D02*
D03*
X-8750Y210000D02*
D03*
X-4250Y209997D02*
D03*
X142000Y95000D02*
D03*
X154000Y89750D02*
D03*
X145250Y77750D02*
D03*
X172500Y209250D02*
D03*
X181000Y210750D02*
D03*
X207250Y214750D02*
D03*
X204750Y134750D02*
D03*
X131875Y90875D02*
D03*
X-9500Y124000D02*
D03*
X-5250Y155000D02*
D03*
X-8250Y73750D02*
D03*
X394500Y173500D02*
D03*
X404500Y133000D02*
D03*
Y140000D02*
D03*
X3750Y3750D02*
D03*
X15000Y52250D02*
D03*
X28750Y56750D02*
D03*
X307250Y241250D02*
D03*
X316500Y271500D02*
D03*
X250750Y289500D02*
D03*
X414500Y200500D02*
D03*
X209750Y83750D02*
D03*
X210000Y74750D02*
D03*
X204000Y65250D02*
D03*
X216500Y129750D02*
D03*
X33500Y105750D02*
D03*
X94750Y54750D02*
D03*
X19000Y105000D02*
D03*
X10250Y101000D02*
D03*
X6750Y87250D02*
D03*
X-3000Y52000D02*
D03*
X10500Y69000D02*
D03*
X63750Y67000D02*
D03*
Y71750D02*
D03*
X65500Y50750D02*
D03*
X68000Y42500D02*
D03*
X64500Y91500D02*
D03*
X18500Y69750D02*
D03*
X64000Y17000D02*
D03*
X25500Y22500D02*
D03*
X41750Y20750D02*
D03*
X41500Y3000D02*
D03*
X57750Y3250D02*
D03*
X11500Y33250D02*
D03*
X13000Y29250D02*
D03*
X52000Y27250D02*
D03*
X30750D02*
D03*
X-3500Y41750D02*
D03*
X-8500D02*
D03*
X90750Y102500D02*
D03*
X12250Y241250D02*
D03*
X33500Y199250D02*
D03*
X32000Y269750D02*
D03*
X24250D02*
D03*
X42500Y287500D02*
D03*
X50750Y251750D02*
D03*
X44000Y204500D02*
D03*
X53250Y226250D02*
D03*
X36500Y230000D02*
D03*
Y234750D02*
D03*
X39750Y242500D02*
D03*
X26750Y244000D02*
D03*
X100169Y205425D02*
D03*
X114667Y99003D02*
D03*
X256250Y203250D02*
D03*
X61634Y159107D02*
D03*
X65170Y155571D02*
D03*
X79169Y141285D02*
D03*
X132345Y109609D02*
D03*
X128809Y106074D02*
D03*
X121738Y99003D02*
D03*
X114667Y91931D02*
D03*
X111132Y95467D02*
D03*
X107596Y99003D02*
D03*
X104061Y102538D02*
D03*
X115353Y106759D02*
D03*
X100525Y106074D02*
D03*
X82847Y123751D02*
D03*
X86383Y120216D02*
D03*
X82847Y116680D02*
D03*
X75383Y152179D02*
D03*
X37721Y148500D02*
D03*
X61634Y144965D02*
D03*
X61634Y152036D02*
D03*
X66500Y170000D02*
D03*
X75776Y166178D02*
D03*
X79312Y169713D02*
D03*
X82847Y173249D02*
D03*
X86383Y176784D02*
D03*
X89918Y180320D02*
D03*
X93454Y183855D02*
D03*
X96990Y187391D02*
D03*
X100525Y190926D02*
D03*
X104061Y194462D02*
D03*
X107596Y197997D02*
D03*
X115250Y225000D02*
D03*
X111132Y201533D02*
D03*
X115500Y81250D02*
D03*
X114000Y111250D02*
D03*
X135880Y113145D02*
D03*
X125274Y194462D02*
D03*
X121738Y197997D02*
D03*
X118203Y201533D02*
D03*
X114667Y205069D02*
D03*
X142951Y127287D02*
D03*
X135880Y183855D02*
D03*
X160629Y152036D02*
D03*
X131988Y172892D02*
D03*
X150023Y127287D02*
D03*
X153558Y130822D02*
D03*
X149337Y142114D02*
D03*
X160629Y159107D02*
D03*
X164165Y148500D02*
D03*
Y155571D02*
D03*
X156280Y175970D02*
D03*
X268250Y204750D02*
D03*
X374750Y174000D02*
D03*
X304500Y79000D02*
D03*
X276000Y79500D02*
D03*
X266250Y77250D02*
D03*
X254000Y79750D02*
D03*
X243250D02*
D03*
X345750Y116750D02*
D03*
X299500Y181750D02*
D03*
X349371Y167579D02*
D03*
X200250Y135500D02*
D03*
X327000Y54750D02*
D03*
X458750Y192000D02*
D03*
X424750Y184250D02*
D03*
X440750Y101000D02*
D03*
X408750Y211000D02*
D03*
X430925Y119000D02*
D03*
X401000Y136500D02*
D03*
X410000Y115000D02*
D03*
X391000Y123750D02*
D03*
X411500Y165000D02*
D03*
X416250Y178000D02*
D03*
X395250Y57750D02*
D03*
X389500D02*
D03*
X339285Y136800D02*
D03*
X335955Y140130D02*
D03*
X426500Y213250D02*
D03*
X281750Y267250D02*
D03*
X390000Y282500D02*
D03*
X378500Y272750D02*
D03*
X323750Y284250D02*
D03*
X339250Y283500D02*
D03*
X416750Y130000D02*
D03*
X400750Y65750D02*
D03*
X415000Y99250D02*
D03*
X404750Y85500D02*
D03*
X402000Y251750D02*
D03*
X378500Y243750D02*
D03*
X342615Y160110D02*
D03*
X339285Y156780D02*
D03*
X335955Y146790D02*
D03*
X332625Y150120D02*
D03*
X342615Y180090D02*
D03*
X289335Y200071D02*
D03*
X246045Y183421D02*
D03*
X233250Y183369D02*
D03*
X325965Y196741D02*
D03*
X266025Y190081D02*
D03*
X282675Y193411D02*
D03*
X329295Y186751D02*
D03*
X305985Y103500D02*
D03*
X252705Y143460D02*
D03*
X249375Y146790D02*
D03*
X242715Y120150D02*
D03*
X286005Y110160D02*
D03*
X272685Y103500D02*
D03*
X266025Y96840D02*
D03*
X339285Y170100D02*
D03*
Y163440D02*
D03*
X270000Y31000D02*
D03*
X259500Y43000D02*
D03*
Y19000D02*
D03*
Y37250D02*
D03*
Y24750D02*
D03*
X292250Y12250D02*
D03*
X297000D02*
D03*
X294750Y49750D02*
D03*
X290000D02*
D03*
X225750Y49250D02*
D03*
X230500D02*
D03*
X223750Y12500D02*
D03*
X228500D02*
D03*
X168500Y49750D02*
D03*
X173250D02*
D03*
X168500Y12250D02*
D03*
X173250D02*
D03*
X103000D02*
D03*
X98250D02*
D03*
X100750Y49750D02*
D03*
X105500D02*
D03*
X135750Y37250D02*
D03*
X135750Y24750D02*
D03*
X135750Y43000D02*
D03*
Y19000D02*
D03*
X125250Y31000D02*
D03*
X246045Y130140D02*
D03*
X242715Y133470D02*
D03*
X252705Y130140D02*
D03*
X249375Y133470D02*
D03*
X242715Y173431D02*
D03*
X249375Y166771D02*
D03*
X246045Y170101D02*
D03*
Y176761D02*
D03*
X242715Y160111D02*
D03*
X246045Y163441D02*
D03*
X249375Y160110D02*
D03*
X121738Y162642D02*
D03*
X135880Y148500D02*
D03*
X121738D02*
D03*
X107596Y148500D02*
D03*
X114667Y155571D02*
D03*
Y141429D02*
D03*
Y134358D02*
D03*
D141*
X290645Y133500D02*
D03*
Y123500D02*
D03*
Y153500D02*
D03*
Y143500D02*
D03*
Y163500D02*
D03*
Y173500D02*
D03*
X300645Y173400D02*
D03*
Y163400D02*
D03*
Y143400D02*
D03*
Y153400D02*
D03*
Y123400D02*
D03*
Y133400D02*
D03*
X310645Y163400D02*
D03*
Y143400D02*
D03*
Y153400D02*
D03*
Y133400D02*
D03*
X270645D02*
D03*
Y153400D02*
D03*
Y143400D02*
D03*
Y163400D02*
D03*
X280645Y133400D02*
D03*
Y123400D02*
D03*
Y153400D02*
D03*
Y143400D02*
D03*
Y163400D02*
D03*
Y173400D02*
D03*
D142*
X310645D02*
D03*
Y123400D02*
D03*
X270645D02*
D03*
Y173400D02*
D03*
M02*
