G04*
G04 #@! TF.GenerationSoftware,Altium Limited,Altium Designer,19.1.6 (110)*
G04*
G04 Layer_Color=8388736*
%FSLAX44Y44*%
%MOMM*%
G71*
G01*
G75*
%ADD11C,0.3000*%
%ADD12C,0.2000*%
%ADD13C,0.1500*%
%ADD15C,0.1000*%
%ADD34C,0.2000*%
%ADD129C,0.3500*%
%ADD142C,0.5000*%
%ADD206C,0.0500*%
%ADD207C,0.2540*%
%ADD208C,0.0700*%
G36*
X-37500Y277000D02*
Y195000D01*
X-40000Y195000D01*
X-40000Y277000D01*
X-37500Y277000D01*
D02*
G37*
G36*
X12211Y132900D02*
X12210Y137900D01*
X17211Y137900D01*
X12211Y132900D01*
D02*
G37*
G36*
X-37500Y179000D02*
X-37500Y20001D01*
X-40000Y20001D01*
X-40000Y179000D01*
X-37500Y179000D01*
D02*
G37*
D11*
X322500Y307500D02*
Y315831D01*
X318335Y319996D01*
X314169Y315831D01*
Y307500D01*
Y313748D01*
X322500D01*
X310004Y307500D02*
X303756D01*
X301673Y309583D01*
X303756Y311665D01*
X307921D01*
X310004Y313748D01*
X307921Y315831D01*
X301673D01*
X297508Y307500D02*
X291260D01*
X289177Y309583D01*
X291260Y311665D01*
X295425D01*
X297508Y313748D01*
X295425Y315831D01*
X289177D01*
X278764Y307500D02*
X282929D01*
X285012Y309583D01*
Y313748D01*
X282929Y315831D01*
X278764D01*
X276681Y313748D01*
Y311665D01*
X285012D01*
X272516Y307500D02*
Y315831D01*
X270434D01*
X268351Y313748D01*
Y307500D01*
Y313748D01*
X266268Y315831D01*
X264186Y313748D01*
Y307500D01*
X260020Y319996D02*
Y307500D01*
X253772D01*
X251689Y309583D01*
Y311665D01*
Y313748D01*
X253772Y315831D01*
X260020D01*
X247524Y307500D02*
X243359D01*
X245442D01*
Y319996D01*
X247524D01*
X237111Y315831D02*
Y309583D01*
X235028Y307500D01*
X228780D01*
Y305417D01*
X230863Y303335D01*
X232946D01*
X228780Y307500D02*
Y315831D01*
X212119Y319996D02*
Y307500D01*
X205871D01*
X203788Y309583D01*
Y311665D01*
Y313748D01*
X205871Y315831D01*
X212119D01*
X197540Y307500D02*
X193375D01*
X191292Y309583D01*
Y313748D01*
X193375Y315831D01*
X197540D01*
X199623Y313748D01*
Y309583D01*
X197540Y307500D01*
X185044Y317913D02*
Y315831D01*
X187127D01*
X182962D01*
X185044D01*
Y309583D01*
X182962Y307500D01*
X174631Y317913D02*
Y315831D01*
X176714D01*
X172549D01*
X174631D01*
Y309583D01*
X172549Y307500D01*
X164218D02*
X160053D01*
X157970Y309583D01*
Y313748D01*
X160053Y315831D01*
X164218D01*
X166301Y313748D01*
Y309583D01*
X164218Y307500D01*
X153805D02*
Y315831D01*
X151722D01*
X149639Y313748D01*
Y307500D01*
Y313748D01*
X147557Y315831D01*
X145474Y313748D01*
Y307500D01*
D12*
X287457Y292750D02*
G03*
X287457Y292750I-707J0D01*
G01*
X21604Y156500D02*
G03*
X21604Y156500I-353J0D01*
G01*
X95518Y66772D02*
G03*
X95518Y66772I-354J0D01*
G01*
X459604Y126250D02*
G03*
X459604Y126250I-354J0D01*
G01*
X410603Y143250D02*
G03*
X410603Y143250I-353J0D01*
G01*
X387000Y277750D02*
G03*
X387000Y277750I-500J0D01*
G01*
X410077Y74045D02*
G03*
X410077Y74045I-250J0D01*
G01*
X30854Y240250D02*
G03*
X30854Y240250I-353J0D01*
G01*
X86500Y285500D02*
G03*
X86500Y285500I-1000J0D01*
G01*
X42151Y235000D02*
G03*
X42151Y235000I-901J0D01*
G01*
X389000Y29500D02*
G03*
X389000Y29500I-500J0D01*
G01*
X24500Y68750D02*
G03*
X24500Y68750I-250J0D01*
G01*
Y100500D02*
G03*
X24500Y100500I-250J0D01*
G01*
X375207Y24250D02*
G03*
X375207Y24250I-707J0D01*
G01*
X194651Y233250D02*
G03*
X194651Y233250I-901J0D01*
G01*
X38901Y182250D02*
G03*
X38901Y182250I-901J0D01*
G01*
X419760Y196500D02*
G03*
X419760Y196500I-250J0D01*
G01*
X51000Y6750D02*
G03*
X51000Y6750I-250J0D01*
G01*
X459604Y212750D02*
G03*
X459604Y212750I-354J0D01*
G01*
X406250Y219750D02*
G03*
X406250Y219750I-500J0D01*
G01*
X343750Y287802D02*
G03*
X343750Y287802I-250J0D01*
G01*
D13*
X-8000Y277000D02*
G03*
X0Y285000I0J8000D01*
G01*
Y12000D02*
G03*
X-8000Y20000I-8000J0D01*
G01*
X0Y179000D02*
G03*
X0Y195000I0J8000D01*
G01*
X194250Y263500D02*
Y273500D01*
X189250Y268500D02*
X199250D01*
X145250Y238500D02*
X243250D01*
X145250Y298500D02*
X243250D01*
X145250Y238500D02*
Y298500D01*
X243250Y238500D02*
Y298500D01*
X353645Y85500D02*
Y200500D01*
X343645Y210500D02*
X353645Y200500D01*
X228645Y210500D02*
X343645D01*
X228645Y85500D02*
Y210500D01*
Y85500D02*
X353645D01*
X292645Y148500D02*
Y156250D01*
Y148500D02*
X300395D01*
X292645Y140750D02*
Y148500D01*
X284895D02*
X292645D01*
X291750Y274250D02*
Y296250D01*
X253750Y274250D02*
X291750D01*
X253750D02*
Y296250D01*
X291750D01*
X272750Y285250D02*
Y288250D01*
Y285250D02*
X275750D01*
X272750Y282250D02*
Y285250D01*
X269750D02*
X272750D01*
X26250Y161500D02*
X29250D01*
X26250D02*
Y164500D01*
X23250Y161500D02*
X26250D01*
Y158500D02*
Y161500D01*
X18250Y153500D02*
X34250D01*
Y169500D01*
X18250D02*
X34250D01*
X18250Y153500D02*
Y169500D01*
X95164Y78085D02*
X96932Y79853D01*
X93397D02*
X95164Y78085D01*
X93397Y76318D02*
X95164Y78085D01*
X96932Y76318D01*
X95164Y62176D02*
X111074Y78085D01*
X95164Y93995D02*
X111074Y78085D01*
X79255D02*
X95164Y93995D01*
X79255Y78085D02*
X95164Y62176D01*
X25750Y126500D02*
X29500D01*
X25750Y122750D02*
Y126500D01*
Y130250D01*
X22000Y126500D02*
X25750D01*
X453500Y105250D02*
X458000Y103250D01*
X453500Y105250D02*
X458000Y107250D01*
X453500Y105250D02*
X460250D01*
X119250Y19500D02*
X119250Y16500D01*
X119250Y13500D01*
X116250Y16500D02*
X119250D01*
X122250D01*
X109250Y28500D02*
X129250D01*
Y4500D02*
Y28500D01*
X109250Y4500D02*
X129250D01*
X109250D02*
Y28500D01*
X291250Y225250D02*
X308250D01*
X291250Y257250D02*
X308250D01*
Y225250D02*
Y257250D01*
X291250Y225250D02*
Y257250D01*
X397250Y136500D02*
X401000D01*
X401000Y132750D02*
X401000Y136500D01*
X404750D01*
X401000D02*
X401000Y140250D01*
X388500Y149000D02*
X413500Y149000D01*
X388500Y124000D02*
Y149000D01*
Y124000D02*
X413500Y124000D01*
Y149000D01*
X375500Y272750D02*
X378500D01*
Y269750D02*
Y272750D01*
X381500D01*
X378500D02*
Y275750D01*
X366500Y284750D02*
X390500D01*
X366500Y260750D02*
Y284750D01*
Y260750D02*
X390500D01*
Y284750D01*
X407345Y99045D02*
X411095D01*
X407345D02*
Y102795D01*
X403595Y99045D02*
X407345D01*
Y95295D02*
Y99045D01*
X396345Y91045D02*
X418345D01*
Y107045D01*
X396345D02*
X418345D01*
X396345Y91045D02*
Y107045D01*
X404827Y78045D02*
X407827D01*
X404827D02*
Y81045D01*
X401827Y78045D02*
X404827D01*
Y75045D02*
Y78045D01*
X394827Y71045D02*
X414827D01*
Y85045D01*
X394827D02*
X414827D01*
X394827Y71045D02*
Y85045D01*
X24000Y234250D02*
X26500D01*
Y231750D02*
Y234250D01*
X29000D01*
X26500D02*
Y236750D01*
X19500Y243250D02*
X33500D01*
X19500Y225250D02*
Y243250D01*
Y225250D02*
X33500D01*
Y243250D01*
X104500Y259500D02*
Y269500D01*
X114500D01*
X104500D02*
Y279500D01*
X94500Y269500D02*
X104500D01*
X73500Y294500D02*
X135500D01*
X73500Y244500D02*
Y294500D01*
Y244500D02*
X135500D01*
Y294500D01*
X219000Y500D02*
Y30500D01*
X233000Y500D02*
Y30500D01*
X219000D02*
X233000D01*
X219000Y500D02*
X233000D01*
X47750Y219750D02*
Y224750D01*
X52750D01*
X47750D02*
Y229750D01*
X42750Y224750D02*
X47750D01*
X36750Y241750D02*
X58750D01*
Y207750D02*
Y241750D01*
X36750Y207750D02*
X58750D01*
X36750D02*
Y241750D01*
X383500Y33500D02*
X403500D01*
Y7500D02*
Y33500D01*
X383500Y7500D02*
X403500D01*
X383500D02*
Y33500D01*
X393500Y20500D02*
Y24500D01*
X389500Y20500D02*
X393500D01*
X397500D01*
X393500Y16500D02*
Y20500D01*
X255750Y225250D02*
Y257250D01*
X272750Y225250D02*
Y257250D01*
X255750D02*
X272750D01*
X255750Y225250D02*
X272750D01*
X385025Y88545D02*
Y109545D01*
X396025Y88545D02*
Y109545D01*
X385025D02*
X396025D01*
X385025Y88545D02*
X396025D01*
X366975Y47035D02*
Y68035D01*
X377975Y47035D02*
Y68035D01*
X366975D02*
X377975D01*
X366975Y47035D02*
X377975D01*
X377750Y49500D02*
X377750Y65500D01*
X399750D01*
X399750Y49500D01*
X377750D02*
X399750D01*
X388750Y53750D02*
Y57500D01*
X385000D02*
X388750D01*
Y61250D01*
Y57500D02*
X392500D01*
X379500Y5750D02*
Y27750D01*
X341500Y5750D02*
X379500D01*
X341500D02*
Y27750D01*
X379500D01*
X360500Y16750D02*
Y19750D01*
Y16750D02*
X363500D01*
X360500Y13750D02*
Y16750D01*
X357500D02*
X360500D01*
X154000Y72500D02*
Y86500D01*
X184000Y72500D02*
Y86500D01*
X154000Y72500D02*
X184000D01*
X154000Y86500D02*
X184000D01*
X311500Y41250D02*
Y71250D01*
X325500Y41250D02*
Y71250D01*
X311500D02*
X325500D01*
X311500Y41250D02*
X325500D01*
X333250Y32250D02*
Y42250D01*
X312250Y32250D02*
Y42250D01*
X333250D01*
X312250Y32250D02*
X333250D01*
X312000Y32250D02*
X323000D01*
X312000Y11250D02*
X323000D01*
X312000D02*
Y32250D01*
X323000Y11250D02*
Y32250D01*
X166500Y237750D02*
X200500D01*
X166500Y215750D02*
Y237750D01*
Y215750D02*
X200500D01*
Y237750D01*
X183500Y226750D02*
Y231750D01*
Y226750D02*
X188500D01*
X183500Y221750D02*
Y226750D01*
X178500D02*
X183500D01*
X42500Y175500D02*
Y209500D01*
X20500D02*
X42500D01*
X20500Y175500D02*
Y209500D01*
Y175500D02*
X42500D01*
X31500Y192500D02*
X36500D01*
X31500Y187500D02*
Y192500D01*
X26500D02*
X31500D01*
Y197500D01*
X39790Y177639D02*
X46861Y184710D01*
X54639Y162790D02*
X61710Y169861D01*
X39790Y177639D02*
X54639Y162790D01*
X46861Y184710D02*
X61710Y169861D01*
X50784Y180942D02*
X60684Y171043D01*
X71997Y202155D02*
X81897Y192256D01*
X60684Y171043D02*
X81897Y192256D01*
X50784Y180942D02*
X71997Y202155D01*
X149000Y80000D02*
Y90000D01*
X128000Y80000D02*
Y90000D01*
X149000D01*
X128000Y80000D02*
X149000D01*
X153000Y65750D02*
Y79750D01*
X123000Y65750D02*
Y79750D01*
X153000D01*
X123000Y65750D02*
X153000D01*
X70250Y206969D02*
Y216969D01*
X91250Y206969D02*
Y216969D01*
X70250Y206969D02*
X91250D01*
X70250Y216969D02*
X91250D01*
X112389Y235196D02*
X119460Y228125D01*
X97540Y220347D02*
X104611Y213276D01*
X97540Y220347D02*
X112389Y235196D01*
X104611Y213276D02*
X119460Y228125D01*
X65750Y216000D02*
Y230000D01*
X95750Y216000D02*
Y230000D01*
X65750Y216000D02*
X95750D01*
X65750Y230000D02*
X95750D01*
X0Y297000D02*
X468000Y297000D01*
X0Y-0D02*
X468000Y-0D01*
X-40000Y179000D02*
X0Y179000D01*
X-40000Y277000D02*
X-8000D01*
X-40000Y195000D02*
X0D01*
X-40000Y20000D02*
X-8000Y20000D01*
X468000Y-0D02*
Y133505D01*
X-40000Y20000D02*
Y179000D01*
X468000Y163495D02*
Y297000D01*
X-40000Y195000D02*
Y277000D01*
X0Y285000D02*
Y297000D01*
Y0D02*
Y12000D01*
X-40000Y277000D02*
X-37500D01*
X404510Y193500D02*
Y207500D01*
X424510D01*
Y193500D02*
Y207500D01*
X404510Y193500D02*
X424510D01*
X414510Y197500D02*
Y200500D01*
X411510D02*
X414510D01*
Y203500D01*
Y200500D02*
X417510D01*
X25750Y39750D02*
X57750D01*
X25750Y10750D02*
Y39750D01*
Y1750D02*
Y10750D01*
Y1750D02*
X47750D01*
X57750D01*
Y39750D01*
X38750Y20750D02*
X44750D01*
X41750Y17750D02*
Y23750D01*
X453500Y191750D02*
X458000Y189750D01*
X453500Y191750D02*
X458000Y193750D01*
X453500Y191750D02*
X460250D01*
X401750Y212750D02*
Y236750D01*
X425750D01*
Y212750D02*
Y236750D01*
X401750Y212750D02*
X425750D01*
X413750Y221750D02*
Y224750D01*
X410750D02*
X413750D01*
Y227750D01*
Y224750D02*
X416750D01*
X332500Y272803D02*
X346500D01*
X332500D02*
Y292803D01*
X346500D01*
Y272803D02*
Y292803D01*
X339500Y282803D02*
X342500D01*
X339500Y279802D02*
Y282803D01*
X336500D02*
X339500D01*
Y285802D01*
X7250Y247750D02*
X17250D01*
X7250Y226750D02*
X17250D01*
X7250D02*
Y247750D01*
X17250Y226750D02*
Y247750D01*
X346271Y47000D02*
X367271D01*
X346271Y37000D02*
X367271D01*
Y47000D01*
X346271Y37000D02*
Y47000D01*
X392500Y251500D02*
Y272500D01*
X402500Y251500D02*
Y272500D01*
X392500D02*
X402500D01*
X392500Y251500D02*
X402500D01*
X45750Y56000D02*
Y73000D01*
X77750Y56000D02*
Y73000D01*
X45750Y56000D02*
X77750D01*
X45750Y73000D02*
X77750D01*
X63289Y101750D02*
X77289D01*
X63289Y71750D02*
X77289D01*
X63289D02*
Y101750D01*
X77289Y71750D02*
Y101750D01*
X58245Y19250D02*
X68245D01*
X58245Y40250D02*
X68245D01*
Y19250D02*
Y40250D01*
X58245Y19250D02*
Y40250D01*
X15104Y19250D02*
X25104D01*
X15104Y40250D02*
X25104D01*
Y19250D02*
Y40250D01*
X15104Y19250D02*
Y40250D01*
X68245Y19250D02*
X79245D01*
X68245Y40250D02*
X79245D01*
Y19250D02*
Y40250D01*
X68245Y19250D02*
Y40250D01*
X47570Y54740D02*
Y87760D01*
X6930Y87760D02*
X47570Y87760D01*
X6930Y54740D02*
Y87760D01*
Y54740D02*
X47570Y54740D01*
Y86490D02*
Y119510D01*
X6930Y119510D02*
X47570Y119510D01*
X6930Y86490D02*
Y119510D01*
Y86490D02*
X47570Y86490D01*
X367475Y47535D02*
Y57535D01*
X346475Y47535D02*
Y57535D01*
X367475D01*
X346475Y47535D02*
X367475D01*
X336475Y47035D02*
X346475D01*
X336475Y68035D02*
X346475D01*
Y47035D02*
Y68035D01*
X336475Y47035D02*
Y68035D01*
X367475Y57535D02*
Y67535D01*
X346475Y57535D02*
Y67535D01*
X367475D01*
X346475Y57535D02*
X367475D01*
X281500Y215000D02*
Y226000D01*
X302500Y215000D02*
Y226000D01*
X281500Y215000D02*
X302500D01*
X281500Y226000D02*
X302500D01*
X292500D02*
Y236000D01*
X271500Y226000D02*
Y236000D01*
X292500D01*
X271500Y226000D02*
X292500D01*
X282500Y215000D02*
Y226000D01*
X261500Y215000D02*
Y226000D01*
X282500D01*
X261500Y215000D02*
X282500D01*
X350000Y232500D02*
Y242500D01*
X329000Y232500D02*
Y242500D01*
X350000D01*
X329000Y232500D02*
X350000D01*
X329000Y263500D02*
Y273500D01*
X350000Y263500D02*
Y273500D01*
X329000Y263500D02*
X350000D01*
X329000Y273500D02*
X350000D01*
X329500Y242500D02*
X339500D01*
X329500Y263500D02*
X339500D01*
Y242500D02*
Y263500D01*
X329500Y242500D02*
Y263500D01*
X340000Y221500D02*
Y232500D01*
X319000Y221500D02*
Y232500D01*
X340000D01*
X319000Y221500D02*
X340000D01*
X339500Y263500D02*
X349500D01*
X339500Y242500D02*
X349500D01*
X339500D02*
Y263500D01*
X349500Y242500D02*
Y263500D01*
X339000Y221500D02*
Y232500D01*
X360000Y221500D02*
Y232500D01*
X339000Y221500D02*
X360000D01*
X339000Y232500D02*
X360000D01*
X282000Y257000D02*
X292000D01*
X282000Y236000D02*
X292000D01*
X282000D02*
Y257000D01*
X292000Y236000D02*
Y257000D01*
X272000Y236000D02*
X282000D01*
X272000Y257000D02*
X282000D01*
Y236000D02*
Y257000D01*
X272000Y236000D02*
Y257000D01*
X271500Y257000D02*
Y267000D01*
X292500Y257000D02*
Y267000D01*
X271500Y257000D02*
X292500D01*
X271500Y267000D02*
X292500D01*
X354525Y67545D02*
X364525D01*
X354525Y88545D02*
X364525D01*
Y67545D02*
Y88545D01*
X354525Y67545D02*
Y88545D01*
X385525Y78045D02*
Y88045D01*
X364525Y88045D02*
X364525Y78045D01*
X364525Y88045D02*
X385525Y88045D01*
X364525Y78045D02*
X385525D01*
X385525Y67545D02*
X395525D01*
X385525Y88545D02*
X395525D01*
Y67545D02*
Y88545D01*
X385525Y67545D02*
Y88545D01*
X385525Y78045D02*
X385525Y68045D01*
X364525Y68045D02*
Y78045D01*
X385525D01*
X364525Y68045D02*
X385525Y68045D01*
X353500Y200000D02*
X364500D01*
X353500Y221000D02*
X364500D01*
X364500Y200000D02*
X364500Y221000D01*
X353500Y200000D02*
Y221000D01*
Y201000D02*
X364500D01*
X353500Y180000D02*
X364500Y180000D01*
X353500Y180000D02*
Y201000D01*
X364500Y180000D02*
X364500Y201000D01*
X395500Y211000D02*
X405500D01*
X395500Y190000D02*
X405500D01*
X395500D02*
Y211000D01*
X405500Y190000D02*
X405500Y211000D01*
X374500Y200500D02*
Y210500D01*
X395500Y200500D02*
Y210500D01*
X374500Y200500D02*
X395500D01*
X374500Y210500D02*
X395500D01*
Y190500D02*
Y200500D01*
X374500Y190500D02*
Y200500D01*
X395500D01*
X374500Y190500D02*
X395500D01*
X364500Y190000D02*
X374500D01*
X364500Y211000D02*
X374500D01*
Y190000D02*
Y211000D01*
X364500Y190000D02*
Y211000D01*
X162250Y61500D02*
X176250Y61500D01*
X162250Y31500D02*
X176250D01*
X162250D02*
Y61500D01*
X176250Y31500D02*
Y61500D01*
X95250D02*
X109250Y61500D01*
X95250Y31500D02*
X109250Y31500D01*
X95250Y31500D02*
Y61500D01*
X109250Y31500D02*
Y61500D01*
X162250Y500D02*
X176250Y500D01*
X162250Y30500D02*
X176250D01*
Y500D02*
Y30500D01*
X162250Y500D02*
Y30500D01*
X152250Y45500D02*
X152250Y42500D01*
X152250Y45500D02*
Y48500D01*
Y45500D02*
X155250Y45500D01*
X149250Y45500D02*
X152250D01*
X142250Y33500D02*
X162250D01*
X142250D02*
Y57500D01*
X162250Y57500D01*
Y33500D02*
Y57500D01*
X119250Y42500D02*
X119250Y45500D01*
Y48500D01*
Y45500D02*
X122250D01*
X116250D02*
X119250D01*
X109250Y33500D02*
X129250D01*
X109250D02*
Y57500D01*
X129250Y57500D01*
Y33500D02*
Y57500D01*
X152250Y16500D02*
X152250Y19500D01*
X152250Y16500D02*
X152250Y13500D01*
X149250Y16500D02*
X152250D01*
X155250D01*
X142250Y28500D02*
X162250D01*
Y4500D02*
Y28500D01*
X142250Y4500D02*
X162250Y4500D01*
X142250Y4500D02*
Y28500D01*
X95250Y500D02*
X95250Y30500D01*
X109250Y500D02*
Y30500D01*
X95250D02*
X109250D01*
X95250Y500D02*
X109250Y500D01*
X364525Y89045D02*
X385525D01*
X364525Y99045D02*
X385525D01*
X364525Y89045D02*
Y99045D01*
X385525Y89045D02*
Y99045D01*
X354525Y88545D02*
Y109545D01*
X364525Y88545D02*
Y109545D01*
X354525D02*
X364525D01*
X354525Y88545D02*
X364525D01*
X364525Y99045D02*
X385525D01*
X364525Y109045D02*
X385525D01*
X364525Y99045D02*
Y109045D01*
X385525Y99045D02*
Y109045D01*
X301000Y43250D02*
Y64250D01*
X312000Y43250D02*
X312000Y64250D01*
X301000D02*
X312000D01*
X301000Y43250D02*
X312000Y43250D01*
X300000Y31500D02*
Y61500D01*
X286000Y31500D02*
Y61500D01*
Y31500D02*
X300000D01*
X286000Y61500D02*
X300000D01*
X286250Y33500D02*
Y57500D01*
X266250D02*
X286250D01*
X266250Y33500D02*
Y57500D01*
Y33500D02*
X286250D01*
X273250Y45500D02*
X276250D01*
X279250D01*
X276250Y48500D02*
X276250Y45500D01*
X276250Y42500D02*
X276250Y45500D01*
X218250Y42000D02*
X218250Y31000D01*
X197250D02*
X197250Y42000D01*
X218250D01*
X197250Y31000D02*
X218250D01*
X242750Y16500D02*
Y19500D01*
Y13500D02*
Y16500D01*
X239750D02*
X242750D01*
X245750D01*
X232750Y28500D02*
X252750D01*
Y4500D02*
Y28500D01*
X232750Y4500D02*
X252750D01*
X232750D02*
Y28500D01*
X276250Y19500D02*
X276250Y16500D01*
Y13500D02*
Y16500D01*
X273250D02*
X276250D01*
X279250D01*
X266250Y28500D02*
X286250D01*
Y4500D02*
Y28500D01*
X266250Y4500D02*
X286250D01*
X266250D02*
Y28500D01*
X242750Y42500D02*
Y45500D01*
Y48500D01*
Y45500D02*
X245750D01*
X239750D02*
X242750D01*
X232750Y33500D02*
X252750D01*
X232750D02*
Y57500D01*
X252750D01*
Y33500D02*
Y57500D01*
X219000Y61500D02*
X233000D01*
X219000Y31500D02*
X233000D01*
X219000D02*
Y61500D01*
X233000Y31500D02*
Y61500D01*
X218250Y20000D02*
X218250Y31000D01*
X197250D02*
X197250Y20000D01*
X197250Y31000D02*
X218250D01*
X197250Y20000D02*
X218250D01*
X300250Y26000D02*
X311250Y26000D01*
X300250Y5000D02*
X311250D01*
X300250D02*
Y26000D01*
X311250Y26000D02*
X311250Y5000D01*
X286000Y500D02*
X300000D01*
X286000Y30500D02*
X300000D01*
Y500D02*
Y30500D01*
X286000Y500D02*
Y30500D01*
D15*
X10750Y21250D02*
X17250D01*
X10750Y9250D02*
Y21250D01*
Y9250D02*
X17250D01*
Y21250D01*
X39210Y114900D02*
Y137900D01*
X12210Y114900D02*
X39210D01*
X12210D02*
Y137900D01*
X39210D01*
X40421Y148500D02*
X114667Y222746D01*
Y74254D02*
X188913Y148500D01*
X40421Y148500D02*
X114667Y74254D01*
Y222746D02*
X188913Y148500D01*
X111132Y152036D02*
X118203Y144965D01*
X111132Y144965D02*
X118203Y152036D01*
X14500Y260000D02*
X71750D01*
X19500Y271250D02*
X67000D01*
X14500Y296000D02*
X71750D01*
X43250Y283500D02*
Y294500D01*
X43250Y283500D02*
X43250D01*
X39250Y287500D02*
X43250Y283500D01*
X43250D02*
X47250Y287500D01*
X21240Y277500D02*
X30250D01*
X21240D02*
X25750Y272990D01*
X71750Y260000D02*
Y296000D01*
X67000Y271250D02*
X67000Y260250D01*
X14500Y260000D02*
Y296000D01*
X19500Y260250D02*
X19500Y271250D01*
X25750Y272990D02*
X30260Y277500D01*
X43250Y274250D02*
Y276750D01*
X40750D02*
X43250D01*
Y279250D01*
Y276750D02*
X45750D01*
X466420Y71250D02*
Y139250D01*
X425500Y71250D02*
X466420D01*
X425500Y139250D02*
X466420D01*
X425500Y71250D02*
Y139250D01*
X446750Y100250D02*
Y110250D01*
X441750Y105250D02*
X451750D01*
X8509Y170596D02*
Y177096D01*
Y170596D02*
X20509D01*
Y177096D01*
X8509D02*
X20509D01*
X25750Y47500D02*
X37750D01*
X25750D02*
Y54000D01*
X37750D01*
Y47500D02*
Y54000D01*
X0Y274131D02*
X6500Y278750D01*
X59500Y249000D02*
X67450Y248450D01*
X75500Y239000D02*
X78450Y234450D01*
X225750Y247250D02*
X239500Y240500D01*
X234000Y250209D02*
X246750Y240500D01*
X240750Y256250D02*
X249750Y252750D01*
X82750Y232000D02*
Y238500D01*
Y232000D02*
X94750D01*
Y238500D01*
X82750D02*
X94750D01*
X123500Y231500D02*
Y238000D01*
Y231500D02*
X135500D01*
Y238000D01*
X123500D02*
X135500D01*
X49750Y194500D02*
X57000D01*
X50750Y210250D02*
X51500Y203500D01*
X212250Y245250D02*
X212500Y232500D01*
X419250Y162000D02*
Y174000D01*
X425750D01*
Y162000D02*
Y174000D01*
X419250Y162000D02*
X425750D01*
X22000Y66250D02*
Y76750D01*
X32500D01*
Y66250D02*
Y76750D01*
X22000Y66250D02*
X32500D01*
X27250Y70250D02*
Y71500D01*
X26000D02*
X27250D01*
Y72750D01*
Y71500D02*
X28500D01*
X27250Y103250D02*
X28500D01*
X27250D02*
Y104500D01*
X26000Y103250D02*
X27250D01*
Y102000D02*
Y103250D01*
X22000Y98000D02*
X32500D01*
Y108500D01*
X22000D02*
X32500D01*
X22000Y98000D02*
Y108500D01*
X426250Y72050D02*
X426250Y60050D01*
X426250Y72050D02*
X432750D01*
X432750Y60050D02*
X432750Y72050D01*
X426250Y60050D02*
X432750D01*
X433750Y60000D02*
X433750Y72000D01*
X440250D01*
X440250Y60000D01*
X433750D02*
X440250D01*
X311750Y10250D02*
X323250D01*
Y3750D02*
Y10250D01*
X311750Y3750D02*
X323250D01*
X311750D02*
Y10250D01*
X50000Y186500D02*
X69500Y172750D01*
X243500Y284000D02*
Y290500D01*
Y284000D02*
X255000D01*
Y290500D01*
X243500D02*
X255000D01*
X395300Y750D02*
Y7250D01*
Y750D02*
X406800D01*
Y7250D01*
X395300D02*
X406800D01*
X63500Y5800D02*
X70000D01*
Y17300D01*
X63500D02*
X70000D01*
X63500Y5800D02*
Y17300D01*
X57250Y200250D02*
Y206750D01*
X45750D02*
X57250D01*
X45750Y200250D02*
Y206750D01*
Y200250D02*
X57250D01*
X146750Y289000D02*
Y295500D01*
X135250D02*
X146750D01*
X135250Y289000D02*
Y295500D01*
Y289000D02*
X146750D01*
X32566Y40416D02*
Y46916D01*
Y40416D02*
X44566D01*
Y46916D01*
X32566D02*
X44566D01*
X20238Y40416D02*
Y46916D01*
Y40416D02*
X32238D01*
Y46916D01*
X20238D02*
X32238D01*
X335250Y15500D02*
X341750D01*
Y27500D01*
X335250D02*
X341750D01*
X335250Y15500D02*
Y27500D01*
X324500Y32500D02*
X331000D01*
X324500Y20500D02*
Y32500D01*
Y20500D02*
X331000D01*
Y32500D01*
X216750Y219000D02*
X223250D01*
Y231000D01*
X216750D02*
X223250D01*
X216750Y219000D02*
Y231000D01*
X224000Y226500D02*
X230500D01*
Y238500D01*
X224000D02*
X230500D01*
X224000Y226500D02*
Y238500D01*
X209200Y238550D02*
X215700D01*
X209200Y227050D02*
Y238550D01*
Y227050D02*
X215700D01*
Y238550D01*
X135250Y240800D02*
X141750D01*
Y252300D01*
X135250D02*
X141750D01*
X135250Y240800D02*
Y252300D01*
X168500Y231104D02*
Y237604D01*
X157000D02*
X168500D01*
X157000Y231104D02*
Y237604D01*
Y231104D02*
X168500D01*
X207700Y223250D02*
X214200D01*
X207700D02*
X207700Y211750D01*
X214200D01*
X214200Y223250D01*
X143250Y233500D02*
Y245500D01*
X149750D01*
Y233500D02*
Y245500D01*
X143250Y233500D02*
X149750D01*
X206750Y222500D02*
Y234500D01*
X200250Y222500D02*
X206750D01*
X200250D02*
Y234500D01*
X206750D01*
X206750Y211500D02*
X206750Y223500D01*
X200250Y211500D02*
X206750Y211500D01*
X200250Y211500D02*
Y223500D01*
X206750D01*
X144250Y276250D02*
Y288250D01*
X137750Y276250D02*
X144250D01*
X137750D02*
Y288250D01*
X144250D01*
X9500Y148500D02*
Y155000D01*
Y148500D02*
X21000D01*
Y155000D01*
X9500D02*
X21000D01*
X44000Y191250D02*
Y197750D01*
Y191250D02*
X55500D01*
Y197750D01*
X44000D02*
X55500D01*
Y183750D02*
Y190250D01*
X44000D02*
X55500D01*
X44000Y183750D02*
Y190250D01*
Y183750D02*
X55500D01*
X13800Y185300D02*
Y197300D01*
X20300D01*
Y185300D02*
Y197300D01*
X13800Y185300D02*
X20300D01*
X37500Y209500D02*
Y216000D01*
X26000D02*
X37500D01*
X26000Y209500D02*
Y216000D01*
Y209500D02*
X37500D01*
X50500Y160500D02*
Y167000D01*
X39000D02*
X50500D01*
X39000Y160500D02*
Y167000D01*
Y160500D02*
X50500D01*
X403000Y176500D02*
X415000D01*
X403000D02*
Y183000D01*
X415000Y183000D01*
X415000Y176500D01*
X414950Y183750D02*
Y190250D01*
Y183750D02*
X426950Y183750D01*
Y190250D01*
X414950D02*
X426950D01*
X402950Y183750D02*
X414950D01*
X402950D02*
X402950Y190250D01*
X414950D01*
Y183750D02*
Y190250D01*
X115886Y223018D02*
X120482Y227614D01*
X115886Y223018D02*
X124018Y214886D01*
X128614Y219482D01*
X120482Y227614D02*
X128614Y219482D01*
X3250Y284200D02*
X3250Y295700D01*
X9750D01*
X9750Y284200D01*
X3250D02*
X9750D01*
X296750Y269250D02*
X308250D01*
Y262750D02*
Y269250D01*
X296750Y262750D02*
X308250D01*
X296750D02*
Y269250D01*
X255750Y262750D02*
X267250D01*
Y256250D02*
Y262750D01*
X255750Y256250D02*
X267250D01*
X255750D02*
Y262750D01*
X393500Y176250D02*
Y187750D01*
X387000Y176250D02*
X393500D01*
X387000D02*
Y187750D01*
X393500D01*
X395750Y176250D02*
Y187750D01*
X402250D01*
Y176250D02*
Y187750D01*
X395750Y176250D02*
X402250D01*
X296750Y256250D02*
X308250D01*
X296750D02*
Y262750D01*
X308250D01*
Y256250D02*
Y262750D01*
X390500Y219750D02*
Y231250D01*
X384000Y219750D02*
X390500Y219750D01*
X384000Y219750D02*
Y231250D01*
X390500Y231250D01*
X255750Y262750D02*
X267250D01*
X255750D02*
Y269250D01*
X267250D01*
Y262750D02*
Y269250D01*
X390500Y219750D02*
Y231250D01*
X397000D01*
Y219750D02*
Y231250D01*
X390500Y219750D02*
X397000D01*
X352550Y245750D02*
X364050D01*
Y239250D02*
Y245750D01*
X352550Y239250D02*
X364050D01*
X352550D02*
Y245750D01*
X377500Y176000D02*
Y187500D01*
X371000Y176000D02*
X377500D01*
X371000D02*
Y187500D01*
X377500D01*
X352550Y232750D02*
X364050D01*
X352550D02*
Y239250D01*
X364050D01*
Y232750D02*
Y239250D01*
X364500Y176000D02*
Y187500D01*
X371000D01*
Y176000D02*
Y187500D01*
X364500Y176000D02*
X371000D01*
X314950Y239250D02*
X326450D01*
X314950D02*
Y245750D01*
X326450D01*
Y239250D02*
Y245750D01*
X371250Y213750D02*
Y225250D01*
X377750D01*
Y213750D02*
Y225250D01*
X371250Y213750D02*
X377750D01*
X314950Y239250D02*
X326450D01*
Y232750D02*
Y239250D01*
X314950Y232750D02*
X326450D01*
X314950D02*
Y239250D01*
X371250Y213750D02*
Y225250D01*
X364750Y213750D02*
X371250D01*
X364750D02*
Y225250D01*
X371250D01*
X214750Y218000D02*
X226250D01*
Y211500D02*
Y218000D01*
X214750Y211500D02*
X226250D01*
X214750D02*
Y218000D01*
X78000Y52750D02*
X84250Y66000D01*
X83950Y231200D02*
Y237700D01*
X72450D02*
X83950D01*
X72450Y231200D02*
Y237700D01*
Y231200D02*
X83950D01*
X124050Y222300D02*
Y228800D01*
Y222300D02*
X135550Y222300D01*
Y228800D01*
X124050Y228800D02*
X135550Y228800D01*
X191000Y147750D02*
Y159750D01*
X197500D01*
Y147750D02*
Y159750D01*
X191000Y147750D02*
X197500D01*
X204250Y153350D02*
Y165350D01*
X197750Y153350D02*
X204250D01*
X197750D02*
Y165350D01*
X204250D01*
X356750Y254750D02*
Y266750D01*
X350250Y254750D02*
X356750D01*
X350250D02*
Y266750D01*
X356750D01*
X238500Y80250D02*
X245000D01*
X238500Y68750D02*
Y80250D01*
Y68750D02*
X245000D01*
Y80250D01*
X248250Y69000D02*
X260250D01*
Y62500D02*
Y69000D01*
X248250Y62500D02*
X260250D01*
X248250D02*
Y69000D01*
X225200Y74957D02*
X237200D01*
Y68457D02*
Y74957D01*
X225200Y68457D02*
X237200D01*
X225200D02*
Y74957D01*
X87250Y60250D02*
Y71750D01*
X80750Y60250D02*
X87250D01*
X80750D02*
Y71750D01*
X87250D01*
X466420Y157750D02*
Y225750D01*
X425500Y157750D02*
X466420D01*
X425500Y225750D02*
X466420D01*
X425500Y157750D02*
Y225750D01*
X446750Y186750D02*
Y196750D01*
X441750Y191750D02*
X451750D01*
X203175Y140220D02*
X215175D01*
Y133720D02*
Y140220D01*
X203175Y133720D02*
X215175D01*
X203175D02*
Y140220D01*
X243500Y234500D02*
Y246500D01*
X250000D01*
Y234500D02*
Y246500D01*
X243500Y234500D02*
X250000D01*
X9750Y260800D02*
Y272800D01*
X3250Y260800D02*
X9750D01*
X3250D02*
Y272800D01*
X9750D01*
X242300Y264550D02*
X254300D01*
X242300D02*
Y271050D01*
X254300D01*
Y264550D02*
Y271050D01*
X9750Y272750D02*
Y284750D01*
X3250Y272750D02*
X9750D01*
X3250D02*
Y284750D01*
X9750D01*
X236000Y234500D02*
Y246500D01*
X242500D01*
Y234500D02*
Y246500D01*
X236000Y234500D02*
X242500D01*
X61450Y245200D02*
X73450D01*
X61450D02*
Y251700D01*
X73450D01*
Y245200D02*
Y251700D01*
X253000Y246750D02*
Y258750D01*
X246500Y246750D02*
X253000D01*
X246500D02*
Y258750D01*
X253000D01*
X19550Y251500D02*
X31050D01*
Y245000D02*
Y251500D01*
X19550Y245000D02*
X31050D01*
X19550D02*
Y251500D01*
X7050Y249250D02*
X18550D01*
X7050D02*
Y255750D01*
X18550D01*
Y249250D02*
Y255750D01*
X112157Y64458D02*
X124157D01*
X112157D02*
Y70957D01*
X124157D01*
Y64458D02*
Y70957D01*
X84750Y83250D02*
Y95250D01*
X78250Y83250D02*
X84750D01*
X78250D02*
X78250Y95250D01*
X84750Y95250D01*
X85442Y51039D02*
X93927Y59524D01*
X80846Y55635D02*
X85442Y51039D01*
X80846Y55635D02*
X89331Y64120D01*
X93927Y59524D01*
X355500Y123400D02*
X367000D01*
Y116900D02*
Y123400D01*
X355500Y116900D02*
X367000D01*
X355500D02*
Y123400D01*
X413500Y117500D02*
X420000D01*
X420000Y129000D02*
X420000Y117500D01*
X413500Y129000D02*
X420000Y129000D01*
X413500Y117500D02*
X413500Y129000D01*
X361750Y132750D02*
Y144750D01*
X355250Y132750D02*
X361750D01*
X355250D02*
Y144750D01*
X361750D01*
X1250Y133750D02*
X13250Y133750D01*
Y127250D02*
Y133750D01*
X1250Y127250D02*
X13250D01*
X1250D02*
Y133750D01*
X1250Y125308D02*
X13250D01*
Y118808D02*
Y125308D01*
X1250Y118808D02*
X13250D01*
X1250D02*
Y125308D01*
X14245Y3500D02*
Y10000D01*
Y3500D02*
X25745D01*
Y10000D01*
X14245D02*
X25745D01*
X-1757Y145667D02*
X10243D01*
Y139167D02*
Y145667D01*
X-1757Y139167D02*
X10243D01*
X-1757D02*
Y145667D01*
Y151997D02*
X10243D01*
Y145497D02*
Y151997D01*
X-1757Y145497D02*
X10243D01*
X-1757D02*
Y151997D01*
X357750Y149100D02*
Y160600D01*
X364250D01*
X364250Y149100D02*
X364250Y160600D01*
X357750Y149100D02*
X364250Y149100D01*
X447500Y225000D02*
X454000D01*
X454000Y237000D01*
X447500D02*
X454000D01*
X447500D02*
X447500Y225000D01*
X447500Y225250D02*
Y236750D01*
X441000Y225250D02*
X447500D01*
X441000D02*
X441000Y236750D01*
X447500Y236750D01*
X426950Y226800D02*
Y238300D01*
X433450D01*
Y226800D02*
Y238300D01*
X426950Y226800D02*
X433450D01*
X350500Y282050D02*
X357000D01*
X350500Y270050D02*
X350500Y282050D01*
X350500Y270050D02*
X357000D01*
Y282050D01*
X358000Y270300D02*
Y281800D01*
X364500D01*
Y270300D02*
Y281800D01*
X358000Y270300D02*
X364500D01*
X364250Y258750D02*
Y270250D01*
X357750Y258750D02*
X364250D01*
X357750D02*
Y270250D01*
X364250D01*
X390235Y115850D02*
X401735Y115850D01*
X390235Y122350D02*
X390235Y115850D01*
X390235Y122350D02*
X401735D01*
X401735Y115850D02*
X401735Y122350D01*
X401500Y121750D02*
X413000D01*
X413000Y115250D02*
X413000Y121750D01*
X401500Y115250D02*
X413000D01*
X401500Y121750D02*
X401500Y115250D01*
X48371Y128387D02*
X56856Y119901D01*
X48371Y128387D02*
X52967Y132983D01*
X61452Y124498D01*
X56856Y119901D02*
X61452Y124498D01*
X69407Y99501D02*
X77892Y107987D01*
X64811Y104098D02*
X69407Y99501D01*
X64811Y104098D02*
X73296Y112583D01*
X77892Y107987D01*
X58447Y110462D02*
X66932Y118947D01*
X53851Y115058D02*
X58447Y110462D01*
X53851Y115058D02*
X62336Y123543D01*
X66932Y118947D01*
X79179Y204000D02*
X91179D01*
Y197500D02*
Y204000D01*
X79179Y197500D02*
X91179D01*
X79179D02*
Y204000D01*
X67639Y117886D02*
X72235Y113290D01*
X59507Y109754D02*
X67639Y117886D01*
X59507Y109754D02*
X64104Y105158D01*
X72235Y113290D01*
X355250Y130750D02*
X367250D01*
Y124250D02*
Y130750D01*
X355250Y124250D02*
X367250D01*
X355250D02*
Y130750D01*
X251000Y217000D02*
Y229000D01*
X257500D01*
Y217000D02*
Y229000D01*
X251000Y217000D02*
X257500D01*
X259000Y211250D02*
Y217750D01*
X247500D02*
X259000D01*
X247500Y211250D02*
Y217750D01*
Y211250D02*
X259000D01*
X220000Y195500D02*
X226500D01*
X220000Y184000D02*
Y195500D01*
Y184000D02*
X226500D01*
Y195500D01*
X213500Y199750D02*
X220000D01*
X213500Y188250D02*
Y199750D01*
Y188250D02*
X220000D01*
Y199750D01*
X295615Y80750D02*
Y87250D01*
X284115D02*
X295615D01*
X284115Y80750D02*
Y87250D01*
Y80750D02*
X295615D01*
X293250Y68500D02*
Y80500D01*
X286750Y68500D02*
X293250D01*
X286750D02*
Y80500D01*
X293250D01*
X284750Y68500D02*
Y80500D01*
X278250Y68500D02*
X284750D01*
X278250D02*
Y80500D01*
X284750D01*
X284500Y80750D02*
Y87250D01*
X273000D02*
X284500D01*
X273000Y80750D02*
Y87250D01*
Y80750D02*
X284500D01*
X273700D02*
Y87250D01*
X262200D02*
X273700D01*
X262200Y80750D02*
Y87250D01*
Y80750D02*
X273700D01*
X274000Y68500D02*
Y80500D01*
X267500Y68500D02*
X274000D01*
X267500D02*
Y80500D01*
X274000D01*
X295000Y80750D02*
Y87250D01*
Y80750D02*
X306500D01*
Y87250D01*
X295000D02*
X306500D01*
X301250Y68500D02*
Y80500D01*
X294750Y68500D02*
X301250D01*
X294750D02*
Y80500D01*
X301250D01*
X262700Y80750D02*
Y87250D01*
X251200D02*
X262700D01*
X251200Y80750D02*
Y87250D01*
Y80750D02*
X262700D01*
X262950Y68500D02*
Y80500D01*
X256450Y68500D02*
X262950D01*
X256450D02*
Y80500D01*
X262950D01*
X251700Y80750D02*
X251700Y87250D01*
X240200D02*
X251700D01*
X240200Y80750D02*
Y87250D01*
Y80750D02*
X251700Y80750D01*
X252000Y80500D02*
X252000Y68500D01*
X245500D02*
X252000D01*
X245500D02*
X245500Y80500D01*
X252000D01*
X356750Y163000D02*
X363250D01*
Y174500D01*
X356750D02*
X363250D01*
X356750Y163000D02*
Y174500D01*
X363050Y169200D02*
X375050D01*
Y162700D02*
Y169200D01*
X363050Y162700D02*
X375050D01*
X363050D02*
Y169200D01*
X364250Y148800D02*
X376250D01*
X364250D02*
Y155300D01*
X376250D01*
Y148800D02*
Y155300D01*
X332895Y200208D02*
X331562D01*
X332229D01*
Y204207D01*
X332895Y203540D01*
X329563Y200208D02*
X328230Y201541D01*
Y202874D01*
X329563Y204207D01*
X322232Y198875D02*
Y202874D01*
X320233D01*
X319566Y202208D01*
Y200875D01*
X320233Y200208D01*
X322232D01*
X317567Y202874D02*
X316234D01*
X315567Y202208D01*
Y200208D01*
X317567D01*
X318233Y200875D01*
X317567Y201541D01*
X315567D01*
X314235Y200208D02*
X312235D01*
X311569Y200875D01*
X312235Y201541D01*
X313568D01*
X314235Y202208D01*
X313568Y202874D01*
X311569D01*
X309569Y203540D02*
Y202874D01*
X310236D01*
X308903D01*
X309569D01*
Y200875D01*
X308903Y200208D01*
X304904D02*
X306237D01*
X306904Y200875D01*
Y202208D01*
X306237Y202874D01*
X304904D01*
X304238Y202208D01*
Y201541D01*
X306904D01*
X302905Y200208D02*
X300239Y202874D01*
X298906Y198875D02*
Y202874D01*
X296907D01*
X296240Y202208D01*
Y200875D01*
X296907Y200208D01*
X298906D01*
X294241Y202874D02*
X292908D01*
X292242Y202208D01*
Y200208D01*
X294241D01*
X294907Y200875D01*
X294241Y201541D01*
X292242D01*
X288243Y204207D02*
Y200208D01*
X290242D01*
X290909Y200875D01*
Y202208D01*
X290242Y202874D01*
X288243D01*
X282911D02*
Y200208D01*
Y201541D01*
X282245Y202208D01*
X281579Y202874D01*
X280912D01*
X278246D02*
X276913D01*
X276247Y202208D01*
Y200208D01*
X278246D01*
X278913Y200875D01*
X278246Y201541D01*
X276247D01*
X274248Y203540D02*
Y202874D01*
X274914D01*
X273581D01*
X274248D01*
Y200875D01*
X273581Y200208D01*
X271582D02*
X270249D01*
X270915D01*
Y202874D01*
X271582D01*
X267583Y200208D02*
X266250D01*
X265584Y200875D01*
Y202208D01*
X266250Y202874D01*
X267583D01*
X268249Y202208D01*
Y200875D01*
X267583Y200208D01*
X260252Y203540D02*
X259586Y204207D01*
X258253D01*
X257586Y204873D01*
X253588Y204207D02*
X254921Y203540D01*
X256253Y202208D01*
Y200875D01*
X255587Y200208D01*
X254254D01*
X253588Y200875D01*
Y201541D01*
X254254Y202208D01*
X256253D01*
X252255Y203540D02*
X251588Y204207D01*
X250255D01*
X249589Y203540D01*
Y200875D01*
X250255Y200208D01*
X251588D01*
X252255Y200875D01*
Y203540D01*
X248256Y200875D02*
X244924Y204207D01*
X248256D02*
Y204873D01*
X247590D01*
Y204207D01*
X248256D01*
X245590Y200208D02*
Y200875D01*
X244924D01*
Y200208D01*
X245590D01*
X330229Y191677D02*
X332895D01*
X330229Y194343D01*
Y195009D01*
X330896Y195676D01*
X332229D01*
X332895Y195009D01*
X328896Y191677D02*
X327564Y193010D01*
Y194343D01*
X328896Y195676D01*
X319566Y191677D02*
Y195676D01*
X321566Y193676D01*
X318900D01*
X312902Y195009D02*
Y194343D01*
X313568D01*
X312235D01*
X312902D01*
Y192343D01*
X312235Y191677D01*
X310236Y195676D02*
Y191677D01*
Y193676D01*
X309569Y194343D01*
X308237D01*
X307570Y193676D01*
Y191677D01*
X304238D02*
X305571D01*
X306237Y192343D01*
Y193676D01*
X305571Y194343D01*
X304238D01*
X303571Y193676D01*
Y193010D01*
X306237D01*
X302238Y194343D02*
Y191677D01*
Y193010D01*
X301572Y193676D01*
X300905Y194343D01*
X300239D01*
X298240Y191677D02*
Y194343D01*
X297573D01*
X296907Y193676D01*
Y191677D01*
Y193676D01*
X296240Y194343D01*
X295574Y193676D01*
Y191677D01*
X293575Y194343D02*
X292242D01*
X291575Y193676D01*
Y191677D01*
X293575D01*
X294241Y192343D01*
X293575Y193010D01*
X291575D01*
X290242Y191677D02*
X288909D01*
X289576D01*
Y195676D01*
X290242D01*
X282911Y190344D02*
Y194343D01*
X280912D01*
X280246Y193676D01*
Y192343D01*
X280912Y191677D01*
X282911D01*
X278246Y194343D02*
X276913D01*
X276247Y193676D01*
Y191677D01*
X278246D01*
X278913Y192343D01*
X278246Y193010D01*
X276247D01*
X272248Y195676D02*
Y191677D01*
X274248D01*
X274914Y192343D01*
Y193676D01*
X274248Y194343D01*
X272248D01*
X266917D02*
X265584Y191677D01*
X264251Y194343D01*
X262918Y191677D02*
X261585D01*
X262251D01*
Y194343D01*
X262918D01*
X258919D02*
X257586D01*
X256920Y193676D01*
Y191677D01*
X258919D01*
X259586Y192343D01*
X258919Y193010D01*
X256920D01*
X255587Y191677D02*
X253588D01*
X252921Y192343D01*
X253588Y193010D01*
X254921D01*
X255587Y193676D01*
X254921Y194343D01*
X252921D01*
X332895Y185811D02*
Y183812D01*
X332229Y183146D01*
X331562Y183812D01*
X330896Y183146D01*
X330229Y183812D01*
Y185811D01*
X328896Y183146D02*
X327564D01*
X328230D01*
Y185811D01*
X328896D01*
X324898Y186478D02*
Y185811D01*
X325564D01*
X324231D01*
X324898D01*
Y183812D01*
X324231Y183146D01*
X322232Y187144D02*
Y183146D01*
Y185145D01*
X321566Y185811D01*
X320233D01*
X319566Y185145D01*
Y183146D01*
X317567D02*
X316234D01*
X315567Y183812D01*
Y185145D01*
X316234Y185811D01*
X317567D01*
X318233Y185145D01*
Y183812D01*
X317567Y183146D01*
X314235Y185811D02*
Y183812D01*
X313568Y183146D01*
X311569D01*
Y185811D01*
X309569Y186478D02*
Y185811D01*
X310236D01*
X308903D01*
X309569D01*
Y183812D01*
X308903Y183146D01*
X302905D02*
Y185811D01*
X302238D01*
X301572Y185145D01*
Y183146D01*
Y185145D01*
X300905Y185811D01*
X300239Y185145D01*
Y183146D01*
X296907D02*
X298240D01*
X298906Y183812D01*
Y185145D01*
X298240Y185811D01*
X296907D01*
X296240Y185145D01*
Y184478D01*
X298906D01*
X294241Y186478D02*
Y185811D01*
X294907D01*
X293575D01*
X294241D01*
Y183812D01*
X293575Y183146D01*
X290909Y185811D02*
X289576D01*
X288909Y185145D01*
Y183146D01*
X290909D01*
X291575Y183812D01*
X290909Y184478D01*
X288909D01*
X287577Y183146D02*
X286244D01*
X286910D01*
Y187144D01*
X287577D01*
X277580Y185811D02*
X279579D01*
X280246Y185145D01*
Y183812D01*
X279579Y183146D01*
X277580D01*
X275580Y185811D02*
X274247D01*
X273581Y185145D01*
Y183146D01*
X275580D01*
X276247Y183812D01*
X275580Y184478D01*
X273581D01*
X272248Y181813D02*
Y185811D01*
X270249D01*
X269582Y185145D01*
Y183812D01*
X270249Y183146D01*
X272248D01*
X332895Y177946D02*
X332229Y178613D01*
X330896D01*
X330229Y177946D01*
Y177280D01*
X330896Y176614D01*
X331562D01*
X330896D01*
X330229Y175947D01*
Y175281D01*
X330896Y174614D01*
X332229D01*
X332895Y175281D01*
X328896Y174614D02*
X327564Y175947D01*
Y177280D01*
X328896Y178613D01*
X320899Y177280D02*
X319566D01*
X318900Y176614D01*
Y174614D01*
X320899D01*
X321566Y175281D01*
X320899Y175947D01*
X318900D01*
X317567Y174614D02*
X316234D01*
X316900D01*
Y178613D01*
X317567D01*
X314235Y174614D02*
X312902D01*
X313568D01*
Y178613D01*
X314235D01*
X306237Y174614D02*
X304904D01*
X304238Y175281D01*
Y176614D01*
X304904Y177280D01*
X306237D01*
X306904Y176614D01*
Y175281D01*
X306237Y174614D01*
X302238Y177946D02*
Y177280D01*
X302905D01*
X301572D01*
X302238D01*
Y175281D01*
X301572Y174614D01*
X299573Y178613D02*
Y174614D01*
Y176614D01*
X298906Y177280D01*
X297573D01*
X296907Y176614D01*
Y174614D01*
X293575D02*
X294907D01*
X295574Y175281D01*
Y176614D01*
X294907Y177280D01*
X293575D01*
X292908Y176614D01*
Y175947D01*
X295574D01*
X291575Y177280D02*
Y174614D01*
Y175947D01*
X290909Y176614D01*
X290242Y177280D01*
X289576D01*
X282911Y177946D02*
Y177280D01*
X283578D01*
X282245D01*
X282911D01*
Y175281D01*
X282245Y174614D01*
X280246Y178613D02*
Y174614D01*
Y176614D01*
X279579Y177280D01*
X278246D01*
X277580Y176614D01*
Y174614D01*
X274247D02*
X275580D01*
X276247Y175281D01*
Y176614D01*
X275580Y177280D01*
X274247D01*
X273581Y176614D01*
Y175947D01*
X276247D01*
X272248Y177280D02*
Y174614D01*
Y175947D01*
X271582Y176614D01*
X270915Y177280D01*
X270249D01*
X268249Y174614D02*
Y177280D01*
X267583D01*
X266917Y176614D01*
Y174614D01*
Y176614D01*
X266250Y177280D01*
X265584Y176614D01*
Y174614D01*
X263584Y177280D02*
X262251D01*
X261585Y176614D01*
Y174614D01*
X263584D01*
X264251Y175281D01*
X263584Y175947D01*
X261585D01*
X260252Y174614D02*
X258919D01*
X259586D01*
Y178613D01*
X260252D01*
X252921Y173281D02*
Y177280D01*
X250922D01*
X250255Y176614D01*
Y175281D01*
X250922Y174614D01*
X252921D01*
X248256Y177280D02*
X246923D01*
X246257Y176614D01*
Y174614D01*
X248256D01*
X248923Y175281D01*
X248256Y175947D01*
X246257D01*
X242258Y178613D02*
Y174614D01*
X244257D01*
X244924Y175281D01*
Y176614D01*
X244257Y177280D01*
X242258D01*
X332895Y168749D02*
X331562Y166083D01*
X330229Y168749D01*
X328896Y166083D02*
X327564D01*
X328230D01*
Y168749D01*
X328896D01*
X324898D02*
X323565D01*
X322898Y168082D01*
Y166083D01*
X324898D01*
X325564Y166749D01*
X324898Y167416D01*
X322898D01*
X321566Y166083D02*
X319566D01*
X318900Y166749D01*
X319566Y167416D01*
X320899D01*
X321566Y168082D01*
X320899Y168749D01*
X318900D01*
X313568D02*
Y166749D01*
X312902Y166083D01*
X312235Y166749D01*
X311569Y166083D01*
X310902Y166749D01*
Y168749D01*
X309569Y166083D02*
X308237D01*
X308903D01*
Y168749D01*
X309569D01*
X305571Y169415D02*
Y168749D01*
X306237D01*
X304904D01*
X305571D01*
Y166749D01*
X304904Y166083D01*
X302905Y170082D02*
Y166083D01*
Y168082D01*
X302238Y168749D01*
X300905D01*
X300239Y168082D01*
Y166083D01*
X294907D02*
Y168749D01*
X294241D01*
X293575Y168082D01*
Y166083D01*
Y168082D01*
X292908Y168749D01*
X292242Y168082D01*
Y166083D01*
X288909D02*
X290242D01*
X290909Y166749D01*
Y168082D01*
X290242Y168749D01*
X288909D01*
X288243Y168082D01*
Y167416D01*
X290909D01*
X286244Y169415D02*
Y168749D01*
X286910D01*
X285577D01*
X286244D01*
Y166749D01*
X285577Y166083D01*
X282911Y168749D02*
X281579D01*
X280912Y168082D01*
Y166083D01*
X282911D01*
X283578Y166749D01*
X282911Y167416D01*
X280912D01*
X279579Y166083D02*
X278246D01*
X278913D01*
Y170082D01*
X279579D01*
X269582Y168749D02*
X271582D01*
X272248Y168082D01*
Y166749D01*
X271582Y166083D01*
X269582D01*
X267583Y168749D02*
X266250D01*
X265584Y168082D01*
Y166083D01*
X267583D01*
X268249Y166749D01*
X267583Y167416D01*
X265584D01*
X264251Y164750D02*
Y168749D01*
X262251D01*
X261585Y168082D01*
Y166749D01*
X262251Y166083D01*
X264251D01*
X347645Y124063D02*
Y128061D01*
X345646D01*
X344979Y127395D01*
Y126062D01*
X345646Y125396D01*
X347645D01*
X342980Y126728D02*
X341647D01*
X340981Y126062D01*
Y124063D01*
X342980D01*
X343646Y124729D01*
X342980Y125396D01*
X340981D01*
X336982Y128061D02*
Y124063D01*
X338981D01*
X339648Y124729D01*
Y126062D01*
X338981Y126728D01*
X336982D01*
X331650Y124063D02*
X329651D01*
X328984Y124729D01*
X329651Y125396D01*
X330984D01*
X331650Y126062D01*
X330984Y126728D01*
X328984D01*
X327652Y124063D02*
X326319D01*
X326985D01*
Y126728D01*
X327652D01*
X324319D02*
X321654D01*
X324319Y124063D01*
X321654D01*
X318321D02*
X319654D01*
X320321Y124729D01*
Y126062D01*
X319654Y126728D01*
X318321D01*
X317655Y126062D01*
Y125396D01*
X320321D01*
X312323D02*
X309657D01*
X312323Y126728D02*
X309657D01*
X304326Y127395D02*
X303659Y128061D01*
X302327D01*
X301660Y127395D01*
Y124729D01*
X302327Y124063D01*
X303659D01*
X304326Y124729D01*
Y127395D01*
X300327Y124063D02*
Y124729D01*
X299661D01*
Y124063D01*
X300327D01*
X296995Y127395D02*
X296329Y128061D01*
X294996D01*
X294329Y127395D01*
Y126728D01*
X294996Y126062D01*
X295662D01*
X294996D01*
X294329Y125396D01*
Y124729D01*
X294996Y124063D01*
X296329D01*
X296995Y124729D01*
X290330Y128061D02*
X292996D01*
Y126062D01*
X291663Y126728D01*
X290997D01*
X290330Y126062D01*
Y124729D01*
X290997Y124063D01*
X292330D01*
X292996Y124729D01*
X288997Y124063D02*
Y126728D01*
X288331D01*
X287665Y126062D01*
Y124063D01*
Y126062D01*
X286998Y126728D01*
X286332Y126062D01*
Y124063D01*
X284999D02*
Y126728D01*
X284332D01*
X283666Y126062D01*
Y124063D01*
Y126062D01*
X282999Y126728D01*
X282333Y126062D01*
Y124063D01*
X347645Y116864D02*
Y120863D01*
X345646D01*
X344979Y120197D01*
Y118864D01*
X345646Y118197D01*
X347645D01*
X342980Y119530D02*
X341647D01*
X340981Y118864D01*
Y116864D01*
X342980D01*
X343646Y117531D01*
X342980Y118197D01*
X340981D01*
X336982Y120863D02*
Y116864D01*
X338981D01*
X339648Y117531D01*
Y118864D01*
X338981Y119530D01*
X336982D01*
X331650Y115531D02*
Y119530D01*
X329651D01*
X328984Y118864D01*
Y117531D01*
X329651Y116864D01*
X331650D01*
X326985Y119530D02*
X325652D01*
X324986Y118864D01*
Y116864D01*
X326985D01*
X327652Y117531D01*
X326985Y118197D01*
X324986D01*
X323653Y116864D02*
X321654D01*
X320987Y117531D01*
X321654Y118197D01*
X322986D01*
X323653Y118864D01*
X322986Y119530D01*
X320987D01*
X318988Y120197D02*
Y119530D01*
X319654D01*
X318321D01*
X318988D01*
Y117531D01*
X318321Y116864D01*
X314323D02*
X315655D01*
X316322Y117531D01*
Y118864D01*
X315655Y119530D01*
X314323D01*
X313656Y118864D01*
Y118197D01*
X316322D01*
X308325Y116864D02*
Y119530D01*
X307658D01*
X306992Y118864D01*
Y116864D01*
Y118864D01*
X306325Y119530D01*
X305659Y118864D01*
Y116864D01*
X303659Y119530D02*
X302327D01*
X301660Y118864D01*
Y116864D01*
X303659D01*
X304326Y117531D01*
X303659Y118197D01*
X301660D01*
X300327Y116864D02*
X298328D01*
X297661Y117531D01*
X298328Y118197D01*
X299661D01*
X300327Y118864D01*
X299661Y119530D01*
X297661D01*
X296329Y116864D02*
Y120863D01*
Y118197D02*
X294329Y119530D01*
X296329Y118197D02*
X294329Y116864D01*
X288331Y118197D02*
X285665D01*
X288331Y119530D02*
X285665D01*
X280334Y120197D02*
X279667Y120863D01*
X278334D01*
X277668Y120197D01*
Y117531D01*
X278334Y116864D01*
X279667D01*
X280334Y117531D01*
Y120197D01*
X276335Y116864D02*
Y117531D01*
X275669D01*
Y116864D01*
X276335D01*
X273003Y120197D02*
X272336Y120863D01*
X271003D01*
X270337Y120197D01*
Y119530D01*
X271003Y118864D01*
X271670D01*
X271003D01*
X270337Y118197D01*
Y117531D01*
X271003Y116864D01*
X272336D01*
X273003Y117531D01*
X266338Y120863D02*
X269004D01*
Y118864D01*
X267671Y119530D01*
X267005D01*
X266338Y118864D01*
Y117531D01*
X267005Y116864D01*
X268338D01*
X269004Y117531D01*
X265005Y116864D02*
Y119530D01*
X264339D01*
X263673Y118864D01*
Y116864D01*
Y118864D01*
X263006Y119530D01*
X262340Y118864D01*
Y116864D01*
X261007D02*
Y119530D01*
X260340D01*
X259674Y118864D01*
Y116864D01*
Y118864D01*
X259007Y119530D01*
X258341Y118864D01*
Y116864D01*
X347645Y108333D02*
Y112332D01*
X344979Y108333D01*
Y112332D01*
X342980Y108333D02*
X341647D01*
X340981Y108999D01*
Y110332D01*
X341647Y110999D01*
X342980D01*
X343646Y110332D01*
Y108999D01*
X342980Y108333D01*
X335649D02*
Y110999D01*
X334316Y112332D01*
X332983Y110999D01*
Y108333D01*
Y110332D01*
X335649D01*
X331650Y108333D02*
Y112332D01*
X330317Y110999D01*
X328984Y112332D01*
Y108333D01*
X324986D02*
X327652D01*
X324986Y110999D01*
Y111665D01*
X325652Y112332D01*
X326985D01*
X327652Y111665D01*
X319654Y107000D02*
Y110999D01*
X317655D01*
X316988Y110332D01*
Y108999D01*
X317655Y108333D01*
X319654D01*
X314989Y110999D02*
X313656D01*
X312990Y110332D01*
Y108333D01*
X314989D01*
X315655Y108999D01*
X314989Y109666D01*
X312990D01*
X308991Y112332D02*
Y108333D01*
X310990D01*
X311657Y108999D01*
Y110332D01*
X310990Y110999D01*
X308991D01*
X313584Y100832D02*
X316250D01*
Y98832D01*
X314917D01*
X316250D01*
Y96833D01*
X311585D02*
X310252D01*
X309585Y97499D01*
Y98832D01*
X310252Y99499D01*
X311585D01*
X312251Y98832D01*
Y97499D01*
X311585Y96833D01*
X307586D02*
X306253D01*
X305587Y97499D01*
Y98832D01*
X306253Y99499D01*
X307586D01*
X308253Y98832D01*
Y97499D01*
X307586Y96833D01*
X303587Y100165D02*
Y99499D01*
X304254D01*
X302921D01*
X303587D01*
Y97499D01*
X302921Y96833D01*
X300922Y95500D02*
Y99499D01*
X298922D01*
X298256Y98832D01*
Y97499D01*
X298922Y96833D01*
X300922D01*
X296923Y99499D02*
Y96833D01*
Y98166D01*
X296257Y98832D01*
X295590Y99499D01*
X294924D01*
X292924Y96833D02*
X291591D01*
X292258D01*
Y99499D01*
X292924D01*
X289592Y96833D02*
Y99499D01*
X287593D01*
X286926Y98832D01*
Y96833D01*
X284927Y100165D02*
Y99499D01*
X285593D01*
X284260D01*
X284927D01*
Y97499D01*
X284260Y96833D01*
X278262Y99499D02*
Y96833D01*
Y98166D01*
X277596Y98832D01*
X276929Y99499D01*
X276263D01*
X272264Y96833D02*
X273597D01*
X274264Y97499D01*
Y98832D01*
X273597Y99499D01*
X272264D01*
X271598Y98832D01*
Y98166D01*
X274264D01*
X270265Y99499D02*
X268932Y96833D01*
X267599Y99499D01*
X266266Y96833D02*
X264933D01*
X265600D01*
Y99499D01*
X266266D01*
X262934Y96833D02*
X260935D01*
X260268Y97499D01*
X260935Y98166D01*
X262268D01*
X262934Y98832D01*
X262268Y99499D01*
X260268D01*
X258935Y96833D02*
X257602D01*
X258269D01*
Y99499D01*
X258935D01*
X254937Y96833D02*
X253604D01*
X252937Y97499D01*
Y98832D01*
X253604Y99499D01*
X254937D01*
X255603Y98832D01*
Y97499D01*
X254937Y96833D01*
X251604D02*
Y99499D01*
X249605D01*
X248939Y98832D01*
Y96833D01*
X247606Y99499D02*
X246939D01*
Y98832D01*
X247606D01*
Y99499D01*
Y97499D02*
X246939D01*
Y96833D01*
X247606D01*
Y97499D01*
X240275Y99499D02*
Y96833D01*
Y98166D01*
X239608Y98832D01*
X238942Y99499D01*
X238275D01*
X233610Y100832D02*
X236276D01*
Y98832D01*
X234943Y99499D01*
X234277D01*
X233610Y98832D01*
Y97499D01*
X234277Y96833D01*
X235610D01*
X236276Y97499D01*
X4750Y7250D02*
X8749D01*
Y9249D01*
X8082Y9916D01*
X6749D01*
X6083Y9249D01*
Y7250D01*
Y8583D02*
X4750Y9916D01*
Y11249D02*
Y12582D01*
Y11915D01*
X8749D01*
X8082Y11249D01*
X4750Y14581D02*
Y15914D01*
Y15247D01*
X8749D01*
X8082Y14581D01*
X4750Y20579D02*
Y17913D01*
X7416Y20579D01*
X8082D01*
X8749Y19913D01*
Y18580D01*
X8082Y17913D01*
X201500Y279499D02*
X200167D01*
X200834D01*
Y275500D01*
X201500D01*
X200167D01*
X195502Y278832D02*
X196168Y279499D01*
X197501D01*
X198168Y278832D01*
Y276166D01*
X197501Y275500D01*
X196168D01*
X195502Y276166D01*
X194169Y275500D02*
X192836D01*
X193503D01*
Y279499D01*
X194169Y278832D01*
X190837Y279499D02*
X188171D01*
Y278832D01*
X190837Y276166D01*
Y275500D01*
X296500Y138749D02*
X295167D01*
X295833D01*
Y134750D01*
X296500D01*
X295167D01*
X290502Y138082D02*
X291168Y138749D01*
X292501D01*
X293168Y138082D01*
Y135416D01*
X292501Y134750D01*
X291168D01*
X290502Y135416D01*
X289169Y134750D02*
X287836D01*
X288503D01*
Y138749D01*
X289169Y138082D01*
X279750Y294749D02*
X278417D01*
X279084D01*
Y290750D01*
X279750D01*
X278417D01*
X273752Y294082D02*
X274418Y294749D01*
X275751D01*
X276418Y294082D01*
Y291416D01*
X275751Y290750D01*
X274418D01*
X273752Y291416D01*
X272419Y290750D02*
X271086D01*
X271753D01*
Y294749D01*
X272419Y294082D01*
X269087D02*
X268420Y294749D01*
X267087D01*
X266421Y294082D01*
Y293416D01*
X267087Y292749D01*
X267754D01*
X267087D01*
X266421Y292083D01*
Y291416D01*
X267087Y290750D01*
X268420D01*
X269087Y291416D01*
X16000Y163249D02*
X14667D01*
X15333D01*
Y159250D01*
X16000D01*
X14667D01*
X10002Y162582D02*
X10668Y163249D01*
X12001D01*
X12668Y162582D01*
Y159916D01*
X12001Y159250D01*
X10668D01*
X10002Y159916D01*
X8669Y159250D02*
X7336D01*
X8003D01*
Y163249D01*
X8669Y162582D01*
X2671Y159250D02*
X5337D01*
X2671Y161916D01*
Y162582D01*
X3337Y163249D01*
X4670D01*
X5337Y162582D01*
X105577Y80077D02*
X104635Y81020D01*
X105106Y80549D01*
X102279Y77721D01*
X102750Y77250D01*
X101807Y78193D01*
X100865Y83848D02*
X101807D01*
X102750Y82905D01*
Y81962D01*
X100865Y80077D01*
X99923D01*
X98980Y81020D01*
Y81962D01*
X97566Y82434D02*
X96624Y83376D01*
X97095Y82905D01*
X99923Y85732D01*
Y84790D01*
X97566Y87146D02*
Y88089D01*
X96624Y89031D01*
X95681D01*
X95210Y88560D01*
Y87618D01*
X94268Y87618D01*
X93796Y87146D01*
Y86204D01*
X94739Y85261D01*
X95681D01*
X96152Y85732D01*
X96152Y86675D01*
X97095D01*
X97566Y87146D01*
X96152Y86675D02*
X95210Y87618D01*
X33500Y136249D02*
X32167D01*
X32834D01*
Y132250D01*
X33500D01*
X32167D01*
X27502Y135582D02*
X28168Y136249D01*
X29501D01*
X30168Y135582D01*
Y132916D01*
X29501Y132250D01*
X28168D01*
X27502Y132916D01*
X26169Y132250D02*
X24836D01*
X25503D01*
Y136249D01*
X26169Y135582D01*
X22837Y132916D02*
X22170Y132250D01*
X20837D01*
X20171Y132916D01*
Y135582D01*
X20837Y136249D01*
X22170D01*
X22837Y135582D01*
Y134916D01*
X22170Y134249D01*
X20171D01*
X120000Y158499D02*
X118667D01*
X119333D01*
Y154500D01*
X120000D01*
X118667D01*
X114002Y157832D02*
X114668Y158499D01*
X116001D01*
X116668Y157832D01*
Y155166D01*
X116001Y154500D01*
X114668D01*
X114002Y155166D01*
X112669Y158499D02*
X110003D01*
Y157832D01*
X112669Y155166D01*
Y154500D01*
X51364Y141078D02*
X53249Y142963D01*
Y144848D01*
X51364Y144848D01*
X49479Y142963D01*
X50892Y144377D01*
X52777Y142492D01*
X48536Y143906D02*
X47593Y144848D01*
X48065Y144377D01*
X50892Y147205D01*
Y146262D01*
X113589Y78853D02*
X115474Y80738D01*
Y82623D01*
X113589Y82623D01*
X111704Y80738D01*
X113118Y82152D01*
X115003Y80267D01*
X110761Y81680D02*
X109819Y82623D01*
X110290Y82152D01*
X113118Y84979D01*
Y84037D01*
X108876Y84508D02*
X107934D01*
X106991Y85451D01*
Y86393D01*
X108876Y88278D01*
X109819D01*
X110761Y87336D01*
Y86393D01*
X110290Y85922D01*
X109348D01*
X107934Y87336D01*
X181470Y148149D02*
X178643Y145321D01*
Y147206D01*
X176758Y147206D01*
X179585Y150034D01*
X175815Y148149D02*
X174873Y149091D01*
X175344Y148620D01*
X178172Y151447D01*
Y150505D01*
X173930Y150976D02*
X172988D01*
X172045Y151919D01*
Y152861D01*
X173930Y154746D01*
X174873D01*
X175815Y153804D01*
Y152861D01*
X175344Y152390D01*
X174401D01*
X172988Y153804D01*
X119245Y210374D02*
X116417Y207547D01*
Y209431D01*
X114532Y209431D01*
X117360Y212259D01*
X113590Y210374D02*
X112647Y211317D01*
X113119Y210845D01*
X115946Y213673D01*
Y212730D01*
X58250Y279999D02*
X55584Y276000D01*
Y279999D02*
X58250Y276000D01*
X54251D02*
X52919D01*
X53585D01*
Y279999D01*
X54251Y279332D01*
X48253Y276000D02*
X50919D01*
X48253Y278666D01*
Y279332D01*
X48920Y279999D01*
X50253D01*
X50919Y279332D01*
X465082Y79916D02*
X465749Y79249D01*
Y77916D01*
X465082Y77250D01*
X462416D01*
X461750Y77916D01*
Y79249D01*
X462416Y79916D01*
X461750Y81915D02*
Y83248D01*
X462416Y83914D01*
X463749D01*
X464416Y83248D01*
Y81915D01*
X463749Y81249D01*
X462416D01*
X461750Y81915D01*
Y85247D02*
X464416D01*
Y87247D01*
X463749Y87913D01*
X461750D01*
Y89246D02*
X464416D01*
Y91245D01*
X463749Y91912D01*
X461750D01*
Y95244D02*
Y93911D01*
X462416Y93245D01*
X463749D01*
X464416Y93911D01*
Y95244D01*
X463749Y95911D01*
X463083D01*
Y93245D01*
X464416Y99909D02*
Y97910D01*
X463749Y97243D01*
X462416D01*
X461750Y97910D01*
Y99909D01*
X465082Y101909D02*
X464416D01*
Y101242D01*
Y102575D01*
Y101909D01*
X462416D01*
X461750Y102575D01*
Y105241D02*
Y106574D01*
X462416Y107240D01*
X463749D01*
X464416Y106574D01*
Y105241D01*
X463749Y104574D01*
X462416D01*
X461750Y105241D01*
X464416Y108573D02*
X461750D01*
X463083D01*
X463749Y109240D01*
X464416Y109906D01*
Y110572D01*
X461750Y116570D02*
Y117903D01*
Y117237D01*
X464416D01*
Y116570D01*
X461750Y119903D02*
X464416D01*
Y121902D01*
X463749Y122569D01*
X461750D01*
X460417Y123901D02*
X464416D01*
Y125901D01*
X463749Y126567D01*
X462416D01*
X461750Y125901D01*
Y123901D01*
X464416Y127900D02*
X462416D01*
X461750Y128567D01*
Y130566D01*
X464416D01*
X465082Y132565D02*
X464416D01*
Y131899D01*
Y133232D01*
Y132565D01*
X462416D01*
X461750Y133232D01*
X449000Y98249D02*
X446334Y94250D01*
Y98249D02*
X449000Y94250D01*
X445001Y97582D02*
X444335Y98249D01*
X443002D01*
X442336Y97582D01*
Y96916D01*
X443002Y96249D01*
X442336Y95583D01*
Y94916D01*
X443002Y94250D01*
X444335D01*
X445001Y94916D01*
Y95583D01*
X444335Y96249D01*
X445001Y96916D01*
Y97582D01*
X444335Y96249D02*
X443002D01*
X122500Y25749D02*
Y21750D01*
X119834D01*
X118501Y22417D02*
X117835Y21750D01*
X116502D01*
X115836Y22417D01*
Y25082D01*
X116502Y25749D01*
X117835D01*
X118501Y25082D01*
Y24416D01*
X117835Y23749D01*
X115836D01*
X302000Y235250D02*
X305999D01*
X304666Y236583D01*
X305999Y237916D01*
X302000D01*
Y239249D02*
X305999D01*
X302000Y241915D01*
X305999D01*
X302000Y243247D02*
Y244580D01*
Y243914D01*
X305999D01*
X305332Y243247D01*
X305999Y249245D02*
X305332Y247913D01*
X303999Y246580D01*
X302666D01*
X302000Y247246D01*
Y248579D01*
X302666Y249245D01*
X303333D01*
X303999Y248579D01*
Y246580D01*
X406250Y130749D02*
X404917D01*
X405583D01*
Y126750D01*
X406250D01*
X404917D01*
X400252Y130082D02*
X400918Y130749D01*
X402251D01*
X402918Y130082D01*
Y127416D01*
X402251Y126750D01*
X400918D01*
X400252Y127416D01*
X396920Y126750D02*
Y130749D01*
X398919Y128749D01*
X396253D01*
X384250Y267499D02*
X382917D01*
X383584D01*
Y263500D01*
X384250D01*
X382917D01*
X378252Y266832D02*
X378918Y267499D01*
X380251D01*
X380918Y266832D01*
Y264167D01*
X380251Y263500D01*
X378918D01*
X378252Y264167D01*
X374253Y267499D02*
X375586Y266832D01*
X376919Y265499D01*
Y264167D01*
X376253Y263500D01*
X374920D01*
X374253Y264167D01*
Y264833D01*
X374920Y265499D01*
X376919D01*
X424249Y95250D02*
Y97916D01*
Y96583D01*
X420250D01*
X424249Y101915D02*
X423582Y100582D01*
X422249Y99249D01*
X420916D01*
X420250Y99915D01*
Y101248D01*
X420916Y101915D01*
X421583D01*
X422249Y101248D01*
Y99249D01*
X423750Y79749D02*
X421084D01*
X422417D01*
Y75750D01*
X419751Y79082D02*
X419085Y79749D01*
X417752D01*
X417085Y79082D01*
Y78416D01*
X417752Y77749D01*
X417085Y77083D01*
Y76416D01*
X417752Y75750D01*
X419085D01*
X419751Y76416D01*
Y77083D01*
X419085Y77749D01*
X419751Y78416D01*
Y79082D01*
X419085Y77749D02*
X417752D01*
X32500Y222999D02*
X31167D01*
X31834D01*
Y219000D01*
X32500D01*
X31167D01*
X26502Y222332D02*
X27168Y222999D01*
X28501D01*
X29168Y222332D01*
Y219666D01*
X28501Y219000D01*
X27168D01*
X26502Y219666D01*
X25169Y219000D02*
X23836D01*
X24503D01*
Y222999D01*
X25169Y222332D01*
X19171Y222999D02*
X21837D01*
Y220999D01*
X20504Y221666D01*
X19837D01*
X19171Y220999D01*
Y219666D01*
X19837Y219000D01*
X21170D01*
X21837Y219666D01*
X107500Y256249D02*
X104834Y252250D01*
Y256249D02*
X107500Y252250D01*
X103501Y252916D02*
X102835Y252250D01*
X101502D01*
X100836Y252916D01*
Y255582D01*
X101502Y256249D01*
X102835D01*
X103501Y255582D01*
Y254916D01*
X102835Y254249D01*
X100836D01*
X230832Y11666D02*
X231499Y10999D01*
Y9667D01*
X230832Y9000D01*
X228166D01*
X227500Y9667D01*
Y10999D01*
X228166Y11666D01*
X227500Y12999D02*
Y14332D01*
Y13665D01*
X231499D01*
X230832Y12999D01*
X228166Y16331D02*
X227500Y16997D01*
Y18330D01*
X228166Y18997D01*
X230832D01*
X231499Y18330D01*
Y16997D01*
X230832Y16331D01*
X230166D01*
X229499Y16997D01*
Y18997D01*
X227500Y20330D02*
Y21662D01*
Y20996D01*
X231499D01*
X230832Y20330D01*
X57000Y239499D02*
X55667D01*
X56333D01*
Y235500D01*
X57000D01*
X55667D01*
X51002Y238832D02*
X51668Y239499D01*
X53001D01*
X53668Y238832D01*
Y236166D01*
X53001Y235500D01*
X51668D01*
X51002Y236166D01*
X49669Y235500D02*
X48336D01*
X49003D01*
Y239499D01*
X49669Y238832D01*
X44337Y235500D02*
Y239499D01*
X46337Y237499D01*
X43671D01*
X398250Y14249D02*
X396917D01*
X397584D01*
Y10250D01*
X398250D01*
X396917D01*
X392252Y13582D02*
X392918Y14249D01*
X394251D01*
X394918Y13582D01*
Y10916D01*
X394251Y10250D01*
X392918D01*
X392252Y10916D01*
X390919Y13582D02*
X390253Y14249D01*
X388920D01*
X388253Y13582D01*
Y12916D01*
X388920Y12249D01*
X388253Y11583D01*
Y10916D01*
X388920Y10250D01*
X390253D01*
X390919Y10916D01*
Y11583D01*
X390253Y12249D01*
X390919Y12916D01*
Y13582D01*
X390253Y12249D02*
X388920D01*
X6500Y170750D02*
Y174749D01*
X4501D01*
X3834Y174082D01*
Y172749D01*
X4501Y172083D01*
X6500D01*
X5167D02*
X3834Y170750D01*
X-165Y174749D02*
X1168Y174082D01*
X2501Y172749D01*
Y171416D01*
X1835Y170750D01*
X502D01*
X-165Y171416D01*
Y172083D01*
X502Y172749D01*
X2501D01*
X-1497Y174082D02*
X-2164Y174749D01*
X-3497D01*
X-4163Y174082D01*
Y171416D01*
X-3497Y170750D01*
X-2164D01*
X-1497Y171416D01*
Y174082D01*
X23750Y48750D02*
Y52749D01*
X21751D01*
X21084Y52082D01*
Y50749D01*
X21751Y50083D01*
X23750D01*
X22417D02*
X21084Y48750D01*
X19751D02*
X18418D01*
X19085D01*
Y52749D01*
X19751Y52082D01*
X16419D02*
X15753Y52749D01*
X14420D01*
X13753Y52082D01*
Y49416D01*
X14420Y48750D01*
X15753D01*
X16419Y49416D01*
Y52082D01*
X12420D02*
X11754Y52749D01*
X10421D01*
X9754Y52082D01*
Y51416D01*
X10421Y50749D01*
X11087D01*
X10421D01*
X9754Y50083D01*
Y49416D01*
X10421Y48750D01*
X11754D01*
X12420Y49416D01*
X258000Y234000D02*
X261999D01*
X260666Y235333D01*
X261999Y236666D01*
X258000D01*
Y237999D02*
X261999D01*
X258000Y240665D01*
X261999D01*
X258000Y241997D02*
Y243330D01*
Y242664D01*
X261999D01*
X261332Y241997D01*
X261999Y247995D02*
Y245330D01*
X259999D01*
X260666Y246663D01*
Y247329D01*
X259999Y247995D01*
X258666D01*
X258000Y247329D01*
Y245996D01*
X258666Y245330D01*
X390250Y92250D02*
X394249D01*
X392916Y93583D01*
X394249Y94916D01*
X390250D01*
Y96249D02*
X394249D01*
X390250Y98914D01*
X394249D01*
X393582Y100247D02*
X394249Y100914D01*
Y102247D01*
X393582Y102913D01*
X392916D01*
X392249Y102247D01*
Y101580D01*
Y102247D01*
X391583Y102913D01*
X390916D01*
X390250Y102247D01*
Y100914D01*
X390916Y100247D01*
X390250Y106912D02*
Y104246D01*
X392916Y106912D01*
X393582D01*
X394249Y106245D01*
Y104913D01*
X393582Y104246D01*
X372500Y51000D02*
X376499D01*
X375166Y52333D01*
X376499Y53666D01*
X372500D01*
Y54999D02*
X376499D01*
X372500Y57664D01*
X376499D01*
X375832Y58997D02*
X376499Y59664D01*
Y60997D01*
X375832Y61663D01*
X375166D01*
X374499Y60997D01*
Y60330D01*
Y60997D01*
X373833Y61663D01*
X373166D01*
X372500Y60997D01*
Y59664D01*
X373166Y58997D01*
X372500Y62996D02*
Y64329D01*
Y63663D01*
X376499D01*
X375832Y62996D01*
X107584Y240749D02*
X110250D01*
Y238749D01*
X108917D01*
X110250D01*
Y236750D01*
X106251D02*
Y240749D01*
X104252D01*
X103586Y240082D01*
Y238749D01*
X104252Y238083D01*
X106251D01*
X104918D02*
X103586Y236750D01*
X102253Y240082D02*
X101586Y240749D01*
X100253D01*
X99587Y240082D01*
Y239416D01*
X100253Y238749D01*
X100920D01*
X100253D01*
X99587Y238083D01*
Y237416D01*
X100253Y236750D01*
X101586D01*
X102253Y237416D01*
X98254Y240749D02*
X95588D01*
Y240082D01*
X98254Y237416D01*
Y236750D01*
X129834Y242999D02*
X132500D01*
Y241000D01*
X131167D01*
X132500D01*
Y239000D01*
X128501D02*
Y242999D01*
X126502D01*
X125836Y242332D01*
Y241000D01*
X126502Y240333D01*
X128501D01*
X127168D02*
X125836Y239000D01*
X124503Y242332D02*
X123836Y242999D01*
X122503D01*
X121837Y242332D01*
Y241666D01*
X122503Y241000D01*
X123170D01*
X122503D01*
X121837Y240333D01*
Y239667D01*
X122503Y239000D01*
X123836D01*
X124503Y239667D01*
X117838Y242999D02*
X119171Y242332D01*
X120504Y241000D01*
Y239667D01*
X119837Y239000D01*
X118504D01*
X117838Y239667D01*
Y240333D01*
X118504Y241000D01*
X120504D01*
X419721Y150000D02*
X423720D01*
Y151999D01*
X423054Y152666D01*
X421721D01*
X421054Y151999D01*
Y150000D01*
Y151333D02*
X419721Y152666D01*
Y153999D02*
Y155332D01*
Y154665D01*
X423720D01*
X423054Y153999D01*
X420388Y157331D02*
X419721Y157997D01*
Y159330D01*
X420388Y159997D01*
X423054D01*
X423720Y159330D01*
Y157997D01*
X423054Y157331D01*
X422387D01*
X421721Y157997D01*
Y159997D01*
X34000Y64749D02*
X32667D01*
X33334D01*
Y60750D01*
X34000D01*
X32667D01*
X28002Y64082D02*
X28668Y64749D01*
X30001D01*
X30668Y64082D01*
Y61416D01*
X30001Y60750D01*
X28668D01*
X28002Y61416D01*
X24003Y60750D02*
X26669D01*
X24003Y63416D01*
Y64082D01*
X24670Y64749D01*
X26003D01*
X26669Y64082D01*
X20005Y60750D02*
X22670D01*
X20005Y63416D01*
Y64082D01*
X20671Y64749D01*
X22004D01*
X22670Y64082D01*
X34500Y96249D02*
X33167D01*
X33834D01*
Y92250D01*
X34500D01*
X33167D01*
X28502Y95582D02*
X29168Y96249D01*
X30501D01*
X31168Y95582D01*
Y92916D01*
X30501Y92250D01*
X29168D01*
X28502Y92916D01*
X24503Y92250D02*
X27169D01*
X24503Y94916D01*
Y95582D01*
X25170Y96249D01*
X26503D01*
X27169Y95582D01*
X23170D02*
X22504Y96249D01*
X21171D01*
X20505Y95582D01*
Y94916D01*
X21171Y94249D01*
X21837D01*
X21171D01*
X20505Y93583D01*
Y92916D01*
X21171Y92250D01*
X22504D01*
X23170Y92916D01*
X427750Y44000D02*
X431749D01*
Y45999D01*
X431082Y46666D01*
X429749D01*
X429083Y45999D01*
Y44000D01*
Y45333D02*
X427750Y46666D01*
Y47999D02*
Y49332D01*
Y48665D01*
X431749D01*
X431082Y47999D01*
Y51331D02*
X431749Y51997D01*
Y53330D01*
X431082Y53997D01*
X428416D01*
X427750Y53330D01*
Y51997D01*
X428416Y51331D01*
X431082D01*
X427750Y57995D02*
Y55330D01*
X430416Y57995D01*
X431082D01*
X431749Y57329D01*
Y55996D01*
X431082Y55330D01*
X435000Y47000D02*
X438999D01*
Y48999D01*
X438332Y49666D01*
X436999D01*
X436333Y48999D01*
Y47000D01*
Y48333D02*
X435000Y49666D01*
X435666Y50999D02*
X435000Y51665D01*
Y52998D01*
X435666Y53664D01*
X438332D01*
X438999Y52998D01*
Y51665D01*
X438332Y50999D01*
X437666D01*
X436999Y51665D01*
Y53664D01*
X438999Y54997D02*
Y57663D01*
X438332D01*
X435666Y54997D01*
X435000D01*
X336584Y8332D02*
X337251Y8999D01*
X338583D01*
X339250Y8332D01*
Y5666D01*
X338583Y5000D01*
X337251D01*
X336584Y5666D01*
X332585Y5000D02*
X335251D01*
X332585Y7666D01*
Y8332D01*
X333252Y8999D01*
X334585D01*
X335251Y8332D01*
X328587Y5000D02*
X331253D01*
X328587Y7666D01*
Y8332D01*
X329253Y8999D01*
X330586D01*
X331253Y8332D01*
X324588Y5000D02*
X327254D01*
X324588Y7666D01*
Y8332D01*
X325255Y8999D01*
X326587D01*
X327254Y8332D01*
X392000Y46499D02*
X389334D01*
X390667D01*
Y42500D01*
X385336Y46499D02*
X388001D01*
Y44499D01*
X386668Y45166D01*
X386002D01*
X385336Y44499D01*
Y43166D01*
X386002Y42500D01*
X387335D01*
X388001Y43166D01*
X365659Y11639D02*
X364326D01*
X364993D01*
Y7640D01*
X365659D01*
X364326D01*
X359661Y10972D02*
X360327Y11639D01*
X361660D01*
X362327Y10972D01*
Y8306D01*
X361660Y7640D01*
X360327D01*
X359661Y8306D01*
X355662Y7640D02*
X358328D01*
X355662Y10306D01*
Y10972D01*
X356329Y11639D01*
X357662D01*
X358328Y10972D01*
X238584Y284832D02*
X239251Y285499D01*
X240583D01*
X241250Y284832D01*
Y282166D01*
X240583Y281500D01*
X239251D01*
X238584Y282166D01*
X237251Y281500D02*
X235918D01*
X236585D01*
Y285499D01*
X237251Y284832D01*
X233919Y285499D02*
X231253D01*
Y284832D01*
X233919Y282166D01*
Y281500D01*
X229920Y284832D02*
X229254Y285499D01*
X227921D01*
X227255Y284832D01*
Y282166D01*
X227921Y281500D01*
X229254D01*
X229920Y282166D01*
Y284832D01*
X172334Y92082D02*
X173001Y92749D01*
X174334D01*
X175000Y92082D01*
Y89416D01*
X174334Y88750D01*
X173001D01*
X172334Y89416D01*
X171001Y88750D02*
X169668D01*
X170335D01*
Y92749D01*
X171001Y92082D01*
X165003Y88750D02*
X167669D01*
X165003Y91416D01*
Y92082D01*
X165670Y92749D01*
X167003D01*
X167669Y92082D01*
X161005Y92749D02*
X163670D01*
Y90749D01*
X162337Y91416D01*
X161671D01*
X161005Y90749D01*
Y89416D01*
X161671Y88750D01*
X163004D01*
X163670Y89416D01*
X323332Y48416D02*
X323999Y47749D01*
Y46416D01*
X323332Y45750D01*
X320666D01*
X320000Y46416D01*
Y47749D01*
X320666Y48416D01*
X320000Y49749D02*
Y51082D01*
Y50415D01*
X323999D01*
X323332Y49749D01*
X320000Y53081D02*
Y54414D01*
Y53747D01*
X323999D01*
X323332Y53081D01*
X323999Y59079D02*
X323332Y57746D01*
X321999Y56413D01*
X320666D01*
X320000Y57080D01*
Y58413D01*
X320666Y59079D01*
X321333D01*
X321999Y58413D01*
Y56413D01*
X419834Y6082D02*
X420501Y6749D01*
X421833D01*
X422500Y6082D01*
Y3417D01*
X421833Y2750D01*
X420501D01*
X419834Y3417D01*
X418501Y2750D02*
X417168D01*
X417835D01*
Y6749D01*
X418501Y6082D01*
X412503Y6749D02*
X413836Y6082D01*
X415169Y4749D01*
Y3417D01*
X414503Y2750D01*
X413170D01*
X412503Y3417D01*
Y4083D01*
X413170Y4749D01*
X415169D01*
X411170Y6082D02*
X410504Y6749D01*
X409171D01*
X408504Y6082D01*
Y3417D01*
X409171Y2750D01*
X410504D01*
X411170Y3417D01*
Y6082D01*
X327834Y38582D02*
X328501Y39249D01*
X329834D01*
X330500Y38582D01*
Y35916D01*
X329834Y35250D01*
X328501D01*
X327834Y35916D01*
X323835Y35250D02*
X326501D01*
X323835Y37916D01*
Y38582D01*
X324502Y39249D01*
X325835D01*
X326501Y38582D01*
X319837Y35250D02*
X322503D01*
X319837Y37916D01*
Y38582D01*
X320503Y39249D01*
X321836D01*
X322503Y38582D01*
X318504D02*
X317838Y39249D01*
X316504D01*
X315838Y38582D01*
Y35916D01*
X316504Y35250D01*
X317838D01*
X318504Y35916D01*
Y38582D01*
X321499Y16916D02*
Y14250D01*
X319499D01*
Y15583D01*
Y14250D01*
X317500D01*
Y18249D02*
X321499D01*
Y20248D01*
X320832Y20914D01*
X319499D01*
X318833Y20248D01*
Y18249D01*
Y19582D02*
X317500Y20914D01*
X321499Y24913D02*
Y22247D01*
X319499D01*
X320166Y23580D01*
Y24247D01*
X319499Y24913D01*
X318166D01*
X317500Y24247D01*
Y22914D01*
X318166Y22247D01*
X317500Y28912D02*
Y26246D01*
X320166Y28912D01*
X320832D01*
X321499Y28245D01*
Y26913D01*
X320832Y26246D01*
X74832Y4666D02*
X75499Y3999D01*
Y2666D01*
X74832Y2000D01*
X72167D01*
X71500Y2666D01*
Y3999D01*
X72167Y4666D01*
X71500Y5999D02*
Y7332D01*
Y6665D01*
X75499D01*
X74832Y5999D01*
X75499Y11997D02*
X74832Y10664D01*
X73499Y9331D01*
X72167D01*
X71500Y9997D01*
Y11330D01*
X72167Y11997D01*
X72833D01*
X73499Y11330D01*
Y9331D01*
X75499Y15995D02*
Y13330D01*
X73499D01*
X74166Y14662D01*
Y15329D01*
X73499Y15995D01*
X72167D01*
X71500Y15329D01*
Y13996D01*
X72167Y13330D01*
X54334Y214832D02*
X55001Y215499D01*
X56333D01*
X57000Y214832D01*
Y212167D01*
X56333Y211500D01*
X55001D01*
X54334Y212167D01*
X53001Y211500D02*
X51668D01*
X52335D01*
Y215499D01*
X53001Y214832D01*
X49669Y215499D02*
X47003D01*
Y214832D01*
X49669Y212167D01*
Y211500D01*
X45670D02*
X44338D01*
X45004D01*
Y215499D01*
X45670Y214832D01*
X160334Y293832D02*
X161001Y294499D01*
X162334D01*
X163000Y293832D01*
Y291166D01*
X162334Y290500D01*
X161001D01*
X160334Y291166D01*
X159001Y290500D02*
X157668D01*
X158335D01*
Y294499D01*
X159001Y293832D01*
X153003Y294499D02*
X154336Y293832D01*
X155669Y292499D01*
Y291166D01*
X155003Y290500D01*
X153670D01*
X153003Y291166D01*
Y291833D01*
X153670Y292499D01*
X155669D01*
X151670Y293832D02*
X151004Y294499D01*
X149671D01*
X149005Y293832D01*
Y293166D01*
X149671Y292499D01*
X150337D01*
X149671D01*
X149005Y291833D01*
Y291166D01*
X149671Y290500D01*
X151004D01*
X151670Y291166D01*
X61000Y42000D02*
Y45999D01*
X59001D01*
X58334Y45332D01*
Y43999D01*
X59001Y43333D01*
X61000D01*
X59667D02*
X58334Y42000D01*
X57001D02*
X55668D01*
X56335D01*
Y45999D01*
X57001Y45332D01*
X53669D02*
X53003Y45999D01*
X51670D01*
X51003Y45332D01*
Y42666D01*
X51670Y42000D01*
X53003D01*
X53669Y42666D01*
Y45332D01*
X47005Y45999D02*
X49670D01*
Y43999D01*
X48337Y44666D01*
X47671D01*
X47005Y43999D01*
Y42666D01*
X47671Y42000D01*
X49004D01*
X49670Y42666D01*
X18750Y42000D02*
Y45999D01*
X16751D01*
X16084Y45332D01*
Y43999D01*
X16751Y43333D01*
X18750D01*
X17417D02*
X16084Y42000D01*
X14751D02*
X13418D01*
X14085D01*
Y45999D01*
X14751Y45332D01*
X11419D02*
X10753Y45999D01*
X9420D01*
X8753Y45332D01*
Y42666D01*
X9420Y42000D01*
X10753D01*
X11419Y42666D01*
Y45332D01*
X5421Y42000D02*
Y45999D01*
X7420Y43999D01*
X4755D01*
X343000Y17500D02*
X346999D01*
Y19499D01*
X346332Y20166D01*
X344999D01*
X344333Y19499D01*
Y17500D01*
Y18833D02*
X343000Y20166D01*
Y23498D02*
X346999D01*
X344999Y21499D01*
Y24165D01*
X325750Y11750D02*
X329749D01*
Y13749D01*
X329082Y14416D01*
X327749D01*
X327083Y13749D01*
Y11750D01*
Y13083D02*
X325750Y14416D01*
X329082Y15749D02*
X329749Y16415D01*
Y17748D01*
X329082Y18414D01*
X328416D01*
X327749Y17748D01*
Y17082D01*
Y17748D01*
X327083Y18414D01*
X326416D01*
X325750Y17748D01*
Y16415D01*
X326416Y15749D01*
X232000Y221500D02*
X235999D01*
Y223499D01*
X235332Y224166D01*
X233999D01*
X233333Y223499D01*
Y221500D01*
Y222833D02*
X232000Y224166D01*
Y225499D02*
Y226832D01*
Y226165D01*
X235999D01*
X235332Y225499D01*
Y228831D02*
X235999Y229497D01*
Y230830D01*
X235332Y231497D01*
X234666D01*
X233999Y230830D01*
Y230164D01*
Y230830D01*
X233333Y231497D01*
X232666D01*
X232000Y230830D01*
Y229497D01*
X232666Y228831D01*
X182000Y223748D02*
X180667D01*
X181334D01*
Y219750D01*
X182000D01*
X180667D01*
X176002Y223082D02*
X176668Y223748D01*
X178001D01*
X178668Y223082D01*
Y220416D01*
X178001Y219750D01*
X176668D01*
X176002Y220416D01*
X174669D02*
X174003Y219750D01*
X172670D01*
X172003Y220416D01*
Y223082D01*
X172670Y223748D01*
X174003D01*
X174669Y223082D01*
Y222416D01*
X174003Y221749D01*
X172003D01*
X214332Y249416D02*
X214999Y248749D01*
Y247416D01*
X214332Y246750D01*
X211667D01*
X211000Y247416D01*
Y248749D01*
X211667Y249416D01*
X211000Y250749D02*
Y252082D01*
Y251415D01*
X214999D01*
X214332Y250749D01*
X214999Y256747D02*
Y254081D01*
X212999D01*
X213666Y255414D01*
Y256080D01*
X212999Y256747D01*
X211667D01*
X211000Y256080D01*
Y254747D01*
X211667Y254081D01*
X214999Y258080D02*
Y260746D01*
X214332D01*
X211667Y258080D01*
X211000D01*
X141332Y257166D02*
X141999Y256499D01*
Y255166D01*
X141332Y254500D01*
X138666D01*
X138000Y255166D01*
Y256499D01*
X138666Y257166D01*
X138000Y258499D02*
Y259832D01*
Y259165D01*
X141999D01*
X141332Y258499D01*
X141999Y264497D02*
Y261831D01*
X139999D01*
X140666Y263164D01*
Y263830D01*
X139999Y264497D01*
X138666D01*
X138000Y263830D01*
Y262497D01*
X138666Y261831D01*
Y265830D02*
X138000Y266496D01*
Y267829D01*
X138666Y268495D01*
X141332D01*
X141999Y267829D01*
Y266496D01*
X141332Y265830D01*
X140666D01*
X139999Y266496D01*
Y268495D01*
X168334Y246082D02*
X169001Y246749D01*
X170333D01*
X171000Y246082D01*
Y243416D01*
X170333Y242750D01*
X169001D01*
X168334Y243416D01*
X167001Y242750D02*
X165668D01*
X166335D01*
Y246749D01*
X167001Y246082D01*
X163669Y246749D02*
X161003D01*
Y246082D01*
X163669Y243416D01*
Y242750D01*
X157671D02*
Y246749D01*
X159670Y244749D01*
X157004D01*
X210832Y197916D02*
X211499Y197249D01*
Y195916D01*
X210832Y195250D01*
X208166D01*
X207500Y195916D01*
Y197249D01*
X208166Y197916D01*
X207500Y199249D02*
Y200582D01*
Y199915D01*
X211499D01*
X210832Y199249D01*
X211499Y202581D02*
Y205247D01*
X210832D01*
X208166Y202581D01*
X207500D01*
X210832Y206580D02*
X211499Y207246D01*
Y208579D01*
X210832Y209245D01*
X210166D01*
X209499Y208579D01*
Y207913D01*
Y208579D01*
X208833Y209245D01*
X208166D01*
X207500Y208579D01*
Y207246D01*
X208166Y206580D01*
X148250Y247500D02*
X152249D01*
Y249499D01*
X151582Y250166D01*
X150249D01*
X149583Y249499D01*
Y247500D01*
Y248833D02*
X148250Y250166D01*
X152249Y254164D02*
X151582Y252831D01*
X150249Y251499D01*
X148916D01*
X148250Y252165D01*
Y253498D01*
X148916Y254164D01*
X149583D01*
X150249Y253498D01*
Y251499D01*
X148250Y258163D02*
Y255497D01*
X150916Y258163D01*
X151582D01*
X152249Y257497D01*
Y256164D01*
X151582Y255497D01*
X194750Y220250D02*
X198749D01*
Y222249D01*
X198082Y222916D01*
X196749D01*
X196083Y222249D01*
Y220250D01*
Y221583D02*
X194750Y222916D01*
X198749Y226915D02*
Y224249D01*
X196749D01*
X197416Y225582D01*
Y226248D01*
X196749Y226915D01*
X195416D01*
X194750Y226248D01*
Y224915D01*
X195416Y224249D01*
X198749Y230913D02*
X198082Y229580D01*
X196749Y228247D01*
X195416D01*
X194750Y228914D01*
Y230247D01*
X195416Y230913D01*
X196083D01*
X196749Y230247D01*
Y228247D01*
X200750Y197750D02*
X204749D01*
Y199749D01*
X204082Y200416D01*
X202749D01*
X202083Y199749D01*
Y197750D01*
Y199083D02*
X200750Y200416D01*
X204749Y204415D02*
X204082Y203082D01*
X202749Y201749D01*
X201416D01*
X200750Y202415D01*
Y203748D01*
X201416Y204415D01*
X202083D01*
X202749Y203748D01*
Y201749D01*
X204082Y205747D02*
X204749Y206414D01*
Y207747D01*
X204082Y208413D01*
X203416D01*
X202749Y207747D01*
Y207080D01*
Y207747D01*
X202083Y208413D01*
X201416D01*
X200750Y207747D01*
Y206414D01*
X201416Y205747D01*
X159584Y284999D02*
X162250D01*
Y282999D01*
X160917D01*
X162250D01*
Y281000D01*
X158251D02*
Y284999D01*
X156252D01*
X155585Y284332D01*
Y282999D01*
X156252Y282333D01*
X158251D01*
X156918D02*
X155585Y281000D01*
X154253Y284332D02*
X153586Y284999D01*
X152253D01*
X151587Y284332D01*
Y283666D01*
X152253Y282999D01*
X152920D01*
X152253D01*
X151587Y282333D01*
Y281666D01*
X152253Y281000D01*
X153586D01*
X154253Y281666D01*
X150254D02*
X149587Y281000D01*
X148254D01*
X147588Y281666D01*
Y284332D01*
X148254Y284999D01*
X149587D01*
X150254Y284332D01*
Y283666D01*
X149587Y282999D01*
X147588D01*
X27499Y177500D02*
Y178833D01*
Y178166D01*
X23500D01*
Y177500D01*
Y178833D01*
X26832Y183498D02*
X27499Y182832D01*
Y181499D01*
X26832Y180832D01*
X24166D01*
X23500Y181499D01*
Y182832D01*
X24166Y183498D01*
X23500Y184831D02*
Y186164D01*
Y185497D01*
X27499D01*
X26832Y184831D01*
X23500Y188163D02*
Y189496D01*
Y188830D01*
X27499D01*
X26832Y188163D01*
X34084Y149582D02*
X34751Y150249D01*
X36084D01*
X36750Y149582D01*
Y146916D01*
X36084Y146250D01*
X34751D01*
X34084Y146916D01*
X32751Y146250D02*
X31418D01*
X32085D01*
Y150249D01*
X32751Y149582D01*
X26753Y150249D02*
X28086Y149582D01*
X29419Y148249D01*
Y146916D01*
X28753Y146250D01*
X27420D01*
X26753Y146916D01*
Y147583D01*
X27420Y148249D01*
X29419D01*
X23421Y146250D02*
Y150249D01*
X25420Y148249D01*
X22754D01*
X65009Y203721D02*
Y204664D01*
X65951Y205606D01*
X66894D01*
X68779Y203721D01*
Y202779D01*
X67836Y201836D01*
X66894D01*
X66423Y200422D02*
X65480Y199480D01*
X65951Y199951D01*
X63124Y202779D01*
X64066D01*
X59354Y199009D02*
X60767Y199480D01*
X62653D01*
X63595Y198538D01*
Y197595D01*
X62653Y196653D01*
X61710D01*
X61239Y197124D01*
X61239Y198066D01*
X62653Y199480D01*
X58882Y197595D02*
X57940D01*
X56997Y196653D01*
Y195710D01*
X57469Y195239D01*
X58411D01*
X58411Y194296D01*
X58882Y193825D01*
X59825D01*
X60767Y194767D01*
Y195710D01*
X60296Y196181D01*
X59354Y196181D01*
Y197124D01*
X58882Y197595D01*
X59354Y196181D02*
X58411Y195239D01*
X80334Y171832D02*
X81001Y172499D01*
X82334D01*
X83000Y171832D01*
Y169167D01*
X82334Y168500D01*
X81001D01*
X80334Y169167D01*
X79001Y168500D02*
X77668D01*
X78335D01*
Y172499D01*
X79001Y171832D01*
X73003Y172499D02*
X74336Y171832D01*
X75669Y170499D01*
Y169167D01*
X75003Y168500D01*
X73670D01*
X73003Y169167D01*
Y169833D01*
X73670Y170499D01*
X75669D01*
X71670Y169167D02*
X71004Y168500D01*
X69671D01*
X69005Y169167D01*
Y171832D01*
X69671Y172499D01*
X71004D01*
X71670Y171832D01*
Y171166D01*
X71004Y170499D01*
X69005D01*
X14250Y199250D02*
X18249D01*
Y201249D01*
X17582Y201916D01*
X16249D01*
X15583Y201249D01*
Y199250D01*
Y200583D02*
X14250Y201916D01*
X18249Y205914D02*
Y203249D01*
X16249D01*
X16916Y204582D01*
Y205248D01*
X16249Y205914D01*
X14916D01*
X14250Y205248D01*
Y203915D01*
X14916Y203249D01*
X17582Y207247D02*
X18249Y207914D01*
Y209247D01*
X17582Y209913D01*
X16916D01*
X16249Y209247D01*
X15583Y209913D01*
X14916D01*
X14250Y209247D01*
Y207914D01*
X14916Y207247D01*
X15583D01*
X16249Y207914D01*
X16916Y207247D01*
X17582D01*
X16249Y207914D02*
Y209247D01*
X21084Y214832D02*
X21751Y215499D01*
X23084D01*
X23750Y214832D01*
Y212167D01*
X23084Y211500D01*
X21751D01*
X21084Y212167D01*
X19751Y211500D02*
X18418D01*
X19085D01*
Y215499D01*
X19751Y214832D01*
X16419Y215499D02*
X13753D01*
Y214832D01*
X16419Y212167D01*
Y211500D01*
X9754D02*
X12420D01*
X9754Y214166D01*
Y214832D01*
X10421Y215499D01*
X11754D01*
X12420Y214832D01*
X54971Y171491D02*
X55914D01*
X56856Y170549D01*
Y169606D01*
X54971Y167721D01*
X54029D01*
X53086Y168664D01*
Y169606D01*
X51673Y170077D02*
X50730Y171020D01*
X51201Y170549D01*
X54029Y173376D01*
Y172434D01*
X51673Y174790D02*
Y175732D01*
X50730Y176675D01*
X49788D01*
X47902Y174790D01*
Y173848D01*
X48845Y172905D01*
X49788D01*
X51673Y174790D01*
X49316Y178089D02*
X47431Y179974D01*
X46960Y179503D01*
Y175732D01*
X46489Y175261D01*
X60721Y150741D02*
X61664D01*
X62606Y149799D01*
Y148856D01*
X60721Y146971D01*
X59779D01*
X58836Y147914D01*
Y148856D01*
X57422Y149327D02*
X56480Y150270D01*
X56951Y149799D01*
X59779Y152626D01*
Y151684D01*
X57422Y154040D02*
Y154983D01*
X56480Y155925D01*
X55538D01*
X53653Y154040D01*
Y153097D01*
X54595Y152155D01*
X55538D01*
X57422Y154040D01*
X54595Y156868D02*
Y157810D01*
X53653Y158752D01*
X52710D01*
X52239Y158281D01*
Y157339D01*
X51296Y157339D01*
X50825Y156868D01*
Y155925D01*
X51768Y154983D01*
X52710D01*
X53181Y155454D01*
X53181Y156396D01*
X54124D01*
X54595Y156868D01*
X53181Y156396D02*
X52239Y157339D01*
X414750Y164750D02*
Y168749D01*
X412751D01*
X412084Y168082D01*
Y166749D01*
X412751Y166083D01*
X414750D01*
X413417D02*
X412084Y164750D01*
X408086D02*
X410751D01*
X408086Y167416D01*
Y168082D01*
X408752Y168749D01*
X410085D01*
X410751Y168082D01*
X404087Y164750D02*
X406753D01*
X404087Y167416D01*
Y168082D01*
X404753Y168749D01*
X406086D01*
X406753Y168082D01*
X439750Y185500D02*
Y189499D01*
X437751D01*
X437084Y188832D01*
Y187499D01*
X437751Y186833D01*
X439750D01*
X438417D02*
X437084Y185500D01*
X433086D02*
X435751D01*
X433086Y188166D01*
Y188832D01*
X433752Y189499D01*
X435085D01*
X435751Y188832D01*
X429087Y189499D02*
X431753D01*
Y187499D01*
X430420Y188166D01*
X429753D01*
X429087Y187499D01*
Y186166D01*
X429753Y185500D01*
X431086D01*
X431753Y186166D01*
X414500Y171000D02*
Y174999D01*
X412501D01*
X411834Y174332D01*
Y172999D01*
X412501Y172333D01*
X414500D01*
X413167D02*
X411834Y171000D01*
X407836D02*
X410501D01*
X407836Y173666D01*
Y174332D01*
X408502Y174999D01*
X409835D01*
X410501Y174332D01*
X406503D02*
X405836Y174999D01*
X404503D01*
X403837Y174332D01*
Y173666D01*
X404503Y172999D01*
X405170D01*
X404503D01*
X403837Y172333D01*
Y171666D01*
X404503Y171000D01*
X405836D01*
X406503Y171666D01*
X70009Y188221D02*
Y189164D01*
X70951Y190106D01*
X71894D01*
X73779Y188221D01*
Y187279D01*
X72836Y186336D01*
X71894D01*
X71423Y184923D02*
X70480Y183980D01*
X70951Y184451D01*
X68124Y187279D01*
X69066D01*
X64354Y183509D02*
X66239Y185394D01*
X67653Y183980D01*
X66239Y183509D01*
X65767Y183037D01*
Y182095D01*
X66710Y181152D01*
X67653D01*
X68595Y182095D01*
Y183037D01*
X61526Y180681D02*
X63411Y182566D01*
X64825Y181152D01*
X63411Y180681D01*
X62940Y180210D01*
Y179268D01*
X63882Y178325D01*
X64825D01*
X65767Y179268D01*
Y180210D01*
X152584Y96082D02*
X153251Y96749D01*
X154584D01*
X155250Y96082D01*
Y93417D01*
X154584Y92750D01*
X153251D01*
X152584Y93417D01*
X151251Y92750D02*
X149918D01*
X150585D01*
Y96749D01*
X151251Y96082D01*
X147919D02*
X147253Y96749D01*
X145920D01*
X145253Y96082D01*
Y95416D01*
X145920Y94749D01*
X146586D01*
X145920D01*
X145253Y94083D01*
Y93417D01*
X145920Y92750D01*
X147253D01*
X147919Y93417D01*
X141921Y92750D02*
Y96749D01*
X143920Y94749D01*
X141255D01*
X142084Y70832D02*
X142751Y71499D01*
X144084D01*
X144750Y70832D01*
Y68166D01*
X144084Y67500D01*
X142751D01*
X142084Y68166D01*
X140751Y67500D02*
X139418D01*
X140085D01*
Y71499D01*
X140751Y70832D01*
X135420Y67500D02*
Y71499D01*
X137419Y69499D01*
X134753D01*
X133420Y67500D02*
X132087D01*
X132754D01*
Y71499D01*
X133420Y70832D01*
X136721Y208241D02*
X137664D01*
X138606Y207299D01*
Y206356D01*
X136721Y204471D01*
X135779D01*
X134836Y205414D01*
Y206356D01*
X133422Y206828D02*
X132480Y207770D01*
X132951Y207299D01*
X135779Y210126D01*
Y209184D01*
X129653Y210597D02*
X132480Y213425D01*
X132480Y210597D01*
X130595Y212482D01*
X131066Y214839D02*
X129181Y216724D01*
X128710Y216252D01*
Y212482D01*
X128239Y212011D01*
X85334Y212582D02*
X86001Y213249D01*
X87334D01*
X88000Y212582D01*
Y209916D01*
X87334Y209250D01*
X86001D01*
X85334Y209916D01*
X84001Y209250D02*
X82668D01*
X83335D01*
Y213249D01*
X84001Y212582D01*
X78670Y209250D02*
Y213249D01*
X80669Y211249D01*
X78003D01*
X74005Y209250D02*
X76670D01*
X74005Y211916D01*
Y212582D01*
X74671Y213249D01*
X76004D01*
X76670Y212582D01*
X108509Y228221D02*
Y229164D01*
X109451Y230106D01*
X110394D01*
X112279Y228221D01*
Y227279D01*
X111336Y226336D01*
X110394D01*
X109923Y224923D02*
X108980Y223980D01*
X109451Y224451D01*
X106624Y227279D01*
X107566D01*
X106152Y221152D02*
X103325Y223980D01*
X106152Y223980D01*
X104268Y222095D01*
X102382D02*
X101440D01*
X100498Y221152D01*
Y220210D01*
X100969Y219739D01*
X101911D01*
X102382Y220210D01*
X101911Y219739D01*
X101911Y218796D01*
X102382Y218325D01*
X103325D01*
X104268Y219268D01*
Y220210D01*
X82584Y227832D02*
X83251Y228499D01*
X84584D01*
X85250Y227832D01*
Y225166D01*
X84584Y224500D01*
X83251D01*
X82584Y225166D01*
X81251Y224500D02*
X79918D01*
X80585D01*
Y228499D01*
X81251Y227832D01*
X75253Y228499D02*
X77919D01*
Y226499D01*
X76586Y227166D01*
X75920D01*
X75253Y226499D01*
Y225166D01*
X75920Y224500D01*
X77253D01*
X77919Y225166D01*
X71921Y224500D02*
Y228499D01*
X73920Y226499D01*
X71255D01*
X22084Y292832D02*
X22751Y293499D01*
X24083D01*
X24750Y292832D01*
Y290166D01*
X24083Y289500D01*
X22751D01*
X22084Y290166D01*
X20751Y289500D02*
X19418D01*
X20085D01*
Y293499D01*
X20751Y292832D01*
X17419D02*
X16753Y293499D01*
X15420D01*
X14753Y292832D01*
Y292166D01*
X15420Y291499D01*
X14753Y290833D01*
Y290166D01*
X15420Y289500D01*
X16753D01*
X17419Y290166D01*
Y290833D01*
X16753Y291499D01*
X17419Y292166D01*
Y292832D01*
X16753Y291499D02*
X15420D01*
X13420Y292832D02*
X12754Y293499D01*
X11421D01*
X10754Y292832D01*
Y290166D01*
X11421Y289500D01*
X12754D01*
X13420Y290166D01*
Y292832D01*
X317834Y267582D02*
X318501Y268249D01*
X319834D01*
X320500Y267582D01*
Y264916D01*
X319834Y264250D01*
X318501D01*
X317834Y264916D01*
X316501Y264250D02*
X315168D01*
X315835D01*
Y268249D01*
X316501Y267582D01*
X313169Y268249D02*
X310503D01*
Y267582D01*
X313169Y264916D01*
Y264250D01*
X390834Y173582D02*
X391501Y174249D01*
X392834D01*
X393500Y173582D01*
Y170916D01*
X392834Y170250D01*
X391501D01*
X390834Y170916D01*
X389501Y170250D02*
X388168D01*
X388835D01*
Y174249D01*
X389501Y173582D01*
X383503Y174249D02*
X386169D01*
Y172249D01*
X384836Y172916D01*
X384170D01*
X383503Y172249D01*
Y170916D01*
X384170Y170250D01*
X385503D01*
X386169Y170916D01*
X400332Y168416D02*
X400999Y167749D01*
Y166416D01*
X400332Y165750D01*
X397666D01*
X397000Y166416D01*
Y167749D01*
X397666Y168416D01*
X397000Y169749D02*
Y171082D01*
Y170415D01*
X400999D01*
X400332Y169749D01*
X397000Y173081D02*
Y174414D01*
Y173747D01*
X400999D01*
X400332Y173081D01*
X318084Y260582D02*
X318751Y261249D01*
X320084D01*
X320750Y260582D01*
Y257917D01*
X320084Y257250D01*
X318751D01*
X318084Y257917D01*
X316751Y257250D02*
X315418D01*
X316085D01*
Y261249D01*
X316751Y260582D01*
X311420Y257250D02*
Y261249D01*
X313419Y259249D01*
X310753D01*
X388332Y235916D02*
X388999Y235249D01*
Y233916D01*
X388332Y233250D01*
X385666D01*
X385000Y233916D01*
Y235249D01*
X385666Y235916D01*
X385000Y237249D02*
Y238582D01*
Y237915D01*
X388999D01*
X388332Y237249D01*
X385000Y243247D02*
Y240581D01*
X387666Y243247D01*
X388332D01*
X388999Y242580D01*
Y241247D01*
X388332Y240581D01*
X395582Y235916D02*
X396249Y235249D01*
Y233916D01*
X395582Y233250D01*
X392916D01*
X392250Y233916D01*
Y235249D01*
X392916Y235916D01*
X392250Y237249D02*
Y238582D01*
Y237915D01*
X396249D01*
X395582Y237249D01*
X396249Y243247D02*
X395582Y241914D01*
X394249Y240581D01*
X392916D01*
X392250Y241247D01*
Y242580D01*
X392916Y243247D01*
X393583D01*
X394249Y242580D01*
Y240581D01*
X372334Y245082D02*
X373001Y245749D01*
X374334D01*
X375000Y245082D01*
Y242416D01*
X374334Y241750D01*
X373001D01*
X372334Y242416D01*
X371001Y241750D02*
X369668D01*
X370335D01*
Y245749D01*
X371001Y245082D01*
X367669D02*
X367003Y245749D01*
X365670D01*
X365003Y245082D01*
Y242416D01*
X365670Y241750D01*
X367003D01*
X367669Y242416D01*
Y245082D01*
X383082Y180416D02*
X383749Y179749D01*
Y178416D01*
X383082Y177750D01*
X380416D01*
X379750Y178416D01*
Y179749D01*
X380416Y180416D01*
Y181749D02*
X379750Y182415D01*
Y183748D01*
X380416Y184415D01*
X383082D01*
X383749Y183748D01*
Y182415D01*
X383082Y181749D01*
X382416D01*
X381749Y182415D01*
Y184415D01*
X369584Y238832D02*
X370251Y239499D01*
X371584D01*
X372250Y238832D01*
Y236166D01*
X371584Y235500D01*
X370251D01*
X369584Y236166D01*
X368251Y239499D02*
X365586D01*
Y238832D01*
X368251Y236166D01*
Y235500D01*
X369332Y180916D02*
X369999Y180249D01*
Y178916D01*
X369332Y178250D01*
X366666D01*
X366000Y178916D01*
Y180249D01*
X366666Y180916D01*
X369999Y184914D02*
Y182249D01*
X367999D01*
X368666Y183582D01*
Y184248D01*
X367999Y184914D01*
X366666D01*
X366000Y184248D01*
Y182915D01*
X366666Y182249D01*
X321584Y251332D02*
X322251Y251999D01*
X323584D01*
X324250Y251332D01*
Y248666D01*
X323584Y248000D01*
X322251D01*
X321584Y248666D01*
X320251Y251332D02*
X319585Y251999D01*
X318252D01*
X317586Y251332D01*
Y250666D01*
X318252Y249999D01*
X317586Y249333D01*
Y248666D01*
X318252Y248000D01*
X319585D01*
X320251Y248666D01*
Y249333D01*
X319585Y249999D01*
X320251Y250666D01*
Y251332D01*
X319585Y249999D02*
X318252D01*
X376332Y229916D02*
X376999Y229249D01*
Y227916D01*
X376332Y227250D01*
X373666D01*
X373000Y227916D01*
Y229249D01*
X373666Y229916D01*
X376999Y233915D02*
X376332Y232582D01*
X374999Y231249D01*
X373666D01*
X373000Y231915D01*
Y233248D01*
X373666Y233915D01*
X374333D01*
X374999Y233248D01*
Y231249D01*
X315332Y226166D02*
X315999Y225499D01*
Y224167D01*
X315332Y223500D01*
X312666D01*
X312000Y224167D01*
Y225499D01*
X312666Y226166D01*
X312000Y229498D02*
X315999D01*
X313999Y227499D01*
Y230165D01*
X369582Y229666D02*
X370249Y228999D01*
Y227666D01*
X369582Y227000D01*
X366916D01*
X366250Y227666D01*
Y228999D01*
X366916Y229666D01*
X369582Y230999D02*
X370249Y231665D01*
Y232998D01*
X369582Y233664D01*
X368916D01*
X368249Y232998D01*
Y232332D01*
Y232998D01*
X367583Y233664D01*
X366916D01*
X366250Y232998D01*
Y231665D01*
X366916Y230999D01*
X221334Y208582D02*
X222001Y209249D01*
X223334D01*
X224000Y208582D01*
Y205917D01*
X223334Y205250D01*
X222001D01*
X221334Y205917D01*
X217335Y205250D02*
X220001D01*
X217335Y207916D01*
Y208582D01*
X218002Y209249D01*
X219335D01*
X220001Y208582D01*
X77584Y242332D02*
X78251Y242999D01*
X79584D01*
X80250Y242332D01*
Y239666D01*
X79584Y239000D01*
X78251D01*
X77584Y239666D01*
X76251Y239000D02*
X74918D01*
X75585D01*
Y242999D01*
X76251Y242332D01*
X70253Y242999D02*
X71586Y242332D01*
X72919Y240999D01*
Y239666D01*
X72253Y239000D01*
X70920D01*
X70253Y239666D01*
Y240333D01*
X70920Y240999D01*
X72919D01*
X66255Y239000D02*
X68920D01*
X66255Y241666D01*
Y242332D01*
X66921Y242999D01*
X68254D01*
X68920Y242332D01*
X147334Y227082D02*
X148001Y227749D01*
X149334D01*
X150000Y227082D01*
Y224416D01*
X149334Y223750D01*
X148001D01*
X147334Y224416D01*
X146001Y223750D02*
X144668D01*
X145335D01*
Y227749D01*
X146001Y227082D01*
X140003Y227749D02*
X141336Y227082D01*
X142669Y225749D01*
Y224416D01*
X142003Y223750D01*
X140670D01*
X140003Y224416D01*
Y225083D01*
X140670Y225749D01*
X142669D01*
X138670Y223750D02*
X137338D01*
X138004D01*
Y227749D01*
X138670Y227082D01*
X192000Y161750D02*
X195999D01*
Y163749D01*
X195332Y164416D01*
X193999D01*
X193333Y163749D01*
Y161750D01*
Y163083D02*
X192000Y164416D01*
X195332Y165749D02*
X195999Y166415D01*
Y167748D01*
X195332Y168414D01*
X194666D01*
X193999Y167748D01*
X193333Y168414D01*
X192666D01*
X192000Y167748D01*
Y166415D01*
X192666Y165749D01*
X193333D01*
X193999Y166415D01*
X194666Y165749D01*
X195332D01*
X193999Y166415D02*
Y167748D01*
X199250Y167250D02*
X203249D01*
Y169249D01*
X202582Y169916D01*
X201249D01*
X200583Y169249D01*
Y167250D01*
Y168583D02*
X199250Y169916D01*
X199916Y171249D02*
X199250Y171915D01*
Y173248D01*
X199916Y173915D01*
X202582D01*
X203249Y173248D01*
Y171915D01*
X202582Y171249D01*
X201916D01*
X201249Y171915D01*
Y173915D01*
X363000Y249250D02*
Y253249D01*
X361001D01*
X360334Y252582D01*
Y251249D01*
X361001Y250583D01*
X363000D01*
X361667D02*
X360334Y249250D01*
X356335D02*
X359001D01*
X356335Y251916D01*
Y252582D01*
X357002Y253249D01*
X358335D01*
X359001Y252582D01*
X353003Y249250D02*
Y253249D01*
X355003Y251249D01*
X352337D01*
X191832Y67916D02*
X192499Y67249D01*
Y65916D01*
X191832Y65250D01*
X189166D01*
X188500Y65916D01*
Y67249D01*
X189166Y67916D01*
X192499Y71915D02*
X191832Y70582D01*
X190499Y69249D01*
X189166D01*
X188500Y69915D01*
Y71248D01*
X189166Y71915D01*
X189833D01*
X190499Y71248D01*
Y69249D01*
X188500Y75247D02*
X192499D01*
X190499Y73247D01*
Y75913D01*
X203084Y62499D02*
X205750D01*
Y60499D01*
X204417D01*
X205750D01*
Y58500D01*
X201751D02*
Y62499D01*
X199752D01*
X199086Y61832D01*
Y60499D01*
X199752Y59833D01*
X201751D01*
X200418D02*
X199086Y58500D01*
X197753D02*
X196420D01*
X197086D01*
Y62499D01*
X197753Y61832D01*
X191755Y62499D02*
X193088Y61832D01*
X194420Y60499D01*
Y59166D01*
X193754Y58500D01*
X192421D01*
X191755Y59166D01*
Y59833D01*
X192421Y60499D01*
X194420D01*
X187000Y64750D02*
Y68749D01*
X185001D01*
X184334Y68082D01*
Y66749D01*
X185001Y66083D01*
X187000D01*
X185667D02*
X184334Y64750D01*
X180336D02*
X183001D01*
X180336Y67416D01*
Y68082D01*
X181002Y68749D01*
X182335D01*
X183001Y68082D01*
X179003D02*
X178336Y68749D01*
X177003D01*
X176337Y68082D01*
Y67416D01*
X177003Y66749D01*
X176337Y66083D01*
Y65416D01*
X177003Y64750D01*
X178336D01*
X179003Y65416D01*
Y66083D01*
X178336Y66749D01*
X179003Y67416D01*
Y68082D01*
X178336Y66749D02*
X177003D01*
X75834Y50332D02*
X76501Y50999D01*
X77834D01*
X78500Y50332D01*
Y47667D01*
X77834Y47000D01*
X76501D01*
X75834Y47667D01*
X74501Y47000D02*
X73168D01*
X73835D01*
Y50999D01*
X74501Y50332D01*
X71169D02*
X70503Y50999D01*
X69170D01*
X68503Y50332D01*
Y49666D01*
X69170Y48999D01*
X68503Y48333D01*
Y47667D01*
X69170Y47000D01*
X70503D01*
X71169Y47667D01*
Y48333D01*
X70503Y48999D01*
X71169Y49666D01*
Y50332D01*
X70503Y48999D02*
X69170D01*
X67170Y50332D02*
X66504Y50999D01*
X65171D01*
X64504Y50332D01*
Y49666D01*
X65171Y48999D01*
X65837D01*
X65171D01*
X64504Y48333D01*
Y47667D01*
X65171Y47000D01*
X66504D01*
X67170Y47667D01*
X422999Y198250D02*
Y200916D01*
Y199583D01*
X419000D01*
Y202249D02*
Y203582D01*
Y202915D01*
X422999D01*
X422332Y202249D01*
X46750Y30499D02*
X45417D01*
X46084D01*
Y26500D01*
X46750D01*
X45417D01*
X40752Y29832D02*
X41418Y30499D01*
X42751D01*
X43418Y29832D01*
Y27166D01*
X42751Y26500D01*
X41418D01*
X40752Y27166D01*
X36753Y26500D02*
X39419D01*
X36753Y29166D01*
Y29832D01*
X37420Y30499D01*
X38753D01*
X39419Y29832D01*
X35420D02*
X34754Y30499D01*
X33421D01*
X32754Y29832D01*
Y27166D01*
X33421Y26500D01*
X34754D01*
X35420Y27166D01*
Y29832D01*
X465082Y166916D02*
X465749Y166250D01*
Y164917D01*
X465082Y164250D01*
X462416D01*
X461750Y164917D01*
Y166250D01*
X462416Y166916D01*
X461750Y168915D02*
Y170248D01*
X462416Y170915D01*
X463749D01*
X464416Y170248D01*
Y168915D01*
X463749Y168249D01*
X462416D01*
X461750Y168915D01*
Y172248D02*
X464416D01*
Y174247D01*
X463749Y174913D01*
X461750D01*
Y176246D02*
X464416D01*
Y178246D01*
X463749Y178912D01*
X461750D01*
Y182244D02*
Y180911D01*
X462416Y180245D01*
X463749D01*
X464416Y180911D01*
Y182244D01*
X463749Y182911D01*
X463083D01*
Y180245D01*
X464416Y186909D02*
Y184910D01*
X463749Y184244D01*
X462416D01*
X461750Y184910D01*
Y186909D01*
X465082Y188909D02*
X464416D01*
Y188242D01*
Y189575D01*
Y188909D01*
X462416D01*
X461750Y189575D01*
Y192241D02*
Y193574D01*
X462416Y194240D01*
X463749D01*
X464416Y193574D01*
Y192241D01*
X463749Y191575D01*
X462416D01*
X461750Y192241D01*
X464416Y195573D02*
X461750D01*
X463083D01*
X463749Y196240D01*
X464416Y196906D01*
Y197573D01*
X461750Y203571D02*
Y204904D01*
Y204237D01*
X464416D01*
Y203571D01*
X461750Y206903D02*
X464416D01*
Y208902D01*
X463749Y209569D01*
X461750D01*
X460417Y210902D02*
X464416D01*
Y212901D01*
X463749Y213567D01*
X462416D01*
X461750Y212901D01*
Y210902D01*
X464416Y214900D02*
X462416D01*
X461750Y215567D01*
Y217566D01*
X464416D01*
X465082Y219565D02*
X464416D01*
Y218899D01*
Y220232D01*
Y219565D01*
X462416D01*
X461750Y220232D01*
X449250Y184499D02*
X446584Y180500D01*
Y184499D02*
X449250Y180500D01*
X445251D02*
X443918D01*
X444585D01*
Y184499D01*
X445251Y183832D01*
X441919D02*
X441253Y184499D01*
X439920D01*
X439253Y183832D01*
Y183166D01*
X439920Y182500D01*
X440586D01*
X439920D01*
X439253Y181833D01*
Y181167D01*
X439920Y180500D01*
X441253D01*
X441919Y181167D01*
X419250Y233749D02*
X417917D01*
X418584D01*
Y229750D01*
X419250D01*
X417917D01*
X413252Y233082D02*
X413918Y233749D01*
X415251D01*
X415918Y233082D01*
Y230417D01*
X415251Y229750D01*
X413918D01*
X413252Y230417D01*
X409253Y233749D02*
X411919D01*
Y231749D01*
X410586Y232416D01*
X409920D01*
X409253Y231749D01*
Y230417D01*
X409920Y229750D01*
X411253D01*
X411919Y230417D01*
X330000Y285249D02*
X327334D01*
X328667D01*
Y281250D01*
X323335D02*
X326001D01*
X323335Y283916D01*
Y284582D01*
X324002Y285249D01*
X325335D01*
X326001Y284582D01*
X212250Y127250D02*
Y131249D01*
X210251D01*
X209584Y130582D01*
Y129249D01*
X210251Y128583D01*
X212250D01*
X210917D02*
X209584Y127250D01*
X205585D02*
X208251D01*
X205585Y129916D01*
Y130582D01*
X206252Y131249D01*
X207585D01*
X208251Y130582D01*
X228750Y249750D02*
X232749D01*
Y251749D01*
X232082Y252416D01*
X230749D01*
X230083Y251749D01*
Y249750D01*
Y251083D02*
X228750Y252416D01*
X232082Y253749D02*
X232749Y254415D01*
Y255748D01*
X232082Y256415D01*
X231416D01*
X230749Y255748D01*
X230083Y256415D01*
X229417D01*
X228750Y255748D01*
Y254415D01*
X229417Y253749D01*
X230083D01*
X230749Y254415D01*
X231416Y253749D01*
X232082D01*
X230749Y254415D02*
Y255748D01*
X228750Y257747D02*
Y259080D01*
Y258414D01*
X232749D01*
X232082Y257747D01*
X0Y261761D02*
Y265760D01*
X-1999D01*
X-2666Y265093D01*
Y263760D01*
X-1999Y263094D01*
X0D01*
X-1333D02*
X-2666Y261761D01*
X-3999Y265093D02*
X-4665Y265760D01*
X-5998D01*
X-6665Y265093D01*
Y264427D01*
X-5998Y263760D01*
X-6665Y263094D01*
Y262427D01*
X-5998Y261761D01*
X-4665D01*
X-3999Y262427D01*
Y263094D01*
X-4665Y263760D01*
X-3999Y264427D01*
Y265093D01*
X-4665Y263760D02*
X-5998D01*
X-7997Y265093D02*
X-8664Y265760D01*
X-9997D01*
X-10663Y265093D01*
Y264427D01*
X-9997Y263760D01*
X-9330D01*
X-9997D01*
X-10663Y263094D01*
Y262427D01*
X-9997Y261761D01*
X-8664D01*
X-7997Y262427D01*
X240250Y267000D02*
Y270999D01*
X238251D01*
X237584Y270332D01*
Y268999D01*
X238251Y268333D01*
X240250D01*
X238917D02*
X237584Y267000D01*
X236251Y270332D02*
X235585Y270999D01*
X234252D01*
X233585Y270332D01*
Y269666D01*
X234252Y268999D01*
X233585Y268333D01*
Y267666D01*
X234252Y267000D01*
X235585D01*
X236251Y267666D01*
Y268333D01*
X235585Y268999D01*
X236251Y269666D01*
Y270332D01*
X235585Y268999D02*
X234252D01*
X229587Y270999D02*
X232253D01*
Y268999D01*
X230920Y269666D01*
X230253D01*
X229587Y268999D01*
Y267666D01*
X230253Y267000D01*
X231586D01*
X232253Y267666D01*
X0Y270027D02*
Y274025D01*
X-1999D01*
X-2666Y273359D01*
Y272026D01*
X-1999Y271360D01*
X0D01*
X-1333D02*
X-2666Y270027D01*
X-3999Y273359D02*
X-4665Y274025D01*
X-5998D01*
X-6665Y273359D01*
Y272693D01*
X-5998Y272026D01*
X-6665Y271360D01*
Y270693D01*
X-5998Y270027D01*
X-4665D01*
X-3999Y270693D01*
Y271360D01*
X-4665Y272026D01*
X-3999Y272693D01*
Y273359D01*
X-4665Y272026D02*
X-5998D01*
X-9997Y270027D02*
Y274025D01*
X-7997Y272026D01*
X-10663D01*
X221750Y247500D02*
X225749D01*
Y249499D01*
X225082Y250166D01*
X223749D01*
X223083Y249499D01*
Y247500D01*
Y248833D02*
X221750Y250166D01*
X225082Y251499D02*
X225749Y252165D01*
Y253498D01*
X225082Y254165D01*
X224416D01*
X223749Y253498D01*
X223083Y254165D01*
X222416D01*
X221750Y253498D01*
Y252165D01*
X222416Y251499D01*
X223083D01*
X223749Y252165D01*
X224416Y251499D01*
X225082D01*
X223749Y252165D02*
Y253498D01*
X225082Y255497D02*
X225749Y256164D01*
Y257497D01*
X225082Y258163D01*
X222416D01*
X221750Y257497D01*
Y256164D01*
X222416Y255497D01*
X225082D01*
X59750Y246750D02*
Y250749D01*
X57751D01*
X57084Y250082D01*
Y248749D01*
X57751Y248083D01*
X59750D01*
X58417D02*
X57084Y246750D01*
X55751Y250749D02*
X53085D01*
Y250082D01*
X55751Y247416D01*
Y246750D01*
X51753Y250082D02*
X51086Y250749D01*
X49753D01*
X49087Y250082D01*
Y249416D01*
X49753Y248749D01*
X50420D01*
X49753D01*
X49087Y248083D01*
Y247416D01*
X49753Y246750D01*
X51086D01*
X51753Y247416D01*
X236500Y252250D02*
X240499D01*
Y254249D01*
X239832Y254916D01*
X238499D01*
X237833Y254249D01*
Y252250D01*
Y253583D02*
X236500Y254916D01*
X240499Y256249D02*
Y258915D01*
X239832D01*
X237167Y256249D01*
X236500D01*
X240499Y262913D02*
Y260247D01*
X238499D01*
X239166Y261580D01*
Y262247D01*
X238499Y262913D01*
X237167D01*
X236500Y262247D01*
Y260914D01*
X237167Y260247D01*
X43084Y249582D02*
X43751Y250249D01*
X45084D01*
X45750Y249582D01*
Y246916D01*
X45084Y246250D01*
X43751D01*
X43084Y246916D01*
X41751Y246250D02*
X40418D01*
X41085D01*
Y250249D01*
X41751Y249582D01*
X38419D02*
X37753Y250249D01*
X36420D01*
X35753Y249582D01*
Y248916D01*
X36420Y248249D01*
X35753Y247583D01*
Y246916D01*
X36420Y246250D01*
X37753D01*
X38419Y246916D01*
Y247583D01*
X37753Y248249D01*
X38419Y248916D01*
Y249582D01*
X37753Y248249D02*
X36420D01*
X34420Y246250D02*
X33087D01*
X33754D01*
Y250249D01*
X34420Y249582D01*
X2084Y253832D02*
X2751Y254499D01*
X4084D01*
X4750Y253832D01*
Y251166D01*
X4084Y250500D01*
X2751D01*
X2084Y251166D01*
X751Y250500D02*
X-582D01*
X85D01*
Y254499D01*
X751Y253832D01*
X-2581Y254499D02*
X-5247D01*
Y253832D01*
X-2581Y251166D01*
Y250500D01*
X-9245Y254499D02*
X-7912Y253832D01*
X-6580Y252499D01*
Y251166D01*
X-7246Y250500D01*
X-8579D01*
X-9245Y251166D01*
Y251833D01*
X-8579Y252499D01*
X-6580D01*
X4582Y233166D02*
X5249Y232499D01*
Y231166D01*
X4582Y230500D01*
X1917D01*
X1250Y231166D01*
Y232499D01*
X1917Y233166D01*
X1250Y234499D02*
Y235832D01*
Y235165D01*
X5249D01*
X4582Y234499D01*
X5249Y237831D02*
Y240497D01*
X4582D01*
X1917Y237831D01*
X1250D01*
X5249Y244495D02*
Y241830D01*
X3249D01*
X3916Y243162D01*
Y243829D01*
X3249Y244495D01*
X1917D01*
X1250Y243829D01*
Y242496D01*
X1917Y241830D01*
X123250Y59250D02*
Y63249D01*
X121251D01*
X120584Y62582D01*
Y61249D01*
X121251Y60583D01*
X123250D01*
X121917D02*
X120584Y59250D01*
X119251Y59916D02*
X118585Y59250D01*
X117252D01*
X116586Y59916D01*
Y62582D01*
X117252Y63249D01*
X118585D01*
X119251Y62582D01*
Y61916D01*
X118585Y61249D01*
X116586D01*
X112587Y59250D02*
X115253D01*
X112587Y61916D01*
Y62582D01*
X113253Y63249D01*
X114586D01*
X115253Y62582D01*
X88750Y91750D02*
X91578Y94578D01*
X90164Y95991D01*
X89221D01*
X88279Y95049D01*
X88279Y94106D01*
X89692Y92692D01*
X88750Y93635D02*
X86865Y93635D01*
X88750Y97405D02*
X86865Y99290D01*
X86394Y98819D01*
Y95049D01*
X85922Y94578D01*
Y100232D02*
X84038Y102118D01*
X83566Y101646D01*
Y97876D01*
X83095Y97405D01*
X93000Y50750D02*
X90173Y53577D01*
X88759Y52164D01*
Y51221D01*
X89701Y50279D01*
X90644Y50279D01*
X92058Y51693D01*
X91115Y50750D02*
X91115Y48865D01*
X87816Y50279D02*
X86874D01*
X85931Y49336D01*
Y48394D01*
X86403Y47923D01*
X87345D01*
X87345Y46980D01*
X87816Y46509D01*
X88759D01*
X89701Y47451D01*
Y48394D01*
X89230Y48865D01*
X88287Y48865D01*
Y49808D01*
X87816Y50279D01*
X88287Y48865D02*
X87345Y47923D01*
X86874Y45566D02*
Y44624D01*
X85931Y43681D01*
X84989D01*
X83104Y45566D01*
Y46509D01*
X84046Y47451D01*
X84989D01*
X85460Y46980D01*
Y46038D01*
X84046Y44624D01*
X362084Y43582D02*
X362751Y44249D01*
X364084D01*
X364750Y43582D01*
Y40917D01*
X364084Y40250D01*
X362751D01*
X362084Y40917D01*
X358086Y40250D02*
X360751D01*
X358086Y42916D01*
Y43582D01*
X358752Y44249D01*
X360085D01*
X360751Y43582D01*
X356753D02*
X356086Y44249D01*
X354753D01*
X354087Y43582D01*
Y42916D01*
X354753Y42249D01*
X355420D01*
X354753D01*
X354087Y41583D01*
Y40917D01*
X354753Y40250D01*
X356086D01*
X356753Y40917D01*
X408332Y258166D02*
X408999Y257499D01*
Y256166D01*
X408332Y255500D01*
X405666D01*
X405000Y256166D01*
Y257499D01*
X405666Y258166D01*
X405000Y262164D02*
Y259499D01*
X407666Y262164D01*
X408332D01*
X408999Y261498D01*
Y260165D01*
X408332Y259499D01*
X405000Y265497D02*
X408999D01*
X406999Y263497D01*
Y266163D01*
X364334Y114832D02*
X365001Y115499D01*
X366334D01*
X367000Y114832D01*
Y112167D01*
X366334Y111500D01*
X365001D01*
X364334Y112167D01*
X363001Y115499D02*
X360336D01*
Y114832D01*
X363001Y112167D01*
Y111500D01*
X359003Y114832D02*
X358336Y115499D01*
X357003D01*
X356337Y114832D01*
Y112167D01*
X357003Y111500D01*
X358336D01*
X359003Y112167D01*
Y114832D01*
X419582Y133666D02*
X420249Y132999D01*
Y131666D01*
X419582Y131000D01*
X416916D01*
X416250Y131666D01*
Y132999D01*
X416916Y133666D01*
X419582Y134999D02*
X420249Y135665D01*
Y136998D01*
X419582Y137664D01*
X418916D01*
X418249Y136998D01*
Y136332D01*
Y136998D01*
X417583Y137664D01*
X416916D01*
X416250Y136998D01*
Y135665D01*
X416916Y134999D01*
X416250Y140997D02*
X420249D01*
X418249Y138997D01*
Y141663D01*
X373500Y136000D02*
Y139999D01*
X371501D01*
X370834Y139332D01*
Y137999D01*
X371501Y137333D01*
X373500D01*
X372167D02*
X370834Y136000D01*
X369501D02*
X368168D01*
X368835D01*
Y139999D01*
X369501Y139332D01*
X366169D02*
X365503Y139999D01*
X364170D01*
X363503Y139332D01*
Y138666D01*
X364170Y137999D01*
X363503Y137333D01*
Y136666D01*
X364170Y136000D01*
X365503D01*
X366169Y136666D01*
Y137333D01*
X365503Y137999D01*
X366169Y138666D01*
Y139332D01*
X365503Y137999D02*
X364170D01*
X0Y128466D02*
Y132465D01*
X-1999D01*
X-2666Y131798D01*
Y130465D01*
X-1999Y129799D01*
X0D01*
X-1333D02*
X-2666Y128466D01*
X-3999Y129132D02*
X-4665Y128466D01*
X-5998D01*
X-6665Y129132D01*
Y131798D01*
X-5998Y132465D01*
X-4665D01*
X-3999Y131798D01*
Y131132D01*
X-4665Y130465D01*
X-6665D01*
X-7997Y131798D02*
X-8664Y132465D01*
X-9997D01*
X-10663Y131798D01*
Y129132D01*
X-9997Y128466D01*
X-8664D01*
X-7997Y129132D01*
Y131798D01*
X0Y120457D02*
Y124456D01*
X-1999D01*
X-2666Y123790D01*
Y122457D01*
X-1999Y121790D01*
X0D01*
X-1333D02*
X-2666Y120457D01*
X-3999Y121124D02*
X-4665Y120457D01*
X-5998D01*
X-6665Y121124D01*
Y123790D01*
X-5998Y124456D01*
X-4665D01*
X-3999Y123790D01*
Y123123D01*
X-4665Y122457D01*
X-6665D01*
X-7997Y120457D02*
X-9330D01*
X-8664D01*
Y124456D01*
X-7997Y123790D01*
X66834Y70249D02*
X69500D01*
Y68249D01*
X68167D01*
X69500D01*
Y66250D01*
X65501D02*
Y70249D01*
X63502D01*
X62835Y69582D01*
Y68249D01*
X63502Y67583D01*
X65501D01*
X64168D02*
X62835Y66250D01*
X59503D02*
Y70249D01*
X61503Y68249D01*
X58837D01*
X57504Y69582D02*
X56838Y70249D01*
X55504D01*
X54838Y69582D01*
Y68916D01*
X55504Y68249D01*
X54838Y67583D01*
Y66916D01*
X55504Y66250D01*
X56838D01*
X57504Y66916D01*
Y67583D01*
X56838Y68249D01*
X57504Y68916D01*
Y69582D01*
X56838Y68249D02*
X55504D01*
X75082Y82416D02*
X75749Y81749D01*
Y80416D01*
X75082Y79750D01*
X72416D01*
X71750Y80416D01*
Y81749D01*
X72416Y82416D01*
X71750Y86414D02*
Y83749D01*
X74416Y86414D01*
X75082D01*
X75749Y85748D01*
Y84415D01*
X75082Y83749D01*
Y87747D02*
X75749Y88414D01*
Y89747D01*
X75082Y90413D01*
X72416D01*
X71750Y89747D01*
Y88414D01*
X72416Y87747D01*
X75082D01*
Y91746D02*
X75749Y92413D01*
Y93745D01*
X75082Y94412D01*
X74416D01*
X73749Y93745D01*
Y93079D01*
Y93745D01*
X73083Y94412D01*
X72416D01*
X71750Y93745D01*
Y92413D01*
X72416Y91746D01*
X64832Y26416D02*
X65499Y25749D01*
Y24416D01*
X64832Y23750D01*
X62166D01*
X61500Y24416D01*
Y25749D01*
X62166Y26416D01*
X61500Y27749D02*
Y29082D01*
Y28415D01*
X65499D01*
X64832Y27749D01*
Y31081D02*
X65499Y31747D01*
Y33080D01*
X64832Y33747D01*
X64166D01*
X63499Y33080D01*
X62833Y33747D01*
X62166D01*
X61500Y33080D01*
Y31747D01*
X62166Y31081D01*
X62833D01*
X63499Y31747D01*
X64166Y31081D01*
X64832D01*
X63499Y31747D02*
Y33080D01*
X64832Y35080D02*
X65499Y35746D01*
Y37079D01*
X64832Y37745D01*
X64166D01*
X63499Y37079D01*
X62833Y37745D01*
X62166D01*
X61500Y37079D01*
Y35746D01*
X62166Y35080D01*
X62833D01*
X63499Y35746D01*
X64166Y35080D01*
X64832D01*
X63499Y35746D02*
Y37079D01*
X12082Y26166D02*
X12749Y25499D01*
Y24166D01*
X12082Y23500D01*
X9416D01*
X8750Y24166D01*
Y25499D01*
X9416Y26166D01*
X8750Y27499D02*
Y28832D01*
Y28165D01*
X12749D01*
X12082Y27499D01*
Y30831D02*
X12749Y31497D01*
Y32830D01*
X12082Y33497D01*
X11416D01*
X10749Y32830D01*
X10083Y33497D01*
X9416D01*
X8750Y32830D01*
Y31497D01*
X9416Y30831D01*
X10083D01*
X10749Y31497D01*
X11416Y30831D01*
X12082D01*
X10749Y31497D02*
Y32830D01*
X9416Y34830D02*
X8750Y35496D01*
Y36829D01*
X9416Y37496D01*
X12082D01*
X12749Y36829D01*
Y35496D01*
X12082Y34830D01*
X11416D01*
X10749Y35496D01*
Y37496D01*
X38834Y8332D02*
X39501Y8999D01*
X40834D01*
X41500Y8332D01*
Y5666D01*
X40834Y5000D01*
X39501D01*
X38834Y5666D01*
X37501Y5000D02*
X36168D01*
X36835D01*
Y8999D01*
X37501Y8332D01*
X34169Y5666D02*
X33503Y5000D01*
X32170D01*
X31503Y5666D01*
Y8332D01*
X32170Y8999D01*
X33503D01*
X34169Y8332D01*
Y7666D01*
X33503Y6999D01*
X31503D01*
X28171Y5000D02*
Y8999D01*
X30170Y6999D01*
X27504D01*
X76999Y25916D02*
Y23250D01*
X74999D01*
Y24583D01*
Y23250D01*
X73000D01*
Y27249D02*
X76999D01*
Y29248D01*
X76332Y29915D01*
X74999D01*
X74333Y29248D01*
Y27249D01*
Y28582D02*
X73000Y29915D01*
Y33247D02*
X76999D01*
X74999Y31247D01*
Y33913D01*
X76332Y35246D02*
X76999Y35912D01*
Y37245D01*
X76332Y37912D01*
X75666D01*
X74999Y37245D01*
Y36579D01*
Y37245D01*
X74333Y37912D01*
X73667D01*
X73000Y37245D01*
Y35912D01*
X73667Y35246D01*
X-3750Y140750D02*
Y144749D01*
X-5749D01*
X-6416Y144082D01*
Y142749D01*
X-5749Y142083D01*
X-3750D01*
X-5083D02*
X-6416Y140750D01*
X-7749Y144082D02*
X-8415Y144749D01*
X-9748D01*
X-10415Y144082D01*
Y143416D01*
X-9748Y142749D01*
X-10415Y142083D01*
Y141417D01*
X-9748Y140750D01*
X-8415D01*
X-7749Y141417D01*
Y142083D01*
X-8415Y142749D01*
X-7749Y143416D01*
Y144082D01*
X-8415Y142749D02*
X-9748D01*
X-11747Y144082D02*
X-12414Y144749D01*
X-13747D01*
X-14413Y144082D01*
Y143416D01*
X-13747Y142749D01*
X-14413Y142083D01*
Y141417D01*
X-13747Y140750D01*
X-12414D01*
X-11747Y141417D01*
Y142083D01*
X-12414Y142749D01*
X-11747Y143416D01*
Y144082D01*
X-12414Y142749D02*
X-13747D01*
X-4078Y146750D02*
Y150749D01*
X-6078D01*
X-6744Y150082D01*
Y148749D01*
X-6078Y148083D01*
X-4078D01*
X-5411D02*
X-6744Y146750D01*
X-8077Y150082D02*
X-8743Y150749D01*
X-10076D01*
X-10743Y150082D01*
Y149416D01*
X-10076Y148749D01*
X-10743Y148083D01*
Y147416D01*
X-10076Y146750D01*
X-8743D01*
X-8077Y147416D01*
Y148083D01*
X-8743Y148749D01*
X-8077Y149416D01*
Y150082D01*
X-8743Y148749D02*
X-10076D01*
X-12076Y150749D02*
X-14741D01*
Y150082D01*
X-12076Y147416D01*
Y146750D01*
X41749Y64000D02*
Y65333D01*
Y64666D01*
X37750D01*
Y64000D01*
Y65333D01*
X41082Y69998D02*
X41749Y69332D01*
Y67999D01*
X41082Y67332D01*
X38416D01*
X37750Y67999D01*
Y69332D01*
X38416Y69998D01*
X37750Y73997D02*
Y71331D01*
X40416Y73997D01*
X41082D01*
X41749Y73330D01*
Y71997D01*
X41082Y71331D01*
X37750Y77329D02*
X41749D01*
X39749Y75330D01*
Y77995D01*
X44249Y95000D02*
Y96333D01*
Y95666D01*
X40250D01*
Y95000D01*
Y96333D01*
X43582Y100998D02*
X44249Y100332D01*
Y98999D01*
X43582Y98332D01*
X40917D01*
X40250Y98999D01*
Y100332D01*
X40917Y100998D01*
X40250Y104997D02*
Y102331D01*
X42916Y104997D01*
X43582D01*
X44249Y104330D01*
Y102997D01*
X43582Y102331D01*
X44249Y108995D02*
X43582Y107662D01*
X42249Y106330D01*
X40917D01*
X40250Y106996D01*
Y108329D01*
X40917Y108995D01*
X41583D01*
X42249Y108329D01*
Y106330D01*
X374334Y160332D02*
X375001Y160999D01*
X376334D01*
X377000Y160332D01*
Y157666D01*
X376334Y157000D01*
X375001D01*
X374334Y157666D01*
X373001D02*
X372335Y157000D01*
X371002D01*
X370336Y157666D01*
Y160332D01*
X371002Y160999D01*
X372335D01*
X373001Y160332D01*
Y159666D01*
X372335Y158999D01*
X370336D01*
X369003Y160332D02*
X368336Y160999D01*
X367003D01*
X366337Y160332D01*
Y157666D01*
X367003Y157000D01*
X368336D01*
X369003Y157666D01*
Y160332D01*
X452999Y241166D02*
Y238500D01*
X450999D01*
Y239833D01*
Y238500D01*
X449000D01*
Y242499D02*
X452999D01*
Y244498D01*
X452332Y245165D01*
X450999D01*
X450333Y244498D01*
Y242499D01*
Y243832D02*
X449000Y245165D01*
Y246497D02*
Y247830D01*
Y247164D01*
X452999D01*
X452332Y246497D01*
X445332Y241666D02*
X445999Y240999D01*
Y239666D01*
X445332Y239000D01*
X442667D01*
X442000Y239666D01*
Y240999D01*
X442667Y241666D01*
X442000Y245665D02*
Y242999D01*
X444666Y245665D01*
X445332D01*
X445999Y244998D01*
Y243665D01*
X445332Y242999D01*
X445999Y246997D02*
Y249663D01*
X445332D01*
X442667Y246997D01*
X442000D01*
X432082Y242916D02*
X432749Y242249D01*
Y240916D01*
X432082Y240250D01*
X429416D01*
X428750Y240916D01*
Y242249D01*
X429416Y242916D01*
X428750Y246915D02*
Y244249D01*
X431416Y246915D01*
X432082D01*
X432749Y246248D01*
Y244915D01*
X432082Y244249D01*
X432749Y250913D02*
Y248247D01*
X430749D01*
X431416Y249580D01*
Y250247D01*
X430749Y250913D01*
X429416D01*
X428750Y250247D01*
Y248914D01*
X429416Y248247D01*
X355499Y286666D02*
Y284000D01*
X353499D01*
Y285333D01*
Y284000D01*
X351500D01*
Y287999D02*
X355499D01*
Y289998D01*
X354832Y290665D01*
X353499D01*
X352833Y289998D01*
Y287999D01*
Y289332D02*
X351500Y290665D01*
Y294663D02*
Y291997D01*
X354166Y294663D01*
X354832D01*
X355499Y293997D01*
Y292664D01*
X354832Y291997D01*
X362832Y286166D02*
X363499Y285499D01*
Y284166D01*
X362832Y283500D01*
X360167D01*
X359500Y284166D01*
Y285499D01*
X360167Y286166D01*
X359500Y290165D02*
Y287499D01*
X362166Y290165D01*
X362832D01*
X363499Y289498D01*
Y288165D01*
X362832Y287499D01*
Y291497D02*
X363499Y292164D01*
Y293497D01*
X362832Y294163D01*
X362166D01*
X361499Y293497D01*
X360833Y294163D01*
X360167D01*
X359500Y293497D01*
Y292164D01*
X360167Y291497D01*
X360833D01*
X361499Y292164D01*
X362166Y291497D01*
X362832D01*
X361499Y292164D02*
Y293497D01*
X373834Y258082D02*
X374501Y258749D01*
X375834D01*
X376500Y258082D01*
Y255417D01*
X375834Y254750D01*
X374501D01*
X373834Y255417D01*
X369836Y254750D02*
X372501D01*
X369836Y257416D01*
Y258082D01*
X370502Y258749D01*
X371835D01*
X372501Y258082D01*
X365837Y258749D02*
X367170Y258082D01*
X368503Y256749D01*
Y255417D01*
X367836Y254750D01*
X366503D01*
X365837Y255417D01*
Y256083D01*
X366503Y256749D01*
X368503D01*
X385334Y120082D02*
X386001Y120749D01*
X387334D01*
X388000Y120082D01*
Y117416D01*
X387334Y116750D01*
X386001D01*
X385334Y117416D01*
X384001Y120082D02*
X383335Y120749D01*
X382002D01*
X381335Y120082D01*
Y119416D01*
X382002Y118749D01*
X382668D01*
X382002D01*
X381335Y118083D01*
Y117416D01*
X382002Y116750D01*
X383335D01*
X384001Y117416D01*
X380003Y116750D02*
X378670D01*
X379336D01*
Y120749D01*
X380003Y120082D01*
X409834Y113082D02*
X410501Y113749D01*
X411833D01*
X412500Y113082D01*
Y110416D01*
X411833Y109750D01*
X410501D01*
X409834Y110416D01*
X408501Y113082D02*
X407835Y113749D01*
X406502D01*
X405835Y113082D01*
Y112416D01*
X406502Y111749D01*
X407168D01*
X406502D01*
X405835Y111083D01*
Y110416D01*
X406502Y109750D01*
X407835D01*
X408501Y110416D01*
X401837Y109750D02*
X404503D01*
X401837Y112416D01*
Y113082D01*
X402503Y113749D01*
X403836D01*
X404503Y113082D01*
X363200Y51570D02*
Y55569D01*
X361867Y54236D01*
X360534Y55569D01*
Y51570D01*
X359201D02*
Y55569D01*
X356535Y51570D01*
Y55569D01*
X355202Y54902D02*
X354536Y55569D01*
X353203D01*
X352537Y54902D01*
Y54236D01*
X353203Y53569D01*
X353870D01*
X353203D01*
X352537Y52903D01*
Y52236D01*
X353203Y51570D01*
X354536D01*
X355202Y52236D01*
X348538Y55569D02*
X351204D01*
Y53569D01*
X349871Y54236D01*
X349204D01*
X348538Y53569D01*
Y52236D01*
X349204Y51570D01*
X350537D01*
X351204Y52236D01*
X340500Y51250D02*
X344499D01*
X343166Y52583D01*
X344499Y53916D01*
X340500D01*
Y55249D02*
X344499D01*
X340500Y57915D01*
X344499D01*
X343832Y59247D02*
X344499Y59914D01*
Y61247D01*
X343832Y61913D01*
X343166D01*
X342499Y61247D01*
Y60580D01*
Y61247D01*
X341833Y61913D01*
X341166D01*
X340500Y61247D01*
Y59914D01*
X341166Y59247D01*
X343832Y63246D02*
X344499Y63913D01*
Y65245D01*
X343832Y65912D01*
X343166D01*
X342499Y65245D01*
Y64579D01*
Y65245D01*
X341833Y65912D01*
X341166D01*
X340500Y65245D01*
Y63913D01*
X341166Y63246D01*
X363200Y61570D02*
Y65569D01*
X361867Y64236D01*
X360534Y65569D01*
Y61570D01*
X359201D02*
Y65569D01*
X356535Y61570D01*
Y65569D01*
X355202Y64902D02*
X354536Y65569D01*
X353203D01*
X352537Y64902D01*
Y64236D01*
X353203Y63569D01*
X353870D01*
X353203D01*
X352537Y62903D01*
Y62236D01*
X353203Y61570D01*
X354536D01*
X355202Y62236D01*
X351204Y64902D02*
X350537Y65569D01*
X349204D01*
X348538Y64902D01*
Y62236D01*
X349204Y61570D01*
X350537D01*
X351204Y62236D01*
Y64902D01*
X298750Y216750D02*
Y220749D01*
X297417Y219416D01*
X296084Y220749D01*
Y216750D01*
X294751D02*
Y220749D01*
X292085Y216750D01*
Y220749D01*
X288087Y216750D02*
X290753D01*
X288087Y219416D01*
Y220082D01*
X288753Y220749D01*
X290086D01*
X290753Y220082D01*
X286754D02*
X286087Y220749D01*
X284755D01*
X284088Y220082D01*
Y217416D01*
X284755Y216750D01*
X286087D01*
X286754Y217416D01*
Y220082D01*
X289000Y230000D02*
Y233999D01*
X287667Y232666D01*
X286334Y233999D01*
Y230000D01*
X285001D02*
Y233999D01*
X282335Y230000D01*
Y233999D01*
X278337Y230000D02*
X281003D01*
X278337Y232666D01*
Y233332D01*
X279003Y233999D01*
X280336D01*
X281003Y233332D01*
X274338Y233999D02*
X277004D01*
Y231999D01*
X275671Y232666D01*
X275005D01*
X274338Y231999D01*
Y230666D01*
X275005Y230000D01*
X276338D01*
X277004Y230666D01*
X278500Y216750D02*
Y220749D01*
X277167Y219416D01*
X275834Y220749D01*
Y216750D01*
X274501D02*
Y220749D01*
X271835Y216750D01*
Y220749D01*
X270503Y216750D02*
X269170D01*
X269836D01*
Y220749D01*
X270503Y220082D01*
X267170Y217416D02*
X266504Y216750D01*
X265171D01*
X264505Y217416D01*
Y220082D01*
X265171Y220749D01*
X266504D01*
X267170Y220082D01*
Y219416D01*
X266504Y218749D01*
X264505D01*
X344000Y234750D02*
Y238749D01*
X342667Y237416D01*
X341334Y238749D01*
Y234750D01*
X340001D02*
Y238749D01*
X337336Y234750D01*
Y238749D01*
X336003Y234750D02*
X334670D01*
X335336D01*
Y238749D01*
X336003Y238082D01*
X332670D02*
X332004Y238749D01*
X330671D01*
X330005Y238082D01*
Y235416D01*
X330671Y234750D01*
X332004D01*
X332670Y235416D01*
Y238082D01*
X346000Y267000D02*
Y270999D01*
X344667Y269666D01*
X343334Y270999D01*
Y267000D01*
X342001D02*
Y270999D01*
X339336Y267000D01*
Y270999D01*
X338003Y270332D02*
X337336Y270999D01*
X336003D01*
X335337Y270332D01*
Y269666D01*
X336003Y268999D01*
X335337Y268333D01*
Y267666D01*
X336003Y267000D01*
X337336D01*
X338003Y267666D01*
Y268333D01*
X337336Y268999D01*
X338003Y269666D01*
Y270332D01*
X337336Y268999D02*
X336003D01*
X333500Y246750D02*
X337499D01*
X336166Y248083D01*
X337499Y249416D01*
X333500D01*
Y250749D02*
X337499D01*
X333500Y253414D01*
X337499D01*
Y257413D02*
X336832Y256080D01*
X335499Y254747D01*
X334166D01*
X333500Y255414D01*
Y256747D01*
X334166Y257413D01*
X334833D01*
X335499Y256747D01*
Y254747D01*
X333750Y223500D02*
Y227499D01*
X332417Y226166D01*
X331084Y227499D01*
Y223500D01*
X329751D02*
Y227499D01*
X327085Y223500D01*
Y227499D01*
X323753Y223500D02*
Y227499D01*
X325753Y225499D01*
X323087D01*
X343250Y246750D02*
X347249D01*
X345916Y248083D01*
X347249Y249416D01*
X343250D01*
Y250749D02*
X347249D01*
X343250Y253414D01*
X347249D01*
X343250Y254747D02*
Y256080D01*
Y255414D01*
X347249D01*
X346582Y254747D01*
X343250Y260746D02*
Y258080D01*
X345916Y260746D01*
X346582D01*
X347249Y260079D01*
Y258746D01*
X346582Y258080D01*
X353750Y223500D02*
Y227499D01*
X352417Y226166D01*
X351084Y227499D01*
Y223500D01*
X349751D02*
Y227499D01*
X347085Y223500D01*
Y227499D01*
X345753Y226832D02*
X345086Y227499D01*
X343753D01*
X343087Y226832D01*
Y226166D01*
X343753Y225499D01*
X344420D01*
X343753D01*
X343087Y224833D01*
Y224167D01*
X343753Y223500D01*
X345086D01*
X345753Y224167D01*
X285500Y240250D02*
X289499D01*
X288166Y241583D01*
X289499Y242916D01*
X285500D01*
Y244249D02*
X289499D01*
X285500Y246915D01*
X289499D01*
X285500Y250913D02*
Y248247D01*
X288166Y250913D01*
X288832D01*
X289499Y250247D01*
Y248914D01*
X288832Y248247D01*
X285500Y254912D02*
Y252246D01*
X288166Y254912D01*
X288832D01*
X289499Y254245D01*
Y252913D01*
X288832Y252246D01*
X275750Y240250D02*
X279749D01*
X278416Y241583D01*
X279749Y242916D01*
X275750D01*
Y244249D02*
X279749D01*
X275750Y246915D01*
X279749D01*
X275750Y250913D02*
Y248247D01*
X278416Y250913D01*
X279082D01*
X279749Y250247D01*
Y248914D01*
X279082Y248247D01*
Y252246D02*
X279749Y252913D01*
Y254245D01*
X279082Y254912D01*
X278416D01*
X277749Y254245D01*
X277083Y254912D01*
X276416D01*
X275750Y254245D01*
Y252913D01*
X276416Y252246D01*
X277083D01*
X277749Y252913D01*
X278416Y252246D01*
X279082D01*
X277749Y252913D02*
Y254245D01*
X288750Y258500D02*
Y262499D01*
X287417Y261166D01*
X286084Y262499D01*
Y258500D01*
X284751D02*
Y262499D01*
X282085Y258500D01*
Y262499D01*
X278087Y258500D02*
X280753D01*
X278087Y261166D01*
Y261832D01*
X278753Y262499D01*
X280086D01*
X280753Y261832D01*
X274088Y262499D02*
X275421Y261832D01*
X276754Y260499D01*
Y259166D01*
X276087Y258500D01*
X274755D01*
X274088Y259166D01*
Y259833D01*
X274755Y260499D01*
X276754D01*
X358571Y71510D02*
X362570D01*
X361237Y72843D01*
X362570Y74176D01*
X358571D01*
Y75509D02*
X362570D01*
X358571Y78175D01*
X362570D01*
X358571Y81507D02*
X362570D01*
X360570Y79507D01*
Y82173D01*
X358571Y86172D02*
Y83506D01*
X361237Y86172D01*
X361903D01*
X362570Y85506D01*
Y84173D01*
X361903Y83506D01*
X381275Y82045D02*
Y86044D01*
X379942Y84711D01*
X378609Y86044D01*
Y82045D01*
X377276D02*
Y86044D01*
X374610Y82045D01*
Y86044D01*
X373277Y85377D02*
X372611Y86044D01*
X371278D01*
X370611Y85377D01*
Y84711D01*
X371278Y84044D01*
X371944D01*
X371278D01*
X370611Y83378D01*
Y82711D01*
X371278Y82045D01*
X372611D01*
X373277Y82711D01*
X369279Y85377D02*
X368612Y86044D01*
X367279D01*
X366613Y85377D01*
Y84711D01*
X367279Y84044D01*
X366613Y83378D01*
Y82711D01*
X367279Y82045D01*
X368612D01*
X369279Y82711D01*
Y83378D01*
X368612Y84044D01*
X369279Y84711D01*
Y85377D01*
X368612Y84044D02*
X367279D01*
X389250Y71750D02*
X393249D01*
X391916Y73083D01*
X393249Y74416D01*
X389250D01*
Y75749D02*
X393249D01*
X389250Y78415D01*
X393249D01*
X389250Y81747D02*
X393249D01*
X391249Y79747D01*
Y82413D01*
X392582Y83746D02*
X393249Y84412D01*
Y85745D01*
X392582Y86412D01*
X389916D01*
X389250Y85745D01*
Y84412D01*
X389916Y83746D01*
X392582D01*
X381275Y72045D02*
Y76044D01*
X379942Y74711D01*
X378609Y76044D01*
Y72045D01*
X377276D02*
Y76044D01*
X374610Y72045D01*
Y76044D01*
X371278Y72045D02*
Y76044D01*
X373277Y74044D01*
X370611D01*
X367279Y72045D02*
Y76044D01*
X369279Y74044D01*
X366613D01*
X48000Y130750D02*
X50827Y133577D01*
X49414Y134991D01*
X48471D01*
X47529Y134049D01*
X47529Y133106D01*
X48942Y131692D01*
X48000Y132635D02*
X46115Y132635D01*
X43759Y134991D02*
X46586Y137819D01*
X46586Y134991D01*
X44701Y136876D01*
X45173Y139233D02*
X43288Y141117D01*
X42816Y140646D01*
Y136876D01*
X42345Y136405D01*
X89175Y122115D02*
X86347Y124943D01*
X84934Y123529D01*
Y122587D01*
X85876Y121644D01*
X86819Y121644D01*
X88232Y123058D01*
X87290Y122115D02*
X87290Y120230D01*
X81635D02*
X83520Y122115D01*
X84934Y120702D01*
X83520Y120230D01*
X83049Y119759D01*
Y118817D01*
X83991Y117874D01*
X84934D01*
X85876Y118817D01*
Y119759D01*
X81164Y118817D02*
X80221D01*
X79279Y117874D01*
Y116932D01*
X81164Y115047D01*
X82106D01*
X83049Y115989D01*
Y116932D01*
X81164Y118817D01*
X78215Y133076D02*
X75387Y135903D01*
X73973Y134489D01*
Y133547D01*
X74916Y132604D01*
X75858Y132604D01*
X77272Y134018D01*
X76330Y133076D02*
X76330Y131191D01*
X73973Y128834D02*
X71146Y131662D01*
X73973Y131662D01*
X72088Y129777D01*
X72088Y127892D02*
Y126949D01*
X71146Y126007D01*
X70203D01*
X68318Y127892D01*
Y128834D01*
X69261Y129777D01*
X70203D01*
X70675Y129306D01*
Y128363D01*
X69261Y126949D01*
X79630Y128244D02*
Y129186D01*
X80573Y130128D01*
X81515D01*
X83400Y128244D01*
Y127301D01*
X82458Y126358D01*
X81515D01*
X81044Y124945D02*
X80101Y124002D01*
X80573Y124473D01*
X77745Y127301D01*
X78688D01*
X76332Y124945D02*
X75389D01*
X74447Y124002D01*
Y123060D01*
X76332Y121175D01*
X77274D01*
X78217Y122117D01*
Y123060D01*
X76332Y124945D01*
X71148Y120703D02*
X72561Y121175D01*
X74447D01*
X75389Y120232D01*
Y119290D01*
X74447Y118347D01*
X73504D01*
X73033Y118818D01*
X73033Y119761D01*
X74447Y121175D01*
X380834Y129499D02*
X383500D01*
Y127499D01*
X382167D01*
X383500D01*
Y125500D01*
X379501D02*
Y129499D01*
X377502D01*
X376836Y128832D01*
Y127499D01*
X377502Y126833D01*
X379501D01*
X378168D02*
X376836Y125500D01*
X372837D02*
X375503D01*
X372837Y128166D01*
Y128832D01*
X373503Y129499D01*
X374836D01*
X375503Y128832D01*
X369505Y125500D02*
Y129499D01*
X371504Y127499D01*
X368838D01*
X358500Y207000D02*
X362499D01*
X361166Y208333D01*
X362499Y209666D01*
X358500D01*
Y210999D02*
X362499D01*
X358500Y213664D01*
X362499D01*
X358500Y217663D02*
Y214997D01*
X361166Y217663D01*
X361832D01*
X362499Y216997D01*
Y215664D01*
X361832Y214997D01*
X355750Y186250D02*
X359749D01*
X358416Y187583D01*
X359749Y188916D01*
X355750D01*
Y190249D02*
X359749D01*
X355750Y192915D01*
X359749D01*
X355750Y194247D02*
Y195580D01*
Y194914D01*
X359749D01*
X359082Y194247D01*
X399000Y194500D02*
X402999D01*
X401666Y195833D01*
X402999Y197166D01*
X399000D01*
Y198499D02*
X402999D01*
X399000Y201164D01*
X402999D01*
Y202497D02*
Y205163D01*
X402332D01*
X399666Y202497D01*
X399000D01*
X389250Y202500D02*
Y206499D01*
X387917Y205166D01*
X386584Y206499D01*
Y202500D01*
X385251D02*
Y206499D01*
X382585Y202500D01*
Y206499D01*
X378587D02*
X381253D01*
Y204499D01*
X379920Y205166D01*
X379253D01*
X378587Y204499D01*
Y203166D01*
X379253Y202500D01*
X380586D01*
X381253Y203166D01*
X389750Y193000D02*
Y196999D01*
X388417Y195666D01*
X387084Y196999D01*
Y193000D01*
X385751D02*
Y196999D01*
X383086Y193000D01*
Y196999D01*
X381753Y193000D02*
X380420D01*
X381086D01*
Y196999D01*
X381753Y196332D01*
X378420Y193000D02*
X377088D01*
X377754D01*
Y196999D01*
X378420Y196332D01*
X368500Y194250D02*
X372499D01*
X371166Y195583D01*
X372499Y196916D01*
X368500D01*
Y198249D02*
X372499D01*
X368500Y200914D01*
X372499D01*
X369166Y202247D02*
X368500Y202914D01*
Y204247D01*
X369166Y204913D01*
X371832D01*
X372499Y204247D01*
Y202914D01*
X371832Y202247D01*
X371166D01*
X370499Y202914D01*
Y204913D01*
X174082Y38416D02*
X174749Y37749D01*
Y36416D01*
X174082Y35750D01*
X171416D01*
X170750Y36416D01*
Y37749D01*
X171416Y38416D01*
X170750Y42414D02*
Y39749D01*
X173416Y42414D01*
X174082D01*
X174749Y41748D01*
Y40415D01*
X174082Y39749D01*
Y43747D02*
X174749Y44414D01*
Y45747D01*
X174082Y46413D01*
X171416D01*
X170750Y45747D01*
Y44414D01*
X171416Y43747D01*
X174082D01*
Y47746D02*
X174749Y48412D01*
Y49745D01*
X174082Y50412D01*
X173416D01*
X172749Y49745D01*
X172083Y50412D01*
X171416D01*
X170750Y49745D01*
Y48412D01*
X171416Y47746D01*
X172083D01*
X172749Y48412D01*
X173416Y47746D01*
X174082D01*
X172749Y48412D02*
Y49745D01*
X107082Y38916D02*
X107749Y38249D01*
Y36916D01*
X107082Y36250D01*
X104417D01*
X103750Y36916D01*
Y38249D01*
X104417Y38916D01*
X103750Y42915D02*
Y40249D01*
X106416Y42915D01*
X107082D01*
X107749Y42248D01*
Y40915D01*
X107082Y40249D01*
X103750Y44247D02*
Y45580D01*
Y44914D01*
X107749D01*
X107082Y44247D01*
X103750Y50245D02*
Y47580D01*
X106416Y50245D01*
X107082D01*
X107749Y49579D01*
Y48246D01*
X107082Y47580D01*
X174082Y7416D02*
X174749Y6749D01*
Y5416D01*
X174082Y4750D01*
X171416D01*
X170750Y5416D01*
Y6749D01*
X171416Y7416D01*
X170750Y11415D02*
Y8749D01*
X173416Y11415D01*
X174082D01*
X174749Y10748D01*
Y9415D01*
X174082Y8749D01*
X170750Y12747D02*
Y14080D01*
Y13414D01*
X174749D01*
X174082Y12747D01*
X174749Y18745D02*
Y16080D01*
X172749D01*
X173416Y17413D01*
Y18079D01*
X172749Y18745D01*
X171416D01*
X170750Y18079D01*
Y16746D01*
X171416Y16080D01*
X155500Y54749D02*
Y50750D01*
X152834D01*
X148835Y54749D02*
X150168Y54082D01*
X151501Y52749D01*
Y51417D01*
X150835Y50750D01*
X149502D01*
X148835Y51417D01*
Y52083D01*
X149502Y52749D01*
X151501D01*
X122500Y54749D02*
Y50750D01*
X119834D01*
X118501Y54749D02*
X115836D01*
Y54082D01*
X118501Y51417D01*
Y50750D01*
X155500Y25749D02*
Y21750D01*
X152834D01*
X151501Y25082D02*
X150835Y25749D01*
X149502D01*
X148835Y25082D01*
Y24416D01*
X149502Y23749D01*
X148835Y23083D01*
Y22417D01*
X149502Y21750D01*
X150835D01*
X151501Y22417D01*
Y23083D01*
X150835Y23749D01*
X151501Y24416D01*
Y25082D01*
X150835Y23749D02*
X149502D01*
X107082Y7416D02*
X107749Y6749D01*
Y5416D01*
X107082Y4750D01*
X104417D01*
X103750Y5416D01*
Y6749D01*
X104417Y7416D01*
X103750Y11415D02*
Y8749D01*
X106416Y11415D01*
X107082D01*
X107749Y10748D01*
Y9415D01*
X107082Y8749D01*
X103750Y12747D02*
Y14080D01*
Y13414D01*
X107749D01*
X107082Y12747D01*
Y16080D02*
X107749Y16746D01*
Y18079D01*
X107082Y18745D01*
X106416D01*
X105749Y18079D01*
X105083Y18745D01*
X104417D01*
X103750Y18079D01*
Y16746D01*
X104417Y16080D01*
X105083D01*
X105749Y16746D01*
X106416Y16080D01*
X107082D01*
X105749Y16746D02*
Y18079D01*
X381275Y93045D02*
Y97044D01*
X379942Y95711D01*
X378609Y97044D01*
Y93045D01*
X377276D02*
Y97044D01*
X374610Y93045D01*
Y97044D01*
X373277Y96377D02*
X372611Y97044D01*
X371278D01*
X370612Y96377D01*
Y95711D01*
X371278Y95044D01*
X371945D01*
X371278D01*
X370612Y94378D01*
Y93712D01*
X371278Y93045D01*
X372611D01*
X373277Y93712D01*
X366613Y97044D02*
X367946Y96377D01*
X369279Y95044D01*
Y93712D01*
X368612Y93045D01*
X367279D01*
X366613Y93712D01*
Y94378D01*
X367279Y95044D01*
X369279D01*
X358571Y92510D02*
X362570D01*
X361237Y93843D01*
X362570Y95176D01*
X358571D01*
Y96509D02*
X362570D01*
X358571Y99175D01*
X362570D01*
X361903Y100507D02*
X362570Y101174D01*
Y102507D01*
X361903Y103173D01*
X361237D01*
X360570Y102507D01*
Y101840D01*
Y102507D01*
X359904Y103173D01*
X359238D01*
X358571Y102507D01*
Y101174D01*
X359238Y100507D01*
X358571Y106505D02*
X362570D01*
X360570Y104506D01*
Y107172D01*
X381275Y103045D02*
Y107044D01*
X379942Y105711D01*
X378609Y107044D01*
Y103045D01*
X377276D02*
Y107044D01*
X374610Y103045D01*
Y107044D01*
X370612Y103045D02*
X373277D01*
X370612Y105711D01*
Y106377D01*
X371278Y107044D01*
X372611D01*
X373277Y106377D01*
X369279Y103712D02*
X368612Y103045D01*
X367279D01*
X366613Y103712D01*
Y106377D01*
X367279Y107044D01*
X368612D01*
X369279Y106377D01*
Y105711D01*
X368612Y105044D01*
X366613D01*
X245250Y219750D02*
X249249D01*
Y221749D01*
X248582Y222416D01*
X247249D01*
X246583Y221749D01*
Y219750D01*
Y221083D02*
X245250Y222416D01*
X248582Y223749D02*
X249249Y224415D01*
Y225748D01*
X248582Y226415D01*
X247916D01*
X247249Y225748D01*
Y225082D01*
Y225748D01*
X246583Y226415D01*
X245916D01*
X245250Y225748D01*
Y224415D01*
X245916Y223749D01*
X248582Y227747D02*
X249249Y228414D01*
Y229747D01*
X248582Y230413D01*
X245916D01*
X245250Y229747D01*
Y228414D01*
X245916Y227747D01*
X248582D01*
X243084Y216082D02*
X243751Y216749D01*
X245084D01*
X245750Y216082D01*
Y213416D01*
X245084Y212750D01*
X243751D01*
X243084Y213416D01*
X241751Y216749D02*
X239086D01*
Y216082D01*
X241751Y213416D01*
Y212750D01*
X235087D02*
X237753D01*
X235087Y215416D01*
Y216082D01*
X235753Y216749D01*
X237086D01*
X237753Y216082D01*
X225082Y174416D02*
X225749Y173749D01*
Y172416D01*
X225082Y171750D01*
X222416D01*
X221750Y172416D01*
Y173749D01*
X222416Y174416D01*
X225749Y175749D02*
Y178414D01*
X225082D01*
X222416Y175749D01*
X221750D01*
X225749Y182413D02*
Y179747D01*
X223749D01*
X224416Y181080D01*
Y181747D01*
X223749Y182413D01*
X222416D01*
X221750Y181747D01*
Y180414D01*
X222416Y179747D01*
X217832Y178166D02*
X218499Y177499D01*
Y176166D01*
X217832Y175500D01*
X215166D01*
X214500Y176166D01*
Y177499D01*
X215166Y178166D01*
X218499Y179499D02*
Y182164D01*
X217832D01*
X215166Y179499D01*
X214500D01*
X218499Y186163D02*
X217832Y184830D01*
X216499Y183497D01*
X215166D01*
X214500Y184164D01*
Y185497D01*
X215166Y186163D01*
X215833D01*
X216499Y185497D01*
Y183497D01*
X292199Y92582D02*
X292866Y93249D01*
X294198D01*
X294865Y92582D01*
Y89916D01*
X294198Y89250D01*
X292866D01*
X292199Y89916D01*
X290866Y93249D02*
X288200D01*
Y92582D01*
X290866Y89916D01*
Y89250D01*
X286868D02*
X285535D01*
X286201D01*
Y93249D01*
X286868Y92582D01*
X223749Y68166D02*
Y65500D01*
X221749D01*
Y66833D01*
Y65500D01*
X219750D01*
Y69499D02*
X223749D01*
Y71498D01*
X223082Y72165D01*
X221749D01*
X221083Y71498D01*
Y69499D01*
Y70832D02*
X219750Y72165D01*
Y76163D02*
Y73497D01*
X222416Y76163D01*
X223082D01*
X223749Y75497D01*
Y74164D01*
X223082Y73497D01*
Y77496D02*
X223749Y78162D01*
Y79495D01*
X223082Y80162D01*
X222416D01*
X221749Y79495D01*
Y78829D01*
Y79495D01*
X221083Y80162D01*
X220417D01*
X219750Y79495D01*
Y78162D01*
X220417Y77496D01*
X217999Y68166D02*
Y65500D01*
X215999D01*
Y66833D01*
Y65500D01*
X214000D01*
Y69499D02*
X217999D01*
Y71498D01*
X217332Y72165D01*
X215999D01*
X215333Y71498D01*
Y69499D01*
Y70832D02*
X214000Y72165D01*
Y76163D02*
Y73497D01*
X216666Y76163D01*
X217332D01*
X217999Y75497D01*
Y74164D01*
X217332Y73497D01*
X214666Y77496D02*
X214000Y78162D01*
Y79495D01*
X214666Y80162D01*
X217332D01*
X217999Y79495D01*
Y78162D01*
X217332Y77496D01*
X216666D01*
X215999Y78162D01*
Y80162D01*
X281084Y92582D02*
X281751Y93249D01*
X283084D01*
X283750Y92582D01*
Y89916D01*
X283084Y89250D01*
X281751D01*
X281084Y89916D01*
X279751Y92582D02*
X279085Y93249D01*
X277752D01*
X277085Y92582D01*
Y91916D01*
X277752Y91249D01*
X277085Y90583D01*
Y89916D01*
X277752Y89250D01*
X279085D01*
X279751Y89916D01*
Y90583D01*
X279085Y91249D01*
X279751Y91916D01*
Y92582D01*
X279085Y91249D02*
X277752D01*
X275753Y92582D02*
X275086Y93249D01*
X273753D01*
X273087Y92582D01*
Y91916D01*
X273753Y91249D01*
X273087Y90583D01*
Y89916D01*
X273753Y89250D01*
X275086D01*
X275753Y89916D01*
Y90583D01*
X275086Y91249D01*
X275753Y91916D01*
Y92582D01*
X275086Y91249D02*
X273753D01*
X268284Y92582D02*
X268951Y93249D01*
X270284D01*
X270950Y92582D01*
Y89916D01*
X270284Y89250D01*
X268951D01*
X268284Y89916D01*
X264286Y93249D02*
X266951D01*
Y91249D01*
X265618Y91916D01*
X264952D01*
X264286Y91249D01*
Y89916D01*
X264952Y89250D01*
X266285D01*
X266951Y89916D01*
X262953Y92582D02*
X262286Y93249D01*
X260953D01*
X260287Y92582D01*
Y91916D01*
X260953Y91249D01*
X260287Y90583D01*
Y89916D01*
X260953Y89250D01*
X262286D01*
X262953Y89916D01*
Y90583D01*
X262286Y91249D01*
X262953Y91916D01*
Y92582D01*
X262286Y91249D02*
X260953D01*
X210749Y68166D02*
Y65500D01*
X208749D01*
Y66833D01*
Y65500D01*
X206750D01*
Y69499D02*
X210749D01*
Y71498D01*
X210082Y72165D01*
X208749D01*
X208083Y71498D01*
Y69499D01*
Y70832D02*
X206750Y72165D01*
Y73497D02*
Y74830D01*
Y74164D01*
X210749D01*
X210082Y73497D01*
X206750Y78829D02*
X210749D01*
X208749Y76830D01*
Y79495D01*
X305084Y92582D02*
X305751Y93249D01*
X307084D01*
X307750Y92582D01*
Y89916D01*
X307084Y89250D01*
X305751D01*
X305084Y89916D01*
X301085Y93249D02*
X303751D01*
Y91249D01*
X302418Y91916D01*
X301752D01*
X301085Y91249D01*
Y89916D01*
X301752Y89250D01*
X303085D01*
X303751Y89916D01*
X299753D02*
X299086Y89250D01*
X297753D01*
X297087Y89916D01*
Y92582D01*
X297753Y93249D01*
X299086D01*
X299753Y92582D01*
Y91916D01*
X299086Y91249D01*
X297087D01*
X314584Y77749D02*
X317250D01*
Y75749D01*
X315917D01*
X317250D01*
Y73750D01*
X313251D02*
Y77749D01*
X311252D01*
X310585Y77082D01*
Y75749D01*
X311252Y75083D01*
X313251D01*
X311918D02*
X310585Y73750D01*
X309253D02*
X307920D01*
X308586D01*
Y77749D01*
X309253Y77082D01*
X305920D02*
X305254Y77749D01*
X303921D01*
X303255Y77082D01*
Y76416D01*
X303921Y75749D01*
X304587D01*
X303921D01*
X303255Y75083D01*
Y74416D01*
X303921Y73750D01*
X305254D01*
X305920Y74416D01*
X256034Y92582D02*
X256701Y93249D01*
X258034D01*
X258700Y92582D01*
Y89916D01*
X258034Y89250D01*
X256701D01*
X256034Y89916D01*
X252036Y93249D02*
X254701D01*
Y91249D01*
X253368Y91916D01*
X252702D01*
X252036Y91249D01*
Y89916D01*
X252702Y89250D01*
X254035D01*
X254701Y89916D01*
X250703Y93249D02*
X248037D01*
Y92582D01*
X250703Y89916D01*
Y89250D01*
X203749Y68166D02*
Y65500D01*
X201749D01*
Y66833D01*
Y65500D01*
X199750D01*
Y69499D02*
X203749D01*
Y71498D01*
X203082Y72165D01*
X201749D01*
X201083Y71498D01*
Y69499D01*
Y70832D02*
X199750Y72165D01*
Y73497D02*
Y74830D01*
Y74164D01*
X203749D01*
X203082Y73497D01*
X203749Y79495D02*
Y76830D01*
X201749D01*
X202416Y78162D01*
Y78829D01*
X201749Y79495D01*
X200416D01*
X199750Y78829D01*
Y77496D01*
X200416Y76830D01*
X243834Y92582D02*
X244501Y93249D01*
X245833D01*
X246500Y92582D01*
Y89916D01*
X245833Y89250D01*
X244501D01*
X243834Y89916D01*
X239835Y93249D02*
X242501D01*
Y91249D01*
X241168Y91916D01*
X240502D01*
X239835Y91249D01*
Y89916D01*
X240502Y89250D01*
X241835D01*
X242501Y89916D01*
X235837Y93249D02*
X237170Y92582D01*
X238503Y91249D01*
Y89916D01*
X237836Y89250D01*
X236503D01*
X235837Y89916D01*
Y90583D01*
X236503Y91249D01*
X238503D01*
X194000Y65500D02*
X197999D01*
Y67499D01*
X197332Y68166D01*
X195999D01*
X195333Y67499D01*
Y65500D01*
Y66833D02*
X194000Y68166D01*
Y72165D02*
Y69499D01*
X196666Y72165D01*
X197332D01*
X197999Y71498D01*
Y70165D01*
X197332Y69499D01*
X194666Y73497D02*
X194000Y74164D01*
Y75497D01*
X194666Y76163D01*
X197332D01*
X197999Y75497D01*
Y74164D01*
X197332Y73497D01*
X196666D01*
X195999Y74164D01*
Y76163D01*
X351082Y165916D02*
X351749Y165249D01*
Y163916D01*
X351082Y163250D01*
X348416D01*
X347750Y163916D01*
Y165249D01*
X348416Y165916D01*
X351749Y169914D02*
X351082Y168582D01*
X349749Y167249D01*
X348416D01*
X347750Y167915D01*
Y169248D01*
X348416Y169914D01*
X349083D01*
X349749Y169248D01*
Y167249D01*
X351749Y173913D02*
Y171247D01*
X349749D01*
X350416Y172580D01*
Y173247D01*
X349749Y173913D01*
X348416D01*
X347750Y173247D01*
Y171914D01*
X348416Y171247D01*
X388584Y166999D02*
X391250D01*
Y164999D01*
X389917D01*
X391250D01*
Y163000D01*
X387251D02*
Y166999D01*
X385252D01*
X384585Y166332D01*
Y164999D01*
X385252Y164333D01*
X387251D01*
X385918D02*
X384585Y163000D01*
X380587D02*
X383253D01*
X380587Y165666D01*
Y166332D01*
X381253Y166999D01*
X382586D01*
X383253Y166332D01*
X376588Y163000D02*
X379254D01*
X376588Y165666D01*
Y166332D01*
X377254Y166999D01*
X378587D01*
X379254Y166332D01*
X390584Y154999D02*
X393250D01*
Y152999D01*
X391917D01*
X393250D01*
Y151000D01*
X389251D02*
Y154999D01*
X387252D01*
X386586Y154332D01*
Y152999D01*
X387252Y152333D01*
X389251D01*
X387918D02*
X386586Y151000D01*
X382587D02*
X385253D01*
X382587Y153666D01*
Y154332D01*
X383253Y154999D01*
X384586D01*
X385253Y154332D01*
X381254Y154999D02*
X378588D01*
Y154332D01*
X381254Y151666D01*
Y151000D01*
X308499Y49916D02*
Y47250D01*
X306499D01*
Y48583D01*
Y47250D01*
X304500D01*
Y51249D02*
X308499D01*
Y53248D01*
X307832Y53914D01*
X306499D01*
X305833Y53248D01*
Y51249D01*
Y52582D02*
X304500Y53914D01*
Y57247D02*
X308499D01*
X306499Y55247D01*
Y57913D01*
X308499Y59246D02*
Y61912D01*
X307832D01*
X305166Y59246D01*
X304500D01*
X297832Y37916D02*
X298499Y37249D01*
Y35916D01*
X297832Y35250D01*
X295166D01*
X294500Y35916D01*
Y37249D01*
X295166Y37916D01*
X294500Y41915D02*
Y39249D01*
X297166Y41915D01*
X297832D01*
X298499Y41248D01*
Y39915D01*
X297832Y39249D01*
Y43247D02*
X298499Y43914D01*
Y45247D01*
X297832Y45913D01*
X295166D01*
X294500Y45247D01*
Y43914D01*
X295166Y43247D01*
X297832D01*
X294500Y47246D02*
Y48579D01*
Y47913D01*
X298499D01*
X297832Y47246D01*
X279750Y55249D02*
Y51250D01*
X277084D01*
X273085Y55249D02*
X275751D01*
Y53249D01*
X274418Y53916D01*
X273752D01*
X273085Y53249D01*
Y51916D01*
X273752Y51250D01*
X275085D01*
X275751Y51916D01*
X191834Y38999D02*
X194500D01*
Y36999D01*
X193167D01*
X194500D01*
Y35000D01*
X190501D02*
Y38999D01*
X188502D01*
X187836Y38332D01*
Y36999D01*
X188502Y36333D01*
X190501D01*
X189168D02*
X187836Y35000D01*
X184503D02*
Y38999D01*
X186503Y36999D01*
X183837D01*
X179838Y38999D02*
X182504D01*
Y36999D01*
X181171Y37666D01*
X180505D01*
X179838Y36999D01*
Y35666D01*
X180505Y35000D01*
X181838D01*
X182504Y35666D01*
X246250Y26249D02*
Y22250D01*
X243584D01*
X239585D02*
X242251D01*
X239585Y24916D01*
Y25582D01*
X240252Y26249D01*
X241585D01*
X242251Y25582D01*
X279750Y26249D02*
Y22250D01*
X277084D01*
X275751Y25582D02*
X275085Y26249D01*
X273752D01*
X273085Y25582D01*
Y24916D01*
X273752Y24249D01*
X274418D01*
X273752D01*
X273085Y23583D01*
Y22916D01*
X273752Y22250D01*
X275085D01*
X275751Y22916D01*
X246250Y55249D02*
Y51250D01*
X243584D01*
X240252D02*
Y55249D01*
X242251Y53249D01*
X239586D01*
X230832Y38416D02*
X231499Y37749D01*
Y36416D01*
X230832Y35750D01*
X228166D01*
X227500Y36416D01*
Y37749D01*
X228166Y38416D01*
X227500Y39749D02*
Y41082D01*
Y40415D01*
X231499D01*
X230832Y39749D01*
X228166Y43081D02*
X227500Y43747D01*
Y45080D01*
X228166Y45747D01*
X230832D01*
X231499Y45080D01*
Y43747D01*
X230832Y43081D01*
X230166D01*
X229499Y43747D01*
Y45747D01*
X230832Y47080D02*
X231499Y47746D01*
Y49079D01*
X230832Y49745D01*
X230166D01*
X229499Y49079D01*
X228833Y49745D01*
X228166D01*
X227500Y49079D01*
Y47746D01*
X228166Y47080D01*
X228833D01*
X229499Y47746D01*
X230166Y47080D01*
X230832D01*
X229499Y47746D02*
Y49079D01*
X191834Y27999D02*
X194500D01*
Y25999D01*
X193167D01*
X194500D01*
Y24000D01*
X190501D02*
Y27999D01*
X188502D01*
X187836Y27332D01*
Y25999D01*
X188502Y25333D01*
X190501D01*
X189169D02*
X187836Y24000D01*
X184503D02*
Y27999D01*
X186503Y25999D01*
X183837D01*
X180505Y24000D02*
Y27999D01*
X182504Y25999D01*
X179838D01*
X307499Y10916D02*
Y8250D01*
X305499D01*
Y9583D01*
Y8250D01*
X303500D01*
Y12249D02*
X307499D01*
Y14248D01*
X306832Y14914D01*
X305499D01*
X304833Y14248D01*
Y12249D01*
Y13582D02*
X303500Y14914D01*
X307499Y18913D02*
Y16247D01*
X305499D01*
X306166Y17580D01*
Y18247D01*
X305499Y18913D01*
X304166D01*
X303500Y18247D01*
Y16914D01*
X304166Y16247D01*
X303500Y20246D02*
Y21579D01*
Y20912D01*
X307499D01*
X306832Y20246D01*
X297332Y5166D02*
X297999Y4499D01*
Y3166D01*
X297332Y2500D01*
X294666D01*
X294000Y3166D01*
Y4499D01*
X294666Y5166D01*
X294000Y6499D02*
Y7832D01*
Y7165D01*
X297999D01*
X297332Y6499D01*
X294666Y9831D02*
X294000Y10497D01*
Y11830D01*
X294666Y12497D01*
X297332D01*
X297999Y11830D01*
Y10497D01*
X297332Y9831D01*
X296666D01*
X295999Y10497D01*
Y12497D01*
X297999Y16495D02*
Y13830D01*
X295999D01*
X296666Y15163D01*
Y15829D01*
X295999Y16495D01*
X294666D01*
X294000Y15829D01*
Y14496D01*
X294666Y13830D01*
D34*
X390525Y99045D02*
D03*
X372475Y57535D02*
D03*
X322750Y37250D02*
D03*
X317500Y21750D02*
D03*
X50750Y173750D02*
D03*
X138500Y85000D02*
D03*
X80750Y211969D02*
D03*
X108500Y224236D02*
D03*
X12250Y237250D02*
D03*
X356771Y42000D02*
D03*
X397500Y262000D02*
D03*
X63245Y29750D02*
D03*
X20104Y29750D02*
D03*
X73745Y29750D02*
D03*
X356975Y52535D02*
D03*
X341475Y57535D02*
D03*
X356975Y62535D02*
D03*
X292000Y220500D02*
D03*
X282000Y231000D02*
D03*
X272000Y220500D02*
D03*
X339500Y237500D02*
D03*
Y268500D02*
D03*
X334500Y253000D02*
D03*
X329500Y227000D02*
D03*
X344500Y253000D02*
D03*
X349500Y227000D02*
D03*
X287000Y246500D02*
D03*
X277000D02*
D03*
X282000Y262000D02*
D03*
X359525Y78045D02*
D03*
X375025Y83045D02*
D03*
X390525Y78045D02*
D03*
X375025Y73045D02*
D03*
X359000Y210500D02*
D03*
X359000Y190500D02*
D03*
X400500Y200500D02*
D03*
X385000Y205500D02*
D03*
Y195500D02*
D03*
X369500Y200500D02*
D03*
X375025Y94045D02*
D03*
X359525Y99045D02*
D03*
X375025Y104045D02*
D03*
X306500Y53750D02*
D03*
X207750Y36500D02*
D03*
X207750Y25500D02*
D03*
X305750Y15500D02*
D03*
D129*
X238250Y289500D02*
G03*
X238250Y289500I-1000J0D01*
G01*
X345145Y199500D02*
G03*
X345145Y199500I-500J0D01*
G01*
X15521Y61750D02*
G03*
X15521Y61750I-1521J0D01*
G01*
Y93500D02*
G03*
X15521Y93500I-1521J0D01*
G01*
D142*
X27250Y71250D02*
D03*
Y103000D02*
D03*
D206*
X14250Y15250D02*
G03*
X14250Y15250I-250J0D01*
G01*
X14759Y173846D02*
G03*
X14759Y173846I-250J0D01*
G01*
X32000Y50750D02*
G03*
X32000Y50750I-250J0D01*
G01*
X89000Y235250D02*
G03*
X89000Y235250I-250J0D01*
G01*
X129750Y234750D02*
G03*
X129750Y234750I-250J0D01*
G01*
X422750Y168000D02*
G03*
X422750Y168000I-250J0D01*
G01*
X429750Y66050D02*
G03*
X429750Y66050I-250J0D01*
G01*
X437250Y66000D02*
G03*
X437250Y66000I-250J0D01*
G01*
X317750Y7000D02*
G03*
X317750Y7000I-250J0D01*
G01*
X249500Y287250D02*
G03*
X249500Y287250I-250J0D01*
G01*
X401300Y4000D02*
G03*
X401300Y4000I-250J0D01*
G01*
X67000Y11550D02*
G03*
X67000Y11550I-250J0D01*
G01*
X51750Y203500D02*
G03*
X51750Y203500I-250J0D01*
G01*
X141250Y292250D02*
G03*
X141250Y292250I-250J0D01*
G01*
X38816Y43666D02*
G03*
X38816Y43666I-250J0D01*
G01*
X26488D02*
G03*
X26488Y43666I-250J0D01*
G01*
X338750Y21500D02*
G03*
X338750Y21500I-250J0D01*
G01*
X328000Y26500D02*
G03*
X328000Y26500I-250J0D01*
G01*
X220250Y225000D02*
G03*
X220250Y225000I-250J0D01*
G01*
X227500Y232500D02*
G03*
X227500Y232500I-250J0D01*
G01*
X212700Y232800D02*
G03*
X212700Y232800I-250J0D01*
G01*
X138750Y246550D02*
G03*
X138750Y246550I-250J0D01*
G01*
X163000Y234354D02*
G03*
X163000Y234354I-250J0D01*
G01*
X211200Y217500D02*
G03*
X211200Y217500I-250J0D01*
G01*
X146750Y239500D02*
G03*
X146750Y239500I-250J0D01*
G01*
X203750Y228500D02*
G03*
X203750Y228500I-250J0D01*
G01*
Y217500D02*
G03*
X203750Y217500I-250J0D01*
G01*
X141250Y282250D02*
G03*
X141250Y282250I-250J0D01*
G01*
X15500Y151750D02*
G03*
X15500Y151750I-250J0D01*
G01*
X50000Y194500D02*
G03*
X50000Y194500I-250J0D01*
G01*
Y187000D02*
G03*
X50000Y187000I-250J0D01*
G01*
X17300Y191300D02*
G03*
X17300Y191300I-250J0D01*
G01*
X32000Y212750D02*
G03*
X32000Y212750I-250J0D01*
G01*
X45000Y163750D02*
G03*
X45000Y163750I-250J0D01*
G01*
X409250Y179750D02*
G03*
X409250Y179750I-250J0D01*
G01*
X421200Y187000D02*
G03*
X421200Y187000I-250J0D01*
G01*
X409200D02*
G03*
X409200Y187000I-250J0D01*
G01*
X122500Y221250D02*
G03*
X122500Y221250I-250J0D01*
G01*
X6750Y289950D02*
G03*
X6750Y289950I-250J0D01*
G01*
X302750Y266000D02*
G03*
X302750Y266000I-250J0D01*
G01*
X261750Y259500D02*
G03*
X261750Y259500I-250J0D01*
G01*
X390500Y182000D02*
G03*
X390500Y182000I-250J0D01*
G01*
X399250D02*
G03*
X399250Y182000I-250J0D01*
G01*
X302750Y259500D02*
G03*
X302750Y259500I-250J0D01*
G01*
X387500Y225500D02*
G03*
X387500Y225500I-250J0D01*
G01*
X261750Y266000D02*
G03*
X261750Y266000I-250J0D01*
G01*
X394000Y225500D02*
G03*
X394000Y225500I-250J0D01*
G01*
X358550Y242500D02*
G03*
X358550Y242500I-250J0D01*
G01*
X374500Y181750D02*
G03*
X374500Y181750I-250J0D01*
G01*
X358550Y236000D02*
G03*
X358550Y236000I-250J0D01*
G01*
X368000Y181750D02*
G03*
X368000Y181750I-250J0D01*
G01*
X320950Y242500D02*
G03*
X320950Y242500I-250J0D01*
G01*
X374750Y219500D02*
G03*
X374750Y219500I-250J0D01*
G01*
X320950Y236000D02*
G03*
X320950Y236000I-250J0D01*
G01*
X368250Y219500D02*
G03*
X368250Y219500I-250J0D01*
G01*
X220750Y214750D02*
G03*
X220750Y214750I-250J0D01*
G01*
X78450Y234450D02*
G03*
X78450Y234450I-250J0D01*
G01*
X130050Y225550D02*
G03*
X130050Y225550I-250J0D01*
G01*
X194500Y153750D02*
G03*
X194500Y153750I-250J0D01*
G01*
X201250Y159350D02*
G03*
X201250Y159350I-250J0D01*
G01*
X353750Y260750D02*
G03*
X353750Y260750I-250J0D01*
G01*
X242000Y74500D02*
G03*
X242000Y74500I-250J0D01*
G01*
X254500Y65750D02*
G03*
X254500Y65750I-250J0D01*
G01*
X231450Y71707D02*
G03*
X231450Y71707I-250J0D01*
G01*
X84250Y66000D02*
G03*
X84250Y66000I-250J0D01*
G01*
X209425Y136970D02*
G03*
X209425Y136970I-250J0D01*
G01*
X247000Y240500D02*
G03*
X247000Y240500I-250J0D01*
G01*
X6750Y266800D02*
G03*
X6750Y266800I-250J0D01*
G01*
X248550Y267800D02*
G03*
X248550Y267800I-250J0D01*
G01*
X6750Y278750D02*
G03*
X6750Y278750I-250J0D01*
G01*
X239500Y240500D02*
G03*
X239500Y240500I-250J0D01*
G01*
X67700Y248450D02*
G03*
X67700Y248450I-250J0D01*
G01*
X250000Y252750D02*
G03*
X250000Y252750I-250J0D01*
G01*
X25550Y248250D02*
G03*
X25550Y248250I-250J0D01*
G01*
X13050Y252500D02*
G03*
X13050Y252500I-250J0D01*
G01*
X118407Y67708D02*
G03*
X118407Y67708I-250J0D01*
G01*
X81750Y89250D02*
G03*
X81750Y89250I-250J0D01*
G01*
X87636Y57579D02*
G03*
X87636Y57579I-250J0D01*
G01*
X361500Y120150D02*
G03*
X361500Y120150I-250J0D01*
G01*
X417000Y123250D02*
G03*
X417000Y123250I-250J0D01*
G01*
X358750Y138750D02*
G03*
X358750Y138750I-250J0D01*
G01*
X7500Y130500D02*
G03*
X7500Y130500I-250J0D01*
G01*
X7500Y122058D02*
G03*
X7500Y122058I-250J0D01*
G01*
X20245Y6750D02*
G03*
X20245Y6750I-250J0D01*
G01*
X4493Y142417D02*
G03*
X4493Y142417I-250J0D01*
G01*
Y148747D02*
G03*
X4493Y148747I-250J0D01*
G01*
X361250Y154850D02*
G03*
X361250Y154850I-250J0D01*
G01*
X451000Y231000D02*
G03*
X451000Y231000I-250J0D01*
G01*
X444500Y231000D02*
G03*
X444500Y231000I-250J0D01*
G01*
X430450Y232550D02*
G03*
X430450Y232550I-250J0D01*
G01*
X354000Y276050D02*
G03*
X354000Y276050I-250J0D01*
G01*
X361500D02*
G03*
X361500Y276050I-250J0D01*
G01*
X361250Y264500D02*
G03*
X361250Y264500I-250J0D01*
G01*
X396235Y119100D02*
G03*
X396235Y119100I-250J0D01*
G01*
X407500Y118500D02*
G03*
X407500Y118500I-250J0D01*
G01*
X55161Y126442D02*
G03*
X55161Y126442I-250J0D01*
G01*
X71602Y106042D02*
G03*
X71602Y106042I-250J0D01*
G01*
X60641Y117002D02*
G03*
X60641Y117002I-250J0D01*
G01*
X85429Y200750D02*
G03*
X85429Y200750I-250J0D01*
G01*
X66122Y111522D02*
G03*
X66122Y111522I-250J0D01*
G01*
X361500Y127500D02*
G03*
X361500Y127500I-250J0D01*
G01*
X254500Y223000D02*
G03*
X254500Y223000I-250J0D01*
G01*
X253500Y214500D02*
G03*
X253500Y214500I-250J0D01*
G01*
X223500Y189750D02*
G03*
X223500Y189750I-250J0D01*
G01*
X217000Y194000D02*
G03*
X217000Y194000I-250J0D01*
G01*
X290115Y84000D02*
G03*
X290115Y84000I-250J0D01*
G01*
X290250Y74500D02*
G03*
X290250Y74500I-250J0D01*
G01*
X281750D02*
G03*
X281750Y74500I-250J0D01*
G01*
X279000Y84000D02*
G03*
X279000Y84000I-250J0D01*
G01*
X268200D02*
G03*
X268200Y84000I-250J0D01*
G01*
X271000Y74500D02*
G03*
X271000Y74500I-250J0D01*
G01*
X301000Y84000D02*
G03*
X301000Y84000I-250J0D01*
G01*
X298250Y74500D02*
G03*
X298250Y74500I-250J0D01*
G01*
X257200Y84000D02*
G03*
X257200Y84000I-250J0D01*
G01*
X259950Y74500D02*
G03*
X259950Y74500I-250J0D01*
G01*
X246200Y84000D02*
G03*
X246200Y84000I-250J0D01*
G01*
X249000Y74500D02*
G03*
X249000Y74500I-250J0D01*
G01*
X360250Y168750D02*
G03*
X360250Y168750I-250J0D01*
G01*
X369300Y165950D02*
G03*
X369300Y165950I-250J0D01*
G01*
X370500Y152050D02*
G03*
X370500Y152050I-250J0D01*
G01*
D207*
X299750Y241250D02*
D03*
X226000Y15500D02*
D03*
X264250Y241250D02*
D03*
X169000Y79500D02*
D03*
X318500Y56250D02*
D03*
X66340Y186599D02*
D03*
X138000Y72750D02*
D03*
X80750Y223000D02*
D03*
X61750Y64500D02*
D03*
X70289Y86750D02*
D03*
X169250Y46500D02*
D03*
X102250D02*
D03*
X169250Y15500D02*
D03*
X102250D02*
D03*
X293000Y46500D02*
D03*
X226000Y46500D02*
D03*
X293000Y15500D02*
D03*
D208*
X218750Y221500D02*
X221749D01*
Y222999D01*
X221249Y223499D01*
X220250D01*
X219750Y222999D01*
Y221500D01*
Y222500D02*
X218750Y223499D01*
Y224499D02*
Y225499D01*
Y224999D01*
X221749D01*
X221249Y224499D01*
Y226998D02*
X221749Y227498D01*
Y228498D01*
X221249Y228998D01*
X219250D01*
X218750Y228498D01*
Y227498D01*
X219250Y226998D01*
X221249D01*
X263001Y260999D02*
X263500Y261499D01*
X264500D01*
X265000Y260999D01*
Y259000D01*
X264500Y258500D01*
X263500D01*
X263001Y259000D01*
X262001Y258500D02*
X261001D01*
X261501D01*
Y261499D01*
X262001Y260999D01*
X259502D02*
X259002Y261499D01*
X258002D01*
X257502Y260999D01*
Y260499D01*
X258002Y260000D01*
X258502D01*
X258002D01*
X257502Y259500D01*
Y259000D01*
X258002Y258500D01*
X259002D01*
X259502Y259000D01*
X263001Y266999D02*
X263500Y267499D01*
X264500D01*
X265000Y266999D01*
Y265000D01*
X264500Y264500D01*
X263500D01*
X263001Y265000D01*
X262001Y264500D02*
X261001D01*
X261501D01*
Y267499D01*
X262001Y266999D01*
X259502D02*
X259002Y267499D01*
X258002D01*
X257502Y266999D01*
Y266499D01*
X258002Y266000D01*
X257502Y265500D01*
Y265000D01*
X258002Y264500D01*
X259002D01*
X259502Y265000D01*
Y265500D01*
X259002Y266000D01*
X259502Y266499D01*
Y266999D01*
X259002Y266000D02*
X258002D01*
X89171Y199750D02*
Y202749D01*
X87671D01*
X87172Y202249D01*
Y201250D01*
X87671Y200750D01*
X89171D01*
X88171D02*
X87172Y199750D01*
X84173D02*
X86172D01*
X84173Y201749D01*
Y202249D01*
X84672Y202749D01*
X85672D01*
X86172Y202249D01*
X83173Y199750D02*
X82173D01*
X82673D01*
Y202749D01*
X83173Y202249D01*
M02*
