M48
;Layer_Color=9474304
;FILE_FORMAT=4:4
METRIC,LZ
;TYPE=PLATED
T1F00S00C0.1500
T2F00S00C0.2000
;TYPE=NON_PLATED
%
T01
X00022Y0024075
Y0024475
T02
X0000725Y0012625
X0001288
X00061634Y00137893
X0006517Y00141429
Y00155571
X00061634Y00159107
X00075776Y00166178
X00079312Y00169713
X00082847Y00173249
X00086383Y00176784
X00089918Y0018032
X00093454Y00183855
X0009699Y00187391
X0013588Y00183855
X00160629Y00159107
Y00152036
X00164165Y001485
Y00155571
X00160629Y00137893
X00153558Y00130822
X00150023Y00127287
X00146487Y00123751
X00142951Y00127287
X001405Y00117
X00132345Y00109609
X00128809Y00106074
X00121738Y00099003
X00114667Y00099003
X00111132Y00102538
X00111132Y00095467
X00107596Y00099003
X00104061Y00102538
X0009075Y001025
X00092336Y00097885
X0008525Y0009595
X000845Y0010105
X00082847Y0011668
X00086383Y00120216
X00075776Y00123751
X00079312Y00127287
X00121738Y00134358
X00149337Y00142114
X0015575Y00115
X001585Y0010775
X00131875Y00090875
X00114667Y00091931
X000925Y00088868
X0009275Y00081434
X00089158Y00078342
X000925Y00074
X00096092Y00077592
X00099934Y0007425
X00103276Y00070408
X0011425Y0006225
X000925Y00059632
X00085066Y00066566
X00176957Y00135707
X00186621Y00138871
X00023833Y00179226
X00242715Y00173431
X00246045Y00176761
Y00170101
Y00163441
X00249375Y00166771
X00249375Y0016011
X00242715Y00160111
Y0013347
X00246045Y0013014
X00249375Y0013347
X00252705Y0013014
X0020475Y0013475
X0028825Y0008925
X0035175Y001115
X00349509Y0014625
X00335955Y0014679
Y0015345
X00329295
X00329375Y0016003
X00339285Y0015678
X00342615Y0016011
X00332625Y0015012
X00335955Y0014013
X00339285Y001368
X00332625Y00190081
X004039Y00187
X00440064Y00176814
X00452757Y0017675
X00444Y00148
X0043975Y001495
X004415Y0012225
X00444Y001185
X004385Y001095
X0044825Y0010775
X004545Y000985
X004315Y001035
X00445Y0007
X0045025Y0006575
X003235Y00031
Y0002675
Y0002225
X00272685Y00196741
X00259365
X00262695Y00193411
X00262548Y00204952
X0027025Y00211
X0027475Y0021425
X0025875Y0026275
X0040675Y002095
X0044925Y002065
X0045275Y00203
X004563Y0022825
X004355Y0023575
X0014325Y0022675
X001285Y0020525
X00114667Y00205069
X00111132Y00201533
X00107596Y00197997
X00104061Y00194462
X00100169Y00205425
X00096Y0020825
X00118203Y00201533
X00121738Y00197997
X00125274Y00194462
X000215Y00191
X0001225Y002025
X-0000675Y00217
Y0022525
X00035Y00239
X0003775Y0024425
X000475Y00245
X0004575Y002565
X000505
X000595Y0023975
X00031Y0024825
M30
