G04*
G04 #@! TF.GenerationSoftware,Altium Limited,Altium Designer,19.1.6 (110)*
G04*
G04 Layer_Color=32896*
%FSLAX44Y44*%
%MOMM*%
G71*
G01*
G75*
%ADD10C,0.2540*%
%ADD12C,0.2000*%
%ADD13C,0.1500*%
%ADD14C,0.2500*%
%ADD15C,0.1000*%
%ADD16C,0.1270*%
%ADD202C,0.0762*%
G36*
X57750Y6750D02*
X55750D01*
Y4750D01*
X57750D01*
Y6750D01*
D02*
G37*
G36*
X22000Y69250D02*
X22000Y66250D01*
X25000Y66250D01*
X22000Y69250D01*
D02*
G37*
G36*
Y101000D02*
X22000Y98000D01*
X25000Y98000D01*
X22000Y101000D01*
D02*
G37*
G36*
X45778Y143850D02*
Y153150D01*
X41128Y148500D01*
X45778Y143850D01*
D02*
G37*
G36*
X385750Y33500D02*
Y29500D01*
X383500D01*
Y33500D01*
X385750D01*
D02*
G37*
G36*
X413375Y146250D02*
Y149000D01*
X408000D01*
X413375Y146250D01*
D02*
G37*
G36*
X353646Y202499D02*
X353645Y210500D01*
X345646Y210499D01*
X353646Y202499D01*
D02*
G37*
G36*
X401750Y216750D02*
Y212750D01*
X405750D01*
X401750Y216750D01*
D02*
G37*
G36*
X390500Y280750D02*
Y284750D01*
X386500D01*
X390500Y280750D01*
D02*
G37*
G36*
X212793Y61000D02*
X209175D01*
X208959Y61009D01*
X208753D01*
X208575Y61019D01*
X208397Y61038D01*
X208247Y61047D01*
X208106Y61056D01*
X207985Y61075D01*
X207872Y61084D01*
X207778Y61094D01*
X207694Y61113D01*
X207628Y61122D01*
X207582Y61131D01*
X207544D01*
X207525Y61141D01*
X207516D01*
X207319Y61197D01*
X207122Y61253D01*
X206944Y61309D01*
X206776Y61375D01*
X206616Y61450D01*
X206466Y61516D01*
X206335Y61581D01*
X206213Y61647D01*
X206101Y61712D01*
X206007Y61769D01*
X205923Y61816D01*
X205857Y61862D01*
X205801Y61900D01*
X205763Y61928D01*
X205745Y61947D01*
X205735Y61956D01*
X205567Y62097D01*
X205417Y62237D01*
X205126Y62547D01*
X204995Y62706D01*
X204864Y62865D01*
X204751Y63025D01*
X204648Y63175D01*
X204564Y63315D01*
X204479Y63446D01*
X204414Y63559D01*
X204348Y63662D01*
X204301Y63746D01*
X204273Y63802D01*
X204254Y63849D01*
X204245Y63859D01*
X204142Y64093D01*
X204048Y64327D01*
X203964Y64562D01*
X203898Y64796D01*
X203842Y65030D01*
X203795Y65265D01*
X203748Y65480D01*
X203720Y65686D01*
X203692Y65883D01*
X203673Y66061D01*
X203664Y66221D01*
X203655Y66352D01*
X203645Y66464D01*
Y66549D01*
Y66596D01*
Y66614D01*
X203655Y66877D01*
X203673Y67130D01*
X203692Y67355D01*
X203720Y67552D01*
X203739Y67636D01*
X203758Y67711D01*
X203767Y67786D01*
X203776Y67842D01*
X203786Y67889D01*
X203795Y67917D01*
X203804Y67936D01*
Y67945D01*
X203870Y68170D01*
X203936Y68367D01*
X204011Y68554D01*
X204076Y68704D01*
X204142Y68836D01*
X204189Y68929D01*
X204207Y68967D01*
X204226Y68995D01*
X204236Y69004D01*
Y69014D01*
X204339Y69182D01*
X204451Y69332D01*
X204564Y69473D01*
X204667Y69585D01*
X204751Y69679D01*
X204826Y69754D01*
X204873Y69792D01*
X204892Y69810D01*
X205042Y69932D01*
X205182Y70035D01*
X205332Y70120D01*
X205464Y70195D01*
X205576Y70251D01*
X205670Y70298D01*
X205726Y70317D01*
X205735Y70326D01*
X205745D01*
X205923Y70392D01*
X206110Y70448D01*
X206288Y70485D01*
X206457Y70523D01*
X206598Y70541D01*
X206663Y70551D01*
X206710Y70560D01*
X206757D01*
X206785Y70570D01*
X206813D01*
X206879Y70579D01*
X206963D01*
X207057Y70588D01*
X207160D01*
X207385Y70598D01*
X207619Y70607D01*
X210787D01*
X212793Y61000D01*
D02*
G37*
G36*
X203092D02*
X201124D01*
X200290Y64984D01*
X199362D01*
X199240Y64974D01*
X199034Y64955D01*
X198874Y64918D01*
X198734Y64890D01*
X198631Y64852D01*
X198565Y64815D01*
X198518Y64796D01*
X198509Y64787D01*
X198425Y64721D01*
X198340Y64646D01*
X198256Y64552D01*
X198181Y64459D01*
X198031Y64252D01*
X197900Y64037D01*
X197787Y63840D01*
X197750Y63756D01*
X197712Y63681D01*
X197675Y63615D01*
X197656Y63568D01*
X197637Y63540D01*
Y63531D01*
X197506Y63221D01*
X197384Y62931D01*
X197272Y62659D01*
X197169Y62406D01*
X197075Y62181D01*
X196991Y61975D01*
X196925Y61787D01*
X196859Y61619D01*
X196803Y61469D01*
X196756Y61347D01*
X196719Y61244D01*
X196691Y61150D01*
X196663Y61084D01*
X196644Y61038D01*
X196635Y61009D01*
Y61000D01*
X194507D01*
X194657Y61375D01*
X194807Y61722D01*
X194947Y62059D01*
X195079Y62359D01*
X195210Y62650D01*
X195332Y62912D01*
X195444Y63147D01*
X195557Y63362D01*
X195650Y63549D01*
X195735Y63718D01*
X195810Y63859D01*
X195875Y63971D01*
X195922Y64065D01*
X195960Y64121D01*
X195978Y64168D01*
X195988Y64177D01*
X196110Y64374D01*
X196241Y64552D01*
X196353Y64712D01*
X196466Y64843D01*
X196560Y64937D01*
X196635Y65012D01*
X196681Y65058D01*
X196700Y65077D01*
X196428Y65124D01*
X196175Y65171D01*
X195941Y65237D01*
X195725Y65311D01*
X195529Y65387D01*
X195341Y65471D01*
X195182Y65555D01*
X195032Y65640D01*
X194900Y65724D01*
X194788Y65799D01*
X194694Y65874D01*
X194619Y65930D01*
X194554Y65986D01*
X194516Y66024D01*
X194488Y66052D01*
X194479Y66061D01*
X194348Y66211D01*
X194235Y66380D01*
X194132Y66549D01*
X194048Y66717D01*
X193982Y66886D01*
X193916Y67055D01*
X193870Y67214D01*
X193832Y67373D01*
X193804Y67523D01*
X193776Y67655D01*
X193757Y67776D01*
X193748Y67880D01*
X193738Y67964D01*
Y68030D01*
Y68076D01*
Y68086D01*
X193757Y68395D01*
X193795Y68676D01*
X193860Y68929D01*
X193898Y69042D01*
X193926Y69145D01*
X193963Y69229D01*
X194001Y69314D01*
X194029Y69379D01*
X194066Y69445D01*
X194085Y69492D01*
X194104Y69520D01*
X194123Y69539D01*
Y69548D01*
X194273Y69754D01*
X194432Y69932D01*
X194601Y70073D01*
X194760Y70185D01*
X194900Y70270D01*
X194957Y70307D01*
X195013Y70326D01*
X195060Y70345D01*
X195088Y70363D01*
X195107Y70373D01*
X195116D01*
X195238Y70410D01*
X195360Y70448D01*
X195641Y70504D01*
X195922Y70551D01*
X196194Y70579D01*
X196325Y70588D01*
X196447Y70598D01*
X196550D01*
X196644Y70607D01*
X201087D01*
X203092Y61000D01*
D02*
G37*
G36*
X217198Y70766D02*
X217479Y70738D01*
X217751Y70701D01*
X217995Y70654D01*
X218220Y70588D01*
X218426Y70523D01*
X218623Y70448D01*
X218791Y70373D01*
X218941Y70298D01*
X219072Y70223D01*
X219185Y70157D01*
X219279Y70092D01*
X219344Y70045D01*
X219401Y70007D01*
X219429Y69979D01*
X219438Y69970D01*
X219588Y69820D01*
X219729Y69651D01*
X219841Y69492D01*
X219944Y69323D01*
X220028Y69154D01*
X220094Y68986D01*
X220150Y68817D01*
X220197Y68667D01*
X220235Y68517D01*
X220263Y68386D01*
X220282Y68264D01*
X220300Y68161D01*
Y68076D01*
X220310Y68011D01*
Y67973D01*
Y67955D01*
X220300Y67702D01*
X220263Y67477D01*
X220216Y67270D01*
X220160Y67092D01*
X220113Y66942D01*
X220085Y66886D01*
X220066Y66839D01*
X220047Y66802D01*
X220028Y66774D01*
X220019Y66755D01*
Y66746D01*
X219897Y66558D01*
X219766Y66399D01*
X219635Y66249D01*
X219504Y66127D01*
X219391Y66033D01*
X219297Y65958D01*
X219260Y65939D01*
X219232Y65921D01*
X219222Y65902D01*
X219213D01*
X219110Y65836D01*
X218997Y65780D01*
X218744Y65640D01*
X218473Y65508D01*
X218201Y65377D01*
X218079Y65321D01*
X217966Y65265D01*
X217854Y65218D01*
X217760Y65180D01*
X217685Y65143D01*
X217629Y65115D01*
X217592Y65105D01*
X217582Y65096D01*
X217385Y65012D01*
X217198Y64927D01*
X217039Y64852D01*
X216889Y64777D01*
X216767Y64721D01*
X216654Y64655D01*
X216551Y64609D01*
X216467Y64562D01*
X216401Y64524D01*
X216345Y64487D01*
X216298Y64459D01*
X216261Y64430D01*
X216233Y64412D01*
X216214Y64402D01*
X216204Y64393D01*
X216083Y64281D01*
X215998Y64159D01*
X215933Y64037D01*
X215895Y63924D01*
X215867Y63821D01*
X215858Y63746D01*
X215848Y63690D01*
Y63681D01*
Y63671D01*
Y63578D01*
X215867Y63493D01*
X215914Y63334D01*
X215989Y63193D01*
X216064Y63071D01*
X216148Y62968D01*
X216223Y62903D01*
X216270Y62856D01*
X216280Y62837D01*
X216289D01*
X216373Y62781D01*
X216476Y62725D01*
X216692Y62640D01*
X216917Y62575D01*
X217151Y62537D01*
X217254Y62519D01*
X217357Y62509D01*
X217451Y62500D01*
X217526D01*
X217592Y62490D01*
X217685D01*
X217892Y62500D01*
X218088Y62509D01*
X218266Y62537D01*
X218426Y62565D01*
X218576Y62612D01*
X218707Y62650D01*
X218819Y62697D01*
X218923Y62743D01*
X219016Y62790D01*
X219091Y62837D01*
X219147Y62884D01*
X219204Y62922D01*
X219241Y62950D01*
X219269Y62978D01*
X219279Y62987D01*
X219288Y62997D01*
X219335Y63062D01*
X219372Y63137D01*
X219447Y63324D01*
X219494Y63521D01*
X219532Y63728D01*
X219560Y63915D01*
X219569Y63999D01*
X219579Y64074D01*
Y64131D01*
X219588Y64177D01*
Y64206D01*
Y64215D01*
X221472Y64112D01*
X221462Y63765D01*
X221434Y63437D01*
X221406Y63287D01*
X221378Y63147D01*
X221350Y63015D01*
X221313Y62893D01*
X221284Y62790D01*
X221247Y62687D01*
X221219Y62603D01*
X221191Y62537D01*
X221172Y62481D01*
X221153Y62443D01*
X221134Y62415D01*
Y62406D01*
X221059Y62275D01*
X220975Y62144D01*
X220778Y61909D01*
X220563Y61712D01*
X220347Y61553D01*
X220160Y61422D01*
X220075Y61375D01*
X220000Y61328D01*
X219935Y61300D01*
X219888Y61272D01*
X219860Y61263D01*
X219850Y61253D01*
X219672Y61178D01*
X219494Y61122D01*
X219129Y61019D01*
X218773Y60944D01*
X218604Y60916D01*
X218435Y60897D01*
X218285Y60878D01*
X218145Y60859D01*
X218023Y60850D01*
X217910D01*
X217826Y60841D01*
X217704D01*
X217376Y60850D01*
X217067Y60878D01*
X216786Y60925D01*
X216514Y60981D01*
X216261Y61047D01*
X216036Y61122D01*
X215820Y61206D01*
X215633Y61291D01*
X215464Y61375D01*
X215323Y61459D01*
X215202Y61534D01*
X215098Y61600D01*
X215014Y61656D01*
X214958Y61703D01*
X214920Y61731D01*
X214911Y61741D01*
X214733Y61909D01*
X214574Y62097D01*
X214442Y62275D01*
X214330Y62462D01*
X214227Y62640D01*
X214142Y62818D01*
X214077Y62997D01*
X214021Y63165D01*
X213983Y63315D01*
X213955Y63456D01*
X213927Y63587D01*
X213918Y63690D01*
X213908Y63784D01*
X213899Y63849D01*
Y63887D01*
Y63906D01*
X213908Y64093D01*
X213927Y64271D01*
X213964Y64440D01*
X214002Y64609D01*
X214058Y64759D01*
X214114Y64890D01*
X214171Y65021D01*
X214236Y65133D01*
X214302Y65237D01*
X214358Y65330D01*
X214414Y65405D01*
X214471Y65471D01*
X214508Y65527D01*
X214545Y65565D01*
X214564Y65583D01*
X214574Y65593D01*
X214677Y65677D01*
X214799Y65771D01*
X214939Y65865D01*
X215098Y65968D01*
X215267Y66061D01*
X215445Y66155D01*
X215801Y66343D01*
X215979Y66427D01*
X216139Y66502D01*
X216289Y66577D01*
X216429Y66633D01*
X216532Y66689D01*
X216617Y66727D01*
X216673Y66746D01*
X216682Y66755D01*
X216692D01*
X216889Y66839D01*
X217067Y66924D01*
X217226Y66999D01*
X217376Y67074D01*
X217507Y67139D01*
X217620Y67205D01*
X217723Y67261D01*
X217807Y67308D01*
X217882Y67355D01*
X217948Y67392D01*
X218004Y67430D01*
X218041Y67458D01*
X218070Y67477D01*
X218088Y67495D01*
X218107Y67505D01*
X218210Y67608D01*
X218295Y67730D01*
X218351Y67842D01*
X218388Y67945D01*
X218407Y68048D01*
X218416Y68123D01*
X218426Y68170D01*
Y68189D01*
X218407Y68348D01*
X218370Y68489D01*
X218313Y68611D01*
X218248Y68723D01*
X218192Y68808D01*
X218135Y68864D01*
X218098Y68911D01*
X218079Y68920D01*
X218004Y68967D01*
X217929Y69014D01*
X217751Y69089D01*
X217554Y69135D01*
X217367Y69173D01*
X217189Y69192D01*
X217114Y69201D01*
X217039Y69211D01*
X216758D01*
X216617Y69192D01*
X216486Y69173D01*
X216354Y69154D01*
X216242Y69126D01*
X216139Y69089D01*
X216054Y69061D01*
X215970Y69023D01*
X215895Y68986D01*
X215830Y68958D01*
X215773Y68920D01*
X215727Y68892D01*
X215698Y68873D01*
X215670Y68854D01*
X215651Y68836D01*
X215501Y68686D01*
X215389Y68517D01*
X215305Y68339D01*
X215239Y68170D01*
X215192Y68020D01*
X215173Y67955D01*
X215164Y67898D01*
X215155Y67852D01*
X215145Y67814D01*
Y67795D01*
Y67786D01*
X213252Y67870D01*
X213280Y68114D01*
X213327Y68339D01*
X213383Y68554D01*
X213449Y68751D01*
X213533Y68939D01*
X213618Y69117D01*
X213702Y69276D01*
X213796Y69417D01*
X213889Y69548D01*
X213974Y69660D01*
X214058Y69754D01*
X214124Y69839D01*
X214189Y69895D01*
X214236Y69942D01*
X214264Y69970D01*
X214274Y69979D01*
X214452Y70120D01*
X214649Y70241D01*
X214864Y70345D01*
X215070Y70438D01*
X215295Y70513D01*
X215511Y70579D01*
X215727Y70635D01*
X215933Y70673D01*
X216129Y70710D01*
X216308Y70738D01*
X216476Y70748D01*
X216617Y70766D01*
X216739D01*
X216823Y70776D01*
X216898D01*
X217198Y70766D01*
D02*
G37*
G36*
X216465Y80911D02*
X214590D01*
X214234Y82607D01*
X216118D01*
X216465Y80911D01*
D02*
G37*
G36*
X209417Y80114D02*
X209623Y80076D01*
X209829Y80029D01*
X210026Y79964D01*
X210213Y79889D01*
X210392Y79805D01*
X210560Y79711D01*
X210720Y79617D01*
X210870Y79523D01*
X210991Y79430D01*
X211113Y79345D01*
X211207Y79270D01*
X211282Y79205D01*
X211338Y79158D01*
X211376Y79120D01*
X211385Y79111D01*
X211216Y79964D01*
X212978D01*
X214431Y73000D01*
X212557D01*
X211891Y76196D01*
X211863Y76346D01*
X211826Y76477D01*
X211797Y76609D01*
X211779Y76712D01*
X211751Y76815D01*
X211732Y76899D01*
X211713Y76974D01*
X211694Y77040D01*
X211675Y77096D01*
X211666Y77143D01*
X211647Y77218D01*
X211629Y77255D01*
Y77265D01*
X211563Y77443D01*
X211488Y77611D01*
X211413Y77752D01*
X211348Y77864D01*
X211291Y77958D01*
X211244Y78033D01*
X211216Y78071D01*
X211207Y78089D01*
X211113Y78202D01*
X211010Y78305D01*
X210916Y78389D01*
X210832Y78464D01*
X210748Y78520D01*
X210691Y78558D01*
X210654Y78586D01*
X210635Y78595D01*
X210513Y78661D01*
X210401Y78708D01*
X210288Y78736D01*
X210195Y78764D01*
X210110Y78774D01*
X210054Y78783D01*
X209998D01*
X209885Y78774D01*
X209782Y78755D01*
X209689Y78727D01*
X209614Y78699D01*
X209557Y78661D01*
X209520Y78633D01*
X209492Y78614D01*
X209482Y78605D01*
X209417Y78530D01*
X209370Y78455D01*
X209342Y78380D01*
X209314Y78305D01*
X209304Y78249D01*
X209295Y78193D01*
Y78155D01*
Y78146D01*
Y78099D01*
X209304Y78042D01*
X209314Y77911D01*
X209342Y77752D01*
X209370Y77593D01*
X209398Y77452D01*
X209407Y77386D01*
X209417Y77321D01*
X209426Y77274D01*
X209436Y77236D01*
X209445Y77218D01*
Y77208D01*
X210317Y73000D01*
X208442D01*
X207786Y76149D01*
X207730Y76393D01*
X207673Y76618D01*
X207617Y76824D01*
X207561Y77021D01*
X207505Y77190D01*
X207439Y77340D01*
X207383Y77480D01*
X207336Y77602D01*
X207280Y77705D01*
X207233Y77799D01*
X207195Y77874D01*
X207158Y77930D01*
X207130Y77977D01*
X207111Y78005D01*
X207092Y78024D01*
Y78033D01*
X206989Y78164D01*
X206877Y78277D01*
X206774Y78380D01*
X206661Y78464D01*
X206558Y78539D01*
X206455Y78605D01*
X206352Y78652D01*
X206258Y78689D01*
X206089Y78745D01*
X206014Y78764D01*
X205958Y78774D01*
X205902Y78783D01*
X205836D01*
X205715Y78774D01*
X205602Y78755D01*
X205518Y78727D01*
X205443Y78699D01*
X205387Y78661D01*
X205340Y78633D01*
X205321Y78614D01*
X205312Y78605D01*
X205255Y78539D01*
X205208Y78464D01*
X205180Y78389D01*
X205152Y78314D01*
X205143Y78249D01*
X205133Y78193D01*
Y78155D01*
Y78146D01*
Y78117D01*
X205143Y78080D01*
X205152Y78024D01*
X205162Y77958D01*
X205190Y77818D01*
X205218Y77658D01*
X205246Y77508D01*
X205265Y77433D01*
X205274Y77368D01*
X205283Y77321D01*
X205293Y77283D01*
X205302Y77255D01*
Y77246D01*
X206202Y73000D01*
X204327D01*
X203418Y77246D01*
X203381Y77405D01*
X203353Y77555D01*
X203334Y77686D01*
X203306Y77808D01*
X203287Y77921D01*
X203278Y78024D01*
X203259Y78117D01*
X203250Y78193D01*
X203240Y78267D01*
X203231Y78324D01*
Y78371D01*
X203221Y78417D01*
Y78464D01*
Y78483D01*
X203231Y78614D01*
X203240Y78745D01*
X203296Y78980D01*
X203371Y79186D01*
X203456Y79355D01*
X203540Y79495D01*
X203578Y79542D01*
X203615Y79589D01*
X203643Y79626D01*
X203671Y79655D01*
X203681Y79664D01*
X203690Y79673D01*
X203784Y79748D01*
X203878Y79823D01*
X204093Y79936D01*
X204309Y80011D01*
X204515Y80067D01*
X204702Y80105D01*
X204787Y80114D01*
X204852D01*
X204909Y80123D01*
X204993D01*
X205265Y80105D01*
X205518Y80067D01*
X205761Y80011D01*
X205968Y79945D01*
X206061Y79908D01*
X206146Y79880D01*
X206221Y79851D01*
X206277Y79823D01*
X206333Y79805D01*
X206371Y79786D01*
X206389Y79767D01*
X206399D01*
X206633Y79626D01*
X206849Y79476D01*
X207027Y79336D01*
X207167Y79195D01*
X207289Y79074D01*
X207374Y78970D01*
X207402Y78933D01*
X207420Y78914D01*
X207439Y78895D01*
Y78886D01*
X207495Y79092D01*
X207580Y79270D01*
X207664Y79430D01*
X207758Y79561D01*
X207852Y79664D01*
X207927Y79739D01*
X207973Y79777D01*
X207983Y79795D01*
X207992D01*
X208161Y79908D01*
X208358Y79983D01*
X208564Y80039D01*
X208751Y80086D01*
X208929Y80105D01*
X209004Y80114D01*
X209070D01*
X209126Y80123D01*
X209201D01*
X209417Y80114D01*
D02*
G37*
G36*
X198704Y80105D02*
X199051Y80058D01*
X199369Y79983D01*
X199669Y79889D01*
X199941Y79777D01*
X200194Y79645D01*
X200428Y79514D01*
X200635Y79373D01*
X200813Y79233D01*
X200972Y79092D01*
X201113Y78961D01*
X201225Y78849D01*
X201310Y78755D01*
X201375Y78680D01*
X201413Y78633D01*
X201422Y78614D01*
X201562Y78399D01*
X201684Y78183D01*
X201787Y77968D01*
X201881Y77743D01*
X201956Y77527D01*
X202012Y77321D01*
X202069Y77115D01*
X202106Y76927D01*
X202144Y76749D01*
X202172Y76580D01*
X202181Y76440D01*
X202200Y76318D01*
Y76215D01*
X202209Y76140D01*
Y76093D01*
Y76074D01*
X202200Y75812D01*
X202172Y75549D01*
X202125Y75315D01*
X202069Y75090D01*
X202003Y74884D01*
X201937Y74687D01*
X201853Y74509D01*
X201769Y74350D01*
X201694Y74209D01*
X201609Y74078D01*
X201544Y73975D01*
X201469Y73881D01*
X201422Y73815D01*
X201375Y73759D01*
X201347Y73731D01*
X201338Y73722D01*
X201169Y73562D01*
X200981Y73431D01*
X200803Y73309D01*
X200606Y73216D01*
X200419Y73131D01*
X200222Y73056D01*
X200044Y73000D01*
X199866Y72953D01*
X199697Y72916D01*
X199538Y72888D01*
X199407Y72869D01*
X199285Y72860D01*
X199182Y72850D01*
X199116Y72841D01*
X199051D01*
X198863Y72850D01*
X198676Y72860D01*
X198329Y72916D01*
X198170Y72963D01*
X198020Y73000D01*
X197879Y73047D01*
X197748Y73094D01*
X197626Y73141D01*
X197523Y73187D01*
X197429Y73234D01*
X197345Y73272D01*
X197289Y73300D01*
X197242Y73328D01*
X197214Y73337D01*
X197204Y73347D01*
X197054Y73450D01*
X196914Y73553D01*
X196651Y73797D01*
X196426Y74050D01*
X196323Y74172D01*
X196229Y74293D01*
X196154Y74415D01*
X196080Y74518D01*
X196023Y74612D01*
X195976Y74696D01*
X195930Y74771D01*
X195902Y74818D01*
X195892Y74856D01*
X195883Y74865D01*
X197570Y75146D01*
X197673Y74978D01*
X197785Y74828D01*
X197898Y74696D01*
X198020Y74584D01*
X198141Y74500D01*
X198263Y74415D01*
X198385Y74350D01*
X198498Y74303D01*
X198610Y74265D01*
X198713Y74228D01*
X198807Y74209D01*
X198882Y74200D01*
X198948Y74190D01*
X199004Y74181D01*
X199041D01*
X199144Y74190D01*
X199247Y74200D01*
X199426Y74247D01*
X199594Y74312D01*
X199735Y74397D01*
X199847Y74472D01*
X199932Y74537D01*
X199988Y74584D01*
X199997Y74603D01*
X200007D01*
X200138Y74771D01*
X200232Y74959D01*
X200307Y75137D01*
X200353Y75315D01*
X200382Y75474D01*
X200391Y75540D01*
Y75606D01*
X200400Y75652D01*
Y75690D01*
Y75709D01*
Y75718D01*
Y75774D01*
X200391Y75831D01*
Y75877D01*
Y75896D01*
X195676D01*
X195630Y76102D01*
X195602Y76318D01*
X195573Y76524D01*
X195564Y76712D01*
X195555Y76871D01*
X195545Y76946D01*
Y77002D01*
Y77049D01*
Y77087D01*
Y77105D01*
Y77115D01*
X195555Y77377D01*
X195573Y77621D01*
X195611Y77846D01*
X195667Y78061D01*
X195723Y78258D01*
X195789Y78446D01*
X195855Y78605D01*
X195920Y78755D01*
X195995Y78886D01*
X196061Y78998D01*
X196126Y79102D01*
X196183Y79186D01*
X196229Y79242D01*
X196267Y79289D01*
X196295Y79317D01*
X196304Y79327D01*
X196454Y79467D01*
X196604Y79589D01*
X196773Y79692D01*
X196942Y79786D01*
X197111Y79861D01*
X197279Y79926D01*
X197439Y79983D01*
X197598Y80020D01*
X197757Y80058D01*
X197889Y80086D01*
X198020Y80095D01*
X198123Y80114D01*
X198216D01*
X198282Y80123D01*
X198338D01*
X198704Y80105D01*
D02*
G37*
G36*
X226250Y73000D02*
X219380D01*
X219042Y74603D01*
X223944D01*
X222276Y82607D01*
X224244D01*
X226250Y73000D01*
D02*
G37*
G36*
X218114D02*
X216240D01*
X214787Y79964D01*
X216662D01*
X218114Y73000D01*
D02*
G37*
G36*
X190296Y59394D02*
X190512Y59376D01*
X190718Y59338D01*
X190906Y59291D01*
X191093Y59235D01*
X191262Y59179D01*
X191412Y59113D01*
X191552Y59048D01*
X191684Y58982D01*
X191796Y58916D01*
X191890Y58860D01*
X191965Y58804D01*
X192030Y58757D01*
X192077Y58720D01*
X192105Y58701D01*
X192115Y58691D01*
X192265Y58551D01*
X192396Y58401D01*
X192508Y58242D01*
X192621Y58073D01*
X192715Y57904D01*
X192799Y57735D01*
X192874Y57567D01*
X192939Y57407D01*
X192986Y57248D01*
X193033Y57107D01*
X193071Y56976D01*
X193099Y56864D01*
X193118Y56779D01*
X193136Y56704D01*
X193146Y56667D01*
Y56648D01*
X191309Y56376D01*
X191271Y56536D01*
X191243Y56686D01*
X191196Y56817D01*
X191159Y56939D01*
X191121Y57051D01*
X191074Y57145D01*
X191037Y57239D01*
X190999Y57314D01*
X190962Y57389D01*
X190924Y57445D01*
X190896Y57492D01*
X190868Y57529D01*
X190831Y57576D01*
X190812Y57595D01*
X190681Y57707D01*
X190549Y57792D01*
X190418Y57848D01*
X190287Y57895D01*
X190184Y57913D01*
X190100Y57923D01*
X190043Y57932D01*
X190025D01*
X189865Y57923D01*
X189725Y57885D01*
X189603Y57839D01*
X189500Y57782D01*
X189415Y57717D01*
X189350Y57670D01*
X189312Y57632D01*
X189303Y57623D01*
X189209Y57501D01*
X189134Y57370D01*
X189087Y57239D01*
X189050Y57117D01*
X189031Y57004D01*
X189012Y56920D01*
Y56883D01*
Y56854D01*
Y56845D01*
Y56836D01*
X189022Y56723D01*
X189040Y56601D01*
X189069Y56489D01*
X189097Y56386D01*
X189134Y56292D01*
X189162Y56226D01*
X189181Y56179D01*
X189190Y56161D01*
X189265Y56020D01*
X189359Y55861D01*
X189462Y55720D01*
X189565Y55580D01*
X189668Y55458D01*
X189743Y55364D01*
X189771Y55327D01*
X189800Y55299D01*
X189809Y55289D01*
X189818Y55280D01*
X189875Y55223D01*
X189940Y55149D01*
X190025Y55064D01*
X190118Y54970D01*
X190315Y54774D01*
X190521Y54567D01*
X190718Y54371D01*
X190802Y54286D01*
X190877Y54211D01*
X190943Y54146D01*
X190990Y54099D01*
X191027Y54071D01*
X191037Y54061D01*
X191271Y53836D01*
X191487Y53630D01*
X191684Y53443D01*
X191862Y53265D01*
X192021Y53105D01*
X192171Y52955D01*
X192302Y52824D01*
X192415Y52712D01*
X192508Y52609D01*
X192593Y52524D01*
X192668Y52449D01*
X192724Y52384D01*
X192761Y52337D01*
X192789Y52309D01*
X192808Y52290D01*
X192818Y52281D01*
X192996Y52074D01*
X193146Y51868D01*
X193286Y51662D01*
X193408Y51484D01*
X193502Y51325D01*
X193539Y51259D01*
X193577Y51203D01*
X193596Y51156D01*
X193614Y51118D01*
X193633Y51100D01*
Y51090D01*
X193745Y50847D01*
X193830Y50612D01*
X193905Y50387D01*
X193952Y50181D01*
X193970Y50087D01*
X193989Y50003D01*
X194008Y49937D01*
X194017Y49872D01*
X194027Y49816D01*
X194036Y49778D01*
Y49759D01*
Y49750D01*
X188206D01*
X187850Y51465D01*
X191168D01*
X190981Y51699D01*
X190887Y51812D01*
X190802Y51906D01*
X190737Y51981D01*
X190681Y52037D01*
X190643Y52084D01*
X190634Y52093D01*
X190568Y52159D01*
X190503Y52224D01*
X190334Y52393D01*
X190137Y52580D01*
X189940Y52768D01*
X189762Y52937D01*
X189678Y53012D01*
X189612Y53077D01*
X189556Y53133D01*
X189509Y53171D01*
X189481Y53199D01*
X189472Y53208D01*
X189312Y53358D01*
X189162Y53499D01*
X189031Y53630D01*
X188900Y53752D01*
X188787Y53864D01*
X188684Y53968D01*
X188591Y54061D01*
X188506Y54146D01*
X188441Y54221D01*
X188375Y54286D01*
X188319Y54342D01*
X188281Y54389D01*
X188244Y54427D01*
X188225Y54455D01*
X188206Y54464D01*
Y54474D01*
X188019Y54708D01*
X187859Y54924D01*
X187728Y55130D01*
X187625Y55308D01*
X187541Y55458D01*
X187513Y55524D01*
X187485Y55570D01*
X187466Y55617D01*
X187447Y55645D01*
X187438Y55664D01*
Y55673D01*
X187353Y55889D01*
X187297Y56095D01*
X187250Y56292D01*
X187222Y56461D01*
X187203Y56611D01*
Y56667D01*
X187194Y56723D01*
Y56761D01*
Y56789D01*
Y56807D01*
Y56817D01*
X187203Y57023D01*
X187222Y57220D01*
X187269Y57407D01*
X187316Y57585D01*
X187372Y57745D01*
X187438Y57895D01*
X187503Y58035D01*
X187578Y58166D01*
X187653Y58279D01*
X187719Y58382D01*
X187785Y58467D01*
X187841Y58541D01*
X187888Y58598D01*
X187925Y58635D01*
X187953Y58663D01*
X187963Y58673D01*
X188113Y58804D01*
X188272Y58916D01*
X188441Y59010D01*
X188619Y59094D01*
X188787Y59169D01*
X188965Y59226D01*
X189144Y59272D01*
X189303Y59310D01*
X189462Y59338D01*
X189603Y59366D01*
X189734Y59385D01*
X189846Y59394D01*
X189940Y59404D01*
X190071D01*
X190296Y59394D01*
D02*
G37*
G36*
X200597Y59151D02*
X200878Y58898D01*
X201178Y58663D01*
X201487Y58429D01*
X201796Y58213D01*
X202106Y58007D01*
X202415Y57820D01*
X202715Y57642D01*
X202996Y57492D01*
X203259Y57351D01*
X203493Y57229D01*
X203690Y57126D01*
X203783Y57079D01*
X203859Y57042D01*
X203924Y57014D01*
X203990Y56986D01*
X204027Y56967D01*
X204065Y56948D01*
X204083Y56939D01*
X204093D01*
X204449Y55261D01*
X204215Y55317D01*
X203980Y55383D01*
X203755Y55458D01*
X203540Y55524D01*
X203446Y55561D01*
X203352Y55598D01*
X203277Y55627D01*
X203212Y55655D01*
X203156Y55673D01*
X203118Y55692D01*
X203090Y55701D01*
X203081D01*
X202799Y55823D01*
X202546Y55945D01*
X202312Y56058D01*
X202115Y56170D01*
X202022Y56217D01*
X201947Y56264D01*
X201881Y56301D01*
X201825Y56329D01*
X201778Y56358D01*
X201750Y56376D01*
X201731Y56395D01*
X201722D01*
X203109Y49750D01*
X201215D01*
X199200Y59413D01*
X200334D01*
X200597Y59151D01*
D02*
G37*
G36*
X211113Y49750D02*
X209492D01*
X205208Y56714D01*
X207242D01*
X208976Y53771D01*
X208995Y53733D01*
X209023Y53686D01*
X209051Y53630D01*
X209088Y53565D01*
X209163Y53415D01*
X209248Y53265D01*
X209332Y53115D01*
X209370Y53049D01*
X209398Y52993D01*
X209426Y52937D01*
X209445Y52899D01*
X209454Y52880D01*
X209463Y52871D01*
X209529Y52740D01*
X209595Y52627D01*
X209651Y52524D01*
X209698Y52431D01*
X209744Y52355D01*
X209782Y52290D01*
X209810Y52224D01*
X209838Y52177D01*
X209885Y52112D01*
X209904Y52065D01*
X209923Y52046D01*
Y52037D01*
X209932Y52121D01*
X209951Y52224D01*
X209960Y52337D01*
X209979Y52459D01*
X210016Y52730D01*
X210063Y53002D01*
X210082Y53133D01*
X210101Y53255D01*
X210119Y53368D01*
X210138Y53471D01*
X210147Y53555D01*
X210157Y53611D01*
X210166Y53658D01*
Y53668D01*
X210654Y56714D01*
X212500D01*
X211113Y49750D01*
D02*
G37*
G36*
X198001D02*
X196136D01*
X195751Y51568D01*
X197616D01*
X198001Y49750D01*
D02*
G37*
G36*
X186014Y65836D02*
X190250Y61000D01*
X187691D01*
X186379Y62443D01*
X186192Y62650D01*
X186023Y62846D01*
X185873Y63025D01*
X185742Y63175D01*
X185620Y63315D01*
X185517Y63446D01*
X185423Y63559D01*
X185339Y63653D01*
X185273Y63737D01*
X185217Y63802D01*
X185179Y63859D01*
X185142Y63906D01*
X185114Y63943D01*
X185095Y63962D01*
X185086Y63981D01*
X185048Y63887D01*
X185001Y63774D01*
X184945Y63653D01*
X184889Y63531D01*
X184767Y63268D01*
X184636Y63006D01*
X184570Y62884D01*
X184514Y62772D01*
X184467Y62668D01*
X184420Y62575D01*
X184383Y62500D01*
X184355Y62443D01*
X184336Y62406D01*
X184326Y62397D01*
X183586Y61000D01*
X181355D01*
X183717Y65555D01*
X179321Y70607D01*
X181833D01*
X183333Y68929D01*
X183539Y68695D01*
X183764Y68433D01*
X183989Y68170D01*
X184195Y67927D01*
X184298Y67814D01*
X184383Y67711D01*
X184467Y67617D01*
X184533Y67533D01*
X184589Y67467D01*
X184626Y67420D01*
X184655Y67383D01*
X184664Y67373D01*
X184692Y67439D01*
X184720Y67495D01*
X184739Y67533D01*
X184748Y67542D01*
X184851Y67758D01*
X184945Y67945D01*
X185029Y68114D01*
X185104Y68254D01*
X185161Y68376D01*
X185217Y68489D01*
X185264Y68573D01*
X185292Y68648D01*
X185329Y68704D01*
X185348Y68751D01*
X185367Y68789D01*
X185376Y68808D01*
X185395Y68836D01*
Y68845D01*
X186342Y70607D01*
X188394D01*
X186014Y65836D01*
D02*
G37*
G36*
X159170D02*
X163407Y61000D01*
X160848D01*
X159536Y62443D01*
X159348Y62650D01*
X159180Y62846D01*
X159030Y63025D01*
X158899Y63175D01*
X158777Y63315D01*
X158674Y63446D01*
X158580Y63559D01*
X158496Y63653D01*
X158430Y63737D01*
X158374Y63802D01*
X158336Y63859D01*
X158299Y63906D01*
X158271Y63943D01*
X158252Y63962D01*
X158243Y63981D01*
X158205Y63887D01*
X158158Y63774D01*
X158102Y63653D01*
X158046Y63531D01*
X157924Y63268D01*
X157793Y63006D01*
X157727Y62884D01*
X157671Y62772D01*
X157624Y62668D01*
X157577Y62575D01*
X157540Y62500D01*
X157512Y62443D01*
X157493Y62406D01*
X157483Y62397D01*
X156743Y61000D01*
X154512D01*
X156874Y65555D01*
X152478Y70607D01*
X154990D01*
X156490Y68929D01*
X156696Y68695D01*
X156921Y68433D01*
X157146Y68170D01*
X157352Y67927D01*
X157455Y67814D01*
X157540Y67711D01*
X157624Y67617D01*
X157690Y67533D01*
X157746Y67467D01*
X157783Y67420D01*
X157811Y67383D01*
X157821Y67373D01*
X157849Y67439D01*
X157877Y67495D01*
X157896Y67533D01*
X157905Y67542D01*
X158008Y67758D01*
X158102Y67945D01*
X158186Y68114D01*
X158261Y68254D01*
X158317Y68376D01*
X158374Y68489D01*
X158421Y68573D01*
X158449Y68648D01*
X158486Y68704D01*
X158505Y68751D01*
X158524Y68789D01*
X158533Y68808D01*
X158552Y68836D01*
Y68845D01*
X159499Y70607D01*
X161551D01*
X159170Y65836D01*
D02*
G37*
G36*
X179275Y69004D02*
X176472D01*
X178141Y61000D01*
X176172D01*
X174504Y69004D01*
X171702D01*
X171364Y70607D01*
X178937D01*
X179275Y69004D01*
D02*
G37*
G36*
X172095Y61000D02*
X170127D01*
X169293Y64984D01*
X168365D01*
X168243Y64974D01*
X168037Y64955D01*
X167878Y64918D01*
X167737Y64890D01*
X167634Y64852D01*
X167568Y64815D01*
X167521Y64796D01*
X167512Y64787D01*
X167428Y64721D01*
X167343Y64646D01*
X167259Y64552D01*
X167184Y64459D01*
X167034Y64252D01*
X166903Y64037D01*
X166790Y63840D01*
X166753Y63756D01*
X166715Y63681D01*
X166678Y63615D01*
X166659Y63568D01*
X166640Y63540D01*
Y63531D01*
X166509Y63221D01*
X166387Y62931D01*
X166275Y62659D01*
X166172Y62406D01*
X166078Y62181D01*
X165994Y61975D01*
X165928Y61787D01*
X165863Y61619D01*
X165806Y61469D01*
X165759Y61347D01*
X165722Y61244D01*
X165694Y61150D01*
X165666Y61084D01*
X165647Y61038D01*
X165637Y61009D01*
Y61000D01*
X163510D01*
X163660Y61375D01*
X163810Y61722D01*
X163951Y62059D01*
X164082Y62359D01*
X164213Y62650D01*
X164335Y62912D01*
X164447Y63146D01*
X164560Y63362D01*
X164653Y63549D01*
X164738Y63718D01*
X164813Y63859D01*
X164878Y63971D01*
X164925Y64065D01*
X164963Y64121D01*
X164981Y64168D01*
X164991Y64177D01*
X165113Y64374D01*
X165244Y64552D01*
X165356Y64712D01*
X165469Y64843D01*
X165563Y64937D01*
X165637Y65012D01*
X165684Y65058D01*
X165703Y65077D01*
X165431Y65124D01*
X165178Y65171D01*
X164944Y65237D01*
X164728Y65311D01*
X164532Y65387D01*
X164344Y65471D01*
X164185Y65555D01*
X164035Y65640D01*
X163904Y65724D01*
X163791Y65799D01*
X163697Y65874D01*
X163622Y65930D01*
X163557Y65986D01*
X163519Y66024D01*
X163491Y66052D01*
X163482Y66061D01*
X163351Y66211D01*
X163238Y66380D01*
X163135Y66549D01*
X163051Y66717D01*
X162985Y66886D01*
X162920Y67055D01*
X162873Y67214D01*
X162835Y67373D01*
X162807Y67523D01*
X162779Y67655D01*
X162760Y67776D01*
X162751Y67880D01*
X162741Y67964D01*
Y68030D01*
Y68076D01*
Y68086D01*
X162760Y68395D01*
X162798Y68676D01*
X162863Y68929D01*
X162901Y69042D01*
X162929Y69145D01*
X162966Y69229D01*
X163004Y69314D01*
X163032Y69379D01*
X163069Y69445D01*
X163088Y69492D01*
X163107Y69520D01*
X163126Y69538D01*
Y69548D01*
X163276Y69754D01*
X163435Y69932D01*
X163604Y70073D01*
X163763Y70185D01*
X163904Y70270D01*
X163960Y70307D01*
X164016Y70326D01*
X164063Y70345D01*
X164091Y70363D01*
X164110Y70373D01*
X164119D01*
X164241Y70410D01*
X164363Y70448D01*
X164644Y70504D01*
X164925Y70551D01*
X165197Y70579D01*
X165328Y70588D01*
X165450Y70598D01*
X165553D01*
X165647Y70607D01*
X170089D01*
X172095Y61000D01*
D02*
G37*
G36*
X193000Y65164D02*
X189354D01*
X188970Y66982D01*
X192616D01*
X193000Y65164D01*
D02*
G37*
%LPC*%
G36*
X209147Y69023D02*
X207844D01*
X207703Y69014D01*
X207563D01*
X207441Y69004D01*
X207338Y68995D01*
X207235Y68986D01*
X207141Y68976D01*
X207066Y68967D01*
X207001Y68948D01*
X206944Y68939D01*
X206888Y68929D01*
X206851Y68920D01*
X206804Y68911D01*
X206785Y68901D01*
X206607Y68826D01*
X206448Y68723D01*
X206316Y68611D01*
X206194Y68498D01*
X206101Y68386D01*
X206026Y68301D01*
X206007Y68264D01*
X205988Y68236D01*
X205970Y68226D01*
Y68217D01*
X205913Y68114D01*
X205857Y68001D01*
X205773Y67758D01*
X205716Y67505D01*
X205670Y67252D01*
X205660Y67139D01*
X205651Y67027D01*
X205641Y66933D01*
Y66849D01*
X205632Y66774D01*
Y66727D01*
Y66689D01*
Y66680D01*
Y66455D01*
X205651Y66249D01*
X205670Y66043D01*
X205698Y65846D01*
X205726Y65668D01*
X205763Y65490D01*
X205791Y65330D01*
X205829Y65190D01*
X205867Y65049D01*
X205904Y64937D01*
X205942Y64833D01*
X205970Y64749D01*
X205998Y64684D01*
X206017Y64627D01*
X206026Y64599D01*
X206035Y64590D01*
X206194Y64281D01*
X206363Y63999D01*
X206438Y63868D01*
X206523Y63756D01*
X206607Y63653D01*
X206682Y63549D01*
X206747Y63465D01*
X206813Y63390D01*
X206869Y63324D01*
X206926Y63268D01*
X206963Y63231D01*
X206991Y63203D01*
X207010Y63184D01*
X207019Y63175D01*
X207179Y63053D01*
X207338Y62940D01*
X207488Y62856D01*
X207619Y62790D01*
X207741Y62743D01*
X207835Y62706D01*
X207872Y62697D01*
X207900Y62687D01*
X207910Y62678D01*
X207919D01*
X208013Y62659D01*
X208125Y62631D01*
X208369Y62603D01*
X208631Y62575D01*
X208885Y62565D01*
X209006Y62556D01*
X209128D01*
X209222Y62547D01*
X210506D01*
X209147Y69023D01*
D02*
G37*
G36*
X199456Y69004D02*
X197113D01*
X196972Y68995D01*
X196841Y68986D01*
X196728Y68976D01*
X196625Y68967D01*
X196531Y68958D01*
X196447Y68939D01*
X196381Y68929D01*
X196316Y68911D01*
X196269Y68892D01*
X196194Y68873D01*
X196147Y68854D01*
X196138Y68845D01*
X196063Y68789D01*
X195997Y68733D01*
X195885Y68611D01*
X195810Y68479D01*
X195763Y68358D01*
X195725Y68236D01*
X195716Y68142D01*
X195707Y68105D01*
Y68076D01*
Y68067D01*
Y68058D01*
X195716Y67898D01*
X195753Y67739D01*
X195800Y67598D01*
X195857Y67467D01*
X195913Y67355D01*
X195960Y67280D01*
X195997Y67224D01*
X196007Y67214D01*
Y67205D01*
X196128Y67064D01*
X196260Y66942D01*
X196400Y66839D01*
X196531Y66755D01*
X196653Y66699D01*
X196747Y66652D01*
X196784Y66633D01*
X196803Y66624D01*
X196822Y66614D01*
X196831D01*
X196944Y66586D01*
X197066Y66549D01*
X197216Y66530D01*
X197375Y66502D01*
X197553Y66493D01*
X197722Y66474D01*
X198078Y66455D01*
X198247Y66446D01*
X198406Y66436D01*
X198556D01*
X198687Y66427D01*
X199990D01*
X199456Y69004D01*
D02*
G37*
G36*
X198591Y78783D02*
X198535D01*
X198329Y78764D01*
X198141Y78717D01*
X197982Y78661D01*
X197851Y78586D01*
X197748Y78511D01*
X197673Y78455D01*
X197626Y78408D01*
X197607Y78389D01*
X197495Y78230D01*
X197411Y78042D01*
X197345Y77855D01*
X197307Y77668D01*
X197279Y77490D01*
X197270Y77424D01*
Y77358D01*
X197260Y77302D01*
Y77265D01*
Y77236D01*
Y77227D01*
Y77171D01*
Y77105D01*
Y77058D01*
Y77049D01*
Y77040D01*
X200203D01*
X200166Y77199D01*
X200128Y77340D01*
X200091Y77480D01*
X200035Y77602D01*
X199988Y77715D01*
X199941Y77827D01*
X199885Y77921D01*
X199838Y78005D01*
X199782Y78080D01*
X199735Y78146D01*
X199697Y78202D01*
X199660Y78249D01*
X199632Y78286D01*
X199604Y78314D01*
X199594Y78324D01*
X199585Y78333D01*
X199491Y78408D01*
X199407Y78483D01*
X199219Y78595D01*
X199051Y78671D01*
X198882Y78727D01*
X198741Y78764D01*
X198685Y78774D01*
X198629D01*
X198591Y78783D01*
D02*
G37*
G36*
X168459Y69004D02*
X166115D01*
X165975Y68995D01*
X165844Y68986D01*
X165731Y68976D01*
X165628Y68967D01*
X165534Y68957D01*
X165450Y68939D01*
X165385Y68929D01*
X165319Y68911D01*
X165272Y68892D01*
X165197Y68873D01*
X165150Y68854D01*
X165141Y68845D01*
X165066Y68789D01*
X165000Y68733D01*
X164888Y68611D01*
X164813Y68479D01*
X164766Y68358D01*
X164728Y68236D01*
X164719Y68142D01*
X164710Y68105D01*
Y68076D01*
Y68067D01*
Y68058D01*
X164719Y67898D01*
X164757Y67739D01*
X164803Y67598D01*
X164860Y67467D01*
X164916Y67355D01*
X164963Y67280D01*
X165000Y67224D01*
X165010Y67214D01*
Y67205D01*
X165131Y67064D01*
X165263Y66942D01*
X165403Y66839D01*
X165534Y66755D01*
X165656Y66699D01*
X165750Y66652D01*
X165788Y66633D01*
X165806Y66624D01*
X165825Y66614D01*
X165834D01*
X165947Y66586D01*
X166069Y66549D01*
X166219Y66530D01*
X166378Y66502D01*
X166556Y66493D01*
X166725Y66474D01*
X167081Y66455D01*
X167250Y66446D01*
X167409Y66436D01*
X167559D01*
X167690Y66427D01*
X168993D01*
X168459Y69004D01*
D02*
G37*
%LPD*%
D10*
X15570Y54450D02*
G03*
X15570Y54450I-1270J0D01*
G01*
Y86200D02*
G03*
X15570Y86200I-1270J0D01*
G01*
D12*
X293309Y292750D02*
G03*
X293309Y292750I-559J0D01*
G01*
X91275Y62529D02*
G03*
X91275Y62529I-353J0D01*
G01*
X14559Y133000D02*
G03*
X14559Y133000I-559J0D01*
G01*
X26077Y256750D02*
G03*
X26077Y256750I-327J0D01*
G01*
X36500Y240500D02*
G03*
X36500Y240500I-250J0D01*
G01*
X381059Y24250D02*
G03*
X381059Y24250I-559J0D01*
G01*
X174250Y241500D02*
X214250D01*
X174250Y295500D02*
X214250D01*
X353645Y201500D02*
Y210500D01*
X344645D02*
X353645D01*
Y85500D02*
Y94500D01*
X344645Y85500D02*
X353645D01*
X228645D02*
X237645D01*
X228645D02*
Y94500D01*
Y210500D02*
X237645D01*
X228645Y201500D02*
Y210500D01*
X45778Y143850D02*
Y153150D01*
X41128Y148500D02*
X114667Y222039D01*
X114667Y74961D02*
X188206Y148500D01*
X41128D02*
X114667Y74961D01*
X114667Y222039D02*
X188206Y148500D01*
X429000Y72250D02*
Y81750D01*
Y72250D02*
X450460D01*
X429000Y138250D02*
X450460D01*
X429000Y128750D02*
Y138250D01*
X73500Y244500D02*
X135500D01*
Y294500D01*
X73500Y244500D02*
Y290500D01*
X77500Y294500D01*
X135500D01*
X429000Y158750D02*
Y168250D01*
Y158750D02*
X450460D01*
X429000Y224750D02*
X450460D01*
X429000Y215250D02*
Y224750D01*
X-2835Y250332D02*
X-1503Y248999D01*
Y246333D01*
X-2835Y245000D01*
X-8167D01*
X-9500Y246333D01*
Y248999D01*
X-8167Y250332D01*
X-5501D01*
Y247666D01*
X-9500Y252997D02*
X-1503D01*
Y256996D01*
X-2835Y258329D01*
X-5501D01*
X-6834Y256996D01*
Y252997D01*
X-1503Y260995D02*
Y263661D01*
Y262328D01*
X-9500D01*
Y260995D01*
Y263661D01*
X-1503Y271658D02*
Y268992D01*
X-2835Y267659D01*
X-8167D01*
X-9500Y268992D01*
Y271658D01*
X-8167Y272991D01*
X-2835D01*
X-1503Y271658D01*
X230160Y117750D02*
X222163D01*
Y123082D01*
Y125747D02*
X230160D01*
X227495Y128413D01*
X230160Y131079D01*
X222163D01*
X228827Y139076D02*
X230160Y137744D01*
Y135078D01*
X228827Y133745D01*
X227495D01*
X226162Y135078D01*
Y137744D01*
X224829Y139076D01*
X223496D01*
X222163Y137744D01*
Y135078D01*
X223496Y133745D01*
X230160Y141742D02*
Y147074D01*
X228827D01*
X223496Y141742D01*
X222163D01*
X228827Y149740D02*
X230160Y151073D01*
Y153738D01*
X228827Y155071D01*
X223496D01*
X222163Y153738D01*
Y151073D01*
X223496Y149740D01*
X228827D01*
Y157737D02*
X230160Y159070D01*
Y161736D01*
X228827Y163069D01*
X223496D01*
X222163Y161736D01*
Y159070D01*
X223496Y157737D01*
X228827D01*
X222163Y171066D02*
Y165735D01*
X227495Y171066D01*
X228827D01*
X230160Y169733D01*
Y167067D01*
X228827Y165735D01*
X222163Y173732D02*
X230160D01*
X227495Y176398D01*
X230160Y179063D01*
X222163D01*
X146747Y258832D02*
Y256166D01*
Y257499D01*
X140083D01*
X138750Y256166D01*
Y254833D01*
X140083Y253500D01*
X146747Y261497D02*
Y266829D01*
Y264163D01*
X138750D01*
Y269495D02*
X144082D01*
X146747Y272161D01*
X144082Y274827D01*
X138750D01*
X142749D01*
Y269495D01*
X145414Y282824D02*
X146747Y281491D01*
Y278825D01*
X145414Y277492D01*
X140083D01*
X138750Y278825D01*
Y281491D01*
X140083Y282824D01*
X142749D01*
Y280158D01*
X438747Y141999D02*
X430750D01*
Y145997D01*
X432083Y147330D01*
X433416D01*
X434749Y145997D01*
Y141999D01*
Y145997D01*
X436082Y147330D01*
X437415D01*
X438747Y145997D01*
Y141999D01*
Y149996D02*
X430750D01*
Y153995D01*
X432083Y155328D01*
X433416D01*
X434749Y153995D01*
Y149996D01*
Y153995D01*
X436082Y155328D01*
X437415D01*
X438747Y153995D01*
Y149996D01*
X-9374Y99012D02*
X-4042D01*
Y100345D01*
X-5375Y101677D01*
X-9374D01*
X-5375D01*
X-4042Y103010D01*
X-5375Y104343D01*
X-9374D01*
Y107009D02*
X-1376D01*
Y111008D01*
X-2709Y112341D01*
X-5375D01*
X-6708Y111008D01*
Y107009D01*
X-2709Y120338D02*
X-1376Y119005D01*
Y116339D01*
X-2709Y115007D01*
X-8041D01*
X-9374Y116339D01*
Y119005D01*
X-8041Y120338D01*
X-1376Y123004D02*
Y125670D01*
Y124337D01*
X-9374D01*
Y123004D01*
Y125670D01*
Y133667D02*
Y131001D01*
X-8041Y129668D01*
X-5375D01*
X-4042Y131001D01*
Y133667D01*
X-5375Y135000D01*
X-6708D01*
Y129668D01*
D13*
X210500Y235000D02*
G03*
X210500Y235000I-500J0D01*
G01*
X148500Y219500D02*
G03*
X148500Y219500I-500J0D01*
G01*
X32000Y198500D02*
G03*
X32000Y198500I-500J0D01*
G01*
X38500Y208500D02*
G03*
X38500Y208500I-500J0D01*
G01*
X22250Y150500D02*
G03*
X22250Y150500I-500J0D01*
G01*
X200250Y217750D02*
Y234750D01*
X204250Y217750D02*
Y234750D01*
X200250Y217750D02*
X204250D01*
X200250Y234750D02*
X204250D01*
X157750Y219750D02*
Y236750D01*
X153750Y219750D02*
Y236750D01*
X157750D01*
X153750Y219750D02*
X157750D01*
X21750Y181250D02*
Y198250D01*
X25750Y181250D02*
Y198250D01*
X21750Y181250D02*
X25750D01*
X21750Y198250D02*
X25750D01*
X38250Y198750D02*
X55250D01*
X38250Y202750D02*
X55250D01*
Y198750D02*
Y202750D01*
X38250Y198750D02*
Y202750D01*
X20750Y169500D02*
X30750D01*
X20750Y153500D02*
X30750D01*
X95164Y62176D02*
X111074Y78085D01*
X79255D02*
X95164Y62176D01*
X79255Y78085D02*
X95164Y93995D01*
X111074Y78085D01*
X14000Y117675D02*
Y122000D01*
X37500Y117675D02*
Y122000D01*
Y131000D02*
Y135325D01*
X13250Y258750D02*
Y294750D01*
Y258750D02*
X22000D01*
X64500D02*
X73250D01*
Y294750D01*
X109250Y4500D02*
X129250D01*
X109250D02*
Y28500D01*
X129250D01*
Y4500D02*
Y28500D01*
X408000Y149000D02*
X413375Y146250D01*
Y149000D01*
X408000D02*
X413375D01*
X388625D02*
X394000Y149000D01*
X388625Y146250D02*
X388625Y149000D01*
X388625Y124000D02*
Y126750D01*
Y124000D02*
X394000D01*
X408000Y124000D02*
X413375Y124000D01*
Y126750D01*
X386500Y284750D02*
X390500Y280750D01*
Y284750D01*
X386500D02*
X390500D01*
X366500D02*
X370500D01*
X366500Y280750D02*
Y284750D01*
Y260750D02*
Y264750D01*
Y260750D02*
X370500D01*
X386500D02*
X390500D01*
Y264750D01*
X395577Y83295D02*
X396827D01*
X395577Y72795D02*
Y83295D01*
Y72795D02*
X396827D01*
X412827Y83295D02*
X414077D01*
X412827Y72795D02*
X414077D01*
Y80545D02*
Y83295D01*
Y72795D02*
Y75545D01*
X19500Y225250D02*
Y243250D01*
X33500D01*
Y225250D02*
Y243250D01*
X19500Y225250D02*
X33500D01*
X383500Y7500D02*
Y33500D01*
X403500D01*
Y7500D02*
Y33500D01*
X383500Y7500D02*
X403500D01*
X22000Y66250D02*
Y76750D01*
X32500D01*
X22000Y66250D02*
X32500D01*
Y76750D01*
Y98000D02*
Y108500D01*
X22000Y98000D02*
X32500D01*
X22000Y108500D02*
X32500D01*
X22000Y98000D02*
Y108500D01*
X423760Y195250D02*
Y198000D01*
Y203000D02*
Y205750D01*
X422510Y195250D02*
X423760D01*
X422510Y205750D02*
X423760D01*
X405260Y195250D02*
X406510D01*
X405260D02*
Y205750D01*
X406510D01*
X401750Y232750D02*
Y236750D01*
X405750D01*
X421750D02*
X425750D01*
Y232750D02*
Y236750D01*
Y212750D02*
Y216750D01*
X421750Y212750D02*
X425750D01*
X401750D02*
X405750D01*
X401750D02*
Y216750D01*
X405750Y212750D01*
X342000Y292052D02*
X344750D01*
X334250D02*
X337000D01*
X344750Y290802D02*
Y292052D01*
X334250Y290802D02*
Y292052D01*
X344750Y273552D02*
Y274802D01*
X334250Y273552D02*
X344750D01*
X334250D02*
Y274802D01*
X142250Y57500D02*
X162250Y57500D01*
Y33500D02*
Y57500D01*
X142250Y33500D02*
X162250D01*
X142250D02*
Y57500D01*
X109250D02*
X129250Y57500D01*
Y33500D02*
Y57500D01*
X109250Y33500D02*
X129250D01*
X109250D02*
Y57500D01*
X142250Y4500D02*
X162250Y4500D01*
X142250Y4500D02*
Y28500D01*
X162250D01*
Y4500D02*
Y28500D01*
X266250Y33500D02*
Y57500D01*
Y33500D02*
X286250D01*
Y57500D01*
X266250D02*
X286250D01*
X232750Y4500D02*
X252750D01*
X232750D02*
Y28500D01*
X252750D01*
Y4500D02*
Y28500D01*
X266250Y4500D02*
X286250D01*
X266250D02*
Y28500D01*
X286250D01*
Y4500D02*
Y28500D01*
X232750Y57500D02*
X252750D01*
Y33500D02*
Y57500D01*
X232750Y33500D02*
X252750D01*
X232750D02*
Y57500D01*
X111998Y262417D02*
Y265749D01*
Y264083D01*
X107000D01*
X111165Y270747D02*
X111998Y269914D01*
Y268248D01*
X111165Y267415D01*
X107833D01*
X107000Y268248D01*
Y269914D01*
X107833Y270747D01*
X111998Y272413D02*
X107000D01*
X108666D01*
X111998Y275746D01*
X109499Y273246D01*
X107000Y275746D01*
X102498Y245917D02*
Y249249D01*
Y247583D01*
X97500D01*
Y250915D02*
X102498D01*
X100832Y252581D01*
X102498Y254247D01*
X97500D01*
X101665Y259245D02*
X102498Y258412D01*
Y256746D01*
X101665Y255913D01*
X100832D01*
X99999Y256746D01*
Y258412D01*
X99166Y259245D01*
X98333D01*
X97500Y258412D01*
Y256746D01*
X98333Y255913D01*
X0Y167750D02*
X-1833D01*
X-916D01*
Y173248D01*
X0Y172332D01*
X-4582D02*
X-5498Y173248D01*
X-7331D01*
X-8247Y172332D01*
Y171416D01*
X-7331Y170499D01*
X-8247Y169583D01*
Y168666D01*
X-7331Y167750D01*
X-5498D01*
X-4582Y168666D01*
Y169583D01*
X-5498Y170499D01*
X-4582Y171416D01*
Y172332D01*
X-5498Y170499D02*
X-7331D01*
X-3415Y33498D02*
X250D01*
Y30749D01*
X-1583Y31665D01*
X-2499D01*
X-3415Y30749D01*
Y28916D01*
X-2499Y28000D01*
X-666D01*
X250Y28916D01*
X-8913Y28000D02*
X-5248D01*
X-8913Y31665D01*
Y32582D01*
X-7997Y33498D01*
X-6164D01*
X-5248Y32582D01*
X102498Y263750D02*
Y267082D01*
Y265416D01*
X97500D01*
X102498Y268748D02*
X97500D01*
Y271247D01*
X98333Y272080D01*
X101665D01*
X102498Y271247D01*
Y268748D01*
Y273746D02*
Y275413D01*
Y274580D01*
X97500D01*
Y273746D01*
Y275413D01*
X460667Y156498D02*
Y149500D01*
X457168D01*
X456002Y150666D01*
Y155331D01*
X457168Y156498D01*
X460667D01*
X453669Y149500D02*
Y154165D01*
X451337Y156498D01*
X449004Y154165D01*
Y149500D01*
Y152999D01*
X453669D01*
X442006Y155331D02*
X443173Y156498D01*
X445505D01*
X446672Y155331D01*
Y150666D01*
X445505Y149500D01*
X443173D01*
X442006Y150666D01*
X102498Y279667D02*
Y282999D01*
Y281333D01*
X97500D01*
X102498Y284665D02*
X97500D01*
Y287164D01*
X98333Y287997D01*
X101665D01*
X102498Y287164D01*
Y284665D01*
Y292162D02*
Y290496D01*
X101665Y289663D01*
X98333D01*
X97500Y290496D01*
Y292162D01*
X98333Y292996D01*
X101665D01*
X102498Y292162D01*
X111415Y282999D02*
X112248Y282166D01*
Y280500D01*
X111415Y279667D01*
X108083D01*
X107250Y280500D01*
Y282166D01*
X108083Y282999D01*
X109749D01*
Y281333D01*
X107250Y284665D02*
X112248D01*
X107250Y287997D01*
X112248D01*
Y289663D02*
X107250D01*
Y292162D01*
X108083Y292995D01*
X111415D01*
X112248Y292162D01*
Y289663D01*
X110915Y245917D02*
X111748Y246750D01*
Y248416D01*
X110915Y249249D01*
X110082D01*
X109249Y248416D01*
Y247583D01*
Y248416D01*
X108416Y249249D01*
X107583D01*
X106750Y248416D01*
Y246750D01*
X107583Y245917D01*
X106750Y250915D02*
X111748D01*
Y253414D01*
X110915Y254247D01*
X109249D01*
X108416Y253414D01*
Y250915D01*
X110915Y255913D02*
X111748Y256746D01*
Y258412D01*
X110915Y259246D01*
X110082D01*
X109249Y258412D01*
Y257579D01*
Y258412D01*
X108416Y259246D01*
X107583D01*
X106750Y258412D01*
Y256746D01*
X107583Y255913D01*
X460667Y140250D02*
Y144915D01*
X458335Y147248D01*
X456002Y144915D01*
Y140250D01*
Y143749D01*
X460667D01*
X453669Y147248D02*
Y140250D01*
X450171D01*
X449004Y141416D01*
Y146081D01*
X450171Y147248D01*
X453669D01*
X442006Y146081D02*
X443173Y147248D01*
X445505D01*
X446672Y146081D01*
Y141416D01*
X445505Y140250D01*
X443173D01*
X442006Y141416D01*
X-750Y203000D02*
X-2583D01*
X-1666D01*
Y208498D01*
X-750Y207582D01*
X-8997Y208498D02*
X-7164Y207582D01*
X-5332Y205749D01*
Y203916D01*
X-6248Y203000D01*
X-8081D01*
X-8997Y203916D01*
Y204833D01*
X-8081Y205749D01*
X-5332D01*
X206500Y214498D02*
X204667D01*
X205584D01*
Y209000D01*
X206500D01*
X204667D01*
X198253Y213582D02*
X199169Y214498D01*
X201002D01*
X201918Y213582D01*
Y209916D01*
X201002Y209000D01*
X199169D01*
X198253Y209916D01*
X196420Y209000D02*
X194587D01*
X195504D01*
Y214498D01*
X196420Y213582D01*
X189089Y209000D02*
Y214498D01*
X191838Y211749D01*
X188173D01*
X400250Y41998D02*
X398417D01*
X399334D01*
Y36500D01*
X400250D01*
X398417D01*
X392003Y41082D02*
X392919Y41998D01*
X394752D01*
X395668Y41082D01*
Y37416D01*
X394752Y36500D01*
X392919D01*
X392003Y37416D01*
X390170D02*
X389254Y36500D01*
X387421D01*
X386505Y37416D01*
Y41082D01*
X387421Y41998D01*
X389254D01*
X390170Y41082D01*
Y40166D01*
X389254Y39249D01*
X386505D01*
X164750Y215748D02*
X162917D01*
X163834D01*
Y210250D01*
X164750D01*
X162917D01*
X156503Y214832D02*
X157419Y215748D01*
X159252D01*
X160168Y214832D01*
Y211166D01*
X159252Y210250D01*
X157419D01*
X156503Y211166D01*
X154670Y210250D02*
X152837D01*
X153753D01*
Y215748D01*
X154670Y214832D01*
X146423Y210250D02*
X150088D01*
X146423Y213915D01*
Y214832D01*
X147339Y215748D01*
X149172D01*
X150088Y214832D01*
X71500Y242748D02*
X67835Y237250D01*
Y242748D02*
X71500Y237250D01*
X66002Y238166D02*
X65085Y237250D01*
X63253D01*
X62336Y238166D01*
Y241832D01*
X63253Y242748D01*
X65085D01*
X66002Y241832D01*
Y240916D01*
X65085Y239999D01*
X62336D01*
X44998Y225000D02*
Y226833D01*
Y225916D01*
X39500D01*
Y225000D01*
Y226833D01*
X44082Y233247D02*
X44998Y232331D01*
Y230498D01*
X44082Y229582D01*
X40416D01*
X39500Y230498D01*
Y232331D01*
X40416Y233247D01*
X39500Y235080D02*
Y236913D01*
Y235996D01*
X44998D01*
X44082Y235080D01*
X44998Y243327D02*
X44082Y241495D01*
X42249Y239662D01*
X40416D01*
X39500Y240578D01*
Y242411D01*
X40416Y243327D01*
X41333D01*
X42249Y242411D01*
Y239662D01*
X40862Y186888D02*
X39566Y185592D01*
X40214Y186240D01*
X44102Y182352D01*
X44750Y183000D01*
X43454Y181704D01*
X35678Y180408D02*
X35678Y181704D01*
X36974Y183000D01*
X38270Y183000D01*
X40862Y180408D01*
Y179112D01*
X39566Y177816D01*
X38270D01*
X37622Y175872D02*
X36326Y174576D01*
X36974Y175224D01*
X33087Y179112D01*
X34383Y179112D01*
X31143Y175872D02*
X29847Y175872D01*
X28551Y174576D01*
X28551Y173280D01*
X31143Y170688D01*
X32438D01*
X33735Y171985D01*
Y173280D01*
X31143Y175872D01*
X62998Y193750D02*
Y195583D01*
Y194666D01*
X57500D01*
Y193750D01*
Y195583D01*
X62082Y201997D02*
X62998Y201081D01*
Y199248D01*
X62082Y198332D01*
X58416D01*
X57500Y199248D01*
Y201081D01*
X58416Y201997D01*
X62082Y203830D02*
X62998Y204746D01*
Y206579D01*
X62082Y207495D01*
X61165D01*
X60249Y206579D01*
X59333Y207495D01*
X58416D01*
X57500Y206579D01*
Y204746D01*
X58416Y203830D01*
X59333D01*
X60249Y204746D01*
X61165Y203830D01*
X62082D01*
X60249Y204746D02*
Y206579D01*
X422248Y73250D02*
Y76915D01*
Y75083D01*
X416750D01*
X421332Y78748D02*
X422248Y79665D01*
Y81497D01*
X421332Y82414D01*
X420415D01*
X419499Y81497D01*
X418583Y82414D01*
X417666D01*
X416750Y81497D01*
Y79665D01*
X417666Y78748D01*
X418583D01*
X419499Y79665D01*
X420415Y78748D01*
X421332D01*
X419499Y79665D02*
Y81497D01*
X412500Y112998D02*
X408834D01*
X410667D01*
Y107500D01*
X403336Y112998D02*
X405169Y112082D01*
X407002Y110249D01*
Y108416D01*
X406085Y107500D01*
X404253D01*
X403336Y108416D01*
Y109333D01*
X404253Y110249D01*
X407002D01*
X353748Y285000D02*
Y288666D01*
Y286833D01*
X348250D01*
Y294164D02*
Y290498D01*
X351916Y294164D01*
X352832D01*
X353748Y293247D01*
Y291415D01*
X352832Y290498D01*
X407748Y51500D02*
Y55166D01*
Y53333D01*
X402250D01*
X407748Y60664D02*
Y56998D01*
X404999D01*
X405915Y58831D01*
Y59747D01*
X404999Y60664D01*
X403166D01*
X402250Y59747D01*
Y57915D01*
X403166Y56998D01*
X424750Y181498D02*
X421085D01*
X422917D01*
Y176000D01*
X419252D02*
X417419D01*
X418335D01*
Y181498D01*
X419252Y180582D01*
X385250Y292998D02*
X383417D01*
X384334D01*
Y287500D01*
X385250D01*
X383417D01*
X377003Y292082D02*
X377919Y292998D01*
X379752D01*
X380668Y292082D01*
Y288416D01*
X379752Y287500D01*
X377919D01*
X377003Y288416D01*
X371505Y292998D02*
X373337Y292082D01*
X375170Y290249D01*
Y288416D01*
X374254Y287500D01*
X372421D01*
X371505Y288416D01*
Y289333D01*
X372421Y290249D01*
X375170D01*
X385748Y130000D02*
Y131833D01*
Y130916D01*
X380250D01*
Y130000D01*
Y131833D01*
X384832Y138247D02*
X385748Y137331D01*
Y135498D01*
X384832Y134582D01*
X381166D01*
X380250Y135498D01*
Y137331D01*
X381166Y138247D01*
X380250Y142829D02*
X385748D01*
X382999Y140080D01*
Y143745D01*
X408000Y245498D02*
X406167D01*
X407084D01*
Y240000D01*
X408000D01*
X406167D01*
X399753Y244582D02*
X400669Y245498D01*
X402502D01*
X403418Y244582D01*
Y240916D01*
X402502Y240000D01*
X400669D01*
X399753Y240916D01*
X394254Y245498D02*
X397920D01*
Y242749D01*
X396087Y243666D01*
X395171D01*
X394254Y242749D01*
Y240916D01*
X395171Y240000D01*
X397004D01*
X397920Y240916D01*
X425750Y141248D02*
X422085Y135750D01*
Y141248D02*
X425750Y135750D01*
X420252Y140332D02*
X419335Y141248D01*
X417503D01*
X416586Y140332D01*
Y139416D01*
X417503Y138499D01*
X416586Y137583D01*
Y136666D01*
X417503Y135750D01*
X419335D01*
X420252Y136666D01*
Y137583D01*
X419335Y138499D01*
X420252Y139416D01*
Y140332D01*
X419335Y138499D02*
X417503D01*
X425000Y160748D02*
X421334Y155250D01*
Y160748D02*
X425000Y155250D01*
X419502D02*
X417669D01*
X418585D01*
Y160748D01*
X419502Y159832D01*
X414920D02*
X414003Y160748D01*
X412171D01*
X411254Y159832D01*
Y158916D01*
X412171Y157999D01*
X413087D01*
X412171D01*
X411254Y157083D01*
Y156166D01*
X412171Y155250D01*
X414003D01*
X414920Y156166D01*
X52748Y88250D02*
Y90083D01*
Y89166D01*
X47250D01*
Y88250D01*
Y90083D01*
X51832Y96497D02*
X52748Y95581D01*
Y93748D01*
X51832Y92832D01*
X48166D01*
X47250Y93748D01*
Y95581D01*
X48166Y96497D01*
X47250Y101995D02*
Y98330D01*
X50915Y101995D01*
X51832D01*
X52748Y101079D01*
Y99246D01*
X51832Y98330D01*
X47250Y106577D02*
X52748D01*
X49999Y103828D01*
Y107494D01*
X5498Y58283D02*
Y60115D01*
Y59199D01*
X0D01*
Y58283D01*
Y60115D01*
X4582Y66530D02*
X5498Y65613D01*
Y63781D01*
X4582Y62864D01*
X916D01*
X0Y63781D01*
Y65613D01*
X916Y66530D01*
X0Y72028D02*
Y68363D01*
X3665Y72028D01*
X4582D01*
X5498Y71112D01*
Y69279D01*
X4582Y68363D01*
X5498Y77526D02*
Y73861D01*
X2749D01*
X3665Y75694D01*
Y76610D01*
X2749Y77526D01*
X916D01*
X0Y76610D01*
Y74777D01*
X916Y73861D01*
X-3002Y58250D02*
Y60083D01*
Y59166D01*
X-8500D01*
Y58250D01*
Y60083D01*
X-3918Y66497D02*
X-3002Y65581D01*
Y63748D01*
X-3918Y62832D01*
X-7584D01*
X-8500Y63748D01*
Y65581D01*
X-7584Y66497D01*
X-8500Y71996D02*
Y68330D01*
X-4834Y71996D01*
X-3918D01*
X-3002Y71079D01*
Y69246D01*
X-3918Y68330D01*
Y73828D02*
X-3002Y74745D01*
Y76577D01*
X-3918Y77494D01*
X-4834D01*
X-5751Y76577D01*
Y75661D01*
Y76577D01*
X-6667Y77494D01*
X-7584D01*
X-8500Y76577D01*
Y74745D01*
X-7584Y73828D01*
X60998Y88250D02*
Y90083D01*
Y89166D01*
X55500D01*
Y88250D01*
Y90083D01*
X60082Y96497D02*
X60998Y95581D01*
Y93748D01*
X60082Y92832D01*
X56416D01*
X55500Y93748D01*
Y95581D01*
X56416Y96497D01*
X55500Y101995D02*
Y98330D01*
X59166Y101995D01*
X60082D01*
X60998Y101079D01*
Y99246D01*
X60082Y98330D01*
X60998Y103828D02*
Y107494D01*
X60082D01*
X56416Y103828D01*
X55500D01*
X49750Y257248D02*
X46084Y251750D01*
Y257248D02*
X49750Y251750D01*
X44252D02*
X42419D01*
X43335D01*
Y257248D01*
X44252Y256332D01*
X36004Y251750D02*
X39670D01*
X36004Y255415D01*
Y256332D01*
X36921Y257248D01*
X38753D01*
X39670Y256332D01*
X161638Y187638D02*
X160342Y188934D01*
X160990Y188286D01*
X157102Y184398D01*
X157750Y183750D01*
X156454Y185046D01*
X155158Y192822D02*
X156454Y192822D01*
X157750Y191526D01*
X157750Y190230D01*
X155158Y187638D01*
X153862D01*
X152566Y188934D01*
Y190230D01*
X154510Y194765D02*
X151918Y197357D01*
X151270Y196709D01*
Y191526D01*
X150622Y190878D01*
X46248Y118250D02*
Y120083D01*
Y119166D01*
X40750D01*
Y118250D01*
Y120083D01*
X45332Y126497D02*
X46248Y125581D01*
Y123748D01*
X45332Y122832D01*
X41666D01*
X40750Y123748D01*
Y125581D01*
X41666Y126497D01*
X40750Y131995D02*
Y128330D01*
X44415Y131995D01*
X45332D01*
X46248Y131079D01*
Y129247D01*
X45332Y128330D01*
Y133828D02*
X46248Y134745D01*
Y136577D01*
X45332Y137494D01*
X41666D01*
X40750Y136577D01*
Y134745D01*
X41666Y133828D01*
X45332D01*
X91638Y93388D02*
X90342Y94684D01*
X90990Y94036D01*
X87102Y90148D01*
X87750Y89500D01*
X86454Y90796D01*
X85158Y98572D02*
X86454Y98572D01*
X87750Y97276D01*
X87750Y95980D01*
X85158Y93388D01*
X83862D01*
X82566Y94684D01*
Y95980D01*
X80622Y96628D02*
X79326Y97924D01*
X79974Y97276D01*
X83862Y101164D01*
X83862Y99867D01*
X78030Y100515D02*
X76734D01*
X75438Y101812D01*
Y103107D01*
X78030Y105699D01*
X79326Y105699D01*
X80622Y104403D01*
X80622Y103107D01*
X79974Y102459D01*
X78678D01*
X76734Y104403D01*
X16250Y163998D02*
X14417D01*
X15334D01*
Y158500D01*
X16250D01*
X14417D01*
X8003Y163082D02*
X8919Y163998D01*
X10752D01*
X11668Y163082D01*
Y159416D01*
X10752Y158500D01*
X8919D01*
X8003Y159416D01*
X6170Y158500D02*
X4337D01*
X5254D01*
Y163998D01*
X6170Y163082D01*
X-2077Y163998D02*
X1588D01*
Y161249D01*
X-245Y162166D01*
X-1161D01*
X-2077Y161249D01*
Y159416D01*
X-1161Y158500D01*
X672D01*
X1588Y159416D01*
X163000Y244998D02*
X161167D01*
X162084D01*
Y239500D01*
X163000D01*
X161167D01*
X154753Y244082D02*
X155669Y244998D01*
X157502D01*
X158418Y244082D01*
Y240416D01*
X157502Y239500D01*
X155669D01*
X154753Y240416D01*
X152920Y239500D02*
X151087D01*
X152004D01*
Y244998D01*
X152920Y244082D01*
X148338D02*
X147422Y244998D01*
X145589D01*
X144673Y244082D01*
Y243165D01*
X145589Y242249D01*
X144673Y241333D01*
Y240416D01*
X145589Y239500D01*
X147422D01*
X148338Y240416D01*
Y241333D01*
X147422Y242249D01*
X148338Y243165D01*
Y244082D01*
X147422Y242249D02*
X145589D01*
X301000Y274998D02*
X299167D01*
X300084D01*
Y269500D01*
X301000D01*
X299167D01*
X292753Y274082D02*
X293669Y274998D01*
X295502D01*
X296418Y274082D01*
Y270416D01*
X295502Y269500D01*
X293669D01*
X292753Y270416D01*
X290920Y269500D02*
X289087D01*
X290004D01*
Y274998D01*
X290920Y274082D01*
X286338D02*
X285422Y274998D01*
X283589D01*
X282673Y274082D01*
Y273165D01*
X283589Y272249D01*
X284505D01*
X283589D01*
X282673Y271333D01*
Y270416D01*
X283589Y269500D01*
X285422D01*
X286338Y270416D01*
X8748Y8250D02*
Y10083D01*
Y9166D01*
X3250D01*
Y8250D01*
Y10083D01*
X7832Y16497D02*
X8748Y15581D01*
Y13748D01*
X7832Y12832D01*
X4166D01*
X3250Y13748D01*
Y15581D01*
X4166Y16497D01*
X3250Y21995D02*
Y18330D01*
X6916Y21995D01*
X7832D01*
X8748Y21079D01*
Y19246D01*
X7832Y18330D01*
X3250Y23828D02*
Y25661D01*
Y24745D01*
X8748D01*
X7832Y23828D01*
X367500Y34998D02*
X365667D01*
X366584D01*
Y29500D01*
X367500D01*
X365667D01*
X359253Y34082D02*
X360169Y34998D01*
X362002D01*
X362918Y34082D01*
Y30416D01*
X362002Y29500D01*
X360169D01*
X359253Y30416D01*
X353755Y29500D02*
X357420D01*
X353755Y33166D01*
Y34082D01*
X354671Y34998D01*
X356504D01*
X357420Y34082D01*
X216748Y142500D02*
Y144333D01*
Y143416D01*
X211250D01*
Y142500D01*
Y144333D01*
X215832Y150747D02*
X216748Y149831D01*
Y147998D01*
X215832Y147082D01*
X212166D01*
X211250Y147998D01*
Y149831D01*
X212166Y150747D01*
X211250Y152580D02*
Y154413D01*
Y153496D01*
X216748D01*
X215832Y152580D01*
X221835Y208248D02*
X225500D01*
Y205499D01*
X223667D01*
X225500D01*
Y202750D01*
X220002Y208248D02*
Y202750D01*
X216336D01*
X210838D02*
X214504D01*
X210838Y206416D01*
Y207332D01*
X211754Y208248D01*
X213587D01*
X214504Y207332D01*
D14*
X241500Y294500D02*
G03*
X241500Y294500I-1250J0D01*
G01*
X41671Y154157D02*
G03*
X41671Y154157I-1250J0D01*
G01*
X465750Y130500D02*
G03*
X465750Y130500I-250J0D01*
G01*
X243250Y294000D02*
G03*
X243250Y294000I-1250J0D01*
G01*
X465750Y217000D02*
G03*
X465750Y217000I-250J0D01*
G01*
D15*
X298500Y280000D02*
Y284000D01*
X292000Y280000D02*
Y284000D01*
X305250Y280000D02*
Y284000D01*
X298750Y280000D02*
Y284000D01*
X171000Y224000D02*
X175000D01*
X171000Y230500D02*
X175000D01*
X179750Y228250D02*
X182750D01*
X178000Y226250D02*
Y230250D01*
X184500Y226250D02*
Y230250D01*
X171000Y230750D02*
X175000D01*
X171000Y237250D02*
X175000D01*
X137750Y238250D02*
X141750D01*
X137750Y244750D02*
X141750D01*
X126500Y238000D02*
X130500D01*
X126500Y244500D02*
X130500D01*
X17250Y181750D02*
X21250D01*
X17250Y175250D02*
X21250D01*
X19500Y168750D02*
X23500D01*
X19500Y175250D02*
X23500D01*
X215750Y233750D02*
X218750D01*
X214000Y231750D02*
Y235750D01*
X220500Y231750D02*
Y235750D01*
X186250Y232950D02*
X189250Y232950D01*
X191000Y230950D02*
Y234950D01*
X184500Y230950D02*
Y234950D01*
X32500Y203250D02*
X35500D01*
X30750Y201250D02*
Y205250D01*
X37250Y201250D02*
Y205250D01*
X10750Y13250D02*
Y17250D01*
X17250Y13250D02*
Y17250D01*
X263750Y296250D02*
X281750D01*
X263750Y274250D02*
X281750D01*
X416845Y91045D02*
X418345Y92545D01*
X415845Y91045D02*
X418345D01*
X418345Y103045D01*
X396345Y95045D02*
Y103045D01*
X7009Y174096D02*
X11009D01*
X7009Y167596D02*
X11009D01*
X29750Y47500D02*
X33750D01*
X29750Y54000D02*
X33750D01*
X86750Y232000D02*
X90750D01*
X86750Y238500D02*
X90750D01*
X120000Y231500D02*
X124000D01*
X120000Y238000D02*
X124000D01*
X419250Y166000D02*
Y170000D01*
X425750Y166000D02*
Y170000D01*
X426250Y64050D02*
X426250Y68050D01*
X432750D02*
X432750Y64050D01*
X433750Y64000D02*
Y68000D01*
X440250Y64000D02*
Y68000D01*
X317500Y5500D02*
Y8500D01*
X315500Y10250D02*
X319500D01*
X315500Y3750D02*
X319500D01*
X377750Y53500D02*
Y61500D01*
X399750Y49500D02*
Y61500D01*
X397250Y49500D02*
X399750D01*
X398250Y49500D02*
X399750Y51000D01*
X351500Y27750D02*
X369500D01*
X351500Y5750D02*
X369500D01*
X247250Y284000D02*
X251250D01*
X247250Y290500D02*
X251250D01*
X249250Y285750D02*
Y288750D01*
X399050Y750D02*
X403050D01*
X399050Y7250D02*
X403050D01*
X401050Y5500D02*
X401050Y2500D01*
X70000Y9550D02*
Y13550D01*
X63500Y9550D02*
Y13550D01*
X65250Y11550D02*
X68250D01*
X2250Y195500D02*
X6250D01*
X2250Y202000D02*
X6250D01*
X4250Y197250D02*
Y200250D01*
X139000Y295500D02*
X143000D01*
X139000Y289000D02*
X143000D01*
X141000Y290750D02*
Y293750D01*
X36566Y40416D02*
X40566D01*
X36566Y46916D02*
X40566D01*
X24238Y40416D02*
X28238Y40416D01*
X24238Y46916D02*
X28238Y46916D01*
X341750Y19500D02*
Y23500D01*
X335250Y19500D02*
Y23500D01*
X324500Y24500D02*
Y28500D01*
X331000Y24500D02*
Y28500D01*
X223250Y219500D02*
Y223500D01*
X216750Y219500D02*
Y223500D01*
X230500Y230500D02*
Y234500D01*
X224000Y230500D02*
Y234500D01*
X197250Y20000D02*
X197250D01*
X26250Y201250D02*
Y205250D01*
X19750Y201250D02*
Y205250D01*
X21500Y203250D02*
X24500Y203250D01*
X42250Y220250D02*
X46250D01*
X42250Y213750D02*
X46250D01*
X44250Y218500D02*
X44250Y215500D01*
X135750Y220000D02*
Y224000D01*
X142250Y220000D02*
Y224000D01*
X137500Y222000D02*
X140500D01*
X2250Y221500D02*
X6250D01*
X2250Y215000D02*
X6250Y215000D01*
X4250Y216750D02*
X4250Y219750D01*
X2250Y208500D02*
X6250D01*
X2250Y202000D02*
X6250D01*
X16000Y211500D02*
X20000D01*
X16000Y218000D02*
X20000Y218000D01*
X2250Y208500D02*
X6250D01*
X2250Y215000D02*
X6250D01*
X135750Y231250D02*
X139750D01*
X135750Y237750D02*
X139750D01*
X137750Y233000D02*
Y236000D01*
X19250Y203000D02*
Y207000D01*
X12750Y203000D02*
Y207000D01*
X14500Y205000D02*
X17500D01*
X31496Y152250D02*
X35496D01*
X31496Y145750D02*
X35496D01*
X33496Y147500D02*
Y150500D01*
X38300Y172950D02*
X42300Y172950D01*
X38300Y166450D02*
X42300Y166450D01*
X169000Y217000D02*
Y221000D01*
X175500Y217000D02*
Y221000D01*
X170750Y219000D02*
X173750D01*
X42750Y166500D02*
X46750D01*
X42750Y160000D02*
X46750D01*
X44750Y164750D02*
X44750Y161750D01*
X407000Y176500D02*
X411000D01*
X407000Y183000D02*
X411000Y183000D01*
X418950Y183750D02*
X422950D01*
X418950Y190250D02*
X422950D01*
X406950Y183750D02*
X410950Y183750D01*
X406950Y190250D02*
X410950Y190250D01*
X118538Y220366D02*
X121366Y217538D01*
X123134Y224962D02*
X125962Y222134D01*
X121189Y220189D02*
X123311Y222311D01*
X5000Y289950D02*
X8000Y289950D01*
X3250Y291950D02*
X3250Y287950D01*
X9750D02*
Y291950D01*
X302500Y264500D02*
Y267500D01*
X300500Y269250D02*
X304500D01*
X300500Y262750D02*
X304500D01*
X261500Y258000D02*
Y261000D01*
X259500Y262750D02*
X263500D01*
X259500Y256250D02*
X263500D01*
X388750Y182000D02*
X391750D01*
X393500Y180000D02*
Y184000D01*
X387000Y180000D02*
Y184000D01*
X397500Y182000D02*
X400500D01*
X395750Y180000D02*
Y184000D01*
X402250Y180000D02*
Y184000D01*
X302500Y258000D02*
Y261000D01*
X300500Y256250D02*
X304500D01*
X300500Y262750D02*
X304500D01*
X385750Y225500D02*
X388750D01*
X390500Y223500D02*
Y227500D01*
X384000Y223500D02*
Y227500D01*
X261500Y264500D02*
Y267500D01*
X259500Y262750D02*
X263500D01*
X259500Y269250D02*
X263500D01*
X392250Y225500D02*
X395250D01*
X390500Y223500D02*
Y227500D01*
X397000Y223500D02*
Y227500D01*
X358300Y241000D02*
Y244000D01*
X356300Y245750D02*
X360300D01*
X356300Y239250D02*
X360300D01*
X372750Y181750D02*
X375750D01*
X377500Y179750D02*
Y183750D01*
X371000Y179750D02*
Y183750D01*
X358300Y234500D02*
Y237500D01*
X356300Y232750D02*
X360300D01*
X356300Y239250D02*
X360300D01*
X366250Y181750D02*
X369250D01*
X364500Y179750D02*
Y183750D01*
X371000Y179750D02*
Y183750D01*
X320700Y241000D02*
Y244000D01*
X318700Y239250D02*
X322700D01*
X318700Y245750D02*
X322700D01*
X373000Y219500D02*
X376000D01*
X371250Y217500D02*
Y221500D01*
X377750Y217500D02*
Y221500D01*
X320700Y234500D02*
Y237500D01*
X318700Y239250D02*
X322700D01*
X318700Y232750D02*
X322700D01*
X366500Y219500D02*
X369500D01*
X371250Y217500D02*
Y221500D01*
X364750Y217500D02*
Y221500D01*
X220500Y210750D02*
Y213750D01*
X218500Y215500D02*
X222500D01*
X218500Y209000D02*
X222500D01*
X76200Y237700D02*
X80200D01*
X76200Y231200D02*
X80200D01*
X78200Y235950D02*
X78200Y232950D01*
X127800Y222300D02*
X131800Y222300D01*
X127800Y228800D02*
X131800Y228800D01*
X129800Y224050D02*
X129800Y227050D01*
X191000Y151750D02*
Y155750D01*
X197500Y151750D02*
Y155750D01*
X204250Y157350D02*
Y161350D01*
X197750Y157350D02*
Y161350D01*
X356750Y258750D02*
Y262750D01*
X350250Y258750D02*
Y262750D01*
X238500Y72500D02*
Y76500D01*
X245000Y72500D02*
Y76500D01*
X240250Y74500D02*
X243250D01*
X252250Y69000D02*
X256250D01*
X252250Y62500D02*
X256250D01*
X229200Y74957D02*
X233200D01*
X229200Y68457D02*
X233200D01*
X82500Y66000D02*
X85500D01*
X87250Y64000D02*
Y68000D01*
X80750Y64000D02*
Y68000D01*
X55750Y6750D02*
X57750D01*
X55750Y4750D02*
Y6750D01*
Y4750D02*
X57750D01*
X25750D02*
Y36750D01*
X57750Y4750D02*
Y36750D01*
X207175Y140220D02*
X211175D01*
X207175Y133720D02*
X211175D01*
X243500Y238500D02*
Y242500D01*
X250000Y238500D02*
Y242500D01*
X9750Y268800D02*
X9750Y264800D01*
X3250D02*
Y268800D01*
X246300Y264550D02*
X250300D01*
X246300Y271050D02*
X250300D01*
X9750Y276750D02*
Y280750D01*
X3250Y276750D02*
Y280750D01*
X236000Y238500D02*
Y242500D01*
X242500Y238500D02*
Y242500D01*
X65450Y245200D02*
X69450D01*
X65450Y251700D02*
X69450D01*
X253000Y250750D02*
Y254750D01*
X246500Y250750D02*
Y254750D01*
X25300Y246750D02*
Y249750D01*
X23300Y251500D02*
X27300D01*
X23300Y245000D02*
X27300D01*
X12800Y251000D02*
X12800Y254000D01*
X10800Y249250D02*
X14800D01*
X10800Y255750D02*
X14800D01*
X116157Y64458D02*
X120157D01*
X116157Y70957D02*
X120157D01*
X84750Y87250D02*
X84750Y91250D01*
X78250Y87250D02*
Y91250D01*
X88270Y53867D02*
X91099Y56695D01*
X83674Y58463D02*
X86502Y61292D01*
X361250Y118650D02*
Y121650D01*
X359250Y123400D02*
X363250D01*
X359250Y116900D02*
X363250D01*
X420000Y121250D02*
X420000Y125250D01*
X413500D02*
X413500Y121250D01*
X415250Y123250D02*
X418250D01*
X361750Y136750D02*
Y140750D01*
X355250Y136750D02*
Y140750D01*
X5250Y133750D02*
X9250D01*
X5250Y127250D02*
X9250D01*
X5250Y125308D02*
X9250Y125308D01*
X5250Y118808D02*
X9250Y118808D01*
X17995Y3500D02*
X21995D01*
X17995Y10000D02*
X21995D01*
X19995Y5250D02*
Y8250D01*
X2243Y145667D02*
X6243D01*
X2243Y139167D02*
X6243D01*
X2243Y151997D02*
X6243D01*
X2243Y145497D02*
X6243D01*
X359500Y154850D02*
X362500D01*
X357750Y152850D02*
Y156850D01*
X364250Y152850D02*
Y156850D01*
X454000Y229000D02*
Y233000D01*
X447500Y229000D02*
Y233000D01*
X442750Y231000D02*
X445750Y231000D01*
X447500Y229000D02*
Y233000D01*
X441000Y229000D02*
Y233000D01*
X428700Y232550D02*
X431700D01*
X426950Y230550D02*
Y234550D01*
X433450Y230550D02*
Y234550D01*
X350500Y274050D02*
Y278050D01*
X357000Y274050D02*
Y278050D01*
X359750Y276050D02*
X362750D01*
X358000Y274050D02*
Y278050D01*
X364500Y274050D02*
Y278050D01*
X359500Y264500D02*
X362500D01*
X364250Y262500D02*
Y266500D01*
X357750Y262500D02*
Y266500D01*
X395985Y117600D02*
X395985Y120600D01*
X393985Y115850D02*
X397985Y115850D01*
X393985Y122350D02*
X397985Y122350D01*
X407250Y117000D02*
Y120000D01*
X405250Y121750D02*
X409250D01*
X405250Y115250D02*
X409250D01*
X51199Y125558D02*
X54028Y122730D01*
X55795Y130154D02*
X58624Y127326D01*
X72235Y102330D02*
X75064Y105158D01*
X67639Y106926D02*
X70468Y109754D01*
X61275Y113290D02*
X64104Y116118D01*
X56679Y117886D02*
X59508Y120715D01*
X83179Y204000D02*
X87179D01*
X83179Y197500D02*
X87179D01*
X62159Y112406D02*
X64988Y115234D01*
X66755Y107810D02*
X69584Y110638D01*
X64811Y112583D02*
X66932Y110462D01*
X359250Y130750D02*
X363250D01*
X359250Y124250D02*
X363250D01*
X251000Y221000D02*
Y225000D01*
X257500Y221000D02*
Y225000D01*
X251250Y217750D02*
X255250D01*
X251250Y211250D02*
X255250D01*
X253250Y213000D02*
Y216000D01*
X220000Y187750D02*
Y191750D01*
X226500Y187750D02*
Y191750D01*
X221750Y189750D02*
X224750D01*
X213500Y192000D02*
Y196000D01*
X220000Y192000D02*
Y196000D01*
X215250Y194000D02*
X218250D01*
X287865Y87250D02*
X291865D01*
X287865Y80750D02*
X291865D01*
X289865Y82500D02*
Y85500D01*
X293250Y72500D02*
Y76500D01*
X286750Y72500D02*
Y76500D01*
X284750Y72500D02*
Y76500D01*
X278250Y72500D02*
Y76500D01*
X276750Y87250D02*
X280750D01*
X276750Y80750D02*
X280750D01*
X278750Y82500D02*
Y85500D01*
X265950Y87250D02*
X269950D01*
X265950Y80750D02*
X269950D01*
X267950Y82500D02*
Y85500D01*
X274000Y72500D02*
Y76500D01*
X267500Y72500D02*
Y76500D01*
X298750Y80750D02*
X302750D01*
X298750Y87250D02*
X302750D01*
X300750Y82500D02*
Y85500D01*
X301250Y72500D02*
Y76500D01*
X294750Y72500D02*
Y76500D01*
X254950Y87250D02*
X258950D01*
X254950Y80750D02*
X258950D01*
X256950Y82500D02*
Y85500D01*
X262950Y72500D02*
Y76500D01*
X256450Y72500D02*
Y76500D01*
X243950Y87250D02*
X247950D01*
X243950Y80750D02*
X247950Y80750D01*
X245950Y85500D02*
X245950Y82500D01*
X252000Y72500D02*
Y76500D01*
X245500Y72500D02*
Y76500D01*
X363250Y166750D02*
Y170750D01*
X356750Y166750D02*
Y170750D01*
X358500Y168750D02*
X361500D01*
X367050Y169200D02*
X371050D01*
X367050Y162700D02*
X371050D01*
X368250Y148800D02*
X372250D01*
X368250Y155300D02*
X372250D01*
D16*
X305750Y276000D02*
Y286000D01*
Y276000D02*
X313750D01*
X318750D02*
X326750D01*
Y286000D01*
X318750D02*
X326750D01*
X305750D02*
X313750D01*
X313500Y270750D02*
X324500D01*
X313500Y262750D02*
Y270750D01*
Y249750D02*
Y257750D01*
Y249750D02*
X324500Y249750D01*
Y257750D01*
Y262750D02*
Y270750D01*
X306100Y237440D02*
Y245060D01*
X293400Y237440D02*
Y245060D01*
X221238Y13722D02*
X230762D01*
X221238Y17278D02*
X230762D01*
X257900Y237440D02*
Y245060D01*
X270600Y237440D02*
Y245060D01*
X385025Y109545D02*
X396025D01*
X385025Y101545D02*
Y109545D01*
Y88545D02*
Y96545D01*
Y88545D02*
X396025D01*
Y96545D01*
Y101545D02*
Y109545D01*
X366975Y68035D02*
X377975D01*
X366975Y60035D02*
Y68035D01*
Y47035D02*
Y55035D01*
Y47035D02*
X377975D01*
Y55035D01*
Y60035D02*
Y68035D01*
X170778Y74738D02*
Y84262D01*
X167222Y74738D02*
Y84262D01*
X313738Y54472D02*
X323262D01*
X313738Y58028D02*
X323262D01*
X312250Y42250D02*
X320250D01*
X325250D02*
X333250D01*
Y32250D02*
Y42250D01*
X325250Y32250D02*
X333250D01*
X312250D02*
X320250D01*
X312250D02*
Y42250D01*
X312000Y11250D02*
Y19250D01*
Y24250D02*
Y32250D01*
X323000D01*
Y24250D02*
Y32250D01*
Y11250D02*
Y19250D01*
X312000Y11250D02*
X323000D01*
X48982Y168447D02*
X54639Y162790D01*
X39790Y177639D02*
X45447Y171982D01*
X39790Y177639D02*
X46861Y184710D01*
X52518Y179053D01*
X56053Y175518D02*
X61710Y169861D01*
X54639Y162790D02*
X61710Y169861D01*
X64230Y191224D02*
X70965Y184489D01*
X61716Y188709D02*
X68450Y181975D01*
X128000Y90000D02*
X136000D01*
X141000D02*
X149000D01*
Y80000D02*
Y90000D01*
X141000Y80000D02*
X149000D01*
X128000D02*
X136000D01*
X128000D02*
Y90000D01*
X136222Y67988D02*
Y77512D01*
X139778Y67988D02*
Y77512D01*
X83250Y206969D02*
X91250D01*
X70250D02*
X78250D01*
X70250D02*
Y216969D01*
X78250D01*
X83250D02*
X91250D01*
Y206969D02*
Y216969D01*
X97540Y220347D02*
X103197Y226004D01*
X106732Y229539D02*
X112389Y235196D01*
X119460Y228125D01*
X113803Y222468D02*
X119460Y228125D01*
X104611Y213276D02*
X110268Y218933D01*
X97540Y220347D02*
X104611Y213276D01*
X82528Y218238D02*
Y227762D01*
X78972Y218238D02*
Y227762D01*
X-250Y228000D02*
Y236000D01*
Y241000D02*
Y249000D01*
X9750D01*
Y241000D02*
Y249000D01*
Y228000D02*
Y236000D01*
X-250Y228000D02*
X9750D01*
X367271Y37000D02*
Y47000D01*
X359271D02*
X367271D01*
X346271D02*
X354271D01*
X346271Y37000D02*
Y47000D01*
Y37000D02*
X354271D01*
X359271D02*
X367271D01*
X392500Y272500D02*
X402500D01*
X392500Y264500D02*
Y272500D01*
Y251500D02*
Y259500D01*
Y251500D02*
X402500D01*
Y259500D01*
Y264500D02*
Y272500D01*
X57940Y58150D02*
X65560D01*
X57940Y70850D02*
X65560D01*
X65527Y84972D02*
X75051D01*
X65527Y88528D02*
X75051D01*
X68245Y32250D02*
Y40250D01*
Y19250D02*
Y27250D01*
X58245Y19250D02*
X68245D01*
X58245D02*
Y27250D01*
Y32250D02*
Y40250D01*
X68245D01*
X25104Y32250D02*
Y40250D01*
Y19250D02*
Y27250D01*
X15104Y19250D02*
X25104D01*
X15104D02*
Y27250D01*
Y32250D02*
Y40250D01*
X25104D01*
X79245Y32250D02*
Y40250D01*
Y19250D02*
Y27250D01*
X68245Y19250D02*
X79245D01*
X68245D02*
Y27250D01*
Y32250D02*
Y40250D01*
X79245D01*
X22170Y57720D02*
X32330D01*
X22170Y84720D02*
X32330D01*
X22170Y89470D02*
X32330D01*
X22170Y116470D02*
X32330D01*
X346475Y57535D02*
X354475D01*
X359475D02*
X367475D01*
Y47535D02*
Y57535D01*
X359475Y47535D02*
X367475D01*
X346475D02*
X354475D01*
X346475D02*
Y57535D01*
X346475Y60035D02*
Y68035D01*
Y47035D02*
Y55035D01*
X336475Y47035D02*
X346475D01*
X336475D02*
Y55035D01*
Y60035D02*
Y68035D01*
X346475D01*
X346475Y67535D02*
X354475D01*
X359475D02*
X367475D01*
Y57535D02*
Y67535D01*
X359475Y57535D02*
X367475D01*
X346475D02*
X354475D01*
X346475D02*
Y67535D01*
X294500Y215000D02*
X302500D01*
X281500D02*
X289500D01*
X281500D02*
Y226000D01*
X289500D01*
X294500D02*
X302500D01*
Y215000D02*
Y226000D01*
X271500Y236000D02*
X279500D01*
X284500D02*
X292500D01*
Y226000D02*
Y236000D01*
X284500Y226000D02*
X292500D01*
X271500D02*
X279500D01*
X271500D02*
Y236000D01*
X261500Y226000D02*
X269500D01*
X274500D02*
X282500D01*
Y215000D02*
Y226000D01*
X274500Y215000D02*
X282500D01*
X261500D02*
X269500D01*
X261500D02*
Y226000D01*
X329000Y242500D02*
X337000D01*
X342000D02*
X350000D01*
Y232500D02*
Y242500D01*
X342000Y232500D02*
X350000D01*
X329000D02*
X337000D01*
X329000D02*
Y242500D01*
X342000Y263500D02*
X350000D01*
X329000D02*
X337000D01*
X329000D02*
Y273500D01*
X337000D01*
X342000D02*
X350000D01*
Y263500D02*
Y273500D01*
X339500Y255500D02*
Y263500D01*
Y242500D02*
Y250500D01*
X329500Y242500D02*
X339500D01*
X329500D02*
Y250500D01*
Y255500D02*
Y263500D01*
X339500D01*
X319000Y232500D02*
X327000D01*
X332000D02*
X340000D01*
Y221500D02*
Y232500D01*
X332000Y221500D02*
X340000D01*
X319000D02*
X327000D01*
X319000D02*
Y232500D01*
X339500Y242500D02*
Y250500D01*
Y255500D02*
Y263500D01*
X349500D01*
Y255500D02*
Y263500D01*
Y242500D02*
Y250500D01*
X339500Y242500D02*
X349500D01*
X352000Y221500D02*
X360000D01*
X339000D02*
X347000D01*
X339000D02*
Y232500D01*
X347000D01*
X352000D02*
X360000D01*
Y221500D02*
Y232500D01*
X282000Y236000D02*
Y244000D01*
Y249000D02*
Y257000D01*
X292000D01*
Y249000D02*
Y257000D01*
Y236000D02*
Y244000D01*
X282000Y236000D02*
X292000D01*
X282000Y249000D02*
Y257000D01*
Y236000D02*
Y244000D01*
X272000Y236000D02*
X282000D01*
X272000D02*
Y244000D01*
Y249000D02*
Y257000D01*
X282000D01*
X284500Y257000D02*
X292500D01*
X271500D02*
X279500D01*
X271500D02*
Y267000D01*
X279500D01*
X284500D02*
X292500D01*
Y257000D02*
Y267000D01*
X364525Y80545D02*
Y88545D01*
Y67545D02*
Y75545D01*
X354525Y67545D02*
X364525D01*
X354525D02*
Y75545D01*
Y80545D02*
Y88545D01*
X364525D01*
X364525Y88045D02*
X372525Y88045D01*
X377525D02*
X385525D01*
Y78045D02*
Y88045D01*
X377525Y78045D02*
X385525D01*
X364525D02*
X372525D01*
X364525Y88045D02*
X364525Y78045D01*
X395525Y80545D02*
Y88545D01*
Y67545D02*
Y75545D01*
X385525Y67545D02*
X395525D01*
X385525D02*
Y75545D01*
Y80545D02*
Y88545D01*
X395525D01*
X364525Y78045D02*
X372525D01*
X377525D02*
X385525D01*
X385525Y68045D01*
X377525Y68045D02*
X385525Y68045D01*
X364525Y68045D02*
X372525D01*
X364525D02*
Y78045D01*
X364500Y213000D02*
X364500Y221000D01*
X364500Y200000D02*
X364500Y208000D01*
X353500Y200000D02*
X364500D01*
X353500D02*
Y208000D01*
Y213000D02*
Y221000D01*
X364500D01*
X353500Y180000D02*
Y188000D01*
Y193000D02*
Y201000D01*
X364500D01*
Y193000D02*
Y201000D01*
X364500Y180000D02*
X364500Y188000D01*
X353500Y180000D02*
X364500Y180000D01*
X395500Y190000D02*
Y198000D01*
Y203000D02*
Y211000D01*
X405500D01*
Y203000D02*
Y211000D01*
X405500Y190000D02*
X405500Y198000D01*
X395500Y190000D02*
X405500D01*
X387500Y200500D02*
X395500D01*
X374500D02*
X382500D01*
X374500D02*
Y210500D01*
X382500D01*
X387500D02*
X395500D01*
Y200500D02*
Y210500D01*
X374500Y200500D02*
X382500D01*
X387500D02*
X395500D01*
Y190500D02*
Y200500D01*
X387500Y190500D02*
X395500D01*
X374500D02*
X382500D01*
X374500D02*
Y200500D01*
X374500Y203000D02*
Y211000D01*
Y190000D02*
Y198000D01*
X364500Y190000D02*
X374500D01*
X364500D02*
Y198000D01*
Y203000D02*
Y211000D01*
X374500D01*
X164488Y44722D02*
X174012D01*
X164488Y48278D02*
X174012Y48278D01*
X97488Y44722D02*
X107012D01*
X97488Y48278D02*
X107012D01*
X164488Y17278D02*
X174012D01*
X164488Y13722D02*
X174012D01*
X97488Y13722D02*
X107012D01*
X97488Y17278D02*
X107012D01*
X364525Y89045D02*
Y99045D01*
Y89045D02*
X372525D01*
X377525D02*
X385525D01*
Y99045D01*
X377525D02*
X385525D01*
X364525D02*
X372525D01*
X354525Y109545D02*
X364525D01*
X354525Y101545D02*
Y109545D01*
Y88545D02*
Y96545D01*
Y88545D02*
X364525D01*
Y96545D01*
Y101545D02*
Y109545D01*
X364525Y99045D02*
Y109045D01*
Y99045D02*
X372525D01*
X377525D02*
X385525D01*
Y109045D01*
X377525D02*
X385525D01*
X364525D02*
X372525D01*
X301000Y64250D02*
X312000D01*
X301000Y56250D02*
Y64250D01*
Y43250D02*
Y51250D01*
Y43250D02*
X312000Y43250D01*
X312000Y51250D01*
Y56250D02*
Y64250D01*
X288238Y48278D02*
X297762Y48278D01*
X288238Y44722D02*
X297762Y44722D01*
X197250Y42000D02*
X205250D01*
X210250D02*
X218250D01*
X218250Y31000D01*
X210250D02*
X218250D01*
X197250D02*
X205250D01*
X197250D02*
X197250Y42000D01*
X221238Y44722D02*
X230762D01*
X221238Y48278D02*
X230762D01*
X197250Y31000D02*
X205250D01*
X210250D02*
X218250D01*
X218250Y20000D02*
X218250Y31000D01*
X210250Y20000D02*
X218250D01*
X197250D02*
X205250D01*
X197250Y31000D02*
X197250Y20000D01*
X300250Y5000D02*
Y13000D01*
Y18000D02*
Y26000D01*
X311250Y26000D01*
X311250Y18000D01*
Y5000D02*
Y13000D01*
X300250Y5000D02*
X311250D01*
X288238Y17278D02*
X297762D01*
X288238Y13722D02*
X297762D01*
D202*
X147708Y92966D02*
X152280Y92966D01*
X157102D02*
X159388D01*
X161162D02*
X165734D01*
X168270D02*
X170556D01*
X171568D02*
X173854Y92966D01*
X176140Y92966D02*
X177664Y92966D01*
X179950Y92966D02*
X182236D01*
X188618D02*
X192428D01*
X194964Y92966D02*
X197250Y92966D01*
X198774Y92966D02*
X201060Y92966D01*
X202584Y92966D02*
X205632Y92966D01*
X206644D02*
X215026D01*
X147708Y93728D02*
X153042Y93728D01*
X157102D02*
X159388D01*
X160400D02*
X166496Y93728D01*
X168270Y93728D02*
X170556Y93728D01*
X171568Y93728D02*
X173854D01*
X175378D02*
X177664Y93728D01*
X179188Y93728D02*
X182236Y93728D01*
X187856Y93728D02*
X193190D01*
X194964Y93728D02*
X197250Y93728D01*
X198774Y93728D02*
X201060Y93728D01*
X202584Y93728D02*
X204870Y93728D01*
X206644Y93728D02*
X214264D01*
X146946Y94490D02*
X149232Y94490D01*
X150756Y94490D02*
X153042Y94490D01*
X157102D02*
X159388D01*
X160400D02*
X162686Y94490D01*
X164210Y94490D02*
X166496Y94490D01*
X167508Y94490D02*
X170556Y94490D01*
X171568Y94490D02*
X173854D01*
X175378D02*
X177664D01*
X179188D02*
X181474D01*
X187094Y94490D02*
X190142Y94490D01*
X190904Y94490D02*
X193190Y94490D01*
X194964Y94490D02*
X197250Y94490D01*
X198774Y94490D02*
X201060Y94490D01*
X202584Y94490D02*
X204870Y94490D01*
X206644Y94490D02*
X208930Y94490D01*
X211978Y94490D02*
X214264Y94490D01*
X146946Y95252D02*
X149232D01*
X150756D02*
X153042D01*
X156340D02*
X159388D01*
X160400D02*
X162686D01*
X164210D02*
X166496D01*
X167508D02*
X169794D01*
X171568D02*
X173854D01*
X175378D02*
X177664D01*
X179188D02*
X181474D01*
X190904D02*
X193190Y95252D01*
X194202Y95252D02*
X197250Y95252D01*
X198774Y95252D02*
X201060Y95252D01*
X202584Y95252D02*
X204870Y95252D01*
X205882Y95252D02*
X208168Y95252D01*
X211978D02*
X214264Y95252D01*
X146946Y96014D02*
X149232D01*
X150756D02*
X153042D01*
X156340D02*
X158626D01*
X164210D02*
X166496D01*
X167508D02*
X169794D01*
X170806D02*
X173854D01*
X175378D02*
X177664D01*
X179188D02*
X181474D01*
X190904D02*
X193190D01*
X194202D02*
X196488D01*
X198774D02*
X200298D01*
X202584D02*
X204870D01*
X205882D02*
X208168D01*
X211978D02*
X214264D01*
X146184Y96776D02*
X148470D01*
X150756D02*
X153042D01*
X156340D02*
X158626Y96776D01*
X164210Y96776D02*
X166496Y96776D01*
X167508Y96776D02*
X169794Y96776D01*
X170806Y96776D02*
X173092D01*
X174616D02*
X176902D01*
X179188D02*
X181474Y96776D01*
X186332Y96776D02*
X193190D01*
X194202D02*
X196488D01*
X198012D02*
X200298D01*
X201822D02*
X204870D01*
X205882D02*
X208168D01*
X211216D02*
X214264D01*
X146184Y97538D02*
X148470D01*
X150756Y97538D02*
X153042Y97538D01*
X156340D02*
X158626Y97538D01*
X163448Y97538D02*
X165734D01*
X167508D02*
X169794D01*
X170806Y97538D02*
X173092Y97538D01*
X174616Y97538D02*
X176902Y97538D01*
X178426Y97538D02*
X180712Y97538D01*
X186332D02*
X188618D01*
X190142D02*
X193190D01*
X194202D02*
X196488D01*
X198012D02*
X200298D01*
X201822D02*
X204108D01*
X205882D02*
X208168D01*
X211216D02*
X213502D01*
X146184Y98300D02*
X148470D01*
X149994D02*
X152280D01*
X156340D02*
X158626Y98300D01*
X159638Y98300D02*
X161924D01*
X163448D02*
X165734D01*
X166746Y98300D02*
X169032Y98300D01*
X170806Y98300D02*
X173092Y98300D01*
X174616Y98300D02*
X176902Y98300D01*
X178426Y98300D02*
X180712Y98300D01*
X186332D02*
X188618D01*
X190142D02*
X193190Y98300D01*
X194202Y98300D02*
X196488D01*
X198012D02*
X200298D01*
X201822D02*
X204108D01*
X205120D02*
X208168Y98300D01*
X211216Y98300D02*
X213502D01*
X146184Y99062D02*
X148470D01*
X149994D02*
X152280D01*
X153292D02*
X154816D01*
X155578D02*
X158626D01*
X159638D02*
X161924D01*
X163448D02*
X165734D01*
X166746D02*
X169032D01*
X170806D02*
X173092D01*
X174616D02*
X176902D01*
X178426D02*
X180712D01*
X186332D02*
X188618D01*
X190142D02*
X192428D01*
X193440D02*
X196488D01*
X198012D02*
X200298D01*
X201822D02*
X204108D01*
X205120D02*
X207406D01*
X211216D02*
X213502D01*
X146434Y99824D02*
X157864D01*
X159638D02*
X165734D01*
X166746D02*
X169032D01*
X170806D02*
X180712D01*
X186332D02*
X192428D01*
X194202D02*
X204108D01*
X205120D02*
X207406D01*
X211216D02*
X213502D01*
X146946Y100586D02*
X151518D01*
X152530D02*
X156340D01*
X159638D02*
X164972D01*
X166746D02*
X169032D01*
X170806D02*
X179188D01*
X186332D02*
X191666D01*
X194202D02*
X202584Y100586D01*
X205120Y100586D02*
X207406D01*
X210454D02*
X213502D01*
X148470Y101348D02*
X149232D01*
X154054D02*
X154816Y101348D01*
X187856Y101348D02*
X190142D01*
X194964Y101348D02*
X197250Y101348D01*
X199536D02*
X201060D01*
X210454Y101348D02*
X212740Y101348D01*
X165984Y102110D02*
X168270D01*
X205120D02*
X206644Y102110D01*
X210454D02*
X212740Y102110D01*
X165984Y102872D02*
X168270Y102872D01*
X204358Y102872D02*
X206644D01*
X210454D02*
X212740D01*
X166746Y103634D02*
X167508D01*
X204358D02*
X205882Y103634D01*
X193130Y105694D02*
X193892D01*
X193130Y106456D02*
X193892Y106456D01*
X201512D02*
X203036D01*
X193892Y107218D02*
X194654Y107218D01*
X201512Y107218D02*
X203036Y107218D01*
X184748Y107980D02*
X185510D01*
X194654Y107980D02*
X195416Y107980D01*
X201512Y107980D02*
X203036Y107980D01*
X186272Y108742D02*
X187034D01*
X194654Y108742D02*
X196178Y108742D01*
X201512D02*
X203036D01*
X187034Y109504D02*
X188558D01*
X195416D02*
X196940D01*
X200750D02*
X203036D01*
X188558Y110266D02*
X190082D01*
X200750D02*
X203036D01*
X189320Y111028D02*
X190844D01*
X200750D02*
X203036D01*
X190844Y111790D02*
X192368Y111790D01*
X201512Y111790D02*
X203036Y111790D01*
X192368Y112552D02*
X193130D01*
X202274Y112552D02*
X203036Y112552D01*
X202274Y113314D02*
X203798D01*
X203798Y114838D02*
X204560D01*
Y115600D02*
X205322Y115600D01*
Y116362D02*
X207608D01*
X193130Y117886D02*
X195416D01*
X206084D02*
X211418D01*
X190844Y118648D02*
X196178D01*
X206846D02*
X209894D01*
X187796Y119410D02*
X196940D01*
X206846D02*
X208370D01*
X196940Y120172D02*
X198464Y120172D01*
X206846Y120172D02*
X208370Y120172D01*
X198464Y120934D02*
X199226D01*
X206846D02*
X209132D01*
X199226Y121696D02*
X199988D01*
X206846D02*
X209894D01*
X199988Y122458D02*
X200750D01*
X206846D02*
X210656D01*
X199988Y123220D02*
X203036D01*
X206084Y123220D02*
X211418Y123220D01*
X199988Y123982D02*
X208370Y123982D01*
X210656Y123982D02*
X212180Y123982D01*
X200750Y124744D02*
X203036D01*
X206084D02*
X208370D01*
X212180D02*
X213704D01*
X200750Y125506D02*
X203036D01*
X206846D02*
X208370D01*
X213704D02*
X214466D01*
X200750Y126268D02*
X202274D01*
X207608D02*
X209132D01*
X215228D02*
X215990D01*
X200750Y127030D02*
X202274Y127030D01*
X207608Y127030D02*
X209894Y127030D01*
X215990Y127030D02*
X216752D01*
X200750Y127792D02*
X202274Y127792D01*
X208370Y127792D02*
X209894Y127792D01*
X217514D02*
X218276Y127792D01*
X200750Y128554D02*
X202274D01*
X209132D02*
X210656Y128554D01*
X219038Y128554D02*
X219800D01*
X200750Y129316D02*
X201512D01*
X209894D02*
X211418D01*
X200750Y130078D02*
X201512D01*
X210656D02*
X211418D01*
X200750Y130840D02*
X201512D01*
X211418D02*
X212180D01*
X211418Y131602D02*
X212942D01*
X212180Y132364D02*
X212942Y132364D01*
Y133126D02*
X213704D01*
Y133888D02*
X214466D01*
M02*
