G04*
G04 #@! TF.GenerationSoftware,Altium Limited,Altium Designer,19.1.6 (110)*
G04*
G04 Layer_Physical_Order=3*
G04 Layer_Color=16440176*
%FSLAX44Y44*%
%MOMM*%
G71*
G01*
G75*
%ADD11C,0.3000*%
%ADD12C,0.2000*%
%ADD14C,0.2500*%
%ADD15C,0.1000*%
%ADD125R,5.5000X5.5000*%
%ADD129C,0.3500*%
%ADD130C,0.4000*%
%ADD136C,0.5000*%
%ADD140C,0.3500*%
%ADD141C,0.4000*%
%ADD142C,0.5000*%
G36*
X465961Y158692D02*
X464895Y157980D01*
X463790Y156326D01*
X463402Y154375D01*
X463790Y152424D01*
X464895Y150770D01*
X465961Y150058D01*
Y146942D01*
X464895Y146230D01*
X463790Y144576D01*
X463402Y142625D01*
X463790Y140674D01*
X464895Y139020D01*
X465961Y138308D01*
Y2039D01*
X371306D01*
X370921Y3309D01*
X371233Y3517D01*
X371840Y4427D01*
X372054Y5500D01*
X371840Y6573D01*
X371233Y7483D01*
X370323Y8090D01*
X369250Y8304D01*
X368177Y8090D01*
X367267Y7483D01*
X366660Y6573D01*
X366652Y6536D01*
X366591Y6473D01*
X366551Y6374D01*
X343882D01*
X342983Y7644D01*
X343054Y8000D01*
X342920Y8671D01*
X343671Y9941D01*
X361000D01*
X361000Y9941D01*
X362170Y10174D01*
X363163Y10837D01*
X365767Y13441D01*
X394733D01*
X400837Y7337D01*
X401829Y6674D01*
X403000Y6441D01*
X404170Y6674D01*
X405163Y7337D01*
X405826Y8330D01*
X406059Y9500D01*
X405826Y10671D01*
X405163Y11663D01*
X398163Y18663D01*
X397171Y19326D01*
X396000Y19559D01*
X396000Y19559D01*
X364500D01*
X364500Y19559D01*
X363329Y19326D01*
X362337Y18663D01*
X362337Y18663D01*
X359733Y16059D01*
X315267D01*
X311163Y20163D01*
X310171Y20826D01*
X309000Y21059D01*
X309000Y21059D01*
X291517D01*
X290069Y22507D01*
Y26000D01*
Y39250D01*
X289797Y40616D01*
X289023Y41773D01*
X277069Y53728D01*
Y67675D01*
X276797Y69040D01*
X276023Y70198D01*
X275151Y71070D01*
X275777Y72241D01*
X276000Y72196D01*
X277073Y72410D01*
X277983Y73017D01*
X278590Y73927D01*
X278804Y75000D01*
X278590Y76073D01*
X277983Y76983D01*
X277073Y77590D01*
X276000Y77804D01*
X274927Y77590D01*
X274017Y76983D01*
X273410Y76073D01*
X273196Y75000D01*
X273241Y74777D01*
X272070Y74151D01*
X271698Y74523D01*
X270540Y75297D01*
X269175Y75569D01*
X255804D01*
X252319Y79054D01*
Y84000D01*
X252047Y85366D01*
X251273Y86523D01*
X234023Y103773D01*
X232866Y104547D01*
X231500Y104819D01*
X218053D01*
X202349Y120523D01*
X201191Y121297D01*
X199825Y121569D01*
X187474D01*
X187113Y122450D01*
X187030Y122839D01*
X187590Y123677D01*
X187804Y124750D01*
X187590Y125823D01*
X187148Y126485D01*
X187148Y126499D01*
X187149Y126508D01*
X187148Y126511D01*
X187148Y126524D01*
X187134Y126559D01*
X187131Y126569D01*
X187121Y126615D01*
X187113Y126670D01*
X187084Y127084D01*
X187082Y127249D01*
X187039Y127350D01*
Y131155D01*
X187942Y132058D01*
X188384Y132720D01*
X188539Y133500D01*
X188539Y133500D01*
Y139405D01*
X191192Y142058D01*
X191634Y142720D01*
X191789Y143500D01*
X191789Y143500D01*
Y150000D01*
X191789Y150000D01*
X191634Y150780D01*
X191192Y151442D01*
X191192Y151442D01*
X187192Y155442D01*
X186530Y155884D01*
X185750Y156039D01*
X184541D01*
X181289Y159291D01*
Y170155D01*
X187911Y176778D01*
X189181Y176252D01*
Y167153D01*
X188727Y166698D01*
X187953Y165540D01*
X187682Y164175D01*
Y159825D01*
X187953Y158460D01*
X188727Y157302D01*
X195431Y150597D01*
Y149250D01*
X195703Y147884D01*
X196477Y146727D01*
X201227Y141977D01*
X202384Y141203D01*
X203750Y140931D01*
X207696D01*
X224931Y123696D01*
Y121774D01*
X223758Y121288D01*
X220648Y124398D01*
X219500Y124874D01*
X214422D01*
X207148Y132148D01*
X206000Y132624D01*
X201522D01*
X201516Y132626D01*
X201451Y132654D01*
X201379Y132693D01*
X201300Y132744D01*
X201214Y132809D01*
X201121Y132888D01*
X201002Y133004D01*
X200879Y133052D01*
X200073Y133590D01*
X199000Y133804D01*
X197927Y133590D01*
X197017Y132983D01*
X196410Y132073D01*
X196196Y131000D01*
X196410Y129927D01*
X197017Y129017D01*
X197927Y128410D01*
X198940Y128208D01*
X199000Y128196D01*
X199946Y127250D01*
X199958Y127190D01*
X200160Y126177D01*
X200767Y125267D01*
X201677Y124660D01*
X202750Y124446D01*
X203823Y124660D01*
X204733Y125267D01*
X205340Y126177D01*
X205554Y127250D01*
X205528Y127380D01*
X206698Y128005D01*
X212602Y122102D01*
X213750Y121626D01*
X218827D01*
X223669Y116785D01*
X223312Y115346D01*
X222767Y114983D01*
X222160Y114073D01*
X221946Y113000D01*
X222160Y111927D01*
X222767Y111017D01*
X223677Y110410D01*
X224750Y110196D01*
X225823Y110410D01*
X226733Y111017D01*
X227096Y111561D01*
X228535Y111919D01*
X257852Y82602D01*
X259000Y82126D01*
X276577D01*
X284376Y74328D01*
Y67000D01*
X284852Y65852D01*
X299352Y51352D01*
X300500Y50876D01*
X316846D01*
X317994Y51352D01*
X319898Y53256D01*
X320374Y54404D01*
Y57096D01*
X319898Y58244D01*
X284244Y93898D01*
X283096Y94374D01*
X262173D01*
X235624Y120922D01*
Y127094D01*
X235148Y128242D01*
X206124Y157267D01*
Y166868D01*
X207394Y167767D01*
X207750Y167696D01*
X208823Y167910D01*
X209733Y168517D01*
X210340Y169427D01*
X210529Y170377D01*
X210582Y170498D01*
X210585Y170665D01*
X210594Y170786D01*
X210610Y170893D01*
X210630Y170985D01*
X210653Y171063D01*
X210678Y171129D01*
X210681Y171135D01*
X212648Y173102D01*
X213677Y173910D01*
X214750Y173696D01*
X215823Y173910D01*
X216733Y174517D01*
X217340Y175427D01*
X217554Y176500D01*
X217340Y177573D01*
X216733Y178483D01*
X215823Y179090D01*
X215289Y179197D01*
X214808Y180512D01*
X214898Y180602D01*
X215374Y181750D01*
Y202954D01*
X216644Y203340D01*
X216768Y203154D01*
X219196Y200725D01*
Y172027D01*
X217926Y171355D01*
X217573Y171590D01*
X216500Y171804D01*
X215427Y171590D01*
X214517Y170983D01*
X213910Y170073D01*
X213696Y169000D01*
X213701Y168974D01*
X213670Y168893D01*
X213673Y168731D01*
X213668Y168616D01*
X213657Y168515D01*
X213640Y168430D01*
X213621Y168358D01*
X213599Y168298D01*
X213102Y167802D01*
X212626Y166654D01*
Y153904D01*
X213102Y152756D01*
X215006Y150852D01*
X216154Y150376D01*
X221000D01*
X222148Y150852D01*
X227398Y156102D01*
X227874Y157250D01*
Y203577D01*
X233238Y208942D01*
X234553Y208461D01*
X234660Y207927D01*
X235267Y207017D01*
X236177Y206410D01*
X237250Y206196D01*
X238323Y206410D01*
X239233Y207017D01*
X239840Y207927D01*
X240054Y209000D01*
X239840Y210073D01*
X239799Y210135D01*
Y213194D01*
X243806Y217201D01*
X250694D01*
X254698Y213198D01*
X255525Y212645D01*
X256500Y212451D01*
X261250D01*
X262225Y212645D01*
X262320Y212644D01*
X263771Y212161D01*
X263870Y212013D01*
X264012Y211546D01*
X263661Y210462D01*
X263317Y210233D01*
X262710Y209323D01*
X262496Y208250D01*
X262710Y207177D01*
X263317Y206267D01*
X264227Y205660D01*
X265300Y205446D01*
X266373Y205660D01*
X267283Y206267D01*
X267890Y207177D01*
X268104Y208250D01*
X267890Y209323D01*
X267480Y209937D01*
X267338Y210403D01*
X267689Y211488D01*
X268033Y211717D01*
X268640Y212627D01*
X268854Y213700D01*
X268640Y214773D01*
X268033Y215683D01*
X268032Y217076D01*
X268550Y217701D01*
X315815D01*
X316790Y217895D01*
X317617Y218448D01*
X318081Y218911D01*
X318323Y218960D01*
X319233Y219567D01*
X319841Y220477D01*
X319897Y220761D01*
X321275Y221179D01*
X326652Y215802D01*
X327800Y215326D01*
X333377D01*
X339352Y209352D01*
X340500Y208876D01*
X347250D01*
X348398Y209352D01*
X348545Y209499D01*
X348607Y209524D01*
X349000Y209446D01*
X350073Y209660D01*
X350983Y210267D01*
X351590Y211177D01*
X351804Y212250D01*
X351590Y213323D01*
X350983Y214233D01*
X350073Y214840D01*
X349000Y215054D01*
X347927Y214840D01*
X347017Y214233D01*
X346410Y213323D01*
X346196Y212250D01*
X346092Y212124D01*
X341172D01*
X335198Y218098D01*
X334050Y218574D01*
X328473D01*
X318148Y228898D01*
X317000Y229374D01*
X255747D01*
X255068Y230644D01*
X255090Y230677D01*
X255304Y231750D01*
X255090Y232823D01*
X254483Y233733D01*
X253573Y234340D01*
X252500Y234554D01*
X251427Y234340D01*
X250517Y233733D01*
X249910Y232823D01*
X249696Y231750D01*
X249910Y230677D01*
X249932Y230644D01*
X249253Y229374D01*
X242922D01*
X241374Y230923D01*
Y245250D01*
X240898Y246398D01*
X237148Y250148D01*
X236000Y250624D01*
X233923D01*
X231874Y252673D01*
Y277577D01*
X238115Y283819D01*
X238121Y283822D01*
X238186Y283847D01*
X238265Y283871D01*
X238357Y283890D01*
X238463Y283906D01*
X238585Y283915D01*
X238752Y283918D01*
X238873Y283971D01*
X239823Y284160D01*
X240733Y284767D01*
X240934Y285070D01*
X242468Y285332D01*
X246073Y281727D01*
X247221Y281251D01*
X247447D01*
X247491Y281231D01*
X247545Y281199D01*
X247604Y281158D01*
X247669Y281103D01*
X247738Y281034D01*
X247778Y280989D01*
X247846Y280897D01*
X248307Y279668D01*
X247910Y279073D01*
X247696Y278000D01*
X247910Y276927D01*
X248517Y276017D01*
X249427Y275410D01*
X250500Y275196D01*
X251573Y275410D01*
X252483Y276017D01*
X253090Y276927D01*
X253304Y278000D01*
X253090Y279073D01*
X252483Y279983D01*
X251983Y280317D01*
Y280767D01*
X252590Y281677D01*
X252804Y282750D01*
X252590Y283823D01*
X251983Y284733D01*
X251073Y285340D01*
X250000Y285554D01*
X248927Y285340D01*
X248307Y284926D01*
X248113Y284862D01*
X248112Y284861D01*
X247044Y285348D01*
X246661Y285731D01*
X246996Y287192D01*
X247483Y287517D01*
X248090Y288427D01*
X248304Y289500D01*
X248090Y290573D01*
X247483Y291483D01*
X246573Y292090D01*
X245500Y292304D01*
X244427Y292090D01*
X243517Y291483D01*
X243192Y290996D01*
X241731Y290661D01*
X241244Y291148D01*
X240096Y291624D01*
X237336D01*
X236188Y291148D01*
X227102Y282062D01*
X226626Y280914D01*
Y258829D01*
X225453Y258343D01*
X212648Y271148D01*
X211500Y271624D01*
X190173D01*
X180898Y280898D01*
X179750Y281374D01*
X162922D01*
X156898Y287398D01*
X155750Y287874D01*
X151497D01*
X150818Y289144D01*
X150840Y289177D01*
X151054Y290250D01*
X150840Y291323D01*
X150232Y292232D01*
X149323Y292840D01*
X148250Y293054D01*
X147177Y292840D01*
X146267Y292232D01*
X146139Y292040D01*
X144611D01*
X144483Y292233D01*
X143573Y292840D01*
X142500Y293054D01*
X141427Y292840D01*
X140517Y292233D01*
X139910Y291323D01*
X139696Y290250D01*
X139910Y289177D01*
X140517Y288267D01*
X141427Y287660D01*
X142377Y287470D01*
X142498Y287418D01*
X142665Y287415D01*
X142787Y287405D01*
X142893Y287390D01*
X142985Y287370D01*
X143063Y287347D01*
X143129Y287322D01*
X143135Y287319D01*
X145254Y285200D01*
X145230Y284634D01*
X145030Y283861D01*
X144927Y283840D01*
X144017Y283233D01*
X143410Y282323D01*
X143196Y281250D01*
X143410Y280177D01*
X144017Y279267D01*
X144927Y278660D01*
X146000Y278446D01*
X147073Y278660D01*
X147983Y279267D01*
X148590Y280177D01*
X148804Y281250D01*
X148590Y282323D01*
X147983Y283233D01*
X147797Y283356D01*
X148183Y284626D01*
X155077D01*
X161102Y278602D01*
X162250Y278126D01*
X168868D01*
X169767Y276856D01*
X169696Y276500D01*
X169910Y275427D01*
X170517Y274517D01*
X171427Y273910D01*
X172500Y273696D01*
X173573Y273910D01*
X174483Y274517D01*
X175090Y275427D01*
X175304Y276500D01*
X175233Y276856D01*
X176132Y278126D01*
X179077D01*
X188352Y268852D01*
X189500Y268376D01*
X210828D01*
X224626Y254578D01*
Y250000D01*
X225102Y248852D01*
X229366Y244588D01*
X228573Y243590D01*
X227500Y243804D01*
X226427Y243590D01*
X225517Y242983D01*
X224909Y242073D01*
X224696Y241000D01*
X224909Y239927D01*
X225517Y239017D01*
X226427Y238410D01*
X227500Y238196D01*
X228573Y238410D01*
X229482Y239017D01*
X230631Y238775D01*
X231177Y238410D01*
X232250Y238196D01*
X232606Y238267D01*
X233876Y237368D01*
Y222860D01*
X229140Y218124D01*
X222500D01*
X221352Y217648D01*
X210602Y206898D01*
X210126Y205750D01*
Y184172D01*
X208301Y182347D01*
X207602Y181648D01*
X206573Y182090D01*
X205500Y182304D01*
X204569Y182119D01*
X204282Y182190D01*
X203299Y182864D01*
Y207444D01*
X204552Y208698D01*
X205105Y209524D01*
X205299Y210500D01*
Y224250D01*
X205105Y225226D01*
X204552Y226052D01*
X190302Y240302D01*
X189475Y240855D01*
X188500Y241049D01*
X158806D01*
X154802Y245052D01*
X153975Y245605D01*
X153000Y245799D01*
X145056D01*
X140552Y250302D01*
X139726Y250855D01*
X138750Y251049D01*
X118306D01*
X115052Y254302D01*
X114226Y254855D01*
X113250Y255049D01*
X108750D01*
X107774Y254855D01*
X106948Y254302D01*
X103399Y250754D01*
X102949Y250778D01*
X101923Y251074D01*
X101483Y251733D01*
X100573Y252341D01*
X99500Y252554D01*
X98427Y252341D01*
X96983Y252483D01*
X96073Y253090D01*
X95000Y253304D01*
X93927Y253090D01*
X93017Y252483D01*
X92410Y251573D01*
X92196Y250500D01*
X92410Y249427D01*
X92482Y249319D01*
X91803Y248049D01*
X89056D01*
X76552Y260552D01*
X75725Y261105D01*
X74750Y261299D01*
X35010D01*
X34035Y261105D01*
X33208Y260552D01*
X6297Y233641D01*
X5124Y234127D01*
Y247327D01*
X8398Y250602D01*
X8874Y251750D01*
Y256118D01*
X10144Y257017D01*
X10500Y256946D01*
X11573Y257160D01*
X12483Y257767D01*
X13090Y258677D01*
X13304Y259750D01*
X13090Y260823D01*
X12483Y261733D01*
X11573Y262340D01*
X11170Y262421D01*
X10752Y263799D01*
X19079Y272126D01*
X29250D01*
X30398Y272602D01*
X35422Y277626D01*
X45250D01*
X45250Y277626D01*
X122078D01*
X142102Y257602D01*
X143250Y257126D01*
X147670D01*
X148349Y255856D01*
X148160Y255573D01*
X147946Y254500D01*
X148160Y253427D01*
X148767Y252517D01*
X149677Y251910D01*
X150750Y251696D01*
X151823Y251910D01*
X152733Y252517D01*
X153340Y253427D01*
X153554Y254500D01*
X153340Y255573D01*
X153151Y255856D01*
X153830Y257126D01*
X161836D01*
X162187Y256677D01*
X162617Y255856D01*
X162446Y255000D01*
X162660Y253927D01*
X163267Y253017D01*
X164177Y252410D01*
X165250Y252196D01*
X166323Y252410D01*
X167233Y253017D01*
X167840Y253927D01*
X168054Y255000D01*
X167883Y255856D01*
X168313Y256677D01*
X168664Y257126D01*
X180149D01*
X213173Y224102D01*
X214321Y223626D01*
X225228D01*
X225235Y223624D01*
X225299Y223596D01*
X225371Y223557D01*
X225450Y223506D01*
X225536Y223441D01*
X225629Y223362D01*
X225748Y223246D01*
X225871Y223198D01*
X226677Y222660D01*
X227750Y222446D01*
X228823Y222660D01*
X229733Y223267D01*
X230340Y224177D01*
X230554Y225250D01*
X230340Y226323D01*
X229733Y227233D01*
X228823Y227840D01*
X227750Y228054D01*
X226677Y227840D01*
X225871Y227302D01*
X225749Y227254D01*
X225629Y227138D01*
X225536Y227059D01*
X225450Y226994D01*
X225371Y226943D01*
X225299Y226904D01*
X225235Y226876D01*
X225228Y226874D01*
X214993D01*
X185664Y256203D01*
X186150Y257376D01*
X211327D01*
X212069Y256635D01*
X212072Y256629D01*
X212097Y256563D01*
X212120Y256486D01*
X212140Y256393D01*
X212155Y256287D01*
X212165Y256165D01*
X212168Y255998D01*
X212220Y255877D01*
X212410Y254927D01*
X213017Y254017D01*
X213927Y253410D01*
X215000Y253196D01*
X216073Y253410D01*
X216983Y254017D01*
X217590Y254927D01*
X217804Y256000D01*
X217590Y257073D01*
X216983Y257983D01*
X216073Y258590D01*
X215123Y258780D01*
X215002Y258832D01*
X214835Y258835D01*
X214713Y258845D01*
X214607Y258860D01*
X214515Y258880D01*
X214436Y258903D01*
X214371Y258928D01*
X214365Y258931D01*
X213148Y260148D01*
X212000Y260624D01*
X184172D01*
X182898Y261898D01*
X181750Y262374D01*
X176965D01*
X176183Y263644D01*
X176304Y264250D01*
X176090Y265323D01*
X175941Y265546D01*
X175583Y266500D01*
X175941Y267453D01*
X176090Y267677D01*
X176304Y268750D01*
X176090Y269823D01*
X175483Y270733D01*
X174573Y271340D01*
X173500Y271554D01*
X172427Y271340D01*
X171517Y270733D01*
X170910Y269823D01*
X170696Y268750D01*
X170910Y267677D01*
X171059Y267453D01*
X171067Y267438D01*
X171218Y267023D01*
X171187Y266673D01*
X171180Y266635D01*
X170811Y265991D01*
X170704Y265873D01*
X146923D01*
X128398Y284398D01*
X127250Y284874D01*
X25750D01*
X24602Y284398D01*
X19577Y279374D01*
X16750D01*
X15602Y278898D01*
X4886Y268183D01*
X3716Y268808D01*
X3804Y269250D01*
X3590Y270323D01*
X4398Y271352D01*
X13648Y280602D01*
X14124Y281750D01*
Y286478D01*
X14126Y286485D01*
X14154Y286549D01*
X14193Y286621D01*
X14244Y286700D01*
X14309Y286786D01*
X14388Y286879D01*
X14504Y286999D01*
X14552Y287121D01*
X15090Y287927D01*
X15304Y289000D01*
X15090Y290073D01*
X14483Y290983D01*
X13573Y291590D01*
X12500Y291804D01*
X11427Y291590D01*
X10517Y290983D01*
X9910Y290073D01*
X8767Y289501D01*
X8500Y289554D01*
X7427Y289340D01*
X6518Y288733D01*
X5910Y287823D01*
X5696Y286750D01*
X5910Y285677D01*
X6518Y284767D01*
X7427Y284160D01*
X8500Y283946D01*
X9573Y284160D01*
X9606Y284182D01*
X10677Y283610D01*
X10787Y282333D01*
X2578Y274124D01*
X-346D01*
X-1494Y273648D01*
X-4148Y270994D01*
X-4624Y269846D01*
Y266750D01*
X-4385Y266174D01*
X-5250Y265051D01*
X-6323Y264838D01*
X-6548Y264688D01*
X-7767Y264227D01*
X-8677Y264835D01*
X-9750Y265048D01*
X-10823Y264835D01*
X-11733Y264227D01*
X-12341Y263318D01*
X-12554Y262244D01*
X-12341Y261171D01*
X-11733Y260262D01*
X-10823Y259654D01*
X-9750Y259441D01*
X-8677Y259654D01*
X-8452Y259804D01*
X-7233Y260265D01*
X-6323Y259657D01*
X-5250Y259443D01*
X-4177Y259657D01*
X-4144Y259679D01*
X-2874Y259000D01*
Y219250D01*
X-2398Y218102D01*
X2876Y212827D01*
Y206000D01*
X3352Y204852D01*
X7376Y200828D01*
Y195520D01*
X6722Y195020D01*
X6205Y194860D01*
X6090Y194937D01*
X5890Y195113D01*
X4081Y196157D01*
X3828Y196243D01*
X3589Y196361D01*
X1572Y196901D01*
X1372Y196914D01*
X1178Y196966D01*
X133Y197035D01*
X66Y197026D01*
X0Y197039D01*
X-4592D01*
X-5334Y198309D01*
X-5196Y199000D01*
X-5410Y200073D01*
X-6017Y200983D01*
X-6927Y201590D01*
X-8000Y201804D01*
X-9073Y201590D01*
X-9983Y200983D01*
X-10590Y200073D01*
X-10804Y199000D01*
X-10666Y198309D01*
X-11408Y197039D01*
X-35750D01*
Y274961D01*
X-8000Y274961D01*
X-7950Y274971D01*
X-7900Y274963D01*
X-7116Y275002D01*
X-6969Y275039D01*
X-6818D01*
X-5280Y275345D01*
X-5094Y275421D01*
X-4897Y275461D01*
X-3449Y276061D01*
X-3282Y276172D01*
X-3096Y276249D01*
X-1792Y277120D01*
X-1650Y277262D01*
X-1483Y277374D01*
X-374Y278483D01*
X-262Y278650D01*
X-121Y278792D01*
X751Y280096D01*
X828Y280282D01*
X939Y280448D01*
X1539Y281897D01*
X1578Y282094D01*
X1655Y282280D01*
X1961Y283818D01*
Y283969D01*
X1998Y284116D01*
X2037Y284900D01*
X2029Y284950D01*
X2039Y285000D01*
X2039Y294961D01*
X96944D01*
X97329Y293691D01*
X97017Y293483D01*
X96410Y292573D01*
X96196Y291500D01*
X96410Y290427D01*
X97017Y289517D01*
X97927Y288910D01*
X99000Y288696D01*
X100073Y288910D01*
X100983Y289517D01*
X101590Y290427D01*
X101804Y291500D01*
X101590Y292573D01*
X100983Y293483D01*
X100671Y293691D01*
X101056Y294961D01*
X105444D01*
X105829Y293691D01*
X105517Y293483D01*
X104910Y292573D01*
X104696Y291500D01*
X104910Y290427D01*
X105517Y289517D01*
X106427Y288910D01*
X107500Y288696D01*
X108573Y288910D01*
X109483Y289517D01*
X110090Y290427D01*
X110304Y291500D01*
X110090Y292573D01*
X109483Y293483D01*
X109171Y293691D01*
X109556Y294961D01*
X183974D01*
X185020Y293395D01*
X186674Y292290D01*
X188625Y291902D01*
X190576Y292290D01*
X192230Y293395D01*
X193276Y294961D01*
X195724D01*
X196770Y293395D01*
X198424Y292290D01*
X200375Y291902D01*
X202326Y292290D01*
X203980Y293395D01*
X205026Y294961D01*
X301495D01*
X302155Y293691D01*
X301910Y293323D01*
X301696Y292250D01*
X301910Y291177D01*
X302517Y290267D01*
X303427Y289660D01*
X304500Y289446D01*
X305573Y289660D01*
X306483Y290267D01*
X307090Y291177D01*
X307304Y292250D01*
X307090Y293323D01*
X306845Y293691D01*
X307505Y294961D01*
X465961D01*
Y158692D01*
D02*
G37*
G36*
X144253Y290034D02*
X144268Y289845D01*
X144293Y289666D01*
X144330Y289496D01*
X144378Y289336D01*
X144437Y289185D01*
X144506Y289043D01*
X144587Y288911D01*
X144679Y288788D01*
X144782Y288675D01*
X144075Y287968D01*
X143962Y288071D01*
X143839Y288163D01*
X143707Y288244D01*
X143565Y288313D01*
X143414Y288372D01*
X143254Y288420D01*
X143084Y288456D01*
X142905Y288482D01*
X142716Y288497D01*
X142517Y288500D01*
X144250Y290233D01*
X144253Y290034D01*
D02*
G37*
G36*
X13587Y287608D02*
X13464Y287464D01*
X13355Y287319D01*
X13261Y287173D01*
X13181Y287026D01*
X13116Y286877D01*
X13065Y286728D01*
X13029Y286577D01*
X13007Y286426D01*
X13000Y286273D01*
X12000D01*
X11993Y286426D01*
X11971Y286577D01*
X11935Y286728D01*
X11884Y286877D01*
X11819Y287026D01*
X11739Y287173D01*
X11645Y287319D01*
X11536Y287464D01*
X11413Y287608D01*
X11275Y287750D01*
X13725D01*
X13587Y287608D01*
D02*
G37*
G36*
X238732Y285000D02*
X238534Y284997D01*
X238345Y284982D01*
X238166Y284956D01*
X237996Y284920D01*
X237836Y284872D01*
X237685Y284813D01*
X237543Y284744D01*
X237411Y284663D01*
X237288Y284571D01*
X237175Y284468D01*
X236468Y285175D01*
X236571Y285288D01*
X236663Y285411D01*
X236744Y285543D01*
X236813Y285685D01*
X236872Y285836D01*
X236920Y285996D01*
X236956Y286166D01*
X236982Y286345D01*
X236996Y286534D01*
X237000Y286733D01*
X238732Y285000D01*
D02*
G37*
G36*
X248649Y281638D02*
X248525Y281778D01*
X248398Y281903D01*
X248267Y282014D01*
X248132Y282110D01*
X247994Y282191D01*
X247851Y282257D01*
X247704Y282309D01*
X247554Y282346D01*
X247399Y282368D01*
X247241Y282375D01*
X247315Y283375D01*
X247470Y283382D01*
X247623Y283402D01*
X247775Y283435D01*
X247927Y283482D01*
X248078Y283542D01*
X248228Y283615D01*
X248378Y283702D01*
X248526Y283803D01*
X248674Y283916D01*
X248821Y284043D01*
X248649Y281638D01*
D02*
G37*
G36*
X172250Y263025D02*
X172108Y263162D01*
X171964Y263286D01*
X171819Y263395D01*
X171673Y263489D01*
X171526Y263568D01*
X171377Y263634D01*
X171228Y263685D01*
X171077Y263721D01*
X170926Y263743D01*
X170773Y263750D01*
Y264750D01*
X170926Y264757D01*
X171077Y264779D01*
X171228Y264815D01*
X171377Y264866D01*
X171526Y264931D01*
X171673Y265011D01*
X171819Y265105D01*
X171964Y265214D01*
X172108Y265337D01*
X172250Y265475D01*
Y263025D01*
D02*
G37*
G36*
X2504Y262852D02*
X2515Y262715D01*
X2534Y262589D01*
X2560Y262474D01*
X2594Y262370D01*
X2635Y262277D01*
X2684Y262195D01*
X2740Y262124D01*
X2804Y262064D01*
X2875Y262015D01*
X1125D01*
X1196Y262064D01*
X1260Y262124D01*
X1316Y262195D01*
X1365Y262277D01*
X1406Y262370D01*
X1440Y262474D01*
X1466Y262589D01*
X1485Y262715D01*
X1496Y262852D01*
X1500Y263000D01*
X2500D01*
X2504Y262852D01*
D02*
G37*
G36*
X213538Y258179D02*
X213661Y258087D01*
X213793Y258006D01*
X213935Y257937D01*
X214086Y257878D01*
X214246Y257830D01*
X214416Y257794D01*
X214595Y257768D01*
X214784Y257753D01*
X214982Y257750D01*
X213250Y256017D01*
X213247Y256216D01*
X213232Y256405D01*
X213207Y256584D01*
X213170Y256754D01*
X213122Y256914D01*
X213063Y257065D01*
X212994Y257207D01*
X212913Y257339D01*
X212821Y257462D01*
X212718Y257575D01*
X213425Y258282D01*
X213538Y258179D01*
D02*
G37*
G36*
X70732Y254931D02*
X70659Y254823D01*
X70446Y253750D01*
X70659Y252677D01*
X71267Y251767D01*
X72177Y251160D01*
X73250Y250946D01*
X74323Y251160D01*
X75233Y251767D01*
X75673Y252426D01*
X76699Y252722D01*
X77149Y252746D01*
X84653Y245242D01*
X84167Y244069D01*
X75293D01*
X74614Y245339D01*
X74840Y245677D01*
X75054Y246750D01*
X74840Y247823D01*
X74233Y248733D01*
X73323Y249340D01*
X72250Y249554D01*
X71177Y249340D01*
X70267Y248733D01*
X69660Y247823D01*
X69446Y246750D01*
X69541Y246276D01*
X68853Y245007D01*
X68677Y244862D01*
X68468Y244829D01*
X65023Y248273D01*
X63866Y249047D01*
X62500Y249319D01*
X37000D01*
X35634Y249047D01*
X34477Y248273D01*
X15477Y229273D01*
X14703Y228116D01*
X14521Y227200D01*
X14177Y226962D01*
X13475Y226710D01*
X13161Y226697D01*
X12573Y227090D01*
X11500Y227304D01*
X10569Y227119D01*
X10282Y227190D01*
X9299Y227864D01*
Y229434D01*
X36066Y256201D01*
X70053D01*
X70732Y254931D01*
D02*
G37*
G36*
X153503Y237534D02*
X153518Y237345D01*
X153544Y237166D01*
X153580Y236996D01*
X153628Y236836D01*
X153687Y236685D01*
X153756Y236543D01*
X153837Y236411D01*
X153929Y236288D01*
X154032Y236175D01*
X153325Y235468D01*
X153212Y235571D01*
X153089Y235663D01*
X152957Y235744D01*
X152815Y235813D01*
X152664Y235872D01*
X152504Y235920D01*
X152334Y235956D01*
X152155Y235982D01*
X151966Y235997D01*
X151768Y236000D01*
X153500Y237733D01*
X153503Y237534D01*
D02*
G37*
G36*
X65227Y237977D02*
X66384Y237203D01*
X67750Y236931D01*
X79808D01*
X79932Y236768D01*
X80278Y235661D01*
X76405Y231789D01*
X62595D01*
X61192Y233192D01*
X60530Y233634D01*
X59750Y233789D01*
X31882D01*
X31356Y235059D01*
X38478Y242181D01*
X61022D01*
X65227Y237977D01*
D02*
G37*
G36*
X115448Y246698D02*
X116275Y246145D01*
X117250Y245951D01*
X137694D01*
X142198Y241448D01*
X143025Y240895D01*
X144000Y240701D01*
X149003D01*
X149191Y240463D01*
X149566Y239431D01*
X149160Y238823D01*
X148946Y237750D01*
X149160Y236677D01*
X149767Y235767D01*
X150677Y235160D01*
X151627Y234970D01*
X151748Y234918D01*
X151915Y234915D01*
X152037Y234906D01*
X152143Y234890D01*
X152235Y234870D01*
X152313Y234847D01*
X152379Y234822D01*
X152385Y234819D01*
X152852Y234352D01*
X154000Y233876D01*
X185828D01*
X190411Y229293D01*
X189616Y228297D01*
X188250Y228569D01*
X176978D01*
X175273Y230273D01*
X174116Y231047D01*
X172750Y231319D01*
X147478D01*
X135773Y243023D01*
X134616Y243797D01*
X133250Y244069D01*
X105583D01*
X105097Y245242D01*
X109806Y249951D01*
X112194D01*
X115448Y246698D01*
D02*
G37*
G36*
X104308Y229808D02*
X104308Y229808D01*
X104970Y229366D01*
X105750Y229211D01*
X122992D01*
X123071Y229007D01*
X123203Y227941D01*
X122517Y227483D01*
X121910Y226573D01*
X121696Y225500D01*
X121910Y224427D01*
X122489Y223559D01*
X122441Y223306D01*
X122070Y222289D01*
X111095D01*
X108192Y225192D01*
X107530Y225634D01*
X106750Y225789D01*
X104845D01*
X102692Y227942D01*
X102030Y228384D01*
X101250Y228539D01*
X95947D01*
X95947Y228539D01*
X95166Y228384D01*
X94505Y227942D01*
X92602Y226039D01*
X60750D01*
X59970Y225884D01*
X59308Y225442D01*
X57155Y223289D01*
X46845D01*
X44942Y225192D01*
X44280Y225634D01*
X43500Y225789D01*
X31697D01*
X30916Y225634D01*
X30255Y225192D01*
X30255Y225192D01*
X27002Y221939D01*
X25681Y222414D01*
X25580Y223196D01*
X32095Y229711D01*
X58905D01*
X60308Y228308D01*
X60970Y227866D01*
X61750Y227711D01*
X77250D01*
X78030Y227866D01*
X78692Y228308D01*
X82845Y232461D01*
X101655D01*
X104308Y229808D01*
D02*
G37*
G36*
X226500Y224025D02*
X226358Y224163D01*
X226214Y224286D01*
X226069Y224395D01*
X225923Y224489D01*
X225776Y224569D01*
X225627Y224634D01*
X225478Y224685D01*
X225327Y224721D01*
X225176Y224743D01*
X225023Y224750D01*
Y225750D01*
X225176Y225757D01*
X225327Y225779D01*
X225478Y225815D01*
X225627Y225866D01*
X225776Y225931D01*
X225923Y226011D01*
X226069Y226105D01*
X226214Y226214D01*
X226358Y226337D01*
X226500Y226475D01*
Y224025D01*
D02*
G37*
G36*
X316393Y225407D02*
X316354Y225179D01*
X316035Y224046D01*
X315268Y223533D01*
X314814Y222854D01*
X314759Y222799D01*
X266500D01*
X265525Y222605D01*
X264698Y222052D01*
X262866Y220221D01*
X262568Y220255D01*
X261994Y220755D01*
X261918Y221315D01*
X262070Y222241D01*
X262483Y222517D01*
X263090Y223427D01*
X263304Y224500D01*
X263233Y224856D01*
X264132Y226126D01*
X315814D01*
X316393Y225407D01*
D02*
G37*
G36*
X102558Y222308D02*
X103220Y221866D01*
X104000Y221711D01*
X105905D01*
X108808Y218808D01*
X108808Y218808D01*
X109470Y218366D01*
X110250Y218211D01*
X110250Y218211D01*
X115758D01*
X116559Y216941D01*
X116446Y216375D01*
X116660Y215302D01*
X117267Y214392D01*
X118177Y213785D01*
X119250Y213571D01*
X120323Y213785D01*
X121233Y214392D01*
X121840Y215302D01*
X122054Y216375D01*
X121941Y216941D01*
X122742Y218211D01*
X124155D01*
X126058Y216308D01*
X126720Y215866D01*
X126964Y215818D01*
X127610Y214661D01*
X127633Y214441D01*
X127446Y213500D01*
X127660Y212427D01*
X128267Y211517D01*
X129177Y210910D01*
X130127Y210721D01*
X130248Y210668D01*
X130415Y210665D01*
X130537Y210656D01*
X130643Y210640D01*
X130736Y210620D01*
X130814Y210597D01*
X130879Y210572D01*
X130885Y210569D01*
X133971Y207482D01*
Y191023D01*
X132701Y190124D01*
X132345Y190195D01*
X131533Y191328D01*
X131400Y191999D01*
X130792Y192909D01*
X129882Y193517D01*
X129809Y193531D01*
X117288Y206052D01*
X116461Y206605D01*
X115486Y206799D01*
X114306D01*
X104549Y216556D01*
Y216601D01*
X104590Y216663D01*
X104804Y217736D01*
X104590Y218809D01*
X103983Y219718D01*
X103073Y220326D01*
X102000Y220540D01*
X100927Y220326D01*
X100017Y219718D01*
X99410Y218809D01*
X99196Y217736D01*
X99410Y216663D01*
X99451Y216601D01*
Y216556D01*
X96525Y213630D01*
X95836Y213839D01*
X95270Y214171D01*
X95090Y215073D01*
X94483Y215983D01*
X93573Y216590D01*
X92500Y216804D01*
X91427Y216590D01*
X90621Y216052D01*
X90498Y216004D01*
X90379Y215888D01*
X90286Y215809D01*
X90200Y215744D01*
X90121Y215693D01*
X90049Y215654D01*
X89985Y215626D01*
X89978Y215624D01*
X44422D01*
X39605Y220441D01*
X40131Y221711D01*
X42655D01*
X44558Y219808D01*
X45220Y219366D01*
X46000Y219211D01*
X46000Y219211D01*
X58000D01*
X58780Y219366D01*
X59442Y219808D01*
X61595Y221961D01*
X93447D01*
X94227Y222116D01*
X94889Y222558D01*
X96791Y224461D01*
X100405D01*
X102558Y222308D01*
D02*
G37*
G36*
X32782Y218825D02*
X32679Y218712D01*
X32587Y218589D01*
X32506Y218457D01*
X32436Y218315D01*
X32378Y218164D01*
X32330Y218004D01*
X32294Y217834D01*
X32268Y217655D01*
X32253Y217466D01*
X32250Y217267D01*
X30517Y219000D01*
X30716Y219003D01*
X30905Y219018D01*
X31084Y219044D01*
X31254Y219080D01*
X31414Y219128D01*
X31565Y219186D01*
X31707Y219256D01*
X31839Y219337D01*
X31962Y219429D01*
X32075Y219532D01*
X32782Y218825D01*
D02*
G37*
G36*
X143058Y221308D02*
X143720Y220866D01*
X144500Y220711D01*
X144500Y220711D01*
X168655D01*
X171058Y218308D01*
X171058Y218308D01*
X171720Y217866D01*
X172500Y217711D01*
X172500Y217711D01*
X173871D01*
X174584Y216536D01*
X174556Y216450D01*
X174512Y216373D01*
X171250D01*
X170102Y215898D01*
X165852Y211648D01*
X165376Y210500D01*
Y184559D01*
X164107Y184173D01*
X163733Y184733D01*
X162823Y185340D01*
X161750Y185554D01*
X160677Y185340D01*
X159767Y184733D01*
X158546Y185191D01*
X158323Y185340D01*
X157250Y185554D01*
X156177Y185340D01*
X155267Y184733D01*
X154660Y183823D01*
X154446Y182750D01*
X154660Y181677D01*
X155267Y180767D01*
X156177Y180160D01*
X157250Y179946D01*
X158323Y180160D01*
X159233Y180767D01*
X160454Y180309D01*
X160677Y180160D01*
X161750Y179946D01*
X162823Y180160D01*
X163733Y180767D01*
X164107Y181327D01*
X165376Y180942D01*
Y173272D01*
X165374Y173265D01*
X165346Y173201D01*
X165307Y173129D01*
X165256Y173050D01*
X165191Y172964D01*
X165112Y172871D01*
X164996Y172751D01*
X164948Y172628D01*
X164410Y171823D01*
X164196Y170750D01*
X164410Y169677D01*
X165018Y168767D01*
X165927Y168159D01*
X167000Y167946D01*
X168073Y168159D01*
X168983Y168767D01*
X169441Y169453D01*
X170508Y169321D01*
X170711Y169242D01*
Y161774D01*
X169538Y161288D01*
X161163Y169663D01*
X160170Y170326D01*
X159000Y170559D01*
X159000Y170559D01*
X155000D01*
X155000Y170559D01*
X153993Y170359D01*
X153640Y170398D01*
X152613Y170786D01*
X152549Y170882D01*
X152005Y171696D01*
X151096Y172304D01*
X150023Y172517D01*
X149499Y173219D01*
X149259Y173660D01*
X149078Y174572D01*
X148470Y175481D01*
X147560Y176089D01*
X146487Y176303D01*
X145628Y177427D01*
X145542Y177857D01*
X144934Y178767D01*
X144025Y179375D01*
X143353Y179508D01*
X142220Y180320D01*
X142006Y181393D01*
X141399Y182302D01*
X140489Y182910D01*
X139416Y183124D01*
X138343Y182910D01*
X137433Y182302D01*
X136826Y181393D01*
X136760Y181065D01*
X136347Y180445D01*
X136153Y179470D01*
Y173798D01*
X136347Y172823D01*
X136899Y171996D01*
X139413Y169483D01*
X140240Y168930D01*
X140960Y168787D01*
X141106Y168708D01*
X141279Y168690D01*
X141303Y168683D01*
X141319Y168672D01*
X141357Y168632D01*
X141422Y168530D01*
X141501Y168346D01*
X141576Y168076D01*
X141637Y167723D01*
X141677Y167291D01*
X141691Y166755D01*
X141741Y166645D01*
X141748Y166607D01*
X141735Y166481D01*
X141786Y166417D01*
X141918Y165751D01*
X142351Y165104D01*
X142408Y164942D01*
X142640Y164684D01*
X142816Y164442D01*
X142977Y164169D01*
X143120Y163862D01*
X143245Y163521D01*
X143351Y163142D01*
X143435Y162725D01*
X143497Y162270D01*
X143516Y162028D01*
X143527Y161506D01*
X143327Y160500D01*
X143419Y160034D01*
X143385Y159970D01*
X142083Y159407D01*
X141614Y159788D01*
X141006Y160697D01*
X140097Y161305D01*
X139024Y161518D01*
X138212Y162652D01*
X138079Y163323D01*
X137471Y164233D01*
X136561Y164840D01*
X135488Y165054D01*
X134415Y164840D01*
X133506Y164233D01*
X132898Y163323D01*
X132802Y162842D01*
X132784Y162832D01*
X124365D01*
X124073Y162712D01*
X123763Y162650D01*
X123702Y162558D01*
X123599Y162515D01*
X123478Y162224D01*
X123455Y162188D01*
X123429Y162171D01*
X122941Y161440D01*
X122389Y161071D01*
X121664Y160927D01*
X121515Y160827D01*
X121336Y160804D01*
X120992Y160606D01*
X120902Y160490D01*
X120766Y160433D01*
X120235Y159903D01*
X120193Y159800D01*
X120101Y159739D01*
X120047Y159471D01*
X119945Y159318D01*
X119774Y158456D01*
X119405Y157904D01*
X118854Y157536D01*
X117992Y157364D01*
X117839Y157262D01*
X117571Y157209D01*
X117509Y157117D01*
X117407Y157074D01*
X116876Y156544D01*
X116820Y156408D01*
X116703Y156318D01*
X116505Y155973D01*
X116482Y155795D01*
X116382Y155645D01*
X116238Y154920D01*
X115870Y154369D01*
X115318Y154000D01*
X114667Y153871D01*
X114017Y154000D01*
X113286Y154488D01*
X112976Y154550D01*
X112685Y154671D01*
X112582Y154628D01*
X112473Y154650D01*
X112211Y154475D01*
X111919Y154354D01*
X108813Y151248D01*
X108693Y150956D01*
X108517Y150694D01*
X108539Y150585D01*
X108497Y150483D01*
X108617Y150191D01*
X108679Y149881D01*
X109167Y149151D01*
X109297Y148500D01*
X109167Y147849D01*
X108799Y147298D01*
X108247Y146929D01*
X107596Y146800D01*
X106946Y146929D01*
X106215Y147417D01*
X105905Y147479D01*
X105614Y147600D01*
X105511Y147557D01*
X105402Y147579D01*
X105140Y147404D01*
X104848Y147283D01*
X101742Y144177D01*
X100665Y144759D01*
X99516Y145908D01*
X98689Y146460D01*
X97713Y146654D01*
X96939D01*
X96143Y147924D01*
X96258Y148500D01*
X96045Y149573D01*
X95437Y150483D01*
X94527Y151090D01*
X93454Y151304D01*
X92381Y151090D01*
X91471Y150483D01*
X91227Y150117D01*
X89718Y149830D01*
X86034Y153514D01*
X86321Y155023D01*
X86687Y155267D01*
X87295Y156177D01*
X87508Y157250D01*
X87295Y158323D01*
X86687Y159233D01*
X86128Y159606D01*
X86513Y160876D01*
X95129D01*
X96277Y161352D01*
X108051Y173126D01*
X112540D01*
X112925Y171856D01*
X112685Y171696D01*
X112077Y170786D01*
X111863Y169713D01*
X112077Y168640D01*
X112685Y167731D01*
X113594Y167123D01*
X114667Y166909D01*
X115740Y167123D01*
X116650Y167731D01*
X117258Y168640D01*
X117471Y169713D01*
X117258Y170786D01*
X116650Y171696D01*
X116008Y172125D01*
X115944Y173122D01*
X116042Y173513D01*
X116256Y173602D01*
X117628Y174974D01*
X119162Y174712D01*
X119364Y174410D01*
X120273Y173802D01*
X121346Y173588D01*
X122158Y172455D01*
X122291Y171784D01*
X122899Y170874D01*
X123809Y170266D01*
X124882Y170053D01*
X125955Y170266D01*
X126864Y170874D01*
X127472Y171784D01*
X127686Y172857D01*
X127472Y173930D01*
X126864Y174839D01*
X125955Y175447D01*
X124882Y175660D01*
X124070Y176794D01*
X123937Y177465D01*
X123846Y177601D01*
X124147Y179101D01*
X127423Y182376D01*
X134000D01*
X135148Y182852D01*
X136743Y184447D01*
X138281Y184842D01*
X138343Y184800D01*
X139416Y184587D01*
X140489Y184800D01*
X141399Y185408D01*
X142006Y186318D01*
X142220Y187391D01*
X142006Y188464D01*
X141399Y189373D01*
X140489Y189981D01*
X139416Y190195D01*
X138489Y190010D01*
X138187Y190089D01*
X137219Y190757D01*
Y208155D01*
X136743Y209303D01*
X133181Y212865D01*
X133178Y212871D01*
X133153Y212937D01*
X133130Y213015D01*
X133110Y213107D01*
X133095Y213214D01*
X133085Y213335D01*
X133082Y213502D01*
X133029Y213623D01*
X132867Y214441D01*
X132920Y214693D01*
X133594Y215711D01*
X134375Y215866D01*
X134956Y216255D01*
X135250Y216196D01*
X136323Y216410D01*
X137233Y217017D01*
X137840Y217927D01*
X138054Y219000D01*
X137840Y220073D01*
X137233Y220983D01*
X136323Y221590D01*
X135250Y221804D01*
X134177Y221590D01*
X133267Y220983D01*
X132660Y220073D01*
X132603Y219789D01*
X128345D01*
X126442Y221692D01*
X126218Y221842D01*
X126113Y223174D01*
X126152Y223297D01*
X126483Y223517D01*
X127091Y224427D01*
X127304Y225500D01*
X127091Y226573D01*
X126483Y227483D01*
X125797Y227941D01*
X125929Y229007D01*
X126008Y229211D01*
X135155D01*
X143058Y221308D01*
D02*
G37*
G36*
X37003Y217034D02*
X37018Y216845D01*
X37043Y216666D01*
X37080Y216496D01*
X37128Y216336D01*
X37187Y216185D01*
X37256Y216043D01*
X37337Y215911D01*
X37429Y215788D01*
X37532Y215675D01*
X36825Y214968D01*
X36712Y215071D01*
X36589Y215163D01*
X36457Y215244D01*
X36315Y215313D01*
X36164Y215372D01*
X36004Y215420D01*
X35834Y215457D01*
X35655Y215482D01*
X35466Y215497D01*
X35267Y215500D01*
X37000Y217232D01*
X37003Y217034D01*
D02*
G37*
G36*
X33781Y214924D02*
X34177Y214660D01*
X35127Y214471D01*
X35248Y214418D01*
X35415Y214415D01*
X35536Y214405D01*
X35643Y214390D01*
X35735Y214370D01*
X35813Y214347D01*
X35879Y214322D01*
X35885Y214319D01*
X39352Y210852D01*
X40500Y210376D01*
X79328D01*
X87852Y201852D01*
X89000Y201376D01*
X95600D01*
X106141Y190836D01*
X105331Y189849D01*
X105134Y189981D01*
X104061Y190195D01*
X102988Y189981D01*
X102078Y189373D01*
X101470Y188464D01*
X101257Y187391D01*
X101470Y186318D01*
X102078Y185408D01*
X102988Y184800D01*
X104061Y184587D01*
X105134Y184800D01*
X106043Y185408D01*
X106651Y186318D01*
X106865Y187391D01*
X106651Y188464D01*
X106519Y188661D01*
X107506Y189471D01*
X108557Y188419D01*
X108560Y188414D01*
X108586Y188348D01*
X108609Y188270D01*
X108629Y188178D01*
X108644Y188071D01*
X108653Y187949D01*
X108656Y187783D01*
X108709Y187662D01*
X108898Y186711D01*
X109506Y185802D01*
X110415Y185194D01*
X111488Y184981D01*
X112561Y185194D01*
X113471Y185802D01*
X114079Y186711D01*
X114292Y187784D01*
X114079Y188857D01*
X113471Y189767D01*
X112561Y190375D01*
X111876Y190511D01*
Y191806D01*
X112205Y191871D01*
X113114Y192479D01*
X113722Y193389D01*
X113856Y194060D01*
X114032Y194307D01*
X115302D01*
X115479Y194060D01*
X115612Y193389D01*
X116220Y192479D01*
X117130Y191871D01*
X118203Y191658D01*
X119276Y191871D01*
X120185Y192479D01*
X120793Y193389D01*
X120819Y193516D01*
X122197Y193934D01*
X125847Y190285D01*
X125340Y189014D01*
X120641D01*
X119493Y188539D01*
X114078Y183124D01*
X111300D01*
X110152Y182648D01*
X108885Y181381D01*
X107352Y181644D01*
X107150Y181946D01*
X106240Y182554D01*
X105167Y182767D01*
X104094Y182554D01*
X103289Y182015D01*
X103166Y181967D01*
X103046Y181851D01*
X102953Y181772D01*
X102867Y181707D01*
X102850Y181696D01*
X99648Y184898D01*
X98500Y185374D01*
X95500D01*
X94352Y184898D01*
X83202Y173749D01*
X80875D01*
X79727Y173273D01*
X75078Y168624D01*
X69000D01*
X67852Y168148D01*
X61566Y161863D01*
X61091Y160714D01*
Y155552D01*
X61566Y154404D01*
X70876Y145093D01*
Y143250D01*
X71352Y142102D01*
X76994Y136460D01*
X77124Y136033D01*
X76722Y135431D01*
X76508Y134358D01*
X76722Y133285D01*
X77329Y132375D01*
X78239Y131768D01*
X79312Y131554D01*
X80124Y130421D01*
X80257Y129749D01*
X80865Y128840D01*
X81775Y128232D01*
X82200Y128147D01*
X83324Y127287D01*
X83557Y126116D01*
X84220Y125124D01*
X84539Y124805D01*
Y123051D01*
X83548Y122060D01*
X80969D01*
X79866Y122797D01*
X78500Y123069D01*
X64728D01*
X60683Y127114D01*
X61309Y128284D01*
X61500Y128246D01*
X62573Y128460D01*
X63483Y129067D01*
X64090Y129977D01*
X64304Y131050D01*
X64090Y132123D01*
X63483Y133033D01*
X62573Y133640D01*
X61500Y133854D01*
X60427Y133640D01*
X59517Y133033D01*
X58910Y132123D01*
X58696Y131050D01*
X58734Y130859D01*
X57564Y130233D01*
X47041Y140756D01*
Y150141D01*
X48056Y150828D01*
X48311Y150883D01*
X49250Y150696D01*
X50323Y150910D01*
X51233Y151517D01*
X51840Y152427D01*
X52054Y153500D01*
X51840Y154573D01*
X51233Y155483D01*
X50323Y156090D01*
X49250Y156304D01*
X48311Y156117D01*
X48056Y156172D01*
X47041Y156859D01*
Y162528D01*
X46769Y163894D01*
X45995Y165051D01*
X39809Y171238D01*
X40289Y172553D01*
X40823Y172660D01*
X41733Y173267D01*
X42340Y174177D01*
X42554Y175250D01*
X42340Y176323D01*
X41733Y177233D01*
X40823Y177840D01*
X39750Y178054D01*
X39339Y177972D01*
X38069Y178845D01*
Y186502D01*
X39339Y187027D01*
X47211Y179155D01*
Y169000D01*
X47366Y168220D01*
X47808Y167558D01*
X51713Y163653D01*
X51751Y163554D01*
X51986Y163307D01*
X52142Y163122D01*
X52181Y163069D01*
X52207Y163029D01*
X52212Y163020D01*
X52227Y162985D01*
X52236Y162977D01*
X52237Y162974D01*
X52245Y162968D01*
X52254Y162959D01*
X52410Y162177D01*
X53017Y161267D01*
X53927Y160660D01*
X55000Y160446D01*
X56073Y160660D01*
X56983Y161267D01*
X57590Y162177D01*
X57804Y163250D01*
X57590Y164323D01*
X56983Y165233D01*
X56073Y165840D01*
X55291Y165996D01*
X55282Y166005D01*
X55276Y166013D01*
X55273Y166014D01*
X55265Y166023D01*
X55230Y166038D01*
X55220Y166043D01*
X55181Y166068D01*
X55136Y166102D01*
X54823Y166374D01*
X54706Y166489D01*
X54604Y166530D01*
X51289Y169845D01*
Y180000D01*
X51134Y180780D01*
X50692Y181442D01*
X41578Y190555D01*
Y193907D01*
X41578Y193908D01*
X41423Y194688D01*
X40981Y195350D01*
X38601Y197730D01*
X39067Y199059D01*
X39573Y199160D01*
X40483Y199767D01*
X41090Y200677D01*
X41304Y201750D01*
X41090Y202823D01*
X40483Y203733D01*
X39573Y204340D01*
X38791Y204496D01*
X38782Y204505D01*
X38776Y204513D01*
X38773Y204515D01*
X38765Y204523D01*
X38730Y204538D01*
X38720Y204543D01*
X38681Y204569D01*
X38636Y204602D01*
X38323Y204874D01*
X38206Y204989D01*
X38104Y205030D01*
X29854Y213280D01*
X30480Y214450D01*
X30500Y214446D01*
X31573Y214660D01*
X31969Y214924D01*
X32875Y215164D01*
X33781Y214924D01*
D02*
G37*
G36*
X176750Y213525D02*
X176608Y213662D01*
X176464Y213786D01*
X176319Y213895D01*
X176173Y213989D01*
X176026Y214069D01*
X175877Y214134D01*
X175728Y214184D01*
X175577Y214221D01*
X175426Y214242D01*
X175273Y214250D01*
Y215250D01*
X175426Y215257D01*
X175577Y215279D01*
X175728Y215315D01*
X175877Y215366D01*
X176026Y215431D01*
X176173Y215511D01*
X176319Y215605D01*
X176464Y215714D01*
X176608Y215837D01*
X176750Y215975D01*
Y213525D01*
D02*
G37*
G36*
X91250Y212775D02*
X91108Y212913D01*
X90964Y213036D01*
X90819Y213145D01*
X90673Y213239D01*
X90526Y213319D01*
X90377Y213384D01*
X90228Y213435D01*
X90077Y213471D01*
X89926Y213493D01*
X89773Y213500D01*
Y214500D01*
X89926Y214507D01*
X90077Y214529D01*
X90228Y214565D01*
X90377Y214616D01*
X90526Y214681D01*
X90673Y214761D01*
X90819Y214855D01*
X90964Y214964D01*
X91108Y215087D01*
X91250Y215225D01*
Y212775D01*
D02*
G37*
G36*
X229063Y212025D02*
X228920Y212163D01*
X228776Y212286D01*
X228631Y212395D01*
X228485Y212489D01*
X228338Y212569D01*
X228190Y212634D01*
X228040Y212685D01*
X227890Y212721D01*
X227738Y212743D01*
X227586Y212750D01*
Y213750D01*
X227738Y213757D01*
X227890Y213779D01*
X228040Y213815D01*
X228190Y213866D01*
X228338Y213931D01*
X228485Y214011D01*
X228631Y214105D01*
X228776Y214214D01*
X228920Y214337D01*
X229063Y214475D01*
Y212025D01*
D02*
G37*
G36*
X185461Y211458D02*
Y186075D01*
X184191Y185216D01*
X183750Y185304D01*
X182782Y185111D01*
X182591Y186073D01*
X181983Y186983D01*
X181073Y187590D01*
X180000Y187804D01*
X178927Y187590D01*
X178017Y186983D01*
X177410Y186073D01*
X177196Y185000D01*
X177410Y183927D01*
X178017Y183017D01*
X178927Y182410D01*
X180000Y182196D01*
X180968Y182389D01*
X181160Y181427D01*
X181768Y180517D01*
X182677Y179909D01*
X183347Y179776D01*
X183832Y178673D01*
X183847Y178481D01*
X177808Y172442D01*
X177366Y171780D01*
X177211Y171000D01*
Y160219D01*
X175941Y159693D01*
X174789Y160844D01*
Y172641D01*
X174832Y172738D01*
X174840Y173079D01*
X174861Y173320D01*
X174871Y173385D01*
X174881Y173431D01*
X174884Y173441D01*
X174898Y173476D01*
X174898Y173489D01*
X174899Y173492D01*
X174898Y173501D01*
X174898Y173514D01*
X175341Y174177D01*
X175554Y175250D01*
X175341Y176323D01*
X174733Y177232D01*
X173823Y177840D01*
X172750Y178054D01*
X171677Y177840D01*
X170767Y177232D01*
X170160Y176323D01*
X169946Y175250D01*
X170160Y174177D01*
X170396Y173824D01*
X170157Y172476D01*
X169004Y172751D01*
X168888Y172871D01*
X168809Y172964D01*
X168744Y173050D01*
X168693Y173129D01*
X168654Y173201D01*
X168626Y173265D01*
X168624Y173272D01*
Y179086D01*
X169073Y179437D01*
X169894Y179867D01*
X170750Y179696D01*
X171823Y179910D01*
X172733Y180517D01*
X173340Y181427D01*
X173554Y182500D01*
X173340Y183573D01*
X172733Y184483D01*
X171823Y185091D01*
X170750Y185304D01*
X169894Y185134D01*
X169073Y185563D01*
X168624Y185914D01*
Y209828D01*
X171922Y213126D01*
X175478D01*
X175485Y213124D01*
X175549Y213096D01*
X175621Y213057D01*
X175700Y213006D01*
X175786Y212941D01*
X175879Y212862D01*
X175998Y212746D01*
X176121Y212698D01*
X176927Y212159D01*
X178000Y211946D01*
X179073Y212159D01*
X179983Y212767D01*
X180590Y213677D01*
X180732Y214391D01*
X181735Y214857D01*
X182028Y214891D01*
X185461Y211458D01*
D02*
G37*
G36*
X132003Y213284D02*
X132018Y213095D01*
X132044Y212916D01*
X132080Y212746D01*
X132128Y212586D01*
X132187Y212435D01*
X132256Y212293D01*
X132337Y212161D01*
X132429Y212038D01*
X132532Y211925D01*
X131825Y211218D01*
X131712Y211321D01*
X131589Y211413D01*
X131457Y211494D01*
X131315Y211563D01*
X131164Y211622D01*
X131004Y211670D01*
X130834Y211707D01*
X130655Y211732D01*
X130466Y211747D01*
X130267Y211750D01*
X132000Y213482D01*
X132003Y213284D01*
D02*
G37*
G36*
X348515Y210569D02*
X348437Y210584D01*
X348357Y210587D01*
X348273Y210577D01*
X348187Y210554D01*
X348097Y210518D01*
X348004Y210469D01*
X347909Y210408D01*
X347810Y210333D01*
X347708Y210246D01*
X347603Y210147D01*
X346897Y210854D01*
X346996Y210958D01*
X347084Y211060D01*
X347158Y211159D01*
X347219Y211255D01*
X347268Y211347D01*
X347304Y211437D01*
X347327Y211523D01*
X347337Y211607D01*
X347334Y211687D01*
X347319Y211765D01*
X348515Y210569D01*
D02*
G37*
G36*
X37589Y204079D02*
X37959Y203756D01*
X38067Y203677D01*
X38166Y203613D01*
X38257Y203563D01*
X38340Y203528D01*
X38416Y203507D01*
X38482Y203500D01*
X36750Y201768D01*
X36744Y201835D01*
X36723Y201910D01*
X36687Y201993D01*
X36637Y202084D01*
X36573Y202183D01*
X36494Y202291D01*
X36293Y202530D01*
X36035Y202801D01*
X37449Y204215D01*
X37589Y204079D01*
D02*
G37*
G36*
X110027Y189963D02*
X110149Y189872D01*
X110281Y189791D01*
X110423Y189721D01*
X110574Y189662D01*
X110734Y189615D01*
X110904Y189578D01*
X111084Y189552D01*
X111272Y189538D01*
X111471Y189534D01*
X109738Y187802D01*
X109735Y188000D01*
X109720Y188189D01*
X109695Y188368D01*
X109658Y188538D01*
X109611Y188699D01*
X109552Y188850D01*
X109482Y188991D01*
X109401Y189123D01*
X109309Y189246D01*
X109206Y189359D01*
X109914Y190066D01*
X110027Y189963D01*
D02*
G37*
G36*
X131095Y186166D02*
X130953Y186304D01*
X130809Y186427D01*
X130664Y186536D01*
X130518Y186630D01*
X130371Y186710D01*
X130222Y186775D01*
X130073Y186826D01*
X129922Y186862D01*
X129771Y186884D01*
X129618Y186891D01*
Y187891D01*
X129771Y187898D01*
X129922Y187920D01*
X130073Y187956D01*
X130222Y188007D01*
X130371Y188072D01*
X130518Y188152D01*
X130664Y188246D01*
X130809Y188355D01*
X130953Y188478D01*
X131095Y188616D01*
Y186166D01*
D02*
G37*
G36*
X103918Y178738D02*
X103775Y178876D01*
X103631Y178999D01*
X103486Y179108D01*
X103340Y179202D01*
X103193Y179282D01*
X103045Y179347D01*
X102895Y179398D01*
X102745Y179434D01*
X102593Y179456D01*
X102440Y179463D01*
Y180463D01*
X102593Y180471D01*
X102745Y180492D01*
X102895Y180529D01*
X103045Y180579D01*
X103193Y180644D01*
X103340Y180724D01*
X103486Y180819D01*
X103631Y180927D01*
X103775Y181050D01*
X103918Y181188D01*
Y178738D01*
D02*
G37*
G36*
X12126Y189928D02*
Y180173D01*
X5689Y173735D01*
X-8139D01*
X-9287Y173260D01*
X-14148Y168398D01*
X-14624Y167250D01*
Y153654D01*
X-14148Y152506D01*
X-9017Y147374D01*
X-9004Y147352D01*
X-8966Y147268D01*
X-8929Y147170D01*
X-8898Y147071D01*
X-8831Y146775D01*
X-8805Y146609D01*
X-8687Y146414D01*
X-8590Y145927D01*
X-7983Y145017D01*
X-7073Y144410D01*
X-6000Y144196D01*
X-4927Y144410D01*
X-4017Y145017D01*
X-3410Y145927D01*
X-3196Y147000D01*
X-3005Y148168D01*
X-2267Y148342D01*
X-1927Y148410D01*
X-1017Y149017D01*
X-410Y149927D01*
X-196Y151000D01*
X-410Y152073D01*
X-1017Y152983D01*
X-1927Y153590D01*
X-3000Y153804D01*
X-4073Y153590D01*
X-4983Y152983D01*
X-5590Y152073D01*
X-5804Y151000D01*
X-5834Y150819D01*
X-5951Y150605D01*
X-7187Y150366D01*
X-7439Y150389D01*
X-11377Y154326D01*
Y166577D01*
X-7466Y170488D01*
X-3817D01*
X-3580Y169218D01*
X-4233Y168782D01*
X-4841Y167872D01*
X-5054Y166799D01*
X-4961Y166333D01*
X-5073Y165016D01*
X-5983Y164408D01*
X-6590Y163498D01*
X-6804Y162425D01*
X-6590Y161352D01*
X-5983Y160443D01*
X-5073Y159835D01*
X-4000Y159621D01*
X-2927Y159835D01*
X-2017Y160443D01*
X-1409Y161352D01*
X-1196Y162425D01*
X-1289Y162892D01*
X-1177Y164209D01*
X-268Y164817D01*
X340Y165726D01*
X554Y166799D01*
X340Y167872D01*
X-268Y168782D01*
X-920Y169218D01*
X-683Y170488D01*
X2910D01*
X3621Y169383D01*
X3639Y169218D01*
X3446Y168250D01*
X3660Y167177D01*
X4267Y166267D01*
X5177Y165660D01*
X6250Y165446D01*
X7323Y165660D01*
X8233Y166267D01*
X8840Y167177D01*
X9029Y168127D01*
X9082Y168248D01*
X9085Y168415D01*
X9094Y168537D01*
X9110Y168643D01*
X9129Y168736D01*
X9153Y168813D01*
X9178Y168879D01*
X9181Y168885D01*
X14953Y174657D01*
X16126Y174171D01*
Y172915D01*
X10602Y167391D01*
X10126Y166243D01*
Y156219D01*
X4102Y150194D01*
X3626Y149046D01*
Y94923D01*
X2352Y93648D01*
X1876Y92500D01*
Y84750D01*
X2352Y83602D01*
X6852Y79102D01*
X8000Y78626D01*
X13396D01*
X14074Y77356D01*
X13919Y77124D01*
X10000D01*
X8852Y76648D01*
X-1615Y66181D01*
X-1621Y66178D01*
X-1687Y66153D01*
X-1765Y66129D01*
X-1857Y66110D01*
X-1963Y66094D01*
X-2085Y66085D01*
X-2252Y66082D01*
X-2373Y66030D01*
X-3323Y65840D01*
X-4233Y65233D01*
X-4840Y64323D01*
X-5054Y63250D01*
X-4840Y62177D01*
X-4233Y61267D01*
X-3323Y60660D01*
X-2250Y60446D01*
X-1177Y60660D01*
X-267Y61267D01*
X340Y62177D01*
X529Y63127D01*
X582Y63248D01*
X585Y63415D01*
X594Y63537D01*
X610Y63643D01*
X630Y63735D01*
X653Y63814D01*
X678Y63879D01*
X681Y63885D01*
X10673Y73876D01*
X15500D01*
X16648Y74352D01*
X18508Y76212D01*
X19886Y75794D01*
X19910Y75677D01*
X20517Y74767D01*
X21427Y74160D01*
X22500Y73946D01*
X23573Y74160D01*
X24483Y74767D01*
X25090Y75677D01*
X25304Y76750D01*
X25090Y77823D01*
X24483Y78733D01*
X23573Y79341D01*
X23456Y79364D01*
X23038Y80742D01*
X25973Y83677D01*
X26352Y83602D01*
X29376Y80577D01*
Y76922D01*
X6102Y53648D01*
X5626Y52500D01*
Y34022D01*
X5624Y34016D01*
X5596Y33951D01*
X5557Y33879D01*
X5506Y33800D01*
X5441Y33714D01*
X5362Y33621D01*
X5246Y33502D01*
X5198Y33379D01*
X4660Y32573D01*
X4446Y31500D01*
X4660Y30427D01*
X5267Y29517D01*
X6177Y28909D01*
X7250Y28696D01*
X8323Y28909D01*
X9233Y29517D01*
X9840Y30427D01*
X10054Y31500D01*
X9840Y32573D01*
X9302Y33379D01*
X9254Y33502D01*
X9138Y33621D01*
X9059Y33714D01*
X8994Y33800D01*
X8943Y33879D01*
X8904Y33951D01*
X8876Y34015D01*
X8874Y34022D01*
Y51828D01*
X32148Y75102D01*
X32624Y76250D01*
Y81250D01*
X32148Y82398D01*
X29124Y85422D01*
Y100421D01*
X30297Y100907D01*
X31376Y99827D01*
Y95172D01*
X31852Y94024D01*
X50126Y75749D01*
Y67422D01*
X50602Y66273D01*
X57126Y59749D01*
Y17250D01*
X57602Y16102D01*
X63157Y10547D01*
X62671Y9374D01*
X29922D01*
X29681Y9615D01*
X29678Y9621D01*
X29653Y9686D01*
X29629Y9765D01*
X29610Y9857D01*
X29594Y9963D01*
X29585Y10085D01*
X29582Y10252D01*
X29529Y10373D01*
X29340Y11323D01*
X28733Y12233D01*
X27823Y12840D01*
X26861Y13032D01*
X27054Y14000D01*
X26840Y15073D01*
X26233Y15983D01*
X25323Y16590D01*
X24250Y16804D01*
X23177Y16590D01*
X22267Y15983D01*
X21660Y15073D01*
X21446Y14000D01*
X21660Y12927D01*
X22267Y12017D01*
X23177Y11410D01*
X24139Y11218D01*
X23946Y10250D01*
X24160Y9177D01*
X24767Y8267D01*
X25677Y7660D01*
X26627Y7470D01*
X26748Y7418D01*
X26915Y7415D01*
X27036Y7405D01*
X27143Y7390D01*
X27235Y7370D01*
X27313Y7347D01*
X27379Y7322D01*
X27385Y7319D01*
X28102Y6602D01*
X29250Y6126D01*
X62336D01*
X62687Y5677D01*
X63117Y4856D01*
X62946Y4000D01*
X63084Y3309D01*
X62342Y2039D01*
X2039D01*
Y12000D01*
X2029Y12050D01*
X2037Y12100D01*
X1998Y12884D01*
X1961Y13031D01*
Y13182D01*
X1655Y14720D01*
X1578Y14906D01*
X1539Y15103D01*
X939Y16552D01*
X828Y16718D01*
X751Y16904D01*
X-121Y18208D01*
X-262Y18350D01*
X-374Y18517D01*
X-1483Y19626D01*
X-1650Y19737D01*
X-1792Y19879D01*
X-3096Y20751D01*
X-3282Y20828D01*
X-3449Y20939D01*
X-4897Y21539D01*
X-5094Y21579D01*
X-5280Y21655D01*
X-6818Y21961D01*
X-6969D01*
X-7116Y21998D01*
X-7900Y22037D01*
X-7950Y22029D01*
X-8000Y22039D01*
X-35750Y22039D01*
Y176961D01*
X0Y176961D01*
X66Y176974D01*
X133Y176965D01*
X1177Y177034D01*
X1372Y177086D01*
X1572Y177099D01*
X3589Y177639D01*
X3828Y177757D01*
X4081Y177843D01*
X5890Y178887D01*
X6090Y179063D01*
X6312Y179211D01*
X7789Y180688D01*
X7937Y180910D01*
X8113Y181110D01*
X9157Y182919D01*
X9243Y183172D01*
X9361Y183411D01*
X9901Y185428D01*
X9919Y185694D01*
X9971Y185956D01*
Y188044D01*
X9919Y188306D01*
X9901Y188572D01*
X9361Y190589D01*
X9243Y190828D01*
X9157Y191081D01*
X9129Y191129D01*
X10145Y191909D01*
X12126Y189928D01*
D02*
G37*
G36*
X30931Y188772D02*
Y177595D01*
X29661Y176722D01*
X29250Y176804D01*
X28177Y176590D01*
X27267Y175983D01*
X26660Y175073D01*
X26446Y174000D01*
X26660Y172927D01*
X27267Y172017D01*
X28177Y171410D01*
X29250Y171196D01*
X29746Y171295D01*
X30334Y171397D01*
X31144Y170431D01*
X31203Y170134D01*
X31977Y168977D01*
X36962Y163992D01*
X36544Y162614D01*
X36427Y162590D01*
X35517Y161983D01*
X34910Y161073D01*
X34696Y160000D01*
X34910Y158927D01*
X35517Y158017D01*
X36427Y157410D01*
X37500Y157196D01*
X38573Y157410D01*
X38633Y157450D01*
X39904Y156771D01*
Y147396D01*
X39199Y146871D01*
X38633Y146628D01*
X37750Y146804D01*
X36677Y146590D01*
X35767Y145983D01*
X35160Y145073D01*
X34946Y144000D01*
X35160Y142927D01*
X35767Y142017D01*
X36677Y141410D01*
X37750Y141196D01*
X38633Y141372D01*
X39199Y141129D01*
X39904Y140604D01*
Y139278D01*
X40175Y137912D01*
X40949Y136755D01*
X60308Y117395D01*
X59782Y116125D01*
X52421D01*
X48898Y119648D01*
X47750Y120124D01*
X43923D01*
X43431Y120615D01*
X43428Y120621D01*
X43403Y120687D01*
X43380Y120765D01*
X43360Y120857D01*
X43344Y120963D01*
X43335Y121085D01*
X43332Y121252D01*
X43280Y121373D01*
X43131Y122121D01*
X43091Y122323D01*
X43477Y123764D01*
X43483Y123767D01*
X44090Y124677D01*
X44304Y125750D01*
X44090Y126823D01*
X43483Y127733D01*
X42573Y128341D01*
X41500Y128554D01*
X40427Y128341D01*
X39517Y127733D01*
X38910Y126823D01*
X38696Y125750D01*
X38869Y124879D01*
X38910Y124677D01*
X38523Y123236D01*
X38517Y123233D01*
X37910Y122323D01*
X37696Y121250D01*
X37910Y120177D01*
X38517Y119267D01*
X38703Y119144D01*
X38317Y117874D01*
X29172D01*
X28024Y117398D01*
X27030Y116405D01*
X26369Y116591D01*
X25767Y116937D01*
X25591Y117823D01*
X24983Y118733D01*
X24073Y119340D01*
X23000Y119554D01*
X21927Y119340D01*
X21319Y118934D01*
X20287Y119309D01*
X20049Y119497D01*
Y144113D01*
X21319Y144737D01*
X21730Y144463D01*
X22803Y144249D01*
X23876Y144463D01*
X24786Y145070D01*
X25393Y145980D01*
X25607Y147053D01*
X26250Y147696D01*
X27323Y147910D01*
X28233Y148517D01*
X28840Y149427D01*
X29054Y150500D01*
X29052Y150511D01*
X29573Y151910D01*
X30483Y152517D01*
X31090Y153427D01*
X31304Y154500D01*
X31090Y155573D01*
X30483Y156483D01*
X29573Y157090D01*
X28500Y157304D01*
X27427Y157090D01*
X26517Y156483D01*
X25910Y155573D01*
X25696Y154500D01*
X25698Y154489D01*
X25177Y153090D01*
X24267Y152483D01*
X23660Y151573D01*
X23446Y150500D01*
X22803Y149857D01*
X21730Y149643D01*
X21319Y149369D01*
X20049Y149993D01*
Y166694D01*
X22552Y169198D01*
X23105Y170025D01*
X23299Y171000D01*
Y192341D01*
X24325Y193431D01*
X26272D01*
X30931Y188772D01*
D02*
G37*
G36*
X173932Y173948D02*
X173894Y173880D01*
X173860Y173796D01*
X173831Y173696D01*
X173806Y173581D01*
X173786Y173449D01*
X173759Y173138D01*
X173750Y172764D01*
X171750D01*
X171748Y172959D01*
X171714Y173449D01*
X171694Y173581D01*
X171669Y173696D01*
X171640Y173796D01*
X171606Y173880D01*
X171568Y173948D01*
X171525Y174000D01*
X173975D01*
X173932Y173948D01*
D02*
G37*
G36*
X167507Y173324D02*
X167529Y173172D01*
X167565Y173022D01*
X167616Y172873D01*
X167681Y172724D01*
X167761Y172577D01*
X167855Y172431D01*
X167964Y172286D01*
X168087Y172142D01*
X168225Y172000D01*
X165775D01*
X165913Y172142D01*
X166036Y172286D01*
X166145Y172431D01*
X166239Y172577D01*
X166319Y172724D01*
X166384Y172873D01*
X166435Y173022D01*
X166471Y173172D01*
X166493Y173324D01*
X166500Y173477D01*
X167500D01*
X167507Y173324D01*
D02*
G37*
G36*
X210032Y172075D02*
X209929Y171961D01*
X209837Y171839D01*
X209756Y171707D01*
X209687Y171565D01*
X209628Y171414D01*
X209580Y171254D01*
X209543Y171084D01*
X209518Y170905D01*
X209503Y170716D01*
X209500Y170517D01*
X207768Y172250D01*
X207966Y172253D01*
X208155Y172268D01*
X208334Y172293D01*
X208504Y172330D01*
X208664Y172378D01*
X208815Y172436D01*
X208957Y172506D01*
X209089Y172587D01*
X209212Y172679D01*
X209325Y172782D01*
X210032Y172075D01*
D02*
G37*
G36*
X8532Y169825D02*
X8429Y169712D01*
X8337Y169589D01*
X8256Y169457D01*
X8187Y169315D01*
X8128Y169164D01*
X8080Y169004D01*
X8044Y168834D01*
X8018Y168655D01*
X8003Y168466D01*
X8000Y168267D01*
X6267Y170000D01*
X6466Y170003D01*
X6655Y170018D01*
X6834Y170044D01*
X7004Y170080D01*
X7164Y170128D01*
X7315Y170187D01*
X7457Y170256D01*
X7589Y170337D01*
X7712Y170429D01*
X7825Y170532D01*
X8532Y169825D01*
D02*
G37*
G36*
X216551Y167251D02*
X216350Y167240D01*
X216160Y167219D01*
X215979Y167187D01*
X215808Y167146D01*
X215647Y167095D01*
X215496Y167033D01*
X215354Y166961D01*
X215223Y166880D01*
X215101Y166788D01*
X214989Y166686D01*
X214253Y167364D01*
X214357Y167478D01*
X214448Y167601D01*
X214528Y167734D01*
X214596Y167875D01*
X214652Y168026D01*
X214696Y168185D01*
X214728Y168354D01*
X214748Y168532D01*
X214756Y168719D01*
X214752Y168915D01*
X216551Y167251D01*
D02*
G37*
G36*
X54089Y165579D02*
X54459Y165256D01*
X54567Y165177D01*
X54666Y165113D01*
X54757Y165063D01*
X54840Y165028D01*
X54915Y165007D01*
X54982Y165000D01*
X53250Y163267D01*
X53243Y163335D01*
X53222Y163410D01*
X53187Y163493D01*
X53137Y163584D01*
X53073Y163683D01*
X52994Y163791D01*
X52793Y164030D01*
X52535Y164301D01*
X53949Y165715D01*
X54089Y165579D01*
D02*
G37*
G36*
X147548Y172438D02*
X147211Y172071D01*
X146909Y171679D01*
X146643Y171263D01*
X146412Y170822D01*
X146217Y170357D01*
X146057Y169868D01*
X145933Y169353D01*
X145844Y168815D01*
X145791Y168251D01*
X145773Y167664D01*
X145566Y167603D01*
X145824Y167457D01*
X146162Y167319D01*
X146561Y167200D01*
X147022Y167099D01*
X147545Y167016D01*
X149483Y166879D01*
X150252Y166870D01*
X151630Y162869D01*
X150871Y162846D01*
X150190Y162775D01*
X149591Y162656D01*
X149071Y162490D01*
X148631Y162277D01*
X148271Y162017D01*
X147991Y161709D01*
X147790Y161353D01*
X147670Y160950D01*
X147631Y160500D01*
X144630D01*
X144597Y162081D01*
X144574Y162385D01*
X144503Y162906D01*
X144404Y163395D01*
X144276Y163853D01*
X144120Y164279D01*
X143936Y164673D01*
X143723Y165036D01*
X143482Y165367D01*
X143213Y165666D01*
X144977Y167430D01*
X142773Y166785D01*
X142758Y167355D01*
X142711Y167865D01*
X142633Y168315D01*
X142524Y168705D01*
X142384Y169035D01*
X142212Y169305D01*
X142010Y169515D01*
X141776Y169665D01*
X141511Y169755D01*
X141215Y169785D01*
Y172785D01*
X141696Y172803D01*
X142163Y172856D01*
X142618Y172945D01*
X143059Y173069D01*
X143486Y173229D01*
X143901Y173424D01*
X144302Y173654D01*
X144690Y173921D01*
X145065Y174222D01*
X145427Y174559D01*
X147548Y172438D01*
D02*
G37*
G36*
X132898Y161177D02*
X133506Y160267D01*
X134415Y159660D01*
X135488Y159446D01*
X135519Y159452D01*
X136049Y158922D01*
X136247Y158577D01*
X136433Y157641D01*
X137041Y156732D01*
X137951Y156124D01*
X139024Y155911D01*
X140097Y156124D01*
X141006Y156732D01*
X141546Y157540D01*
X141873Y157720D01*
X142569Y157931D01*
X146238Y154262D01*
X146202Y154070D01*
X145058Y153292D01*
X145000Y153304D01*
X143927Y153090D01*
X143017Y152483D01*
X142410Y151573D01*
X142196Y150500D01*
X142410Y149427D01*
X143017Y148517D01*
X143927Y147910D01*
X145000Y147696D01*
X146073Y147910D01*
X146983Y148517D01*
X147590Y149427D01*
X147638Y149666D01*
X148700Y150160D01*
X149773Y149946D01*
X150424Y150076D01*
X155619Y144881D01*
X155449Y143637D01*
X155111Y143412D01*
X154503Y142502D01*
X154290Y141429D01*
X154503Y140356D01*
X155111Y139446D01*
X156021Y138839D01*
X157094Y138625D01*
X158167Y138839D01*
X159076Y139446D01*
X159316Y139805D01*
X160546Y139954D01*
X165718Y134782D01*
X165860Y134070D01*
X166468Y133161D01*
X167377Y132553D01*
X168088Y132411D01*
X169230Y131270D01*
X168901Y130185D01*
X168427Y130090D01*
X167517Y129483D01*
X166910Y128573D01*
X166696Y127500D01*
X166910Y126427D01*
X167517Y125517D01*
X168427Y124910D01*
X169500Y124696D01*
X170573Y124910D01*
X171483Y125517D01*
X172090Y126427D01*
X172185Y126901D01*
X173270Y127230D01*
X176181Y124319D01*
Y122500D01*
X176453Y121134D01*
X177227Y119977D01*
X181727Y115477D01*
X182884Y114703D01*
X184250Y114431D01*
X186069D01*
X189250Y111250D01*
X207817Y92683D01*
X207410Y92073D01*
X207196Y91000D01*
X207410Y89927D01*
X208018Y89017D01*
X208927Y88410D01*
X210000Y88196D01*
X211073Y88410D01*
X211683Y88817D01*
X225750Y74750D01*
Y52054D01*
X224677Y51840D01*
X223768Y51233D01*
X223160Y50323D01*
X222946Y49250D01*
X223160Y48177D01*
X223768Y47267D01*
X224677Y46660D01*
X225750Y46446D01*
Y20000D01*
X218295Y12545D01*
X218250Y12554D01*
X217177Y12340D01*
X216267Y11733D01*
X215660Y10823D01*
X215446Y9750D01*
X215455Y9705D01*
X211233Y5483D01*
X210323Y6090D01*
X209250Y6304D01*
X208177Y6090D01*
X207267Y5483D01*
X207112Y5250D01*
X195000Y5250D01*
X193750Y6500D01*
Y7168D01*
X194090Y7677D01*
X194304Y8750D01*
X194090Y9823D01*
X193750Y10332D01*
Y11000D01*
X209750Y27000D01*
X209750Y29667D01*
X210090Y30177D01*
X210304Y31250D01*
X210090Y32323D01*
X209750Y32833D01*
X209750Y33500D01*
X176217Y67033D01*
X176710Y67954D01*
X176750Y67946D01*
X177823Y68160D01*
X178733Y68767D01*
X179340Y69677D01*
X179554Y70750D01*
X179340Y71823D01*
X178733Y72733D01*
X177823Y73341D01*
X176750Y73554D01*
X175677Y73341D01*
X174767Y72733D01*
X174160Y71823D01*
X173946Y70750D01*
X173954Y70710D01*
X173032Y70217D01*
X155938Y87312D01*
X155983Y87767D01*
X156590Y88677D01*
X156804Y89750D01*
X156590Y90823D01*
X155983Y91733D01*
X155073Y92340D01*
X154000Y92554D01*
X152927Y92340D01*
X152017Y91733D01*
X151562Y91688D01*
X142374Y100876D01*
X142437Y101517D01*
X143045Y102427D01*
X143258Y103500D01*
X143045Y104573D01*
X142437Y105483D01*
X141527Y106090D01*
X140454Y106304D01*
X139381Y106090D01*
X138471Y105483D01*
X137830Y105420D01*
X137500Y105750D01*
X125417Y105750D01*
X125359Y105846D01*
X125878Y106925D01*
X126347Y107019D01*
X127256Y107626D01*
X127864Y108536D01*
X128078Y109609D01*
X127864Y110682D01*
X127256Y111592D01*
X126347Y112200D01*
X125274Y112413D01*
X124201Y112200D01*
X123291Y111592D01*
X122683Y110682D01*
X122470Y109609D01*
X122547Y109223D01*
X122068Y108835D01*
X121636Y108677D01*
X120939Y109143D01*
X120525Y109225D01*
X105833Y123917D01*
X106340Y124677D01*
X106554Y125750D01*
X106340Y126823D01*
X105733Y127733D01*
X104823Y128340D01*
X103750Y128554D01*
X103049Y128414D01*
X102049Y129032D01*
Y135669D01*
X102327Y135948D01*
X102880Y136775D01*
X103074Y137750D01*
Y140294D01*
X103116Y140356D01*
X103329Y141429D01*
X103116Y142502D01*
X102508Y143412D01*
X105614Y146517D01*
X106523Y145910D01*
X107596Y145696D01*
X108669Y145910D01*
X109579Y146517D01*
X110187Y147427D01*
X110400Y148500D01*
X110187Y149573D01*
X109579Y150483D01*
X112685Y153588D01*
X113594Y152981D01*
X114667Y152767D01*
X115740Y152981D01*
X116650Y153588D01*
X117258Y154498D01*
X117444Y155434D01*
X117642Y155778D01*
X118172Y156309D01*
X118203Y156303D01*
X119276Y156516D01*
X120185Y157124D01*
X120793Y158034D01*
X121007Y159107D01*
X121001Y159137D01*
X121531Y159668D01*
X121875Y159866D01*
X122811Y160052D01*
X123721Y160660D01*
X124329Y161569D01*
X124365Y161750D01*
X132784D01*
X132898Y161177D01*
D02*
G37*
G36*
X206001Y152654D02*
X206026Y152318D01*
X206037Y152261D01*
X206050Y152215D01*
X206065Y152180D01*
X206083Y152156D01*
X206102Y152143D01*
X204898D01*
X204917Y152156D01*
X204935Y152180D01*
X204950Y152215D01*
X204963Y152261D01*
X204974Y152318D01*
X204984Y152385D01*
X204996Y152554D01*
X205000Y152766D01*
X206000D01*
X206001Y152654D01*
D02*
G37*
G36*
X14951Y164311D02*
Y150647D01*
X13681Y149913D01*
X12974Y150054D01*
X11901Y149840D01*
X10991Y149233D01*
X10383Y148323D01*
X10170Y147250D01*
X10383Y146177D01*
X10991Y145267D01*
X11901Y144660D01*
X12974Y144446D01*
X13681Y144587D01*
X14951Y143853D01*
Y125082D01*
X13681Y124218D01*
X13250Y124304D01*
X12177Y124090D01*
X11267Y123483D01*
X10660Y122573D01*
X10446Y121500D01*
X10660Y120427D01*
X11267Y119517D01*
X12177Y118910D01*
X13250Y118696D01*
X13681Y118782D01*
X14951Y117918D01*
Y111306D01*
X12698Y109052D01*
X12145Y108225D01*
X11951Y107250D01*
Y97056D01*
X9448Y94552D01*
X8895Y93725D01*
X8701Y92750D01*
Y88385D01*
X8660Y88323D01*
X8446Y87250D01*
X8660Y86177D01*
X9267Y85267D01*
X10177Y84660D01*
X11250Y84446D01*
X12323Y84660D01*
X13233Y85267D01*
X13840Y86177D01*
X14054Y87250D01*
X13840Y88323D01*
X13799Y88385D01*
Y91694D01*
X16302Y94198D01*
X16855Y95024D01*
X17049Y96000D01*
Y106194D01*
X19302Y108448D01*
X19855Y109275D01*
X20049Y110250D01*
Y114003D01*
X20287Y114191D01*
X21319Y114566D01*
X21927Y114160D01*
X22813Y113983D01*
X23159Y113381D01*
X23345Y112720D01*
X22352Y111727D01*
X21876Y110578D01*
Y89059D01*
X20606Y88673D01*
X20233Y89233D01*
X19323Y89840D01*
X18250Y90054D01*
X17177Y89840D01*
X16267Y89233D01*
X15660Y88323D01*
X15446Y87250D01*
X15660Y86177D01*
X16267Y85267D01*
X17177Y84660D01*
X17294Y84636D01*
X17712Y83258D01*
X16328Y81874D01*
X8673D01*
X5124Y85422D01*
Y91827D01*
X6398Y93102D01*
X6874Y94250D01*
Y148374D01*
X12898Y154398D01*
X13374Y155546D01*
Y164767D01*
X13681Y164979D01*
X14951Y164311D01*
D02*
G37*
G36*
X-7670Y149042D02*
X-7545Y148951D01*
X-7413Y148873D01*
X-7272Y148810D01*
X-7124Y148762D01*
X-6968Y148727D01*
X-6803Y148707D01*
X-6631Y148700D01*
X-6450Y148708D01*
X-6262Y148730D01*
X-7735Y146772D01*
X-7766Y146976D01*
X-7852Y147353D01*
X-7906Y147525D01*
X-7967Y147687D01*
X-8036Y147838D01*
X-8113Y147978D01*
X-8198Y148108D01*
X-8289Y148227D01*
X-8389Y148336D01*
X-7786Y149147D01*
X-7670Y149042D01*
D02*
G37*
G36*
X150776Y160720D02*
X150879Y160481D01*
X150754Y159857D01*
X150968Y158784D01*
X151575Y157874D01*
X152485Y157266D01*
X153558Y157053D01*
X154631Y157266D01*
X155541Y157874D01*
X156149Y158784D01*
X156362Y159857D01*
X156847Y159888D01*
X157094Y159838D01*
X158167Y160052D01*
X159076Y160660D01*
X159334Y161045D01*
X160835Y161339D01*
X166398Y155777D01*
X166103Y154276D01*
X165718Y154018D01*
X165110Y153109D01*
X164896Y152036D01*
X165110Y150962D01*
X165718Y150053D01*
X166627Y149445D01*
X167700Y149232D01*
X168773Y149445D01*
X169683Y150053D01*
X169940Y150438D01*
X171441Y150733D01*
X172941Y149233D01*
Y146168D01*
X172607Y145944D01*
X172444Y145885D01*
X172236Y145827D01*
X167444Y145581D01*
X167377Y145549D01*
X158665D01*
X157689Y145355D01*
X157027Y145454D01*
X156384Y145647D01*
X154537Y147493D01*
X154851Y148309D01*
X155109Y148718D01*
X156073Y148910D01*
X156983Y149517D01*
X157590Y150427D01*
X157804Y151500D01*
X157590Y152573D01*
X156983Y153483D01*
X156073Y154090D01*
X155000Y154304D01*
X153927Y154090D01*
X153642Y153900D01*
X152587Y153837D01*
X152070Y154261D01*
X151755Y154733D01*
X150845Y155340D01*
X149773Y155554D01*
X148700Y155340D01*
X148375Y155124D01*
X147858Y155021D01*
X147265Y155026D01*
X146677Y155353D01*
X145505Y156526D01*
X146131Y157696D01*
X147204Y157910D01*
X148113Y158518D01*
X148721Y159427D01*
X148934Y160500D01*
X148835Y161001D01*
X148867Y161059D01*
X149512Y161362D01*
X150776Y160720D01*
D02*
G37*
G36*
X177414Y143086D02*
X177335Y142957D01*
X177265Y142737D01*
X177004Y138626D01*
X177000Y137672D01*
X172000Y136500D01*
X171970Y137450D01*
X171880Y138300D01*
X171730Y139050D01*
X171520Y139700D01*
X171250Y140250D01*
X170920Y140700D01*
X170530Y141050D01*
X170080Y141300D01*
X169570Y141450D01*
X169380Y141467D01*
X167500Y141500D01*
Y144500D01*
X172411Y144752D01*
X172775Y144853D01*
X173201Y145009D01*
X173594Y145193D01*
X173957Y145405D01*
X174287Y145646D01*
X174586Y145914D01*
X177414Y143086D01*
D02*
G37*
G36*
X183752Y137541D02*
X183786Y137051D01*
X183806Y136919D01*
X183831Y136803D01*
X183860Y136704D01*
X183894Y136620D01*
X183932Y136552D01*
X183975Y136500D01*
X181525D01*
X181568Y136552D01*
X181606Y136620D01*
X181640Y136704D01*
X181669Y136803D01*
X181694Y136919D01*
X181714Y137051D01*
X181741Y137361D01*
X181750Y137736D01*
X183750D01*
X183752Y137541D01*
D02*
G37*
G36*
X200392Y132087D02*
X200536Y131964D01*
X200681Y131855D01*
X200827Y131761D01*
X200974Y131681D01*
X201123Y131616D01*
X201272Y131565D01*
X201423Y131529D01*
X201574Y131507D01*
X201727Y131500D01*
Y130500D01*
X201574Y130493D01*
X201423Y130471D01*
X201272Y130435D01*
X201123Y130384D01*
X200974Y130319D01*
X200827Y130239D01*
X200681Y130145D01*
X200536Y130036D01*
X200392Y129913D01*
X200250Y129775D01*
Y132225D01*
X200392Y132087D01*
D02*
G37*
G36*
X186002Y127041D02*
X186036Y126551D01*
X186056Y126419D01*
X186081Y126303D01*
X186110Y126204D01*
X186144Y126120D01*
X186182Y126052D01*
X186225Y126000D01*
X183775D01*
X183818Y126052D01*
X183856Y126120D01*
X183890Y126204D01*
X183919Y126303D01*
X183944Y126419D01*
X183964Y126551D01*
X183991Y126862D01*
X184000Y127236D01*
X186000D01*
X186002Y127041D01*
D02*
G37*
G36*
X42253Y121034D02*
X42268Y120845D01*
X42294Y120666D01*
X42330Y120496D01*
X42378Y120336D01*
X42437Y120185D01*
X42506Y120043D01*
X42587Y119911D01*
X42679Y119788D01*
X42782Y119675D01*
X42075Y118968D01*
X41962Y119071D01*
X41839Y119163D01*
X41707Y119244D01*
X41565Y119313D01*
X41414Y119372D01*
X41254Y119420D01*
X41084Y119457D01*
X40905Y119482D01*
X40716Y119497D01*
X40518Y119500D01*
X42250Y121233D01*
X42253Y121034D01*
D02*
G37*
G36*
X43254Y108852D02*
X43265Y108715D01*
X43284Y108589D01*
X43310Y108474D01*
X43344Y108370D01*
X43385Y108277D01*
X43434Y108195D01*
X43490Y108124D01*
X43554Y108064D01*
X43625Y108016D01*
X41875D01*
X41946Y108064D01*
X42010Y108124D01*
X42066Y108195D01*
X42115Y108277D01*
X42156Y108370D01*
X42190Y108474D01*
X42216Y108589D01*
X42235Y108715D01*
X42246Y108852D01*
X42250Y109000D01*
X43250D01*
X43254Y108852D01*
D02*
G37*
G36*
X39250Y105195D02*
X39127Y105051D01*
X39018Y104906D01*
X38924Y104760D01*
X38844Y104613D01*
X38779Y104465D01*
X38728Y104315D01*
X38692Y104165D01*
X38670Y104013D01*
X38663Y103860D01*
X37663D01*
X37655Y104013D01*
X37634Y104165D01*
X37597Y104315D01*
X37547Y104465D01*
X37481Y104613D01*
X37402Y104760D01*
X37307Y104906D01*
X37199Y105051D01*
X37075Y105195D01*
X36938Y105338D01*
X39388D01*
X39250Y105195D01*
D02*
G37*
G36*
X93981Y106429D02*
Y105041D01*
X93920Y104950D01*
X93726Y103975D01*
X93920Y102999D01*
X94473Y102172D01*
X96624Y100021D01*
X97451Y99469D01*
X98426Y99275D01*
X109357D01*
X110332Y99469D01*
X111159Y100021D01*
X114210Y103073D01*
X115156Y102647D01*
X115411Y102477D01*
X115612Y101465D01*
X116220Y100555D01*
X117130Y99948D01*
X118203Y99734D01*
X119276Y99948D01*
X120185Y100555D01*
X120430Y100921D01*
X121938Y101208D01*
X139198Y83949D01*
X140024Y83396D01*
X141000Y83202D01*
X142693D01*
X147951Y77944D01*
Y71750D01*
X148145Y70774D01*
X148698Y69948D01*
X161698Y56948D01*
X162525Y56395D01*
X163500Y56201D01*
X173644D01*
X174261Y55341D01*
X174401Y54931D01*
X174221Y54025D01*
X174435Y52952D01*
X175042Y52042D01*
X175062Y50813D01*
X175000Y50504D01*
X174879Y50212D01*
X174922Y50110D01*
X174900Y50001D01*
X174950Y49750D01*
X174821Y49099D01*
X174452Y48548D01*
X173901Y48179D01*
X173250Y48050D01*
X172388Y48221D01*
X172337Y48211D01*
X172333Y48212D01*
X172042Y48332D01*
X169708D01*
X169417Y48212D01*
X169413Y48211D01*
X169362Y48221D01*
X168500Y48050D01*
X167849Y48179D01*
X167298Y48548D01*
X166810Y49278D01*
X166803Y49282D01*
X166755Y49355D01*
X166634Y49646D01*
X148765Y67515D01*
X148000Y67832D01*
X128000Y67832D01*
X128000Y67832D01*
X127234Y67515D01*
X127234Y67515D01*
X116742Y57023D01*
X115569Y57509D01*
Y65625D01*
X115297Y66991D01*
X114523Y68148D01*
X110898Y71773D01*
X110495Y72043D01*
X110248Y73288D01*
X110340Y73427D01*
X110554Y74500D01*
X110340Y75573D01*
X109733Y76483D01*
X108823Y77090D01*
X107750Y77304D01*
X106677Y77090D01*
X105767Y76483D01*
X105160Y75573D01*
X104946Y74500D01*
X105120Y73627D01*
X104586Y73052D01*
X104101Y72735D01*
X103125Y72929D01*
X102052Y72715D01*
X101142Y72108D01*
X100535Y71198D01*
X100321Y70125D01*
X100535Y69052D01*
X101142Y68142D01*
X102052Y67535D01*
X103125Y67321D01*
X104198Y67535D01*
X105674Y66993D01*
X105852Y66727D01*
X105899Y66679D01*
X105725Y65631D01*
X105536Y65246D01*
X104767Y64733D01*
X104160Y63823D01*
X103946Y62750D01*
X104160Y61677D01*
X104767Y60767D01*
X105677Y60160D01*
X106750Y59946D01*
X107161Y60028D01*
X108431Y59155D01*
Y50304D01*
X95446Y37319D01*
X88250D01*
X86884Y37047D01*
X85727Y36273D01*
X84953Y35116D01*
X84681Y33750D01*
X84910Y32602D01*
X84245Y31332D01*
X78000D01*
X78000Y31332D01*
X77235Y31015D01*
X77235Y31015D01*
X70985Y24765D01*
X70668Y24000D01*
Y14500D01*
X70985Y13735D01*
X70985Y13735D01*
X72172Y12547D01*
X71686Y11374D01*
X66922D01*
X60374Y17923D01*
Y28921D01*
X61547Y29407D01*
X61602Y29352D01*
X62750Y28876D01*
X69250D01*
X70398Y29352D01*
X74898Y33852D01*
X75374Y35000D01*
Y45827D01*
X76172Y46626D01*
X81578D01*
X82814Y45390D01*
Y42063D01*
X83289Y40914D01*
X84852Y39352D01*
X86000Y38876D01*
X92750D01*
X93898Y39352D01*
X95898Y41352D01*
X96374Y42500D01*
Y47478D01*
X96376Y47484D01*
X96404Y47549D01*
X96443Y47621D01*
X96494Y47700D01*
X96559Y47786D01*
X96638Y47879D01*
X96754Y47998D01*
X96802Y48121D01*
X97340Y48927D01*
X97554Y50000D01*
X97340Y51073D01*
X96733Y51983D01*
X95823Y52590D01*
X94750Y52804D01*
X93677Y52590D01*
X92767Y51983D01*
X92160Y51073D01*
X91946Y50000D01*
X92160Y48927D01*
X92698Y48121D01*
X92746Y47998D01*
X92862Y47879D01*
X92941Y47786D01*
X93006Y47700D01*
X93057Y47621D01*
X93096Y47549D01*
X93124Y47485D01*
X93126Y47478D01*
Y43172D01*
X92078Y42124D01*
X86672D01*
X86061Y42735D01*
Y46062D01*
X85586Y47211D01*
X83398Y49398D01*
X82250Y49874D01*
X81807D01*
X81462Y50560D01*
X81317Y51144D01*
X81840Y51927D01*
X82054Y53000D01*
X81840Y54073D01*
X81233Y54983D01*
X80468Y55494D01*
X80590Y55677D01*
X80804Y56750D01*
X80590Y57823D01*
X79983Y58733D01*
X79073Y59340D01*
X78000Y59554D01*
X76927Y59340D01*
X76017Y58733D01*
X75410Y57823D01*
X75196Y56750D01*
X74124Y55630D01*
X73927Y55590D01*
X73017Y54983D01*
X72410Y54073D01*
X72196Y53000D01*
X72410Y51927D01*
X73017Y51017D01*
X73793Y50499D01*
X73879Y50331D01*
X73974Y49889D01*
X74045Y49091D01*
X72602Y47648D01*
X72126Y46500D01*
Y35673D01*
X68577Y32124D01*
X63422D01*
X62374Y33173D01*
Y39578D01*
X65398Y42602D01*
X65874Y43750D01*
Y46250D01*
X65398Y47398D01*
X62374Y50423D01*
Y61250D01*
X61898Y62398D01*
X55374Y68923D01*
Y77250D01*
X54898Y78398D01*
X36624Y96672D01*
Y99578D01*
X39311Y102265D01*
X39786Y103413D01*
Y103762D01*
X40186Y104069D01*
X40561Y104253D01*
X40605Y104260D01*
X40946Y104284D01*
X41348Y104129D01*
X41353Y104126D01*
X41677Y103910D01*
X42750Y103696D01*
X43106Y103767D01*
X43573Y103437D01*
X44102Y102225D01*
X43626Y101077D01*
Y93404D01*
X44102Y92256D01*
X46006Y90352D01*
X47154Y89876D01*
X51250D01*
X52398Y90352D01*
X69173Y107126D01*
X92906D01*
X92925Y107135D01*
X93981Y106429D01*
D02*
G37*
G36*
X32Y64825D02*
X-71Y64712D01*
X-163Y64589D01*
X-244Y64457D01*
X-314Y64315D01*
X-372Y64164D01*
X-420Y64004D01*
X-457Y63834D01*
X-482Y63655D01*
X-497Y63466D01*
X-500Y63267D01*
X-2233Y65000D01*
X-2034Y65003D01*
X-1845Y65018D01*
X-1666Y65044D01*
X-1496Y65080D01*
X-1336Y65128D01*
X-1185Y65187D01*
X-1043Y65256D01*
X-911Y65337D01*
X-788Y65429D01*
X-675Y65532D01*
X32Y64825D01*
D02*
G37*
G36*
X136624Y104668D02*
X137682Y103659D01*
X137650Y103500D01*
X137864Y102427D01*
X138471Y101517D01*
X139381Y100910D01*
X140454Y100696D01*
X141296Y100864D01*
X141431Y100539D01*
X141537Y100190D01*
X141587Y100163D01*
X141608Y100111D01*
X150797Y90922D01*
X150849Y90901D01*
X150875Y90851D01*
X151225Y90745D01*
X151562Y90605D01*
X151614Y90627D01*
X151668Y90611D01*
X152123Y90655D01*
X152358Y90781D01*
X152619Y90833D01*
X153349Y91321D01*
X154000Y91450D01*
X154651Y91321D01*
X155202Y90952D01*
X155571Y90401D01*
X155700Y89750D01*
X155571Y89099D01*
X155083Y88369D01*
X155031Y88108D01*
X154906Y87873D01*
X154861Y87418D01*
X154877Y87364D01*
X154855Y87312D01*
X154995Y86975D01*
X155101Y86625D01*
X155151Y86599D01*
X155172Y86547D01*
X172267Y69452D01*
X172513Y69350D01*
X172718Y69182D01*
X172881Y69198D01*
X173032Y69135D01*
X173278Y69237D01*
X173543Y69263D01*
X174201Y69615D01*
X174767Y68767D01*
X175615Y68201D01*
X175263Y67543D01*
X175237Y67278D01*
X175135Y67033D01*
X175198Y66881D01*
X175182Y66718D01*
X175350Y66513D01*
X175452Y66267D01*
X179150Y62569D01*
X178624Y61299D01*
X167769D01*
X167101Y62569D01*
X167340Y62927D01*
X167554Y64000D01*
X167340Y65073D01*
X166733Y65983D01*
X165823Y66590D01*
X164750Y66804D01*
X163677Y66590D01*
X162767Y65983D01*
X162327Y65324D01*
X161300Y65028D01*
X160851Y65004D01*
X153049Y72806D01*
Y79000D01*
X152855Y79975D01*
X152302Y80802D01*
X145551Y87554D01*
X144724Y88106D01*
X143749Y88300D01*
X142056D01*
X126862Y103494D01*
X127348Y104668D01*
X136624Y104668D01*
D02*
G37*
G36*
X95837Y48608D02*
X95714Y48464D01*
X95605Y48319D01*
X95511Y48173D01*
X95431Y48026D01*
X95366Y47877D01*
X95315Y47728D01*
X95279Y47577D01*
X95257Y47426D01*
X95250Y47273D01*
X94250D01*
X94243Y47426D01*
X94221Y47577D01*
X94185Y47728D01*
X94134Y47877D01*
X94069Y48026D01*
X93989Y48173D01*
X93895Y48319D01*
X93786Y48464D01*
X93663Y48608D01*
X93525Y48750D01*
X95975D01*
X95837Y48608D01*
D02*
G37*
G36*
X7757Y34074D02*
X7779Y33923D01*
X7815Y33772D01*
X7866Y33623D01*
X7931Y33474D01*
X8011Y33327D01*
X8105Y33181D01*
X8214Y33036D01*
X8337Y32892D01*
X8475Y32750D01*
X6025D01*
X6163Y32892D01*
X6286Y33036D01*
X6395Y33181D01*
X6489Y33327D01*
X6569Y33474D01*
X6634Y33623D01*
X6685Y33772D01*
X6721Y33923D01*
X6743Y34074D01*
X6750Y34227D01*
X7750D01*
X7757Y34074D01*
D02*
G37*
G36*
X214052Y98727D02*
X215210Y97953D01*
X216575Y97681D01*
X230022D01*
X245181Y82522D01*
Y77575D01*
X245453Y76210D01*
X246227Y75052D01*
X251802Y69477D01*
X252960Y68703D01*
X254325Y68431D01*
X261440D01*
X261598Y68239D01*
X262003Y67161D01*
X261610Y66573D01*
X261396Y65500D01*
X261610Y64427D01*
X262218Y63517D01*
X263127Y62910D01*
X264200Y62696D01*
X265273Y62910D01*
X266225Y63492D01*
X267177Y62910D01*
X268250Y62696D01*
X268661Y62778D01*
X269931Y61905D01*
Y52250D01*
X270203Y50884D01*
X270977Y49727D01*
X282931Y37772D01*
Y26000D01*
Y21750D01*
X283203Y20384D01*
X283977Y19227D01*
X285134Y18453D01*
X285555Y18369D01*
X288087Y15837D01*
X288087Y15837D01*
X289079Y15174D01*
X290250Y14941D01*
X290250Y14941D01*
X307733D01*
X311837Y10837D01*
X312829Y10174D01*
X314000Y9941D01*
X314000Y9941D01*
X328329D01*
X329080Y8671D01*
X328946Y8000D01*
X329017Y7644D01*
X328118Y6374D01*
X308183D01*
X307797Y7644D01*
X307983Y7767D01*
X308590Y8677D01*
X308804Y9750D01*
X308590Y10823D01*
X307983Y11733D01*
X307073Y12340D01*
X306000Y12554D01*
X304927Y12340D01*
X304017Y11733D01*
X303483D01*
X303483Y11733D01*
X302573Y12341D01*
X301500Y12554D01*
X300427Y12341D01*
X299517Y11733D01*
X298910Y10823D01*
X298696Y9750D01*
X298910Y8677D01*
X299517Y7768D01*
X299703Y7644D01*
X299317Y6374D01*
X274172D01*
X270648Y9898D01*
X269500Y10374D01*
X252500D01*
X251352Y9898D01*
X246577Y5124D01*
X217022D01*
X217015Y5126D01*
X216951Y5154D01*
X216879Y5193D01*
X216800Y5244D01*
X216714Y5308D01*
X216621Y5388D01*
X216502Y5504D01*
X216379Y5552D01*
X216039Y5779D01*
X215687Y7113D01*
X215715Y7357D01*
X216068Y7787D01*
X216267Y7767D01*
X217177Y7160D01*
X218250Y6946D01*
X219323Y7160D01*
X220046Y7643D01*
X220086Y7626D01*
X230250D01*
X231398Y8102D01*
X251759Y28463D01*
X252846Y27754D01*
X252696Y27000D01*
X252910Y25927D01*
X253517Y25017D01*
Y24483D01*
X252910Y23573D01*
X252696Y22500D01*
X252910Y21427D01*
X253517Y20517D01*
X253984Y20206D01*
X253992Y20185D01*
Y18815D01*
X253984Y18794D01*
X253517Y18483D01*
X252910Y17573D01*
X252696Y16500D01*
X252910Y15427D01*
X253517Y14517D01*
X254427Y13910D01*
X255500Y13696D01*
X256573Y13910D01*
X257483Y14517D01*
X258090Y15427D01*
X258304Y16500D01*
X258090Y17573D01*
X257483Y18483D01*
X257016Y18794D01*
X257008Y18815D01*
Y20185D01*
X257016Y20206D01*
X257483Y20517D01*
X258090Y21427D01*
X258304Y22500D01*
X258090Y23573D01*
X257483Y24483D01*
Y25017D01*
X258090Y25927D01*
X258304Y27000D01*
X259428Y27532D01*
X259572D01*
X260696Y27000D01*
X260910Y25927D01*
X261059Y25704D01*
X261417Y24750D01*
X261059Y23796D01*
X260910Y23573D01*
X260696Y22500D01*
X260910Y21427D01*
X261517Y20517D01*
X261984Y20206D01*
X261992Y20185D01*
Y18815D01*
X261984Y18794D01*
X261517Y18483D01*
X260910Y17573D01*
X260696Y16500D01*
X260910Y15427D01*
X261517Y14517D01*
X262427Y13910D01*
X263500Y13696D01*
X264573Y13910D01*
X265483Y14517D01*
X266090Y15427D01*
X266304Y16500D01*
X266090Y17573D01*
X265483Y18483D01*
X265016Y18794D01*
X265008Y18815D01*
Y20185D01*
X265016Y20206D01*
X265483Y20517D01*
X266090Y21427D01*
X266304Y22500D01*
X266090Y23573D01*
X265941Y23796D01*
X265583Y24750D01*
X265941Y25704D01*
X266090Y25927D01*
X266304Y27000D01*
X266090Y28073D01*
X265483Y28983D01*
X264573Y29590D01*
X263500Y29804D01*
X263355Y29775D01*
X262275Y30855D01*
X262304Y31000D01*
X262275Y31145D01*
X263355Y32225D01*
X263500Y32196D01*
X264573Y32410D01*
X265483Y33017D01*
X266090Y33927D01*
X266304Y35000D01*
X266090Y36073D01*
X265483Y36983D01*
Y37517D01*
X266090Y38427D01*
X266304Y39500D01*
X266090Y40573D01*
X265483Y41483D01*
X265016Y41794D01*
X265008Y41815D01*
Y43185D01*
X265016Y43206D01*
X265483Y43517D01*
X266090Y44427D01*
X266304Y45500D01*
X266090Y46573D01*
X265483Y47483D01*
X264573Y48090D01*
X263500Y48304D01*
X262427Y48090D01*
X261517Y47483D01*
X260910Y46573D01*
X260696Y45500D01*
X260910Y44427D01*
X261517Y43517D01*
X261984Y43206D01*
X261992Y43185D01*
Y41815D01*
X261984Y41794D01*
X261517Y41483D01*
X260910Y40573D01*
X260696Y39500D01*
X260910Y38427D01*
X261517Y37517D01*
Y36983D01*
X260910Y36073D01*
X260696Y35000D01*
X260725Y34855D01*
X259645Y33775D01*
X259500Y33804D01*
X259355Y33775D01*
X258275Y34855D01*
X258304Y35000D01*
X258090Y36073D01*
X257941Y36296D01*
X257583Y37250D01*
X257941Y38204D01*
X258090Y38427D01*
X258304Y39500D01*
X258090Y40573D01*
X257483Y41483D01*
X257016Y41794D01*
X257008Y41815D01*
Y43185D01*
X257016Y43206D01*
X257483Y43517D01*
X258090Y44427D01*
X258304Y45500D01*
X258090Y46573D01*
X257483Y47483D01*
X256573Y48090D01*
X255500Y48304D01*
X254427Y48090D01*
X253517Y47483D01*
X252910Y46573D01*
X252696Y45500D01*
X252910Y44427D01*
X253517Y43517D01*
X253984Y43206D01*
X253992Y43185D01*
Y41815D01*
X253984Y41794D01*
X253517Y41483D01*
X252910Y40573D01*
X252696Y39500D01*
X252910Y38427D01*
X253059Y38204D01*
X253417Y37250D01*
X253059Y36296D01*
X252910Y36073D01*
X252696Y35000D01*
X252910Y33927D01*
X252932Y33894D01*
X252253Y32624D01*
X252000D01*
X250852Y32148D01*
X229578Y10874D01*
X220807D01*
X220233Y11733D01*
X220123Y12843D01*
X226515Y19235D01*
X226832Y20000D01*
Y46446D01*
X226712Y46738D01*
X226650Y47048D01*
X226558Y47109D01*
X226515Y47212D01*
X226224Y47332D01*
X225961Y47508D01*
X225100Y47679D01*
X224548Y48048D01*
X224179Y48599D01*
X224050Y49250D01*
X224179Y49901D01*
X224548Y50452D01*
X225100Y50821D01*
X225961Y50992D01*
X226224Y51168D01*
X226515Y51288D01*
X226558Y51391D01*
X226650Y51452D01*
X226712Y51762D01*
X226832Y52054D01*
Y74750D01*
X226515Y75515D01*
X215025Y87006D01*
X215443Y88384D01*
X215573Y88410D01*
X216483Y89017D01*
X217090Y89927D01*
X217304Y91000D01*
X217090Y92073D01*
X216483Y92983D01*
X215573Y93590D01*
X214500Y93804D01*
X213427Y93590D01*
X212518Y92983D01*
X211983D01*
X211073Y93590D01*
X210000Y93804D01*
X208927Y93590D01*
X208673Y93421D01*
X208582Y93448D01*
X190015Y112015D01*
X188773Y113258D01*
X189259Y114431D01*
X198347D01*
X214052Y98727D01*
D02*
G37*
G36*
X258250Y29775D02*
X258108Y29913D01*
X257964Y30036D01*
X257819Y30145D01*
X257673Y30239D01*
X257526Y30319D01*
X257377Y30384D01*
X257228Y30435D01*
X257077Y30471D01*
X256926Y30493D01*
X256773Y30500D01*
Y31500D01*
X256926Y31507D01*
X257077Y31529D01*
X257228Y31565D01*
X257377Y31616D01*
X257526Y31681D01*
X257673Y31761D01*
X257819Y31855D01*
X257964Y31964D01*
X258108Y32087D01*
X258250Y32225D01*
Y29775D01*
D02*
G37*
G36*
X165869Y48881D02*
X165910Y48677D01*
X166517Y47767D01*
X167427Y47160D01*
X168500Y46946D01*
X169573Y47160D01*
X169708Y47250D01*
X172042D01*
X172177Y47160D01*
X173250Y46946D01*
X174323Y47160D01*
X175233Y47767D01*
X175840Y48677D01*
X176054Y49750D01*
X175962Y50212D01*
X176750Y51000D01*
X183500D01*
X186000Y48500D01*
Y36750D01*
X185381Y36131D01*
X185177Y36090D01*
X184267Y35483D01*
X183660Y34573D01*
X183619Y34369D01*
X180255Y31005D01*
X179427Y30840D01*
X178517Y30233D01*
X177910Y29323D01*
X177895Y29250D01*
X158500D01*
X142503Y45247D01*
X142554Y45500D01*
X142340Y46573D01*
X141733Y47483D01*
X140823Y48090D01*
X139750Y48304D01*
X138677Y48090D01*
X137767Y47483D01*
X137612Y47250D01*
X133888D01*
X133733Y47483D01*
X132823Y48091D01*
X131750Y48304D01*
X130677Y48091D01*
X129767Y47483D01*
X129160Y46573D01*
X129057Y46057D01*
X128750Y45750D01*
Y36000D01*
X126333Y33583D01*
X126323Y33590D01*
X125250Y33804D01*
X124177Y33590D01*
X123267Y32983D01*
X122660Y32073D01*
X122446Y31000D01*
X122660Y29927D01*
X122667Y29917D01*
X111750Y19000D01*
X109270D01*
X109000Y19054D01*
X108729Y19000D01*
X96000D01*
X88374Y11374D01*
X74876D01*
X71750Y14500D01*
Y24000D01*
X78000Y30250D01*
X87905D01*
X88250Y30181D01*
X96925D01*
X97269Y30250D01*
X99250D01*
X116250Y47250D01*
X116250Y55000D01*
X128000Y66750D01*
X148000Y66750D01*
X165869Y48881D01*
D02*
G37*
G36*
X199951Y34694D02*
Y33423D01*
X199727Y33273D01*
X198953Y32116D01*
X198681Y30750D01*
Y29000D01*
X198953Y27634D01*
X199727Y26477D01*
X201477Y24727D01*
X202634Y23953D01*
X203253Y23830D01*
X203671Y22452D01*
X192985Y11765D01*
X192843Y11422D01*
X192573Y11340D01*
X191500Y11554D01*
X190427Y11340D01*
X189517Y10733D01*
X188910Y9823D01*
X188858Y9562D01*
X188323Y9340D01*
X187250Y9554D01*
X186177Y9340D01*
X185267Y8733D01*
X184660Y7823D01*
X184446Y6750D01*
X184660Y5677D01*
X185023Y5134D01*
X185020Y3605D01*
X183974Y2039D01*
X179740D01*
X179537Y2302D01*
X179177Y3309D01*
X179590Y3927D01*
X179804Y5000D01*
X179590Y6073D01*
X178983Y6983D01*
X178073Y7590D01*
X177000Y7804D01*
X175927Y7590D01*
X175017Y6983D01*
X174410Y6073D01*
X174196Y5000D01*
X174410Y3927D01*
X174823Y3309D01*
X174463Y2302D01*
X174260Y2039D01*
X159325D01*
X158466Y3309D01*
X158554Y3750D01*
X158340Y4823D01*
X157733Y5733D01*
X156823Y6340D01*
X155873Y6529D01*
X155752Y6582D01*
X155585Y6585D01*
X155463Y6594D01*
X155357Y6610D01*
X155265Y6629D01*
X155187Y6653D01*
X155121Y6678D01*
X155115Y6681D01*
X152898Y8898D01*
X151750Y9374D01*
X93329D01*
X92843Y10547D01*
X96923Y14626D01*
X106478D01*
X106484Y14624D01*
X106549Y14596D01*
X106621Y14557D01*
X106700Y14506D01*
X106786Y14441D01*
X106879Y14362D01*
X106998Y14246D01*
X107121Y14198D01*
X107927Y13659D01*
X109000Y13446D01*
X110073Y13659D01*
X110983Y14267D01*
X111590Y15177D01*
X111804Y16250D01*
X111725Y16648D01*
X111741Y17472D01*
X112510Y18232D01*
X112515Y18235D01*
Y18235D01*
X123432Y29151D01*
X123483Y29274D01*
X123560Y29326D01*
X123596Y29507D01*
X123728Y29705D01*
X123707Y29814D01*
X123749Y29917D01*
X123700Y30034D01*
X123721Y30138D01*
X123550Y31000D01*
X123679Y31651D01*
X124048Y32202D01*
X124599Y32571D01*
X125250Y32700D01*
X126112Y32529D01*
X126216Y32550D01*
X126333Y32501D01*
X126436Y32543D01*
X126545Y32522D01*
X126743Y32654D01*
X126924Y32690D01*
X126975Y32767D01*
X127099Y32818D01*
X128004Y33723D01*
X129498Y33421D01*
X129767Y33017D01*
X130677Y32410D01*
X131750Y32196D01*
X131895Y32225D01*
X132975Y31145D01*
X132946Y31000D01*
X132975Y30855D01*
X131895Y29775D01*
X131750Y29804D01*
X130677Y29590D01*
X129767Y28983D01*
X129160Y28073D01*
X128946Y27000D01*
X129160Y25927D01*
X129767Y25017D01*
Y24483D01*
X129160Y23573D01*
X128946Y22500D01*
X129160Y21427D01*
X129767Y20517D01*
X130234Y20206D01*
X130242Y20185D01*
Y18815D01*
X130234Y18794D01*
X129767Y18483D01*
X129160Y17573D01*
X128946Y16500D01*
X129160Y15427D01*
X129767Y14517D01*
X130677Y13910D01*
X131750Y13696D01*
X132823Y13910D01*
X133733Y14517D01*
X134340Y15427D01*
X134554Y16500D01*
X134340Y17573D01*
X133733Y18483D01*
X133266Y18794D01*
X133258Y18815D01*
Y20185D01*
X133266Y20206D01*
X133733Y20517D01*
X134340Y21427D01*
X134554Y22500D01*
X134340Y23573D01*
X133733Y24483D01*
Y25017D01*
X134340Y25927D01*
X134554Y27000D01*
X135678Y27532D01*
X135822D01*
X136946Y27000D01*
X137160Y25927D01*
X137309Y25704D01*
X137667Y24750D01*
X137309Y23796D01*
X137160Y23573D01*
X136946Y22500D01*
X137160Y21427D01*
X137767Y20517D01*
X138234Y20206D01*
X138242Y20185D01*
Y18815D01*
X138234Y18794D01*
X137767Y18483D01*
X137160Y17573D01*
X136946Y16500D01*
X137160Y15427D01*
X137767Y14517D01*
X138677Y13910D01*
X139750Y13696D01*
X140823Y13910D01*
X141733Y14517D01*
X142340Y15427D01*
X142554Y16500D01*
X142340Y17573D01*
X141733Y18483D01*
X141266Y18794D01*
X141258Y18815D01*
Y20185D01*
X141266Y20206D01*
X141733Y20517D01*
X142340Y21427D01*
X142554Y22500D01*
X142340Y23573D01*
X142191Y23796D01*
X141833Y24750D01*
X142191Y25704D01*
X142340Y25927D01*
X142554Y27000D01*
X142340Y28073D01*
X141733Y28983D01*
X140823Y29590D01*
X139750Y29804D01*
X139605Y29775D01*
X138525Y30855D01*
X138554Y31000D01*
X138525Y31145D01*
X139605Y32225D01*
X139750Y32196D01*
X140823Y32410D01*
X141733Y33017D01*
X142340Y33927D01*
X142554Y35000D01*
X142340Y36073D01*
X141733Y36983D01*
Y37517D01*
X142340Y38427D01*
X142554Y39500D01*
X142340Y40573D01*
X141733Y41483D01*
X141266Y41794D01*
X141258Y41815D01*
Y43185D01*
X141266Y43206D01*
X141733Y43517D01*
X142615Y43604D01*
X157735Y28485D01*
X158500Y28168D01*
X177712D01*
X177910Y27177D01*
X178517Y26267D01*
X179427Y25660D01*
X180500Y25446D01*
X181573Y25660D01*
X181623Y25693D01*
X182625Y26196D01*
X183626Y25693D01*
X183677Y25660D01*
X184750Y25446D01*
X185823Y25660D01*
X186733Y26267D01*
X187340Y27177D01*
X187554Y28250D01*
X187340Y29323D01*
X187166Y29583D01*
X187312Y30813D01*
X187578Y31080D01*
X188233Y31517D01*
X188840Y32427D01*
X189054Y33500D01*
X188840Y34573D01*
X188233Y35483D01*
X187323Y36090D01*
X187034Y36632D01*
X187082Y36750D01*
Y45904D01*
X188256Y46389D01*
X199951Y34694D01*
D02*
G37*
G36*
X107750Y15025D02*
X107608Y15163D01*
X107464Y15286D01*
X107319Y15395D01*
X107173Y15489D01*
X107026Y15569D01*
X106877Y15634D01*
X106728Y15685D01*
X106577Y15721D01*
X106426Y15743D01*
X106273Y15750D01*
Y16750D01*
X106426Y16757D01*
X106577Y16779D01*
X106728Y16815D01*
X106877Y16866D01*
X107026Y16931D01*
X107173Y17011D01*
X107319Y17105D01*
X107464Y17214D01*
X107608Y17337D01*
X107750Y17475D01*
Y15025D01*
D02*
G37*
G36*
X28503Y10034D02*
X28518Y9845D01*
X28544Y9666D01*
X28580Y9496D01*
X28628Y9336D01*
X28686Y9185D01*
X28756Y9043D01*
X28837Y8911D01*
X28929Y8788D01*
X29032Y8675D01*
X28325Y7968D01*
X28212Y8071D01*
X28089Y8163D01*
X27957Y8244D01*
X27815Y8313D01*
X27664Y8372D01*
X27504Y8420D01*
X27334Y8456D01*
X27155Y8482D01*
X26966Y8497D01*
X26767Y8500D01*
X28500Y10232D01*
X28503Y10034D01*
D02*
G37*
G36*
X368621Y3867D02*
X368426Y3940D01*
X367712Y4154D01*
X367551Y4189D01*
X367249Y4235D01*
X367109Y4246D01*
X366975Y4250D01*
X366468Y5250D01*
X366631Y5258D01*
X366783Y5283D01*
X366924Y5324D01*
X367054Y5381D01*
X367172Y5455D01*
X367279Y5546D01*
X367375Y5652D01*
X367460Y5776D01*
X367534Y5915D01*
X367596Y6071D01*
X368621Y3867D01*
D02*
G37*
G36*
X154288Y5929D02*
X154411Y5837D01*
X154543Y5756D01*
X154685Y5687D01*
X154836Y5628D01*
X154996Y5580D01*
X155166Y5544D01*
X155345Y5518D01*
X155534Y5503D01*
X155732Y5500D01*
X154000Y3767D01*
X153997Y3966D01*
X153982Y4155D01*
X153956Y4334D01*
X153920Y4504D01*
X153872Y4664D01*
X153813Y4815D01*
X153744Y4957D01*
X153663Y5089D01*
X153571Y5212D01*
X153468Y5325D01*
X154175Y6032D01*
X154288Y5929D01*
D02*
G37*
G36*
X215893Y4587D02*
X216036Y4464D01*
X216181Y4355D01*
X216327Y4261D01*
X216474Y4181D01*
X216623Y4116D01*
X216772Y4065D01*
X216923Y4029D01*
X217074Y4007D01*
X217227Y4000D01*
X217227Y3000D01*
X217074Y2993D01*
X216923Y2971D01*
X216772Y2935D01*
X216623Y2884D01*
X216474Y2819D01*
X216327Y2739D01*
X216181Y2645D01*
X216036Y2536D01*
X215892Y2413D01*
X215750Y2275D01*
X215750Y4725D01*
X215893Y4587D01*
D02*
G37*
%LPC*%
G36*
X329300Y289754D02*
X328227Y289540D01*
X327317Y288932D01*
X326710Y288023D01*
X326496Y286950D01*
X326710Y285877D01*
X327317Y284967D01*
X328227Y284359D01*
X329300Y284146D01*
X330373Y284359D01*
X331283Y284967D01*
X331890Y285877D01*
X332104Y286950D01*
X331890Y288023D01*
X331283Y288932D01*
X330373Y289540D01*
X329300Y289754D01*
D02*
G37*
G36*
X357500Y285054D02*
X356427Y284840D01*
X355517Y284233D01*
X355354Y283988D01*
X353841Y283967D01*
X353733Y284129D01*
X352823Y284737D01*
X351750Y284950D01*
X350677Y284737D01*
X349767Y284129D01*
X349160Y283220D01*
X348946Y282146D01*
X349160Y281073D01*
X349767Y280164D01*
X350677Y279556D01*
X351750Y279343D01*
X352823Y279556D01*
X353733Y280164D01*
X353896Y280408D01*
X355409Y280430D01*
X355517Y280267D01*
X356427Y279660D01*
X357377Y279471D01*
X357498Y279418D01*
X357665Y279415D01*
X357786Y279405D01*
X357893Y279390D01*
X357985Y279370D01*
X358063Y279347D01*
X358129Y279322D01*
X358135Y279319D01*
X358876Y278577D01*
Y269572D01*
X357606Y268893D01*
X357461Y268990D01*
X356387Y269204D01*
X355314Y268990D01*
X354405Y268383D01*
X353797Y267473D01*
X353584Y266400D01*
X353797Y265327D01*
X354405Y264417D01*
X355314Y263810D01*
X356387Y263596D01*
X357461Y263810D01*
X357606Y263907D01*
X358876Y263228D01*
Y250750D01*
X359352Y249602D01*
X376352Y232602D01*
X377500Y232126D01*
X392327D01*
X399352Y225102D01*
X400500Y224626D01*
X421250D01*
X422398Y225102D01*
X424422Y227126D01*
X455827D01*
X459376Y223577D01*
Y208250D01*
X459852Y207102D01*
X461376Y205578D01*
Y169172D01*
X458602Y166398D01*
X458126Y165250D01*
Y77422D01*
X443327Y62624D01*
X395580D01*
X395279Y63671D01*
X395268Y63894D01*
X404751Y73376D01*
X414328D01*
X416102Y71602D01*
X417250Y71126D01*
X430327D01*
X431102Y70352D01*
X432250Y69876D01*
X435096D01*
X436244Y70352D01*
X437684Y71792D01*
X437695Y71797D01*
X437766Y71826D01*
X437850Y71853D01*
X437949Y71877D01*
X438062Y71896D01*
X438190Y71911D01*
X438360Y71920D01*
X438531Y72002D01*
X439323Y72160D01*
X440233Y72767D01*
X440840Y73677D01*
X441054Y74750D01*
X440840Y75823D01*
X440233Y76733D01*
X439323Y77340D01*
X438250Y77554D01*
X437177Y77340D01*
X436268Y76733D01*
X435733D01*
X434823Y77340D01*
X433750Y77554D01*
X432677Y77340D01*
X431768Y76733D01*
X431528Y76374D01*
X418751D01*
X416977Y78148D01*
X415828Y78624D01*
X403250D01*
X402102Y78148D01*
X392827Y68874D01*
X360423D01*
X355648Y73648D01*
X354500Y74124D01*
X351654D01*
X350506Y73648D01*
X348991Y72133D01*
X348938Y72114D01*
X348870Y72096D01*
X348788Y72082D01*
X348692Y72073D01*
X348581Y72070D01*
X348422Y72077D01*
X348320Y72040D01*
X348250Y72054D01*
X347177Y71840D01*
X346267Y71233D01*
X345660Y70323D01*
X345446Y69250D01*
X345660Y68177D01*
X346267Y67267D01*
X347177Y66660D01*
X348250Y66446D01*
X349323Y66660D01*
X350233Y67267D01*
X351017D01*
X351927Y66660D01*
X352877Y66471D01*
X352998Y66418D01*
X353165Y66415D01*
X353287Y66406D01*
X353393Y66390D01*
X353485Y66371D01*
X353563Y66347D01*
X353629Y66322D01*
X353635Y66319D01*
X356102Y63852D01*
X357250Y63376D01*
X369249D01*
X369550Y62329D01*
X369560Y62106D01*
X365852Y58398D01*
X365376Y57250D01*
Y40022D01*
X365374Y40016D01*
X365346Y39951D01*
X365307Y39879D01*
X365256Y39800D01*
X365191Y39714D01*
X365112Y39621D01*
X364996Y39502D01*
X364948Y39379D01*
X364410Y38573D01*
X364196Y37500D01*
X364410Y36427D01*
X365017Y35517D01*
X365927Y34910D01*
X367000Y34696D01*
X368073Y34910D01*
X368983Y35517D01*
X369590Y36427D01*
X369804Y37500D01*
X369590Y38573D01*
X369052Y39379D01*
X369004Y39502D01*
X368888Y39621D01*
X368809Y39714D01*
X368744Y39800D01*
X368693Y39879D01*
X368654Y39951D01*
X368626Y40015D01*
X368624Y40022D01*
Y56578D01*
X371423Y59376D01*
X444000D01*
X445148Y59852D01*
X460898Y75602D01*
X461374Y76750D01*
Y164578D01*
X464148Y167352D01*
X464624Y168500D01*
Y206250D01*
X464148Y207398D01*
X462624Y208923D01*
Y224250D01*
X462148Y225398D01*
X457648Y229898D01*
X456500Y230374D01*
X423750D01*
X422602Y229898D01*
X420578Y227874D01*
X401172D01*
X394148Y234898D01*
X393000Y235374D01*
X378172D01*
X362124Y251423D01*
Y279250D01*
X361648Y280398D01*
X360431Y281615D01*
X360428Y281621D01*
X360403Y281687D01*
X360379Y281765D01*
X360360Y281857D01*
X360344Y281963D01*
X360335Y282085D01*
X360332Y282252D01*
X360279Y282373D01*
X360090Y283323D01*
X359483Y284233D01*
X358573Y284840D01*
X357500Y285054D01*
D02*
G37*
G36*
X273750Y276304D02*
X272677Y276091D01*
X271767Y275483D01*
X271160Y274573D01*
X270946Y273500D01*
X271160Y272427D01*
X271767Y271517D01*
X272677Y270910D01*
X273750Y270696D01*
X274823Y270910D01*
X275733Y271517D01*
X276340Y272427D01*
X276554Y273500D01*
X276340Y274573D01*
X275733Y275483D01*
X274823Y276091D01*
X273750Y276304D01*
D02*
G37*
G36*
X290250Y276304D02*
X289177Y276090D01*
X288267Y275483D01*
X287660Y274573D01*
X287446Y273500D01*
X287660Y272427D01*
X288267Y271517D01*
X289177Y270910D01*
X290250Y270696D01*
X291323Y270910D01*
X292233Y271517D01*
X292840Y272427D01*
X293054Y273500D01*
X292840Y274573D01*
X292233Y275483D01*
X291323Y276090D01*
X290250Y276304D01*
D02*
G37*
G36*
X98250Y274804D02*
X97177Y274590D01*
X96267Y273983D01*
X95660Y273073D01*
X95446Y272000D01*
X95660Y270927D01*
X96267Y270017D01*
X97177Y269410D01*
X97823Y269281D01*
X97910Y269073D01*
X97696Y268000D01*
X97910Y266927D01*
X98517Y266017D01*
X99427Y265410D01*
X100500Y265196D01*
X101573Y265410D01*
X102483Y266017D01*
X103090Y266927D01*
X103304Y268000D01*
X103090Y269073D01*
X102483Y269983D01*
X101573Y270590D01*
X100927Y270719D01*
X100840Y270927D01*
X101054Y272000D01*
X100840Y273073D01*
X100233Y273983D01*
X99323Y274590D01*
X98250Y274804D01*
D02*
G37*
G36*
X287000Y270054D02*
X285927Y269840D01*
X285017Y269233D01*
X284410Y268323D01*
X284196Y267250D01*
X284410Y266177D01*
X285017Y265267D01*
X285927Y264660D01*
X287000Y264446D01*
X288073Y264660D01*
X288983Y265267D01*
X289590Y266177D01*
X289804Y267250D01*
X289590Y268323D01*
X288983Y269233D01*
X288073Y269840D01*
X287000Y270054D01*
D02*
G37*
G36*
X277000Y270054D02*
X275927Y269840D01*
X275017Y269233D01*
X274410Y268323D01*
X274196Y267250D01*
X274410Y266177D01*
X275017Y265267D01*
X275927Y264660D01*
X277000Y264446D01*
X278073Y264660D01*
X278983Y265267D01*
X279590Y266177D01*
X279804Y267250D01*
X279590Y268323D01*
X278983Y269233D01*
X278073Y269840D01*
X277000Y270054D01*
D02*
G37*
G36*
X107250Y267554D02*
X106177Y267340D01*
X105267Y266733D01*
X104660Y265823D01*
X104446Y264750D01*
X104660Y263677D01*
X105267Y262767D01*
X106177Y262160D01*
X107250Y261946D01*
X108323Y262160D01*
X109233Y262767D01*
X109840Y263677D01*
X110054Y264750D01*
X109840Y265823D01*
X109233Y266733D01*
X108323Y267340D01*
X107250Y267554D01*
D02*
G37*
G36*
X249000Y265304D02*
X247927Y265090D01*
X247017Y264483D01*
X246410Y263573D01*
X246196Y262500D01*
X246410Y261427D01*
X247017Y260517D01*
X247927Y259910D01*
X249000Y259696D01*
X250073Y259910D01*
X250983Y260517D01*
X251590Y261427D01*
X251804Y262500D01*
X251590Y263573D01*
X250983Y264483D01*
X250073Y265090D01*
X249000Y265304D01*
D02*
G37*
G36*
X97500Y259804D02*
X96427Y259590D01*
X95517Y258983D01*
X94910Y258073D01*
X94696Y257000D01*
X94910Y255927D01*
X95517Y255017D01*
X96427Y254410D01*
X97500Y254196D01*
X98573Y254410D01*
X98969Y254674D01*
X99875Y254914D01*
X100781Y254674D01*
X101177Y254410D01*
X102250Y254196D01*
X103323Y254410D01*
X104233Y255017D01*
X104840Y255927D01*
X105054Y257000D01*
X104840Y258073D01*
X104233Y258983D01*
X103323Y259590D01*
X102250Y259804D01*
X101177Y259590D01*
X100781Y259326D01*
X99875Y259086D01*
X98969Y259326D01*
X98573Y259590D01*
X97500Y259804D01*
D02*
G37*
G36*
X236500Y259304D02*
X235427Y259090D01*
X234517Y258482D01*
X233909Y257573D01*
X233696Y256500D01*
X233909Y255427D01*
X234517Y254517D01*
X235427Y253909D01*
X236500Y253696D01*
X237573Y253909D01*
X238275Y254379D01*
X239162Y254203D01*
X239650Y253978D01*
X239660Y253927D01*
X240267Y253017D01*
X241177Y252410D01*
X242250Y252196D01*
X243323Y252410D01*
X244233Y253017D01*
X244841Y253927D01*
X245054Y255000D01*
X244841Y256073D01*
X244233Y256983D01*
X243323Y257590D01*
X242250Y257804D01*
X241177Y257590D01*
X240475Y257121D01*
X239587Y257297D01*
X239100Y257522D01*
X239090Y257573D01*
X238483Y258482D01*
X237573Y259090D01*
X236500Y259304D01*
D02*
G37*
G36*
X328250Y257554D02*
X327177Y257340D01*
X326267Y256733D01*
X325660Y255823D01*
X325446Y254750D01*
X325660Y253677D01*
X326267Y252767D01*
X327177Y252160D01*
X328250Y251946D01*
X329323Y252160D01*
X330233Y252767D01*
X330840Y253677D01*
X331054Y254750D01*
X330840Y255823D01*
X330233Y256733D01*
X329323Y257340D01*
X328250Y257554D01*
D02*
G37*
G36*
X397500Y255054D02*
X396427Y254841D01*
X395517Y254233D01*
X394910Y253323D01*
X394696Y252250D01*
X394910Y251177D01*
X395517Y250268D01*
X396427Y249660D01*
X397500Y249446D01*
X398573Y249660D01*
X399483Y250268D01*
X400090Y251177D01*
X400304Y252250D01*
X400090Y253323D01*
X399483Y254233D01*
X398573Y254841D01*
X397500Y255054D01*
D02*
G37*
G36*
X247250Y250804D02*
X246177Y250590D01*
X245267Y249983D01*
X244660Y249073D01*
X244446Y248000D01*
X244660Y246927D01*
X245267Y246017D01*
X246177Y245410D01*
X247250Y245196D01*
X248323Y245410D01*
X249233Y246017D01*
X249840Y246927D01*
X250054Y248000D01*
X249840Y249073D01*
X249233Y249983D01*
X248323Y250590D01*
X247250Y250804D01*
D02*
G37*
G36*
X11750Y250304D02*
X10677Y250090D01*
X9767Y249483D01*
X9160Y248573D01*
X8946Y247500D01*
X9160Y246427D01*
X9767Y245517D01*
X10677Y244909D01*
X11750Y244696D01*
X12823Y244909D01*
X13733Y245517D01*
X14340Y246427D01*
X14554Y247500D01*
X14340Y248573D01*
X13733Y249483D01*
X12823Y250090D01*
X11750Y250304D01*
D02*
G37*
G36*
X350750Y250304D02*
X349677Y250090D01*
X348767Y249482D01*
X348159Y248573D01*
X347946Y247500D01*
X348159Y246427D01*
X348767Y245517D01*
X349677Y244909D01*
X350750Y244696D01*
X351823Y244909D01*
X352732Y245517D01*
X353340Y246427D01*
X353554Y247500D01*
X353340Y248573D01*
X352732Y249482D01*
X351823Y250090D01*
X350750Y250304D01*
D02*
G37*
G36*
X328250D02*
X327177Y250090D01*
X326267Y249482D01*
X325660Y248573D01*
X325446Y247500D01*
X325660Y246427D01*
X326267Y245517D01*
X327177Y244909D01*
X328250Y244696D01*
X329323Y244909D01*
X330233Y245517D01*
X330840Y246427D01*
X331054Y247500D01*
X330840Y248573D01*
X330233Y249482D01*
X329323Y250090D01*
X328250Y250304D01*
D02*
G37*
G36*
X216750Y244054D02*
X215677Y243840D01*
X214767Y243233D01*
X214767Y243233D01*
X214233D01*
X213323Y243840D01*
X212250Y244054D01*
X211177Y243840D01*
X210631Y243475D01*
X209483Y243233D01*
X208573Y243840D01*
X207500Y244054D01*
X206427Y243840D01*
X205517Y243233D01*
X204910Y242323D01*
X204696Y241250D01*
X204910Y240177D01*
X205517Y239267D01*
X206427Y238660D01*
X207500Y238446D01*
X208573Y238660D01*
X209119Y239025D01*
X210268Y239267D01*
X211177Y238659D01*
X212250Y238446D01*
X213323Y238659D01*
X214233Y239267D01*
X214233Y239267D01*
X214767D01*
X215677Y238660D01*
X216750Y238446D01*
X217823Y238660D01*
X218733Y239267D01*
X219340Y240177D01*
X219554Y241250D01*
X219340Y242323D01*
X218733Y243233D01*
X217823Y243840D01*
X216750Y244054D01*
D02*
G37*
G36*
X381750Y242304D02*
X380677Y242090D01*
X379767Y241483D01*
X379160Y240573D01*
X378946Y239500D01*
X379160Y238427D01*
X379767Y237517D01*
X380677Y236910D01*
X381750Y236696D01*
X382823Y236910D01*
X383733Y237517D01*
X384340Y238427D01*
X384554Y239500D01*
X384340Y240573D01*
X383733Y241483D01*
X382823Y242090D01*
X381750Y242304D01*
D02*
G37*
G36*
X401250Y242304D02*
X400177Y242090D01*
X399267Y241483D01*
X398660Y240573D01*
X398446Y239500D01*
X398660Y238427D01*
X399267Y237517D01*
X400177Y236910D01*
X400759Y236794D01*
X401946Y236250D01*
X402160Y235177D01*
X402767Y234267D01*
X403677Y233660D01*
X404750Y233446D01*
X405823Y233660D01*
X406733Y234267D01*
X407340Y235177D01*
X407554Y236250D01*
X407340Y237323D01*
X406733Y238233D01*
X405823Y238840D01*
X405241Y238956D01*
X404054Y239500D01*
X403840Y240573D01*
X403233Y241483D01*
X402323Y242090D01*
X401250Y242304D01*
D02*
G37*
G36*
X413750Y234804D02*
X412677Y234590D01*
X411768Y233983D01*
X411160Y233073D01*
X410946Y232000D01*
X411160Y230927D01*
X411768Y230017D01*
X412677Y229410D01*
X413750Y229196D01*
X414823Y229410D01*
X415733Y230017D01*
X416341Y230927D01*
X416554Y232000D01*
X416341Y233073D01*
X415733Y233983D01*
X414823Y234590D01*
X413750Y234804D01*
D02*
G37*
G36*
X444000Y224804D02*
X442927Y224590D01*
X442017Y223983D01*
X441410Y223073D01*
X441196Y222000D01*
X441410Y220927D01*
X442017Y220017D01*
X442927Y219410D01*
X444000Y219196D01*
X445073Y219410D01*
X445983Y220017D01*
X446590Y220927D01*
X446804Y222000D01*
X446590Y223073D01*
X445983Y223983D01*
X445073Y224590D01*
X444000Y224804D01*
D02*
G37*
G36*
X347250Y221804D02*
X346177Y221590D01*
X345267Y220983D01*
X344660Y220073D01*
X344446Y219000D01*
X344660Y217927D01*
X345267Y217017D01*
X346177Y216410D01*
X347250Y216196D01*
X348323Y216410D01*
X349233Y217017D01*
X349840Y217927D01*
X350054Y219000D01*
X349840Y220073D01*
X349233Y220983D01*
X348323Y221590D01*
X347250Y221804D01*
D02*
G37*
G36*
X-7500Y219054D02*
X-8573Y218840D01*
X-9483Y218233D01*
X-10090Y217323D01*
X-10304Y216250D01*
X-10090Y215177D01*
X-9483Y214267D01*
X-8573Y213659D01*
X-7500Y213446D01*
X-6427Y213659D01*
X-5517Y214267D01*
X-4910Y215177D01*
X-4696Y216250D01*
X-4910Y217323D01*
X-5517Y218233D01*
X-6427Y218840D01*
X-7500Y219054D01*
D02*
G37*
G36*
X390048Y218804D02*
X388975Y218591D01*
X388065Y217983D01*
X387458Y217073D01*
X387244Y216000D01*
X387458Y214927D01*
X387495Y214871D01*
X388070Y213727D01*
X387463Y212818D01*
X387249Y211745D01*
X387463Y210672D01*
X388070Y209762D01*
X388980Y209154D01*
X390053Y208941D01*
X391126Y209154D01*
X392036Y209762D01*
X392643Y210672D01*
X392857Y211745D01*
X392643Y212818D01*
X392606Y212874D01*
X392030Y214018D01*
X392638Y214927D01*
X392852Y216000D01*
X392638Y217073D01*
X392030Y217983D01*
X391121Y218591D01*
X390048Y218804D01*
D02*
G37*
G36*
X428250Y211054D02*
X427177Y210840D01*
X426267Y210233D01*
X425660Y209323D01*
X425446Y208250D01*
X425660Y207177D01*
X426267Y206267D01*
X427177Y205660D01*
X428250Y205446D01*
X429323Y205660D01*
X430233Y206267D01*
X430840Y207177D01*
X431054Y208250D01*
X430840Y209323D01*
X430233Y210233D01*
X429323Y210840D01*
X428250Y211054D01*
D02*
G37*
G36*
X246250Y214804D02*
X245177Y214590D01*
X244267Y213983D01*
X243660Y213073D01*
X243446Y212000D01*
X243660Y210927D01*
X244267Y210017D01*
X245177Y209410D01*
X245961Y209254D01*
X246132Y209170D01*
X246296Y209160D01*
X246411Y209146D01*
X246507Y209127D01*
X246588Y209104D01*
X246652Y209080D01*
X246693Y209060D01*
X247685Y207852D01*
X249555Y204354D01*
X250706Y200558D01*
X251077Y196794D01*
X251001Y196610D01*
Y190382D01*
X249731Y189484D01*
X249375Y189555D01*
X248302Y189341D01*
X247392Y188733D01*
X246784Y187824D01*
X246571Y186751D01*
X246784Y185678D01*
X247392Y184768D01*
X248302Y184160D01*
X248718Y184077D01*
X248765Y184068D01*
Y182773D01*
X248718Y182764D01*
X248302Y182681D01*
X247392Y182073D01*
X246784Y181164D01*
X246571Y180091D01*
X246784Y179018D01*
X247392Y178108D01*
X248302Y177500D01*
X248736Y177414D01*
X248765Y177397D01*
Y176124D01*
X248736Y176107D01*
X248302Y176021D01*
X247392Y175413D01*
X246784Y174504D01*
X246571Y173431D01*
X246784Y172358D01*
X247392Y171448D01*
X248302Y170840D01*
X248736Y170754D01*
X249901Y170101D01*
X250114Y169028D01*
X250722Y168118D01*
X251632Y167510D01*
X252705Y167297D01*
X253778Y167510D01*
X254687Y168118D01*
X255295Y169028D01*
X255508Y170101D01*
X255295Y171174D01*
X254687Y172083D01*
X253778Y172691D01*
X253344Y172777D01*
X253314Y172794D01*
Y174078D01*
X253778Y174170D01*
X254687Y174778D01*
X255295Y175688D01*
X255449Y176459D01*
X256308Y176889D01*
X256744Y176959D01*
X258102Y175602D01*
X258273Y175531D01*
X260521Y172792D01*
X262272Y169516D01*
X263350Y165962D01*
X263697Y162436D01*
X263626Y162265D01*
Y122079D01*
X263702Y121895D01*
X263964Y119904D01*
X264804Y117878D01*
X266026Y116285D01*
X266102Y116102D01*
X266274Y116031D01*
X267405Y114338D01*
X267493Y113898D01*
X266398Y112890D01*
X266025Y112964D01*
X264952Y112751D01*
X264042Y112143D01*
X263434Y111233D01*
X263221Y110160D01*
X263434Y109087D01*
X264042Y108177D01*
X264952Y107570D01*
X265403Y107480D01*
Y106185D01*
X264927Y106090D01*
X264017Y105483D01*
X263410Y104573D01*
X263324Y104144D01*
X262882Y103323D01*
X262032Y102842D01*
X261622Y102760D01*
X260712Y102153D01*
X260104Y101243D01*
X259891Y100170D01*
X260104Y99097D01*
X260712Y98187D01*
X261622Y97580D01*
X262695Y97366D01*
X263768Y97580D01*
X264677Y98187D01*
X265285Y99097D01*
X265371Y99526D01*
X265389Y99560D01*
X266663D01*
X266677Y99536D01*
X266764Y99097D01*
X267372Y98187D01*
X268282Y97580D01*
X269355Y97366D01*
X270428Y97580D01*
X271337Y98187D01*
X271945Y99097D01*
X272159Y100170D01*
X271945Y101243D01*
X271407Y102049D01*
X271359Y102172D01*
X271243Y102291D01*
X271164Y102384D01*
X271099Y102470D01*
X271048Y102549D01*
X271009Y102621D01*
X270980Y102685D01*
X270978Y102692D01*
Y112169D01*
X270907Y112341D01*
X270631Y114436D01*
X269756Y116549D01*
X268469Y118226D01*
X268398Y118398D01*
X268237Y118465D01*
X267179Y120049D01*
X266807Y121918D01*
X266874Y122079D01*
Y162265D01*
X266851Y162319D01*
X266432Y166575D01*
X265175Y170719D01*
X263133Y174538D01*
X260421Y177843D01*
X260398Y177898D01*
X256334Y181963D01*
X256228Y182006D01*
X255678Y182723D01*
X255824Y183223D01*
X256299Y184000D01*
X257108Y184160D01*
X258017Y184768D01*
X258625Y185678D01*
X258711Y186112D01*
X259365Y187277D01*
X260438Y187490D01*
X261347Y188098D01*
X261955Y189008D01*
X262169Y190081D01*
X261955Y191154D01*
X261347Y192063D01*
X260438Y192671D01*
X259365Y192885D01*
X258292Y192671D01*
X257382Y192063D01*
X256774Y191154D01*
X256688Y190720D01*
X256411Y190225D01*
X255396Y189981D01*
X254248Y190844D01*
Y196610D01*
X254234Y196645D01*
X253788Y201171D01*
X252702Y204750D01*
X253257Y205296D01*
X253762Y205633D01*
X254700Y205446D01*
X255773Y205660D01*
X256682Y206267D01*
X257290Y207177D01*
X257504Y208250D01*
X257290Y209323D01*
X256682Y210233D01*
X255773Y210840D01*
X254700Y211054D01*
X253627Y210840D01*
X252717Y210233D01*
X252110Y209323D01*
X252048Y209016D01*
X250714Y208818D01*
X250298Y209598D01*
X249339Y210765D01*
X249303Y210925D01*
X249240Y211013D01*
X249207Y211068D01*
X249177Y211130D01*
X249150Y211200D01*
X249126Y211280D01*
X249105Y211371D01*
X249090Y211474D01*
X249079Y211589D01*
X249076Y211717D01*
X249080Y211885D01*
X249048Y211969D01*
X249054Y212000D01*
X248840Y213073D01*
X248233Y213983D01*
X247323Y214590D01*
X246250Y214804D01*
D02*
G37*
G36*
X337250Y207230D02*
X336177Y207017D01*
X335267Y206409D01*
X334660Y205499D01*
X334446Y204426D01*
X334660Y203353D01*
X335267Y202443D01*
X336177Y201836D01*
X337250Y201622D01*
X338323Y201836D01*
X339232Y202443D01*
X339840Y203353D01*
X340054Y204426D01*
X339840Y205499D01*
X339232Y206409D01*
X338323Y207017D01*
X337250Y207230D01*
D02*
G37*
G36*
X319305Y206205D02*
X318232Y205991D01*
X317322Y205383D01*
X316715Y204474D01*
X316501Y203401D01*
X315975Y202875D01*
X314902Y202661D01*
X313992Y202053D01*
X313385Y201144D01*
X313171Y200071D01*
X313385Y198998D01*
X313992Y198088D01*
X314902Y197480D01*
X315975Y197267D01*
X317048Y197480D01*
X317958Y198088D01*
X318565Y198998D01*
X318779Y200071D01*
X319305Y200597D01*
X320378Y200810D01*
X321288Y201418D01*
X321895Y202328D01*
X322109Y203401D01*
X321895Y204474D01*
X321288Y205383D01*
X320378Y205991D01*
X319305Y206205D01*
D02*
G37*
G36*
X266025Y199545D02*
X264952Y199331D01*
X264042Y198723D01*
X263434Y197814D01*
X263221Y196741D01*
X263434Y195668D01*
X264042Y194758D01*
X264952Y194150D01*
X266025Y193937D01*
X267098Y194150D01*
X268007Y194758D01*
X268615Y195668D01*
X268829Y196741D01*
X268615Y197814D01*
X268007Y198723D01*
X267098Y199331D01*
X266025Y199545D01*
D02*
G37*
G36*
X234000Y196346D02*
X232927Y196133D01*
X232017Y195525D01*
X231410Y194615D01*
X231196Y193542D01*
X231410Y192469D01*
X232017Y191560D01*
X232927Y190952D01*
X234000Y190738D01*
X235073Y190952D01*
X235983Y191560D01*
X236590Y192469D01*
X236804Y193542D01*
X236590Y194615D01*
X235983Y195525D01*
X235073Y196133D01*
X234000Y196346D01*
D02*
G37*
G36*
X292665Y206205D02*
X291592Y205991D01*
X290682Y205383D01*
X290075Y204474D01*
X289861Y203401D01*
X290075Y202328D01*
X290682Y201418D01*
X291592Y200810D01*
X292665Y200597D01*
X293191Y200071D01*
X293405Y198998D01*
X294012Y198088D01*
X294922Y197480D01*
X295338Y197397D01*
X295385Y197388D01*
Y196093D01*
X295338Y196084D01*
X294922Y196001D01*
X294012Y195393D01*
X293405Y194484D01*
X293318Y194049D01*
X292854Y193222D01*
X292026Y192757D01*
X291592Y192671D01*
X290682Y192063D01*
X290075Y191154D01*
X289982Y190690D01*
X288687D01*
X288595Y191154D01*
X287987Y192063D01*
X287078Y192671D01*
X286005Y192885D01*
X284932Y192671D01*
X284022Y192063D01*
X283414Y191154D01*
X283322Y190690D01*
X282027D01*
X281935Y191154D01*
X281327Y192063D01*
X280418Y192671D01*
X280001Y192754D01*
X279955Y192763D01*
Y194058D01*
X280001Y194067D01*
X280418Y194150D01*
X281327Y194758D01*
X281935Y195668D01*
X282149Y196741D01*
X281935Y197814D01*
X281327Y198723D01*
X280418Y199331D01*
X279345Y199545D01*
X278272Y199331D01*
X277362Y198723D01*
X276754Y197814D01*
X276541Y196741D01*
X276754Y195668D01*
X277362Y194758D01*
X278272Y194150D01*
X278688Y194067D01*
X278735Y194058D01*
Y192763D01*
X278688Y192754D01*
X278272Y192671D01*
X277362Y192063D01*
X276754Y191154D01*
X276541Y190081D01*
X276754Y189008D01*
X277362Y188098D01*
X278272Y187490D01*
X278706Y187404D01*
X279871Y186751D01*
X280084Y185678D01*
X280692Y184768D01*
X281602Y184160D01*
X282675Y183947D01*
X283748Y184160D01*
X284657Y184768D01*
X285265Y185678D01*
X285357Y186141D01*
X286652D01*
X286744Y185678D01*
X287352Y184768D01*
X288262Y184160D01*
X289335Y183947D01*
X290408Y184160D01*
X291318Y184768D01*
X291925Y185678D01*
X292139Y186751D01*
X293304Y187404D01*
X293738Y187490D01*
X294648Y188098D01*
X295255Y189008D01*
X295342Y189442D01*
X295806Y190270D01*
X296634Y190734D01*
X297068Y190820D01*
X297978Y191428D01*
X298585Y192338D01*
X298799Y193411D01*
X298585Y194484D01*
X297978Y195393D01*
X297068Y196001D01*
X296651Y196084D01*
X296605Y196093D01*
Y197388D01*
X296651Y197397D01*
X297068Y197480D01*
X297978Y198088D01*
X298585Y198998D01*
X298799Y200071D01*
X298585Y201144D01*
X297978Y202053D01*
X297068Y202661D01*
X295995Y202875D01*
X295469Y203401D01*
X295255Y204474D01*
X294648Y205383D01*
X293738Y205991D01*
X292665Y206205D01*
D02*
G37*
G36*
X427250Y194554D02*
X426177Y194340D01*
X425267Y193733D01*
X424660Y192823D01*
X424446Y191750D01*
X424660Y190677D01*
X425267Y189767D01*
X426177Y189160D01*
X427250Y188946D01*
X428323Y189160D01*
X429233Y189767D01*
X429841Y190677D01*
X430054Y191750D01*
X429841Y192823D01*
X429233Y193733D01*
X428323Y194340D01*
X427250Y194554D01*
D02*
G37*
G36*
X350351Y192945D02*
X349278Y192732D01*
X348369Y192124D01*
X347761Y191215D01*
X347547Y190142D01*
X347761Y189069D01*
X348369Y188159D01*
X349278Y187551D01*
X350351Y187338D01*
X351424Y187551D01*
X352334Y188159D01*
X352942Y189069D01*
X353155Y190142D01*
X352942Y191215D01*
X352334Y192124D01*
X351424Y192732D01*
X350351Y192945D01*
D02*
G37*
G36*
X339285Y186224D02*
X338212Y186011D01*
X337303Y185403D01*
X336695Y184494D01*
X336612Y184077D01*
X336603Y184030D01*
X335308D01*
X335298Y184077D01*
X335215Y184493D01*
X334608Y185403D01*
X333698Y186011D01*
X332625Y186224D01*
X331552Y186011D01*
X330643Y185403D01*
X330035Y184493D01*
X329821Y183421D01*
X329295Y182894D01*
X328222Y182681D01*
X327313Y182073D01*
X326705Y181163D01*
X326491Y180090D01*
X326705Y179017D01*
X327313Y178108D01*
X328222Y177500D01*
X328639Y177417D01*
X328685Y177408D01*
Y176113D01*
X328639Y176104D01*
X328222Y176021D01*
X327313Y175413D01*
X326705Y174503D01*
X326491Y173430D01*
X326705Y172357D01*
X327313Y171448D01*
X328222Y170840D01*
X329295Y170627D01*
X329948Y169462D01*
X330035Y169027D01*
X330643Y168118D01*
X331552Y167510D01*
X332625Y167297D01*
X333151Y166770D01*
X333365Y165697D01*
X333973Y164788D01*
X334882Y164180D01*
X335299Y164097D01*
X335345Y164088D01*
Y162793D01*
X335299Y162784D01*
X334882Y162701D01*
X333973Y162093D01*
X333365Y161183D01*
X333151Y160110D01*
X333365Y159037D01*
X333973Y158128D01*
X334882Y157520D01*
X335955Y157306D01*
X337028Y157520D01*
X337938Y158128D01*
X338546Y159037D01*
X338759Y160110D01*
X338546Y161183D01*
X337938Y162093D01*
X337028Y162701D01*
X336612Y162784D01*
X336565Y162793D01*
Y164088D01*
X336612Y164097D01*
X337028Y164180D01*
X337938Y164788D01*
X338546Y165697D01*
X338759Y166770D01*
X338546Y167843D01*
X337938Y168753D01*
X337028Y169361D01*
X335955Y169574D01*
X335429Y170100D01*
X335215Y171173D01*
X334608Y172083D01*
X333698Y172691D01*
X332625Y172904D01*
X331972Y174069D01*
X331885Y174503D01*
X331278Y175413D01*
X330368Y176021D01*
X329952Y176104D01*
X329905Y176113D01*
Y177408D01*
X329952Y177417D01*
X330368Y177500D01*
X331278Y178108D01*
X331885Y179017D01*
X332099Y180090D01*
X332625Y180617D01*
X333698Y180830D01*
X334608Y181438D01*
X335215Y182347D01*
X335298Y182764D01*
X335308Y182811D01*
X336603D01*
X336612Y182764D01*
X336695Y182348D01*
X337303Y181438D01*
X338212Y180830D01*
X338629Y180747D01*
X338675Y180738D01*
Y179443D01*
X338629Y179434D01*
X338212Y179351D01*
X337303Y178743D01*
X336695Y177833D01*
X336481Y176760D01*
X336695Y175687D01*
X337303Y174778D01*
X338212Y174170D01*
X339285Y173957D01*
X339811Y173430D01*
X340025Y172357D01*
X340633Y171448D01*
X341542Y170840D01*
X342615Y170627D01*
X343688Y170840D01*
X344598Y171448D01*
X345206Y172357D01*
X345419Y173430D01*
X345206Y174503D01*
X344598Y175413D01*
X343688Y176021D01*
X342615Y176234D01*
X342089Y176760D01*
X341876Y177833D01*
X341268Y178743D01*
X340358Y179351D01*
X339942Y179434D01*
X339895Y179443D01*
Y180738D01*
X339942Y180747D01*
X340358Y180830D01*
X341268Y181438D01*
X341876Y182348D01*
X342089Y183421D01*
X341876Y184494D01*
X341268Y185403D01*
X340358Y186011D01*
X339285Y186224D01*
D02*
G37*
G36*
X322635Y189555D02*
X321562Y189341D01*
X320652Y188733D01*
X320045Y187824D01*
X319831Y186751D01*
X320045Y185678D01*
X320652Y184768D01*
X321562Y184160D01*
X322635Y183947D01*
X323708Y184160D01*
X324618Y184768D01*
X325225Y185678D01*
X325439Y186751D01*
X325225Y187824D01*
X324618Y188733D01*
X323708Y189341D01*
X322635Y189555D01*
D02*
G37*
G36*
X269355D02*
X268282Y189341D01*
X267372Y188733D01*
X266764Y187824D01*
X266551Y186751D01*
X266764Y185678D01*
X267372Y184768D01*
X268282Y184160D01*
X269355Y183947D01*
X270428Y184160D01*
X271337Y184768D01*
X271945Y185678D01*
X272159Y186751D01*
X271945Y187824D01*
X271337Y188733D01*
X270428Y189341D01*
X269355Y189555D01*
D02*
G37*
G36*
X394500Y189554D02*
X393427Y189340D01*
X392517Y188733D01*
X391910Y187823D01*
X391696Y186750D01*
X391910Y185677D01*
X392059Y185454D01*
X392417Y184500D01*
X392059Y183546D01*
X391910Y183323D01*
X391696Y182250D01*
X391767Y181894D01*
X390868Y180624D01*
X383501D01*
X380227Y183898D01*
X379078Y184374D01*
X356422D01*
X355274Y183898D01*
X352102Y180727D01*
X351626Y179578D01*
Y156149D01*
X343891Y148414D01*
X331817D01*
X331811Y148416D01*
X331746Y148444D01*
X331674Y148483D01*
X331595Y148534D01*
X331509Y148599D01*
X331416Y148678D01*
X331297Y148794D01*
X331174Y148842D01*
X330368Y149381D01*
X329295Y149594D01*
X328222Y149381D01*
X327313Y148773D01*
X326705Y147863D01*
X326491Y146790D01*
X326705Y145717D01*
X327313Y144808D01*
X328222Y144200D01*
X329295Y143986D01*
X330368Y144200D01*
X331174Y144738D01*
X331297Y144787D01*
X331416Y144902D01*
X331509Y144981D01*
X331595Y145046D01*
X331674Y145097D01*
X331746Y145136D01*
X331810Y145164D01*
X331817Y145167D01*
X341813D01*
X342299Y143993D01*
X341602Y143296D01*
X341126Y142148D01*
Y139995D01*
X341602Y138847D01*
X343014Y137435D01*
X343017Y137429D01*
X343042Y137364D01*
X343066Y137286D01*
X343086Y137193D01*
X343101Y137087D01*
X343110Y136965D01*
X343113Y136799D01*
X343166Y136678D01*
X343355Y135727D01*
X343963Y134818D01*
X344872Y134210D01*
X345945Y133996D01*
X347018Y134210D01*
X347928Y134818D01*
X348536Y135727D01*
X348749Y136800D01*
X348536Y137873D01*
X347928Y138783D01*
X347018Y139391D01*
X346068Y139580D01*
X345947Y139632D01*
X345780Y139635D01*
X345659Y139645D01*
X345552Y139660D01*
X345460Y139680D01*
X345382Y139703D01*
X345316Y139728D01*
X345310Y139731D01*
X344374Y140668D01*
Y141475D01*
X356398Y153500D01*
X356874Y154648D01*
Y173652D01*
X358144Y174527D01*
X358550Y174446D01*
X359623Y174660D01*
X360533Y175268D01*
X361141Y176177D01*
X361354Y177250D01*
X361233Y177856D01*
X362015Y179126D01*
X377578D01*
X380852Y175852D01*
X382000Y175376D01*
X396328D01*
X397376Y174328D01*
Y173172D01*
X397852Y172024D01*
X402523Y167352D01*
X403672Y166876D01*
X428828D01*
X430569Y165135D01*
X430572Y165129D01*
X430597Y165063D01*
X430620Y164985D01*
X430640Y164893D01*
X430656Y164786D01*
X430665Y164665D01*
X430668Y164498D01*
X430721Y164377D01*
X430910Y163427D01*
X431517Y162517D01*
X432427Y161910D01*
X433500Y161696D01*
X434573Y161910D01*
X435483Y162517D01*
X436704Y162059D01*
X436927Y161910D01*
X438000Y161696D01*
X439073Y161910D01*
X439983Y162517D01*
X440590Y163427D01*
X440804Y164500D01*
X440590Y165573D01*
X439983Y166483D01*
X439073Y167090D01*
X438281Y167248D01*
X438110Y167330D01*
X437940Y167339D01*
X437812Y167353D01*
X437699Y167373D01*
X437600Y167397D01*
X437516Y167424D01*
X437445Y167453D01*
X437434Y167458D01*
X433244Y171648D01*
X432096Y172124D01*
X422633D01*
X421744Y173336D01*
X421988Y174137D01*
X422250Y174246D01*
X422500Y174196D01*
X423573Y174410D01*
X424483Y175017D01*
X425090Y175927D01*
X425304Y177000D01*
X425090Y178073D01*
X424483Y178983D01*
X423573Y179590D01*
X422500Y179804D01*
X421427Y179590D01*
X420517Y178983D01*
X419910Y178073D01*
X419785Y177445D01*
X419578Y176951D01*
X418500Y176504D01*
X418250Y176554D01*
X417177Y176340D01*
X416267Y175733D01*
X415660Y174823D01*
X415446Y173750D01*
X415517Y173394D01*
X414618Y172124D01*
X409682D01*
X408783Y173394D01*
X408854Y173750D01*
X408641Y174823D01*
X408033Y175733D01*
X407540Y176062D01*
X406590Y176927D01*
X406804Y178000D01*
X406590Y179073D01*
X405983Y179983D01*
X405073Y180590D01*
X404000Y180804D01*
X402927Y180590D01*
X402017Y179983D01*
X401654Y179438D01*
X400215Y179081D01*
X399148Y180148D01*
X398163Y180556D01*
X397975Y180665D01*
X397233Y181894D01*
X397304Y182250D01*
X397090Y183323D01*
X396941Y183546D01*
X396583Y184500D01*
X396941Y185454D01*
X397090Y185677D01*
X397304Y186750D01*
X397090Y187823D01*
X396483Y188733D01*
X395573Y189340D01*
X394500Y189554D01*
D02*
G37*
G36*
X231974Y173454D02*
X230901Y173240D01*
X229991Y172633D01*
X229384Y171723D01*
X229170Y170650D01*
X229384Y169577D01*
X229991Y168667D01*
X230901Y168060D01*
X231974Y167846D01*
X233047Y168060D01*
X233957Y168667D01*
X234564Y169577D01*
X234778Y170650D01*
X234564Y171723D01*
X233957Y172633D01*
X233047Y173240D01*
X231974Y173454D01*
D02*
G37*
G36*
X347250Y161804D02*
X346177Y161590D01*
X345267Y160983D01*
X344660Y160073D01*
X344446Y159000D01*
X344660Y157927D01*
X345267Y157017D01*
X346177Y156410D01*
X347250Y156196D01*
X348323Y156410D01*
X349233Y157017D01*
X349840Y157927D01*
X350054Y159000D01*
X349840Y160073D01*
X349233Y160983D01*
X348323Y161590D01*
X347250Y161804D01*
D02*
G37*
G36*
X373050Y151304D02*
X371977Y151090D01*
X371067Y150483D01*
X370460Y149573D01*
X370246Y148500D01*
X370460Y147427D01*
X371067Y146517D01*
X371977Y145910D01*
X373050Y145696D01*
X374123Y145910D01*
X375033Y146517D01*
X375640Y147427D01*
X375854Y148500D01*
X375640Y149573D01*
X375033Y150483D01*
X374123Y151090D01*
X373050Y151304D01*
D02*
G37*
G36*
X254465Y163580D02*
X250295D01*
X249319Y163385D01*
X248492Y162833D01*
X245045Y159385D01*
X244972Y159371D01*
X244062Y158763D01*
X243454Y157853D01*
X243241Y156781D01*
X243454Y155708D01*
X244062Y154798D01*
X244972Y154190D01*
X245388Y154107D01*
X245435Y154098D01*
Y152803D01*
X245388Y152794D01*
X244972Y152711D01*
X244062Y152103D01*
X243454Y151194D01*
X243241Y150120D01*
X242715Y149594D01*
X241642Y149381D01*
X240732Y148773D01*
X240124Y147864D01*
X239911Y146791D01*
X239385Y146264D01*
X238312Y146051D01*
X237402Y145443D01*
X236794Y144533D01*
X236581Y143460D01*
X236794Y142387D01*
X237402Y141478D01*
X238312Y140870D01*
X239385Y140657D01*
X240458Y140870D01*
X241367Y141478D01*
X241975Y142387D01*
X242067Y142851D01*
X243351D01*
X243368Y142822D01*
X243454Y142387D01*
X244062Y141478D01*
X244972Y140870D01*
X246045Y140657D01*
X247118Y140870D01*
X248027Y141478D01*
X248635Y142387D01*
X248848Y143460D01*
X248635Y144533D01*
X248027Y145443D01*
X247118Y146051D01*
X246654Y146143D01*
Y147438D01*
X247118Y147530D01*
X248027Y148138D01*
X248635Y149047D01*
X248718Y149464D01*
X248727Y149511D01*
X250022D01*
X250031Y149464D01*
X250114Y149047D01*
X250722Y148138D01*
X251632Y147530D01*
X252705Y147317D01*
X253778Y147530D01*
X254687Y148138D01*
X255295Y149047D01*
X255508Y150120D01*
X255295Y151193D01*
X254687Y152103D01*
X253778Y152711D01*
X253361Y152794D01*
X253314Y152803D01*
Y154098D01*
X253361Y154107D01*
X253778Y154190D01*
X254687Y154798D01*
X256095Y154999D01*
X256873Y154331D01*
Y140978D01*
X255245Y139349D01*
X253840D01*
X253778Y139391D01*
X252705Y139604D01*
X251632Y139391D01*
X250722Y138783D01*
X250114Y137873D01*
X249901Y136800D01*
X250114Y135727D01*
X250722Y134818D01*
X251632Y134210D01*
X252705Y133996D01*
X253778Y134210D01*
X253840Y134251D01*
X256300D01*
X257276Y134445D01*
X258103Y134998D01*
X261225Y138120D01*
X261777Y138947D01*
X261971Y139922D01*
Y156073D01*
X261777Y157049D01*
X261225Y157876D01*
X256268Y162833D01*
X255441Y163385D01*
X254465Y163580D01*
D02*
G37*
G36*
X431250Y149054D02*
X430177Y148840D01*
X429267Y148233D01*
X428660Y147323D01*
X428446Y146250D01*
X428660Y145177D01*
X428809Y144954D01*
X429167Y144000D01*
X428809Y143046D01*
X428660Y142823D01*
X428446Y141750D01*
X428660Y140677D01*
X429267Y139767D01*
X430177Y139160D01*
X431250Y138946D01*
X432323Y139160D01*
X433233Y139767D01*
X433840Y140677D01*
X434054Y141750D01*
X433840Y142823D01*
X433691Y143046D01*
X433333Y144000D01*
X433691Y144954D01*
X433840Y145177D01*
X434054Y146250D01*
X433840Y147323D01*
X433233Y148233D01*
X432323Y148840D01*
X431250Y149054D01*
D02*
G37*
G36*
X414750Y137054D02*
X413677Y136840D01*
X412767Y136233D01*
X412160Y135323D01*
X411946Y134250D01*
X412160Y133177D01*
X412767Y132267D01*
X413677Y131660D01*
X414750Y131446D01*
X415823Y131660D01*
X416733Y132267D01*
X417340Y133177D01*
X417554Y134250D01*
X417340Y135323D01*
X416733Y136233D01*
X415823Y136840D01*
X414750Y137054D01*
D02*
G37*
G36*
X335955Y129614D02*
X334882Y129401D01*
X333973Y128793D01*
X333365Y127883D01*
X333282Y127467D01*
X333273Y127420D01*
X331978D01*
X331968Y127467D01*
X331885Y127883D01*
X331278Y128793D01*
X330368Y129401D01*
X329295Y129614D01*
X328222Y129401D01*
X327313Y128793D01*
X326705Y127883D01*
X326491Y126810D01*
X326705Y125737D01*
X327313Y124827D01*
X328222Y124220D01*
X328639Y124137D01*
X328685Y124128D01*
Y122833D01*
X328639Y122823D01*
X328222Y122740D01*
X327313Y122133D01*
X326705Y121223D01*
X326491Y120150D01*
X326705Y119077D01*
X327313Y118167D01*
X328222Y117560D01*
X328656Y117473D01*
X329484Y117009D01*
X329948Y116181D01*
X330035Y115747D01*
X330643Y114838D01*
X331552Y114230D01*
X332625Y114016D01*
X333698Y114230D01*
X334608Y114838D01*
X335215Y115747D01*
X335429Y116820D01*
X335215Y117893D01*
X334608Y118803D01*
X333698Y119411D01*
X333264Y119497D01*
X332436Y119961D01*
X331972Y120789D01*
X331885Y121223D01*
X331278Y122133D01*
X330368Y122740D01*
X329952Y122823D01*
X329905Y122833D01*
Y124128D01*
X329952Y124137D01*
X330368Y124220D01*
X331278Y124827D01*
X331885Y125737D01*
X331968Y126154D01*
X331978Y126200D01*
X333273D01*
X333282Y126154D01*
X333365Y125737D01*
X333973Y124827D01*
X334882Y124220D01*
X335955Y124006D01*
X336481Y123480D01*
X336695Y122407D01*
X337303Y121497D01*
X338212Y120890D01*
X339285Y120676D01*
X339811Y120150D01*
X340025Y119077D01*
X340633Y118167D01*
X341542Y117560D01*
X342615Y117346D01*
X343688Y117560D01*
X344598Y118167D01*
X345206Y119077D01*
X345419Y120150D01*
X345206Y121223D01*
X344598Y122133D01*
X343688Y122740D01*
X342615Y122954D01*
X342089Y123480D01*
X341876Y124553D01*
X341268Y125463D01*
X340358Y126071D01*
X339285Y126284D01*
X338759Y126810D01*
X338546Y127883D01*
X337938Y128793D01*
X337028Y129401D01*
X335955Y129614D01*
D02*
G37*
G36*
X380000Y126054D02*
X378927Y125840D01*
X378017Y125233D01*
X377410Y124323D01*
X377196Y123250D01*
X377410Y122177D01*
X378017Y121267D01*
X378927Y120660D01*
X380000Y120446D01*
X381073Y120660D01*
X381983Y121267D01*
X382590Y122177D01*
X382804Y123250D01*
X382590Y124323D01*
X381983Y125233D01*
X381073Y125840D01*
X380000Y126054D01*
D02*
G37*
G36*
X398785Y118404D02*
X397712Y118190D01*
X396802Y117583D01*
X396195Y116673D01*
X395981Y115600D01*
X396195Y114527D01*
X396802Y113617D01*
X397712Y113010D01*
X398785Y112796D01*
X399858Y113010D01*
X400690Y113566D01*
X400833Y113610D01*
X402181Y113446D01*
X402467Y113017D01*
X403377Y112410D01*
X404450Y112196D01*
X405523Y112410D01*
X406433Y113017D01*
X407040Y113927D01*
X407254Y115000D01*
X407040Y116073D01*
X406433Y116983D01*
X405523Y117590D01*
X404450Y117804D01*
X403377Y117590D01*
X402545Y117035D01*
X402402Y116990D01*
X401054Y117154D01*
X400768Y117583D01*
X399858Y118190D01*
X398785Y118404D01*
D02*
G37*
G36*
X448500Y117454D02*
X447427Y117240D01*
X446517Y116632D01*
X445910Y115723D01*
X445696Y114650D01*
X445910Y113577D01*
X446517Y112667D01*
X447427Y112059D01*
X448500Y111846D01*
X449573Y112059D01*
X450483Y112667D01*
X451091Y113577D01*
X451304Y114650D01*
X451091Y115723D01*
X450483Y116632D01*
X449573Y117240D01*
X448500Y117454D01*
D02*
G37*
G36*
X417000Y117054D02*
X415927Y116840D01*
X415017Y116233D01*
X414410Y115323D01*
X414196Y114250D01*
X414410Y113177D01*
X415017Y112267D01*
X415927Y111660D01*
X417000Y111446D01*
X418073Y111660D01*
X418983Y112267D01*
X419590Y113177D01*
X419804Y114250D01*
X419590Y115323D01*
X418983Y116233D01*
X418073Y116840D01*
X417000Y117054D01*
D02*
G37*
G36*
X249375Y129614D02*
X248302Y129401D01*
X247392Y128793D01*
X246784Y127883D01*
X246571Y126810D01*
X245406Y126157D01*
X244972Y126071D01*
X244062Y125463D01*
X243454Y124553D01*
X243241Y123480D01*
X243454Y122407D01*
X244062Y121498D01*
X244972Y120890D01*
X245406Y120803D01*
X245435Y120787D01*
Y119513D01*
X245406Y119497D01*
X244972Y119411D01*
X244062Y118803D01*
X243454Y117893D01*
X243241Y116820D01*
X243454Y115747D01*
X244062Y114838D01*
X244972Y114230D01*
X245406Y114143D01*
X246234Y113679D01*
X246698Y112851D01*
X246784Y112417D01*
X247392Y111508D01*
X248302Y110900D01*
X249375Y110686D01*
X250448Y110900D01*
X251357Y111508D01*
X251965Y112417D01*
X252178Y113490D01*
X251965Y114563D01*
X251357Y115473D01*
X250448Y116081D01*
X250013Y116167D01*
X249984Y116183D01*
Y117457D01*
X250013Y117473D01*
X250448Y117560D01*
X251357Y118168D01*
X251965Y119077D01*
X252178Y120150D01*
X253344Y120803D01*
X253778Y120890D01*
X254687Y121498D01*
X255295Y122407D01*
X255508Y123480D01*
X255295Y124553D01*
X254687Y125463D01*
X253778Y126071D01*
X253343Y126157D01*
X252178Y126810D01*
X251965Y127883D01*
X251357Y128793D01*
X250448Y129401D01*
X249375Y129614D01*
D02*
G37*
G36*
X385750Y113054D02*
X384677Y112840D01*
X383767Y112233D01*
X383160Y111323D01*
X382946Y110250D01*
X383160Y109177D01*
X383767Y108267D01*
X384677Y107660D01*
X385750Y107446D01*
X386823Y107660D01*
X387733Y108267D01*
X388340Y109177D01*
X388554Y110250D01*
X388340Y111323D01*
X387733Y112233D01*
X386823Y112840D01*
X385750Y113054D01*
D02*
G37*
G36*
X299325Y112964D02*
X298252Y112751D01*
X297342Y112143D01*
X296735Y111233D01*
X296521Y110160D01*
X296735Y109087D01*
X297342Y108177D01*
X298252Y107570D01*
X299325Y107356D01*
X299851Y106830D01*
X300065Y105757D01*
X300672Y104847D01*
X301582Y104240D01*
X302655Y104026D01*
X303728Y104240D01*
X304638Y104847D01*
X305245Y105757D01*
X305459Y106830D01*
X305245Y107903D01*
X304638Y108813D01*
X303728Y109420D01*
X302655Y109634D01*
X302129Y110160D01*
X301915Y111233D01*
X301308Y112143D01*
X300398Y112751D01*
X299325Y112964D01*
D02*
G37*
G36*
X276015Y109634D02*
X274942Y109420D01*
X274032Y108813D01*
X273424Y107903D01*
X273211Y106830D01*
X273424Y105757D01*
X274032Y104847D01*
X274942Y104240D01*
X276015Y104026D01*
X276541Y103500D01*
X276754Y102427D01*
X277362Y101517D01*
X278272Y100910D01*
X279345Y100696D01*
X280418Y100910D01*
X281327Y101517D01*
X281935Y102427D01*
X282149Y103500D01*
X281935Y104573D01*
X281327Y105483D01*
X280418Y106090D01*
X279345Y106304D01*
X278819Y106830D01*
X278605Y107903D01*
X277997Y108813D01*
X277088Y109420D01*
X276015Y109634D01*
D02*
G37*
G36*
X442750Y113804D02*
X441677Y113590D01*
X440768Y112983D01*
X440160Y112073D01*
X439946Y111000D01*
X440160Y109927D01*
X440768Y109017D01*
X440960Y108889D01*
Y107361D01*
X440768Y107232D01*
X440160Y106323D01*
X439946Y105250D01*
X440160Y104177D01*
X440768Y103267D01*
X441677Y102659D01*
X442065Y102582D01*
X442788Y102246D01*
X442986Y101202D01*
X442946Y101000D01*
X443159Y99927D01*
X443767Y99017D01*
X444677Y98410D01*
X445750Y98196D01*
X446823Y98410D01*
X447733Y99017D01*
X448340Y99927D01*
X448554Y101000D01*
X448340Y102073D01*
X447733Y102983D01*
X446823Y103590D01*
X446436Y103667D01*
X445712Y104004D01*
X445514Y105047D01*
X445554Y105250D01*
X445340Y106323D01*
X444733Y107232D01*
X444540Y107361D01*
Y108889D01*
X444733Y109017D01*
X445341Y109927D01*
X445554Y111000D01*
X445341Y112073D01*
X444733Y112983D01*
X443823Y113590D01*
X442750Y113804D01*
D02*
G37*
G36*
X410250Y102304D02*
X409177Y102090D01*
X408267Y101483D01*
X407660Y100573D01*
X407446Y99500D01*
X407660Y98427D01*
X408267Y97517D01*
X409177Y96910D01*
X410250Y96696D01*
X411323Y96910D01*
X412233Y97517D01*
X412840Y98427D01*
X413054Y99500D01*
X412840Y100573D01*
X412233Y101483D01*
X411323Y102090D01*
X410250Y102304D01*
D02*
G37*
G36*
X335955Y102974D02*
X334882Y102760D01*
X333973Y102153D01*
X333365Y101243D01*
X333151Y100170D01*
X333365Y99097D01*
X333973Y98187D01*
X334882Y97580D01*
X335955Y97366D01*
X336481Y96840D01*
X336695Y95767D01*
X337303Y94857D01*
X338212Y94250D01*
X339285Y94036D01*
X340358Y94250D01*
X341268Y94857D01*
X341876Y95767D01*
X342089Y96840D01*
X341876Y97913D01*
X341268Y98823D01*
X340358Y99430D01*
X339285Y99644D01*
X338759Y100170D01*
X338546Y101243D01*
X337938Y102153D01*
X337028Y102760D01*
X335955Y102974D01*
D02*
G37*
G36*
X319305Y99644D02*
X318232Y99430D01*
X317322Y98823D01*
X316715Y97913D01*
X316501Y96840D01*
X315975Y96314D01*
X314902Y96100D01*
X313992Y95493D01*
X313385Y94583D01*
X313171Y93510D01*
X313385Y92437D01*
X313992Y91527D01*
X314902Y90920D01*
X315975Y90706D01*
X317048Y90920D01*
X317958Y91527D01*
X318566Y92437D01*
X318779Y93510D01*
X319305Y94036D01*
X320378Y94250D01*
X321288Y94857D01*
X321895Y95767D01*
X322109Y96840D01*
X321895Y97913D01*
X321288Y98823D01*
X320378Y99430D01*
X319305Y99644D01*
D02*
G37*
G36*
X440750Y93804D02*
X439677Y93590D01*
X438767Y92983D01*
X438159Y92073D01*
X437946Y91000D01*
X438159Y89927D01*
X438767Y89017D01*
X439677Y88410D01*
X440750Y88196D01*
X441823Y88410D01*
X442733Y89017D01*
X443340Y89927D01*
X443554Y91000D01*
X443340Y92073D01*
X442733Y92983D01*
X441823Y93590D01*
X440750Y93804D01*
D02*
G37*
G36*
X451550Y83554D02*
X450477Y83340D01*
X449567Y82733D01*
X449514Y82652D01*
X447986D01*
X447933Y82733D01*
X447023Y83340D01*
X445950Y83554D01*
X444877Y83340D01*
X443967Y82733D01*
X443360Y81823D01*
X443146Y80750D01*
X443360Y79677D01*
X443967Y78767D01*
X444877Y78160D01*
X445950Y77946D01*
X447023Y78160D01*
X447933Y78767D01*
X447986Y78848D01*
X449514D01*
X449567Y78767D01*
X450477Y78160D01*
X451550Y77946D01*
X452623Y78160D01*
X453533Y78767D01*
X454140Y79677D01*
X454354Y80750D01*
X454140Y81823D01*
X453533Y82733D01*
X452623Y83340D01*
X451550Y83554D01*
D02*
G37*
G36*
X409500Y70054D02*
X408427Y69840D01*
X407517Y69233D01*
X406909Y68323D01*
X406696Y67250D01*
X406909Y66177D01*
X407517Y65267D01*
X408427Y64660D01*
X409500Y64446D01*
X410573Y64660D01*
X411483Y65267D01*
X412090Y66177D01*
X412304Y67250D01*
X412090Y68323D01*
X411483Y69233D01*
X410573Y69840D01*
X409500Y70054D01*
D02*
G37*
G36*
X329750Y53554D02*
X328677Y53341D01*
X327767Y52733D01*
X327160Y51823D01*
X326946Y50750D01*
X327160Y49677D01*
X327767Y48767D01*
X328677Y48160D01*
X329750Y47946D01*
X330823Y48160D01*
X331733Y48767D01*
X332340Y49677D01*
X332554Y50750D01*
X332340Y51823D01*
X331733Y52733D01*
X330823Y53341D01*
X329750Y53554D01*
D02*
G37*
G36*
X352250Y50054D02*
X351177Y49840D01*
X350267Y49233D01*
X349660Y48323D01*
X349446Y47250D01*
X349660Y46177D01*
X350267Y45267D01*
X351177Y44660D01*
X352250Y44446D01*
X353323Y44660D01*
X354233Y45267D01*
X354767D01*
X355677Y44660D01*
X356750Y44446D01*
X357823Y44660D01*
X358733Y45267D01*
X359340Y46177D01*
X359554Y47250D01*
X359340Y48323D01*
X358733Y49233D01*
X357823Y49840D01*
X356750Y50054D01*
X355677Y49840D01*
X354767Y49233D01*
X354233D01*
X353323Y49840D01*
X352250Y50054D01*
D02*
G37*
G36*
X299000Y45304D02*
X297927Y45090D01*
X297017Y44483D01*
X296409Y43573D01*
X296196Y42500D01*
X296409Y41427D01*
X297017Y40517D01*
X297927Y39910D01*
X299000Y39696D01*
X300073Y39910D01*
X300983Y40517D01*
X301590Y41427D01*
X301804Y42500D01*
X301590Y43573D01*
X300983Y44483D01*
X300073Y45090D01*
X299000Y45304D01*
D02*
G37*
G36*
X360000Y36382D02*
X358927Y36169D01*
X358667Y35995D01*
X357814Y35626D01*
X356760Y35965D01*
X356573Y36090D01*
X355500Y36304D01*
X354427Y36090D01*
X353517Y35483D01*
X352910Y34573D01*
X352696Y33500D01*
X352910Y32427D01*
X353517Y31517D01*
X354427Y30910D01*
X355500Y30696D01*
X356573Y30910D01*
X356833Y31083D01*
X358017Y31596D01*
X358927Y30988D01*
X360000Y30775D01*
X361073Y30988D01*
X361983Y31596D01*
X362590Y32505D01*
X362804Y33578D01*
X362590Y34651D01*
X361983Y35561D01*
X361073Y36169D01*
X360000Y36382D01*
D02*
G37*
G36*
X404750Y39804D02*
X403677Y39590D01*
X402767Y38983D01*
X402160Y38073D01*
X401946Y37000D01*
X402160Y35927D01*
X402767Y35017D01*
X403677Y34410D01*
X404750Y34196D01*
X405823Y34410D01*
X406733Y35017D01*
X407340Y35927D01*
X407554Y37000D01*
X407340Y38073D01*
X406733Y38983D01*
X405823Y39590D01*
X404750Y39804D01*
D02*
G37*
G36*
X342250Y30554D02*
X341177Y30340D01*
X340267Y29733D01*
X339660Y28823D01*
X339446Y27750D01*
X339660Y26677D01*
X340267Y25767D01*
X341177Y25160D01*
X342250Y24946D01*
X343323Y25160D01*
X344233Y25767D01*
X344840Y26677D01*
X345054Y27750D01*
X344840Y28823D01*
X344233Y29733D01*
X343323Y30340D01*
X342250Y30554D01*
D02*
G37*
%LPD*%
G36*
X359253Y282034D02*
X359268Y281845D01*
X359294Y281666D01*
X359330Y281496D01*
X359378Y281336D01*
X359436Y281185D01*
X359506Y281043D01*
X359587Y280911D01*
X359679Y280788D01*
X359782Y280675D01*
X359075Y279968D01*
X358962Y280071D01*
X358839Y280163D01*
X358707Y280244D01*
X358565Y280313D01*
X358414Y280372D01*
X358254Y280420D01*
X358084Y280457D01*
X357905Y280482D01*
X357716Y280497D01*
X357517Y280500D01*
X359250Y282232D01*
X359253Y282034D01*
D02*
G37*
G36*
X438301Y73001D02*
X438100Y72990D01*
X437910Y72969D01*
X437729Y72937D01*
X437558Y72896D01*
X437397Y72845D01*
X437246Y72783D01*
X437104Y72711D01*
X436973Y72629D01*
X436851Y72537D01*
X436739Y72435D01*
X436003Y73114D01*
X436107Y73228D01*
X436198Y73351D01*
X436278Y73484D01*
X436346Y73625D01*
X436402Y73776D01*
X436446Y73935D01*
X436478Y74104D01*
X436498Y74282D01*
X436506Y74468D01*
X436502Y74665D01*
X438301Y73001D01*
D02*
G37*
G36*
X350583Y70722D02*
X350481Y70611D01*
X350390Y70490D01*
X350307Y70358D01*
X350234Y70217D01*
X350171Y70065D01*
X350117Y69904D01*
X350073Y69733D01*
X350038Y69552D01*
X350013Y69360D01*
X349998Y69159D01*
X348376Y70995D01*
X348571Y70987D01*
X348756Y70992D01*
X348933Y71008D01*
X349101Y71038D01*
X349260Y71080D01*
X349410Y71134D01*
X349551Y71200D01*
X349684Y71280D01*
X349807Y71371D01*
X349922Y71475D01*
X350583Y70722D01*
D02*
G37*
G36*
X354753Y69034D02*
X354768Y68845D01*
X354794Y68666D01*
X354830Y68496D01*
X354878Y68336D01*
X354936Y68185D01*
X355006Y68043D01*
X355087Y67911D01*
X355179Y67788D01*
X355282Y67675D01*
X354575Y66968D01*
X354462Y67071D01*
X354339Y67163D01*
X354207Y67244D01*
X354065Y67313D01*
X353914Y67372D01*
X353754Y67420D01*
X353584Y67456D01*
X353405Y67482D01*
X353216Y67497D01*
X353018Y67500D01*
X354750Y69233D01*
X354753Y69034D01*
D02*
G37*
G36*
X367507Y40074D02*
X367529Y39923D01*
X367565Y39772D01*
X367616Y39623D01*
X367681Y39474D01*
X367761Y39327D01*
X367855Y39181D01*
X367964Y39036D01*
X368087Y38892D01*
X368225Y38750D01*
X365775D01*
X365913Y38892D01*
X366036Y39036D01*
X366145Y39181D01*
X366239Y39327D01*
X366319Y39474D01*
X366384Y39623D01*
X366435Y39772D01*
X366471Y39923D01*
X366493Y40074D01*
X366500Y40227D01*
X367500D01*
X367507Y40074D01*
D02*
G37*
G36*
X247993Y211715D02*
X247999Y211525D01*
X248015Y211344D01*
X248041Y211170D01*
X248078Y211005D01*
X248126Y210847D01*
X248184Y210697D01*
X248253Y210556D01*
X248332Y210422D01*
X248421Y210297D01*
X247684Y209615D01*
X247585Y209730D01*
X247475Y209834D01*
X247354Y209926D01*
X247222Y210007D01*
X247079Y210076D01*
X246924Y210134D01*
X246759Y210181D01*
X246583Y210215D01*
X246395Y210239D01*
X246197Y210251D01*
X247998Y211912D01*
X247993Y211715D01*
D02*
G37*
G36*
X269862Y102744D02*
X269884Y102593D01*
X269920Y102442D01*
X269971Y102293D01*
X270036Y102144D01*
X270116Y101997D01*
X270210Y101851D01*
X270319Y101706D01*
X270442Y101562D01*
X270580Y101420D01*
X268130D01*
X268268Y101562D01*
X268391Y101706D01*
X268500Y101851D01*
X268594Y101997D01*
X268674Y102144D01*
X268739Y102293D01*
X268790Y102442D01*
X268826Y102593D01*
X268848Y102744D01*
X268855Y102897D01*
X269855D01*
X269862Y102744D01*
D02*
G37*
G36*
X436601Y166712D02*
X436723Y166621D01*
X436854Y166539D01*
X436996Y166467D01*
X437147Y166405D01*
X437308Y166354D01*
X437479Y166313D01*
X437660Y166281D01*
X437850Y166260D01*
X438050Y166249D01*
X436252Y164585D01*
X436256Y164781D01*
X436248Y164968D01*
X436228Y165146D01*
X436196Y165315D01*
X436152Y165474D01*
X436096Y165625D01*
X436028Y165766D01*
X435948Y165899D01*
X435857Y166022D01*
X435753Y166136D01*
X436489Y166815D01*
X436601Y166712D01*
D02*
G37*
G36*
X432038Y166679D02*
X432161Y166587D01*
X432293Y166506D01*
X432435Y166437D01*
X432586Y166378D01*
X432746Y166330D01*
X432916Y166294D01*
X433095Y166268D01*
X433284Y166253D01*
X433483Y166250D01*
X431750Y164517D01*
X431747Y164716D01*
X431732Y164905D01*
X431707Y165084D01*
X431670Y165254D01*
X431622Y165414D01*
X431563Y165565D01*
X431494Y165707D01*
X431413Y165839D01*
X431321Y165962D01*
X431218Y166075D01*
X431925Y166782D01*
X432038Y166679D01*
D02*
G37*
G36*
X330687Y147878D02*
X330831Y147754D01*
X330976Y147646D01*
X331122Y147551D01*
X331269Y147472D01*
X331418Y147406D01*
X331567Y147355D01*
X331718Y147319D01*
X331869Y147297D01*
X332022Y147290D01*
Y146290D01*
X331869Y146283D01*
X331718Y146261D01*
X331567Y146225D01*
X331418Y146174D01*
X331269Y146109D01*
X331122Y146029D01*
X330976Y145935D01*
X330831Y145826D01*
X330687Y145703D01*
X330545Y145565D01*
Y148015D01*
X330687Y147878D01*
D02*
G37*
G36*
X344484Y138979D02*
X344606Y138887D01*
X344738Y138806D01*
X344880Y138737D01*
X345031Y138678D01*
X345191Y138630D01*
X345361Y138594D01*
X345541Y138568D01*
X345729Y138554D01*
X345928Y138550D01*
X344195Y136818D01*
X344192Y137016D01*
X344177Y137205D01*
X344152Y137384D01*
X344115Y137554D01*
X344067Y137715D01*
X344009Y137866D01*
X343939Y138007D01*
X343858Y138139D01*
X343766Y138262D01*
X343663Y138375D01*
X344370Y139082D01*
X344484Y138979D01*
D02*
G37*
%LPC*%
G36*
X155500Y218804D02*
X154427Y218590D01*
X153517Y217983D01*
X152910Y217073D01*
X152696Y216000D01*
X152910Y214927D01*
X153517Y214017D01*
Y213483D01*
X153057Y212793D01*
X151823Y212090D01*
X150750Y212304D01*
X149677Y212090D01*
X148767Y211483D01*
X148160Y210573D01*
X147946Y209500D01*
X148160Y208427D01*
X148767Y207517D01*
X149677Y206910D01*
X150750Y206696D01*
X151823Y206910D01*
X152733Y207517D01*
X153193Y208207D01*
X154427Y208910D01*
X155500Y208696D01*
X156280Y208851D01*
X157660Y208427D01*
X158267Y207517D01*
X159177Y206910D01*
X160250Y206696D01*
X161323Y206910D01*
X162233Y207517D01*
X162840Y208427D01*
X163054Y209500D01*
X162840Y210573D01*
X162233Y211483D01*
X161323Y212090D01*
X160250Y212304D01*
X159470Y212149D01*
X158090Y212573D01*
X157483Y213483D01*
Y214017D01*
X158090Y214927D01*
X158304Y216000D01*
X158090Y217073D01*
X157483Y217983D01*
X156573Y218590D01*
X155500Y218804D01*
D02*
G37*
G36*
X150500Y189554D02*
X149427Y189340D01*
X148517Y188733D01*
X147910Y187823D01*
X147696Y186750D01*
X147910Y185677D01*
X148517Y184767D01*
X149427Y184160D01*
X150500Y183946D01*
X151573Y184160D01*
X152483Y184767D01*
X153090Y185677D01*
X153304Y186750D01*
X153090Y187823D01*
X152483Y188733D01*
X151573Y189340D01*
X150500Y189554D01*
D02*
G37*
G36*
X114667Y165446D02*
X113594Y165233D01*
X112685Y164625D01*
X112077Y163715D01*
X111863Y162642D01*
X112077Y161569D01*
X112685Y160660D01*
X113594Y160052D01*
X114667Y159838D01*
X115740Y160052D01*
X116650Y160660D01*
X117258Y161569D01*
X117471Y162642D01*
X117258Y163715D01*
X116650Y164625D01*
X115740Y165233D01*
X114667Y165446D01*
D02*
G37*
G36*
X107596D02*
X106523Y165233D01*
X105614Y164625D01*
X105006Y163715D01*
X104792Y162642D01*
X105006Y161569D01*
X105614Y160660D01*
X106523Y160052D01*
X107596Y159838D01*
X108669Y160052D01*
X109579Y160660D01*
X110187Y161569D01*
X110400Y162642D01*
X110187Y163715D01*
X109579Y164625D01*
X108669Y165233D01*
X107596Y165446D01*
D02*
G37*
G36*
X100525Y158375D02*
X99452Y158161D01*
X98543Y157554D01*
X97935Y156644D01*
X97721Y155571D01*
X97935Y154498D01*
X98543Y153588D01*
X99452Y152981D01*
X100525Y152767D01*
X101598Y152981D01*
X102508Y153588D01*
X103116Y154498D01*
X103329Y155571D01*
X103116Y156644D01*
X102508Y157554D01*
X101598Y158161D01*
X100525Y158375D01*
D02*
G37*
G36*
X79000Y203554D02*
X77927Y203340D01*
X77017Y202733D01*
X76410Y201823D01*
X76196Y200750D01*
X76410Y199677D01*
X77017Y198767D01*
X77927Y198160D01*
X79000Y197946D01*
X80073Y198160D01*
X80983Y198767D01*
X81590Y199677D01*
X81804Y200750D01*
X81590Y201823D01*
X80983Y202733D01*
X80073Y203340D01*
X79000Y203554D01*
D02*
G37*
G36*
X89562Y197622D02*
X88489Y197409D01*
X87579Y196801D01*
X86972Y195891D01*
X86965Y195857D01*
X85750Y194804D01*
X84677Y194590D01*
X83767Y193983D01*
X83160Y193073D01*
X82946Y192000D01*
X83160Y190927D01*
X83767Y190017D01*
X84677Y189410D01*
X85750Y189196D01*
X86373Y189320D01*
X86869Y188875D01*
X87286Y188333D01*
X87297Y188307D01*
X87115Y187391D01*
X87328Y186318D01*
X87936Y185408D01*
X88846Y184800D01*
X89918Y184587D01*
X90991Y184800D01*
X91901Y185408D01*
X92509Y186318D01*
X92722Y187391D01*
X92509Y188464D01*
X91901Y189373D01*
X90991Y189981D01*
X89919Y190195D01*
X89161Y191339D01*
X89133Y191642D01*
X89562Y192015D01*
X90635Y192228D01*
X91545Y192836D01*
X92152Y193745D01*
X92366Y194818D01*
X92152Y195891D01*
X91545Y196801D01*
X90635Y197409D01*
X89562Y197622D01*
D02*
G37*
G36*
X82847Y183124D02*
X81775Y182910D01*
X80865Y182302D01*
X80257Y181393D01*
X80044Y180320D01*
X80257Y179247D01*
X80865Y178337D01*
X81775Y177729D01*
X82847Y177516D01*
X83920Y177729D01*
X84830Y178337D01*
X85438Y179247D01*
X85651Y180320D01*
X85438Y181393D01*
X84830Y182302D01*
X83920Y182910D01*
X82847Y183124D01*
D02*
G37*
G36*
X57951Y172665D02*
X56878Y172451D01*
X55968Y171843D01*
X55361Y170934D01*
X55147Y169861D01*
X55361Y168788D01*
X55968Y167878D01*
X56878Y167271D01*
X57951Y167057D01*
X59024Y167271D01*
X59934Y167878D01*
X60542Y168788D01*
X60755Y169861D01*
X60542Y170934D01*
X59934Y171843D01*
X59024Y172451D01*
X57951Y172665D01*
D02*
G37*
G36*
X58099Y151304D02*
X57026Y151090D01*
X56116Y150483D01*
X55508Y149573D01*
X55375Y148902D01*
X54563Y147768D01*
X53490Y147555D01*
X52581Y146947D01*
X51973Y146038D01*
X51759Y144965D01*
X51973Y143891D01*
X52581Y142982D01*
X53490Y142374D01*
X54563Y142161D01*
X55636Y142374D01*
X56546Y142982D01*
X57154Y143891D01*
X57287Y144563D01*
X58099Y145696D01*
X59172Y145910D01*
X60081Y146517D01*
X60689Y147427D01*
X60903Y148500D01*
X60689Y149573D01*
X60081Y150483D01*
X59172Y151090D01*
X58099Y151304D01*
D02*
G37*
G36*
X72241Y137162D02*
X71168Y136948D01*
X70258Y136341D01*
X69650Y135431D01*
X69517Y134760D01*
X68705Y133626D01*
X67632Y133413D01*
X66723Y132805D01*
X66115Y131895D01*
X65901Y130822D01*
X66115Y129749D01*
X66723Y128840D01*
X67632Y128232D01*
X68705Y128019D01*
X69778Y128232D01*
X70688Y128840D01*
X71296Y129749D01*
X71429Y130421D01*
X72241Y131554D01*
X73314Y131767D01*
X74223Y132375D01*
X74831Y133285D01*
X75045Y134358D01*
X74831Y135431D01*
X74223Y136341D01*
X73314Y136948D01*
X72241Y137162D01*
D02*
G37*
G36*
X3500Y160804D02*
X2427Y160590D01*
X1517Y159983D01*
X910Y159073D01*
X696Y158000D01*
X910Y156927D01*
X1517Y156018D01*
X2427Y155410D01*
X3500Y155196D01*
X4573Y155410D01*
X5483Y156018D01*
X6090Y156927D01*
X6304Y158000D01*
X6090Y159073D01*
X5483Y159983D01*
X4573Y160590D01*
X3500Y160804D01*
D02*
G37*
G36*
X-2750Y135054D02*
X-3823Y134840D01*
X-4733Y134233D01*
X-5340Y133323D01*
X-5554Y132250D01*
X-5340Y131177D01*
X-4733Y130267D01*
X-3823Y129660D01*
X-2750Y129446D01*
X-1677Y129660D01*
X-767Y130267D01*
X-160Y131177D01*
X54Y132250D01*
X-160Y133323D01*
X-767Y134233D01*
X-1677Y134840D01*
X-2750Y135054D01*
D02*
G37*
G36*
X-3000Y106304D02*
X-4073Y106090D01*
X-4983Y105483D01*
X-5590Y104573D01*
X-5804Y103500D01*
X-5590Y102427D01*
X-5557Y102376D01*
X-5054Y101375D01*
X-5557Y100373D01*
X-5590Y100323D01*
X-5804Y99250D01*
X-5590Y98177D01*
X-6667Y97577D01*
X-6767Y97727D01*
X-7677Y98335D01*
X-8750Y98548D01*
X-9823Y98335D01*
X-10733Y97727D01*
X-11340Y96817D01*
X-11554Y95744D01*
X-11340Y94671D01*
X-10733Y93762D01*
X-9823Y93154D01*
X-8750Y92940D01*
X-7677Y93154D01*
X-6767Y93762D01*
X-6707Y93770D01*
X-5360Y93582D01*
X-4983Y93017D01*
X-4073Y92410D01*
X-3000Y92196D01*
X-1927Y92410D01*
X-1017Y93017D01*
X-410Y93927D01*
X-196Y95000D01*
X-410Y96073D01*
X-443Y96124D01*
X-946Y97125D01*
X-443Y98126D01*
X-410Y98177D01*
X-196Y99250D01*
X-410Y100323D01*
X-443Y100373D01*
X-946Y101375D01*
X-443Y102376D01*
X-410Y102427D01*
X-196Y103500D01*
X-410Y104573D01*
X-1017Y105483D01*
X-1927Y106090D01*
X-3000Y106304D01*
D02*
G37*
G36*
X-8750Y88054D02*
X-9823Y87840D01*
X-10733Y87233D01*
X-11340Y86323D01*
X-11554Y85250D01*
X-11340Y84177D01*
X-10733Y83267D01*
X-9823Y82660D01*
X-8750Y82446D01*
X-7677Y82660D01*
X-6767Y83267D01*
X-6160Y84177D01*
X-5946Y85250D01*
X-6160Y86323D01*
X-6767Y87233D01*
X-7677Y87840D01*
X-8750Y88054D01*
D02*
G37*
G36*
X-9247Y71801D02*
X-10320Y71588D01*
X-11230Y70980D01*
X-11838Y70070D01*
X-12051Y68997D01*
X-11838Y67924D01*
X-11230Y67014D01*
X-10320Y66407D01*
X-9247Y66193D01*
X-8174Y66407D01*
X-7265Y67014D01*
X-6657Y67924D01*
X-6443Y68997D01*
X-6657Y70070D01*
X-7265Y70980D01*
X-8174Y71588D01*
X-9247Y71801D01*
D02*
G37*
G36*
X24000Y57804D02*
X22927Y57590D01*
X22017Y56983D01*
X21333D01*
X20423Y57590D01*
X19350Y57804D01*
X18277Y57590D01*
X17367Y56983D01*
X16760Y56073D01*
X16546Y55000D01*
X16760Y53927D01*
X17367Y53017D01*
X18277Y52410D01*
X19350Y52196D01*
X20423Y52410D01*
X21333Y53017D01*
X22017D01*
X22927Y52410D01*
X24000Y52196D01*
X25073Y52410D01*
X25983Y53017D01*
X26590Y53927D01*
X26804Y55000D01*
X26590Y56073D01*
X25983Y56983D01*
X25073Y57590D01*
X24000Y57804D01*
D02*
G37*
G36*
X-4607Y59054D02*
X-5680Y58840D01*
X-6590Y58232D01*
X-7198Y57323D01*
X-7411Y56250D01*
X-7198Y55177D01*
X-7139Y55089D01*
X-8055Y54174D01*
X-8674Y54587D01*
X-9747Y54801D01*
X-10820Y54587D01*
X-11730Y53980D01*
X-12338Y53070D01*
X-12551Y51997D01*
X-12338Y50924D01*
X-11730Y50015D01*
X-10820Y49407D01*
X-9747Y49193D01*
X-8674Y49407D01*
X-7765Y50015D01*
X-7157Y50924D01*
X-6943Y51997D01*
X-7157Y53070D01*
X-7215Y53158D01*
X-6300Y54073D01*
X-5680Y53660D01*
X-4607Y53446D01*
X-3534Y53660D01*
X-2625Y54267D01*
X-2017Y55177D01*
X-1804Y56250D01*
X-2017Y57323D01*
X-2625Y58232D01*
X-3534Y58840D01*
X-4607Y59054D01*
D02*
G37*
G36*
X46250Y55804D02*
X45177Y55591D01*
X44268Y54983D01*
X43660Y54073D01*
X43446Y53000D01*
X43660Y51927D01*
X44268Y51017D01*
X45177Y50410D01*
X46250Y50196D01*
X47323Y50410D01*
X47892Y50790D01*
X49267Y51017D01*
X50177Y50410D01*
X51250Y50196D01*
X52323Y50410D01*
X53233Y51017D01*
X53840Y51927D01*
X54054Y53000D01*
X53840Y54073D01*
X53233Y54983D01*
X52323Y55590D01*
X51250Y55804D01*
X50177Y55590D01*
X49608Y55210D01*
X48233Y54983D01*
X47323Y55591D01*
X46250Y55804D01*
D02*
G37*
G36*
X16000Y36304D02*
X14927Y36090D01*
X14017Y35483D01*
X13410Y34573D01*
X13196Y33500D01*
X13410Y32427D01*
X14017Y31517D01*
X14927Y30910D01*
X16000Y30696D01*
X16207Y30737D01*
X17290Y30687D01*
X17976Y29985D01*
X18122Y29767D01*
X19031Y29160D01*
X20104Y28946D01*
X21177Y29160D01*
X21205Y29178D01*
X22641Y29053D01*
X23011Y28241D01*
X22952Y28136D01*
X22910Y28073D01*
X22696Y27000D01*
X22910Y25927D01*
X23517Y25017D01*
X24427Y24410D01*
X25500Y24196D01*
X26573Y24410D01*
X27483Y25017D01*
X28090Y25927D01*
X28304Y27000D01*
X28090Y28073D01*
X27483Y28983D01*
X27476Y28987D01*
X26644Y29717D01*
X27153Y30614D01*
X27195Y30677D01*
X27408Y31750D01*
X27195Y32823D01*
X26587Y33733D01*
X25677Y34341D01*
X24604Y34554D01*
X23531Y34341D01*
X22622Y33733D01*
X22087D01*
X21177Y34341D01*
X20104Y34554D01*
X19897Y34513D01*
X18814Y34563D01*
X18128Y35265D01*
X17983Y35483D01*
X17073Y36090D01*
X16000Y36304D01*
D02*
G37*
G36*
X33370Y139049D02*
X32297Y138835D01*
X31387Y138227D01*
X30780Y137318D01*
X30566Y136245D01*
X30780Y135172D01*
X31387Y134262D01*
X32297Y133654D01*
X33370Y133441D01*
X34443Y133654D01*
X35353Y134262D01*
X35960Y135172D01*
X36174Y136245D01*
X35960Y137318D01*
X35353Y138227D01*
X34443Y138835D01*
X33370Y139049D01*
D02*
G37*
G36*
X121738Y151304D02*
X120665Y151090D01*
X119756Y150483D01*
X119148Y149573D01*
X118934Y148500D01*
X119148Y147427D01*
X119756Y146517D01*
X120665Y145910D01*
X121738Y145696D01*
X122811Y145910D01*
X123721Y146517D01*
X124329Y147427D01*
X124542Y148500D01*
X124329Y149573D01*
X123721Y150483D01*
X122811Y151090D01*
X121738Y151304D01*
D02*
G37*
G36*
X135880D02*
X134808Y151090D01*
X133898Y150483D01*
X133290Y149573D01*
X133104Y148637D01*
X132906Y148293D01*
X132552Y147939D01*
X132208Y147741D01*
X131272Y147555D01*
X130362Y146947D01*
X129754Y146038D01*
X129568Y145101D01*
X129370Y144757D01*
X129017Y144403D01*
X128672Y144206D01*
X127736Y144019D01*
X126827Y143412D01*
X126219Y142502D01*
X126006Y141429D01*
X126219Y140356D01*
X126827Y139446D01*
X127736Y138839D01*
X128809Y138625D01*
X129882Y138839D01*
X130792Y139446D01*
X131400Y140356D01*
X131586Y141292D01*
X131784Y141636D01*
X132138Y141990D01*
X132482Y142188D01*
X133418Y142374D01*
X134328Y142982D01*
X134935Y143891D01*
X135122Y144827D01*
X135319Y145172D01*
X135673Y145526D01*
X136017Y145723D01*
X136953Y145910D01*
X137863Y146517D01*
X138471Y147427D01*
X138684Y148500D01*
X138471Y149573D01*
X137863Y150483D01*
X136953Y151090D01*
X135880Y151304D01*
D02*
G37*
G36*
X121738Y144233D02*
X120665Y144019D01*
X119756Y143412D01*
X119148Y142502D01*
X118934Y141429D01*
X119148Y140356D01*
X119756Y139446D01*
X120665Y138839D01*
X121738Y138625D01*
X122811Y138839D01*
X123721Y139446D01*
X124329Y140356D01*
X124542Y141429D01*
X124329Y142502D01*
X123721Y143412D01*
X122811Y144019D01*
X121738Y144233D01*
D02*
G37*
G36*
X114667D02*
X113594Y144019D01*
X112685Y143412D01*
X112077Y142502D01*
X111863Y141429D01*
X112077Y140356D01*
X112685Y139446D01*
X113594Y138839D01*
X114667Y138625D01*
X115740Y138839D01*
X116650Y139446D01*
X117258Y140356D01*
X117471Y141429D01*
X117258Y142502D01*
X116650Y143412D01*
X115740Y144019D01*
X114667Y144233D01*
D02*
G37*
G36*
Y137162D02*
X113594Y136948D01*
X112685Y136341D01*
X112077Y135431D01*
X111891Y134495D01*
X111693Y134150D01*
X111162Y133620D01*
X111132Y133626D01*
X110059Y133413D01*
X109149Y132805D01*
X108541Y131895D01*
X108328Y130822D01*
X108541Y129749D01*
X109149Y128840D01*
X110059Y128232D01*
X111132Y128019D01*
X111162Y128025D01*
X111693Y127494D01*
X111891Y127150D01*
X112077Y126214D01*
X112685Y125304D01*
X113594Y124696D01*
X114667Y124483D01*
X115740Y124696D01*
X116650Y125304D01*
X117258Y126214D01*
X117471Y127287D01*
X117258Y128360D01*
X116650Y129269D01*
X115740Y129877D01*
X114667Y130091D01*
X114556Y130822D01*
X114667Y131554D01*
X115740Y131768D01*
X116650Y132375D01*
X117258Y133285D01*
X117471Y134358D01*
X117258Y135431D01*
X116650Y136341D01*
X115740Y136948D01*
X114667Y137162D01*
D02*
G37*
G36*
X142266Y137847D02*
X141193Y137634D01*
X140283Y137026D01*
X139676Y136116D01*
X139462Y135043D01*
X139676Y133970D01*
X140283Y133061D01*
X141193Y132453D01*
X142266Y132240D01*
X143339Y132453D01*
X144249Y133061D01*
X144856Y133970D01*
X145070Y135043D01*
X144856Y136116D01*
X144249Y137026D01*
X143339Y137634D01*
X142266Y137847D01*
D02*
G37*
G36*
X139416Y126555D02*
X138343Y126342D01*
X137433Y125734D01*
X136826Y124824D01*
X136612Y123751D01*
X136826Y122678D01*
X137433Y121769D01*
X138343Y121161D01*
X139416Y120947D01*
X140489Y121161D01*
X141399Y121769D01*
X142006Y122678D01*
X142220Y123751D01*
X142006Y124824D01*
X141399Y125734D01*
X140489Y126342D01*
X139416Y126555D01*
D02*
G37*
G36*
X131659Y127241D02*
X130587Y127027D01*
X129677Y126419D01*
X129069Y125510D01*
X128856Y124437D01*
X128040Y123413D01*
X127677Y123340D01*
X126767Y122733D01*
X126160Y121823D01*
X125964Y120838D01*
X125929Y120737D01*
X125061Y120076D01*
X124588Y120170D01*
X123515Y119956D01*
X122606Y119348D01*
X121998Y118439D01*
X121784Y117366D01*
X121998Y116293D01*
X122606Y115383D01*
X123515Y114775D01*
X124588Y114562D01*
X125661Y114775D01*
X126571Y115383D01*
X127179Y116293D01*
X127375Y117278D01*
X127409Y117379D01*
X128278Y118040D01*
X128750Y117946D01*
X128776Y117951D01*
X129625Y117100D01*
X129541Y116680D01*
X129755Y115607D01*
X130362Y114698D01*
X131272Y114090D01*
X132345Y113876D01*
X132376Y113883D01*
X132906Y113352D01*
X133104Y113008D01*
X133290Y112072D01*
X133898Y111162D01*
X134808Y110554D01*
X135880Y110341D01*
X136953Y110554D01*
X137863Y111162D01*
X138471Y112072D01*
X138684Y113145D01*
X138471Y114218D01*
X137863Y115127D01*
X136953Y115735D01*
X135880Y115948D01*
X135850Y115942D01*
X135319Y116473D01*
X135122Y116817D01*
X134935Y117753D01*
X134328Y118663D01*
X133418Y119271D01*
X132345Y119484D01*
X132319Y119479D01*
X131470Y120330D01*
X131554Y120750D01*
X132370Y121774D01*
X132732Y121846D01*
X133642Y122454D01*
X134250Y123364D01*
X134463Y124437D01*
X134250Y125510D01*
X133642Y126419D01*
X132732Y127027D01*
X131659Y127241D01*
D02*
G37*
G36*
X173200Y115804D02*
X172127Y115590D01*
X171217Y114983D01*
X170610Y114073D01*
X170396Y113000D01*
X170610Y111927D01*
X171217Y111017D01*
X172127Y110410D01*
X173200Y110196D01*
X174273Y110410D01*
X175183Y111017D01*
X175790Y111927D01*
X176004Y113000D01*
X175790Y114073D01*
X175183Y114983D01*
X174273Y115590D01*
X173200Y115804D01*
D02*
G37*
G36*
X165250Y103554D02*
X164177Y103340D01*
X163267Y102733D01*
X162660Y101823D01*
X162446Y100750D01*
X162660Y99677D01*
X163267Y98767D01*
X164177Y98160D01*
X165250Y97946D01*
X166323Y98160D01*
X167233Y98767D01*
X167840Y99677D01*
X168054Y100750D01*
X167840Y101823D01*
X167233Y102733D01*
X166323Y103340D01*
X165250Y103554D01*
D02*
G37*
G36*
X181750Y101804D02*
X180677Y101590D01*
X179767Y100983D01*
X179160Y100073D01*
X178946Y99000D01*
X179160Y97927D01*
X179767Y97017D01*
X180677Y96410D01*
X181750Y96196D01*
X182823Y96410D01*
X183733Y97017D01*
X184340Y97927D01*
X184554Y99000D01*
X184340Y100073D01*
X183733Y100983D01*
X182823Y101590D01*
X181750Y101804D01*
D02*
G37*
G36*
X197750Y94804D02*
X196677Y94590D01*
X196056Y94176D01*
X195375Y94053D01*
X194694Y94176D01*
X194073Y94590D01*
X193000Y94804D01*
X191927Y94590D01*
X191017Y93983D01*
X190410Y93073D01*
X190196Y92000D01*
X190410Y90927D01*
X191017Y90017D01*
X191927Y89410D01*
X192012Y89393D01*
X192742Y88228D01*
X192696Y88000D01*
X192910Y86927D01*
X193517Y86017D01*
X194427Y85410D01*
X195500Y85196D01*
X196573Y85410D01*
X197483Y86017D01*
X198090Y86927D01*
X198304Y88000D01*
X198090Y89073D01*
X198746Y89394D01*
X198823Y89410D01*
X199733Y90017D01*
X200340Y90927D01*
X200554Y92000D01*
X200340Y93073D01*
X199733Y93983D01*
X198823Y94590D01*
X197750Y94804D01*
D02*
G37*
G36*
X209750Y86554D02*
X208677Y86340D01*
X207767Y85733D01*
X207160Y84823D01*
X206946Y83750D01*
X207160Y82677D01*
X207767Y81767D01*
X208677Y81160D01*
X209750Y80946D01*
X210823Y81160D01*
X211733Y81767D01*
X212340Y82677D01*
X212554Y83750D01*
X212340Y84823D01*
X211733Y85733D01*
X210823Y86340D01*
X209750Y86554D01*
D02*
G37*
G36*
X210000Y77554D02*
X208927Y77340D01*
X208017Y76733D01*
X207410Y75823D01*
X207196Y74750D01*
X207410Y73677D01*
X208017Y72767D01*
X208927Y72160D01*
X210000Y71946D01*
X211073Y72160D01*
X211983Y72767D01*
X212590Y73677D01*
X212804Y74750D01*
X212590Y75823D01*
X211983Y76733D01*
X211073Y77340D01*
X210000Y77554D01*
D02*
G37*
G36*
X204000Y68054D02*
X202927Y67840D01*
X202017Y67233D01*
X201410Y66323D01*
X201196Y65250D01*
X201410Y64177D01*
X202017Y63267D01*
X201795Y62213D01*
X201177Y62090D01*
X200267Y61483D01*
X199660Y60573D01*
X199446Y59500D01*
X199660Y58427D01*
X200267Y57517D01*
X201177Y56910D01*
X202250Y56696D01*
X203323Y56910D01*
X203598Y57093D01*
X204375Y57452D01*
X205152Y57093D01*
X205427Y56910D01*
X206500Y56696D01*
X207573Y56910D01*
X208483Y57517D01*
X209090Y58427D01*
X209304Y59500D01*
X209090Y60573D01*
X208483Y61483D01*
X207573Y62090D01*
X206500Y62304D01*
X206273Y62259D01*
X205883Y63201D01*
X205983Y63267D01*
X206590Y64177D01*
X206804Y65250D01*
X206590Y66323D01*
X205983Y67233D01*
X205073Y67840D01*
X204000Y68054D01*
D02*
G37*
G36*
X118203Y98271D02*
X117130Y98057D01*
X116220Y97450D01*
X115612Y96540D01*
X115399Y95467D01*
X115612Y94394D01*
X116220Y93484D01*
X117130Y92877D01*
X118203Y92663D01*
X119276Y92877D01*
X120185Y93484D01*
X120793Y94394D01*
X121007Y95467D01*
X120793Y96540D01*
X120185Y97450D01*
X119276Y98057D01*
X118203Y98271D01*
D02*
G37*
G36*
X118203Y91200D02*
X117130Y90986D01*
X116220Y90379D01*
X115612Y89469D01*
X115399Y88396D01*
X115612Y87323D01*
X116220Y86413D01*
X117130Y85806D01*
X118203Y85592D01*
X119276Y85806D01*
X120185Y86413D01*
X120793Y87323D01*
X121007Y88396D01*
X120793Y89469D01*
X120185Y90379D01*
X119276Y90986D01*
X118203Y91200D01*
D02*
G37*
G36*
X86000Y89804D02*
X84927Y89590D01*
X84017Y88983D01*
X83410Y88073D01*
X83303Y87538D01*
X83000Y86304D01*
X81927Y86090D01*
X81017Y85483D01*
X80410Y84573D01*
X80196Y83500D01*
X80410Y82427D01*
X81017Y81517D01*
X81927Y80910D01*
X83000Y80696D01*
X84073Y80910D01*
X84983Y81517D01*
X85590Y82427D01*
X85697Y82962D01*
X86000Y84196D01*
X87073Y84410D01*
X87983Y85017D01*
X88590Y85927D01*
X88804Y87000D01*
X88590Y88073D01*
X87983Y88983D01*
X87073Y89590D01*
X86000Y89804D01*
D02*
G37*
G36*
X110936Y85054D02*
X109863Y84840D01*
X108953Y84233D01*
X108345Y83323D01*
X108132Y82250D01*
X108345Y81177D01*
X108953Y80267D01*
X109863Y79660D01*
X110936Y79446D01*
X112009Y79660D01*
X112918Y80267D01*
X113526Y81177D01*
X113739Y82250D01*
X113526Y83323D01*
X112918Y84233D01*
X112009Y84840D01*
X110936Y85054D01*
D02*
G37*
G36*
X121750Y76304D02*
X120677Y76090D01*
X119767Y75483D01*
X119731Y75427D01*
X118323Y74840D01*
X117250Y75054D01*
X116177Y74840D01*
X115267Y74233D01*
X114660Y73323D01*
X114446Y72250D01*
X114660Y71177D01*
X115267Y70267D01*
X116177Y69660D01*
X117250Y69446D01*
X118323Y69660D01*
X119233Y70267D01*
X119270Y70323D01*
X120677Y70910D01*
X121750Y70696D01*
X122823Y70910D01*
X123733Y71517D01*
X124340Y72427D01*
X124554Y73500D01*
X124340Y74573D01*
X123733Y75483D01*
X122823Y76090D01*
X121750Y76304D01*
D02*
G37*
G36*
X89750Y69818D02*
X88677Y69605D01*
X87767Y68997D01*
X87160Y68087D01*
X86946Y67014D01*
X87160Y65941D01*
X87767Y65032D01*
X88677Y64424D01*
X89750Y64210D01*
X90823Y64424D01*
X91733Y65032D01*
X92340Y65941D01*
X92554Y67014D01*
X92340Y68087D01*
X91733Y68997D01*
X90823Y69605D01*
X89750Y69818D01*
D02*
G37*
G36*
X98250Y65304D02*
X97177Y65090D01*
X96267Y64482D01*
X95660Y63573D01*
X95446Y62500D01*
X95660Y61427D01*
X96267Y60517D01*
X97177Y59910D01*
X98250Y59696D01*
X99323Y59910D01*
X100233Y60517D01*
X100841Y61427D01*
X101054Y62500D01*
X100841Y63573D01*
X100233Y64482D01*
X99323Y65090D01*
X98250Y65304D01*
D02*
G37*
G36*
X230500Y94054D02*
X229427Y93840D01*
X228517Y93233D01*
X227910Y92323D01*
X227696Y91250D01*
X227910Y90177D01*
X228517Y89267D01*
X229427Y88660D01*
X230500Y88446D01*
X231573Y88660D01*
X232483Y89267D01*
X233090Y90177D01*
X233304Y91250D01*
X233090Y92323D01*
X232483Y93233D01*
X231573Y93840D01*
X230500Y94054D01*
D02*
G37*
G36*
X236000Y80304D02*
X234927Y80090D01*
X234017Y79483D01*
X233410Y78573D01*
X233196Y77500D01*
X233410Y76427D01*
X234017Y75517D01*
X234927Y74910D01*
X236000Y74696D01*
X237073Y74910D01*
X237983Y75517D01*
X238590Y76427D01*
X238804Y77500D01*
X238590Y78573D01*
X237983Y79483D01*
X237073Y80090D01*
X236000Y80304D01*
D02*
G37*
G36*
X262250Y60054D02*
X261177Y59840D01*
X260267Y59233D01*
X260264Y59227D01*
X258736D01*
X258733Y59233D01*
X257823Y59840D01*
X256750Y60054D01*
X255677Y59840D01*
X254767Y59233D01*
X254160Y58323D01*
X253946Y57250D01*
X254160Y56177D01*
X254767Y55267D01*
X255677Y54660D01*
X256750Y54446D01*
X257823Y54660D01*
X258733Y55267D01*
X258736Y55273D01*
X260264D01*
X260267Y55267D01*
X261177Y54660D01*
X262250Y54446D01*
X263323Y54660D01*
X264233Y55267D01*
X264840Y56177D01*
X265054Y57250D01*
X264840Y58323D01*
X264233Y59233D01*
X263323Y59840D01*
X262250Y60054D01*
D02*
G37*
G36*
X138500D02*
X137427Y59840D01*
X136517Y59233D01*
X136351Y58984D01*
X135149D01*
X134983Y59233D01*
X134073Y59840D01*
X133000Y60054D01*
X131927Y59840D01*
X131017Y59233D01*
X130409Y58323D01*
X130196Y57250D01*
X130409Y56177D01*
X131017Y55267D01*
X131927Y54660D01*
X133000Y54446D01*
X134073Y54660D01*
X134983Y55267D01*
X135149Y55516D01*
X136351D01*
X136517Y55267D01*
X137427Y54660D01*
X138500Y54446D01*
X139573Y54660D01*
X140483Y55267D01*
X141090Y56177D01*
X141304Y57250D01*
X141090Y58323D01*
X140483Y59233D01*
X139573Y59840D01*
X138500Y60054D01*
D02*
G37*
G36*
X180500Y14671D02*
X179427Y14458D01*
X178517Y13850D01*
X177910Y12941D01*
X177696Y11868D01*
X177910Y10795D01*
X178517Y9885D01*
X179427Y9277D01*
X180500Y9064D01*
X181573Y9277D01*
X182483Y9885D01*
X183090Y10795D01*
X183304Y11868D01*
X183090Y12941D01*
X182483Y13850D01*
X181573Y14458D01*
X180500Y14671D01*
D02*
G37*
%LPD*%
D11*
X20750Y171000D02*
Y193500D01*
X16000Y198250D02*
X20750Y193500D01*
X16000Y198250D02*
Y204400D01*
X256500Y215000D02*
X261250D01*
X251750Y219750D02*
X256500Y215000D01*
X242750Y219750D02*
X251750D01*
X12500Y207899D02*
X16000Y204400D01*
X12500Y207899D02*
Y216750D01*
X17500Y167750D02*
X20750Y171000D01*
X6750Y222500D02*
Y230490D01*
X35010Y258750D02*
X74750D01*
X6750Y230490D02*
X35010Y258750D01*
X237250Y214250D02*
X242750Y219750D01*
X6750Y222500D02*
X12500Y216750D01*
X101750Y245500D02*
X108750Y252500D01*
X88000Y245500D02*
X101750D01*
X74750Y258750D02*
X88000Y245500D01*
X157750Y238500D02*
X188500D01*
X153000Y243250D02*
X157750Y238500D01*
X144000Y243250D02*
X153000D01*
X188500Y238500D02*
X202750Y224250D01*
X138750Y248500D02*
X144000Y243250D01*
X117250Y248500D02*
X138750D01*
X108750Y252500D02*
X113250D01*
X117250Y248500D01*
X14500Y107250D02*
X17500Y110250D01*
Y167750D01*
X237250Y209000D02*
Y214250D01*
X261250Y215000D02*
X266500Y220250D01*
X315815D01*
X317115Y221550D01*
X317250D01*
X91838Y144106D02*
X97713D01*
X82944Y153000D02*
X91838Y144106D01*
X99500Y136725D02*
X100525Y137750D01*
X99500Y113250D02*
Y136725D01*
X96275Y103975D02*
X98426Y101824D01*
X97713Y144106D02*
X100390Y141429D01*
X14500Y96000D02*
Y107250D01*
X11250Y92750D02*
X14500Y96000D01*
X11250Y87250D02*
Y92750D01*
X141215Y171285D02*
X144273D01*
X138702Y173798D02*
X141215Y171285D01*
X144273D02*
X146487Y173499D01*
X144273Y166727D02*
Y171285D01*
Y166727D02*
X146131Y164869D01*
X138702Y173798D02*
Y179470D01*
X139416Y180184D01*
X115486Y204250D02*
X128809Y190926D01*
X113250Y204250D02*
X115486D01*
X102000Y215500D02*
X113250Y204250D01*
X78893Y159107D02*
X80454Y157546D01*
X75776Y159107D02*
X78893D01*
X100525Y137750D02*
Y141429D01*
X100390D02*
X100525D01*
X202750Y210500D02*
Y224250D01*
X254465Y161031D02*
X259422Y156073D01*
Y139922D02*
Y156073D01*
X256300Y136800D02*
X259422Y139922D01*
X202500Y30750D02*
Y35750D01*
X179500Y58750D02*
X202500Y35750D01*
X119963Y106788D02*
X141000Y85751D01*
X114321Y106788D02*
X119963D01*
X141000Y85751D02*
X143749D01*
X150500Y71750D02*
Y79000D01*
X143749Y85751D02*
X150500Y79000D01*
X163500Y58750D02*
X179500D01*
X150500Y71750D02*
X163500Y58750D01*
X200750Y208500D02*
X202750Y210500D01*
X200750Y178500D02*
Y208500D01*
X158665Y143000D02*
X174500D01*
X102000Y215500D02*
Y217736D01*
X93629Y207129D02*
X102000Y215500D01*
X91393Y207129D02*
X93629D01*
X246045Y156781D02*
X250295Y161031D01*
X254465D01*
X252705Y136800D02*
X256300D01*
X146131Y160500D02*
Y164869D01*
X157094Y141429D02*
X158665Y143000D01*
X139416Y180184D02*
Y180320D01*
X109357Y101824D02*
X114321Y106788D01*
X98426Y101824D02*
X109357D01*
D12*
X60750Y224000D02*
X93447D01*
X95947Y226500D02*
X101250D01*
X93447Y224000D02*
X95947Y226500D01*
X26750Y213500D02*
X38500Y201750D01*
X39539Y189711D02*
Y193908D01*
Y189711D02*
X49250Y180000D01*
Y169000D02*
Y180000D01*
X30500Y202947D02*
X39539Y193908D01*
X101250Y226500D02*
X104000Y223750D01*
X172500Y219750D02*
X180053D01*
X169500Y222750D02*
X172500Y219750D01*
X144500Y222750D02*
X169500D01*
X136000Y231250D02*
X144500Y222750D01*
X104000Y223750D02*
X106750D01*
X110250Y220250D01*
X125000D01*
X105750Y231250D02*
X136000D01*
X102500Y234500D02*
X105750Y231250D01*
X82000Y234500D02*
X102500D01*
X58000Y221250D02*
X60750Y224000D01*
X31697Y223750D02*
X43500D01*
X26750Y213500D02*
Y218803D01*
X31697Y223750D01*
X59750Y231750D02*
X61750Y229750D01*
X31250Y231750D02*
X59750D01*
X23250Y223750D02*
X31250Y231750D01*
X43500Y223750D02*
X46000Y221250D01*
X77250Y229750D02*
X82000Y234500D01*
X61750Y229750D02*
X77250D01*
X127500Y217750D02*
X133594D01*
X125000Y220250D02*
X127500Y217750D01*
X46000Y221250D02*
X58000D01*
X23250Y211848D02*
Y223750D01*
Y211848D02*
X30500Y204598D01*
Y202947D02*
Y204598D01*
X49250Y169000D02*
X55000Y163250D01*
X180053Y219750D02*
X187500Y212303D01*
Y179250D02*
Y212303D01*
X179250Y171000D02*
X187500Y179250D01*
X189750Y143500D02*
Y150000D01*
X185750Y154000D02*
X189750Y150000D01*
X183697Y154000D02*
X185750D01*
X186750Y145250D02*
Y148312D01*
X184062Y151000D02*
X186750Y148312D01*
X181750Y151000D02*
X184062D01*
X182750Y141250D02*
X186750Y145250D01*
X172750Y160000D02*
X181750Y151000D01*
X186500Y140250D02*
X189750Y143500D01*
X186500Y133500D02*
Y140250D01*
X182750Y135250D02*
Y141250D01*
X172750Y160000D02*
Y175250D01*
X179250Y158447D02*
X183697Y154000D01*
X185000Y132000D02*
X186500Y133500D01*
X179250Y158447D02*
Y171000D01*
X185000Y124750D02*
Y132000D01*
D14*
X96275Y107775D02*
X99500Y111000D01*
X96275Y103975D02*
Y107775D01*
X99500Y111000D02*
Y113250D01*
X82944Y153000D02*
Y153354D01*
X80704Y155593D02*
X82944Y153354D01*
X80704Y155593D02*
Y157546D01*
X80454D02*
X80704D01*
D15*
X252625Y196610D02*
G03*
X246250Y212000I-21765J0D01*
G01*
X265250Y122079D02*
G03*
X267250Y117250I6829J0D01*
G01*
X269355Y112169D02*
G03*
X267250Y117250I-7186J0D01*
G01*
X265250Y162265D02*
G03*
X259250Y176750I-20485J0D01*
G01*
X255186Y180814D02*
G03*
X255188Y180812I6190J6186D01*
G01*
X252625Y187000D02*
G03*
X255186Y180814I8751J0D01*
G01*
X17750Y172243D02*
Y192257D01*
X13000Y197007D02*
X17750Y192257D01*
X15750Y177750D02*
Y191429D01*
X11000Y196179D02*
X15750Y191429D01*
X13750Y179500D02*
Y190600D01*
X9000Y195350D02*
X13750Y190600D01*
X13000Y197007D02*
Y203157D01*
X11000Y196179D02*
Y202328D01*
X9000Y195350D02*
Y201500D01*
X273500Y4750D02*
X369250D01*
X403250Y77000D02*
X415828D01*
X393500Y67250D02*
X403250Y77000D01*
X415828D02*
X418078Y74750D01*
X394078Y65000D02*
X404078Y75000D01*
X415000D01*
X417250Y72750D01*
X444000Y61000D02*
X459750Y76750D01*
X370750Y61000D02*
X444000D01*
X367000Y57250D02*
X370750Y61000D01*
X64250Y43750D02*
Y46250D01*
X60750Y40250D02*
X64250Y43750D01*
X60750Y32500D02*
Y40250D01*
X398000Y179000D02*
X401000Y176000D01*
X382828Y179000D02*
X398000D01*
X401000Y174000D02*
Y176000D01*
X399000Y173172D02*
Y175000D01*
X397000Y177000D02*
X399000Y175000D01*
X382000Y177000D02*
X397000D01*
X399000Y173172D02*
X403672Y168500D01*
X200000Y158266D02*
X205500Y152766D01*
X200000Y158266D02*
Y165750D01*
X205500Y150500D02*
Y152766D01*
X204500Y156594D02*
X234000Y127094D01*
X204500Y156594D02*
Y172250D01*
X197000Y168750D02*
X200000Y165750D01*
X120641Y187391D02*
X132345D01*
X114750Y181500D02*
X120641Y187391D01*
X111300Y181500D02*
X114750D01*
X106442Y176642D02*
X111300Y181500D01*
X102287Y179963D02*
X105167D01*
X98500Y183750D02*
X102287Y179963D01*
X95500Y183750D02*
X98500D01*
X8500Y207657D02*
Y215157D01*
Y207657D02*
X13000Y203157D01*
X6500Y206828D02*
X11000Y202328D01*
X6500Y206828D02*
Y214328D01*
X4500Y206000D02*
Y213500D01*
Y206000D02*
X9000Y201500D01*
X11750Y166243D02*
X17750Y172243D01*
X6250Y168250D02*
X15750Y177750D01*
X6361Y172111D02*
X13750Y179500D01*
X151750Y7750D02*
X155750Y3750D01*
X2000Y260500D02*
Y263000D01*
X5250Y263422D02*
X17578Y275750D01*
X5250Y252578D02*
Y263422D01*
X7250Y262593D02*
X18407Y273750D01*
X7250Y251750D02*
Y262593D01*
X17578Y275750D02*
X28422D01*
X18407Y273750D02*
X29250D01*
X16750Y277750D02*
X20250D01*
X2000Y263000D02*
X16750Y277750D01*
X11750Y155546D02*
Y166243D01*
X5250Y149046D02*
X11750Y155546D01*
X5250Y94250D02*
Y149046D01*
X1500Y219328D02*
Y248828D01*
X5250Y252578D01*
X3500Y248000D02*
X7250Y251750D01*
X3500Y220157D02*
Y248000D01*
Y220157D02*
X8500Y215157D01*
X1500Y219328D02*
X6500Y214328D01*
X-1250Y219250D02*
X4500Y213500D01*
X-1250Y219250D02*
Y265000D01*
X171250Y214750D02*
X178000D01*
X233250Y249000D02*
X236000D01*
X230250Y252000D02*
X233250Y249000D01*
X230250Y252000D02*
Y278250D01*
X228250Y251000D02*
X232621Y246629D01*
X228250Y251000D02*
Y280914D01*
X232621Y246629D02*
X235543D01*
X226250Y250000D02*
X231842Y244408D01*
X226250Y250000D02*
Y255250D01*
X231842Y244408D02*
X234299D01*
X236000Y249000D02*
X239750Y245250D01*
X235543Y246629D02*
X237500Y244672D01*
X234299Y244408D02*
X235500Y243207D01*
X237500Y220878D02*
Y244672D01*
X235500Y222187D02*
Y243207D01*
X146250Y264250D02*
X173500D01*
X181750Y260750D02*
X183500Y259000D01*
X145250Y260750D02*
X181750D01*
X124750Y281250D02*
X145250Y260750D01*
X180821Y258750D02*
X214321Y225250D01*
X143250Y258750D02*
X180821D01*
X122750Y279250D02*
X143250Y258750D01*
X234000Y212000D02*
Y217378D01*
X226250Y204250D02*
X234000Y212000D01*
X226250Y157250D02*
Y204250D01*
X45250Y279250D02*
X122750D01*
X45250Y279250D02*
X45250Y279250D01*
X44422Y281250D02*
X124750D01*
X44422Y281250D02*
X44422Y281250D01*
X127250Y283250D02*
X146250Y264250D01*
X25750Y283250D02*
X127250D01*
X40500Y212000D02*
X80000D01*
X35250Y217250D02*
X40500Y212000D01*
X37250Y220500D02*
X43750Y214000D01*
X33750Y220500D02*
X37250D01*
X30500Y217250D02*
X33750Y220500D01*
X151750Y237750D02*
X154000Y235500D01*
X213750Y181750D02*
Y204922D01*
X222078Y213250D02*
X230312D01*
X213750Y204922D02*
X222078Y213250D01*
X222500Y216500D02*
X229813D01*
X211750Y205750D02*
X222500Y216500D01*
X211750Y183500D02*
Y205750D01*
X360500Y250750D02*
Y279250D01*
X357500Y282250D02*
X360500Y279250D01*
X183500Y259000D02*
X212000D01*
X186500Y235500D02*
X199250Y222750D01*
X154000Y235500D02*
X186500D01*
X12500Y281750D02*
Y289000D01*
X3250Y272500D02*
X12500Y281750D01*
X-346Y272500D02*
X3250D01*
X-3000Y269846D02*
X-346Y272500D01*
X-3000Y266750D02*
Y269846D01*
Y266750D02*
X-1250Y265000D01*
X43750Y214000D02*
X92500D01*
X-8139Y172111D02*
X6361D01*
X-13000Y167250D02*
X-8139Y172111D01*
X-13000Y153654D02*
Y167250D01*
X327800Y216950D02*
X334050D01*
X317000Y227750D02*
X327800Y216950D01*
X242250Y227750D02*
X317000D01*
X239750Y230250D02*
X242250Y227750D01*
X234000Y217378D02*
X237500Y220878D01*
X229813Y216500D02*
X235500Y222187D01*
X33000Y95172D02*
Y100500D01*
X30250Y103250D02*
X33000Y100500D01*
X30250Y103250D02*
Y107500D01*
X51750Y67422D02*
Y76422D01*
X33000Y95172D02*
X51750Y76422D01*
X53750Y68250D02*
Y77250D01*
X35000Y96000D02*
X53750Y77250D01*
X35000Y96000D02*
Y100250D01*
X92750Y140250D02*
X96204Y136796D01*
X92906Y108750D02*
X96204Y112049D01*
Y136796D01*
X82419Y140237D02*
X93097Y129558D01*
Y119506D02*
Y129558D01*
X85342Y111750D02*
X93097Y119506D01*
X82219Y137608D02*
X91097Y128729D01*
Y120334D02*
Y128729D01*
X85265Y114501D02*
X91097Y120334D01*
X68500Y108750D02*
X92906D01*
X221000Y152000D02*
X226250Y157250D01*
X234000Y120250D02*
Y127094D01*
X51749Y114501D02*
X85265D01*
X47750Y118500D02*
X51749Y114501D01*
X43250Y118500D02*
X47750D01*
X40500Y121250D02*
X43250Y118500D01*
X46750Y116250D02*
X51750Y111250D01*
X29172Y116250D02*
X46750D01*
X45922Y114250D02*
X48500Y111672D01*
X30000Y114250D02*
X45922D01*
X25500Y109750D02*
X30000Y114250D01*
X23500Y110578D02*
X29172Y116250D01*
X43664Y112000D02*
X46000Y109664D01*
X31250Y112000D02*
X43664D01*
X27500Y108250D02*
X31250Y112000D01*
X41750Y110000D02*
X42750Y109000D01*
X32750Y110000D02*
X41750D01*
X30250Y107500D02*
X32750Y110000D01*
X95500Y176642D02*
X106442D01*
X95129Y162500D02*
X107379Y174750D01*
X73250Y162500D02*
X95129D01*
X107379Y174750D02*
X115108D01*
X120607Y180249D01*
X134000Y184000D02*
X135595Y185595D01*
X126750Y184000D02*
X134000D01*
X122999Y180249D02*
X126750Y184000D01*
X120607Y180249D02*
X122999D01*
X135595Y185595D02*
Y208155D01*
X96273Y203000D02*
X111488Y187784D01*
X89000Y203000D02*
X96273D01*
X80000Y212000D02*
X89000Y203000D01*
X78142Y137608D02*
X82219D01*
X72500Y143250D02*
X78142Y137608D01*
X72500Y143250D02*
Y145766D01*
X62714Y155552D02*
X72500Y145766D01*
X69000Y167000D02*
X75750D01*
X62714Y160714D02*
X69000Y167000D01*
X62714Y155552D02*
Y160714D01*
X69752Y164750D02*
X76500D01*
X65129Y160126D02*
X69752Y164750D01*
X65129Y156371D02*
Y160126D01*
X75750Y167000D02*
X80875Y172125D01*
X83875D01*
X76500Y164750D02*
X81749Y169999D01*
X91265D01*
X83875Y172125D02*
X95500Y183750D01*
X-2250Y63250D02*
X10000Y75500D01*
X15500D01*
X7250Y31500D02*
Y52500D01*
X31000Y76250D01*
Y81250D01*
X27500Y84750D02*
X31000Y81250D01*
X27500Y84750D02*
Y108250D01*
X46000Y101827D02*
Y109664D01*
X45250Y101077D02*
X46000Y101827D01*
X45250Y93404D02*
Y101077D01*
Y93404D02*
X47154Y91500D01*
X51250D01*
X68500Y108750D01*
X63750Y111750D02*
X85342D01*
X90297Y140250D02*
X92750D01*
X82419Y140237D02*
Y143831D01*
X77321Y148929D02*
X82419Y143831D01*
X78633Y151914D02*
X90297Y140250D01*
X78633Y151914D02*
Y153525D01*
X76408Y155750D02*
X78633Y153525D01*
X73555Y155750D02*
X76408D01*
X71955Y157350D02*
X73555Y155750D01*
X71955Y157350D02*
Y161205D01*
X73250Y162500D01*
X72571Y148929D02*
X77321D01*
X65129Y156371D02*
X72571Y148929D01*
X23500Y86750D02*
Y110578D01*
X25500Y85500D02*
Y109750D01*
X17000Y80250D02*
X23500Y86750D01*
X15500Y75500D02*
X25500Y85500D01*
X35000Y100250D02*
X38163Y103413D01*
X48500Y105404D02*
Y109904D01*
X48500Y109904D02*
X48500Y109904D01*
X48500Y109904D02*
Y111672D01*
X48500Y105404D02*
X50404Y103500D01*
X55500D01*
X8000Y80250D02*
X17000D01*
X55500Y103500D02*
X63750Y111750D01*
X91265Y169999D02*
X93382Y172116D01*
Y174525D01*
X95500Y176642D01*
X130250Y213500D02*
X135595Y208155D01*
X29250Y7750D02*
X151750D01*
X26750Y10250D02*
X29250Y7750D01*
X89750Y9750D02*
X96250Y16250D01*
X66250Y9750D02*
X89750D01*
X58750Y17250D02*
X66250Y9750D01*
X86000Y40500D02*
X92750D01*
X84438Y42063D02*
X86000Y40500D01*
X84438Y42063D02*
Y46062D01*
X94750Y42500D02*
Y50000D01*
X92750Y40500D02*
X94750Y42500D01*
X60750Y49750D02*
Y61250D01*
Y49750D02*
X64250Y46250D01*
X62750Y30500D02*
X69250D01*
X60750Y32500D02*
X62750Y30500D01*
X69250D02*
X73750Y35000D01*
X38163Y103413D02*
Y106587D01*
X82250Y48250D02*
X84438Y46062D01*
X75500Y48250D02*
X82250D01*
X73750Y35000D02*
Y46500D01*
X75500Y48250D01*
X53750Y68250D02*
X60750Y61250D01*
X42750Y106500D02*
Y109000D01*
X199250Y212750D02*
Y222750D01*
X212000Y259000D02*
X215000Y256000D01*
X211500Y270000D02*
X226250Y255250D01*
X239750Y230250D02*
Y245250D01*
X261500Y92750D02*
X283096D01*
X234000Y120250D02*
X261500Y92750D01*
X219500Y123250D02*
X259000Y83750D01*
X277250D01*
X318750Y54404D02*
Y57096D01*
X283096Y92750D02*
X318750Y57096D01*
X461000Y208250D02*
Y224250D01*
X456500Y228750D02*
X461000Y224250D01*
X423750Y228750D02*
X456500D01*
X421250Y226250D02*
X423750Y228750D01*
X400500Y226250D02*
X421250D01*
X393000Y233750D02*
X400500Y226250D01*
X461000Y208250D02*
X463000Y206250D01*
X377500Y233750D02*
X393000D01*
X360500Y250750D02*
X377500Y233750D01*
X367000Y37500D02*
Y57250D01*
X277250Y83750D02*
X286000Y75000D01*
Y67000D02*
Y75000D01*
Y67000D02*
X300500Y52500D01*
X2000Y260250D02*
Y260500D01*
X33922Y281250D02*
X44422D01*
X28422Y275750D02*
X33922Y281250D01*
X252625Y187000D02*
Y196610D01*
X265250Y122079D02*
Y162265D01*
X269355Y100170D02*
Y112169D01*
X255188Y180812D02*
X259250Y176750D01*
X255186Y180814D02*
X255188Y180812D01*
X300500Y52500D02*
X316846D01*
X318750Y54404D01*
X208750Y176500D02*
Y180500D01*
X204500Y172250D02*
X208750Y176500D01*
X58750Y17250D02*
Y60422D01*
X208750Y180500D02*
X211750Y183500D01*
X51750Y67422D02*
X58750Y60422D01*
X96250Y16250D02*
X109000D01*
X-13000Y153654D02*
X-6346Y147000D01*
X3500Y92500D02*
X5250Y94250D01*
X3500Y84750D02*
Y92500D01*
Y84750D02*
X8000Y80250D01*
X438000Y164500D02*
Y164596D01*
X404500Y170500D02*
X432096D01*
X438000Y164596D01*
X220086Y9250D02*
X230250D01*
X197000Y210500D02*
X199250Y212750D01*
X197000Y168750D02*
Y210500D01*
X216500Y168904D02*
Y169000D01*
X216154Y152000D02*
X221000D01*
X214250Y153904D02*
X216154Y152000D01*
X214250Y153904D02*
Y166654D01*
X216500Y168904D01*
X247221Y282875D02*
X249875D01*
X228250Y280914D02*
X237336Y290000D01*
X240096D01*
X247221Y282875D01*
X230250Y278250D02*
X238750Y286750D01*
X249875Y282875D02*
X250000Y282750D01*
X167000Y210500D02*
X171250Y214750D01*
X167000Y170750D02*
Y210500D01*
X211500Y174250D02*
Y179500D01*
X207750Y170500D02*
X211500Y174250D01*
X463000Y168500D02*
Y206250D01*
X459750Y165250D02*
X463000Y168500D01*
X459750Y76750D02*
Y165250D01*
X34750Y279250D02*
X45250D01*
X29250Y273750D02*
X34750Y279250D01*
X20250Y277750D02*
X25750Y283250D01*
X344564Y146790D02*
X353250Y155476D01*
X329295Y146790D02*
X344564D01*
X342750Y142148D02*
X355250Y154648D01*
X342750Y139995D02*
Y142148D01*
Y139995D02*
X345945Y136800D01*
X353250Y155476D02*
Y179578D01*
X355250Y154648D02*
Y178750D01*
X353250Y179578D02*
X356422Y182750D01*
X355250Y178750D02*
X357250Y180750D01*
X356422Y182750D02*
X379078D01*
X357250Y180750D02*
X378250D01*
X379078Y182750D02*
X382828Y179000D01*
X378250Y180750D02*
X382000Y177000D01*
X403672Y168500D02*
X429500D01*
X401000Y174000D02*
X404500Y170500D01*
X417250Y72750D02*
X431000D01*
X432250Y71500D01*
X435096D01*
X359750Y67250D02*
X393500D01*
X354500Y72500D02*
X359750Y67250D01*
X357250Y65000D02*
X394078D01*
X351654Y72500D02*
X354500D01*
X348404Y69250D02*
X351654Y72500D01*
X353000Y69250D02*
X357250Y65000D01*
X334050Y216950D02*
X340500Y210500D01*
X189500Y270000D02*
X211500D01*
X155750Y286250D02*
X162250Y279750D01*
X146500Y286250D02*
X155750D01*
X142500Y290250D02*
X146500Y286250D01*
X213750Y123250D02*
X219500D01*
X211500Y179500D02*
X213750Y181750D01*
X179750Y279750D02*
X189500Y270000D01*
X162250Y279750D02*
X179750D01*
X340500Y210500D02*
X347250D01*
X349000Y212250D01*
X429500Y168500D02*
X433500Y164500D01*
X269500Y8750D02*
X273500Y4750D01*
X252500Y8750D02*
X269500D01*
X247250Y3500D02*
X252500Y8750D01*
X214500Y3500D02*
X247250D01*
X214321Y225250D02*
X227750D01*
X199000Y131000D02*
X206000D01*
X213750Y123250D01*
X252000Y31000D02*
X259500D01*
X230250Y9250D02*
X252000Y31000D01*
X220064Y9272D02*
X220086Y9250D01*
X218728Y9272D02*
X220064D01*
X218250Y9750D02*
X218728Y9272D01*
X435096Y71500D02*
X438250Y74654D01*
X418078Y74750D02*
X433750D01*
X348250Y69250D02*
X348404D01*
X438250Y74654D02*
Y74750D01*
X187250Y6750D02*
X187375Y6875D01*
X-6346Y147000D02*
X-6000D01*
D125*
X437500Y30500D02*
D03*
Y266500D02*
D03*
D129*
X218750Y205137D02*
X222000Y201887D01*
Y159750D02*
Y201887D01*
X217500Y155250D02*
X222000Y159750D01*
D130*
X87598Y121784D02*
Y126072D01*
X81526Y119001D02*
X84815D01*
X87598Y121784D01*
X86383Y127287D02*
X87598Y126072D01*
X78500Y119001D02*
X81526D01*
X81525Y119000D02*
X81526Y119001D01*
X155000Y167500D02*
X159000D01*
X176000Y144500D02*
Y150500D01*
X159000Y167500D02*
X176000Y150500D01*
X174500Y143000D02*
X176000Y144500D01*
X286500Y21750D02*
X290250Y18000D01*
X309000D01*
X314000Y13000D01*
X361000D01*
X364500Y16500D01*
X396000D02*
X403000Y9500D01*
X364500Y16500D02*
X396000D01*
X152369Y164869D02*
X155000Y167500D01*
X146131Y164869D02*
X152369D01*
D136*
X24325Y197000D02*
X27750D01*
X21250Y200075D02*
X24325Y197000D01*
X21250Y200075D02*
Y204425D01*
X21250Y204425D01*
Y206750D01*
X27750Y197000D02*
X34500Y190250D01*
X18000Y210000D02*
Y226750D01*
Y210000D02*
X21250Y206750D01*
X146000Y227750D02*
X172750D01*
X133250Y240500D02*
X146000Y227750D01*
X67750Y240500D02*
X133250D01*
X175500Y225000D02*
X188250D01*
X172750Y227750D02*
X175500Y225000D01*
X37000Y245750D02*
X62500D01*
X18000Y226750D02*
X37000Y245750D01*
X62500D02*
X67750Y240500D01*
X34500Y171500D02*
Y190250D01*
X43472Y139278D02*
Y162528D01*
X34500Y171500D02*
X43472Y162528D01*
X188250Y225000D02*
X194500Y218750D01*
Y214075D02*
Y218750D01*
X192750Y212325D02*
X194500Y214075D01*
X192750Y165674D02*
Y212325D01*
X191250Y164175D02*
X192750Y165674D01*
X228500Y120093D02*
Y125175D01*
X203750Y144500D02*
X209175D01*
X228500Y125175D01*
X63250Y119500D02*
X78500D01*
X43472Y139278D02*
X63250Y119500D01*
X286500Y26000D02*
Y39250D01*
Y21750D02*
Y26000D01*
X260343Y88250D02*
X279500D01*
X228500Y120093D02*
X260343Y88250D01*
X279500D02*
X296250Y71500D01*
Y64500D02*
Y71500D01*
Y64500D02*
X302500Y58250D01*
X202250Y29000D02*
Y30750D01*
Y29000D02*
X204000Y27250D01*
X108375Y69250D02*
X112000Y65625D01*
X96925Y33750D02*
X112000Y48825D01*
Y65625D01*
X96750Y33750D02*
X96925D01*
X191250Y159825D02*
X199000Y152076D01*
X191250Y159825D02*
Y164175D01*
X199000Y149250D02*
Y152076D01*
Y149250D02*
X203750Y144500D01*
X179750Y122500D02*
X184250Y118000D01*
X199825D01*
X179750Y122500D02*
Y129750D01*
X174500Y135000D02*
Y143000D01*
Y135000D02*
X179750Y129750D01*
X216575Y101250D02*
X231500D01*
X199825Y118000D02*
X216575Y101250D01*
X231500D02*
X248750Y84000D01*
Y77575D02*
Y84000D01*
X92500Y33750D02*
X96750D01*
X88250D02*
X92500D01*
X248750Y77575D02*
X254325Y72000D01*
X269175D01*
X273500Y67675D01*
Y52250D02*
Y67675D01*
Y52250D02*
X286500Y39250D01*
X302500Y58250D02*
X310500D01*
D140*
X172250Y192000D02*
D03*
X-2250Y198750D02*
D03*
X135250Y219000D02*
D03*
X38500Y201750D02*
D03*
X147000Y238250D02*
D03*
X53750Y184500D02*
D03*
X27500Y189750D02*
D03*
X230312Y213250D02*
D03*
X-2250Y63250D02*
D03*
X130250Y213500D02*
D03*
X132345Y187391D02*
D03*
X7250Y31500D02*
D03*
X26750Y10250D02*
D03*
X26000Y125250D02*
D03*
X155750Y3750D02*
D03*
X286500Y26000D02*
D03*
X371750Y122500D02*
D03*
X350000Y233500D02*
D03*
X6250Y168250D02*
D03*
X215000Y256000D02*
D03*
X241750Y210750D02*
D03*
X246250Y212000D02*
D03*
X77250Y13000D02*
D03*
X76500Y17000D02*
D03*
X77750Y20750D02*
D03*
X7750Y159500D02*
D03*
X269355Y100170D02*
D03*
X182750Y135250D02*
D03*
X216500Y169000D02*
D03*
X172750Y175250D02*
D03*
X183250Y159750D02*
D03*
X200750Y178500D02*
D03*
X363000Y282000D02*
D03*
X357500Y282250D02*
D03*
X367000Y37500D02*
D03*
X383923Y114500D02*
D03*
X373673Y88500D02*
D03*
X190250Y135000D02*
D03*
X175750Y182500D02*
D03*
X238750Y286750D02*
D03*
X235000Y252250D02*
D03*
X132750Y290250D02*
D03*
X205500Y255750D02*
D03*
X187500Y262250D02*
D03*
X110750Y248250D02*
D03*
X103000Y272000D02*
D03*
X111000Y267500D02*
D03*
X1750Y279000D02*
D03*
X128809Y190926D02*
D03*
X438000Y164500D02*
D03*
X433500Y164500D02*
D03*
X449250Y191750D02*
D03*
X368250Y147500D02*
D03*
X433250Y205250D02*
D03*
X464250Y211500D02*
D03*
X459250Y170750D02*
D03*
X402750Y21750D02*
D03*
X403000Y9500D02*
D03*
X207750Y170500D02*
D03*
X199000Y131000D02*
D03*
X353000Y69250D02*
D03*
X348250D02*
D03*
X171236Y148500D02*
D03*
X323750Y271750D02*
D03*
X463500Y63500D02*
D03*
X445500Y91500D02*
D03*
X433750Y74750D02*
D03*
X438250D02*
D03*
X286500Y21750D02*
D03*
X329250Y18500D02*
D03*
X94750Y50000D02*
D03*
X109000Y16250D02*
D03*
X205500Y150500D02*
D03*
X27000Y78250D02*
D03*
X107750Y70000D02*
D03*
X227750Y225250D02*
D03*
X40500Y121250D02*
D03*
X38163Y106587D02*
D03*
X42750Y106500D02*
D03*
X44250Y175250D02*
D03*
X55000Y163250D02*
D03*
X185000Y124750D02*
D03*
X178000Y214750D02*
D03*
X28250Y136250D02*
D03*
X54500Y119750D02*
D03*
X167000Y170750D02*
D03*
X151750Y237750D02*
D03*
X349000Y212250D02*
D03*
X127000Y81250D02*
D03*
X173250Y86750D02*
D03*
X200250Y7500D02*
D03*
X204500D02*
D03*
X369250Y5500D02*
D03*
X11250Y87250D02*
D03*
X2000Y260500D02*
D03*
X250000Y282750D02*
D03*
X173500Y264250D02*
D03*
X61000Y272500D02*
D03*
X142500Y290250D02*
D03*
X353500Y21000D02*
D03*
X375750Y11750D02*
D03*
X179000Y231250D02*
D03*
X185500Y231500D02*
D03*
X187250Y6750D02*
D03*
X218750Y205137D02*
D03*
X12500Y289000D02*
D03*
X-6000Y147000D02*
D03*
X264750Y293750D02*
D03*
X204750Y27250D02*
D03*
X202500Y30750D02*
D03*
X196000Y7500D02*
D03*
X404250Y69500D02*
D03*
X412000Y223000D02*
D03*
X400750Y212250D02*
D03*
X374500Y248250D02*
D03*
X306250Y287750D02*
D03*
X291500Y267250D02*
D03*
X63250Y291000D02*
D03*
X87000Y230750D02*
D03*
X97500Y222750D02*
D03*
X157094Y141429D02*
D03*
X211500Y273750D02*
D03*
X409000Y232250D02*
D03*
X130500Y221500D02*
D03*
X54500Y240500D02*
D03*
X214500Y3500D02*
D03*
X218250Y9750D02*
D03*
X-9750Y155000D02*
D03*
X118203Y159107D02*
D03*
X91250Y157250D02*
D03*
X95164Y78085D02*
D03*
X121738Y155571D02*
D03*
X102000Y217736D02*
D03*
X77750Y90000D02*
D03*
X125274Y152036D02*
D03*
X128809Y155571D02*
D03*
X100525Y148500D02*
D03*
X118203Y152036D02*
D03*
X310500Y58250D02*
D03*
X302500D02*
D03*
X96750Y33750D02*
D03*
X92500D02*
D03*
X88250D02*
D03*
X307000Y224500D02*
D03*
X344500Y214000D02*
D03*
X57750Y134250D02*
D03*
X375000Y45750D02*
D03*
X373500Y37000D02*
D03*
X400250Y38750D02*
D03*
X381250Y28750D02*
D03*
X331500Y38000D02*
D03*
X337750Y37750D02*
D03*
X444000Y155750D02*
D03*
X431250Y150750D02*
D03*
X149750Y157250D02*
D03*
X259500Y31000D02*
D03*
X387500Y146250D02*
D03*
X431000Y91500D02*
D03*
X212000Y169000D02*
D03*
X112250Y215750D02*
D03*
X337500Y84750D02*
D03*
X312500Y89750D02*
D03*
X309315Y106830D02*
D03*
X182500Y49250D02*
D03*
X173750Y45250D02*
D03*
X178250Y49250D02*
D03*
X68750Y253750D02*
D03*
X71250Y233750D02*
D03*
X65750D02*
D03*
X65500Y220250D02*
D03*
Y198750D02*
D03*
X154750Y282000D02*
D03*
X-9500Y100500D02*
D03*
X-9500Y105494D02*
D03*
X-9500Y128747D02*
D03*
X-9500Y134494D02*
D03*
X-6750Y166500D02*
D03*
X-9000Y162500D02*
D03*
X-5250Y253997D02*
D03*
X-9750Y253995D02*
D03*
X-5250Y234497D02*
D03*
X-9500Y234500D02*
D03*
X-8750Y210000D02*
D03*
X-4250Y209997D02*
D03*
X142000Y95000D02*
D03*
X154000Y89750D02*
D03*
X145250Y77750D02*
D03*
X172500Y209250D02*
D03*
X181000Y210750D02*
D03*
X207250Y214750D02*
D03*
X-9500Y124000D02*
D03*
X-5250Y155000D02*
D03*
X-8250Y73750D02*
D03*
X394500Y173500D02*
D03*
X404500Y133000D02*
D03*
Y140000D02*
D03*
X51750Y111250D02*
D03*
X3750Y3750D02*
D03*
X15000Y52250D02*
D03*
X28750Y56750D02*
D03*
X217500Y155250D02*
D03*
X307250Y241250D02*
D03*
X317750Y271500D02*
D03*
X250750Y289500D02*
D03*
X414500Y200500D02*
D03*
X216500Y129750D02*
D03*
X94750Y54750D02*
D03*
X19000Y105000D02*
D03*
X10250Y101000D02*
D03*
X6750Y87250D02*
D03*
X-3000Y52000D02*
D03*
X10500Y69000D02*
D03*
X63750Y67000D02*
D03*
Y71750D02*
D03*
X65500Y50750D02*
D03*
X68000Y42500D02*
D03*
X64500Y91500D02*
D03*
X18500Y69750D02*
D03*
X64000Y17000D02*
D03*
X25500Y22500D02*
D03*
X41750Y20750D02*
D03*
X41500Y3000D02*
D03*
X57750Y3250D02*
D03*
X11500Y33250D02*
D03*
X13000Y29250D02*
D03*
X52000Y27250D02*
D03*
X30750D02*
D03*
X-3500Y41750D02*
D03*
X-8500D02*
D03*
X11500Y241250D02*
D03*
X32000Y269750D02*
D03*
X24250D02*
D03*
X42500Y287500D02*
D03*
X50750Y251750D02*
D03*
X46500Y204500D02*
D03*
X53250Y226250D02*
D03*
X246045Y156781D02*
D03*
X30500Y217250D02*
D03*
X35250D02*
D03*
X26750Y244000D02*
D03*
X92500Y214000D02*
D03*
X256250Y203250D02*
D03*
X82847Y123751D02*
D03*
X86383Y127287D02*
D03*
X75776Y159107D02*
D03*
X111488Y187784D02*
D03*
X105167Y179963D02*
D03*
X91393Y207129D02*
D03*
X37721Y149000D02*
D03*
X61634Y144965D02*
D03*
X61634Y152036D02*
D03*
X66500Y170000D02*
D03*
X100525Y190926D02*
D03*
X115250Y225000D02*
D03*
X115500Y81000D02*
D03*
X139416Y180320D02*
D03*
X131988Y172892D02*
D03*
X146131Y160500D02*
D03*
X146487Y173499D02*
D03*
X156280Y175970D02*
D03*
X237250Y209000D02*
D03*
X268250Y204750D02*
D03*
X374750Y174000D02*
D03*
X304500Y79000D02*
D03*
X276000Y79500D02*
D03*
X266250Y77250D02*
D03*
X254000Y79750D02*
D03*
X243250D02*
D03*
X317250Y221550D02*
D03*
X345750Y116750D02*
D03*
X299500Y181750D02*
D03*
X349371Y167579D02*
D03*
X200250Y135500D02*
D03*
X327000Y54750D02*
D03*
X458750Y192000D02*
D03*
X424750Y184250D02*
D03*
X440750Y101000D02*
D03*
X430925Y119000D02*
D03*
X401000Y136500D02*
D03*
X410000Y115000D02*
D03*
X391000Y123750D02*
D03*
X411500Y165000D02*
D03*
X416250Y178000D02*
D03*
X395250Y57750D02*
D03*
X389500D02*
D03*
X426500Y213250D02*
D03*
X281750Y267250D02*
D03*
X390000Y282500D02*
D03*
X378500Y272750D02*
D03*
X323750Y284250D02*
D03*
X339250Y283500D02*
D03*
X416750Y130000D02*
D03*
X400750Y65750D02*
D03*
X415000Y99250D02*
D03*
X404750Y85000D02*
D03*
X402000Y251750D02*
D03*
X378500Y243750D02*
D03*
X345945Y136800D02*
D03*
X329295Y146790D02*
D03*
X342615Y180090D02*
D03*
X289335Y200071D02*
D03*
X246045Y183421D02*
D03*
X233250Y183369D02*
D03*
X325965Y196741D02*
D03*
X266025Y190081D02*
D03*
X282675Y193411D02*
D03*
X329295Y186751D02*
D03*
X305985Y103500D02*
D03*
X252705Y143460D02*
D03*
X249375Y146790D02*
D03*
X252705Y136800D02*
D03*
X242715Y120150D02*
D03*
X286005Y110160D02*
D03*
X272685Y103500D02*
D03*
X266025Y96840D02*
D03*
X339285Y170100D02*
D03*
Y163440D02*
D03*
X270000Y31000D02*
D03*
X259500Y43000D02*
D03*
Y19000D02*
D03*
Y37250D02*
D03*
Y24750D02*
D03*
X292250Y12250D02*
D03*
X297000D02*
D03*
X294750Y49750D02*
D03*
X290000D02*
D03*
X225750Y49250D02*
D03*
X230500D02*
D03*
X223750Y12500D02*
D03*
X228500D02*
D03*
X168500Y49750D02*
D03*
X173250D02*
D03*
X168500Y12250D02*
D03*
X173250D02*
D03*
X103000D02*
D03*
X98250D02*
D03*
X100750Y49750D02*
D03*
X105500D02*
D03*
X135750Y24750D02*
D03*
X135750Y19000D02*
D03*
X125250Y31000D02*
D03*
X121738Y162642D02*
D03*
X107596Y148500D02*
D03*
X100525Y141429D02*
D03*
X114667Y155571D02*
D03*
X107596Y141429D02*
D03*
D141*
X290645Y133500D02*
D03*
Y123500D02*
D03*
Y153500D02*
D03*
Y143500D02*
D03*
Y163500D02*
D03*
Y173500D02*
D03*
X300645Y173400D02*
D03*
Y163400D02*
D03*
Y143400D02*
D03*
Y153400D02*
D03*
Y123400D02*
D03*
Y133400D02*
D03*
X310645Y163400D02*
D03*
Y143400D02*
D03*
Y153400D02*
D03*
Y133400D02*
D03*
X270645D02*
D03*
Y153400D02*
D03*
Y143400D02*
D03*
Y163400D02*
D03*
X280645Y133400D02*
D03*
Y123400D02*
D03*
Y153400D02*
D03*
Y143400D02*
D03*
Y163400D02*
D03*
Y173400D02*
D03*
D142*
X310645D02*
D03*
Y123400D02*
D03*
X270645D02*
D03*
Y173400D02*
D03*
M02*
