M48
;Layer_Color=9474304
;FILE_FORMAT=2:4
INCH,TZ
;TYPE=PLATED
T1F00S00C0.0051
T2F00S00C0.0078
%
T01
X38819Y37047
Y37362
X39134
Y37047
X38976Y37205
X37835Y39478
Y39636
Y39793
Y39971
X37667
X37500
Y39803
X37677Y39626
X42972Y37549
X43130
X43287
Y37234
X42972
T02
X34321Y37254
X34596Y37254
X34911Y37254
Y38829
X34596Y38829
X34321Y38829
Y39774
X34596Y39774
X34911Y39774
X35354Y39400
X37215Y39606
X37264Y40227
X36343Y40935
X36122Y41142
X35413Y41575
X35216Y41663
X35591Y41919
X34911Y42293
X34596Y42293
X34321Y42293
Y41034
X34596Y41033
X34911Y41034
X36585Y42294
X37018
X37402Y42913
X38169Y43140
X38366Y43150
X38868Y42746
X39056Y42679
X39335
X39474Y42818
X39196Y42539
X39056Y42400
X38639Y41983
Y41704
X38500Y41565
X38361Y41704
X38221Y41565
X38014Y41248
X38199Y41063
X38500Y41008
X38639Y41147
X38500Y41287
X38917Y41147
X39056Y40730
X39197Y40592
X39335Y40452
X39613Y40452
X39752Y40312
X39613Y40173
X39752Y40034
X39616Y39895
X39892
X40029Y39757
X40167Y39619
X40305Y39481
X40456Y39338
X40727Y39338
X40719Y39616
X40588Y39756
X40679Y40039
X41005Y40173
X41144Y40034
X41284Y40173
X41152Y40571
X41358Y40699
X41562Y40730
X41701Y40591
X41842Y40729
X41981Y40868
X42441Y40679
X42274Y40502
X42536Y41147
X42815Y41426
X42676Y41565
X43573Y42303
X43770Y42293
X44182Y42393
X44035Y42549
X44805Y42679
Y42942
X44936Y43073
Y42811
X45198Y43073
X45329Y43204
X45592
X45854Y43466
X46247Y43335
Y43597
X46509
X46250Y44538
Y44882
X46565Y45217
X45856Y45226
X46299Y45812
X45512Y46152
X45315Y46219
X45778Y46851
X44429Y44852
X44833Y43671
X44459Y43238
X44543Y41893
X44805Y42155
X44936Y42286
X45067Y41893
X44805Y41106
Y40582
Y40320
X44412Y40451
X44213Y40404
X44006Y40571
X44321Y40886
X44222Y41270
X44674Y40713
X44936
X44921Y38967
X44035Y38760
X43760
X43287Y38494
X42894Y38465
X42175Y38563
X41437Y38829
X41575Y39764
X41752Y39892
X41144Y39756
X41005Y39895
X40309Y41147
X40448Y41287
Y41843
X40588Y41983
X40727Y42122
Y41565
X40170Y41565
X39752Y41426
X39537Y40738
X38819Y40463
X39752Y43096
X39892Y43238
X40309Y43653
X40448Y43514
Y43792
X40502Y44134
X40787Y44232
X40640Y44665
Y44980
X40463Y45738
X40226Y45738
X41772Y45482
X42323Y46143
X42490Y43711
X41673Y43494
X41260Y43731
X41073Y43730
X40591Y43101
X41284Y42679
X41423Y42539
X41840Y42679
X41980Y42539
X43287Y37717
X43209Y37067
X45168Y37136
Y37648
X45659Y38573
X46014
X46683
X46693Y37569
Y37175
Y36782
X45985Y39664
X45854Y39795
X45592Y39533
X46247Y39926
X38081Y37441
X37569Y37480
X36929
Y36929
X36822Y43630
X36634Y43898
X36722Y44508
Y44902
X36821Y45482
X37037
X36604
X36614Y45866
Y46112
X36813Y46034
X37207
X37404
X37600
X37994
X37116Y44508
X34596Y44813
Y45128
Y45758
X34321Y45758
X34911
X46900Y45295
X47953Y43475
X48214Y43204
X48082Y43073
X48345Y42548
X48476Y42417
Y42155
X48607Y42024
X48476Y41893
X48534Y41683
X48738Y41631
X48214
X48345Y41500
X48281Y41276
X48476Y41106
X47951Y40057
X48214Y39533
X48082Y39402
X47558
X47689Y39533
X47427
X47296Y39664
X47854Y38917
X49272Y39306
X49236Y40043
X51171Y39838
X51436Y39030
X51437Y38632
X52224Y39183
X51988Y40571
X51594
X52717Y40482
Y41427
X52455Y41545
X51988Y41427
Y41978
X51594Y42018
X49636Y42303
X48607Y42811
X51161Y44262
X52450Y44469
X52631Y44626
X52707Y43524
X52450Y43524
X50886Y46360
X50433Y46250
X49813Y45650
X50502Y37589
Y37234
Y36880
X47480Y36782
X47087
M30
