M48
;Layer_Color=9474304
;FILE_FORMAT=2:4
INCH,TZ
;TYPE=PLATED
T2F00S00C0.0078
T3F00S00C0.0098
T4F00S00C0.0118
T5F00S00C0.1024
%
T02
X35630Y37078
X35620Y38012
X35827Y37904
Y38179
X35837Y38396
X35620Y38338
X36437Y38396
X36457Y38681
Y38888
X36565Y39085
X36555Y39784
X36447Y39961
X36457Y40190
X36550Y40355
X36949Y40413
X37508Y40356
X37500Y40138
X37510Y39636
X37667Y39793
X37175
Y39203
X37480Y39183
X38130Y39242
X38642Y39439
X38720Y40207
X38917Y40305
X39055Y40167
Y40453
X38917Y40869
X38780Y41004
X38778Y40730
X38455Y40689
X37894Y40896
X38221Y41287
X38357Y41418
X38639Y41427
X38778Y41287
X39056Y41008
X39272Y41034
X39335Y40731
X39833Y40896
X40170Y41008
X40031Y41148
X40170Y41287
X40309Y41427
X40031Y41427
Y41704
X39892Y41566
Y41844
X39752Y41705
X39607Y41556
Y42048
X39626Y42234
X39911
Y42579
X40069Y42815
X40167Y42973
X40031Y43096
X40170Y43235
X40031Y43375
X40168Y43514
X40031Y43653
X39656Y43662
X39613Y43235
X39613Y42957
X39752Y42818
X39613Y42679
X39193Y42815
X39196Y42262
X39056Y42122
X38911Y42250
X38778Y42123
X38639Y42262
X38356Y41988
X38221Y41844
X38082Y41705
X37943Y41565
X38500Y41843
X38917Y41983
X39085Y41604
X39400Y41919
X40170Y41844
X40309Y41983
X40448Y42123
X40588Y42262
X40448Y42401
X40315Y42845
X40728Y42953
X41004Y42953
X41144Y42818
X41284Y42957
X41423Y42818
X41423Y43096
X41562Y42964
Y42679
X41701Y42539
X41840Y42400
X41792Y42028
X41989Y41979
X42119Y41843
X42397
X42536Y41704
X42397Y41565
X42258Y41704
Y41983
X42119Y42122
X42067Y41496
X42119Y41287
X41980Y41148
X41565Y41014
X41250Y40856
X40856
X40588Y40870
X40453Y40729
X40448Y41009
X40588Y41148
X40866
X41005Y41287
X41144Y41426
X41144Y41704
X41284Y41566
X41476Y41624
X41647Y41706
X41005Y41844
X40866Y41983
X40727Y41844
X40588Y41705
X40866Y41704
X40727Y41287
X39892Y41287
X39892Y40173
X39474Y40034
X39321Y39902
X40170Y39892
X40308Y39754
X40446Y39616
X40588Y39478
X40588Y39200
X40448Y39060
X41388Y39045
X41624Y38996
X42628Y38986
X42864
X42894Y38199
X43159Y38110
X43435Y38238
X43386Y37392
X43218
X43041
X42874
X42530
X43730
X44518
X45797
Y37038
X46299Y36978
X46496Y36782
X46299Y37766
X45797Y37746
X45522Y36191
X43278Y36772
X44705Y38967
X45460Y39664
X45592Y40057
X45985Y39926
X46116Y39795
X46378
X46509Y39664
X46378Y40099
X46211Y39203
X44936Y40188
Y40451
X45089Y40345
X45067Y40582
Y40844
X44936Y40975
X44805Y40845
X44674Y40975
Y40454
X45067Y41106
Y41631
X44805
X44676Y41506
X44543Y41368
X44242Y41742
X44301Y42195
X44543Y42417
Y42679
X44674Y42548
X44805Y42417
X44936Y42548
X45068Y42687
X44936Y42024
X44674
X44805Y41893
X44518Y42973
X45723Y43073
X45985
X46247
X46509
X46640Y43204
X46771Y43335
X46378Y43204
X46116
X45985Y43335
X46116Y43466
X46142Y43947
X45787Y43888
X45723Y43335
X45226Y44006
X44990Y44400
X44774Y44675
X44232
X43720Y44626
X43435Y44577
Y45099
X43415Y45305
X43691Y45325
X44380Y45256
X44567Y45473
Y45699
X44852Y46073
X45049Y46122
X44606Y46339
X44675Y46723
X43602
X43396Y46447
X43022Y46398
X43406Y45797
X44085Y46201
X45856Y46260
X46427Y46713
X46752
X46821Y46506
X46644Y44882
X46742Y44538
X45581Y44557
X45148Y44951
X44282Y44055
X44085Y43908
X43681
X42608Y43288
X41722Y43179
X41850Y43041
X41144Y43096
X41005Y43235
X40866Y43375
X40727Y43514
X40588Y43653
X40588Y43375
X41408Y43455
X41565Y43947
X41762Y43957
X42018Y43947
X42067Y44597
X41673Y44597
X41860Y45167
X42195Y45079
X42579Y45295
X41703Y45847
X41319Y45866
X41230Y46604
X41683Y46723
Y46447
X39715Y45669
X39439Y45217
X39397Y44363
X38563Y44321
X38445Y44173
X38602Y43839
X38878Y43849
X38165Y43711
X38199Y43318
X37982Y43180
X37785Y43150
X37776Y43356
X37648Y43906
X38160Y44538
X38297Y44665
X38484
X37874Y45069
X37687Y45059
X37116Y44902
X37010Y46034
X36949Y46379
X37569Y46536
X37797Y46034
X37559Y45758
X36358Y45532
X35906Y44813
X36053Y43790
X35876Y43652
X36270Y43908
X36496Y43701
X36348Y43228
X36486Y42490
X36919
X36742Y41949
X36824Y41518
X36614Y41467
X36625Y41238
X36585Y41063
X35902Y40935
X35482Y41122
X35571Y40620
X36122Y40518
X35846Y39469
X35830Y39288
X35630Y39272
X35669Y39587
X36654Y38238
X36585Y37786
X36447Y37667
Y37431
X36585Y37313
X38376Y37205
X38701
X39232
X39577
X39055Y36860
X38848Y38091
X38661
X40453Y40167
X40286Y40374
X40689Y40384
X40866Y40035
X41144Y40312
X41840Y40452
X41998Y39793
X42638Y40492
X42854Y40413
Y40965
X42944Y41556
X43691Y41359
X43907Y40984
X43878Y40719
X41250Y42234
X41132Y42530
X41033Y44104
X40289Y44026
X40266Y44292
X39341Y43228
X38386Y42894
X37795Y42254
X35689Y42579
X35935Y46447
Y46762
X47343Y45965
X47346Y45650
X47234Y45354
X47628Y45305
X47943
X47677Y44734
X47179Y44882
X46939Y44646
Y44449
X46900Y44095
X48082Y43335
X48087Y42815
X48214Y42942
X48476
Y42679
X48214
Y42424
X48082Y42548
X48345Y42286
Y42024
X48341Y41765
X48209Y41890
X48082Y41762
Y41500
X48607
X48731Y41103
X48345Y40713
X48476Y40582
X48345Y40451
X48095Y40454
X48214Y40320
X48082Y40713
X47689Y40057
X47296Y39926
X47165Y39795
X47411Y39282
X47648Y39134
X47648Y38898
X47480Y38760
X47254Y38356
X47283Y37766
X47520Y37707
X47480Y37175
X47392Y36211
X48573
X48573Y36604
X48544Y37451
X48947Y37343
X49793Y37234
Y37589
X50148
Y37234
Y36880
X49793
X50148Y36211
X51211Y37205
X51093Y38406
X51478Y38404
X51437Y38819
Y39242
X51171Y39547
Y40158
X51161Y40443
X51545Y40069
X51742Y40128
X51973Y40197
X51959Y40886
X52146Y40975
X52884Y40935
X52767Y40709
X53248Y41073
X53691
Y41841
Y42421
Y42933
Y43760
Y44715
X53248Y44538
Y44341
X52844Y44114
X52254Y43996
X52450Y43760
X51929Y43878
X52035Y44360
X51496Y44262
X51427Y44803
X50886
X50325Y44606
X50453Y44301
X49803Y44291
X49774Y44026
X49321Y43908
X48928Y42914
X48760Y42382
X48996Y41988
X49321Y41998
X49528Y41624
X49636Y42569
X50797Y42293
X50325Y41319
X50374Y40630
X50177Y40601
X49990
X49783
X49596
X48996Y40128
Y39912
X48819Y39823
Y40217
X48476Y39533
X48345Y39664
X48346Y39390
X48593Y38356
X47943
X48189Y37923
X50165Y38356
X50126Y39470
X50295Y39390
X52224Y38858
X52677
X52982Y39144
Y39488
X52776Y39429
X52825Y39616
X53297Y39567
X53691Y39675
Y40246
Y39075
Y38376
X52992
X52313
X51860Y38081
X52234Y43051
X52825
X52687Y43337
X52933Y44793
X52313
X51388Y45404
X50886Y45628
X50433Y45748
X50128Y46368
X49902
X49587Y46171
X49557Y45975
X48888
X48858Y46171
X48740Y44803
X48425Y44882
X50049Y44803
X50807Y43947
X51535Y46201
Y46457
X50128Y46821
X49813Y47028
X50532Y47195
X50935Y46959
X51329Y46959
X48624Y47018
X47726Y46910
X47313Y47156
X45994
X45315Y46951
X44675Y47136
X43632
X41683
X36909Y47106
X35935Y47038
T03
X45394Y40384
Y40856
Y41329
Y41801
X45630Y41565
X46102
X46339Y41329
Y41801
X45866
Y41329
X46102Y41093
X46339Y40856
X45866
X45630Y41093
Y40620
X46102
X46339Y40384
X45866
X46575Y40620
X46811Y40384
Y40856
X46575Y41093
Y41565
X46811Y41329
Y41801
X46575Y42038
X46811Y42274
X46339
X46102Y42038
X45630
X45866Y42274
X46102Y42510
X46339Y42746
X45866
X45630Y42510
X45394Y42746
Y42274
X46575Y42510
X46811Y42746
X47283
X47047Y42510
X47520
X47756Y42746
Y42274
X47520Y42038
X47756Y41801
Y41329
X47747Y40866
X47520Y41093
Y40620
X47756Y40384
X47283
X47047Y40620
X47283Y40856
X47047Y41093
X47283Y41329
Y41801
X47047Y41565
X47520
X47283Y42274
X47047Y42038
T04
X35423Y36782
X35679
X36378Y36476
X37421
X37559Y37106
X37963
X38341Y38032
X38150Y38406
X38573
X39055Y38563
Y38996
X38917Y39232
X38632Y39134
X38317
X39646Y38002
X39872Y37205
X40502Y36663
X40945Y36841
X40955Y36467
X40138Y36221
X39134Y36545
X38583Y36221
X41584Y37106
Y37352
X42224Y37402
X42254Y36585
X42864Y36782
X44006Y36634
X44035Y37402
X43730Y38140
X44754
X44419Y39410
X43740Y40561
X42569Y38150
X41939Y38337
X41693
X41112Y37628
X44685Y36339
X44902Y36329
X46368Y38573
X46824Y38139
X44597Y43613
X44911Y45256
X45512Y46585
X41319Y45541
X40344Y46860
X39941Y44360
X38750Y44784
X37224Y43730
X37156Y42963
X37598Y42628
X36703Y42500
X36800Y42244
X36358
X35374Y42343
Y41929
X37618Y41526
X37628Y41289
X36191Y38396
Y38150
X35384Y45384
Y45975
X35266Y46368
X35502
X46900Y45679
X48760Y45305
X48809Y44410
X50394Y45217
X50689Y45994
X49862Y42953
X50659Y42038
X50669Y41723
X50974Y41073
X49459Y40817
X48946Y41628
X51407Y42421
X52224Y39518
X51841Y38553
X50856Y37904
X50974Y36132
X48947Y36762
X48543Y37901
T05
X52923Y36821
Y46349
M30
