G04*
G04 #@! TF.GenerationSoftware,Altium Limited,Altium Designer,19.1.6 (110)*
G04*
G04 Layer_Color=32896*
%FSLAX44Y44*%
%MOMM*%
G71*
G01*
G75*
%ADD11C,0.2000*%
%ADD12C,0.2540*%
%ADD13C,0.1500*%
%ADD14C,0.2500*%
%ADD15C,0.1000*%
%ADD16C,0.1270*%
%ADD202C,0.0762*%
G36*
X57750Y6750D02*
X55750D01*
Y4750D01*
X57750D01*
Y6750D01*
D02*
G37*
G36*
X22000Y69250D02*
X22000Y66250D01*
X25000Y66250D01*
X22000Y69250D01*
D02*
G37*
G36*
Y101000D02*
X22000Y98000D01*
X25000Y98000D01*
X22000Y101000D01*
D02*
G37*
G36*
X45778Y143850D02*
Y153150D01*
X41128Y148500D01*
X45778Y143850D01*
D02*
G37*
G36*
X385750Y33500D02*
Y29500D01*
X383500D01*
Y33500D01*
X385750D01*
D02*
G37*
G36*
X413375Y146250D02*
Y149000D01*
X408000D01*
X413375Y146250D01*
D02*
G37*
G36*
X353646Y202499D02*
X353645Y210500D01*
X345646Y210499D01*
X353646Y202499D01*
D02*
G37*
G36*
X401750Y216750D02*
Y212750D01*
X405750D01*
X401750Y216750D01*
D02*
G37*
G36*
X390500Y280750D02*
Y284750D01*
X386500D01*
X390500Y280750D01*
D02*
G37*
G36*
X212805Y61000D02*
X208977D01*
X208769Y61014D01*
X208589Y61028D01*
X208408D01*
X208256Y61042D01*
X208117Y61056D01*
X207992Y61069D01*
X207881Y61083D01*
X207784Y61097D01*
X207701Y61111D01*
X207632D01*
X207590Y61125D01*
X207548Y61139D01*
X207521D01*
X207132Y61250D01*
X206786Y61375D01*
X206481Y61513D01*
X206231Y61638D01*
X206023Y61763D01*
X205940Y61804D01*
X205870Y61860D01*
X205815Y61888D01*
X205773Y61915D01*
X205759Y61943D01*
X205746D01*
X205427Y62234D01*
X205135Y62540D01*
X204872Y62859D01*
X204664Y63164D01*
X204484Y63441D01*
X204414Y63552D01*
X204359Y63663D01*
X204303Y63746D01*
X204275Y63801D01*
X204248Y63843D01*
Y63857D01*
X204137Y64093D01*
X204053Y64328D01*
X203901Y64800D01*
X203790Y65258D01*
X203762Y65480D01*
X203721Y65688D01*
X203707Y65882D01*
X203679Y66062D01*
X203665Y66215D01*
Y66353D01*
X203651Y66464D01*
Y66547D01*
Y66603D01*
Y66617D01*
Y66880D01*
X203679Y67116D01*
X203693Y67352D01*
X203721Y67546D01*
X203748Y67699D01*
X203776Y67823D01*
X203790Y67907D01*
X203804Y67934D01*
X203859Y68156D01*
X203929Y68364D01*
X204012Y68545D01*
X204081Y68697D01*
X204137Y68822D01*
X204192Y68919D01*
X204220Y68988D01*
X204234Y69002D01*
X204345Y69169D01*
X204456Y69321D01*
X204567Y69460D01*
X204664Y69571D01*
X204761Y69668D01*
X204830Y69737D01*
X204886Y69779D01*
X204900Y69793D01*
X205052Y69917D01*
X205191Y70015D01*
X205343Y70098D01*
X205468Y70181D01*
X205593Y70237D01*
X205676Y70278D01*
X205732Y70292D01*
X205759Y70306D01*
X206120Y70431D01*
X206300Y70472D01*
X206467Y70500D01*
X206619Y70528D01*
X206730Y70542D01*
X206800Y70556D01*
X206827D01*
X206897Y70569D01*
X206966D01*
X207160Y70583D01*
X207396D01*
X207632Y70597D01*
X210794D01*
X212805Y61000D01*
D02*
G37*
G36*
X203097D02*
X201141D01*
X200309Y64967D01*
X199505D01*
X199255Y64953D01*
X199047Y64939D01*
X198881Y64911D01*
X198742Y64869D01*
X198645Y64828D01*
X198575Y64800D01*
X198534Y64786D01*
X198520Y64772D01*
X198437Y64703D01*
X198354Y64634D01*
X198187Y64440D01*
X198048Y64232D01*
X197924Y64023D01*
X197813Y63829D01*
X197730Y63677D01*
X197702Y63607D01*
X197674Y63566D01*
X197660Y63538D01*
Y63524D01*
X197521Y63219D01*
X197397Y62928D01*
X197286Y62650D01*
X197189Y62401D01*
X197092Y62179D01*
X197008Y61971D01*
X196939Y61791D01*
X196870Y61624D01*
X196814Y61472D01*
X196773Y61347D01*
X196731Y61236D01*
X196703Y61153D01*
X196676Y61083D01*
X196662Y61042D01*
X196648Y61014D01*
Y61000D01*
X194526D01*
X194678Y61375D01*
X194831Y61721D01*
X194970Y62054D01*
X195108Y62359D01*
X195233Y62650D01*
X195358Y62914D01*
X195469Y63150D01*
X195580Y63358D01*
X195677Y63552D01*
X195760Y63718D01*
X195830Y63857D01*
X195899Y63968D01*
X195940Y64065D01*
X195982Y64120D01*
X195996Y64162D01*
X196010Y64176D01*
X196135Y64370D01*
X196259Y64550D01*
X196384Y64703D01*
X196481Y64842D01*
X196579Y64939D01*
X196648Y65022D01*
X196703Y65064D01*
X196717Y65077D01*
X196454Y65119D01*
X196190Y65174D01*
X195954Y65230D01*
X195746Y65299D01*
X195538Y65382D01*
X195358Y65466D01*
X195192Y65549D01*
X195053Y65632D01*
X194914Y65715D01*
X194803Y65785D01*
X194720Y65854D01*
X194637Y65923D01*
X194581Y65979D01*
X194526Y66020D01*
X194512Y66034D01*
X194498Y66048D01*
X194373Y66201D01*
X194249Y66367D01*
X194151Y66534D01*
X194068Y66700D01*
X193944Y67047D01*
X193860Y67366D01*
X193819Y67504D01*
X193805Y67643D01*
X193791Y67768D01*
X193777Y67865D01*
X193763Y67962D01*
Y68018D01*
Y68059D01*
Y68073D01*
X193777Y68378D01*
X193819Y68669D01*
X193888Y68919D01*
X193957Y69127D01*
X194027Y69293D01*
X194096Y69418D01*
X194138Y69502D01*
X194151Y69529D01*
X194304Y69737D01*
X194457Y69917D01*
X194623Y70056D01*
X194790Y70181D01*
X194928Y70264D01*
X195039Y70320D01*
X195108Y70347D01*
X195122Y70361D01*
X195136D01*
X195386Y70444D01*
X195663Y70500D01*
X195940Y70542D01*
X196218Y70569D01*
X196467Y70583D01*
X196565Y70597D01*
X201086D01*
X203097Y61000D01*
D02*
G37*
G36*
X217201Y70764D02*
X217478Y70750D01*
X217742Y70708D01*
X217991Y70652D01*
X218227Y70597D01*
X218435Y70528D01*
X218615Y70444D01*
X218782Y70375D01*
X218934Y70306D01*
X219073Y70223D01*
X219184Y70153D01*
X219267Y70098D01*
X219336Y70042D01*
X219392Y70015D01*
X219420Y69987D01*
X219434Y69973D01*
X219586Y69820D01*
X219725Y69654D01*
X219836Y69488D01*
X219933Y69321D01*
X220016Y69141D01*
X220099Y68974D01*
X220196Y68656D01*
X220238Y68517D01*
X220266Y68378D01*
X220280Y68253D01*
X220293Y68156D01*
X220307Y68073D01*
Y68004D01*
Y67962D01*
Y67948D01*
X220293Y67699D01*
X220266Y67463D01*
X220210Y67255D01*
X220155Y67074D01*
X220113Y66936D01*
X220058Y66825D01*
X220030Y66755D01*
X220016Y66728D01*
X219891Y66547D01*
X219766Y66381D01*
X219628Y66228D01*
X219503Y66118D01*
X219392Y66020D01*
X219295Y65937D01*
X219239Y65896D01*
X219212Y65882D01*
X219115Y65826D01*
X218990Y65757D01*
X218740Y65618D01*
X218463Y65493D01*
X218199Y65355D01*
X217964Y65244D01*
X217853Y65202D01*
X217756Y65161D01*
X217686Y65119D01*
X217631Y65105D01*
X217589Y65077D01*
X217575D01*
X217381Y64994D01*
X217187Y64911D01*
X217034Y64828D01*
X216882Y64759D01*
X216757Y64703D01*
X216646Y64647D01*
X216549Y64592D01*
X216466Y64537D01*
X216341Y64467D01*
X216258Y64412D01*
X216216Y64384D01*
X216202Y64370D01*
X216077Y64259D01*
X215994Y64134D01*
X215925Y64010D01*
X215883Y63899D01*
X215856Y63801D01*
X215842Y63718D01*
Y63663D01*
Y63649D01*
X215856Y63469D01*
X215911Y63316D01*
X215980Y63177D01*
X216064Y63053D01*
X216147Y62956D01*
X216216Y62872D01*
X216272Y62831D01*
X216285Y62817D01*
X216466Y62706D01*
X216688Y62623D01*
X216923Y62553D01*
X217145Y62512D01*
X217353Y62484D01*
X217450D01*
X217534Y62470D01*
X217894D01*
X218088Y62498D01*
X218269Y62512D01*
X218421Y62553D01*
X218574Y62581D01*
X218699Y62623D01*
X218823Y62678D01*
X218920Y62720D01*
X219087Y62817D01*
X219198Y62886D01*
X219253Y62942D01*
X219281Y62969D01*
X219378Y63108D01*
X219447Y63288D01*
X219503Y63496D01*
X219531Y63705D01*
X219558Y63885D01*
X219572Y64051D01*
X219586Y64107D01*
Y64148D01*
Y64176D01*
Y64190D01*
X221472Y64079D01*
X221458Y63732D01*
X221431Y63413D01*
X221375Y63122D01*
X221306Y62872D01*
X221236Y62664D01*
X221209Y62581D01*
X221181Y62512D01*
X221153Y62442D01*
X221139Y62401D01*
X221126Y62387D01*
Y62373D01*
X220959Y62110D01*
X220765Y61888D01*
X220557Y61680D01*
X220349Y61527D01*
X220155Y61388D01*
X220002Y61305D01*
X219933Y61264D01*
X219891Y61236D01*
X219863Y61222D01*
X219850D01*
X219503Y61083D01*
X219128Y60986D01*
X218768Y60917D01*
X218435Y60875D01*
X218283Y60848D01*
X218144D01*
X218019Y60834D01*
X217908Y60820D01*
X217700D01*
X217367Y60834D01*
X217062Y60861D01*
X216771Y60903D01*
X216507Y60958D01*
X216258Y61028D01*
X216022Y61111D01*
X215814Y61180D01*
X215634Y61277D01*
X215453Y61361D01*
X215315Y61430D01*
X215190Y61513D01*
X215079Y61583D01*
X215010Y61638D01*
X214940Y61680D01*
X214912Y61707D01*
X214899Y61721D01*
X214718Y61902D01*
X214566Y62068D01*
X214427Y62262D01*
X214316Y62442D01*
X214219Y62623D01*
X214136Y62803D01*
X214067Y62983D01*
X214011Y63150D01*
X213969Y63302D01*
X213942Y63441D01*
X213914Y63580D01*
X213900Y63691D01*
X213886Y63774D01*
Y63843D01*
Y63885D01*
Y63899D01*
X213900Y64093D01*
X213914Y64259D01*
X213997Y64592D01*
X214094Y64883D01*
X214219Y65119D01*
X214344Y65313D01*
X214455Y65466D01*
X214496Y65507D01*
X214538Y65549D01*
X214552Y65563D01*
X214566Y65577D01*
X214663Y65660D01*
X214788Y65757D01*
X214926Y65854D01*
X215093Y65951D01*
X215439Y66145D01*
X215800Y66326D01*
X216133Y66492D01*
X216285Y66561D01*
X216424Y66631D01*
X216535Y66672D01*
X216618Y66714D01*
X216674Y66728D01*
X216688Y66742D01*
X216882Y66825D01*
X217062Y66908D01*
X217229Y66991D01*
X217367Y67061D01*
X217506Y67130D01*
X217617Y67199D01*
X217714Y67255D01*
X217811Y67310D01*
X217950Y67393D01*
X218033Y67449D01*
X218088Y67491D01*
X218102Y67504D01*
X218213Y67615D01*
X218283Y67726D01*
X218338Y67837D01*
X218380Y67948D01*
X218407Y68045D01*
X218421Y68115D01*
Y68170D01*
Y68184D01*
X218407Y68337D01*
X218366Y68489D01*
X218310Y68614D01*
X218241Y68725D01*
X218185Y68808D01*
X218130Y68864D01*
X218088Y68905D01*
X218074Y68919D01*
X217922Y69016D01*
X217742Y69085D01*
X217547Y69141D01*
X217367Y69169D01*
X217187Y69196D01*
X217048Y69210D01*
X216910D01*
X216618Y69196D01*
X216355Y69155D01*
X216133Y69085D01*
X215966Y69030D01*
X215828Y68961D01*
X215731Y68891D01*
X215661Y68850D01*
X215648Y68836D01*
X215495Y68683D01*
X215384Y68517D01*
X215301Y68337D01*
X215231Y68170D01*
X215190Y68018D01*
X215148Y67893D01*
X215134Y67810D01*
Y67796D01*
Y67782D01*
X213248Y67865D01*
X213276Y68101D01*
X213318Y68337D01*
X213373Y68545D01*
X213442Y68753D01*
X213526Y68933D01*
X213609Y69113D01*
X213706Y69266D01*
X213803Y69418D01*
X213886Y69543D01*
X213969Y69654D01*
X214053Y69751D01*
X214122Y69834D01*
X214191Y69890D01*
X214233Y69931D01*
X214261Y69959D01*
X214275Y69973D01*
X214455Y70112D01*
X214649Y70237D01*
X214857Y70347D01*
X215079Y70444D01*
X215287Y70514D01*
X215509Y70583D01*
X215939Y70680D01*
X216133Y70708D01*
X216313Y70736D01*
X216480Y70750D01*
X216618Y70764D01*
X216729Y70777D01*
X216896D01*
X217201Y70764D01*
D02*
G37*
G36*
X216459Y80905D02*
X214587D01*
X214240Y82597D01*
X216098D01*
X216459Y80905D01*
D02*
G37*
G36*
X209400Y80101D02*
X209622Y80073D01*
X209816Y80017D01*
X210024Y79962D01*
X210385Y79796D01*
X210717Y79615D01*
X210870Y79518D01*
X210995Y79435D01*
X211106Y79352D01*
X211203Y79269D01*
X211286Y79213D01*
X211341Y79158D01*
X211369Y79130D01*
X211383Y79116D01*
X211217Y79962D01*
X212978D01*
X214434Y73000D01*
X212576D01*
X211910Y76190D01*
X211868Y76342D01*
X211841Y76481D01*
X211785Y76703D01*
X211730Y76897D01*
X211702Y77036D01*
X211674Y77133D01*
X211646Y77202D01*
X211633Y77244D01*
Y77258D01*
X211563Y77438D01*
X211494Y77590D01*
X211425Y77743D01*
X211355Y77854D01*
X211300Y77951D01*
X211258Y78020D01*
X211231Y78062D01*
X211217Y78076D01*
X211119Y78187D01*
X211022Y78284D01*
X210925Y78381D01*
X210828Y78450D01*
X210759Y78506D01*
X210690Y78547D01*
X210648Y78561D01*
X210634Y78575D01*
X210509Y78644D01*
X210398Y78686D01*
X210287Y78728D01*
X210190Y78742D01*
X210107Y78755D01*
X210052Y78769D01*
X209996D01*
X209871Y78755D01*
X209774Y78742D01*
X209691Y78714D01*
X209608Y78686D01*
X209552Y78644D01*
X209511Y78617D01*
X209497Y78603D01*
X209483Y78589D01*
X209414Y78520D01*
X209372Y78436D01*
X209317Y78298D01*
X209303Y78229D01*
X209289Y78173D01*
Y78145D01*
Y78131D01*
Y78034D01*
X209317Y77896D01*
X209331Y77743D01*
X209358Y77577D01*
X209386Y77438D01*
X209414Y77313D01*
X209428Y77216D01*
X209441Y77202D01*
Y77188D01*
X210315Y73000D01*
X208457D01*
X207791Y76148D01*
X207736Y76398D01*
X207680Y76620D01*
X207625Y76828D01*
X207555Y77008D01*
X207500Y77175D01*
X207444Y77327D01*
X207389Y77466D01*
X207333Y77590D01*
X207292Y77688D01*
X207236Y77785D01*
X207195Y77854D01*
X207167Y77923D01*
X207139Y77965D01*
X207111Y77993D01*
X207098Y78020D01*
X206987Y78159D01*
X206890Y78270D01*
X206779Y78367D01*
X206668Y78450D01*
X206446Y78589D01*
X206252Y78672D01*
X206085Y78728D01*
X205947Y78755D01*
X205891Y78769D01*
X205822D01*
X205697Y78755D01*
X205600Y78742D01*
X205503Y78714D01*
X205434Y78686D01*
X205378Y78644D01*
X205336Y78617D01*
X205322Y78603D01*
X205309Y78589D01*
X205253Y78520D01*
X205198Y78450D01*
X205156Y78298D01*
X205142Y78229D01*
X205128Y78187D01*
Y78145D01*
Y78131D01*
Y78104D01*
Y78062D01*
X205156Y77951D01*
X205184Y77799D01*
X205212Y77646D01*
X205239Y77493D01*
X205267Y77355D01*
X205281Y77299D01*
Y77271D01*
X205295Y77244D01*
Y77230D01*
X206196Y73000D01*
X204338D01*
X203423Y77230D01*
X203353Y77535D01*
X203312Y77799D01*
X203270Y78020D01*
X203256Y78187D01*
X203242Y78312D01*
X203228Y78409D01*
Y78464D01*
Y78478D01*
X203242Y78742D01*
X203298Y78977D01*
X203381Y79172D01*
X203464Y79338D01*
X203547Y79477D01*
X203631Y79574D01*
X203686Y79643D01*
X203700Y79657D01*
X203880Y79809D01*
X204088Y79920D01*
X204310Y80004D01*
X204518Y80059D01*
X204698Y80087D01*
X204851Y80115D01*
X204990D01*
X205267Y80101D01*
X205517Y80059D01*
X205766Y80004D01*
X205974Y79934D01*
X206155Y79865D01*
X206279Y79809D01*
X206335Y79782D01*
X206376Y79768D01*
X206390Y79754D01*
X206404D01*
X206640Y79615D01*
X206848Y79463D01*
X207015Y79324D01*
X207167Y79185D01*
X207278Y79061D01*
X207361Y78963D01*
X207417Y78908D01*
X207430Y78880D01*
X207486Y79088D01*
X207569Y79255D01*
X207666Y79421D01*
X207750Y79546D01*
X207847Y79643D01*
X207916Y79726D01*
X207971Y79768D01*
X207985Y79782D01*
X208152Y79893D01*
X208346Y79976D01*
X208554Y80031D01*
X208748Y80073D01*
X208914Y80101D01*
X209067Y80115D01*
X209192D01*
X209400Y80101D01*
D02*
G37*
G36*
X198707D02*
X199054Y80045D01*
X199373Y79976D01*
X199664Y79879D01*
X199942Y79768D01*
X200191Y79643D01*
X200427Y79504D01*
X200635Y79366D01*
X200815Y79213D01*
X200982Y79088D01*
X201106Y78950D01*
X201231Y78839D01*
X201315Y78742D01*
X201370Y78672D01*
X201412Y78617D01*
X201425Y78603D01*
X201564Y78395D01*
X201689Y78173D01*
X201786Y77951D01*
X201883Y77729D01*
X201952Y77507D01*
X202022Y77299D01*
X202119Y76911D01*
X202147Y76731D01*
X202174Y76564D01*
X202188Y76412D01*
X202202Y76287D01*
X202216Y76190D01*
Y76121D01*
Y76065D01*
Y76051D01*
X202202Y75788D01*
X202174Y75538D01*
X202133Y75288D01*
X202077Y75066D01*
X202008Y74858D01*
X201939Y74664D01*
X201855Y74498D01*
X201772Y74331D01*
X201703Y74193D01*
X201620Y74068D01*
X201550Y73957D01*
X201481Y73874D01*
X201425Y73804D01*
X201384Y73749D01*
X201356Y73721D01*
X201342Y73707D01*
X201176Y73555D01*
X200996Y73416D01*
X200801Y73291D01*
X200621Y73194D01*
X200427Y73111D01*
X200233Y73042D01*
X199872Y72931D01*
X199706Y72889D01*
X199553Y72861D01*
X199415Y72847D01*
X199290Y72834D01*
X199193Y72820D01*
X199054D01*
X198680Y72847D01*
X198347Y72903D01*
X198028Y72972D01*
X197764Y73069D01*
X197528Y73166D01*
X197445Y73208D01*
X197362Y73236D01*
X197307Y73278D01*
X197265Y73291D01*
X197237Y73319D01*
X197223D01*
X196932Y73527D01*
X196669Y73777D01*
X196433Y74026D01*
X196239Y74276D01*
X196100Y74512D01*
X196031Y74609D01*
X195989Y74692D01*
X195947Y74761D01*
X195920Y74817D01*
X195892Y74845D01*
Y74858D01*
X197570Y75136D01*
X197667Y74969D01*
X197778Y74817D01*
X197903Y74692D01*
X198028Y74581D01*
X198139Y74484D01*
X198263Y74401D01*
X198388Y74331D01*
X198499Y74290D01*
X198707Y74220D01*
X198804Y74193D01*
X198888Y74179D01*
X198943Y74165D01*
X199040D01*
X199248Y74179D01*
X199442Y74234D01*
X199609Y74304D01*
X199747Y74373D01*
X199872Y74456D01*
X199956Y74512D01*
X200011Y74567D01*
X200025Y74581D01*
X200150Y74748D01*
X200247Y74942D01*
X200316Y75122D01*
X200358Y75302D01*
X200385Y75469D01*
X200413Y75594D01*
Y75677D01*
Y75691D01*
Y75704D01*
Y75760D01*
X200399Y75815D01*
Y75871D01*
Y75885D01*
X195684D01*
X195601Y76301D01*
X195573Y76509D01*
X195559Y76703D01*
X195545Y76856D01*
Y76994D01*
Y77077D01*
Y77091D01*
Y77105D01*
X195559Y77369D01*
X195573Y77604D01*
X195615Y77840D01*
X195670Y78048D01*
X195726Y78256D01*
X195781Y78436D01*
X195850Y78603D01*
X195920Y78755D01*
X196003Y78880D01*
X196072Y79005D01*
X196128Y79102D01*
X196183Y79185D01*
X196239Y79241D01*
X196280Y79282D01*
X196294Y79310D01*
X196308Y79324D01*
X196461Y79463D01*
X196613Y79588D01*
X196780Y79685D01*
X196946Y79782D01*
X197112Y79865D01*
X197279Y79920D01*
X197612Y80017D01*
X197764Y80045D01*
X197903Y80073D01*
X198028Y80087D01*
X198139Y80101D01*
X198222Y80115D01*
X198347D01*
X198707Y80101D01*
D02*
G37*
G36*
X226250Y73000D02*
X219371D01*
X219038Y74609D01*
X223948D01*
X222270Y82597D01*
X224239D01*
X226250Y73000D01*
D02*
G37*
G36*
X218109D02*
X216251D01*
X214781Y79962D01*
X216653D01*
X218109Y73000D01*
D02*
G37*
G36*
X200615Y59139D02*
X200892Y58889D01*
X201197Y58653D01*
X201502Y58418D01*
X201807Y58210D01*
X202127Y58002D01*
X202432Y57807D01*
X202723Y57641D01*
X203000Y57475D01*
X203264Y57336D01*
X203500Y57225D01*
X203694Y57128D01*
X203860Y57045D01*
X203985Y56975D01*
X204068Y56948D01*
X204082Y56934D01*
X204096D01*
X204456Y55256D01*
X204221Y55311D01*
X203999Y55381D01*
X203763Y55450D01*
X203555Y55519D01*
X203375Y55588D01*
X203222Y55630D01*
X203167Y55658D01*
X203125Y55672D01*
X203111Y55686D01*
X203097D01*
X202820Y55810D01*
X202556Y55935D01*
X202321Y56046D01*
X202127Y56157D01*
X201960Y56254D01*
X201835Y56324D01*
X201766Y56379D01*
X201738Y56393D01*
X203125Y49750D01*
X201239D01*
X199214Y59402D01*
X200351D01*
X200615Y59139D01*
D02*
G37*
G36*
X211113Y49750D02*
X209505D01*
X205219Y56712D01*
X207244D01*
X208978Y53758D01*
X209019Y53675D01*
X209088Y53550D01*
X209172Y53411D01*
X209255Y53259D01*
X209338Y53106D01*
X209407Y52981D01*
X209463Y52898D01*
X209477Y52884D01*
Y52870D01*
X209546Y52745D01*
X209615Y52621D01*
X209713Y52427D01*
X209796Y52288D01*
X209851Y52177D01*
X209893Y52108D01*
X209921Y52066D01*
X209934Y52038D01*
X209948Y52121D01*
X209962Y52218D01*
X209990Y52454D01*
X210032Y52718D01*
X210073Y52995D01*
X210115Y53245D01*
X210142Y53370D01*
X210156Y53467D01*
X210170Y53550D01*
Y53605D01*
X210184Y53647D01*
Y53661D01*
X210656Y56712D01*
X212500D01*
X211113Y49750D01*
D02*
G37*
G36*
X197980D02*
X196122D01*
X195761Y51567D01*
X197619D01*
X197980Y49750D01*
D02*
G37*
G36*
X190089Y59388D02*
X190297Y59361D01*
X190491Y59319D01*
X190685Y59264D01*
X191046Y59125D01*
X191351Y58959D01*
X191489Y58875D01*
X191614Y58792D01*
X191725Y58723D01*
X191808Y58653D01*
X191878Y58598D01*
X191933Y58556D01*
X191961Y58529D01*
X191975Y58515D01*
X192141Y58334D01*
X192308Y58140D01*
X192474Y57932D01*
X192613Y57710D01*
X192876Y57267D01*
X193098Y56823D01*
X193195Y56615D01*
X193279Y56421D01*
X193362Y56254D01*
X193417Y56102D01*
X193459Y55977D01*
X193500Y55880D01*
X193514Y55824D01*
X193528Y55797D01*
X193694Y55242D01*
X193806Y54715D01*
X193889Y54216D01*
X193930Y53980D01*
X193958Y53772D01*
X193972Y53578D01*
X193986Y53397D01*
X194000Y53245D01*
Y53106D01*
X194014Y52995D01*
Y52926D01*
Y52870D01*
Y52856D01*
X194000Y52565D01*
X193986Y52288D01*
X193944Y52038D01*
X193902Y51803D01*
X193833Y51581D01*
X193778Y51386D01*
X193708Y51206D01*
X193639Y51040D01*
X193570Y50887D01*
X193500Y50762D01*
X193431Y50665D01*
X193375Y50568D01*
X193334Y50499D01*
X193292Y50457D01*
X193279Y50430D01*
X193265Y50416D01*
X193112Y50263D01*
X192959Y50138D01*
X192807Y50027D01*
X192640Y49930D01*
X192474Y49847D01*
X192321Y49778D01*
X192016Y49681D01*
X191739Y49611D01*
X191628Y49597D01*
X191531Y49584D01*
X191448Y49570D01*
X191337D01*
X191115Y49584D01*
X190907Y49611D01*
X190699Y49653D01*
X190505Y49708D01*
X190158Y49847D01*
X189839Y50013D01*
X189700Y50083D01*
X189590Y50166D01*
X189478Y50235D01*
X189395Y50305D01*
X189326Y50360D01*
X189270Y50402D01*
X189243Y50430D01*
X189229Y50443D01*
X189062Y50610D01*
X188896Y50804D01*
X188605Y51206D01*
X188355Y51622D01*
X188133Y52024D01*
X188050Y52218D01*
X187967Y52385D01*
X187897Y52551D01*
X187842Y52690D01*
X187800Y52801D01*
X187773Y52884D01*
X187745Y52940D01*
Y52954D01*
X187565Y53564D01*
X187426Y54146D01*
X187370Y54410D01*
X187329Y54673D01*
X187287Y54909D01*
X187260Y55145D01*
X187232Y55353D01*
X187218Y55533D01*
X187204Y55700D01*
Y55824D01*
X187190Y55935D01*
Y56019D01*
Y56074D01*
Y56088D01*
X187204Y56379D01*
X187218Y56656D01*
X187260Y56906D01*
X187315Y57156D01*
X187370Y57364D01*
X187426Y57572D01*
X187495Y57752D01*
X187565Y57918D01*
X187648Y58071D01*
X187717Y58196D01*
X187773Y58293D01*
X187828Y58390D01*
X187884Y58459D01*
X187925Y58501D01*
X187939Y58529D01*
X187953Y58542D01*
X188092Y58695D01*
X188244Y58820D01*
X188411Y58945D01*
X188563Y59042D01*
X188730Y59125D01*
X188882Y59194D01*
X189187Y59291D01*
X189465Y59361D01*
X189576Y59375D01*
X189673Y59388D01*
X189756Y59402D01*
X189867D01*
X190089Y59388D01*
D02*
G37*
G36*
X186006Y65840D02*
X190250Y61000D01*
X187698D01*
X186381Y62442D01*
X186200Y62650D01*
X186020Y62845D01*
X185868Y63011D01*
X185743Y63177D01*
X185618Y63316D01*
X185507Y63441D01*
X185424Y63552D01*
X185341Y63649D01*
X185216Y63801D01*
X185133Y63913D01*
X185091Y63968D01*
X185077Y63982D01*
X185035Y63885D01*
X184994Y63774D01*
X184883Y63538D01*
X184758Y63274D01*
X184633Y63011D01*
X184508Y62775D01*
X184453Y62678D01*
X184411Y62581D01*
X184370Y62512D01*
X184342Y62456D01*
X184314Y62415D01*
Y62401D01*
X183579Y61000D01*
X181346D01*
X183718Y65549D01*
X179322Y70597D01*
X181832D01*
X183330Y68933D01*
X183538Y68697D01*
X183760Y68434D01*
X183981Y68170D01*
X184203Y67934D01*
X184384Y67712D01*
X184467Y67615D01*
X184522Y67532D01*
X184578Y67477D01*
X184619Y67421D01*
X184647Y67393D01*
X184661Y67380D01*
X184689Y67449D01*
X184716Y67504D01*
X184730Y67532D01*
X184744Y67546D01*
X184855Y67754D01*
X184938Y67948D01*
X185022Y68115D01*
X185091Y68253D01*
X185160Y68378D01*
X185202Y68475D01*
X185257Y68572D01*
X185285Y68642D01*
X185313Y68697D01*
X185341Y68739D01*
X185368Y68808D01*
X185382Y68836D01*
X186325Y70597D01*
X188392D01*
X186006Y65840D01*
D02*
G37*
G36*
X159185D02*
X163428Y61000D01*
X160877D01*
X159559Y62442D01*
X159379Y62650D01*
X159199Y62845D01*
X159046Y63011D01*
X158921Y63177D01*
X158797Y63316D01*
X158686Y63441D01*
X158602Y63552D01*
X158519Y63649D01*
X158394Y63801D01*
X158311Y63913D01*
X158270Y63968D01*
X158256Y63982D01*
X158214Y63885D01*
X158172Y63774D01*
X158061Y63538D01*
X157937Y63274D01*
X157812Y63011D01*
X157687Y62775D01*
X157632Y62678D01*
X157590Y62581D01*
X157548Y62512D01*
X157521Y62456D01*
X157493Y62415D01*
Y62401D01*
X156758Y61000D01*
X154525D01*
X156896Y65549D01*
X152500Y70597D01*
X155010D01*
X156508Y68933D01*
X156716Y68697D01*
X156938Y68434D01*
X157160Y68170D01*
X157382Y67934D01*
X157562Y67712D01*
X157645Y67615D01*
X157701Y67532D01*
X157756Y67477D01*
X157798Y67421D01*
X157826Y67393D01*
X157839Y67380D01*
X157867Y67449D01*
X157895Y67504D01*
X157909Y67532D01*
X157923Y67546D01*
X158034Y67754D01*
X158117Y67948D01*
X158200Y68115D01*
X158270Y68253D01*
X158339Y68378D01*
X158380Y68475D01*
X158436Y68572D01*
X158464Y68642D01*
X158491Y68697D01*
X158519Y68739D01*
X158547Y68808D01*
X158561Y68836D01*
X159504Y70597D01*
X161570D01*
X159185Y65840D01*
D02*
G37*
G36*
X179280Y68988D02*
X176479D01*
X178143Y61000D01*
X176174D01*
X174509Y68988D01*
X171708D01*
X171389Y70597D01*
X178961D01*
X179280Y68988D01*
D02*
G37*
G36*
X172096Y61000D02*
X170141D01*
X169309Y64967D01*
X168504D01*
X168255Y64953D01*
X168047Y64939D01*
X167880Y64911D01*
X167742Y64869D01*
X167645Y64828D01*
X167575Y64800D01*
X167533Y64786D01*
X167520Y64772D01*
X167437Y64703D01*
X167353Y64634D01*
X167187Y64440D01*
X167048Y64231D01*
X166923Y64023D01*
X166812Y63829D01*
X166729Y63677D01*
X166701Y63607D01*
X166674Y63566D01*
X166660Y63538D01*
Y63524D01*
X166521Y63219D01*
X166396Y62928D01*
X166285Y62650D01*
X166188Y62401D01*
X166091Y62179D01*
X166008Y61971D01*
X165939Y61791D01*
X165869Y61624D01*
X165814Y61472D01*
X165772Y61347D01*
X165731Y61236D01*
X165703Y61153D01*
X165675Y61083D01*
X165661Y61042D01*
X165647Y61014D01*
Y61000D01*
X163526D01*
X163678Y61375D01*
X163831Y61721D01*
X163969Y62054D01*
X164108Y62359D01*
X164233Y62650D01*
X164358Y62914D01*
X164469Y63150D01*
X164580Y63358D01*
X164677Y63552D01*
X164760Y63718D01*
X164829Y63857D01*
X164899Y63968D01*
X164940Y64065D01*
X164982Y64120D01*
X164996Y64162D01*
X165009Y64176D01*
X165134Y64370D01*
X165259Y64550D01*
X165384Y64703D01*
X165481Y64842D01*
X165578Y64939D01*
X165647Y65022D01*
X165703Y65064D01*
X165717Y65077D01*
X165453Y65119D01*
X165190Y65174D01*
X164954Y65230D01*
X164746Y65299D01*
X164538Y65382D01*
X164358Y65466D01*
X164191Y65549D01*
X164053Y65632D01*
X163914Y65715D01*
X163803Y65785D01*
X163720Y65854D01*
X163636Y65923D01*
X163581Y65979D01*
X163526Y66020D01*
X163512Y66034D01*
X163498Y66048D01*
X163373Y66201D01*
X163248Y66367D01*
X163151Y66534D01*
X163068Y66700D01*
X162943Y67047D01*
X162860Y67366D01*
X162818Y67504D01*
X162804Y67643D01*
X162791Y67768D01*
X162777Y67865D01*
X162763Y67962D01*
Y68018D01*
Y68059D01*
Y68073D01*
X162777Y68378D01*
X162818Y68669D01*
X162888Y68919D01*
X162957Y69127D01*
X163026Y69293D01*
X163096Y69418D01*
X163137Y69501D01*
X163151Y69529D01*
X163304Y69737D01*
X163456Y69917D01*
X163623Y70056D01*
X163789Y70181D01*
X163928Y70264D01*
X164039Y70320D01*
X164108Y70347D01*
X164122Y70361D01*
X164136D01*
X164385Y70444D01*
X164663Y70500D01*
X164940Y70542D01*
X165217Y70569D01*
X165467Y70583D01*
X165564Y70597D01*
X170085D01*
X172096Y61000D01*
D02*
G37*
G36*
X193000Y65157D02*
X189352D01*
X188992Y66974D01*
X192639D01*
X193000Y65157D01*
D02*
G37*
%LPC*%
G36*
X209157Y69016D02*
X207701D01*
X207451Y69002D01*
X207243Y68974D01*
X207077Y68961D01*
X206952Y68933D01*
X206869Y68905D01*
X206813Y68891D01*
X206800D01*
X206619Y68808D01*
X206453Y68711D01*
X206314Y68600D01*
X206189Y68489D01*
X206092Y68378D01*
X206023Y68295D01*
X205981Y68239D01*
X205967Y68212D01*
X205856Y68004D01*
X205773Y67754D01*
X205718Y67504D01*
X205676Y67255D01*
X205648Y67019D01*
Y66922D01*
X205634Y66839D01*
Y66769D01*
Y66714D01*
Y66686D01*
Y66672D01*
X205648Y66242D01*
X205690Y65840D01*
X205759Y65480D01*
X205801Y65313D01*
X205829Y65174D01*
X205870Y65036D01*
X205912Y64925D01*
X205940Y64828D01*
X205967Y64731D01*
X205995Y64675D01*
X206023Y64620D01*
X206037Y64592D01*
Y64578D01*
X206189Y64273D01*
X206356Y63996D01*
X206522Y63746D01*
X206688Y63538D01*
X206827Y63386D01*
X206938Y63261D01*
X207008Y63191D01*
X207021Y63164D01*
X207035D01*
X207188Y63039D01*
X207340Y62928D01*
X207493Y62845D01*
X207632Y62775D01*
X207756Y62734D01*
X207854Y62692D01*
X207909Y62678D01*
X207937Y62664D01*
X208034Y62637D01*
X208145Y62623D01*
X208394Y62595D01*
X208644Y62567D01*
X208908Y62553D01*
X209143D01*
X209254Y62540D01*
X210516D01*
X209157Y69016D01*
D02*
G37*
G36*
X199463Y68988D02*
X196994D01*
X196759Y68961D01*
X196551Y68933D01*
X196398Y68905D01*
X196287Y68877D01*
X196218Y68850D01*
X196176Y68836D01*
X196162Y68822D01*
X196024Y68711D01*
X195913Y68586D01*
X195843Y68461D01*
X195788Y68337D01*
X195760Y68226D01*
X195732Y68128D01*
Y68073D01*
Y68045D01*
X195746Y67879D01*
X195774Y67712D01*
X195830Y67574D01*
X195885Y67449D01*
X195940Y67338D01*
X195996Y67255D01*
X196024Y67199D01*
X196038Y67185D01*
X196162Y67047D01*
X196287Y66922D01*
X196426Y66825D01*
X196551Y66742D01*
X196676Y66672D01*
X196773Y66631D01*
X196828Y66603D01*
X196856Y66589D01*
X196967Y66561D01*
X197092Y66534D01*
X197244Y66506D01*
X197397Y66492D01*
X197743Y66450D01*
X198090Y66437D01*
X198423Y66423D01*
X198562Y66409D01*
X200004D01*
X199463Y68988D01*
D02*
G37*
G36*
X198638Y78769D02*
X198541D01*
X198333Y78755D01*
X198153Y78714D01*
X197986Y78644D01*
X197861Y78575D01*
X197750Y78506D01*
X197681Y78436D01*
X197626Y78395D01*
X197612Y78381D01*
X197501Y78215D01*
X197418Y78034D01*
X197348Y77840D01*
X197307Y77660D01*
X197279Y77480D01*
X197265Y77341D01*
Y77285D01*
Y77244D01*
Y77230D01*
Y77216D01*
Y77161D01*
Y77105D01*
Y77050D01*
Y77036D01*
X200219D01*
X200150Y77341D01*
X200053Y77590D01*
X199942Y77812D01*
X199844Y77993D01*
X199747Y78145D01*
X199664Y78242D01*
X199609Y78312D01*
X199595Y78326D01*
X199415Y78478D01*
X199234Y78589D01*
X199054Y78658D01*
X198888Y78714D01*
X198749Y78742D01*
X198638Y78769D01*
D02*
G37*
G36*
X189964Y57905D02*
X189936D01*
X189797Y57891D01*
X189659Y57849D01*
X189548Y57794D01*
X189465Y57738D01*
X189381Y57683D01*
X189326Y57627D01*
X189298Y57586D01*
X189284Y57572D01*
X189201Y57433D01*
X189132Y57281D01*
X189090Y57100D01*
X189049Y56934D01*
X189035Y56781D01*
X189021Y56656D01*
Y56559D01*
Y56546D01*
Y56532D01*
Y56365D01*
X189035Y56171D01*
X189076Y55783D01*
X189132Y55381D01*
X189187Y54992D01*
X189229Y54812D01*
X189257Y54646D01*
X189284Y54493D01*
X189312Y54368D01*
X189340Y54271D01*
X189354Y54188D01*
X189368Y54132D01*
Y54118D01*
X189451Y53772D01*
X189534Y53453D01*
X189617Y53175D01*
X189700Y52912D01*
X189784Y52676D01*
X189867Y52468D01*
X189936Y52274D01*
X190019Y52121D01*
X190089Y51983D01*
X190144Y51858D01*
X190200Y51761D01*
X190241Y51691D01*
X190283Y51622D01*
X190311Y51581D01*
X190338Y51567D01*
Y51553D01*
X190505Y51386D01*
X190657Y51276D01*
X190824Y51192D01*
X190962Y51123D01*
X191087Y51095D01*
X191198Y51081D01*
X191254Y51067D01*
X191281D01*
X191420Y51081D01*
X191559Y51109D01*
X191670Y51164D01*
X191753Y51220D01*
X191836Y51276D01*
X191892Y51331D01*
X191919Y51359D01*
X191933Y51372D01*
X192016Y51511D01*
X192072Y51678D01*
X192127Y51858D01*
X192155Y52038D01*
X192169Y52205D01*
X192183Y52343D01*
Y52399D01*
Y52440D01*
Y52454D01*
Y52468D01*
X192169Y52856D01*
X192127Y53273D01*
X192072Y53675D01*
X192003Y54077D01*
X191975Y54257D01*
X191947Y54424D01*
X191919Y54576D01*
X191892Y54701D01*
X191864Y54812D01*
X191850Y54881D01*
X191836Y54937D01*
Y54951D01*
X191753Y55270D01*
X191670Y55561D01*
X191586Y55838D01*
X191503Y56074D01*
X191420Y56310D01*
X191337Y56504D01*
X191254Y56684D01*
X191171Y56851D01*
X191101Y56989D01*
X191046Y57100D01*
X190976Y57197D01*
X190935Y57281D01*
X190893Y57336D01*
X190865Y57391D01*
X190838Y57405D01*
Y57419D01*
X190685Y57586D01*
X190532Y57696D01*
X190380Y57780D01*
X190241Y57849D01*
X190117Y57877D01*
X190019Y57891D01*
X189964Y57905D01*
D02*
G37*
G36*
X168463Y68988D02*
X165994D01*
X165758Y68961D01*
X165550Y68933D01*
X165398Y68905D01*
X165287Y68877D01*
X165217Y68850D01*
X165176Y68836D01*
X165162Y68822D01*
X165023Y68711D01*
X164912Y68586D01*
X164843Y68461D01*
X164788Y68337D01*
X164760Y68225D01*
X164732Y68128D01*
Y68073D01*
Y68045D01*
X164746Y67879D01*
X164774Y67712D01*
X164829Y67574D01*
X164885Y67449D01*
X164940Y67338D01*
X164996Y67255D01*
X165023Y67199D01*
X165037Y67185D01*
X165162Y67047D01*
X165287Y66922D01*
X165426Y66825D01*
X165550Y66742D01*
X165675Y66672D01*
X165772Y66631D01*
X165828Y66603D01*
X165856Y66589D01*
X165966Y66561D01*
X166091Y66534D01*
X166244Y66506D01*
X166396Y66492D01*
X166743Y66450D01*
X167090Y66437D01*
X167423Y66423D01*
X167561Y66409D01*
X169004D01*
X168463Y68988D01*
D02*
G37*
%LPD*%
D11*
X293309Y292750D02*
G03*
X293309Y292750I-559J0D01*
G01*
X91275Y62529D02*
G03*
X91275Y62529I-353J0D01*
G01*
X14559Y133000D02*
G03*
X14559Y133000I-559J0D01*
G01*
X26077Y256750D02*
G03*
X26077Y256750I-327J0D01*
G01*
X36500Y240500D02*
G03*
X36500Y240500I-250J0D01*
G01*
X36707Y235750D02*
G03*
X36707Y235750I-707J0D01*
G01*
X381059Y24250D02*
G03*
X381059Y24250I-559J0D01*
G01*
X195707Y242000D02*
G03*
X195707Y242000I-707J0D01*
G01*
X43957Y181500D02*
G03*
X43957Y181500I-707J0D01*
G01*
X353645Y201500D02*
Y210500D01*
X344645D02*
X353645D01*
Y85500D02*
Y94500D01*
X344645Y85500D02*
X353645D01*
X228645D02*
X237645D01*
X228645D02*
Y94500D01*
Y210500D02*
X237645D01*
X228645Y201500D02*
Y210500D01*
X174250Y243000D02*
X214250D01*
X174250Y297000D02*
X214250D01*
X45778Y143850D02*
Y153150D01*
X41128Y148500D02*
X114667Y222039D01*
X114667Y74961D02*
X188206Y148500D01*
X41128D02*
X114667Y74961D01*
X114667Y222039D02*
X188206Y148500D01*
X429000Y72250D02*
Y81750D01*
Y72250D02*
X450460D01*
X429000Y138250D02*
X450460D01*
X429000Y128750D02*
Y138250D01*
X73500Y244500D02*
X135500D01*
Y294500D01*
X73500Y244500D02*
Y290500D01*
X77500Y294500D01*
X135500D01*
X429000Y158750D02*
Y168250D01*
Y158750D02*
X450460D01*
X429000Y224750D02*
X450460D01*
X429000Y215250D02*
Y224750D01*
X118418Y242747D02*
X121084D01*
X119751D01*
Y236083D01*
X121084Y234750D01*
X122417D01*
X123750Y236083D01*
X115753Y242747D02*
X110421D01*
X113087D01*
Y234750D01*
X107755D02*
Y240082D01*
X105089Y242747D01*
X102424Y240082D01*
Y234750D01*
Y238749D01*
X107755D01*
X94426Y241415D02*
X95759Y242747D01*
X98425D01*
X99758Y241415D01*
Y236083D01*
X98425Y234750D01*
X95759D01*
X94426Y236083D01*
Y238749D01*
X97092D01*
X-2835Y250332D02*
X-1503Y248999D01*
Y246333D01*
X-2835Y245000D01*
X-8167D01*
X-9500Y246333D01*
Y248999D01*
X-8167Y250332D01*
X-5501D01*
Y247666D01*
X-9500Y252997D02*
X-1503D01*
Y256996D01*
X-2835Y258329D01*
X-5501D01*
X-6834Y256996D01*
Y252997D01*
X-1503Y260995D02*
Y263661D01*
Y262328D01*
X-9500D01*
Y260995D01*
Y263661D01*
X-1503Y271658D02*
Y268992D01*
X-2835Y267659D01*
X-8167D01*
X-9500Y268992D01*
Y271658D01*
X-8167Y272991D01*
X-2835D01*
X-1503Y271658D01*
X230160Y117750D02*
X222163D01*
Y123082D01*
Y125747D02*
X230160D01*
X227495Y128413D01*
X230160Y131079D01*
X222163D01*
X228827Y139076D02*
X230160Y137744D01*
Y135078D01*
X228827Y133745D01*
X227495D01*
X226162Y135078D01*
Y137744D01*
X224829Y139076D01*
X223496D01*
X222163Y137744D01*
Y135078D01*
X223496Y133745D01*
X230160Y141742D02*
Y147074D01*
X228827D01*
X223496Y141742D01*
X222163D01*
X228827Y149740D02*
X230160Y151073D01*
Y153738D01*
X228827Y155071D01*
X223496D01*
X222163Y153738D01*
Y151073D01*
X223496Y149740D01*
X228827D01*
Y157737D02*
X230160Y159070D01*
Y161736D01*
X228827Y163069D01*
X223496D01*
X222163Y161736D01*
Y159070D01*
X223496Y157737D01*
X228827D01*
X222163Y171066D02*
Y165735D01*
X227495Y171066D01*
X228827D01*
X230160Y169733D01*
Y167067D01*
X228827Y165735D01*
X222163Y173732D02*
X230160D01*
X227495Y176398D01*
X230160Y179063D01*
X222163D01*
X438747Y141999D02*
X430750D01*
Y145997D01*
X432083Y147330D01*
X433416D01*
X434749Y145997D01*
Y141999D01*
Y145997D01*
X436082Y147330D01*
X437415D01*
X438747Y145997D01*
Y141999D01*
Y149996D02*
X430750D01*
Y153995D01*
X432083Y155328D01*
X433416D01*
X434749Y153995D01*
Y149996D01*
Y153995D01*
X436082Y155328D01*
X437415D01*
X438747Y153995D01*
Y149996D01*
D12*
X15570Y54450D02*
G03*
X15570Y54450I-1270J0D01*
G01*
Y86200D02*
G03*
X15570Y86200I-1270J0D01*
G01*
D13*
X22750Y150500D02*
G03*
X22750Y150500I-500J0D01*
G01*
X21250Y169500D02*
X31250D01*
X21250Y153500D02*
X31250D01*
X95164Y62176D02*
X111074Y78085D01*
X79255D02*
X95164Y62176D01*
X79255Y78085D02*
X95164Y93995D01*
X111074Y78085D01*
X14000Y117675D02*
Y122000D01*
X37500Y117675D02*
Y122000D01*
Y131000D02*
Y135325D01*
X13250Y258750D02*
Y294750D01*
Y258750D02*
X22000D01*
X64500D02*
X73250D01*
Y294750D01*
X109250Y4500D02*
X129250D01*
X109250D02*
Y28500D01*
X129250D01*
Y4500D02*
Y28500D01*
X408000Y149000D02*
X413375Y146250D01*
Y149000D01*
X408000D02*
X413375D01*
X388625D02*
X394000Y149000D01*
X388625Y146250D02*
X388625Y149000D01*
X388625Y124000D02*
Y126750D01*
Y124000D02*
X394000D01*
X408000Y124000D02*
X413375Y124000D01*
Y126750D01*
X386500Y284750D02*
X390500Y280750D01*
Y284750D01*
X386500D02*
X390500D01*
X366500D02*
X370500D01*
X366500Y280750D02*
Y284750D01*
Y260750D02*
Y264750D01*
Y260750D02*
X370500D01*
X386500D02*
X390500D01*
Y264750D01*
X395577Y83295D02*
X396827D01*
X395577Y72795D02*
Y83295D01*
Y72795D02*
X396827D01*
X412827Y83295D02*
X414077D01*
X412827Y72795D02*
X414077D01*
Y80545D02*
Y83295D01*
Y72795D02*
Y75545D01*
X19500Y225250D02*
Y243250D01*
X33500D01*
Y225250D02*
Y243250D01*
X19500Y225250D02*
X33500D01*
X36750Y218500D02*
Y231000D01*
X58750Y218500D02*
Y231000D01*
X383500Y7500D02*
Y33500D01*
X403500D01*
Y7500D02*
Y33500D01*
X383500Y7500D02*
X403500D01*
X22000Y66250D02*
Y76750D01*
X32500D01*
X22000Y66250D02*
X32500D01*
Y76750D01*
Y98000D02*
Y108500D01*
X22000Y98000D02*
X32500D01*
X22000Y108500D02*
X32500D01*
X22000Y98000D02*
Y108500D01*
X177750Y219250D02*
X190250D01*
X177750Y241250D02*
X190250D01*
X20500Y186250D02*
Y198750D01*
X42500Y186250D02*
Y198750D01*
X423760Y195250D02*
Y198000D01*
Y203000D02*
Y205750D01*
X422510Y195250D02*
X423760D01*
X422510Y205750D02*
X423760D01*
X405260Y195250D02*
X406510D01*
X405260D02*
Y205750D01*
X406510D01*
X401750Y232750D02*
Y236750D01*
X405750D01*
X421750D02*
X425750D01*
Y232750D02*
Y236750D01*
Y212750D02*
Y216750D01*
X421750Y212750D02*
X425750D01*
X401750D02*
X405750D01*
X401750D02*
Y216750D01*
X405750Y212750D01*
X342000Y292052D02*
X344750D01*
X334250D02*
X337000D01*
X344750Y290802D02*
Y292052D01*
X334250Y290802D02*
Y292052D01*
X344750Y273552D02*
Y274802D01*
X334250Y273552D02*
X344750D01*
X334250D02*
Y274802D01*
X142250Y57500D02*
X162250Y57500D01*
Y33500D02*
Y57500D01*
X142250Y33500D02*
X162250D01*
X142250D02*
Y57500D01*
X109250D02*
X129250Y57500D01*
Y33500D02*
Y57500D01*
X109250Y33500D02*
X129250D01*
X109250D02*
Y57500D01*
X142250Y4500D02*
X162250Y4500D01*
X142250Y4500D02*
Y28500D01*
X162250D01*
Y4500D02*
Y28500D01*
X266250Y33500D02*
Y57500D01*
Y33500D02*
X286250D01*
Y57500D01*
X266250D02*
X286250D01*
X232750Y4500D02*
X252750D01*
X232750D02*
Y28500D01*
X252750D01*
Y4500D02*
Y28500D01*
X266250Y4500D02*
X286250D01*
X266250D02*
Y28500D01*
X286250D01*
Y4500D02*
Y28500D01*
X232750Y57500D02*
X252750D01*
Y33500D02*
Y57500D01*
X232750Y33500D02*
X252750D01*
X232750D02*
Y57500D01*
X102498Y245917D02*
Y249249D01*
Y247583D01*
X97500D01*
Y250915D02*
X102498D01*
X100832Y252581D01*
X102498Y254247D01*
X97500D01*
X101665Y259245D02*
X102498Y258412D01*
Y256746D01*
X101665Y255913D01*
X100832D01*
X99999Y256746D01*
Y258412D01*
X99166Y259245D01*
X98333D01*
X97500Y258412D01*
Y256746D01*
X98333Y255913D01*
X0Y203500D02*
X-1833D01*
X-916D01*
Y208998D01*
X0Y208082D01*
X-8247Y208998D02*
X-6414Y208082D01*
X-4582Y206249D01*
Y204416D01*
X-5498Y203500D01*
X-7331D01*
X-8247Y204416D01*
Y205333D01*
X-7331Y206249D01*
X-4582D01*
X-3415Y33498D02*
X250D01*
Y30749D01*
X-1583Y31665D01*
X-2499D01*
X-3415Y30749D01*
Y28916D01*
X-2499Y28000D01*
X-666D01*
X250Y28916D01*
X-8913Y28000D02*
X-5248D01*
X-8913Y31665D01*
Y32582D01*
X-7997Y33498D01*
X-6164D01*
X-5248Y32582D01*
X460667Y156498D02*
Y149500D01*
X457168D01*
X456002Y150666D01*
Y155331D01*
X457168Y156498D01*
X460667D01*
X453669Y149500D02*
Y154165D01*
X451337Y156498D01*
X449004Y154165D01*
Y149500D01*
Y152999D01*
X453669D01*
X442006Y155331D02*
X443173Y156498D01*
X445505D01*
X446672Y155331D01*
Y150666D01*
X445505Y149500D01*
X443173D01*
X442006Y150666D01*
X110915Y245917D02*
X111748Y246750D01*
Y248416D01*
X110915Y249249D01*
X110082D01*
X109249Y248416D01*
Y247583D01*
Y248416D01*
X108416Y249249D01*
X107583D01*
X106750Y248416D01*
Y246750D01*
X107583Y245917D01*
X106750Y250915D02*
X111748D01*
Y253414D01*
X110915Y254247D01*
X109249D01*
X108416Y253414D01*
Y250915D01*
X110915Y255913D02*
X111748Y256746D01*
Y258412D01*
X110915Y259246D01*
X110082D01*
X109249Y258412D01*
Y257579D01*
Y258412D01*
X108416Y259246D01*
X107583D01*
X106750Y258412D01*
Y256746D01*
X107583Y255913D01*
X111415Y282999D02*
X112248Y282166D01*
Y280500D01*
X111415Y279667D01*
X108083D01*
X107250Y280500D01*
Y282166D01*
X108083Y282999D01*
X109749D01*
Y281333D01*
X107250Y284665D02*
X112248D01*
X107250Y287997D01*
X112248D01*
Y289663D02*
X107250D01*
Y292162D01*
X108083Y292995D01*
X111415D01*
X112248Y292162D01*
Y289663D01*
X0Y166250D02*
X-1833D01*
X-916D01*
Y171748D01*
X0Y170832D01*
X-4582D02*
X-5498Y171748D01*
X-7331D01*
X-8247Y170832D01*
Y169916D01*
X-7331Y168999D01*
X-8247Y168083D01*
Y167167D01*
X-7331Y166250D01*
X-5498D01*
X-4582Y167167D01*
Y168083D01*
X-5498Y168999D01*
X-4582Y169916D01*
Y170832D01*
X-5498Y168999D02*
X-7331D01*
X460667Y140250D02*
Y144915D01*
X458335Y147248D01*
X456002Y144915D01*
Y140250D01*
Y143749D01*
X460667D01*
X453669Y147248D02*
Y140250D01*
X450171D01*
X449004Y141416D01*
Y146081D01*
X450171Y147248D01*
X453669D01*
X442006Y146081D02*
X443173Y147248D01*
X445505D01*
X446672Y146081D01*
Y141416D01*
X445505Y140250D01*
X443173D01*
X442006Y141416D01*
X111998Y262417D02*
Y265749D01*
Y264083D01*
X107000D01*
X111165Y270747D02*
X111998Y269914D01*
Y268248D01*
X111165Y267415D01*
X107833D01*
X107000Y268248D01*
Y269914D01*
X107833Y270747D01*
X111998Y272413D02*
X107000D01*
X108666D01*
X111998Y275746D01*
X109499Y273246D01*
X107000Y275746D01*
X102498Y263750D02*
Y267082D01*
Y265416D01*
X97500D01*
X102498Y268748D02*
X97500D01*
Y271247D01*
X98333Y272080D01*
X101665D01*
X102498Y271247D01*
Y268748D01*
Y273746D02*
Y275413D01*
Y274580D01*
X97500D01*
Y273746D01*
Y275413D01*
X102498Y279667D02*
Y282999D01*
Y281333D01*
X97500D01*
X102498Y284665D02*
X97500D01*
Y287164D01*
X98333Y287997D01*
X101665D01*
X102498Y287164D01*
Y284665D01*
Y292162D02*
Y290496D01*
X101665Y289663D01*
X98333D01*
X97500Y290496D01*
Y292162D01*
X98333Y292996D01*
X101665D01*
X102498Y292162D01*
X400250Y41998D02*
X398417D01*
X399334D01*
Y36500D01*
X400250D01*
X398417D01*
X392003Y41082D02*
X392919Y41998D01*
X394752D01*
X395668Y41082D01*
Y37416D01*
X394752Y36500D01*
X392919D01*
X392003Y37416D01*
X390170Y41082D02*
X389254Y41998D01*
X387421D01*
X386505Y41082D01*
Y40166D01*
X387421Y39249D01*
X386505Y38333D01*
Y37416D01*
X387421Y36500D01*
X389254D01*
X390170Y37416D01*
Y38333D01*
X389254Y39249D01*
X390170Y40166D01*
Y41082D01*
X389254Y39249D02*
X387421D01*
X57000Y246998D02*
X55167D01*
X56084D01*
Y241500D01*
X57000D01*
X55167D01*
X48753Y246082D02*
X49669Y246998D01*
X51502D01*
X52418Y246082D01*
Y242416D01*
X51502Y241500D01*
X49669D01*
X48753Y242416D01*
X46920Y241500D02*
X45087D01*
X46003D01*
Y246998D01*
X46920Y246082D01*
X39589Y241500D02*
Y246998D01*
X42338Y244249D01*
X38673D01*
X71500Y242748D02*
X67835Y237250D01*
Y242748D02*
X71500Y237250D01*
X66002Y238166D02*
X65085Y237250D01*
X63253D01*
X62336Y238166D01*
Y241832D01*
X63253Y242748D01*
X65085D01*
X66002Y241832D01*
Y240916D01*
X65085Y239999D01*
X62336D01*
X27000Y222748D02*
X25167D01*
X26084D01*
Y217250D01*
X27000D01*
X25167D01*
X18753Y221832D02*
X19669Y222748D01*
X21502D01*
X22418Y221832D01*
Y218166D01*
X21502Y217250D01*
X19669D01*
X18753Y218166D01*
X16920Y217250D02*
X15087D01*
X16004D01*
Y222748D01*
X16920Y221832D01*
X8673Y222748D02*
X12338D01*
Y219999D01*
X10505Y220916D01*
X9589D01*
X8673Y219999D01*
Y218166D01*
X9589Y217250D01*
X11422D01*
X12338Y218166D01*
X20000Y206748D02*
X18167D01*
X19084D01*
Y201250D01*
X20000D01*
X18167D01*
X11753Y205832D02*
X12669Y206748D01*
X14502D01*
X15418Y205832D01*
Y202166D01*
X14502Y201250D01*
X12669D01*
X11753Y202166D01*
X9920Y201250D02*
X8087D01*
X9004D01*
Y206748D01*
X9920Y205832D01*
X5338Y201250D02*
X3505D01*
X4422D01*
Y206748D01*
X5338Y205832D01*
X192500Y215998D02*
X190667D01*
X191584D01*
Y210500D01*
X192500D01*
X190667D01*
X184253Y215082D02*
X185169Y215998D01*
X187002D01*
X187918Y215082D01*
Y211416D01*
X187002Y210500D01*
X185169D01*
X184253Y211416D01*
X182420D02*
X181504Y210500D01*
X179671D01*
X178755Y211416D01*
Y215082D01*
X179671Y215998D01*
X181504D01*
X182420Y215082D01*
Y214165D01*
X181504Y213249D01*
X178755D01*
X422248Y73250D02*
Y76915D01*
Y75083D01*
X416750D01*
X421332Y78748D02*
X422248Y79665D01*
Y81497D01*
X421332Y82414D01*
X420415D01*
X419499Y81497D01*
X418583Y82414D01*
X417666D01*
X416750Y81497D01*
Y79665D01*
X417666Y78748D01*
X418583D01*
X419499Y79665D01*
X420415Y78748D01*
X421332D01*
X419499Y79665D02*
Y81497D01*
X412500Y112998D02*
X408834D01*
X410667D01*
Y107500D01*
X403336Y112998D02*
X405169Y112082D01*
X407002Y110249D01*
Y108416D01*
X406085Y107500D01*
X404253D01*
X403336Y108416D01*
Y109333D01*
X404253Y110249D01*
X407002D01*
X330248Y278250D02*
Y281915D01*
Y280083D01*
X324750D01*
Y287414D02*
Y283748D01*
X328415Y287414D01*
X329332D01*
X330248Y286497D01*
Y284665D01*
X329332Y283748D01*
X407748Y51500D02*
Y55166D01*
Y53333D01*
X402250D01*
X407748Y60664D02*
Y56998D01*
X404999D01*
X405915Y58831D01*
Y59747D01*
X404999Y60664D01*
X403166D01*
X402250Y59747D01*
Y57915D01*
X403166Y56998D01*
X424750Y181498D02*
X421085D01*
X422917D01*
Y176000D01*
X419252D02*
X417419D01*
X418335D01*
Y181498D01*
X419252Y180582D01*
X385250Y292998D02*
X383417D01*
X384334D01*
Y287500D01*
X385250D01*
X383417D01*
X377003Y292082D02*
X377919Y292998D01*
X379752D01*
X380668Y292082D01*
Y288416D01*
X379752Y287500D01*
X377919D01*
X377003Y288416D01*
X371505Y292998D02*
X373337Y292082D01*
X375170Y290249D01*
Y288416D01*
X374254Y287500D01*
X372421D01*
X371505Y288416D01*
Y289333D01*
X372421Y290249D01*
X375170D01*
X385748Y130000D02*
Y131833D01*
Y130916D01*
X380250D01*
Y130000D01*
Y131833D01*
X384832Y138247D02*
X385748Y137331D01*
Y135498D01*
X384832Y134582D01*
X381166D01*
X380250Y135498D01*
Y137331D01*
X381166Y138247D01*
X380250Y142829D02*
X385748D01*
X382999Y140080D01*
Y143745D01*
X408000Y245498D02*
X406167D01*
X407084D01*
Y240000D01*
X408000D01*
X406167D01*
X399753Y244582D02*
X400669Y245498D01*
X402502D01*
X403418Y244582D01*
Y240916D01*
X402502Y240000D01*
X400669D01*
X399753Y240916D01*
X394254Y245498D02*
X397920D01*
Y242749D01*
X396087Y243666D01*
X395171D01*
X394254Y242749D01*
Y240916D01*
X395171Y240000D01*
X397004D01*
X397920Y240916D01*
X425750Y141248D02*
X422085Y135750D01*
Y141248D02*
X425750Y135750D01*
X420252Y140332D02*
X419335Y141248D01*
X417503D01*
X416586Y140332D01*
Y139416D01*
X417503Y138499D01*
X416586Y137583D01*
Y136666D01*
X417503Y135750D01*
X419335D01*
X420252Y136666D01*
Y137583D01*
X419335Y138499D01*
X420252Y139416D01*
Y140332D01*
X419335Y138499D02*
X417503D01*
X425000Y160748D02*
X421334Y155250D01*
Y160748D02*
X425000Y155250D01*
X419502D02*
X417669D01*
X418585D01*
Y160748D01*
X419502Y159832D01*
X414920D02*
X414003Y160748D01*
X412171D01*
X411254Y159832D01*
Y158916D01*
X412171Y157999D01*
X413087D01*
X412171D01*
X411254Y157083D01*
Y156166D01*
X412171Y155250D01*
X414003D01*
X414920Y156166D01*
X-3252Y93500D02*
Y95333D01*
Y94416D01*
X-8750D01*
Y93500D01*
Y95333D01*
X-4168Y101747D02*
X-3252Y100831D01*
Y98998D01*
X-4168Y98082D01*
X-7834D01*
X-8750Y98998D01*
Y100831D01*
X-7834Y101747D01*
X-8750Y107246D02*
Y103580D01*
X-5084Y107246D01*
X-4168D01*
X-3252Y106329D01*
Y104496D01*
X-4168Y103580D01*
Y109078D02*
X-3252Y109995D01*
Y111827D01*
X-4168Y112744D01*
X-5084D01*
X-6001Y111827D01*
Y110911D01*
Y111827D01*
X-6917Y112744D01*
X-7834D01*
X-8750Y111827D01*
Y109995D01*
X-7834Y109078D01*
X5498Y60474D02*
Y62307D01*
Y61390D01*
X0D01*
Y60474D01*
Y62307D01*
X4582Y68721D02*
X5498Y67805D01*
Y65972D01*
X4582Y65056D01*
X916D01*
X0Y65972D01*
Y67805D01*
X916Y68721D01*
X0Y74219D02*
Y70554D01*
X3665Y74219D01*
X4582D01*
X5498Y73303D01*
Y71470D01*
X4582Y70554D01*
X0Y78801D02*
X5498D01*
X2749Y76052D01*
Y79718D01*
X-3502Y60500D02*
Y62333D01*
Y61416D01*
X-9000D01*
Y60500D01*
Y62333D01*
X-4418Y68747D02*
X-3502Y67831D01*
Y65998D01*
X-4418Y65082D01*
X-8084D01*
X-9000Y65998D01*
Y67831D01*
X-8084Y68747D01*
X-9000Y74246D02*
Y70580D01*
X-5335Y74246D01*
X-4418D01*
X-3502Y73329D01*
Y71497D01*
X-4418Y70580D01*
X-9000Y79744D02*
Y76078D01*
X-5335Y79744D01*
X-4418D01*
X-3502Y78827D01*
Y76995D01*
X-4418Y76078D01*
X5498Y93545D02*
Y95378D01*
Y94461D01*
X0D01*
Y93545D01*
Y95378D01*
X4582Y101792D02*
X5498Y100876D01*
Y99043D01*
X4582Y98127D01*
X916D01*
X0Y99043D01*
Y100876D01*
X916Y101792D01*
X0Y107290D02*
Y103625D01*
X3665Y107290D01*
X4582D01*
X5498Y106374D01*
Y104541D01*
X4582Y103625D01*
X5498Y112788D02*
X4582Y110956D01*
X2749Y109123D01*
X916D01*
X0Y110039D01*
Y111872D01*
X916Y112788D01*
X1833D01*
X2749Y111872D01*
Y109123D01*
X49750Y257248D02*
X46084Y251750D01*
Y257248D02*
X49750Y251750D01*
X44252D02*
X42419D01*
X43335D01*
Y257248D01*
X44252Y256332D01*
X36004Y251750D02*
X39670D01*
X36004Y255415D01*
Y256332D01*
X36921Y257248D01*
X38753D01*
X39670Y256332D01*
X161638Y187638D02*
X160342Y188934D01*
X160990Y188286D01*
X157102Y184398D01*
X157750Y183750D01*
X156454Y185046D01*
X155158Y192822D02*
X156454Y192822D01*
X157750Y191526D01*
X157750Y190230D01*
X155158Y187638D01*
X153862D01*
X152566Y188934D01*
Y190230D01*
X154510Y194765D02*
X151918Y197357D01*
X151270Y196709D01*
Y191526D01*
X150622Y190878D01*
X46248Y118250D02*
Y120083D01*
Y119166D01*
X40750D01*
Y118250D01*
Y120083D01*
X45332Y126497D02*
X46248Y125581D01*
Y123748D01*
X45332Y122832D01*
X41666D01*
X40750Y123748D01*
Y125581D01*
X41666Y126497D01*
X40750Y128330D02*
Y130163D01*
Y129247D01*
X46248D01*
X45332Y128330D01*
X41666Y132912D02*
X40750Y133828D01*
Y135661D01*
X41666Y136577D01*
X45332D01*
X46248Y135661D01*
Y133828D01*
X45332Y132912D01*
X44415D01*
X43499Y133828D01*
Y136577D01*
X91638Y93388D02*
X90342Y94684D01*
X90990Y94036D01*
X87102Y90148D01*
X87750Y89500D01*
X86454Y90796D01*
X85158Y98572D02*
X86454Y98572D01*
X87750Y97276D01*
X87750Y95980D01*
X85158Y93388D01*
X83862D01*
X82566Y94684D01*
Y95980D01*
X80622Y96628D02*
X79326Y97924D01*
X79974Y97276D01*
X83862Y101164D01*
X83862Y99867D01*
X80622Y103107D02*
X80622Y104403D01*
X79326Y105699D01*
X78030Y105699D01*
X77382Y105051D01*
Y103755D01*
X76087Y103755D01*
X75438Y103107D01*
Y101812D01*
X76734Y100515D01*
X78030D01*
X78678Y101164D01*
Y102459D01*
X79974D01*
X80622Y103107D01*
X78678Y102459D02*
X77382Y103755D01*
X18750Y163748D02*
X16917D01*
X17834D01*
Y158250D01*
X18750D01*
X16917D01*
X10503Y162832D02*
X11419Y163748D01*
X13252D01*
X14168Y162832D01*
Y159166D01*
X13252Y158250D01*
X11419D01*
X10503Y159166D01*
X8670Y158250D02*
X6837D01*
X7754D01*
Y163748D01*
X8670Y162832D01*
X423Y158250D02*
X4088D01*
X423Y161915D01*
Y162832D01*
X1339Y163748D01*
X3172D01*
X4088Y162832D01*
X145998Y253250D02*
Y255083D01*
Y254166D01*
X140500D01*
Y253250D01*
Y255083D01*
X145082Y261497D02*
X145998Y260581D01*
Y258748D01*
X145082Y257832D01*
X141416D01*
X140500Y258748D01*
Y260581D01*
X141416Y261497D01*
X140500Y263330D02*
Y265163D01*
Y264246D01*
X145998D01*
X145082Y263330D01*
X145998Y267912D02*
Y271577D01*
X145082D01*
X141416Y267912D01*
X140500D01*
X301748Y275500D02*
Y277333D01*
Y276416D01*
X296250D01*
Y275500D01*
Y277333D01*
X300832Y283747D02*
X301748Y282831D01*
Y280998D01*
X300832Y280082D01*
X297166D01*
X296250Y280998D01*
Y282831D01*
X297166Y283747D01*
X296250Y285580D02*
Y287413D01*
Y286497D01*
X301748D01*
X300832Y285580D01*
Y290162D02*
X301748Y291078D01*
Y292911D01*
X300832Y293827D01*
X299916D01*
X298999Y292911D01*
Y291995D01*
Y292911D01*
X298083Y293827D01*
X297166D01*
X296250Y292911D01*
Y291078D01*
X297166Y290162D01*
X11998Y8000D02*
Y9833D01*
Y8916D01*
X6500D01*
Y8000D01*
Y9833D01*
X11082Y16247D02*
X11998Y15331D01*
Y13498D01*
X11082Y12582D01*
X7416D01*
X6500Y13498D01*
Y15331D01*
X7416Y16247D01*
X6500Y21746D02*
Y18080D01*
X10165Y21746D01*
X11082D01*
X11998Y20829D01*
Y18996D01*
X11082Y18080D01*
Y23578D02*
X11998Y24495D01*
Y26327D01*
X11082Y27244D01*
X7416D01*
X6500Y26327D01*
Y24495D01*
X7416Y23578D01*
X11082D01*
X367500Y34998D02*
X365667D01*
X366584D01*
Y29500D01*
X367500D01*
X365667D01*
X359253Y34082D02*
X360169Y34998D01*
X362002D01*
X362918Y34082D01*
Y30416D01*
X362002Y29500D01*
X360169D01*
X359253Y30416D01*
X353755Y29500D02*
X357420D01*
X353755Y33166D01*
Y34082D01*
X354671Y34998D01*
X356504D01*
X357420Y34082D01*
X216748Y142500D02*
Y144333D01*
Y143416D01*
X211250D01*
Y142500D01*
Y144333D01*
X215832Y150747D02*
X216748Y149831D01*
Y147998D01*
X215832Y147082D01*
X212166D01*
X211250Y147998D01*
Y149831D01*
X212166Y150747D01*
X211250Y152580D02*
Y154413D01*
Y153496D01*
X216748D01*
X215832Y152580D01*
X221835Y208998D02*
X225500D01*
Y206249D01*
X223667D01*
X225500D01*
Y203500D01*
X220002Y208998D02*
Y203500D01*
X216336D01*
X210838D02*
X214504D01*
X210838Y207166D01*
Y208082D01*
X211754Y208998D01*
X213587D01*
X214504Y208082D01*
D14*
X241500Y296000D02*
G03*
X241500Y296000I-1250J0D01*
G01*
X41671Y154157D02*
G03*
X41671Y154157I-1250J0D01*
G01*
X465750Y130500D02*
G03*
X465750Y130500I-250J0D01*
G01*
X243250Y294000D02*
G03*
X243250Y294000I-1250J0D01*
G01*
X465750Y217000D02*
G03*
X465750Y217000I-250J0D01*
G01*
D15*
X263750Y296250D02*
X281750D01*
X263750Y274250D02*
X281750D01*
X416845Y91045D02*
X418345Y92545D01*
X415845Y91045D02*
X418345D01*
X418345Y103045D01*
X396345Y95045D02*
Y103045D01*
X12509Y170596D02*
X16509D01*
X12509Y177096D02*
X16509D01*
X29750Y47500D02*
X33750D01*
X29750Y54000D02*
X33750D01*
X145997Y219150D02*
X145997Y215150D01*
X152497Y219150D02*
X152497Y215150D01*
X86750Y232000D02*
X90750D01*
X86750Y238500D02*
X90750D01*
X127500Y231500D02*
X131500D01*
X127500Y238000D02*
X131500D01*
X419250Y166000D02*
Y170000D01*
X425750Y166000D02*
Y170000D01*
X426250Y64050D02*
X426250Y68050D01*
X432750D02*
X432750Y64050D01*
X433750Y64000D02*
Y68000D01*
X440250Y64000D02*
Y68000D01*
X317500Y5500D02*
Y8500D01*
X315500Y10250D02*
X319500D01*
X315500Y3750D02*
X319500D01*
X377750Y53500D02*
Y61500D01*
X399750Y49500D02*
Y61500D01*
X397250Y49500D02*
X399750D01*
X398250Y49500D02*
X399750Y51000D01*
X351500Y27750D02*
X369500D01*
X351500Y5750D02*
X369500D01*
X247250Y284000D02*
X251250D01*
X247250Y290500D02*
X251250D01*
X249250Y285750D02*
Y288750D01*
X399050Y750D02*
X403050D01*
X399050Y7250D02*
X403050D01*
X401050Y5500D02*
X401050Y2500D01*
X70000Y9550D02*
Y13550D01*
X63500Y9550D02*
Y13550D01*
X65250Y11550D02*
X68250D01*
X49500Y206750D02*
X53500D01*
X49500Y200250D02*
X53500D01*
X51500Y202000D02*
Y205000D01*
X139000Y295500D02*
X143000D01*
X139000Y289000D02*
X143000D01*
X141000Y290750D02*
Y293750D01*
X36566Y40416D02*
X40566D01*
X36566Y46916D02*
X40566D01*
X24238Y40416D02*
X28238Y40416D01*
X24238Y46916D02*
X28238Y46916D01*
X341750Y19500D02*
Y23500D01*
X335250Y19500D02*
Y23500D01*
X324500Y24500D02*
Y28500D01*
X331000Y24500D02*
Y28500D01*
X223250Y223000D02*
Y227000D01*
X216750Y223000D02*
Y227000D01*
X230500Y230500D02*
Y234500D01*
X224000Y230500D02*
Y234500D01*
X197250Y20000D02*
X197250D01*
X206700Y232050D02*
Y236050D01*
X213200Y232050D02*
Y236050D01*
X208450Y234050D02*
X211450Y234050D01*
X141750Y244550D02*
Y248550D01*
X135250Y244550D02*
Y248550D01*
X137000Y246550D02*
X140000Y246550D01*
X160750Y240104D02*
X164750D01*
X160750Y233604D02*
X164750D01*
X162750Y235354D02*
Y238354D01*
X207700Y215500D02*
Y219500D01*
X214200D02*
X214200Y215500D01*
X209450Y217500D02*
X212450Y217500D01*
X143250Y239500D02*
Y243500D01*
X149750Y239500D02*
Y243500D01*
X206750Y226500D02*
Y230500D01*
X200250Y226500D02*
X200250Y230500D01*
X206750Y215500D02*
Y219500D01*
X200250Y215500D02*
Y219500D01*
X144250Y280250D02*
Y284250D01*
X137750Y280250D02*
Y284250D01*
X164375Y215375D02*
X164375Y219375D01*
X157875Y215375D02*
Y219375D01*
X13250Y148500D02*
X17250D01*
X13250Y155000D02*
X17250D01*
X15250Y150250D02*
Y153250D01*
X47750Y191250D02*
X51750D01*
X47750Y197750D02*
X51750D01*
X49750Y193000D02*
Y196000D01*
X47750Y190250D02*
X51750D01*
X47750Y183750D02*
X51750D01*
X49750Y185500D02*
Y188500D01*
X13800Y193300D02*
X13800Y189300D01*
X20300D02*
X20300Y193300D01*
X29750Y216000D02*
X33750D01*
X29750Y209500D02*
X33750D01*
X31750Y211250D02*
Y214250D01*
X42750Y167000D02*
X46750D01*
X42750Y160500D02*
X46750D01*
X44750Y165250D02*
X44750Y162250D01*
X407000Y176500D02*
X411000D01*
X407000Y183000D02*
X411000Y183000D01*
X418950Y183750D02*
X422950D01*
X418950Y190250D02*
X422950D01*
X406950Y183750D02*
X410950Y183750D01*
X406950Y190250D02*
X410950Y190250D01*
X118538Y220366D02*
X121366Y217538D01*
X123134Y224962D02*
X125962Y222134D01*
X121189Y220189D02*
X123311Y222311D01*
X5000Y289950D02*
X8000Y289950D01*
X3250Y291950D02*
X3250Y287950D01*
X9750D02*
Y291950D01*
X302500Y264500D02*
Y267500D01*
X300500Y269250D02*
X304500D01*
X300500Y262750D02*
X304500D01*
X261500Y258000D02*
Y261000D01*
X259500Y262750D02*
X263500D01*
X259500Y256250D02*
X263500D01*
X388750Y182000D02*
X391750D01*
X393500Y180000D02*
Y184000D01*
X387000Y180000D02*
Y184000D01*
X397500Y182000D02*
X400500D01*
X395750Y180000D02*
Y184000D01*
X402250Y180000D02*
Y184000D01*
X302500Y258000D02*
Y261000D01*
X300500Y256250D02*
X304500D01*
X300500Y262750D02*
X304500D01*
X385750Y225500D02*
X388750D01*
X390500Y223500D02*
Y227500D01*
X384000Y223500D02*
Y227500D01*
X261500Y264500D02*
Y267500D01*
X259500Y262750D02*
X263500D01*
X259500Y269250D02*
X263500D01*
X392250Y225500D02*
X395250D01*
X390500Y223500D02*
Y227500D01*
X397000Y223500D02*
Y227500D01*
X358300Y241000D02*
Y244000D01*
X356300Y245750D02*
X360300D01*
X356300Y239250D02*
X360300D01*
X372750Y181750D02*
X375750D01*
X377500Y179750D02*
Y183750D01*
X371000Y179750D02*
Y183750D01*
X358300Y234500D02*
Y237500D01*
X356300Y232750D02*
X360300D01*
X356300Y239250D02*
X360300D01*
X366250Y181750D02*
X369250D01*
X364500Y179750D02*
Y183750D01*
X371000Y179750D02*
Y183750D01*
X320700Y241000D02*
Y244000D01*
X318700Y239250D02*
X322700D01*
X318700Y245750D02*
X322700D01*
X373000Y219500D02*
X376000D01*
X371250Y217500D02*
Y221500D01*
X377750Y217500D02*
Y221500D01*
X320700Y234500D02*
Y237500D01*
X318700Y239250D02*
X322700D01*
X318700Y232750D02*
X322700D01*
X366500Y219500D02*
X369500D01*
X371250Y217500D02*
Y221500D01*
X364750Y217500D02*
Y221500D01*
X220500Y213250D02*
Y216250D01*
X218500Y218000D02*
X222500D01*
X218500Y211500D02*
X222500D01*
X76200Y237700D02*
X80200D01*
X76200Y231200D02*
X80200D01*
X78200Y235950D02*
X78200Y232950D01*
X127800Y222300D02*
X131800Y222300D01*
X127800Y228800D02*
X131800Y228800D01*
X129800Y224050D02*
X129800Y227050D01*
X191000Y151750D02*
Y155750D01*
X197500Y151750D02*
Y155750D01*
X204250Y157350D02*
Y161350D01*
X197750Y157350D02*
Y161350D01*
X356750Y258750D02*
Y262750D01*
X350250Y258750D02*
Y262750D01*
X238500Y72500D02*
Y76500D01*
X245000Y72500D02*
Y76500D01*
X240250Y74500D02*
X243250D01*
X252250Y69000D02*
X256250D01*
X252250Y62500D02*
X256250D01*
X229200Y74957D02*
X233200D01*
X229200Y68457D02*
X233200D01*
X82500Y66000D02*
X85500D01*
X87250Y64000D02*
Y68000D01*
X80750Y64000D02*
Y68000D01*
X55750Y6750D02*
X57750D01*
X55750Y4750D02*
Y6750D01*
Y4750D02*
X57750D01*
X25750D02*
Y36750D01*
X57750Y4750D02*
Y36750D01*
X207175Y140220D02*
X211175D01*
X207175Y133720D02*
X211175D01*
X243500Y238500D02*
Y242500D01*
X250000Y238500D02*
Y242500D01*
X9750Y268800D02*
X9750Y264800D01*
X3250D02*
Y268800D01*
X246300Y264550D02*
X250300D01*
X246300Y271050D02*
X250300D01*
X9750Y276750D02*
Y280750D01*
X3250Y276750D02*
Y280750D01*
X236000Y238500D02*
Y242500D01*
X242500Y238500D02*
Y242500D01*
X65450Y245200D02*
X69450D01*
X65450Y251700D02*
X69450D01*
X253000Y250750D02*
Y254750D01*
X246500Y250750D02*
Y254750D01*
X25300Y246750D02*
Y249750D01*
X23300Y251500D02*
X27300D01*
X23300Y245000D02*
X27300D01*
X12800Y251000D02*
X12800Y254000D01*
X10800Y249250D02*
X14800D01*
X10800Y255750D02*
X14800D01*
X116157Y64458D02*
X120157D01*
X116157Y70957D02*
X120157D01*
X84750Y87250D02*
X84750Y91250D01*
X78250Y87250D02*
Y91250D01*
X88270Y53867D02*
X91099Y56695D01*
X83674Y58463D02*
X86502Y61292D01*
X361250Y118650D02*
Y121650D01*
X359250Y123400D02*
X363250D01*
X359250Y116900D02*
X363250D01*
X420000Y121250D02*
X420000Y125250D01*
X413500D02*
X413500Y121250D01*
X415250Y123250D02*
X418250D01*
X361750Y136750D02*
Y140750D01*
X355250Y136750D02*
Y140750D01*
X5250Y133750D02*
X9250D01*
X5250Y127250D02*
X9250D01*
X5250Y125308D02*
X9250Y125308D01*
X5250Y118808D02*
X9250Y118808D01*
X17995Y3500D02*
X21995D01*
X17995Y10000D02*
X21995D01*
X19995Y5250D02*
Y8250D01*
X2243Y145667D02*
X6243D01*
X2243Y139167D02*
X6243D01*
X2243Y151997D02*
X6243D01*
X2243Y145497D02*
X6243D01*
X359500Y154850D02*
X362500D01*
X357750Y152850D02*
Y156850D01*
X364250Y152850D02*
Y156850D01*
X454000Y229000D02*
Y233000D01*
X447500Y229000D02*
Y233000D01*
X442750Y231000D02*
X445750Y231000D01*
X447500Y229000D02*
Y233000D01*
X441000Y229000D02*
Y233000D01*
X428700Y232550D02*
X431700D01*
X426950Y230550D02*
Y234550D01*
X433450Y230550D02*
Y234550D01*
X350500Y274050D02*
Y278050D01*
X357000Y274050D02*
Y278050D01*
X359750Y276050D02*
X362750D01*
X358000Y274050D02*
Y278050D01*
X364500Y274050D02*
Y278050D01*
X359500Y264500D02*
X362500D01*
X364250Y262500D02*
Y266500D01*
X357750Y262500D02*
Y266500D01*
X395985Y117600D02*
X395985Y120600D01*
X393985Y115850D02*
X397985Y115850D01*
X393985Y122350D02*
X397985Y122350D01*
X407250Y117000D02*
Y120000D01*
X405250Y121750D02*
X409250D01*
X405250Y115250D02*
X409250D01*
X136750Y209550D02*
X136750Y213550D01*
X143250Y209550D02*
X143250Y213550D01*
X135860Y209550D02*
Y213550D01*
X129360Y209550D02*
Y213550D01*
X131110Y211550D02*
X134110D01*
X51199Y125558D02*
X54028Y122730D01*
X55795Y130154D02*
X58624Y127326D01*
X72235Y102330D02*
X75064Y105158D01*
X67639Y106926D02*
X70468Y109754D01*
X61275Y113290D02*
X64104Y116118D01*
X56679Y117886D02*
X59508Y120715D01*
X83179Y204000D02*
X87179D01*
X83179Y197500D02*
X87179D01*
X62159Y112406D02*
X64988Y115234D01*
X66755Y107810D02*
X69584Y110638D01*
X64811Y112583D02*
X66932Y110462D01*
X359250Y130750D02*
X363250D01*
X359250Y124250D02*
X363250D01*
X251000Y221000D02*
Y225000D01*
X257500Y221000D02*
Y225000D01*
X251250Y217750D02*
X255250D01*
X251250Y211250D02*
X255250D01*
X253250Y213000D02*
Y216000D01*
X220000Y187750D02*
Y191750D01*
X226500Y187750D02*
Y191750D01*
X221750Y189750D02*
X224750D01*
X213500Y192000D02*
Y196000D01*
X220000Y192000D02*
Y196000D01*
X215250Y194000D02*
X218250D01*
X287865Y87250D02*
X291865D01*
X287865Y80750D02*
X291865D01*
X289865Y82500D02*
Y85500D01*
X293250Y72500D02*
Y76500D01*
X286750Y72500D02*
Y76500D01*
X284750Y72500D02*
Y76500D01*
X278250Y72500D02*
Y76500D01*
X276750Y87250D02*
X280750D01*
X276750Y80750D02*
X280750D01*
X278750Y82500D02*
Y85500D01*
X265950Y87250D02*
X269950D01*
X265950Y80750D02*
X269950D01*
X267950Y82500D02*
Y85500D01*
X274000Y72500D02*
Y76500D01*
X267500Y72500D02*
Y76500D01*
X298750Y80750D02*
X302750D01*
X298750Y87250D02*
X302750D01*
X300750Y82500D02*
Y85500D01*
X301250Y72500D02*
Y76500D01*
X294750Y72500D02*
Y76500D01*
X254950Y87250D02*
X258950D01*
X254950Y80750D02*
X258950D01*
X256950Y82500D02*
Y85500D01*
X262950Y72500D02*
Y76500D01*
X256450Y72500D02*
Y76500D01*
X243950Y87250D02*
X247950D01*
X243950Y80750D02*
X247950Y80750D01*
X245950Y85500D02*
X245950Y82500D01*
X252000Y72500D02*
Y76500D01*
X245500Y72500D02*
Y76500D01*
X363250Y166750D02*
Y170750D01*
X356750Y166750D02*
Y170750D01*
X358500Y168750D02*
X361500D01*
X367050Y169200D02*
X371050D01*
X367050Y162700D02*
X371050D01*
X368250Y148800D02*
X372250D01*
X368250Y155300D02*
X372250D01*
D16*
X306100Y237440D02*
Y245060D01*
X293400Y237440D02*
Y245060D01*
X221238Y13722D02*
X230762D01*
X221238Y17278D02*
X230762D01*
X257900Y237440D02*
Y245060D01*
X270600Y237440D02*
Y245060D01*
X385025Y109545D02*
X396025D01*
X385025Y101545D02*
Y109545D01*
Y88545D02*
Y96545D01*
Y88545D02*
X396025D01*
Y96545D01*
Y101545D02*
Y109545D01*
X366975Y68035D02*
X377975D01*
X366975Y60035D02*
Y68035D01*
Y47035D02*
Y55035D01*
Y47035D02*
X377975D01*
Y55035D01*
Y60035D02*
Y68035D01*
X170778Y74738D02*
Y84262D01*
X167222Y74738D02*
Y84262D01*
X313738Y54472D02*
X323262D01*
X313738Y58028D02*
X323262D01*
X312250Y42250D02*
X320250D01*
X325250D02*
X333250D01*
Y32250D02*
Y42250D01*
X325250Y32250D02*
X333250D01*
X312250D02*
X320250D01*
X312250D02*
Y42250D01*
X312000Y11250D02*
Y19250D01*
Y24250D02*
Y32250D01*
X323000D01*
Y24250D02*
Y32250D01*
Y11250D02*
Y19250D01*
X312000Y11250D02*
X323000D01*
X48982Y168447D02*
X54639Y162790D01*
X39790Y177639D02*
X45447Y171982D01*
X39790Y177639D02*
X46861Y184710D01*
X52518Y179053D01*
X56053Y175518D02*
X61710Y169861D01*
X54639Y162790D02*
X61710Y169861D01*
X64230Y191224D02*
X70965Y184489D01*
X61716Y188709D02*
X68450Y181975D01*
X128000Y90000D02*
X136000D01*
X141000D02*
X149000D01*
Y80000D02*
Y90000D01*
X141000Y80000D02*
X149000D01*
X128000D02*
X136000D01*
X128000D02*
Y90000D01*
X136222Y67988D02*
Y77512D01*
X139778Y67988D02*
Y77512D01*
X83250Y206969D02*
X91250D01*
X70250D02*
X78250D01*
X70250D02*
Y216969D01*
X78250D01*
X83250D02*
X91250D01*
Y206969D02*
Y216969D01*
X97540Y220347D02*
X103197Y226004D01*
X106732Y229539D02*
X112389Y235196D01*
X119460Y228125D01*
X113803Y222468D02*
X119460Y228125D01*
X104611Y213276D02*
X110268Y218933D01*
X97540Y220347D02*
X104611Y213276D01*
X82528Y218238D02*
Y227762D01*
X78972Y218238D02*
Y227762D01*
X7250Y226750D02*
Y234750D01*
Y239750D02*
Y247750D01*
X17250D01*
Y239750D02*
Y247750D01*
Y226750D02*
Y234750D01*
X7250Y226750D02*
X17250D01*
X367271Y37000D02*
Y47000D01*
X359271D02*
X367271D01*
X346271D02*
X354271D01*
X346271Y37000D02*
Y47000D01*
Y37000D02*
X354271D01*
X359271D02*
X367271D01*
X392500Y272500D02*
X402500D01*
X392500Y264500D02*
Y272500D01*
Y251500D02*
Y259500D01*
Y251500D02*
X402500D01*
Y259500D01*
Y264500D02*
Y272500D01*
X57940Y58150D02*
X65560D01*
X57940Y70850D02*
X65560D01*
X65527Y84972D02*
X75051D01*
X65527Y88528D02*
X75051D01*
X68245Y32250D02*
Y40250D01*
Y19250D02*
Y27250D01*
X58245Y19250D02*
X68245D01*
X58245D02*
Y27250D01*
Y32250D02*
Y40250D01*
X68245D01*
X25104Y32250D02*
Y40250D01*
Y19250D02*
Y27250D01*
X15104Y19250D02*
X25104D01*
X15104D02*
Y27250D01*
Y32250D02*
Y40250D01*
X25104D01*
X79245Y32250D02*
Y40250D01*
Y19250D02*
Y27250D01*
X68245Y19250D02*
X79245D01*
X68245D02*
Y27250D01*
Y32250D02*
Y40250D01*
X79245D01*
X22170Y57720D02*
X32330D01*
X22170Y84720D02*
X32330D01*
X22170Y89470D02*
X32330D01*
X22170Y116470D02*
X32330D01*
X346475Y57535D02*
X354475D01*
X359475D02*
X367475D01*
Y47535D02*
Y57535D01*
X359475Y47535D02*
X367475D01*
X346475D02*
X354475D01*
X346475D02*
Y57535D01*
X346475Y60035D02*
Y68035D01*
Y47035D02*
Y55035D01*
X336475Y47035D02*
X346475D01*
X336475D02*
Y55035D01*
Y60035D02*
Y68035D01*
X346475D01*
X346475Y67535D02*
X354475D01*
X359475D02*
X367475D01*
Y57535D02*
Y67535D01*
X359475Y57535D02*
X367475D01*
X346475D02*
X354475D01*
X346475D02*
Y67535D01*
X294500Y215000D02*
X302500D01*
X281500D02*
X289500D01*
X281500D02*
Y226000D01*
X289500D01*
X294500D02*
X302500D01*
Y215000D02*
Y226000D01*
X271500Y236000D02*
X279500D01*
X284500D02*
X292500D01*
Y226000D02*
Y236000D01*
X284500Y226000D02*
X292500D01*
X271500D02*
X279500D01*
X271500D02*
Y236000D01*
X261500Y226000D02*
X269500D01*
X274500D02*
X282500D01*
Y215000D02*
Y226000D01*
X274500Y215000D02*
X282500D01*
X261500D02*
X269500D01*
X261500D02*
Y226000D01*
X329000Y242500D02*
X337000D01*
X342000D02*
X350000D01*
Y232500D02*
Y242500D01*
X342000Y232500D02*
X350000D01*
X329000D02*
X337000D01*
X329000D02*
Y242500D01*
X342000Y263500D02*
X350000D01*
X329000D02*
X337000D01*
X329000D02*
Y273500D01*
X337000D01*
X342000D02*
X350000D01*
Y263500D02*
Y273500D01*
X339500Y255500D02*
Y263500D01*
Y242500D02*
Y250500D01*
X329500Y242500D02*
X339500D01*
X329500D02*
Y250500D01*
Y255500D02*
Y263500D01*
X339500D01*
X319000Y232500D02*
X327000D01*
X332000D02*
X340000D01*
Y221500D02*
Y232500D01*
X332000Y221500D02*
X340000D01*
X319000D02*
X327000D01*
X319000D02*
Y232500D01*
X339500Y242500D02*
Y250500D01*
Y255500D02*
Y263500D01*
X349500D01*
Y255500D02*
Y263500D01*
Y242500D02*
Y250500D01*
X339500Y242500D02*
X349500D01*
X352000Y221500D02*
X360000D01*
X339000D02*
X347000D01*
X339000D02*
Y232500D01*
X347000D01*
X352000D02*
X360000D01*
Y221500D02*
Y232500D01*
X282000Y236000D02*
Y244000D01*
Y249000D02*
Y257000D01*
X292000D01*
Y249000D02*
Y257000D01*
Y236000D02*
Y244000D01*
X282000Y236000D02*
X292000D01*
X282000Y249000D02*
Y257000D01*
Y236000D02*
Y244000D01*
X272000Y236000D02*
X282000D01*
X272000D02*
Y244000D01*
Y249000D02*
Y257000D01*
X282000D01*
X284500Y257000D02*
X292500D01*
X271500D02*
X279500D01*
X271500D02*
Y267000D01*
X279500D01*
X284500D02*
X292500D01*
Y257000D02*
Y267000D01*
X364525Y80545D02*
Y88545D01*
Y67545D02*
Y75545D01*
X354525Y67545D02*
X364525D01*
X354525D02*
Y75545D01*
Y80545D02*
Y88545D01*
X364525D01*
X364525Y88045D02*
X372525Y88045D01*
X377525D02*
X385525D01*
Y78045D02*
Y88045D01*
X377525Y78045D02*
X385525D01*
X364525D02*
X372525D01*
X364525Y88045D02*
X364525Y78045D01*
X395525Y80545D02*
Y88545D01*
Y67545D02*
Y75545D01*
X385525Y67545D02*
X395525D01*
X385525D02*
Y75545D01*
Y80545D02*
Y88545D01*
X395525D01*
X364525Y78045D02*
X372525D01*
X377525D02*
X385525D01*
X385525Y68045D01*
X377525Y68045D02*
X385525Y68045D01*
X364525Y68045D02*
X372525D01*
X364525D02*
Y78045D01*
X364500Y213000D02*
X364500Y221000D01*
X364500Y200000D02*
X364500Y208000D01*
X353500Y200000D02*
X364500D01*
X353500D02*
Y208000D01*
Y213000D02*
Y221000D01*
X364500D01*
X353500Y180000D02*
Y188000D01*
Y193000D02*
Y201000D01*
X364500D01*
Y193000D02*
Y201000D01*
X364500Y180000D02*
X364500Y188000D01*
X353500Y180000D02*
X364500Y180000D01*
X395500Y190000D02*
Y198000D01*
Y203000D02*
Y211000D01*
X405500D01*
Y203000D02*
Y211000D01*
X405500Y190000D02*
X405500Y198000D01*
X395500Y190000D02*
X405500D01*
X387500Y200500D02*
X395500D01*
X374500D02*
X382500D01*
X374500D02*
Y210500D01*
X382500D01*
X387500D02*
X395500D01*
Y200500D02*
Y210500D01*
X374500Y200500D02*
X382500D01*
X387500D02*
X395500D01*
Y190500D02*
Y200500D01*
X387500Y190500D02*
X395500D01*
X374500D02*
X382500D01*
X374500D02*
Y200500D01*
X374500Y203000D02*
Y211000D01*
Y190000D02*
Y198000D01*
X364500Y190000D02*
X374500D01*
X364500D02*
Y198000D01*
Y203000D02*
Y211000D01*
X374500D01*
X164488Y44722D02*
X174012D01*
X164488Y48278D02*
X174012Y48278D01*
X97488Y44722D02*
X107012D01*
X97488Y48278D02*
X107012D01*
X164488Y17278D02*
X174012D01*
X164488Y13722D02*
X174012D01*
X97488Y13722D02*
X107012D01*
X97488Y17278D02*
X107012D01*
X364525Y89045D02*
Y99045D01*
Y89045D02*
X372525D01*
X377525D02*
X385525D01*
Y99045D01*
X377525D02*
X385525D01*
X364525D02*
X372525D01*
X354525Y109545D02*
X364525D01*
X354525Y101545D02*
Y109545D01*
Y88545D02*
Y96545D01*
Y88545D02*
X364525D01*
Y96545D01*
Y101545D02*
Y109545D01*
X364525Y99045D02*
Y109045D01*
Y99045D02*
X372525D01*
X377525D02*
X385525D01*
Y109045D01*
X377525D02*
X385525D01*
X364525D02*
X372525D01*
X301000Y64250D02*
X312000D01*
X301000Y56250D02*
Y64250D01*
Y43250D02*
Y51250D01*
Y43250D02*
X312000Y43250D01*
X312000Y51250D01*
Y56250D02*
Y64250D01*
X288238Y48278D02*
X297762Y48278D01*
X288238Y44722D02*
X297762Y44722D01*
X197250Y42000D02*
X205250D01*
X210250D02*
X218250D01*
X218250Y31000D01*
X210250D02*
X218250D01*
X197250D02*
X205250D01*
X197250D02*
X197250Y42000D01*
X221238Y44722D02*
X230762D01*
X221238Y48278D02*
X230762D01*
X197250Y31000D02*
X205250D01*
X210250D02*
X218250D01*
X218250Y20000D02*
X218250Y31000D01*
X210250Y20000D02*
X218250D01*
X197250D02*
X205250D01*
X197250Y31000D02*
X197250Y20000D01*
X300250Y5000D02*
Y13000D01*
Y18000D02*
Y26000D01*
X311250Y26000D01*
X311250Y18000D01*
Y5000D02*
Y13000D01*
X300250Y5000D02*
X311250D01*
X288238Y17278D02*
X297762D01*
X288238Y13722D02*
X297762D01*
D202*
X147708Y92966D02*
X152280Y92966D01*
X157102D02*
X159388D01*
X161162D02*
X165734D01*
X168270D02*
X170556D01*
X171568D02*
X173854Y92966D01*
X176140Y92966D02*
X177664Y92966D01*
X179950Y92966D02*
X182236D01*
X188618D02*
X192428D01*
X194964Y92966D02*
X197250Y92966D01*
X198774Y92966D02*
X201060Y92966D01*
X202584Y92966D02*
X205632Y92966D01*
X206644D02*
X215026D01*
X147708Y93728D02*
X153042Y93728D01*
X157102D02*
X159388D01*
X160400D02*
X166496Y93728D01*
X168270Y93728D02*
X170556Y93728D01*
X171568Y93728D02*
X173854D01*
X175378D02*
X177664Y93728D01*
X179188Y93728D02*
X182236Y93728D01*
X187856Y93728D02*
X193190D01*
X194964Y93728D02*
X197250Y93728D01*
X198774Y93728D02*
X201060Y93728D01*
X202584Y93728D02*
X204870Y93728D01*
X206644Y93728D02*
X214264D01*
X146946Y94490D02*
X149232Y94490D01*
X150756Y94490D02*
X153042Y94490D01*
X157102D02*
X159388D01*
X160400D02*
X162686Y94490D01*
X164210Y94490D02*
X166496Y94490D01*
X167508Y94490D02*
X170556Y94490D01*
X171568Y94490D02*
X173854D01*
X175378D02*
X177664D01*
X179188D02*
X181474D01*
X187094Y94490D02*
X190142Y94490D01*
X190904Y94490D02*
X193190Y94490D01*
X194964Y94490D02*
X197250Y94490D01*
X198774Y94490D02*
X201060Y94490D01*
X202584Y94490D02*
X204870Y94490D01*
X206644Y94490D02*
X208930Y94490D01*
X211978Y94490D02*
X214264Y94490D01*
X146946Y95252D02*
X149232D01*
X150756D02*
X153042D01*
X156340D02*
X159388D01*
X160400D02*
X162686D01*
X164210D02*
X166496D01*
X167508D02*
X169794D01*
X171568D02*
X173854D01*
X175378D02*
X177664D01*
X179188D02*
X181474D01*
X190904D02*
X193190Y95252D01*
X194202Y95252D02*
X197250Y95252D01*
X198774Y95252D02*
X201060Y95252D01*
X202584Y95252D02*
X204870Y95252D01*
X205882Y95252D02*
X208168Y95252D01*
X211978D02*
X214264Y95252D01*
X146946Y96014D02*
X149232D01*
X150756D02*
X153042D01*
X156340D02*
X158626D01*
X164210D02*
X166496D01*
X167508D02*
X169794D01*
X170806D02*
X173854D01*
X175378D02*
X177664D01*
X179188D02*
X181474D01*
X190904D02*
X193190D01*
X194202D02*
X196488D01*
X198774D02*
X200298D01*
X202584D02*
X204870D01*
X205882D02*
X208168D01*
X211978D02*
X214264D01*
X146184Y96776D02*
X148470D01*
X150756D02*
X153042D01*
X156340D02*
X158626Y96776D01*
X164210Y96776D02*
X166496Y96776D01*
X167508Y96776D02*
X169794Y96776D01*
X170806Y96776D02*
X173092D01*
X174616D02*
X176902D01*
X179188D02*
X181474Y96776D01*
X186332Y96776D02*
X193190D01*
X194202D02*
X196488D01*
X198012D02*
X200298D01*
X201822D02*
X204870D01*
X205882D02*
X208168D01*
X211216D02*
X214264D01*
X146184Y97538D02*
X148470D01*
X150756Y97538D02*
X153042Y97538D01*
X156340D02*
X158626Y97538D01*
X163448Y97538D02*
X165734D01*
X167508D02*
X169794D01*
X170806Y97538D02*
X173092Y97538D01*
X174616Y97538D02*
X176902Y97538D01*
X178426Y97538D02*
X180712Y97538D01*
X186332D02*
X188618D01*
X190142D02*
X193190D01*
X194202D02*
X196488D01*
X198012D02*
X200298D01*
X201822D02*
X204108D01*
X205882D02*
X208168D01*
X211216D02*
X213502D01*
X146184Y98300D02*
X148470D01*
X149994D02*
X152280D01*
X156340D02*
X158626Y98300D01*
X159638Y98300D02*
X161924D01*
X163448D02*
X165734D01*
X166746Y98300D02*
X169032Y98300D01*
X170806Y98300D02*
X173092Y98300D01*
X174616Y98300D02*
X176902Y98300D01*
X178426Y98300D02*
X180712Y98300D01*
X186332D02*
X188618D01*
X190142D02*
X193190Y98300D01*
X194202Y98300D02*
X196488D01*
X198012D02*
X200298D01*
X201822D02*
X204108D01*
X205120D02*
X208168Y98300D01*
X211216Y98300D02*
X213502D01*
X146184Y99062D02*
X148470D01*
X149994D02*
X152280D01*
X153292D02*
X154816D01*
X155578D02*
X158626D01*
X159638D02*
X161924D01*
X163448D02*
X165734D01*
X166746D02*
X169032D01*
X170806D02*
X173092D01*
X174616D02*
X176902D01*
X178426D02*
X180712D01*
X186332D02*
X188618D01*
X190142D02*
X192428D01*
X193440D02*
X196488D01*
X198012D02*
X200298D01*
X201822D02*
X204108D01*
X205120D02*
X207406D01*
X211216D02*
X213502D01*
X146434Y99824D02*
X157864D01*
X159638D02*
X165734D01*
X166746D02*
X169032D01*
X170806D02*
X180712D01*
X186332D02*
X192428D01*
X194202D02*
X204108D01*
X205120D02*
X207406D01*
X211216D02*
X213502D01*
X146946Y100586D02*
X151518D01*
X152530D02*
X156340D01*
X159638D02*
X164972D01*
X166746D02*
X169032D01*
X170806D02*
X179188D01*
X186332D02*
X191666D01*
X194202D02*
X202584Y100586D01*
X205120Y100586D02*
X207406D01*
X210454D02*
X213502D01*
X148470Y101348D02*
X149232D01*
X154054D02*
X154816Y101348D01*
X187856Y101348D02*
X190142D01*
X194964Y101348D02*
X197250Y101348D01*
X199536D02*
X201060D01*
X210454Y101348D02*
X212740Y101348D01*
X165984Y102110D02*
X168270D01*
X205120D02*
X206644Y102110D01*
X210454D02*
X212740Y102110D01*
X165984Y102872D02*
X168270Y102872D01*
X204358Y102872D02*
X206644D01*
X210454D02*
X212740D01*
X166746Y103634D02*
X167508D01*
X204358D02*
X205882Y103634D01*
X193130Y105694D02*
X193892D01*
X193130Y106456D02*
X193892Y106456D01*
X201512D02*
X203036D01*
X193892Y107218D02*
X194654Y107218D01*
X201512Y107218D02*
X203036Y107218D01*
X184748Y107980D02*
X185510D01*
X194654Y107980D02*
X195416Y107980D01*
X201512Y107980D02*
X203036Y107980D01*
X186272Y108742D02*
X187034D01*
X194654Y108742D02*
X196178Y108742D01*
X201512D02*
X203036D01*
X187034Y109504D02*
X188558D01*
X195416D02*
X196940D01*
X200750D02*
X203036D01*
X188558Y110266D02*
X190082D01*
X200750D02*
X203036D01*
X189320Y111028D02*
X190844D01*
X200750D02*
X203036D01*
X190844Y111790D02*
X192368Y111790D01*
X201512Y111790D02*
X203036Y111790D01*
X192368Y112552D02*
X193130D01*
X202274Y112552D02*
X203036Y112552D01*
X202274Y113314D02*
X203798D01*
X203798Y114838D02*
X204560D01*
Y115600D02*
X205322Y115600D01*
Y116362D02*
X207608D01*
X193130Y117886D02*
X195416D01*
X206084D02*
X211418D01*
X190844Y118648D02*
X196178D01*
X206846D02*
X209894D01*
X187796Y119410D02*
X196940D01*
X206846D02*
X208370D01*
X196940Y120172D02*
X198464Y120172D01*
X206846Y120172D02*
X208370Y120172D01*
X198464Y120934D02*
X199226D01*
X206846D02*
X209132D01*
X199226Y121696D02*
X199988D01*
X206846D02*
X209894D01*
X199988Y122458D02*
X200750D01*
X206846D02*
X210656D01*
X199988Y123220D02*
X203036D01*
X206084Y123220D02*
X211418Y123220D01*
X199988Y123982D02*
X208370Y123982D01*
X210656Y123982D02*
X212180Y123982D01*
X200750Y124744D02*
X203036D01*
X206084D02*
X208370D01*
X212180D02*
X213704D01*
X200750Y125506D02*
X203036D01*
X206846D02*
X208370D01*
X213704D02*
X214466D01*
X200750Y126268D02*
X202274D01*
X207608D02*
X209132D01*
X215228D02*
X215990D01*
X200750Y127030D02*
X202274Y127030D01*
X207608Y127030D02*
X209894Y127030D01*
X215990Y127030D02*
X216752D01*
X200750Y127792D02*
X202274Y127792D01*
X208370Y127792D02*
X209894Y127792D01*
X217514D02*
X218276Y127792D01*
X200750Y128554D02*
X202274D01*
X209132D02*
X210656Y128554D01*
X219038Y128554D02*
X219800D01*
X200750Y129316D02*
X201512D01*
X209894D02*
X211418D01*
X200750Y130078D02*
X201512D01*
X210656D02*
X211418D01*
X200750Y130840D02*
X201512D01*
X211418D02*
X212180D01*
X211418Y131602D02*
X212942D01*
X212180Y132364D02*
X212942Y132364D01*
Y133126D02*
X213704D01*
Y133888D02*
X214466D01*
M02*
