M48
;Layer_Color=9474304
;FILE_FORMAT=4:4
METRIC,LZ
;TYPE=PLATED
T2F00S00C0.2000
T3F00S00C2.6000
;TYPE=NON_PLATED
T4F00S00C0.8000
%
T02
X0000275Y00003
X0001125Y0002975
X0000975Y000345
X00016Y000335
X00020104Y0003175
X00024604
X000255Y0002575
Y0002125
X0003075Y0002725
X0004175Y0002075
X00052Y0002725
X00064Y00017
X000765Y00017
X0007725Y00013
X0007775Y0002075
X0007625Y00004
X0007125
X0006575
X0005775Y0000325
X000415Y00003
X00084125Y00004625
X00088375Y000045
X00092625Y00004625
X0009825Y0001225
X00103
X00109Y0001625
X0013175Y000165
Y000225
Y00027
X0013575Y0002475
X0013575Y00019
X0013975Y000165
X0013975Y000225
X0013975Y00027
X0013575Y00031
X0013575Y0003725
Y00043
X0013975Y000455
X0013975Y000395
X0013975Y00035
X0013175Y00035
Y000395
Y000455
X00133Y0005725
X001385
X0014525Y0007775
X00142Y00095
X00140454Y001035
X0013588Y00113145
X00132345Y0011668
X0012875Y0012075
X00131659Y00124437
X00139416Y00123751
X00142266Y00135043
X00145Y001505
X00149773Y0015275
X0014975Y0015725
X00153558Y00159857
X00157094Y00162642
X00146131Y001605
X00139024Y00158715
X00135488Y0016225
X00128809Y00155571
X00121738
X00125274Y00152036
X00118203Y00152036
X00121738Y001485
Y00141429
X00128809
X00132345Y00144965
X0013588Y001485
X00155Y001515
X00157094Y00141429
X0016845Y00135143
X001695Y001275
X001732Y00113
X0016525Y0010075
X0018175Y00099
X0017325Y0008675
X0017675Y0007075
X0016925Y00064
X0016475
X001685Y0004975
X0017325
X0017375Y0004525
X0017825Y0004925
X001825Y0004925
X00177025Y00054025
X001805Y0002825
X0018475Y0002825
X0018625Y000335
X001805Y00011868
X0017325Y0001225
X001685
X00177Y00005
X0018725Y0000675
X001385Y0000425
X00133
X0012525Y00031
X0009675Y0003375
X000925
X0008825
X0009475Y0005
X0009475Y0005475
X0010075Y0004975
X001055
X0010675Y0006275
X0010775Y0007
X0010775Y000745
X00103125Y00070125
X0009825Y000625
X0008975Y00067014
X00095164Y00078085
X00083Y000835
X00086Y00087
X0007775Y0009
X000645Y000915
X0006375Y0007175
Y00067
X000655Y0005075
X00068Y000425
X00075Y00053
X0007925Y00053
X00078Y0005675
X0005125Y00053
X0004625Y00053
X0002875Y0005675
X00024Y00055
X0001935
X00015Y0005225
X-0000275Y0005375
X-00005Y0005775
X-00009497Y00051997
X-000085Y0004175
X-000035
X-00009247Y00068997
X-0000825Y0007375
X-0000875Y0008525
Y00095744
X-000095Y001005
X-000095Y00105494
X-00003Y001035
Y0009925
Y00095
X0000675Y0008725
X0001125Y0008725
X00018
X000225Y0007675
X000275Y0007825
X000185Y0006975
X000105Y00069
X0001025Y00101
X00019Y00105
X000335Y0010575
X00038163Y00106587
X0004475Y0010675
X000485Y0010075
X00053
X000485Y0009625
X00043Y0008675
X0003675Y000875
X000505Y0011125
X000545Y00109
X000545Y0011975
X000405Y0012125
X000415Y0012575
X0003337Y00137745
X0002825Y0013625
X00022803Y00147053
X0002625Y001505
X000285Y001545
X000375Y0016
X00037721Y001485
X0004925Y001535
X00054563Y00144965
X00058099Y001485
X00061634Y00152036
X00061634Y00144965
X000615Y0013105
X0005775Y0013425
X00068705Y00130822
X00072241Y00134358
X00079312Y00134358
X00079169Y00141285
X00076133Y00145321
X00075383Y00152179
X00075776Y00159107
X00068705Y00159107
X000665Y0017
X00057951Y00169861
X00055Y0016325
X0005375Y001845
X00043Y001755
X0002925Y00174
X0002425Y00173846
X0002675Y00184
X0002875Y001905
X0000625Y0016825
X-0000025Y00165549
Y00160925
X-000045Y001625
X-0000875Y001625
X-0000975Y00155
X-0000525
X-00006Y00147
X-000095Y00134494
X-000095Y00128747
X-000095Y00124
X-0000275Y0013225
X0001288Y0012625
X0001325Y001215
X00023Y0011675
X00012974Y0014725
X0000775Y001595
X000035Y00158
X00084704Y0015725
X0009125Y0015725
X00090275Y00165821
X00095Y00168
X00096846Y00173392
X0009699Y0018032
X00105167Y00179963
X00104061Y00187391
X00111488Y00187784
X0011375Y0017825
X00114667Y00169713
Y00162642
X00118203Y00159107
X00114667Y00155571
X00107596Y001485
X00100525
Y00155571
X00107596Y00162642
X00121738
X00124882Y00172857
X00121346Y00176392
X00121382Y00183499
X00132345Y00187391
X00139416
X00139416Y0018032
X00142952Y00176784
X00146487Y00173499
X00150023Y00169713
X0015628Y0017597
X0015725Y0018275
X0016175Y0018275
X0017075Y001825
X0017575Y001825
X0018Y00185
X0018375Y001825
X0017275Y0017525
X00167Y0017075
X001677Y00152036
X00171236Y001485
X00182509Y0014725
X0018275Y0013525
X0019025Y00135
X00185Y0012475
X0018325Y0015975
X001505Y0018675
X00131988Y00172892
X00089919Y00173249
X00089918Y00187391
X00082847Y0018032
Y00166178
X00093454Y001485
X00100525Y00141429
X00107596
X00114667
Y00134358
X00111132Y00130822
X00114667Y00127287
X0010375Y0012575
X00104746Y00117366
X00108282Y0011383
X00114Y0011125
X00107596Y00106074
X00100525Y00106074
X00093454Y00113145
X00082847Y00123751
X00082847Y00130822
X00086383Y00127287
X000915Y0013625
X00124588Y00117366
X00125274Y00109609
X00118203Y00102538
X00118203Y00095467
X00118203Y00088396
X001155Y0008125
X00110936Y00083
X0011725Y000735
X0012175Y000735
X00127Y0008275
X00154Y0008975
X00193Y00092
X0019775
X001955Y00088
X0021Y00091
X002145
X0020975Y0008375
X0021Y0007475
X00204Y0006525
X0020225Y000595
X002065
X002075Y0003125
X002025Y0003075
X0020475Y0002725
X002045Y000075
X0020025
X00196
X001915Y0000875
X0020925Y000035
X002145
X0021825Y0000975
X0022375Y000125
X002285
X002555Y000165
Y000225
Y00027
X002595Y0002475
Y00019
X002635Y000165
Y000225
Y00027
X002595Y00031
Y0003725
Y00043
X002635Y000455
Y000395
Y00035
X002555Y00035
Y000395
Y000455
X0025675Y0005725
X0026225
X002642Y000655
X0026825
X0026625Y0007725
X00276Y000795
Y00075
X0028975Y0006825
X0029Y0004975
X0029475
X003025Y0005825
X003105
X003155Y0005575
X00327Y0005475
X0032975Y0005075
X003315Y00038
X0033775Y0003775
X0034225Y0002775
X003535Y00021
X003555Y000335
X0036Y00033578
X00367Y000375
X003735Y00037
X00375Y0004575
X0035675Y0004725
X0035225Y0004725
X00353Y0006925
X0034825
X003375Y0008475
X00339285Y0009684
X00335955Y0010017
X00319305Y0009684
X00315975Y0009351
X003125Y0008975
X003045Y00079
X00305985Y001035
X00309315Y0010683
X00302655
X00299325Y0011016
X00286005
X00279345Y001035
X00276015Y0010683
X00272685Y001035
X00269355Y0010017
X00262695
X00266Y001035
X00266025Y0009684
X00266025Y0011016
X00270645Y001234
X00280645
Y001334
X00270645
Y001434
X00280645
Y001534
X00270645
Y001634
X00280645
Y001734
X00270645
X00269355Y00186751
X00266025Y00190081
X00259365
X00256035Y00186751
X00249375
X00246045Y00183421
X00249375Y00180091
X00252705Y00176761
X00252705Y00170101
X00249375Y00173431
X00246045Y00156781
Y0015012
X00242715Y00146791
X00246045Y0014346
X00249375Y0014679
X00252705Y0015012
Y0014346
Y001368
X00249375Y0012681
X00246045Y0012348
X00242715Y0012015
X00246045Y0011682
X00249375Y0012015
X00252705Y0012348
X00249375Y0011349
X0022475Y00113
X002165Y0012975
X0020275Y0012725
X00199Y00131
X0020025Y001355
X002055Y001505
X002175Y0015525
X002165Y00169
X00212Y00169
X0020775Y001705
X0020025Y001705
X0020075Y001785
X002055Y001795
X0021475Y001765
X00231974Y0017065
X0023325Y00183369
X00239385Y0014346
X00252705Y00156781
X00290645Y001535
Y001635
Y001735
X00300645Y001734
X002995Y0018175
X00292665Y00190081
X00289335Y00186751
X00286005Y00190081
X00282675Y00186751
X00279345Y00190081
X00322635Y00186751
X00329295
X00332625Y00190081
Y0018342
X00329295Y0018009
Y0017343
X00332625Y001701
X00335955Y0016677
X00339285Y0016344
Y001701
Y0017676
X00342615Y0018009
Y0017343
X00349371Y00167579
X0034725Y00159
X00335955Y0016011
X00329295Y0014679
Y0012681
X00335955
X00339285Y0012348
X00342615Y0012015
X0034575Y0011675
X00332625Y0011682
X00329295Y0012015
X00310645Y001234
X00300645
Y001334
X00310645
Y001434
X00300645
Y001534
Y001634
X00310645
Y001534
Y001734
X00339285Y00183421
X00350351Y00190142
X0035855Y0017725
X0037475Y00174
X003945Y001735
X003945Y0018225
Y0018675
X00404Y00178
X0040605Y0017375
X0041825Y0017375
X0041625Y00178
X004225Y00177
X0042475Y0018425
X004335Y001645
X00438Y001645
X00444Y0015575
X0043125Y0015075
Y0014625
Y0014175
X00430925Y00119
X00417Y0011425
X0041Y00115
X0040445Y00115
X00398785Y001156
X00391Y0012375
X0038Y0012325
X0037175Y001225
X00383923Y001145
X0038575Y0011025
X00373673Y000885
X0040475Y000855
X0040475Y0007
X0041Y0006725
X0040075Y0006575
X0039525Y0005775
X003895
X0040025Y0003875
X0040475Y00037
X0040275Y0002175
X00403Y000095
X0037575Y0001175
X0036925Y000055
X0034025Y00008
X00336Y00008
X0033175
X0032925Y000185
X00306Y0000975
X003015Y0000975
X00297Y0001225
X0029225
X002865Y0002175
Y00026
X0027Y00031
X0026225Y0000475
X0025675
X002305Y0004925
X0022575
X00236Y000775
X0024325Y0007975
X00254
X002305Y0009125
X00290645Y001235
Y001335
Y001435
X00345945Y001368
X0036825Y001475
X0037305Y001485
X003875Y0014625
X004045Y0014
X00401Y001365
X004045Y00133
X0041475Y0013425
X0041675Y0013
X00415Y0009925
X0041025Y000995
X00431Y000915
X0044075Y00091
X004455Y000915
X0044575Y00101
X0044075Y00101
X0044275Y0010525
X0044275Y00111
X004485Y0011465
X0044595Y0008075
X0045155
X0043825Y0007475
X0043375
X004635Y000635
X0045925Y0017075
X004115Y00165
X0038125Y0002875
X001965Y00162
X0020725Y0021475
X002175Y00206387
X00232Y0021125
X0023875Y0020825
X002435Y00208
X0024625Y00212
X002547Y0020825
X0025625Y0020325
X0026825Y0020475
X002653Y0020825
X0026605Y002137
X0025895Y002193
X002605Y002245
X002525Y0023175
X00249Y00248
X0024225Y00255
X00235Y0025375
X002365Y00258
X0023225Y00241
X002275Y00241
X0022225Y00241
X0021675Y00242
X0021225Y00242
X002075Y00242
X002055Y0025575
X00215Y0025725
X002115Y0027375
X0023875Y0028675
X002455Y002895
X0025075Y002895
X0025Y0028275
X002505Y00278
X0027375Y002735
X00277Y0026725
X0028175Y0026725
X00287
X002915
X0029025Y002735
X003165Y002715
X0032375Y0027175
Y0028425
X003293Y0028695
X0033925Y002835
X0035175Y00281646
X003575Y0028225
X00363Y00282
X0035605Y002673
X0035075Y002475
X0035Y002335
X0034725Y00219
X003445Y00214
X00349Y0021225
X0033725Y00204426
X00319305Y00203401
X00315975Y00200071
X00325965Y00196741
X00295995Y00200071
X00292665Y00203401
X00289335Y00200071
X00279345Y00196741
X00282675Y00193411
X00295995Y00193411
X00266025Y00196741
X00234Y00193542
X0022775Y0022525
X00307Y002245
X0031725Y0022155
X0030725Y0024125
X0032825Y002475
X003745Y0024825
X003785Y0024375
X0038175Y002395
X0040125Y002395
X0040475Y0023625
X00409Y0023225
X0041375Y00232
X00412Y00223
X0039575Y0022225
X003915Y0022225
X004005Y0021175
X004145Y002005
X0042725Y0019175
X0042825Y0020825
X004265Y0021325
X0043325Y0020525
X00444Y00222
X0046425Y002115
X0045875Y00192
X0044925Y0019175
X00402Y0025175
X003975
X0039Y002825
X003785Y0027275
X0030625Y0028775
X003045Y0029225
X0026475Y0029375
X001875Y0026225
X00172729Y0026975
X001655Y00257
X001565Y00257
X0015925Y00247172
X00163Y0024425
X001525Y0023975
X001555Y0023625
X001385Y002355
X0014625Y0022625
X0014635Y0021435
X0014625Y0020875
X001555Y002115
Y00216
X0016025Y002095
X001725Y0020925
X00181Y0021075
X00178Y0021775
X0018925Y002175
X00185Y0023175
X00180646Y0023175
X00127Y00228775
X001305Y002215
X0013025Y002135
X0011925Y00216375
X0011225Y0021575
X00102Y00217736
X000975Y0022275
X000925Y00214
X00091393Y00207129
X00089562Y00194818
X0008525Y001925
X00079Y0020075
X000655Y0019875
Y0022025
Y0023575
X0007125Y002345
X0007225Y0023925
X0007225Y0024375
X0007125Y0025375
X0006675
X00059
X0005075Y0025175
X0004975Y002405
X000545
X0005325Y0022625
X0004975Y00223
X0003525Y0021725
X000305
X000335Y0019925
X0003825Y0019125
X0004695Y00190625
X00044Y002045
X0000225Y0021
X-0000425Y00209997
X-0000875Y0021
X-0000575Y002175
X-00005Y00234497
X-000095Y002345
X-0000975Y00253995
X-0000525Y00253997
X00002Y0025425
Y002605
X-0000525Y00262247
X-0000975Y00262244
X00001Y0026925
X0000175Y00279
X000125Y0028775
X000265Y0027925
X0002425Y0026975
X00032
X000425Y002875
X0006325Y00291
X00061Y002725
X000725Y0027525
X0009825Y00272
X00103
X001005Y00268
X0010725Y0026475
X00111Y002675
X0010225Y00257
X000975Y00257
X00099Y0024825
X0009375
X00083Y0024275
X00087Y0023075
X001075Y0023475
X0011075Y0024825
X0011525Y00225
X00114667Y00197997
X00118203Y00194462
X00111132
X00100525Y00190926
X00128809Y00190926
X00136Y0025375
X00146Y0028125
X0015475Y002825
X0014825Y0029025
X001425Y0029025
X0013275
X001075Y002915
X00099
X0002675Y00244
X000225Y0024575
X0001225Y00248
Y0024125
X000165Y0023725
X000115Y002235
X000105Y0025975
T03
X004405Y000275
Y002695
T04
X00188625Y-0
X00200375
X004685Y00142625
Y00154375
X00200375Y00297
X00188625
M30
